<svg width="1440" height="560" viewBox="0 0 1440 560" fill="none" xmlns="http://www.w3.org/2000/svg">
<g clip-path="url(#clip0_3253_16937)">
<rect width="1440" height="560" fill="#955FFD"/>
<path d="M769.21 880.556C725.83 830.556 744.37 782.436 737.05 627.296C722.96 328.426 642.19 253.266 699.73 178.456C781.7 71.8963 1017.65 130.706 1077.2 145.546C1137.7 160.626 1496.75 250.116 1520.24 492.126C1540.78 703.796 1288.63 867.376 1118.42 916.996C1089.93 925.296 863.02 988.686 769.21 880.556Z" fill="#F6F6FF"/>
<path d="M913.094 138.158C913.094 138.158 961.494 304.508 987.604 302.158C998.184 301.208 1043.58 297.428 1064.94 294.698C1093.24 291.088 1139.62 288.548 1145.21 288.928C1196.41 292.338 1256.73 314.988 1292 384.768C1330.54 461.018 1376.82 567.288 1345.29 604.698C1318.83 636.088 1265.61 646.628 1188.11 570.948L1001.87 571.438L990.924 427.908C966.854 429.728 933.274 427.628 903.834 408.998C850.774 375.428 822.584 159.688 822.584 159.688L913.094 138.158Z" fill="#5AB2DD"/>
<path fill-rule="evenodd" clip-rule="evenodd" d="M981.593 380.338C921.833 387.848 872.853 329.538 848.773 293.748C862.183 344.818 880.633 394.328 903.833 409.008C933.273 427.638 966.853 429.738 990.923 427.918L991.373 433.828C1010.48 401.698 1016.25 375.978 981.593 380.338Z" fill="#4D80AA"/>
<path fill-rule="evenodd" clip-rule="evenodd" d="M918.774 156.638C913.914 141.318 913.104 138.158 913.104 138.158L822.584 159.698C822.584 159.698 823.584 167.578 825.934 182.338L918.774 156.638Z" fill="white"/>
<path d="M881.773 116.058L920.263 88.6784C924.063 85.9784 929.223 86.5084 932.473 89.8484C939.303 96.7284 949.853 98.1284 958.043 93.3584C968.903 87.0384 971.773 72.9484 964.653 62.9484C960.373 56.9384 953.523 53.8484 946.663 54.1184C943.643 54.2384 941.363 51.3584 942.393 48.5184C944.653 42.2484 943.913 35.0084 939.753 29.1684C932.623 19.1484 918.333 17.2584 908.813 25.4884C901.623 31.6984 899.523 42.1584 903.743 50.6684C905.943 55.0084 904.773 60.0684 900.973 62.7684L861.703 90.7084L881.773 116.058Z" fill="#9679BC"/>
<path d="M869.643 104.168C869.083 104.168 868.533 103.898 868.203 103.388C867.683 102.598 867.903 101.528 868.703 100.998L932.403 59.0682C933.183 58.5482 934.263 58.7582 934.793 59.5682C935.313 60.3582 935.093 61.4282 934.293 61.9582L870.593 103.888C870.293 104.068 869.963 104.168 869.643 104.168Z" fill="#F6F6FF"/>
<path d="M1269.1 489.969C1268.39 489.969 1267.73 489.519 1267.48 488.809C1267.16 487.909 1267.64 486.929 1268.54 486.609L1288.45 479.589C1289.34 479.259 1290.33 479.749 1290.65 480.639C1290.97 481.539 1290.49 482.519 1289.6 482.839L1269.69 489.859C1269.48 489.939 1269.29 489.969 1269.1 489.969Z" fill="#F6F6FF"/>
<path d="M1199.57 488.179C1198.7 488.179 1197.95 487.529 1197.85 486.649L1186.4 386.209C1186.29 385.259 1186.97 384.409 1187.92 384.299C1188.84 384.309 1189.72 384.879 1189.83 385.819L1201.29 486.269C1201.39 487.219 1200.71 488.069 1199.77 488.179C1199.71 488.169 1199.64 488.179 1199.57 488.179Z" fill="#F6F6FF"/>
<path d="M964.752 501.458C964.452 500.698 964.152 499.938 963.852 499.168C960.492 490.538 957.462 481.668 953.192 473.428C949.072 465.468 944.082 458.008 939.422 450.358C935.512 443.928 931.092 437.888 926.992 431.578C932.262 427.718 936.942 422.958 940.772 417.378C959.642 389.908 974.372 378.658 983.772 370.878C1002.57 355.318 1018.43 351.968 1029.79 358.738C1041.15 365.518 1041.25 388.038 1031.81 390.018C1022.38 391.998 1009.73 396.338 1006.87 411.978C1004.92 422.688 995.252 447.658 989.842 461.158C987.582 466.788 969.592 494.238 966.202 499.278C965.732 500.038 965.242 500.748 964.752 501.458Z" fill="#352C29"/>
<path d="M988.244 371.818C988.244 371.818 973.224 389.758 982.494 394.738L964.224 398.288L955.164 385.058L963.794 374.848L988.244 371.818Z" fill="#352C29"/>
<path d="M822.962 330.628C837.062 321.548 873.962 345.078 873.962 345.078C873.962 345.078 923.942 323.778 937.762 333.338C947.342 339.968 960.342 359.388 960.342 359.388C983.772 350.878 986.732 344.158 994.052 357.968C996.892 363.318 996.032 372.088 992.012 376.068C987.402 380.638 966.472 383.068 962.352 383.368C957.432 383.728 957.912 389.868 962.342 391.168C967.452 392.658 968.312 391.168 981.402 392.588C984.962 392.978 989.812 395.538 989.472 395.448C987.312 394.898 986.002 397.058 985.622 400.148C985.012 405.098 987.342 409.938 991.372 412.878C1000.56 419.578 1021.43 440.698 1010.2 489.118L1001.87 571.438H832.642L864.812 469.198C828.372 433.638 836.962 390.948 836.962 390.948C836.962 390.948 808.852 339.708 822.962 330.628Z" fill="#352C29"/>
<path d="M964.193 473.259C960.623 442.889 931.703 432.819 930.753 432.499C918.663 428.559 909.673 422.499 907.483 414.799C903.783 401.809 911.913 391.349 923.823 385.049C936.563 378.319 954.303 377.069 956.903 371.389C960.783 362.899 950.313 355.989 947.333 347.629C946.303 344.729 948.203 343.909 949.313 344.729C952.453 348.479 955.303 352.289 957.323 355.079C959.173 357.639 962.534 358.609 965.464 357.439C984.264 349.959 987.304 345.229 994.054 357.969C996.894 363.319 996.033 372.089 992.013 376.069C987.403 380.639 966.473 383.069 962.353 383.369C957.433 383.729 957.913 389.869 962.343 391.169C967.453 392.659 968.313 391.169 981.403 392.589C984.963 392.979 989.813 395.539 989.473 395.449C987.313 394.899 986.003 397.059 985.623 400.149C985.013 405.099 987.343 409.939 991.373 412.879C1000.56 419.579 1021.43 440.699 1010.2 489.119L1001.87 571.439H954.233C959.473 540.749 966.553 493.339 964.193 473.259Z" fill="#FAF4E5"/>
<path d="M906.694 334.798C906.694 334.798 882.994 311.408 873.174 311.858C863.354 312.308 866.924 351.918 866.924 351.918L906.694 334.798Z" fill="#352C29"/>
<path d="M855.053 475.278C866.603 453.698 889.183 458.878 925.873 464.718C948.203 468.268 970.513 458.568 983.313 439.928C1002.18 412.458 1016.91 401.208 1026.31 393.428C1045.11 377.868 1060.97 374.518 1072.33 381.288C1083.69 388.068 1083.79 410.588 1074.35 412.568C1064.92 414.548 1052.27 418.888 1049.41 434.528C1047.46 445.238 1037.79 470.208 1032.38 483.708C1030.12 489.338 1025.91 504.788 1008.74 521.828C991.813 538.628 969.363 545.358 955.143 549.128L952.443 565.768L832.623 567.608C832.643 567.618 835.713 511.418 855.053 475.278Z" fill="#352C29"/>
<path d="M991.884 363.728C988.464 358.048 984.544 361.498 979.384 359.488C977.654 358.818 976.244 357.109 975.574 355.089C975.254 354.129 975.734 353.078 976.664 352.678C985.954 348.688 988.954 348.329 994.054 357.969C994.744 359.269 995.214 360.768 995.464 362.358C995.804 364.458 993.014 365.589 991.904 363.779C991.904 363.759 991.894 363.748 991.884 363.728Z" fill="#222120"/>
<path d="M939.803 347.578C936.813 347.738 933.883 348.118 930.983 348.858C929.333 349.278 928.173 350.858 928.523 352.578C928.853 354.188 930.583 355.458 932.243 355.038C934.603 354.438 937.023 354.008 939.453 353.878C941.153 353.788 942.683 352.728 942.783 350.898C942.873 349.338 941.513 347.488 939.803 347.578Z" fill="white"/>
<path d="M990.983 383.309C999.603 383.039 1012.08 387.059 1013.14 391.409C1014.75 397.959 1008.66 399.099 1003.06 398.289C998.423 397.619 991.633 396.009 989.833 395.559C980.193 393.109 981.633 392.709 964.193 391.859C964.193 391.849 968.113 384.029 990.983 383.309Z" fill="#FFBBC8"/>
<path d="M1064.35 396.788C1063.8 396.788 1063.26 396.518 1062.93 396.038C1062.39 395.258 1062.59 394.178 1063.37 393.638C1067.54 390.768 1078.57 390.038 1079.81 389.958C1080.79 389.968 1081.58 390.638 1081.64 391.578C1081.7 392.528 1080.97 393.348 1080.02 393.408C1076.91 393.588 1068.2 394.508 1065.33 396.478C1065.03 396.688 1064.68 396.788 1064.35 396.788Z" fill="#F6F6FF"/>
<path d="M1057.76 383.028C1056.99 383.028 1056.28 382.508 1056.09 381.728C1055.86 380.808 1056.42 379.868 1057.34 379.638C1058.14 379.438 1065.21 377.668 1068.25 377.668C1069.2 377.668 1069.98 378.438 1069.98 379.398C1069.98 380.348 1069.21 381.128 1068.25 381.128C1066.03 381.128 1060.23 382.468 1058.18 382.988C1058.04 383.008 1057.9 383.028 1057.76 383.028Z" fill="#F6F6FF"/>
<path d="M1021.54 373.549C1020.99 373.549 1020.45 373.279 1020.12 372.799C1019.58 372.019 1019.78 370.939 1020.57 370.399C1024.74 367.529 1035.77 366.809 1037.01 366.729C1038.03 366.769 1038.78 367.409 1038.84 368.349C1038.89 369.299 1038.17 370.119 1037.21 370.179C1034.1 370.359 1025.39 371.269 1022.52 373.239C1022.22 373.449 1021.87 373.549 1021.54 373.549Z" fill="#F6F6FF"/>
<path d="M1014.95 359.778C1014.18 359.778 1013.47 359.258 1013.28 358.478C1013.05 357.558 1013.61 356.618 1014.53 356.388C1015.33 356.188 1022.4 354.418 1025.45 354.418C1026.4 354.418 1027.18 355.188 1027.18 356.148C1027.18 357.098 1026.41 357.878 1025.45 357.878C1023.23 357.878 1017.43 359.218 1015.37 359.738C1015.23 359.768 1015.09 359.778 1014.95 359.778Z" fill="#F6F6FF"/>
<path d="M872.072 347.168C871.502 347.168 870.932 346.878 870.612 346.358C870.102 345.548 870.352 344.488 871.162 343.988C885.612 334.968 919.272 330.368 920.702 330.188C921.692 330.098 922.512 330.738 922.642 331.668C922.772 332.618 922.102 333.478 921.162 333.608C920.822 333.658 886.822 338.288 873.002 346.908C872.712 347.078 872.392 347.168 872.072 347.168Z" fill="#F6F6FF"/>
<path d="M872.974 360.788C872.534 360.788 872.094 360.628 871.764 360.288C871.584 360.118 853.744 342.708 832.434 340.168C831.494 340.058 830.814 339.198 830.924 338.258C831.034 337.318 831.794 336.658 832.834 336.748C855.344 339.428 873.424 357.088 874.174 357.838C874.854 358.508 874.864 359.608 874.194 360.278C873.864 360.618 873.424 360.788 872.974 360.788Z" fill="#F6F6FF"/>
<path d="M859.244 363.738C859.244 363.738 852.634 359.108 848.904 356.538C848.124 355.988 847.924 354.918 848.464 354.128C849.004 353.348 850.074 353.158 850.874 353.688C854.604 356.268 861.234 360.908 861.234 360.908L859.244 363.738Z" fill="#F6F6FF"/>
<path d="M882.132 342.518C881.472 342.518 880.852 342.148 880.562 341.498C877.612 334.988 876.672 320.358 876.642 319.738C876.582 318.788 877.302 317.968 878.252 317.908C879.272 317.898 880.022 318.608 880.082 319.518C880.102 319.668 881.032 334.138 883.702 340.078C884.102 340.948 883.712 341.968 882.842 342.358C882.612 342.468 882.372 342.518 882.132 342.518Z" fill="#F6F6FF"/>
<path d="M932.323 467.248C924.803 467.248 916.113 466.248 906.243 463.588C905.323 463.348 904.773 462.398 905.023 461.478C905.263 460.558 906.223 459.958 907.133 460.258C945.423 470.528 965.483 454.848 965.683 454.698C966.403 454.108 967.513 454.198 968.103 454.968C968.703 455.708 968.583 456.798 967.833 457.388C967.193 457.918 955.243 467.248 932.323 467.248Z" fill="#F6F6FF"/>
<path d="M942.403 550.869C941.463 550.869 940.533 550.849 939.583 550.829C938.633 550.809 937.883 550.009 937.903 549.059C937.923 548.109 938.693 547.229 939.673 547.379C1003.15 548.969 1028.47 491.579 1028.72 490.999C1029.09 490.119 1030.1 489.719 1030.98 490.089C1031.86 490.459 1032.27 491.469 1031.89 492.349C1031.64 492.939 1006.32 550.869 942.403 550.869Z" fill="#F6F6FF"/>
<path d="M1064.94 294.698C1093.24 291.088 1139.62 288.548 1145.21 288.928C1152.55 289.418 1159.8 290.398 1166.94 291.928C1166.81 292.138 1138.32 362.148 1084.58 353.798C1046.16 347.828 1038.54 315.588 1037.32 297.678C1047.75 296.658 1057.72 295.618 1064.94 294.698Z" fill="white"/>
<path d="M1064.94 294.698C1093.24 291.088 1139.62 288.548 1145.21 288.928C1147.21 289.058 1149.2 289.238 1151.18 289.438L1146.52 296.588C1146.52 296.588 1125.98 344.548 1087.24 338.828C1055.86 334.198 1052.98 306.448 1053.02 296.078C1057.45 295.598 1061.5 295.138 1064.94 294.698Z" fill="#FF9D76"/>
<path d="M1145.2 288.928C1132.68 249.648 1103.64 159.698 1103.64 159.698L1088.87 163.958L1087.76 172.268C1074.6 177.018 1025.46 183.608 1025.46 183.608L1023.4 194.508C1023.4 194.508 1032.72 275.708 1044.55 282.508C1053.47 287.638 1064.39 286.698 1070.65 285.728L1075.88 319.628L1145.2 288.928Z" fill="#FF9D76"/>
<path d="M1116.4 152.619C1097.13 138.539 1049.53 136.769 1029.32 159.699C1018.84 171.579 1014.57 193.469 1023.69 198.209C1024.17 198.459 1023.28 189.589 1030.08 186.039C1041.06 180.299 1063.51 178.539 1080.12 177.229C1080.12 177.229 1077.14 191.309 1087.64 201.949C1095.41 209.819 1100.37 204.389 1100.37 204.389L1111.14 225.019C1111.14 225.019 1109.66 244.629 1133.91 253.699C1133.91 253.699 1131.7 246.069 1136.55 219.649C1139.9 201.419 1140.63 170.319 1116.4 152.619Z" fill="#75434B"/>
<path d="M1098.49 208.579C1098.71 207.869 1099.01 200.729 1105.64 199.239C1112.28 197.759 1116.75 201.389 1118.35 211.409C1119.96 221.429 1108.74 228.519 1104.63 225.419C1100.52 222.329 1098.49 208.579 1098.49 208.579Z" fill="#FF9D76"/>
<path d="M1099.65 216.129C1098.71 216.129 1097.95 215.379 1097.92 214.439C1097.91 214.169 1097.84 207.959 1102.95 204.639C1105.35 203.079 1107.54 202.679 1109.47 203.449C1112.46 204.639 1113.38 208.109 1113.48 208.499C1113.7 209.429 1113.13 210.359 1112.21 210.589C1111.23 210.799 1110.35 210.249 1110.13 209.319C1109.97 208.729 1109.33 207.089 1108.19 206.649C1107.16 206.259 1105.79 206.899 1104.84 207.529C1101.32 209.819 1101.38 214.309 1101.38 214.359C1101.4 215.309 1100.65 216.099 1099.69 216.129C1099.68 216.129 1099.67 216.129 1099.65 216.129Z" fill="#EF685E"/>
<path d="M1104.34 271.448C1106.14 269.108 1103.41 265.988 1100.86 267.468C1087.75 275.048 1068.34 286.248 1067.74 286.388C1067.5 286.448 1074.43 310.268 1074.43 310.268L1104.34 271.448Z" fill="#EF685E"/>
<path d="M1077.29 185.298C1077.04 185.298 1076.79 185.248 1076.55 185.128C1075.69 184.718 1075.32 183.688 1075.74 182.828L1084.38 164.738C1084.79 163.858 1085.82 163.508 1086.68 163.928C1087.54 164.338 1087.91 165.368 1087.49 166.228L1078.85 184.318C1078.55 184.938 1077.93 185.298 1077.29 185.298Z" fill="#FF9D76"/>
<path d="M1062.86 222.378C1064.26 222.038 1065.12 220.628 1064.79 219.228L1063.81 215.168C1063.47 213.768 1062.06 212.908 1060.66 213.238C1059.26 213.578 1058.4 214.988 1058.73 216.388L1059.71 220.448C1060.04 221.848 1061.46 222.708 1062.86 222.378Z" fill="#49263E"/>
<path d="M941.2 367.537C942.6 367.197 943.46 365.787 943.13 364.387L942.15 360.327C941.81 358.927 940.4 358.067 939 358.397C937.6 358.737 936.74 360.147 937.07 361.547L938.05 365.607C938.38 367.007 939.8 367.867 941.2 367.537Z" fill="#E8E8E8"/>
<path d="M1033.86 229.348C1035.26 229.008 1036.12 227.598 1035.79 226.198L1034.81 222.138C1034.47 220.738 1033.06 219.878 1031.66 220.208C1030.26 220.548 1029.4 221.958 1029.73 223.358L1030.71 227.418C1031.05 228.808 1032.46 229.678 1033.86 229.348Z" fill="#49263E"/>
<path d="M1042.48 244.029C1039.71 244.029 1037.21 242.849 1035.18 240.559C1032.67 237.719 1031.5 233.829 1031.98 231.969C1032.25 230.939 1032.69 229.909 1033.19 228.789C1034.75 225.289 1036.69 220.939 1034.21 210.629C1033.99 209.699 1034.56 208.769 1035.48 208.539C1036.43 208.309 1037.34 208.889 1037.57 209.809C1040.32 221.259 1038.02 226.419 1036.34 230.179C1035.92 231.119 1035.54 231.959 1035.32 232.819C1035.23 233.389 1035.89 236.339 1038.04 238.549C1039.56 240.119 1041.37 240.789 1043.35 240.509C1044.35 240.399 1045.16 241.059 1045.29 241.989C1045.41 242.929 1044.75 243.799 1043.81 243.929C1043.36 243.999 1042.92 244.029 1042.48 244.029Z" fill="#EF685E"/>
<path d="M1047.29 208.849C1047.01 208.849 1046.71 208.779 1046.43 208.629C1045.59 208.179 1045.32 207.049 1045.76 206.199C1046.56 204.699 1055.79 197.539 1068.27 201.269C1069.18 201.549 1069.7 202.509 1069.43 203.429C1069.15 204.339 1068.18 204.839 1067.27 204.589C1057.16 201.539 1049.51 207.069 1048.7 207.999C1048.4 208.559 1047.86 208.849 1047.29 208.849Z" fill="#75434B"/>
<path d="M1025.69 213.598C1025.47 213.598 1025.24 213.558 1025.03 213.468C1024.15 213.098 1023.73 212.088 1024.1 211.208C1024.16 211.078 1025.47 208.008 1028.58 206.928C1030.67 206.188 1032.98 206.538 1035.46 207.918C1036.3 208.388 1036.58 209.438 1036.12 210.268C1035.64 211.108 1034.59 211.388 1033.77 210.928C1032.2 210.038 1030.83 209.768 1029.72 210.188C1028.1 210.738 1027.3 212.518 1027.29 212.528C1027.01 213.198 1026.36 213.598 1025.69 213.598Z" fill="#75434B"/>
<path d="M1040.32 255.739C1039.94 255.409 1039.59 255.049 1039.28 254.659C1038.72 253.949 1038.5 253.019 1038.7 252.129C1038.9 251.239 1039.49 250.489 1040.3 250.089L1058.11 241.229C1059.1 240.739 1060.28 240.829 1061.18 241.459C1062.09 242.089 1062.57 243.169 1062.45 244.269C1061.66 251.329 1057.97 256.299 1052.33 257.909C1048.04 259.139 1043.18 258.199 1040.32 255.739Z" fill="white"/>
<path d="M966.763 326.949C966.353 326.949 965.933 326.799 965.603 326.509C964.893 325.869 964.833 324.779 965.483 324.069L986.323 301.009C986.973 300.299 988.053 300.249 988.763 300.889C989.473 301.529 989.533 302.619 988.883 303.329L968.043 326.379C967.703 326.749 967.233 326.949 966.763 326.949Z" fill="#F6F6FF"/>
<path d="M907.213 139.558C907.213 139.558 906.643 134.088 922.083 112.108C937.523 90.1282 920.003 87.3582 918.163 77.3982C917.683 74.7682 911.893 75.7382 907.233 70.9682C903.993 67.6482 902.773 59.4782 897.303 57.4082C881.803 51.5282 873.303 53.4482 869.643 60.4982C869.643 60.4982 855.663 59.7382 854.603 71.2782C854.603 71.2782 837.543 73.1482 837.673 83.9582C837.673 83.9582 823.193 85.7582 830.103 103.328L831.683 159.128L907.213 139.558Z" fill="#FF9D76"/>
<path d="M897.244 80.2882C896.364 80.2882 895.604 79.6082 895.524 78.7082C895.514 78.6482 894.964 72.8782 891.424 71.5182C886.814 69.7482 869.694 62.3982 868.964 62.0882C868.084 61.7082 867.684 60.6982 868.054 59.8182C868.434 58.9382 869.444 58.5382 870.324 58.9082C870.504 58.9882 888.114 66.5382 892.664 68.2882C898.234 70.4182 898.944 78.0782 898.964 78.3982C899.044 79.3482 898.334 80.1782 897.394 80.2682C897.344 80.2782 897.294 80.2882 897.244 80.2882Z" fill="#EF685E"/>
<path d="M887.743 110.499C887.113 110.499 886.513 110.159 886.203 109.549C886.113 109.359 876.803 90.9787 873.183 86.0587C870.783 82.7887 861.353 77.3987 856.823 74.7987C852.733 72.4587 852.113 72.0987 852.753 70.5787C853.093 69.7787 854.243 69.3787 855.073 69.6287C855.503 69.7487 855.843 70.0287 856.063 70.3787C856.613 70.7087 857.473 71.1987 858.533 71.7987C865.593 75.8487 873.343 80.4587 875.963 84.0087C879.743 89.1587 888.893 107.219 889.273 107.989C889.703 108.839 889.363 109.879 888.513 110.309C888.273 110.439 888.003 110.499 887.743 110.499Z" fill="#EF685E"/>
<path d="M869.542 123.408C869.542 123.408 859.702 105.878 855.422 98.398C851.472 91.508 837.172 85.628 837.032 85.568C836.152 85.208 835.722 84.198 836.082 83.318C836.442 82.428 837.462 82.008 838.332 82.368C838.962 82.628 853.882 88.778 858.422 96.678C862.712 104.168 872.562 121.718 872.562 121.718L869.542 123.408Z" fill="#EF685E"/>
<path d="M793.822 107.249C803.342 99.4286 817.322 101.419 824.342 111.289C825.912 113.499 828.952 114.019 831.122 112.469L839.282 106.759L846.402 124.339L861.642 130.389L852.862 136.639C849.512 139.019 848.542 143.529 850.532 147.129C855.462 156.279 853.072 167.629 845.032 173.869C835.522 181.259 821.882 179.179 814.972 169.469C811.032 163.929 810.152 157.139 812.002 151.109C813.002 147.849 810.522 144.549 807.102 144.529C800.042 144.489 793.112 140.909 789.132 134.259C784.112 125.859 786.272 113.449 793.822 107.249Z" fill="#F75454"/>
<path d="M824.032 137.089C823.472 137.089 822.912 136.819 822.582 136.309C822.062 135.509 822.282 134.439 823.082 133.919L844.552 119.909C845.352 119.399 846.422 119.609 846.942 120.409C847.462 121.209 847.242 122.279 846.442 122.799L824.972 136.809C824.682 136.989 824.362 137.089 824.032 137.089Z" fill="#F6F6FF"/>
<path d="M856.994 130.738C855.434 130.738 853.904 130.438 852.424 129.838C844.634 126.678 840.164 116.088 837.794 107.768L837.674 107.338C837.384 106.448 837.834 105.468 838.724 105.148C839.574 104.848 840.564 105.238 840.904 106.118C840.944 106.198 841.014 106.438 841.124 106.818C844.184 117.548 848.664 124.588 853.734 126.638C856.614 127.798 859.674 127.408 863.094 125.428C876.764 117.548 896.584 102.448 901.794 98.448C898.934 94.148 891.264 81.058 897.944 73.358C899.884 71.128 902.294 69.918 905.114 69.768C912.074 69.468 919.064 75.878 919.364 76.148C920.064 76.798 920.094 77.888 919.444 78.588C918.794 79.278 917.714 79.318 917.004 78.668C916.944 78.618 910.864 72.968 905.284 73.218C903.404 73.318 901.864 74.108 900.554 75.628C895.484 81.468 902.424 93.608 905.534 97.788C906.094 98.548 905.944 99.598 905.214 100.178C904.974 100.368 880.814 119.208 864.824 128.428C862.114 129.958 859.504 130.738 856.994 130.738Z" fill="#EF685E"/>
<path d="M770.552 395.098C769.802 395.098 769.102 394.598 768.892 393.838C768.632 392.928 769.162 391.968 770.092 391.708L794.252 384.868C795.142 384.638 796.122 385.138 796.382 386.068C796.642 386.978 796.112 387.938 795.182 388.198L771.022 395.038C770.862 395.078 770.712 395.098 770.552 395.098Z" fill="#FFD333"/>
<path d="M786.413 342.519C786.253 342.519 786.103 342.499 785.943 342.459L748.513 331.879C747.603 331.609 747.063 330.659 747.313 329.749C747.583 328.839 748.553 328.339 749.443 328.549L786.873 339.129C787.783 339.399 788.323 340.349 788.073 341.259C787.863 342.019 787.163 342.519 786.413 342.519Z" fill="#FFD333"/>
<path d="M819.002 303.879C818.302 303.879 817.652 303.449 817.382 302.759L810.362 284.129C810.022 283.239 810.482 282.239 811.372 281.899C812.282 281.599 813.252 282.019 813.602 282.909L820.622 301.539C820.962 302.429 820.502 303.429 819.612 303.769C819.402 303.849 819.202 303.879 819.002 303.879Z" fill="#FFD333"/>
<path d="M1177.07 407.558C1177.07 419.098 1167.72 428.448 1156.18 428.448C1144.64 428.448 1135.29 419.098 1135.29 407.558C1135.29 396.018 1144.64 386.668 1156.18 386.668C1167.72 386.678 1177.07 396.028 1177.07 407.558Z" fill="white"/>
<path fill-rule="evenodd" clip-rule="evenodd" d="M1156 423.326C1164.84 423.326 1172 416.163 1172 407.326C1172 398.49 1164.84 391.326 1156 391.326C1147.16 391.326 1140 398.49 1140 407.326C1140 412.561 1142.51 417.208 1146.4 420.127V407.803C1146.4 406.446 1146.64 405.136 1147.13 403.872C1147.61 402.608 1148.28 401.531 1149.14 400.64C1150 399.735 1151.02 399.023 1152.19 398.504C1153.37 397.986 1154.65 397.726 1156.02 397.726C1157.39 397.726 1158.68 397.986 1159.9 398.504C1161.11 399.023 1162.16 399.735 1163.06 400.64C1163.96 401.531 1164.68 402.608 1165.2 403.872C1165.72 405.136 1165.99 406.446 1165.99 407.803C1165.99 409.16 1165.72 410.444 1165.2 411.655C1164.68 412.852 1163.96 413.896 1163.06 414.787C1162.16 415.679 1161.11 416.384 1159.9 416.903C1158.68 417.421 1157.39 417.681 1156.02 417.681C1155.01 417.681 1154.09 417.515 1153.26 417.182C1152.44 416.836 1151.69 416.384 1151 415.825L1150.92 421.811C1150.91 422.045 1150.88 422.265 1150.83 422.473C1152.45 423.026 1154.19 423.326 1156 423.326ZM1158.28 412.692C1157.62 412.972 1156.92 413.111 1156.18 413.111C1155.44 413.111 1154.75 412.978 1154.11 412.712C1153.46 412.433 1152.9 412.054 1152.41 411.575C1151.93 411.096 1151.54 410.537 1151.26 409.899C1150.99 409.26 1150.86 408.575 1150.86 407.843C1150.86 407.112 1150.99 406.393 1151.26 405.688C1151.54 404.983 1151.93 404.391 1152.41 403.912C1152.9 403.433 1153.46 403.054 1154.11 402.775C1154.75 402.495 1155.44 402.356 1156.18 402.356C1156.92 402.356 1157.62 402.489 1158.28 402.755C1158.94 403.008 1159.52 403.367 1160.02 403.832C1160.51 404.285 1160.91 404.863 1161.21 405.568C1161.5 406.26 1161.65 406.972 1161.65 407.703C1161.65 408.448 1161.5 409.154 1161.21 409.819C1160.91 410.471 1160.51 411.043 1160.02 411.535C1159.52 412.014 1158.94 412.399 1158.28 412.692Z" fill="#B6AEFF"/>
<path d="M1148.17 422.889C1148.17 422.889 1114.89 427.149 1109.8 431.489C1104.71 435.829 1104.76 451.299 1104.76 451.299L1142.36 448.329L1148.17 422.889Z" fill="#555555"/>
<path fill-rule="evenodd" clip-rule="evenodd" d="M1096.41 418.398C1096.89 413.818 1105.69 412.478 1122.54 414.538C1134.01 415.938 1154.05 418.988 1159.48 423.408C1165.75 428.508 1193.26 455.788 1196.46 470.788L1216.02 483.888L1189.38 547.448C1188.5 546.068 1172.68 530.728 1159.06 516.348C1143.96 507.578 1147.31 494.068 1147.31 494.068C1147.31 494.068 1124.9 499.078 1114.67 495.868C1104.44 492.658 1114.18 485.608 1114.18 485.608C1114.18 485.608 1111.03 485.438 1107.53 479.248C1104.03 473.058 1110.91 465.048 1110.91 465.048C1110.91 465.048 1098.14 463.348 1099.2 456.148C1100.26 448.948 1139.54 438.248 1139.54 438.248C1111.7 426.758 1095.11 430.688 1096.41 418.398Z" fill="#FF9D76"/>
<path d="M1134.17 439.168C1133.39 439.168 1132.69 438.638 1132.49 437.848C1132.27 436.918 1132.84 435.988 1133.76 435.758L1148.26 432.278C1149.21 432.068 1150.12 432.628 1150.35 433.548C1150.57 434.478 1150 435.408 1149.08 435.638L1134.58 439.118C1134.43 439.158 1134.3 439.168 1134.17 439.168Z" fill="#EF685E"/>
<path d="M1106.79 468.068C1106.06 468.068 1105.38 467.598 1105.14 466.868C1104.86 465.958 1105.36 464.988 1106.26 464.698L1145.6 452.218C1146.52 451.938 1147.48 452.438 1147.77 453.348C1148.05 454.258 1147.55 455.228 1146.65 455.518L1107.31 467.998C1107.14 468.048 1106.96 468.068 1106.79 468.068Z" fill="#EF685E"/>
<path d="M1111.7 488.179C1110.98 488.179 1110.32 487.729 1110.07 487.019C1109.76 486.109 1110.24 485.139 1111.14 484.819L1146.55 472.649C1147.46 472.339 1148.43 472.819 1148.75 473.719C1149.06 474.629 1148.58 475.599 1147.68 475.919L1112.27 488.089C1112.07 488.149 1111.89 488.179 1111.7 488.179Z" fill="#EF685E"/>
<path d="M1143.97 496.458C1143.2 496.458 1142.49 495.938 1142.3 495.148C1142.07 494.218 1142.64 493.288 1143.56 493.058L1156.7 489.818C1157.65 489.548 1158.57 490.158 1158.79 491.078C1159.02 492.008 1158.45 492.938 1157.53 493.168L1144.39 496.408C1144.25 496.448 1144.11 496.458 1143.97 496.458Z" fill="#EF685E"/>
<path d="M1239.34 481.229L1197.43 579.749L1182.46 568.089L1221.51 471.879L1239.34 481.229Z" fill="white"/>
<path d="M1197.46 579.768C1269.89 645.718 1319.91 634.808 1345.29 604.698C1357.08 590.708 1357.99 567.098 1352.49 539.038C1349.93 560.788 1339.69 596.508 1300.31 601.268C1244.08 608.068 1198.9 580.648 1197.46 579.768Z" fill="#4D80AA"/>
<path d="M1197.46 581.499C1197.09 581.499 1196.72 581.379 1196.4 581.129L1181.39 569.439C1180.83 569.009 1180.6 568.279 1180.79 567.609C1189.62 536.319 1219.64 471.789 1219.95 471.139C1220.15 470.709 1220.51 470.379 1220.96 470.229C1221.4 470.079 1221.9 470.119 1222.32 470.329L1305.14 513.799C1305.98 514.249 1306.3 515.289 1305.87 516.139C1305.42 516.979 1304.36 517.299 1303.53 516.869L1222.32 474.239C1217.64 484.379 1192.75 538.869 1184.44 567.429L1198.53 578.409C1199.28 578.999 1199.41 580.069 1198.83 580.829C1198.49 581.279 1197.98 581.499 1197.46 581.499Z" fill="#F6F6FF"/>
<circle cx="940.5" cy="363.826" r="7.5" fill="#F6F6FF"/>
<circle cx="942.5" cy="362.5" r="6.5" fill="#222120"/>
</g>
<defs>
<clipPath id="clip0_3253_16937">
<rect width="1440" height="560" fill="white"/>
</clipPath>
</defs>
</svg>
