<svg width="124" height="128" viewBox="0 0 124 128" fill="none" xmlns="http://www.w3.org/2000/svg">
<path d="M100.849 43.0359C103.019 41.1859 105.199 39.3359 107.369 37.4759C112.279 33.2959 117.189 29.1059 122.099 24.9259C124.769 22.6559 122.339 17.7859 118.889 19.4059C106.069 25.4459 93.2492 31.4859 80.4292 37.5259C81.9592 25.9859 82.1492 14.2959 81.0392 2.70591C80.7592 -0.154095 76.9292 -0.904096 75.2792 1.2159C67.7492 10.8659 60.3692 20.6459 52.6792 30.1659C50.2492 33.1659 47.0292 36.7559 42.9292 36.6159C39.2592 36.4859 35.9492 34.0659 32.8692 32.0859C28.8492 29.5059 24.5092 26.8459 19.5792 26.8159C17.2992 26.8059 15.1392 28.8559 16.2292 31.2559C20.8592 41.4459 28.6192 49.8759 38.2792 55.4059C25.7392 68.9859 13.1992 82.5659 0.659208 96.1359C-0.900792 97.8259 0.499221 101.276 2.85922 101.276C17.1592 101.226 29.7092 94.7159 41.6292 87.4559C44.5992 85.6459 47.5392 83.7959 50.4992 81.9759C51.9292 81.0959 53.3692 80.2159 54.8192 79.3659C55.4092 79.0159 56.0092 78.6659 56.5992 78.3259C57.0792 78.0559 58.1792 77.2759 58.7392 77.1459C58.8492 77.5959 59.1392 78.1059 59.2492 78.4859C59.7892 80.3659 60.0092 82.3859 60.3692 84.3059C61.1592 88.4859 61.9492 92.6659 62.7392 96.8459L67.9492 124.436C68.5792 127.786 72.6492 127.956 74.1292 125.176C80.3492 113.476 79.7992 99.9059 79.4892 87.0659C79.4092 83.8559 79.3492 80.6359 79.4192 77.4259C79.4492 76.1259 79.4192 74.7759 79.6292 73.4859C79.6592 73.2959 79.8692 72.7659 79.9792 72.4159C80.3092 72.6659 80.8692 73.0459 81.0692 73.2059C81.6492 73.6759 82.2292 74.1459 82.8092 74.6159C84.1292 75.6559 85.4692 76.6759 86.8292 77.6559C89.5592 79.6159 92.3692 81.4659 95.2592 83.1759C101.779 87.0459 108.619 90.3059 115.759 92.8659C118.819 93.9659 121.299 90.5159 119.499 87.9059C112.939 78.3759 106.369 68.8359 99.8092 59.3059C98.2892 57.0959 96.6192 54.9459 95.2592 52.6359C94.2192 50.8759 93.9192 49.4959 95.3092 47.9059C96.9092 46.0759 99.0192 44.5959 100.849 43.0359ZM87.9092 51.0659C88.2892 53.9459 90.0092 56.3859 91.6092 58.7159C95.1992 63.9259 98.7792 69.1359 102.369 74.3459C104.299 77.1559 106.229 79.9559 108.169 82.7659C105.089 81.3259 102.069 79.7559 99.1492 78.0259C96.0992 76.2159 93.1292 74.2659 90.2592 72.1759C88.8992 71.1859 87.5592 70.1659 86.2492 69.1159C84.7792 67.9459 83.3692 66.6159 81.5392 66.0459C77.9992 64.9359 74.8892 67.1859 73.7692 70.4959C72.7292 73.5459 72.9892 77.0559 72.9992 80.2359C73.0192 87.1259 73.4392 94.0159 73.1992 100.896C73.0692 104.476 72.7392 108.016 72.0492 111.486C71.1892 106.936 70.3292 102.376 69.4692 97.8259C68.6392 93.4359 67.8092 89.0459 66.9792 84.6559C66.2992 81.0759 66.1092 76.6659 64.0092 73.5559C63.0692 72.1659 61.6692 71.0959 59.9892 70.7959C57.8092 70.4059 55.9492 71.3259 54.1092 72.3759C50.8692 74.2259 47.6892 76.1659 44.5192 78.1359C38.4392 81.9059 32.3892 85.7659 25.9392 88.8959C21.2892 91.1559 16.3892 93.0359 11.3092 94.0559C23.0892 81.3059 34.8592 68.5559 46.6292 55.8159C47.8092 54.5359 47.2892 52.2759 45.9992 51.3059C45.1292 50.6459 44.1492 50.5459 43.2492 50.8159C36.2192 47.2459 30.1992 41.8459 25.8192 35.3159C27.1392 36.0459 28.4292 36.8759 29.7092 37.7059C33.3792 40.0659 37.3092 42.6159 41.7792 42.9959C47.3492 43.4759 51.8692 40.5659 55.5492 36.6759C59.6292 32.3659 63.0592 27.3459 66.7092 22.6759C69.5392 19.0559 72.3592 15.4259 75.1892 11.8059C75.5892 22.1259 74.9092 32.4459 73.1492 42.6459C72.7492 44.9859 75.4592 46.9959 77.5892 45.9959C84.9592 42.5259 92.3292 39.0559 99.6992 35.5759C98.7692 36.3659 97.8392 37.1659 96.9092 37.9559C94.7392 39.8059 92.4192 41.5659 90.4792 43.6759C88.6492 45.6659 87.5492 48.3059 87.9092 51.0659Z" fill="#FFD333"/>
</svg>
