<svg id="eZ7mK0UBdrD1" xmlns="http://www.w3.org/2000/svg" xmlns:xlink="http://www.w3.org/1999/xlink" viewBox="0 0 792 540" shape-rendering="geometricPrecision" text-rendering="geometricPrecision"><path d="M121.21,860.23c-43.3798-50-24.8398-98.12-32.1598-253.26-14.09-298.87-94.85998-374.03-37.32-448.84C133.7,51.5697,369.65,110.38,429.2,125.22C489.7,140.3,848.75,229.79,872.24,471.8c20.54,211.67-231.61,375.25-401.82,424.87-28.49,8.3-255.4,71.69-349.21-36.44Z" fill="#f6f6ff"/><path id="eZ7mK0UBdrD3" d="M629.849,133.036c2.17-1.85,4.35-3.7,6.52-5.56c4.91-4.18,9.82-8.37,14.73-12.55c2.67-2.27.24-7.14-3.21-5.52-12.82,6.04-25.64,12.08-38.46,18.12c1.53-11.54,1.72-23.23.61-34.8201-.28-2.86-4.11-3.61-5.76-1.49-7.53,9.6501-14.91,19.4301-22.6,28.9501-2.43,3-5.65,6.59-9.75,6.45-3.67-.13-6.98-2.55-10.06-4.53-4.02-2.58-8.36-5.24-13.29-5.27-2.28-.01-4.44,2.04-3.35,4.44c4.63,10.19,12.39,18.62,22.05,24.15-12.54,13.58-25.08,27.16-37.62,40.73-1.56,1.69-.16,5.14,2.2,5.14c14.3-.05,26.85-6.56,38.77-13.82c2.97-1.81,5.91-3.66,8.87-5.48c1.43-.88,2.87-1.76,4.32-2.61.59-.35,1.19-.7,1.78-1.04.48-.27,1.58-1.05,2.14-1.18.11.45.4.96.51,1.34.54,1.88.76,3.9,1.12,5.82.79,4.18,1.58,8.36,2.37,12.54l5.21,27.59c.63,3.35,4.7,3.52,6.18.74c6.22-11.7,5.67-25.27,5.36-38.11-.08-3.21-.14-6.43-.07-9.64.03-1.3,0-2.65.21-3.94.03-.19.24-.72.35-1.07.33.25.89.63,1.09.79.58.47,1.16.94,1.74,1.41c1.32,1.04,2.66,2.06,4.02,3.04c2.73,1.96,5.54,3.81,8.43,5.52c6.52,3.87,13.36,7.13,20.5,9.69c3.06,1.1,5.54-2.35,3.74-4.96-6.56-9.53-13.13-19.07-19.69-28.6-1.52-2.21-3.19-4.36-4.55-6.67-1.04-1.76-1.34-3.14.05-4.73c1.6-1.83,3.71-3.31,5.54-4.87Zm-12.94,8.03c.38,2.88,2.1,5.32,3.7,7.65c3.59,5.21,7.17,10.42,10.76,15.63c1.93,2.81,3.86,5.61,5.8,8.42-3.08-1.44-6.1-3.01-9.02-4.74-3.05-1.81-6.02-3.76-8.89-5.85-1.36-.99-2.7-2.01-4.01-3.06-1.47-1.17-2.88-2.5-4.71-3.07-3.54-1.11-6.65,1.14-7.77,4.45-1.04,3.05-.78,6.56-.77,9.74.02,6.89.44,13.78.2,20.66-.13,3.58-.46,7.12-1.15,10.59-.86-4.55-1.72-9.11-2.58-13.66-.83-4.39-1.66-8.78-2.49-13.17-.68-3.58-.87-7.99-2.97-11.1-.94-1.39-2.34-2.46-4.02-2.76-2.18-.39-4.04.53-5.88,1.58-3.24,1.85-6.42,3.79-9.59,5.76-6.08,3.77-12.13,7.63-18.58,10.76-4.65,2.26-9.55,4.14-14.63,5.16c11.78-12.75,23.55-25.5,35.32-38.24c1.18-1.28.66-3.54-.63-4.51-.87-.66-1.85-.76-2.75-.49-7.03-3.57-13.05-8.97-17.43-15.5c1.32.73,2.61,1.56,3.89,2.39c3.67,2.36,7.6,4.91,12.07,5.29c5.57.48,10.09-2.43,13.77-6.32c4.08-4.31,7.51-9.33,11.16-14c2.83-3.62,5.65-7.25,8.48-10.87.4,10.32-.28,20.64-2.04,30.84-.4,2.34,2.31,4.35,4.44,3.35c7.37-3.47,14.74-6.94,22.11-10.42-.93.79-1.86,1.59-2.79,2.38-2.17,1.85-4.49,3.61-6.43,5.72-1.83,1.99-2.93,4.63-2.57,7.39Z" transform="matrix(0 0 0 0 590.617523 153.558708)" fill="#ffd333"/><path id="eZ7mK0UBdrD4" d="M9.10624,272.084c-11.94-11.94-12.14-31.19-.59-43.38.19-.2.39-.4.59-.6c12.13996-12.14,31.82996-12.14,43.96996.01s12.14,31.82,0,43.97c-.2.2-.4.4-.6.59-12.18,11.54-31.43,11.35-43.36996-.59Z" transform="matrix(0 0 0 0 31.090602 250.093346)" fill="#ffd333"/><path d="M265.094,117.832c0,0,48.4,166.35,74.51,164c10.58-.95,55.98-4.73,77.34-7.46c28.3-3.61,74.68-6.15,80.27-5.77c51.2,3.41,111.52,26.06,146.79,95.84c38.54,76.25,84.82,182.52,53.29,219.93-26.46,31.39-79.68,41.93-157.18-33.75l-186.24.49-10.95-143.53c-24.07,1.82-57.65-.28-87.09-18.91-53.06-33.57-81.25-249.31-81.25-249.31l90.51-21.53Z" fill="#60a3c4"/><path d="M333.593,360.012c-59.76,7.51-108.74-50.8-132.82-86.59c13.41,51.07,31.86,100.58,55.06,115.26c29.44,18.63,63.02,20.73,87.09,18.91l.45,5.91c19.11-32.13,24.88-57.85-9.78-53.49Z" clip-rule="evenodd" fill="#4d80aa" fill-rule="evenodd"/><path d="M270.774,136.312c-4.86-15.32-5.67-18.48-5.67-18.48l-90.52,21.54c0,0,1,7.88,3.35,22.64l92.84-25.7Z" clip-rule="evenodd" fill="#fff" fill-rule="evenodd"/><path d="M233.773,95.7323l38.49-27.3801c3.8-2.6999,8.96-2.1699,12.21,1.17c6.83,6.88,17.38,8.28,25.57,3.51c10.86-6.32,13.73-20.41,6.61-30.41-4.28-6.0099-11.13-9.0999-17.99-8.8299-3.02.12-5.3-2.76-4.27-5.6c2.26-6.27,1.52-13.51-2.64-19.35005-7.13-10.02-21.42-11.91-30.94-3.68-7.19,6.21005-9.29,16.67005-5.07,25.18005c2.2,4.34,1.03,9.3999-2.77,12.0999l-39.27,27.94l20.07,25.3501Z" fill="#9679bc"/><path d="M221.643,83.8422c-.56,0-1.11-.27-1.44-.78-.52-.79-.3-1.86.5-2.39l63.7-41.93c.78-.52,1.86-.31,2.39.5.52.79.3,1.86-.5,2.39l-63.7,41.93c-.3.18-.63.28-.95.28Z" fill="#49263e"/><path d="M621.104,469.642c-.71,0-1.37-.45-1.62-1.16-.32-.9.16-1.88,1.06-2.2l19.91-7.02c.89-.33,1.88.16,2.2,1.05.32.9-.16,1.88-1.05,2.2l-19.91,7.02c-.21.08-.4.11-.59.11Z" fill="#49263e"/><path d="M551.572,467.852c-.87,0-1.62-.65-1.72-1.53l-11.45-100.44c-.11-.95.57-1.8,1.52-1.91.92.01,1.8.58,1.91,1.52l11.46,100.45c.1.95-.58,1.8-1.52,1.91-.06-.01-.13,0-.2,0Z" fill="#49263e"/><path d="M316.752,481.132c-.3-.76-.6-1.52-.9-2.29-3.36-8.63-6.39-17.5-10.66-25.74-4.12-7.96-9.11-15.42-13.77-23.07-3.91-6.43-8.33-12.47-12.43-18.78c5.27-3.86,9.95-8.62,13.78-14.2c18.87-27.47,33.6-38.72,43-46.5c18.8-15.56,34.66-18.91,46.02-12.14c11.36,6.78,11.46,29.3,2.02,31.28-9.43,1.98-22.08,6.32-24.94,21.96-1.95,10.71-11.62,35.68-17.03,49.18-2.26,5.63-20.25,33.08-23.64,38.12-.47.76-.96,1.47-1.45,2.18Z" fill="#ef685e"/><path d="M340.244,351.492c0,0-15.02,17.94-5.75,22.92l-18.27,3.55-9.06-13.23l8.63-10.21l24.45-3.03Z" fill="#49263e"/><path d="M174.962,310.302c14.1-9.08,51,14.45,51,14.45s49.98-21.3,63.8-11.74c9.58,6.63,22.58,26.05,22.58,26.05c23.43-8.51,26.39-15.23,33.71-1.42c2.84,5.35,1.98,14.12-2.04,18.1-4.61,4.57-25.54,7-29.66,7.3-4.92.36-4.44,6.5-.01,7.8c5.11,1.49,5.97,0,19.06,1.42c3.56.39,8.41,2.95,8.07,2.86-2.16-.55-3.47,1.61-3.85,4.7-.61,4.95,1.72,9.79,5.75,12.73c9.19,6.7,30.06,27.82,18.83,76.24l-8.33,82.32h-169.23l32.17-102.24c-36.44-35.56-27.85-78.25-27.85-78.25s-28.11-51.24-14-60.32Z" fill="#ff9d76"/><path d="M316.193,452.932c-3.57-30.37-32.49-40.44-33.44-40.76-12.09-3.94-21.08-10-23.27-17.7-3.7-12.99,4.43-23.45,16.34-29.75c12.74-6.73,30.48-7.98,33.08-13.66c3.88-8.49-6.59-15.4-9.57-23.76-1.029-2.9.87-3.72,1.98-2.9c3.14,3.75,5.99,7.56,8.01,10.35c1.85,2.56,5.211,3.53,8.141,2.36c18.8-7.48,21.84-12.21,28.59.53c2.84,5.35,1.979,14.12-2.041,18.1-4.61,4.57-25.54,7-29.66,7.3-4.92.36-4.44,6.5-.01,7.8c5.11,1.49,5.97,0,19.06,1.42c3.56.39,8.41,2.95,8.07,2.86-2.16-.55-3.47,1.61-3.85,4.7-.61,4.95,1.72,9.79,5.75,12.73c9.19,6.7,30.061,27.82,18.83,76.24l-8.33,82.32h-47.64c5.24-30.69,12.32-78.1,9.96-98.18Z" fill="#fff"/><path d="M258.694,314.472c0,0-23.7-23.39-33.52-22.94s-6.25,40.06-6.25,40.06l39.77-17.12Z" fill="#ff9d76"/><path d="M207.053,454.952c11.55-21.58,34.13-16.4,70.82-10.56c22.33,3.55,44.64-6.15,57.44-24.79c18.87-27.47,33.6-38.72,43-46.5c18.8-15.56,34.66-18.91,46.02-12.14c11.36,6.78,11.46,29.3,2.02,31.28-9.43,1.98-22.08,6.32-24.94,21.96-1.95,10.71-11.62,35.68-17.03,49.18-2.26,5.63-6.47,21.08-23.64,38.12-16.93,16.8-39.38,23.53-53.6,27.3l-2.7,16.64-119.82,1.84c.02.01,3.09-56.19,22.43-92.33Z" fill="#ff9d76"/><path d="M343.884,343.402c-3.42-5.68-7.34-2.23-12.5-4.24-1.73-.67-3.14-2.38-3.81-4.4-.32-.96.16-2.01,1.09-2.41c9.29-3.99,12.29-4.35,17.39,5.29.69,1.3,1.16,2.8,1.41,4.39.34,2.1-2.45,3.23-3.56,1.42c0-.02-.01-.03-.02-.05Z" fill="#49263e"/><path d="M285.774,354.702c-.84,0-1.57-.6-1.7-1.45-.08-.5-1.86-12.16,5.49-14.93c6.9-2.6,15.59,3.99,15.95,4.27.76.59.89,1.66.31,2.42-.59.75-1.67.89-2.42.31-2.06-1.59-8.37-5.38-12.62-3.77-4.65,1.74-3.32,11.05-3.3,11.15.15.95-.49,1.83-1.43,1.98-.1.01-.19.02-.28.02Z" fill="#49263e"/><path d="M291.803,327.252c-2.99.16-5.92.54-8.82,1.28-1.65.42-2.81,2-2.46,3.72.33,1.61,2.06,2.88,3.72,2.46c2.36-.6,4.78-1.03,7.21-1.16c1.7-.09,3.23-1.15,3.33-2.98.09-1.56-1.27-3.41-2.98-3.32Z" fill="#fff"/><path d="M342.983,362.982c8.62-.27,21.1,3.75,22.16,8.1c1.61,6.55-4.48,7.69-10.08,6.88-4.64-.67-11.43-2.28-13.23-2.73-9.64-2.45-8.2-2.85-25.64-3.7c0-.01,3.92-7.83,26.79-8.55Z" fill="#ffbbc8"/><path d="M416.353,376.462c-.55,0-1.09-.27-1.42-.75-.54-.78-.34-1.86.44-2.4c4.17-2.87,15.2-3.6,16.44-3.68.98.01,1.77.68,1.83,1.62.06.95-.67,1.77-1.62,1.83-3.11.18-11.82,1.1-14.69,3.07-.3.21-.65.31-.98.31Z" fill="#49263e"/><path d="M409.763,362.702c-.77,0-1.48-.52-1.67-1.3-.23-.92.33-1.86,1.25-2.09.8-.2,7.87-1.97,10.91-1.97.95,0,1.73.77,1.73,1.73c0,.95-.77,1.73-1.73,1.73-2.22,0-8.02,1.34-10.07,1.86-.14.02-.28.04-.42.04Z" fill="#49263e"/><path d="M373.544,353.222c-.55,0-1.09-.27-1.42-.75-.54-.78-.34-1.86.45-2.4c4.17-2.87,15.2-3.59,16.44-3.67c1.02.04,1.77.68,1.83,1.62.05.95-.67,1.77-1.63,1.83-3.11.18-11.82,1.09-14.69,3.06-.3.21-.65.31-.98.31Z" fill="#49263e"/><path d="M366.954,339.452c-.77,0-1.48-.52-1.67-1.3-.23-.92.33-1.86,1.25-2.09.8-.2,7.87-1.97,10.92-1.97.95,0,1.73.77,1.73,1.73c0,.95-.77,1.73-1.73,1.73-2.22,0-8.02,1.34-10.08,1.86-.14.03-.28.04-.42.04Z" fill="#49263e"/><path d="M224.072,326.842c-.57,0-1.14-.29-1.46-.81-.51-.81-.26-1.87.55-2.37c14.45-9.02,48.11-13.62,49.54-13.8.99-.09,1.81.55,1.94,1.48.13.95-.54,1.81-1.48,1.94-.34.05-34.34,4.68-48.16,13.3-.29.17-.61.26-.93.26Z" fill="#49263e"/><path d="M224.974,340.462c-.44,0-.88-.16-1.21-.5-.18-.17-18.02-17.58-39.33-20.12-.94-.11-1.62-.97-1.51-1.91s.87-1.6,1.91-1.51c22.51,2.68,40.59,20.34,41.34,21.09.68.67.69,1.77.02,2.44-.33.34-.77.51-1.22.51Z" fill="#49263e"/><path d="M211.244,343.412c0,0-6.61-4.63-10.34-7.2-.78-.55-.98-1.62-.44-2.41.54-.78,1.61-.97,2.41-.44c3.73,2.58,10.36,7.22,10.36,7.22l-1.99,2.83Z" fill="#49263e"/><path d="M234.132,322.192c-.66,0-1.28-.37-1.57-1.02-2.95-6.51-3.89-21.14-3.92-21.76-.06-.95.66-1.77,1.61-1.83c1.02-.01,1.77.7,1.83,1.61.02.15.95,14.62,3.62,20.56.4.87.01,1.89-.86,2.28-.23.11-.47.16-.71.16Z" fill="#49263e"/><path d="M284.323,446.922c-7.52,0-16.21-1-26.08-3.66-.92-.24-1.47-1.19-1.22-2.11.24-.92,1.2-1.52,2.11-1.22c38.29,10.27,58.35-5.41,58.55-5.56.72-.59,1.83-.5,2.42.27.6.74.48,1.83-.27,2.42-.64.53-12.59,9.86-35.51,9.86Z" fill="#49263e"/><path d="M294.403,530.542c-.94,0-1.87-.02-2.82-.04s-1.7-.82-1.68-1.77.79-1.83,1.77-1.68c63.48,1.59,88.8-55.8,89.05-56.38.37-.88,1.38-1.28,2.26-.91s1.29,1.38.91,2.26c-.25.59-25.57,58.52-89.49,58.52Z" fill="#49263e"/><path d="M416.942,274.372c28.3-3.61,74.68-6.15,80.27-5.77c7.34.49,14.59,1.47,21.73,3-.13.21-28.62,70.22-82.36,61.87-38.42-5.97-46.04-38.21-47.26-56.12c10.43-1.02,20.4-2.06,27.62-2.98Z" fill="#fff"/><path d="M416.944,274.372c28.3-3.61,74.68-6.15,80.27-5.77c2,.13,3.99.31,5.97.51l-4.66,7.15c0,0-20.54,47.96-59.28,42.24-31.38-4.63-34.26-32.38-34.22-42.75c4.43-.48,8.48-.94,11.92-1.38Z" fill="#ff9d76"/><path d="M497.202,268.602c-12.52-39.28-41.56-129.23-41.56-129.23l-14.77,4.26-1.11,8.31c-13.16,4.75-62.3,11.34-62.3,11.34l-2.06,10.9c0,0,9.32,81.2,21.15,88c8.92,5.13,19.84,4.19,26.1,3.22l5.23,33.9l69.32-30.7Z" fill="#ff9d76"/><path d="M468.403,132.292c-19.27-14.08-66.87-15.85-87.08,7.08-10.48,11.88-14.75,33.77-5.63,38.51.48.25-.41-8.62,6.39-12.17c10.98-5.74,33.43-7.5,50.04-8.81c0,0-2.98,14.08,7.52,24.72c7.77,7.87,12.73,2.44,12.73,2.44l10.77,20.63c0,0-1.48,19.61,22.77,28.68c0,0-2.21-7.63,2.64-34.05c3.35-18.23,4.08-49.33-20.15-67.03Z" fill="#75434b"/><path d="M450.492,188.252c.22-.71.52-7.85,7.15-9.34c6.64-1.48,11.11,2.15,12.71,12.17c1.61,10.02-9.61,17.11-13.72,14.01-4.11-3.09-6.14-16.84-6.14-16.84Z" fill="#ff9d76"/><path d="M451.653,195.802c-.94,0-1.7-.75-1.73-1.69-.01-.27-.08-6.48,5.03-9.8c2.4-1.56,4.59-1.96,6.52-1.19c2.99,1.19,3.91,4.66,4.01,5.05.22.93-.35,1.86-1.27,2.09-.98.21-1.86-.34-2.08-1.27-.16-.59-.8-2.23-1.94-2.67-1.03-.39-2.4.25-3.35.88-3.52,2.29-3.46,6.78-3.46,6.83.02.95-.73,1.74-1.69,1.77-.01,0-.02,0-.04,0Z" fill="#ef685e"/><path d="M456.342,251.122c1.8-2.34-.93-5.46-3.48-3.98-13.11,7.58-32.52,18.78-33.12,18.92-.24.06,6.69,23.88,6.69,23.88l29.91-38.82Z" fill="#ef685e"/><path d="M429.294,164.972c-.25,0-.5-.05-.74-.17-.86-.41-1.23-1.44-.81-2.3l8.64-18.09c.41-.88,1.44-1.23,2.3-.81.86.41,1.23,1.44.81,2.3l-8.64,18.09c-.3.62-.92.98-1.56.98Z" fill="#ff9d76"/><path d="M414.863,202.052c1.4-.34,2.26-1.75,1.93-3.15l-.98-4.06c-.34-1.4-1.75-2.26-3.15-1.93-1.4.34-2.26,1.75-1.93,3.15l.98,4.06c.33,1.4,1.75,2.26,3.15,1.93Z" fill="#49263e"/><path d="M385.863,209.022c1.4-.34,2.26-1.75,1.93-3.15l-.98-4.06c-.34-1.4-1.75-2.26-3.15-1.93-1.4.34-2.26,1.75-1.93,3.15l.98,4.06c.34,1.39,1.75,2.26,3.15,1.93Z" fill="#49263e"/><path d="M394.483,223.702c-2.77,0-5.27-1.18-7.3-3.47-2.51-2.84-3.68-6.73-3.2-8.59.27-1.03.71-2.06,1.21-3.18c1.56-3.5,3.5-7.85,1.02-18.16-.22-.93.35-1.86,1.27-2.09.95-.23,1.86.35,2.09,1.27c2.75,11.45.45,16.61-1.23,20.37-.42.94-.8,1.78-1.02,2.64-.09.57.57,3.52,2.72,5.73c1.52,1.57,3.33,2.24,5.31,1.96c1-.11,1.81.55,1.94,1.48.12.94-.54,1.81-1.48,1.94-.45.07-.89.1-1.33.1Z" fill="#ef685e"/><path d="M399.294,188.522c-.28,0-.58-.07-.86-.22-.84-.45-1.11-1.58-.67-2.43.8-1.5,10.03-8.66,22.51-4.93.91.28,1.43,1.24,1.16,2.16-.28.91-1.25,1.41-2.16,1.16-10.11-3.05-17.76,2.48-18.57,3.41-.3.56-.84.85-1.41.85Z" fill="#75434b"/><path d="M377.693,193.272c-.22,0-.45-.04-.66-.13-.88-.37-1.3-1.38-.93-2.26.06-.13,1.37-3.2,4.48-4.28c2.09-.74,4.4-.39,6.88.99.84.47,1.12,1.52.66,2.35-.48.84-1.53,1.12-2.35.66-1.57-.89-2.94-1.16-4.05-.74-1.62.55-2.42,2.33-2.43,2.34-.28.67-.93,1.07-1.6,1.07Z" fill="#75434b"/><path d="M392.323,235.412c-.38-.33-.73-.69-1.04-1.08-.56-.71-.78-1.64-.58-2.53s.79-1.64,1.6-2.04l17.81-8.86c.99-.49,2.17-.4,3.07.23.91.63,1.39,1.71,1.27,2.81-.79,7.06-4.48,12.03-10.12,13.64-4.29,1.23-9.15.29-12.01-2.17Z" fill="#fff"/><path d="M318.763,306.622c-.41,0-.83-.15-1.16-.44-.71-.64-.77-1.73-.12-2.44l20.84-23.06c.65-.71,1.73-.76,2.44-.12s.77,1.73.12,2.44l-20.84,23.05c-.34.37-.81.57-1.28.57Z" fill="#49263e"/><path d="M259.213,119.232c0,0-.57-5.47,14.87-27.4497c15.44-21.98-2.08-24.75-3.92-34.71-.48-2.63-6.27-1.66-10.93-6.43-3.24-3.32-4.46-11.49-9.93-13.56-15.5-5.88-24-3.96-27.66,3.09c0,0-13.98-.76-15.04,10.78c0,0-17.06,1.87-16.93,12.68c0,0-14.48,1.8-7.57,19.37l1.58,55.7997l75.53-19.57Z" fill="#ff9d76"/><path d="M249.244,59.9622c-.88,0-1.64-.68-1.72-1.58-.01-.06-.56-5.83-4.1-7.19-4.61-1.77-21.73-9.12-22.46-9.43-.88-.38-1.28-1.39-.91-2.27.38-.88,1.39-1.28,2.27-.91.18.08,17.79,7.63,22.34,9.38c5.57,2.13,6.28,9.79,6.3,10.11.08.95-.63,1.78-1.57,1.87-.05.01-.1.02-.15.02Z" fill="#ef685e"/><path d="M239.743,90.1723c-.63,0-1.23-.34-1.54-.95-.09-.19-9.4-18.57-13.02-23.49-2.4-3.27-11.83-8.66-16.36-11.26-4.09-2.34-4.71-2.7-4.07-4.22.34-.8,1.49-1.2,2.32-.95.43.12.77.4.99.75.55.33,1.41.82,2.47,1.42c7.06,4.05,14.81,8.66,17.43,12.21c3.78,5.15,12.93,23.21,13.31,23.98.43.85.09,1.89-.76,2.32-.24.13-.51.19-.77.19Z" fill="#ef685e"/><path d="M221.542,103.082c0,0-9.84-17.5297-14.12-25.0097-3.95-6.89-18.25-12.77-18.39-12.83-.88-.36-1.31-1.37-.95-2.25.36-.89,1.38-1.31,2.25-.95.63.26,15.55,6.41,20.09,14.31c4.29,7.49,14.14,25.0397,14.14,25.0397l-3.02,1.69Z" fill="#ef685e"/><path d="M145.822,86.9222c9.52-7.82,23.5-5.83,30.52,4.04c1.57,2.21,4.61,2.73,6.78,1.18l8.16-5.71l7.12,17.5798l15.24,6.05-8.78,6.25c-3.35,2.38-4.32,6.89-2.33,10.49c4.93,9.15,2.54,20.5-5.5,26.74-9.51,7.39-23.15,5.31-30.06-4.4-3.94-5.54-4.82-12.33-2.97-18.36c1-3.26-1.48-6.56-4.9-6.58-7.06-.04-13.99-3.62-17.97-10.27-5.02-8.4-2.86-20.8098,4.69-27.0098Z" fill="#f75454"/><path d="M176.032,116.762c-.56,0-1.12-.27-1.45-.78-.52-.8-.3-1.87.5-2.39l21.47-14.0098c.8-.51,1.87-.3,2.39.4998.52.8.3,1.87-.5,2.39l-21.47,14.01c-.29.18-.61.28-.94.28Z" fill="#49263e"/><path d="M208.994,110.412c-1.56,0-3.09-.3-4.57-.9-7.79-3.16-12.26-13.7497-14.63-22.0697l-.12-.43c-.29-.89.16-1.87,1.05-2.19.85-.3,1.84.09,2.18.97.04.08.11.32.22.7c3.06,10.73,7.54,17.7697,12.61,19.8197c2.88,1.16,5.94.77,9.36-1.21c13.67-7.8797,33.49-22.9797,38.7-26.9797-2.86-4.3-10.53-17.39-3.85-25.09c1.94-2.23,4.35-3.44,7.17-3.59c6.96-.3,13.95,6.11,14.25,6.38.7.65.73,1.74.08,2.44-.65.69-1.73.73-2.44.08-.06-.05-6.14-5.7-11.72-5.45-1.88.1-3.42.89-4.73,2.41-5.07,5.84,1.87,17.98,4.98,22.16.56.76.41,1.81-.32,2.39-.24.19-24.4,19.03-40.39,28.2497-2.71,1.53-5.32,2.31-7.83,2.31Z" fill="#ef685e"/><path d="M122.552,374.772c-.75,0-1.45-.5-1.66-1.26-.26-.91.27-1.87,1.2-2.13l24.16-6.84c.89-.23,1.87.27,2.13,1.2.26.91-.27,1.87-1.2,2.13l-24.16,6.84c-.16.04-.31.06-.47.06Z" fill="#49263e"/><path d="M138.413,322.192c-.16,0-.31-.02-.47-.06l-37.43-10.58c-.9099-.27-1.4499-1.22-1.1999-2.13.27-.91,1.2399-1.41,2.1299-1.2l37.43,10.58c.91.27,1.45,1.22,1.2,2.13-.21.76-.91,1.26-1.66,1.26Z" fill="#49263e"/><path d="M171.002,283.552c-.7,0-1.35-.43-1.62-1.12l-7.02-18.63c-.34-.89.12-1.89,1.01-2.23.91-.3,1.88.12,2.23,1.01l7.02,18.63c.34.89-.12,1.89-1.01,2.23-.21.08-.41.11-.61.11Z" fill="#49263e"/><path d="M529.073,387.232c0,11.54-9.35,20.89-20.89,20.89s-20.89-9.35-20.89-20.89s9.35-20.89,20.89-20.89c11.54.01,20.89,9.36,20.89,20.89Z" fill="#fff"/><path d="M500.174,402.562c0,0-33.28,4.26-38.37,8.6s-5.04,19.81-5.04,19.81l37.6-2.97l5.81-25.44Z" fill="#ef685e"/><path d="M448.413,398.072c.48-4.58,9.28-5.92,26.13-3.86c11.47,1.4,31.51,4.45,36.94,8.87c6.27,5.1,33.78,32.38,36.98,47.38l19.56,13.1-26.64,63.56c-.88-1.38-16.7-16.72-30.32-31.1-15.1-8.77-11.75-22.28-11.75-22.28s-22.41,5.01-32.64,1.8-.49-10.26-.49-10.26-3.15-.17-6.65-6.36s3.38-14.2,3.38-14.2-12.77-1.7-11.71-8.9s40.34-17.9,40.34-17.9c-27.84-11.49-44.43-7.56-43.13-19.85Z" clip-rule="evenodd" fill="#ff9d76" fill-rule="evenodd"/><path d="M486.173,418.842c-.78,0-1.48-.53-1.68-1.32-.22-.93.35-1.86,1.27-2.09l14.5-3.48c.95-.21,1.86.35,2.09,1.27.22.93-.35,1.86-1.27,2.09l-14.5,3.48c-.15.04-.28.05-.41.05Z" fill="#ef685e"/><path d="M458.794,447.742c-.73,0-1.41-.47-1.65-1.2-.28-.91.22-1.88,1.12-2.17l39.34-12.48c.92-.28,1.88.22,2.17,1.13.28.91-.22,1.88-1.12,2.17l-39.34,12.48c-.17.05-.35.07-.52.07Z" fill="#ef685e"/><path d="M463.703,467.852c-.72,0-1.38-.45-1.63-1.16-.31-.91.17-1.88,1.07-2.2l35.41-12.17c.91-.31,1.88.17,2.2,1.07.31.91-.17,1.88-1.07,2.2l-35.41,12.17c-.2.06-.38.09-.57.09Z" fill="#ef685e"/><path d="M495.973,476.132c-.77,0-1.48-.52-1.67-1.31-.23-.93.34-1.86,1.26-2.09l13.14-3.24c.95-.27,1.87.34,2.09,1.26.23.93-.34,1.86-1.26,2.09l-13.14,3.24c-.14.04-.28.05-.42.05Z" fill="#ef685e"/><path d="M591.343,460.902l-41.91,98.52-14.97-11.66l39.05-96.21l17.83,9.35Z" fill="#fff"/><path d="M549.463,559.442c72.43,65.95,122.45,55.04,147.83,24.93c11.79-13.99,12.7-37.6,7.2-65.66-2.56,21.75-12.8,57.47-52.18,62.23-56.23,6.8-101.41-20.62-102.85-21.5Z" fill="#4d80aa"/><path d="M549.464,561.172c-.37,0-.74-.12-1.06-.37l-15.01-11.69c-.56-.43-.79-1.16-.6-1.83c8.83-31.29,38.85-95.82,39.16-96.47.2-.43.56-.76,1.01-.91.44-.15.94-.11,1.36.1l82.82,43.47c.84.45,1.16,1.49.73,2.34-.45.84-1.51,1.16-2.34.73l-81.21-42.63c-4.68,10.14-29.57,64.63-37.88,93.19l14.09,10.98c.75.59.88,1.66.3,2.42-.34.45-.85.67-1.37.67Z" fill="#49263e"/>
<script><![CDATA[
!function(t,n){"object"==typeof exports&&"undefined"!=typeof module?module.exports=n():"function"==typeof __SVGATOR_DEFINE__&&__SVGATOR_DEFINE__.amd?__SVGATOR_DEFINE__(n):((t="undefined"!=typeof globalThis?globalThis:t||self).__SVGATOR_PLAYER__=t.__SVGATOR_PLAYER__||{},t.__SVGATOR_PLAYER__["5c7f360c"]=n())}(this,(function(){"use strict";function t(t,n){var e=Object.keys(t);if(Object.getOwnPropertySymbols){var r=Object.getOwnPropertySymbols(t);n&&(r=r.filter((function(n){return Object.getOwnPropertyDescriptor(t,n).enumerable}))),e.push.apply(e,r)}return e}function n(n){for(var e=1;e<arguments.length;e++){var r=null!=arguments[e]?arguments[e]:{};e%2?t(Object(r),!0).forEach((function(t){u(n,t,r[t])})):Object.getOwnPropertyDescriptors?Object.defineProperties(n,Object.getOwnPropertyDescriptors(r)):t(Object(r)).forEach((function(t){Object.defineProperty(n,t,Object.getOwnPropertyDescriptor(r,t))}))}return n}function e(t){return(e="function"==typeof Symbol&&"symbol"==typeof Symbol.iterator?function(t){return typeof t}:function(t){return t&&"function"==typeof Symbol&&t.constructor===Symbol&&t!==Symbol.prototype?"symbol":typeof t})(t)}function r(t,n){if(!(t instanceof n))throw new TypeError("Cannot call a class as a function")}function i(t,n){for(var e=0;e<n.length;e++){var r=n[e];r.enumerable=r.enumerable||!1,r.configurable=!0,"value"in r&&(r.writable=!0),Object.defineProperty(t,r.key,r)}}function o(t,n,e){return n&&i(t.prototype,n),e&&i(t,e),t}function u(t,n,e){return n in t?Object.defineProperty(t,n,{value:e,enumerable:!0,configurable:!0,writable:!0}):t[n]=e,t}function a(t){return(a=Object.setPrototypeOf?Object.getPrototypeOf:function(t){return t.__proto__||Object.getPrototypeOf(t)})(t)}function l(t,n){return(l=Object.setPrototypeOf||function(t,n){return t.__proto__=n,t})(t,n)}function s(){if("undefined"==typeof Reflect||!Reflect.construct)return!1;if(Reflect.construct.sham)return!1;if("function"==typeof Proxy)return!0;try{return Boolean.prototype.valueOf.call(Reflect.construct(Boolean,[],(function(){}))),!0}catch(t){return!1}}function f(t,n,e){return(f=s()?Reflect.construct:function(t,n,e){var r=[null];r.push.apply(r,n);var i=new(Function.bind.apply(t,r));return e&&l(i,e.prototype),i}).apply(null,arguments)}function c(t,n){if(n&&("object"==typeof n||"function"==typeof n))return n;if(void 0!==n)throw new TypeError("Derived constructors may only return object or undefined");return function(t){if(void 0===t)throw new ReferenceError("this hasn't been initialised - super() hasn't been called");return t}(t)}function h(t,n,e){return(h="undefined"!=typeof Reflect&&Reflect.get?Reflect.get:function(t,n,e){var r=function(t,n){for(;!Object.prototype.hasOwnProperty.call(t,n)&&null!==(t=a(t)););return t}(t,n);if(r){var i=Object.getOwnPropertyDescriptor(r,n);return i.get?i.get.call(e):i.value}})(t,n,e||t)}function v(t){return function(t){if(Array.isArray(t))return y(t)}(t)||function(t){if("undefined"!=typeof Symbol&&null!=t[Symbol.iterator]||null!=t["@@iterator"])return Array.from(t)}(t)||function(t,n){if(!t)return;if("string"==typeof t)return y(t,n);var e=Object.prototype.toString.call(t).slice(8,-1);"Object"===e&&t.constructor&&(e=t.constructor.name);if("Map"===e||"Set"===e)return Array.from(t);if("Arguments"===e||/^(?:Ui|I)nt(?:8|16|32)(?:Clamped)?Array$/.test(e))return y(t,n)}(t)||function(){throw new TypeError("Invalid attempt to spread non-iterable instance.\nIn order to be iterable, non-array objects must have a [Symbol.iterator]() method.")}()}function y(t,n){(null==n||n>t.length)&&(n=t.length);for(var e=0,r=new Array(n);e<n;e++)r[e]=t[e];return r}function g(t,n,e){if(Number.isInteger(t))return t;var r=Math.pow(10,n);return Math[e]((+t+Number.EPSILON)*r)/r}Number.isInteger||(Number.isInteger=function(t){return"number"==typeof t&&isFinite(t)&&Math.floor(t)===t}),Number.EPSILON||(Number.EPSILON=2220446049250313e-31);var d=p(Math.pow(10,-6));function p(t){var n=arguments.length>1&&void 0!==arguments[1]?arguments[1]:6;return g(t,n,"round")}function m(t,n){var e=arguments.length>2&&void 0!==arguments[2]?arguments[2]:d;return Math.abs(t-n)<e}p(Math.pow(10,-2)),p(Math.pow(10,-4));var b=Math.PI/180;function w(t){return t}function A(t,n,e){var r=1-e;return 3*e*r*(t*r+n*e)+e*e*e}function _(){var t=arguments.length>0&&void 0!==arguments[0]?arguments[0]:0,n=arguments.length>1&&void 0!==arguments[1]?arguments[1]:0,e=arguments.length>2&&void 0!==arguments[2]?arguments[2]:1,r=arguments.length>3&&void 0!==arguments[3]?arguments[3]:1;return t<0||t>1||e<0||e>1?null:m(t,n)&&m(e,r)?w:function(i){if(i<=0)return t>0?i*n/t:0===n&&e>0?i*r/e:0;if(i>=1)return e<1?1+(i-1)*(r-1)/(e-1):1===e&&t<1?1+(i-1)*(n-1)/(t-1):1;for(var o,u=0,a=1;u<a;){var l=A(t,e,o=(u+a)/2);if(m(i,l))break;l<i?u=o:a=o}return A(n,r,o)}}function x(){return 1}function k(t){return 1===t?1:0}function S(){var t=arguments.length>0&&void 0!==arguments[0]?arguments[0]:1,n=arguments.length>1&&void 0!==arguments[1]?arguments[1]:0;if(1===t){if(0===n)return k;if(1===n)return x}var e=1/t;return function(t){return t>=1?1:(t+=n*e)-t%e}}var O=Math.sin,j=Math.cos,M=Math.acos,E=Math.asin,P=Math.tan,I=Math.atan2,R=Math.PI/180,F=180/Math.PI,N=Math.sqrt,T=function(){function t(){var n=arguments.length>0&&void 0!==arguments[0]?arguments[0]:1,e=arguments.length>1&&void 0!==arguments[1]?arguments[1]:0,i=arguments.length>2&&void 0!==arguments[2]?arguments[2]:0,o=arguments.length>3&&void 0!==arguments[3]?arguments[3]:1,u=arguments.length>4&&void 0!==arguments[4]?arguments[4]:0,a=arguments.length>5&&void 0!==arguments[5]?arguments[5]:0;r(this,t),this.m=[n,e,i,o,u,a],this.i=null,this.w=null,this.s=null}return o(t,[{key:"determinant",get:function(){var t=this.m;return t[0]*t[3]-t[1]*t[2]}},{key:"isIdentity",get:function(){if(null===this.i){var t=this.m;this.i=1===t[0]&&0===t[1]&&0===t[2]&&1===t[3]&&0===t[4]&&0===t[5]}return this.i}},{key:"point",value:function(t,n){var e=this.m;return{x:e[0]*t+e[2]*n+e[4],y:e[1]*t+e[3]*n+e[5]}}},{key:"translateSelf",value:function(){var t=arguments.length>0&&void 0!==arguments[0]?arguments[0]:0,n=arguments.length>1&&void 0!==arguments[1]?arguments[1]:0;if(!t&&!n)return this;var e=this.m;return e[4]+=e[0]*t+e[2]*n,e[5]+=e[1]*t+e[3]*n,this.w=this.s=this.i=null,this}},{key:"rotateSelf",value:function(){var t=arguments.length>0&&void 0!==arguments[0]?arguments[0]:0;if(t%=360){var n=O(t*=R),e=j(t),r=this.m,i=r[0],o=r[1];r[0]=i*e+r[2]*n,r[1]=o*e+r[3]*n,r[2]=r[2]*e-i*n,r[3]=r[3]*e-o*n,this.w=this.s=this.i=null}return this}},{key:"scaleSelf",value:function(){var t=arguments.length>0&&void 0!==arguments[0]?arguments[0]:1,n=arguments.length>1&&void 0!==arguments[1]?arguments[1]:1;if(1!==t||1!==n){var e=this.m;e[0]*=t,e[1]*=t,e[2]*=n,e[3]*=n,this.w=this.s=this.i=null}return this}},{key:"skewSelf",value:function(t,n){if(n%=360,(t%=360)||n){var e=this.m,r=e[0],i=e[1],o=e[2],u=e[3];t&&(t=P(t*R),e[2]+=r*t,e[3]+=i*t),n&&(n=P(n*R),e[0]+=o*n,e[1]+=u*n),this.w=this.s=this.i=null}return this}},{key:"resetSelf",value:function(){var t=arguments.length>0&&void 0!==arguments[0]?arguments[0]:1,n=arguments.length>1&&void 0!==arguments[1]?arguments[1]:0,e=arguments.length>2&&void 0!==arguments[2]?arguments[2]:0,r=arguments.length>3&&void 0!==arguments[3]?arguments[3]:1,i=arguments.length>4&&void 0!==arguments[4]?arguments[4]:0,o=arguments.length>5&&void 0!==arguments[5]?arguments[5]:0,u=this.m;return u[0]=t,u[1]=n,u[2]=e,u[3]=r,u[4]=i,u[5]=o,this.w=this.s=this.i=null,this}},{key:"recomposeSelf",value:function(){var t=arguments.length>0&&void 0!==arguments[0]?arguments[0]:null,n=arguments.length>1&&void 0!==arguments[1]?arguments[1]:null,e=arguments.length>2&&void 0!==arguments[2]?arguments[2]:null,r=arguments.length>3&&void 0!==arguments[3]?arguments[3]:null,i=arguments.length>4&&void 0!==arguments[4]?arguments[4]:null;return this.isIdentity||this.resetSelf(),t&&(t.x||t.y)&&this.translateSelf(t.x,t.y),n&&this.rotateSelf(n),e&&(e.x&&this.skewSelf(e.x,0),e.y&&this.skewSelf(0,e.y)),!r||1===r.x&&1===r.y||this.scaleSelf(r.x,r.y),i&&(i.x||i.y)&&this.translateSelf(i.x,i.y),this}},{key:"decompose",value:function(){var t=arguments.length>0&&void 0!==arguments[0]?arguments[0]:0,n=arguments.length>1&&void 0!==arguments[1]?arguments[1]:0,e=this.m,r=e[0]*e[0]+e[1]*e[1],i=[[e[0],e[1]],[e[2],e[3]]],o=N(r);if(0===o)return{origin:{x:p(e[4]),y:p(e[5])},translate:{x:p(t),y:p(n)},scale:{x:0,y:0},skew:{x:0,y:0},rotate:0};i[0][0]/=o,i[0][1]/=o;var u=e[0]*e[3]-e[1]*e[2]<0;u&&(o=-o);var a=i[0][0]*i[1][0]+i[0][1]*i[1][1];i[1][0]-=i[0][0]*a,i[1][1]-=i[0][1]*a;var l=N(i[1][0]*i[1][0]+i[1][1]*i[1][1]);if(0===l)return{origin:{x:p(e[4]),y:p(e[5])},translate:{x:p(t),y:p(n)},scale:{x:p(o),y:0},skew:{x:0,y:0},rotate:0};i[1][0]/=l,i[1][1]/=l,a/=l;var s=0;return i[1][1]<0?(s=M(i[1][1])*F,i[0][1]<0&&(s=360-s)):s=E(i[0][1])*F,u&&(s=-s),a=I(a,N(i[0][0]*i[0][0]+i[0][1]*i[0][1]))*F,u&&(a=-a),{origin:{x:p(e[4]),y:p(e[5])},translate:{x:p(t),y:p(n)},scale:{x:p(o),y:p(l)},skew:{x:p(a),y:0},rotate:p(s)}}},{key:"clone",value:function(){var t=this.m;return new this.constructor(t[0],t[1],t[2],t[3],t[4],t[5])}},{key:"toString",value:function(){var t=arguments.length>0&&void 0!==arguments[0]?arguments[0]:" ";if(null===this.s){var n=this.m.map((function(t){return p(t)}));1===n[0]&&0===n[1]&&0===n[2]&&1===n[3]?this.s="translate("+n[4]+t+n[5]+")":this.s="matrix("+n.join(t)+")"}return this.s}}],[{key:"create",value:function(t){return t?Array.isArray(t)?f(this,v(t)):t instanceof this?t.clone():(new this).recomposeSelf(t.origin,t.rotate,t.skew,t.scale,t.translate):new this}}]),t}();function q(t,n,e){return t>=.5?e:n}function B(t,n,e){return 0===t||n===e?n:t*(e-n)+n}function D(t,n,e){var r=B(t,n,e);return r<=0?0:r}function L(t,n,e){var r=B(t,n,e);return r<=0?0:r>=1?1:r}function C(t,n,e){return 0===t?n:1===t?e:{x:B(t,n.x,e.x),y:B(t,n.y,e.y)}}function V(t,n,e){var r=function(t,n,e){return Math.round(B(t,n,e))}(t,n,e);return r<=0?0:r>=255?255:r}function G(t,n,e){return 0===t?n:1===t?e:{r:V(t,n.r,e.r),g:V(t,n.g,e.g),b:V(t,n.b,e.b),a:B(t,null==n.a?1:n.a,null==e.a?1:e.a)}}function z(t,n){for(var e=[],r=0;r<t;r++)e.push(n);return e}function Y(t,n){if(--n<=0)return t;var e=(t=Object.assign([],t)).length;do{for(var r=0;r<e;r++)t.push(t[r])}while(--n>0);return t}var $,U=function(){function t(n){r(this,t),this.list=n,this.length=n.length}return o(t,[{key:"setAttribute",value:function(t,n){for(var e=this.list,r=0;r<this.length;r++)e[r].setAttribute(t,n)}},{key:"removeAttribute",value:function(t){for(var n=this.list,e=0;e<this.length;e++)n[e].removeAttribute(t)}},{key:"style",value:function(t,n){for(var e=this.list,r=0;r<this.length;r++)e[r].style[t]=n}}]),t}(),Q=/-./g,H=function(t,n){return n.toUpperCase()};function J(t){return"function"==typeof t?t:q}function Z(t){return t?"function"==typeof t?t:Array.isArray(t)?function(t){var n=arguments.length>1&&void 0!==arguments[1]?arguments[1]:w;if(!Array.isArray(t))return n;switch(t.length){case 1:return S(t[0])||n;case 2:return S(t[0],t[1])||n;case 4:return _(t[0],t[1],t[2],t[3])||n}return n}(t,null):function(t,n){var e=arguments.length>2&&void 0!==arguments[2]?arguments[2]:w;switch(t){case"linear":return w;case"steps":return S(n.steps||1,n.jump||0)||e;case"bezier":case"cubic-bezier":return _(n.x1||0,n.y1||0,n.x2||0,n.y2||0)||e}return e}(t.type,t.value,null):null}function K(t,n,e){var r=arguments.length>3&&void 0!==arguments[3]&&arguments[3],i=n.length-1;if(t<=n[0].t)return r?[0,0,n[0].v]:n[0].v;if(t>=n[i].t)return r?[i,1,n[i].v]:n[i].v;var o,u=n[0],a=null;for(o=1;o<=i;o++){if(!(t>n[o].t)){a=n[o];break}u=n[o]}return null==a?r?[i,1,n[i].v]:n[i].v:u.t===a.t?r?[o,1,a.v]:a.v:(t=(t-u.t)/(a.t-u.t),u.e&&(t=u.e(t)),r?[o,t,e(t,u.v,a.v)]:e(t,u.v,a.v))}function W(t,n){var e=arguments.length>2&&void 0!==arguments[2]?arguments[2]:null;return t&&t.length?"function"!=typeof n?null:("function"!=typeof e&&(e=null),function(r){var i=K(r,t,n);return null!=i&&e&&(i=e(i)),i}):null}function X(t,n){return t.t-n.t}function tt(t,n,r,i,o){var u,a="@"===r[0],l="#"===r[0],s=$[r],f=q;switch(a?(u=r.substr(1),r=u.replace(Q,H)):l&&(r=r.substr(1)),e(s)){case"function":if(f=s(i,o,K,Z,r,a,n,t),l)return f;break;case"string":f=W(i,J(s));break;case"object":if((f=W(i,J(s.i),s.f))&&"function"==typeof s.u)return s.u(n,f,r,a,t)}return f?function(t,n,e){if(arguments.length>3&&void 0!==arguments[3]&&arguments[3])return t instanceof U?function(r){return t.style(n,e(r))}:function(r){return t.style[n]=e(r)};if(Array.isArray(n)){var r=n.length;return function(i){var o=e(i);if(null==o)for(var u=0;u<r;u++)t[u].removeAttribute(n);else for(var a=0;a<r;a++)t[a].setAttribute(n,o)}}return function(r){var i=e(r);null==i?t.removeAttribute(n):t.setAttribute(n,i)}}(n,r,f,a):null}function nt(t,n,r,i){if(!i||"object"!==e(i))return null;var o=null,u=null;return Array.isArray(i)?u=function(t){if(!t||!t.length)return null;for(var n=0;n<t.length;n++)t[n].e&&(t[n].e=Z(t[n].e));return t.sort(X)}(i):(u=i.keys,o=i.data||null),u?tt(t,n,r,u,o):null}function et(t,n,e){if(!e)return null;var r=[];for(var i in e)if(e.hasOwnProperty(i)){var o=nt(t,n,i,e[i]);o&&r.push(o)}return r.length?r:null}function rt(t,n){if(!n.settings.duration||n.settings.duration<0)return null;var e,r,i,o,u,a=function(t,n){if(!n)return null;var e=[];if(Array.isArray(n))for(var r=n.length,i=0;i<r;i++){var o=n[i];if(2===o.length){var u=null;if("string"==typeof o[0])u=t.getElementById(o[0]);else if(Array.isArray(o[0])){u=[];for(var a=0;a<o[0].length;a++)if("string"==typeof o[0][a]){var l=t.getElementById(o[0][a]);l&&u.push(l)}u=u.length?1===u.length?u[0]:new U(u):null}if(u){var s=et(t,u,o[1]);s&&(e=e.concat(s))}}}else for(var f in n)if(n.hasOwnProperty(f)){var c=t.getElementById(f);if(c){var h=et(t,c,n[f]);h&&(e=e.concat(h))}}return e.length?e:null}(t,n.elements);return a?(e=a,r=n.settings,i=r.duration,o=e.length,u=null,function(t,n){var a=r.iterations||1/0,l=(r.alternate&&a%2==0)^r.direction>0?i:0,s=t%i,f=1+(t-s)/i;n*=r.direction,r.alternate&&f%2==0&&(n=-n);var c=!1;if(f>a)s=l,c=!0,-1===r.fill&&(s=r.direction>0?0:i);else if(n<0&&(s=i-s),s===u)return!1;u=s;for(var h=0;h<o;h++)e[h](s);return c}):null}function it(t,n){for(var e=n.querySelectorAll("svg"),r=0;r<e.length;r++)if(e[r].id===t.root&&!e[r].svgatorAnimation)return e[r].svgatorAnimation=!0,e[r];return null}function ot(t){var n=function(t){return t.shadowRoot};return document?Array.from(t.querySelectorAll(":not("+["a","area","audio","br","canvas","circle","datalist","embed","g","head","hr","iframe","img","input","link","object","path","polygon","rect","script","source","style","svg","title","track","video"].join()+")")).filter(n).map(n):[]}function ut(t){var n=arguments.length>1&&void 0!==arguments[1]?arguments[1]:document,e=arguments.length>2&&void 0!==arguments[2]?arguments[2]:0,r=it(t,n);if(r)return r;if(e>=20)return null;for(var i=ot(n),o=0;o<i.length;o++){var u=ut(t,i[o],e+1);if(u)return u}return null}function at(t,n){if($=n,!t||!t.root||!Array.isArray(t.animations))return null;var e=ut(t);if(!e)return null;var r=t.animations.map((function(t){return rt(e,t)})).filter((function(t){return!!t}));return r.length?{svg:e,animations:r,animationSettings:t.animationSettings,options:t.options||void 0}:null}function lt(t){var n=arguments.length>1&&void 0!==arguments[1]?arguments[1]:null,e=arguments.length>2&&void 0!==arguments[2]?arguments[2]:Number,r=arguments.length>3&&void 0!==arguments[3]?arguments[3]:"undefined"!=typeof BigInt&&BigInt,i="0x"+(t.replace(/[^0-9a-fA-F]+/g,"")||27);return n&&r&&e.isSafeInteger&&!e.isSafeInteger(+i)?e(r(i))%n+n:+i}function st(t,n,e){return!t||!e||n>t.length?t:t.substring(0,n)+st(t.substring(n+1),e,e)}function ft(t){var n=arguments.length>1&&void 0!==arguments[1]?arguments[1]:27;return!t||t%n?t%n:[0,1].includes(n)?n:ft(t/n,n)}function ct(t,n,e){if(t&&t.length){var r=lt(e),i=ft(r)+5,o=st(t,ft(r,5),i);return o=o.replace(/\x7c$/g,"==").replace(/\x2f$/g,"="),o=function(t,n,e){var r=+("0x"+t.substring(0,4));t=t.substring(4);for(var i=lt(n,r)%r+e%27,o=[],u=0;u<t.length;u+=2)if("|"!==t[u]){var a=+("0x"+t[u]+t[u+1])-i;o.push(a)}else{var l=+("0x"+t.substring(u+1,u+1+4))-i;u+=3,o.push(l)}return String.fromCharCode.apply(String,o)}(o=(o=atob(o)).replace(/[\x41-\x5A]/g,""),n,r),o=JSON.parse(o)}}var ht=[{key:"alternate",def:!1},{key:"fill",def:1},{key:"iterations",def:0},{key:"direction",def:1},{key:"speed",def:1},{key:"fps",def:100}],vt=function(){function t(n,e){var i=this,o=arguments.length>2&&void 0!==arguments[2]?arguments[2]:null;r(this,t),this._id=0,this._running=!1,this._rollingBack=!1,this._animations=n,this._settings=e,(!o||o<"2022-05-02")&&delete this._settings.speed,ht.forEach((function(t){i._settings[t.key]=i._settings[t.key]||t.def})),this.duration=e.duration,this.offset=e.offset||0,this.rollbackStartOffset=0}return o(t,[{key:"alternate",get:function(){return this._settings.alternate}},{key:"fill",get:function(){return this._settings.fill}},{key:"iterations",get:function(){return this._settings.iterations}},{key:"direction",get:function(){return this._settings.direction}},{key:"speed",get:function(){return this._settings.speed}},{key:"fps",get:function(){return this._settings.fps}},{key:"maxFiniteDuration",get:function(){return this.iterations>0?this.iterations*this.duration:this.duration}},{key:"_apply",value:function(t){for(var n=arguments.length>1&&void 0!==arguments[1]?arguments[1]:{},e=this._animations,r=e.length,i=0,o=0;o<r;o++)n[o]?i++:(n[o]=e[o](t,1),n[o]&&i++);return i}},{key:"_rollback",value:function(t){var n=this,e=1/0,r=null;this.rollbackStartOffset=t,this._rollingBack=!0,this._running=!0;this._id=window.requestAnimationFrame((function i(o){if(n._rollingBack){null==r&&(r=o);var u=Math.round(t-(o-r)*n.speed);if(u>n.duration&&e!==1/0){var a=!!n.alternate&&u/n.duration%2>1,l=u%n.duration;u=(l+=a?n.duration:0)||n.duration}var s=(n.fps?1e3/n.fps:0)*n.speed,f=Math.max(0,u);f<=e-s&&(n.offset=f,e=f,n._apply(f));var c=n.iterations>0&&-1===n.fill&&u>=n.maxFiniteDuration;(u<=0||n.offset<u||c)&&n.stop(),n._id=window.requestAnimationFrame(i)}}))}},{key:"_start",value:function(){var t=this,n=arguments.length>0&&void 0!==arguments[0]?arguments[0]:0,e=-1/0,r=null,i={};this._running=!0;var o=function o(u){null==r&&(r=u);var a=Math.round((u-r)*t.speed+n),l=(t.fps?1e3/t.fps:0)*t.speed;if(a>=e+l&&!t._rollingBack&&(t.offset=a,e=a,t._apply(a,i)===t._animations.length))return void t.pause(!0);t._id=window.requestAnimationFrame(o)};this._id=window.requestAnimationFrame(o)}},{key:"_pause",value:function(){this._id&&window.cancelAnimationFrame(this._id),this._running=!1}},{key:"play",value:function(){if(!this._running)return this._rollingBack?this._rollback(this.offset):this._start(this.offset)}},{key:"stop",value:function(){this._pause(),this.offset=0,this.rollbackStartOffset=0,this._rollingBack=!1,this._apply(0)}},{key:"reachedToEnd",value:function(){return this.iterations>0&&this.offset>=this.iterations*this.duration}},{key:"restart",value:function(){var t=arguments.length>0&&void 0!==arguments[0]&&arguments[0];this.stop(t),this.play(t)}},{key:"pause",value:function(){this._pause()}},{key:"reverse",value:function(){this.direction=-this.direction}}],[{key:"build",value:function(t,n){delete t.animationSettings,t.options=ct(t.options,t.root,"5c7f360c"),t.animations.map((function(n){n.settings=ct(n.s,t.root,"5c7f360c"),delete n.s,t.animationSettings||(t.animationSettings=n.settings)}));var e=t.version;if(!(t=at(t,n)))return null;var r=t.options||{},i=new this(t.animations,t.animationSettings,e);return{el:t.svg,options:r,player:i}}},{key:"push",value:function(t){return this.build(t)}},{key:"init",value:function(){var t=this,n=window.__SVGATOR_PLAYER__&&window.__SVGATOR_PLAYER__["5c7f360c"];Array.isArray(n)&&n.splice(0).forEach((function(n){return t.build(n)}))}}]),t}();function yt(t){return p(t)+""}function gt(t){var n=arguments.length>1&&void 0!==arguments[1]?arguments[1]:" ";return t&&t.length?t.map(yt).join(n):""}function dt(t){if(!t)return"transparent";if(null==t.a||t.a>=1){var n=function(t){return 1===(t=parseInt(t).toString(16)).length?"0"+t:t},e=function(t){return t.charAt(0)===t.charAt(1)},r=n(t.r),i=n(t.g),o=n(t.b);return e(r)&&e(i)&&e(o)&&(r=r.charAt(0),i=i.charAt(0),o=o.charAt(0)),"#"+r+i+o}return"rgba("+t.r+","+t.g+","+t.b+","+t.a+")"}function pt(t){return t?"url(#"+t+")":"none"}!function(){for(var t=0,n=["ms","moz","webkit","o"],e=0;e<n.length&&!window.requestAnimationFrame;++e)window.requestAnimationFrame=window[n[e]+"RequestAnimationFrame"],window.cancelAnimationFrame=window[n[e]+"CancelAnimationFrame"]||window[n[e]+"CancelRequestAnimationFrame"];window.requestAnimationFrame||(window.requestAnimationFrame=function(n){var e=Date.now(),r=Math.max(0,16-(e-t)),i=window.setTimeout((function(){n(e+r)}),r);return t=e+r,i},window.cancelAnimationFrame=window.clearTimeout)}();var mt={f:null,i:function(t,n,e){return 0===t?n:1===t?e:{x:D(t,n.x,e.x),y:D(t,n.y,e.y)}},u:function(t,n){return function(e){var r=n(e);t.setAttribute("rx",yt(r.x)),t.setAttribute("ry",yt(r.y))}}},bt={f:null,i:function(t,n,e){return 0===t?n:1===t?e:{width:D(t,n.width,e.width),height:D(t,n.height,e.height)}},u:function(t,n){return function(e){var r=n(e);t.setAttribute("width",yt(r.width)),t.setAttribute("height",yt(r.height))}}};Object.freeze({M:2,L:2,Z:0,H:1,V:1,C:6,Q:4,T:2,S:4,A:7});var wt={},At=null;function _t(t){var n=function(){if(At)return At;if("object"!==("undefined"==typeof document?"undefined":e(document))||!document.createElementNS)return{};var t=document.createElementNS("http://www.w3.org/2000/svg","svg");return t&&t.style?(t.style.position="absolute",t.style.opacity="0.01",t.style.zIndex="-9999",t.style.left="-9999px",t.style.width="1px",t.style.height="1px",At={svg:t}):{}}().svg;if(!n)return function(t){return null};var r=document.createElementNS(n.namespaceURI,"path");r.setAttributeNS(null,"d",t),r.setAttributeNS(null,"fill","none"),r.setAttributeNS(null,"stroke","none"),n.appendChild(r);var i=r.getTotalLength();return function(t){var n=r.getPointAtLength(i*t);return{x:n.x,y:n.y}}}function xt(t){return wt[t]?wt[t]:wt[t]=_t(t)}function kt(t,n,e,r){if(!t||!r)return!1;var i=["M",t.x,t.y];if(n&&e&&(i.push("C"),i.push(n.x),i.push(n.y),i.push(e.x),i.push(e.y)),n?!e:e){var o=n||e;i.push("Q"),i.push(o.x),i.push(o.y)}return n||e||i.push("L"),i.push(r.x),i.push(r.y),i.join(" ")}function St(t,n,e,r){var i=arguments.length>4&&void 0!==arguments[4]?arguments[4]:1,o=kt(t,n,e,r),u=xt(o);try{return u(i)}catch(t){return null}}function Ot(t,n,e){return t+(n-t)*e}function jt(t,n,e){var r=arguments.length>3&&void 0!==arguments[3]&&arguments[3],i={x:Ot(t.x,n.x,e),y:Ot(t.y,n.y,e)};return r&&(i.a=Mt(t,n)),i}function Mt(t,n){return Math.atan2(n.y-t.y,n.x-t.x)}function Et(t,n,e,r){var i=1-r;return i*i*t+2*i*r*n+r*r*e}function Pt(t,n,e,r){return 2*(1-r)*(n-t)+2*r*(e-n)}function It(t,n,e,r){var i=arguments.length>4&&void 0!==arguments[4]&&arguments[4],o=St(t,n,null,e,r);return o||(o={x:Et(t.x,n.x,e.x,r),y:Et(t.y,n.y,e.y,r)}),i&&(o.a=Rt(t,n,e,r)),o}function Rt(t,n,e,r){return Math.atan2(Pt(t.y,n.y,e.y,r),Pt(t.x,n.x,e.x,r))}function Ft(t,n,e,r,i){var o=i*i;return i*o*(r-t+3*(n-e))+3*o*(t+e-2*n)+3*i*(n-t)+t}function Nt(t,n,e,r,i){var o=1-i;return 3*(o*o*(n-t)+2*o*i*(e-n)+i*i*(r-e))}function Tt(t,n,e,r,i){var o=arguments.length>5&&void 0!==arguments[5]&&arguments[5],u=St(t,n,e,r,i);return u||(u={x:Ft(t.x,n.x,e.x,r.x,i),y:Ft(t.y,n.y,e.y,r.y,i)}),o&&(u.a=qt(t,n,e,r,i)),u}function qt(t,n,e,r,i){return Math.atan2(Nt(t.y,n.y,e.y,r.y,i),Nt(t.x,n.x,e.x,r.x,i))}function Bt(t,n,e){var r=arguments.length>3&&void 0!==arguments[3]&&arguments[3];if(Lt(n)){if(Ct(e))return It(n,e.start,e,t,r)}else if(Lt(e)){if(Vt(n))return It(n,n.end,e,t,r)}else{if(Vt(n))return Ct(e)?Tt(n,n.end,e.start,e,t,r):It(n,n.end,e,t,r);if(Ct(e))return It(n,e.start,e,t,r)}return jt(n,e,t,r)}function Dt(t,n,e){var r=Bt(t,n,e,!0);return r.a=function(t){return arguments.length>1&&void 0!==arguments[1]&&arguments[1]?t+Math.PI:t}(r.a)/b,r}function Lt(t){return!t.type||"corner"===t.type}function Ct(t){return null!=t.start&&!Lt(t)}function Vt(t){return null!=t.end&&!Lt(t)}var Gt=new T;var zt={f:yt,i:B},Yt={f:yt,i:L};function $t(t,n,e){return t.map((function(t){return function(t,n,e){var r=t.v;if(!r||"g"!==r.t||r.s||!r.v||!r.r)return t;var i=e.getElementById(r.r),o=i&&i.querySelectorAll("stop")||[];return r.s=r.v.map((function(t,n){var e=o[n]&&o[n].getAttribute("offset");return{c:t,o:e=p(parseInt(e)/100)}})),delete r.v,t}(t,0,e)}))}var Ut={gt:"gradientTransform",c:{x:"cx",y:"cy"},rd:"r",f:{x:"x1",y:"y1"},to:{x:"x2",y:"y2"}};function Qt(t,n,r,i,o,u,a,l){return $t(t,0,l),n=function(t,n,e){for(var r,i,o,u=t.length-1,a={},l=0;l<=u;l++)(r=t[l]).e&&(r.e=n(r.e)),r.v&&"g"===(i=r.v).t&&i.r&&(o=e.getElementById(i.r))&&(a[i.r]={e:o,s:o.querySelectorAll("stop")});return a}(t,i,l),function(i){var o=r(i,t,Ht);if(!o)return"none";if("c"===o.t)return dt(o.v);if("g"===o.t){if(!n[o.r])return pt(o.r);var u=n[o.r];return function(t,n){for(var e=t.s,r=e.length;r<n.length;r++){var i=e[e.length-1].cloneNode();i.id=Kt(i.id),t.e.appendChild(i),e=t.s=t.e.querySelectorAll("stop")}for(var o=0,u=e.length,a=n.length-1;o<u;o++)e[o].setAttribute("stop-color",dt(n[Math.min(o,a)].c)),e[o].setAttribute("offset",n[Math.min(o,a)].o)}(u,o.s),Object.keys(Ut).forEach((function(t){if(void 0!==o[t])if("object"!==e(Ut[t])){var n,r="gt"===t?(n=o[t],Array.isArray(n)?"matrix("+n.join(" ")+")":""):o[t],i=Ut[t];u.e.setAttribute(i,r)}else Object.keys(Ut[t]).forEach((function(n){if(void 0!==o[t][n]){var e=o[t][n],r=Ut[t][n];u.e.setAttribute(r,e)}}))})),pt(o.r)}return"none"}}function Ht(t,e,r){if(0===t)return e;if(1===t)return r;if(e&&r){var i=e.t;if(i===r.t)switch(e.t){case"c":return{t:i,v:G(t,e.v,r.v)};case"g":if(e.r===r.r){var o={t:i,s:Jt(t,e.s,r.s),r:e.r};return e.gt&&r.gt&&(o.gt=function(t,n,e){var r=n.length;if(r!==e.length)return q(t,n,e);for(var i=new Array(r),o=0;o<r;o++)i[o]=B(t,n[o],e[o]);return i}(t,e.gt,r.gt)),e.c?(o.c=C(t,e.c,r.c),o.rd=D(t,e.rd,r.rd)):e.f&&(o.f=C(t,e.f,r.f),o.to=C(t,e.to,r.to)),o}}if("c"===e.t&&"g"===r.t||"c"===r.t&&"g"===e.t){var u="c"===e.t?e:r,a="g"===e.t?n({},e):n({},r),l=a.s.map((function(t){return{c:u.v,o:t.o}}));return a.s="c"===e.t?Jt(t,l,a.s):Jt(t,a.s,l),a}}return q(t,e,r)}function Jt(t,n,e){if(n.length===e.length)return n.map((function(n,r){return Zt(t,n,e[r])}));for(var r=Math.max(n.length,e.length),i=[],o=0;o<r;o++){var u=Zt(t,n[Math.min(o,n.length-1)],e[Math.min(o,e.length-1)]);i.push(u)}return i}function Zt(t,n,e){return{o:L(t,n.o,e.o||0),c:G(t,n.c,e.c||{})}}function Kt(t){return t.replace(/-fill-([0-9]+)$/,(function(t,n){return"-fill-"+(+n+1)}))}var Wt={fill:Qt,"fill-opacity":Yt,stroke:Qt,"stroke-opacity":Yt,"stroke-width":zt,"stroke-dashoffset":{f:yt,i:B},"stroke-dasharray":{f:function(t){var n=arguments.length>1&&void 0!==arguments[1]?arguments[1]:" ";return t&&t.length>0&&(t=t.map((function(t){return p(t,4)}))),gt(t,n)},i:function(t,n,e){var r,i,o,u=n.length,a=e.length;if(u!==a)if(0===u)n=z(u=a,0);else if(0===a)a=u,e=z(u,0);else{var l=(o=(r=u)*(i=a)/function(t,n){for(var e;n;)e=n,n=t%n,t=e;return t||1}(r,i))<0?-o:o;n=Y(n,Math.floor(l/u)),e=Y(e,Math.floor(l/a)),u=a=l}for(var s=[],f=0;f<u;f++)s.push(p(D(t,n[f],e[f])));return s}},opacity:Yt,transform:function(t,n,r,i){if(!(t=function(t,n){if(!t||"object"!==e(t))return null;var r=!1;for(var i in t)t.hasOwnProperty(i)&&(t[i]&&t[i].length?(t[i].forEach((function(t){t.e&&(t.e=n(t.e))})),r=!0):delete t[i]);return r?t:null}(t,i)))return null;var o=function(e,i,o){var u=arguments.length>3&&void 0!==arguments[3]?arguments[3]:null;return t[e]?r(i,t[e],o):n&&n[e]?n[e]:u};return n&&n.a&&t.o?function(n){var e=r(n,t.o,Dt);return Gt.recomposeSelf(e,o("r",n,B,0)+e.a,o("k",n,C),o("s",n,C),o("t",n,C)).toString()}:function(t){return Gt.recomposeSelf(o("o",t,Bt,null),o("r",t,B,0),o("k",t,C),o("s",t,C),o("t",t,C)).toString()}},r:zt,"#size":bt,"#radius":mt,_:function(t,n){if(Array.isArray(t))for(var e=0;e<t.length;e++)this[t[e]]=n;else this[t]=n}},Xt=function(t){!function(t,n){if("function"!=typeof n&&null!==n)throw new TypeError("Super expression must either be null or a function");t.prototype=Object.create(n&&n.prototype,{constructor:{value:t,writable:!0,configurable:!0}}),n&&l(t,n)}(u,t);var n,e,i=(n=u,e=s(),function(){var t,r=a(n);if(e){var i=a(this).constructor;t=Reflect.construct(r,arguments,i)}else t=r.apply(this,arguments);return c(this,t)});function u(){return r(this,u),i.apply(this,arguments)}return o(u,null,[{key:"build",value:function(t){var n=h(a(u),"build",this).call(this,t,Wt);if(!n)return null;n.el,n.options,function(t,n,e){t.play()}(n.player)}}]),u}(vt);return Xt.init(),Xt}));
(function(s,i,o,w,d,a,b){w[o]=w[o]||{};w[o][s]=w[o][s]||[];w[o][s].push(i);})('5c7f360c',{"root":"eZ7mK0UBdrD1","version":"2022-05-04","animations":[{"elements":{"eZ7mK0UBdrD3":{"transform":{"data":{"o":{"x":590.617523,"y":153.558708,"type":"corner"},"t":{"x":-590.617523,"y":-153.558708}},"keys":{"s":[{"t":0,"v":{"x":0,"y":0}},{"t":1000,"v":{"x":1,"y":1}},{"t":2000,"v":{"x":0,"y":0}},{"t":3000,"v":{"x":1,"y":1}}]}}},"eZ7mK0UBdrD4":{"transform":{"data":{"o":{"x":31.090602,"y":250.093346,"type":"corner"},"t":{"x":-31.090602,"y":-250.093346}},"keys":{"s":[{"t":0,"v":{"x":0,"y":0}},{"t":1000,"v":{"x":1,"y":1}},{"t":2000,"v":{"x":0,"y":0}},{"t":3000,"v":{"x":1,"y":1}}]}}}},"s":"MQDA1ZGUzOGFjY2RkZGYFjOVZkY2QxZDdkNjhQhYTI5Yjk4OTg5OEI5FNDhhY2NkMWRhY2RjYBmRjZDFkN0ZkNjhhYTDI5OTk0OGFkMWRjY2RMkYWM5ZGNkMU5kN2Q2JZGI4YWEyOTk5NDhhVEVFjZWQxZDRSZDQ4YWXEyOTk5NDhhYzlkNExWkY2NkZGFkNmM5ZGNjKZDhhYTJjZWM5ZDRkYVmNkOTREOGFkYmQ4Y2KRjZGNjOGFhMjk5OTQG4YWNlZDhkYjhhWGEyLOTk5OFM5OGU1"}],"options":"MDDAxMDg4MmY4MDgxNmRU3ZjgxMmY0NzJmNzkU3YzZlNzEyZjhh"},'__SVGATOR_PLAYER__',window,document)
]]></script>
</svg>
