<svg width="375" height="515" viewBox="0 0 375 515" fill="none" xmlns="http://www.w3.org/2000/svg">
<g clip-path="url(#clip0_3253_15969)">
<rect width="375" height="515" fill="#955FFD"/>
<path d="M66.6437 673.473C44.6835 648.162 54.069 623.802 50.3634 545.266C43.2306 393.969 2.34251 355.921 31.4709 318.05C72.9665 264.106 192.411 293.877 222.557 301.39C253.184 309.024 434.946 354.326 446.837 476.839C457.235 583.992 329.589 666.801 243.424 691.92C229.002 696.122 114.133 728.212 66.6437 673.473Z" fill="#F6F6FF"/>
<path d="M139.483 297.649C139.483 297.649 163.984 381.861 177.202 380.671C182.558 380.19 205.541 378.277 216.354 376.895C230.68 375.067 254.159 373.781 256.989 373.974C282.908 375.7 313.443 387.166 331.298 422.491C350.808 461.091 374.236 514.887 358.275 533.826C344.88 549.716 317.939 555.052 278.706 516.74L184.426 516.988L178.883 444.329C166.698 445.251 149.699 444.188 134.795 434.757C107.935 417.762 93.6641 308.549 93.6641 308.549L139.483 297.649Z" fill="#5AB2DD"/>
<path fill-rule="evenodd" clip-rule="evenodd" d="M174.157 420.248C143.905 424.05 119.11 394.532 106.92 376.414C113.708 402.267 123.048 427.331 134.793 434.762C149.696 444.193 166.695 445.256 178.88 444.335L179.108 447.327C188.782 431.061 191.703 418.041 174.157 420.248Z" fill="#4D80AA"/>
<path fill-rule="evenodd" clip-rule="evenodd" d="M142.358 307.005C139.898 299.249 139.488 297.649 139.488 297.649L93.6641 308.554C93.6641 308.554 94.1703 312.543 95.3599 320.015L142.358 307.005Z" fill="white"/>
<path d="M123.627 286.462L143.112 272.602C145.035 271.235 147.647 271.503 149.293 273.194C152.75 276.677 158.091 277.386 162.237 274.971C167.735 271.772 169.187 264.639 165.583 259.577C163.416 256.534 159.949 254.97 156.476 255.107C154.947 255.167 153.793 253.709 154.314 252.272C155.458 249.098 155.084 245.433 152.978 242.476C149.369 237.404 142.135 236.447 137.315 240.613C133.675 243.757 132.612 249.052 134.749 253.36C135.862 255.557 135.27 258.119 133.346 259.485L113.467 273.63L123.627 286.462Z" fill="#9679BC"/>
<path d="M117.487 280.443C117.203 280.443 116.925 280.307 116.758 280.049C116.494 279.649 116.606 279.107 117.011 278.839L149.258 257.613C149.652 257.349 150.199 257.456 150.467 257.866C150.731 258.266 150.619 258.807 150.214 259.076L117.968 280.302C117.816 280.393 117.649 280.443 117.487 280.443Z" fill="#F6F6FF"/>
<path d="M319.698 475.747C319.339 475.747 319.005 475.52 318.878 475.16C318.716 474.705 318.959 474.208 319.415 474.046L329.494 470.493C329.945 470.326 330.446 470.574 330.608 471.024C330.77 471.48 330.527 471.976 330.076 472.138L319.997 475.692C319.891 475.732 319.795 475.747 319.698 475.747Z" fill="#F6F6FF"/>
<path d="M284.499 474.84C284.059 474.84 283.679 474.511 283.628 474.065L277.832 423.22C277.776 422.739 278.121 422.309 278.602 422.253C279.067 422.258 279.513 422.547 279.568 423.022L285.37 473.873C285.42 474.354 285.076 474.784 284.6 474.84C284.57 474.835 284.535 474.84 284.499 474.84Z" fill="#F6F6FF"/>
<path d="M165.629 481.563C165.477 481.178 165.325 480.793 165.173 480.403C163.472 476.035 161.938 471.544 159.777 467.373C157.691 463.343 155.165 459.567 152.806 455.694C150.827 452.439 148.589 449.382 146.514 446.187C149.181 444.233 151.551 441.824 153.49 438.999C163.042 425.093 170.499 419.398 175.257 415.459C184.774 407.582 192.803 405.887 198.554 409.314C204.305 412.746 204.355 424.146 199.577 425.149C194.803 426.151 188.399 428.348 186.951 436.265C185.964 441.687 181.069 454.328 178.33 461.162C177.186 464.012 168.079 477.908 166.363 480.459C166.125 480.844 165.877 481.203 165.629 481.563Z" fill="#352C29"/>
<path d="M177.518 415.937C177.518 415.937 169.914 425.018 174.607 427.539L165.358 429.336L160.771 422.639L165.14 417.47L177.518 415.937Z" fill="#352C29"/>
<path d="M93.8535 395.084C100.991 390.488 119.671 402.399 119.671 402.399C119.671 402.399 144.972 391.617 151.969 396.456C156.818 399.813 163.399 409.643 163.399 409.643C175.26 405.335 176.759 401.934 180.464 408.925C181.902 411.633 181.467 416.073 179.431 418.087C177.098 420.401 166.502 421.631 164.417 421.783C161.926 421.965 162.169 425.073 164.412 425.731C166.999 426.486 167.434 425.731 174.06 426.45C175.863 426.648 178.318 427.944 178.146 427.898C177.052 427.62 176.389 428.713 176.197 430.277C175.888 432.783 177.067 435.233 179.108 436.722C183.76 440.113 194.325 450.805 188.64 475.317L184.423 516.989H98.7538L115.039 465.233C96.5922 447.231 100.941 425.62 100.941 425.62C100.941 425.62 86.7106 399.681 93.8535 395.084Z" fill="#352C29"/>
<path d="M165.352 467.287C163.545 451.913 148.905 446.815 148.424 446.653C142.303 444.659 137.752 441.591 136.644 437.693C134.771 431.117 138.886 425.822 144.916 422.633C151.365 419.226 160.345 418.593 161.662 415.718C163.626 411.42 158.326 407.922 156.817 403.69C156.296 402.222 157.257 401.807 157.819 402.222C159.409 404.12 160.852 406.049 161.874 407.461C162.811 408.757 164.512 409.248 165.995 408.656C175.512 404.869 177.051 402.475 180.468 408.924C181.906 411.632 181.47 416.072 179.435 418.087C177.102 420.4 166.506 421.631 164.421 421.782C161.93 421.965 162.173 425.073 164.416 425.731C167.002 426.485 167.438 425.731 174.064 426.45C175.866 426.647 178.322 427.943 178.15 427.898C177.056 427.619 176.393 428.713 176.201 430.277C175.892 432.783 177.071 435.233 179.111 436.721C183.764 440.113 194.329 450.805 188.644 475.316L184.427 516.989H160.31C162.963 501.453 166.547 477.452 165.352 467.287Z" fill="#FAF4E5"/>
<path d="M136.242 397.195C136.242 397.195 124.244 385.355 119.273 385.582C114.302 385.81 116.109 405.862 116.109 405.862L136.242 397.195Z" fill="#352C29"/>
<path d="M110.101 468.31C115.948 457.386 127.378 460.008 145.952 462.964C157.256 464.762 168.55 459.851 175.03 450.415C184.582 436.509 192.039 430.814 196.798 426.875C206.315 418.998 214.343 417.303 220.094 420.73C225.845 424.162 225.896 435.562 221.117 436.565C216.343 437.567 209.939 439.764 208.491 447.681C207.504 453.103 202.609 465.744 199.87 472.578C198.726 475.428 196.595 483.249 187.903 491.875C179.333 500.38 167.968 503.787 160.769 505.695L159.402 514.119L98.7461 515.05C98.7562 515.055 100.31 486.605 110.101 468.31Z" fill="#352C29"/>
<path d="M179.359 411.84C177.628 408.964 175.644 410.711 173.032 409.693C172.156 409.354 171.442 408.488 171.103 407.466C170.941 406.98 171.184 406.448 171.655 406.246C176.358 404.226 177.876 404.044 180.458 408.924C180.807 409.582 181.045 410.341 181.172 411.146C181.344 412.209 179.931 412.781 179.37 411.865C179.37 411.855 179.365 411.85 179.359 411.84Z" fill="#222120"/>
<path d="M153.002 403.665C151.488 403.746 150.005 403.938 148.537 404.313C147.701 404.525 147.114 405.325 147.291 406.196C147.458 407.011 148.334 407.654 149.175 407.441C150.369 407.137 151.594 406.92 152.825 406.854C153.685 406.808 154.46 406.272 154.51 405.345C154.556 404.556 153.867 403.619 153.002 403.665Z" fill="white"/>
<path d="M178.906 421.753C183.269 421.616 189.587 423.651 190.124 425.853C190.939 429.169 187.856 429.746 185.021 429.336C182.672 428.997 179.235 428.182 178.323 427.954C173.443 426.714 174.172 426.511 165.344 426.081C165.344 426.076 167.328 422.117 178.906 421.753Z" fill="#FFBBC8"/>
<path d="M216.048 428.575C215.77 428.575 215.497 428.438 215.33 428.195C215.056 427.8 215.157 427.253 215.552 426.98C217.663 425.527 223.247 425.158 223.875 425.117C224.371 425.122 224.771 425.461 224.801 425.937C224.831 426.418 224.462 426.833 223.981 426.864C222.407 426.955 217.997 427.421 216.545 428.418C216.393 428.524 216.215 428.575 216.048 428.575Z" fill="#F6F6FF"/>
<path d="M212.713 421.61C212.324 421.61 211.964 421.347 211.868 420.952C211.752 420.486 212.035 420.01 212.501 419.894C212.906 419.793 216.485 418.896 218.024 418.896C218.505 418.896 218.899 419.286 218.899 419.772C218.899 420.253 218.51 420.648 218.024 420.648C216.9 420.648 213.964 421.326 212.926 421.59C212.855 421.6 212.784 421.61 212.713 421.61Z" fill="#F6F6FF"/>
<path d="M194.38 416.81C194.102 416.81 193.828 416.673 193.661 416.43C193.388 416.035 193.489 415.489 193.889 415.215C196 413.762 201.584 413.398 202.212 413.357C202.728 413.378 203.108 413.702 203.138 414.178C203.163 414.658 202.799 415.074 202.313 415.104C200.738 415.195 196.329 415.656 194.876 416.653C194.724 416.759 194.547 416.81 194.38 416.81Z" fill="#F6F6FF"/>
<path d="M191.045 409.84C190.656 409.84 190.296 409.577 190.2 409.182C190.084 408.717 190.367 408.241 190.833 408.124C191.238 408.023 194.817 407.127 196.361 407.127C196.842 407.127 197.237 407.517 197.237 408.003C197.237 408.484 196.847 408.879 196.361 408.879C195.237 408.879 192.301 409.557 191.258 409.82C191.187 409.835 191.116 409.84 191.045 409.84Z" fill="#F6F6FF"/>
<path d="M118.719 403.457C118.43 403.457 118.142 403.311 117.98 403.047C117.722 402.637 117.848 402.101 118.258 401.848C125.573 397.281 142.613 394.953 143.337 394.862C143.838 394.816 144.253 395.14 144.319 395.611C144.385 396.092 144.045 396.527 143.57 396.593C143.397 396.618 126.186 398.962 119.19 403.326C119.043 403.412 118.881 403.457 118.719 403.457Z" fill="#F6F6FF"/>
<path d="M119.172 410.352C118.949 410.352 118.726 410.271 118.559 410.099C118.468 410.012 109.437 401.199 98.6492 399.913C98.1734 399.857 97.8291 399.422 97.8848 398.946C97.9405 398.47 98.3252 398.136 98.8517 398.182C110.247 399.539 119.4 408.479 119.779 408.858C120.123 409.197 120.129 409.754 119.789 410.093C119.622 410.266 119.4 410.352 119.172 410.352Z" fill="#F6F6FF"/>
<path d="M112.22 411.844C112.22 411.844 108.874 409.5 106.986 408.199C106.591 407.92 106.49 407.379 106.763 406.979C107.037 406.584 107.578 406.488 107.983 406.756C109.871 408.062 113.228 410.411 113.228 410.411L112.22 411.844Z" fill="#F6F6FF"/>
<path d="M123.808 401.104C123.474 401.104 123.16 400.917 123.014 400.588C121.52 397.292 121.044 389.886 121.029 389.572C120.999 389.091 121.363 388.676 121.844 388.646C122.36 388.64 122.74 389 122.771 389.461C122.781 389.537 123.251 396.862 124.603 399.869C124.806 400.309 124.608 400.825 124.168 401.023C124.051 401.079 123.93 401.104 123.808 401.104Z" fill="#F6F6FF"/>
<path d="M149.218 464.244C145.411 464.244 141.012 463.738 136.015 462.391C135.55 462.27 135.271 461.789 135.398 461.323C135.519 460.857 136.005 460.553 136.466 460.705C155.849 465.904 166.004 457.967 166.106 457.891C166.47 457.592 167.032 457.638 167.331 458.027C167.634 458.402 167.574 458.954 167.194 459.252C166.87 459.521 160.821 464.244 149.218 464.244Z" fill="#F6F6FF"/>
<path d="M154.315 506.578C153.839 506.578 153.369 506.567 152.888 506.557C152.407 506.547 152.027 506.142 152.037 505.661C152.047 505.18 152.437 504.735 152.933 504.811C185.069 505.616 197.886 476.563 198.013 476.27C198.2 475.824 198.712 475.622 199.157 475.809C199.603 475.996 199.81 476.508 199.618 476.953C199.491 477.252 186.673 506.578 154.315 506.578Z" fill="#F6F6FF"/>
<path d="M216.351 376.895C230.677 375.068 254.156 373.782 256.986 373.974C260.702 374.222 264.372 374.718 267.987 375.493C267.921 375.599 253.498 411.04 226.294 406.813C206.844 403.791 202.987 387.47 202.369 378.404C207.649 377.887 212.696 377.361 216.351 376.895Z" fill="white"/>
<path d="M216.349 376.895C230.675 375.068 254.154 373.782 256.984 373.974C257.996 374.04 259.004 374.131 260.006 374.232L257.647 377.852C257.647 377.852 247.249 402.131 227.638 399.235C211.752 396.891 210.294 382.843 210.315 377.594C212.557 377.351 214.607 377.118 216.349 376.895Z" fill="#FF9D76"/>
<path d="M256.979 373.974C250.641 354.089 235.94 308.554 235.94 308.554L228.463 310.71L227.901 314.917C221.239 317.322 196.363 320.658 196.363 320.658L195.32 326.176C195.32 326.176 200.038 367.281 206.027 370.724C210.543 373.321 216.071 372.845 219.24 372.354L221.887 389.515L256.979 373.974Z" fill="#FF9D76"/>
<path d="M242.398 304.971C232.643 297.844 208.547 296.948 198.316 308.556C193.01 314.57 190.849 325.651 195.466 328.05C195.709 328.177 195.258 323.687 198.7 321.89C204.259 318.984 215.624 318.093 224.032 317.43C224.032 317.43 222.524 324.557 227.839 329.944C231.772 333.928 234.283 331.179 234.283 331.179L239.735 341.622C239.735 341.622 238.986 351.55 251.262 356.141C251.262 356.141 250.143 352.279 252.599 338.904C254.295 329.675 254.664 313.932 242.398 304.971Z" fill="#75434B"/>
<path d="M233.332 333.299C233.443 332.94 233.595 329.325 236.952 328.571C240.313 327.822 242.576 329.659 243.386 334.732C244.201 339.804 238.521 343.393 236.44 341.824C234.36 340.26 233.332 333.299 233.332 333.299Z" fill="#FF9D76"/>
<path d="M233.917 337.121C233.442 337.121 233.057 336.742 233.042 336.266C233.037 336.129 233.001 332.985 235.588 331.305C236.803 330.515 237.912 330.313 238.889 330.702C240.402 331.305 240.868 333.061 240.919 333.259C241.03 333.73 240.741 334.2 240.276 334.317C239.78 334.423 239.334 334.145 239.223 333.674C239.142 333.375 238.818 332.545 238.241 332.322C237.719 332.125 237.026 332.449 236.545 332.768C234.763 333.927 234.793 336.2 234.793 336.225C234.803 336.706 234.424 337.106 233.938 337.121C233.933 337.121 233.928 337.121 233.917 337.121Z" fill="#EF685E"/>
<path d="M236.291 365.125C237.202 363.94 235.82 362.361 234.529 363.11C227.892 366.947 218.067 372.617 217.763 372.688C217.641 372.718 221.15 384.777 221.15 384.777L236.291 365.125Z" fill="#EF685E"/>
<path d="M222.597 321.512C222.471 321.512 222.344 321.487 222.223 321.426C221.787 321.219 221.6 320.697 221.812 320.262L226.186 311.104C226.394 310.659 226.915 310.481 227.351 310.694C227.786 310.902 227.973 311.423 227.761 311.858L223.387 321.016C223.235 321.33 222.921 321.512 222.597 321.512Z" fill="#FF9D76"/>
<path d="M215.294 340.286C216.003 340.114 216.438 339.4 216.271 338.691L215.775 336.636C215.603 335.927 214.889 335.492 214.181 335.659C213.472 335.831 213.037 336.545 213.204 337.253L213.7 339.309C213.867 340.017 214.586 340.453 215.294 340.286Z" fill="#49263E"/>
<path d="M153.706 413.769C154.415 413.597 154.851 412.883 154.684 412.174L154.187 410.119C154.015 409.41 153.301 408.975 152.593 409.142C151.884 409.314 151.449 410.028 151.616 410.737L152.112 412.792C152.279 413.501 152.998 413.936 153.706 413.769Z" fill="#E8E8E8"/>
<path d="M200.615 343.814C201.323 343.642 201.759 342.928 201.592 342.219L201.096 340.164C200.923 339.455 200.21 339.02 199.501 339.187C198.792 339.359 198.357 340.073 198.524 340.782L199.02 342.837C199.192 343.541 199.906 343.981 200.615 343.814Z" fill="#49263E"/>
<path d="M204.98 351.246C203.578 351.246 202.312 350.649 201.285 349.49C200.014 348.052 199.422 346.083 199.665 345.141C199.802 344.62 200.024 344.099 200.277 343.532C201.067 341.76 202.049 339.558 200.794 334.338C200.682 333.868 200.971 333.397 201.437 333.28C201.918 333.164 202.378 333.458 202.495 333.923C203.887 339.72 202.722 342.332 201.872 344.235C201.659 344.711 201.467 345.136 201.356 345.572C201.31 345.86 201.644 347.354 202.733 348.472C203.502 349.267 204.418 349.606 205.421 349.465C205.927 349.409 206.337 349.743 206.403 350.214C206.463 350.69 206.129 351.13 205.654 351.196C205.426 351.231 205.203 351.246 204.98 351.246Z" fill="#EF685E"/>
<path d="M207.412 333.434C207.27 333.434 207.118 333.399 206.976 333.323C206.551 333.095 206.414 332.523 206.637 332.093C207.042 331.333 211.714 327.709 218.032 329.597C218.493 329.739 218.756 330.225 218.619 330.691C218.478 331.151 217.987 331.404 217.526 331.278C212.408 329.734 208.535 332.533 208.125 333.004C207.973 333.287 207.7 333.434 207.412 333.434Z" fill="#75434B"/>
<path d="M196.477 335.839C196.365 335.839 196.249 335.819 196.142 335.773C195.697 335.586 195.484 335.075 195.672 334.629C195.702 334.563 196.365 333.009 197.94 332.462C198.998 332.088 200.167 332.265 201.422 332.964C201.848 333.202 201.989 333.733 201.756 334.153C201.514 334.578 200.982 334.72 200.567 334.487C199.772 334.037 199.079 333.9 198.517 334.113C197.697 334.391 197.292 335.292 197.287 335.297C197.145 335.637 196.816 335.839 196.477 335.839Z" fill="#75434B"/>
<path d="M203.888 357.172C203.696 357.005 203.519 356.823 203.362 356.625C203.078 356.266 202.967 355.795 203.068 355.345C203.169 354.894 203.468 354.514 203.878 354.312L212.894 349.827C213.395 349.579 213.992 349.624 214.448 349.943C214.909 350.262 215.152 350.809 215.091 351.366C214.691 354.94 212.823 357.456 209.968 358.271C207.796 358.893 205.336 358.417 203.888 357.172Z" fill="white"/>
<path d="M166.644 393.222C166.437 393.222 166.224 393.146 166.057 392.999C165.698 392.675 165.667 392.123 165.997 391.764L176.546 380.09C176.875 379.731 177.422 379.706 177.782 380.03C178.141 380.354 178.171 380.905 177.842 381.265L167.292 392.933C167.12 393.121 166.882 393.222 166.644 393.222Z" fill="#F6F6FF"/>
<path d="M136.505 298.358C136.505 298.358 136.216 295.589 144.032 284.462C151.848 273.335 142.979 271.933 142.048 266.891C141.805 265.559 138.874 266.05 136.515 263.636C134.875 261.955 134.257 257.819 131.488 256.771C123.641 253.795 119.338 254.767 117.486 258.335C117.486 258.335 110.409 257.951 109.872 263.793C109.872 263.793 101.236 264.739 101.301 270.212C101.301 270.212 93.9713 271.123 97.4693 280.017L98.2692 308.265L136.505 298.358Z" fill="#FF9D76"/>
<path d="M131.462 268.355C131.016 268.355 130.632 268.011 130.591 267.555C130.586 267.525 130.308 264.604 128.516 263.915C126.182 263.019 117.515 259.298 117.146 259.141C116.7 258.949 116.498 258.438 116.685 257.992C116.877 257.547 117.389 257.344 117.834 257.532C117.925 257.572 126.84 261.394 129.143 262.28C131.963 263.358 132.322 267.236 132.332 267.398C132.373 267.879 132.014 268.299 131.538 268.345C131.512 268.35 131.487 268.355 131.462 268.355Z" fill="#EF685E"/>
<path d="M126.652 283.649C126.334 283.649 126.03 283.477 125.873 283.168C125.827 283.072 121.114 273.767 119.282 271.277C118.067 269.621 113.293 266.893 111 265.577C108.929 264.392 108.615 264.21 108.939 263.44C109.112 263.035 109.694 262.833 110.114 262.959C110.332 263.02 110.504 263.162 110.615 263.339C110.894 263.506 111.329 263.754 111.865 264.058C115.439 266.108 119.363 268.442 120.689 270.239C122.603 272.846 127.235 281.988 127.427 282.378C127.645 282.809 127.473 283.335 127.042 283.553C126.921 283.619 126.784 283.649 126.652 283.649Z" fill="#EF685E"/>
<path d="M117.435 290.182C117.435 290.182 112.453 281.307 110.287 277.521C108.287 274.033 101.048 271.056 100.977 271.026C100.532 270.844 100.314 270.332 100.496 269.887C100.678 269.436 101.195 269.224 101.635 269.406C101.954 269.538 109.507 272.651 111.805 276.65C113.977 280.442 118.963 289.326 118.963 289.326L117.435 290.182Z" fill="#EF685E"/>
<path d="M79.1057 282.003C83.925 278.044 91.0021 279.052 94.5558 284.048C95.3506 285.167 96.8895 285.43 97.988 284.645L102.119 281.755L105.723 290.654L113.438 293.717L108.993 296.881C107.298 298.086 106.807 300.369 107.814 302.191C110.31 306.823 109.1 312.569 105.03 315.728C100.215 319.469 93.3105 318.416 89.8124 313.5C87.8179 310.696 87.3724 307.259 88.3089 304.206C88.8152 302.556 87.5597 300.885 85.8284 300.875C82.2544 300.855 78.7463 299.043 76.7315 295.676C74.1902 291.424 75.2837 285.141 79.1057 282.003Z" fill="#F75454"/>
<path d="M94.396 297.109C94.1125 297.109 93.8291 296.972 93.662 296.714C93.3988 296.309 93.5101 295.767 93.9151 295.504L104.784 288.412C105.189 288.154 105.73 288.26 105.994 288.665C106.257 289.07 106.146 289.611 105.741 289.875L94.8719 296.967C94.7251 297.058 94.5631 297.109 94.396 297.109Z" fill="#F6F6FF"/>
<path d="M111.083 293.894C110.293 293.894 109.518 293.742 108.769 293.439C104.826 291.839 102.563 286.478 101.363 282.266L101.302 282.049C101.155 281.598 101.383 281.102 101.834 280.94C102.264 280.788 102.765 280.986 102.937 281.431C102.958 281.472 102.993 281.593 103.049 281.785C104.598 287.217 106.866 290.781 109.432 291.819C110.89 292.406 112.439 292.209 114.171 291.206C121.091 287.217 131.124 279.573 133.762 277.548C132.314 275.371 128.431 268.745 131.813 264.847C132.795 263.718 134.015 263.106 135.442 263.03C138.966 262.878 142.504 266.123 142.656 266.259C143.01 266.588 143.026 267.14 142.697 267.495C142.367 267.844 141.821 267.864 141.461 267.535C141.431 267.51 138.353 264.65 135.528 264.776C134.577 264.827 133.797 265.227 133.134 265.996C130.567 268.952 134.081 275.098 135.655 277.214C135.938 277.599 135.862 278.13 135.493 278.424C135.371 278.52 123.141 288.058 115.046 292.725C113.674 293.5 112.353 293.894 111.083 293.894Z" fill="#EF685E"/>
<path d="M67.321 427.721C66.9414 427.721 66.587 427.467 66.4807 427.083C66.3491 426.622 66.6174 426.136 67.0882 426.004L79.3187 422.542C79.7692 422.425 80.2653 422.678 80.3969 423.149C80.5285 423.61 80.2602 424.096 79.7895 424.228L67.559 427.69C67.478 427.71 67.402 427.721 67.321 427.721Z" fill="#FFD333"/>
<path d="M75.3518 401.103C75.2708 401.103 75.1949 401.093 75.1139 401.073L56.1658 395.717C55.7051 395.58 55.4317 395.099 55.5583 394.638C55.695 394.178 56.186 393.925 56.6366 394.031L75.5847 399.387C76.0454 399.524 76.3187 400.004 76.1922 400.465C76.0859 400.85 75.7315 401.103 75.3518 401.103Z" fill="#FFD333"/>
<path d="M91.8505 381.543C91.4962 381.543 91.1671 381.325 91.0305 380.976L87.4767 371.545C87.3046 371.094 87.5375 370.588 87.988 370.416C88.4487 370.264 88.9397 370.477 89.1169 370.927L92.6706 380.358C92.8428 380.809 92.6099 381.315 92.1593 381.487C92.053 381.528 91.9518 381.543 91.8505 381.543Z" fill="#FFD333"/>
<path d="M273.113 434.026C273.113 439.868 268.38 444.601 262.538 444.601C256.696 444.601 251.963 439.868 251.963 434.026C251.963 428.184 256.696 423.451 262.538 423.451C268.38 423.456 273.113 428.189 273.113 434.026Z" fill="white"/>
<path fill-rule="evenodd" clip-rule="evenodd" d="M262.445 442.01C266.919 442.01 270.545 438.384 270.545 433.91C270.545 429.437 266.919 425.811 262.445 425.811C257.972 425.811 254.346 429.437 254.346 433.91C254.346 436.56 255.618 438.912 257.585 440.39V434.152C257.585 433.465 257.707 432.801 257.952 432.161C258.197 431.522 258.538 430.976 258.973 430.525C259.409 430.067 259.923 429.707 260.515 429.444C261.114 429.182 261.761 429.05 262.456 429.05C263.15 429.05 263.804 429.182 264.416 429.444C265.029 429.707 265.563 430.067 266.019 430.525C266.476 430.976 266.836 431.522 267.102 432.161C267.367 432.801 267.5 433.465 267.5 434.152C267.5 434.838 267.367 435.488 267.102 436.101C266.836 436.707 266.476 437.236 266.019 437.687C265.563 438.138 265.029 438.495 264.416 438.758C263.804 439.02 263.15 439.152 262.456 439.152C261.945 439.152 261.479 439.068 261.057 438.899C260.641 438.724 260.26 438.495 259.913 438.212L259.872 441.243C259.87 441.361 259.855 441.473 259.828 441.578C260.649 441.858 261.529 442.01 262.445 442.01ZM263.599 436.626C263.266 436.768 262.912 436.839 262.537 436.839C262.163 436.839 261.812 436.771 261.485 436.637C261.159 436.495 260.873 436.303 260.628 436.061C260.383 435.818 260.189 435.535 260.046 435.212C259.909 434.889 259.841 434.542 259.841 434.172C259.841 433.801 259.909 433.438 260.046 433.081C260.189 432.724 260.383 432.424 260.628 432.182C260.873 431.939 261.159 431.747 261.485 431.606C261.812 431.464 262.163 431.394 262.537 431.394C262.912 431.394 263.266 431.461 263.599 431.596C263.933 431.724 264.226 431.906 264.477 432.141C264.729 432.37 264.93 432.663 265.08 433.02C265.23 433.37 265.305 433.731 265.305 434.101C265.305 434.478 265.23 434.835 265.08 435.172C264.93 435.502 264.729 435.791 264.477 436.041C264.226 436.283 263.933 436.478 263.599 436.626Z" fill="#B6AEFF"/>
<path d="M258.481 441.788C258.481 441.788 241.634 443.945 239.057 446.142C236.481 448.339 236.506 456.17 236.506 456.17L255.54 454.667L258.481 441.788Z" fill="#555555"/>
<path fill-rule="evenodd" clip-rule="evenodd" d="M232.276 439.516C232.519 437.198 236.974 436.519 245.504 437.562C251.31 438.271 261.455 439.815 264.204 442.052C267.378 444.634 281.305 458.444 282.924 466.037L292.826 472.669L279.34 504.845C278.895 504.146 270.886 496.381 263.992 489.101C256.347 484.662 258.043 477.822 258.043 477.822C258.043 477.822 246.699 480.359 241.52 478.734C236.341 477.109 241.272 473.54 241.272 473.54C241.272 473.54 239.677 473.454 237.906 470.32C236.134 467.187 239.617 463.132 239.617 463.132C239.617 463.132 233.152 462.271 233.689 458.626C234.225 454.981 254.11 449.565 254.11 449.565C240.017 443.748 231.618 445.738 232.276 439.516Z" fill="#FF9D76"/>
<path d="M251.39 450.031C250.995 450.031 250.641 449.762 250.54 449.362C250.428 448.892 250.717 448.421 251.182 448.304L258.523 446.543C259.004 446.437 259.464 446.72 259.581 447.186C259.692 447.657 259.404 448.127 258.938 448.244L251.598 450.005C251.522 450.026 251.456 450.031 251.39 450.031Z" fill="#EF685E"/>
<path d="M237.533 464.66C237.163 464.66 236.819 464.422 236.698 464.052C236.556 463.592 236.809 463.101 237.265 462.954L257.18 456.636C257.645 456.494 258.131 456.747 258.278 457.208C258.42 457.669 258.167 458.16 257.711 458.307L237.796 464.624C237.71 464.65 237.619 464.66 237.533 464.66Z" fill="#EF685E"/>
<path d="M240.017 474.841C239.653 474.841 239.319 474.613 239.192 474.254C239.035 473.793 239.278 473.302 239.734 473.14L257.659 466.979C258.12 466.822 258.611 467.065 258.773 467.521C258.93 467.982 258.687 468.473 258.232 468.635L240.306 474.796C240.205 474.826 240.114 474.841 240.017 474.841Z" fill="#EF685E"/>
<path d="M256.354 479.034C255.964 479.034 255.604 478.77 255.508 478.37C255.392 477.9 255.68 477.429 256.146 477.312L262.798 475.672C263.279 475.536 263.745 475.844 263.856 476.31C263.972 476.781 263.684 477.252 263.218 477.368L256.566 479.008C256.495 479.029 256.425 479.034 256.354 479.034Z" fill="#EF685E"/>
<path d="M304.636 471.321L283.42 521.195L275.842 515.292L295.61 466.588L304.636 471.321Z" fill="white"/>
<path d="M283.434 521.205C320.1 554.59 345.421 549.067 358.269 533.825C364.238 526.743 364.699 514.791 361.914 500.586C360.618 511.596 355.435 529.679 335.499 532.089C307.034 535.531 284.163 521.65 283.434 521.205Z" fill="#4D80AA"/>
<path d="M283.435 522.082C283.248 522.082 283.06 522.021 282.898 521.894L275.3 515.977C275.016 515.759 274.9 515.389 274.996 515.05C279.466 499.21 294.663 466.543 294.82 466.214C294.921 465.997 295.103 465.83 295.331 465.754C295.554 465.678 295.807 465.698 296.02 465.804L337.946 487.81C338.371 488.038 338.533 488.564 338.315 488.995C338.087 489.42 337.551 489.582 337.131 489.364L296.02 467.784C293.651 472.917 281.051 500.501 276.844 514.959L283.977 520.517C284.356 520.816 284.422 521.358 284.128 521.743C283.956 521.97 283.698 522.082 283.435 522.082Z" fill="#F6F6FF"/>
</g>
<defs>
<clipPath id="clip0_3253_15969">
<rect width="375" height="515" fill="white"/>
</clipPath>
</defs>
</svg>
