<svg width="768" height="615" viewBox="0 0 768 615" fill="none" xmlns="http://www.w3.org/2000/svg">
<g clip-path="url(#clip0_3253_9548)">
<rect width="768" height="615" fill="#955FFD"/>
<path d="M177.96 821.065C149.515 788.279 161.672 756.726 156.872 654.999C147.633 459.025 94.6712 409.742 132.401 360.688C186.15 290.815 340.866 329.378 379.913 339.108C419.584 348.997 655.018 407.676 670.421 566.366C683.889 705.161 518.551 812.422 406.942 844.959C388.261 850.401 239.473 891.967 177.96 821.065Z" fill="#F6F6FF"/>
<path d="M297.065 323.782C297.065 323.782 329.836 436.416 347.515 434.825C354.678 434.182 385.418 431.622 399.881 429.774C419.043 427.33 450.446 425.61 454.231 425.867C488.898 428.176 529.74 443.512 553.621 490.76C579.716 542.388 611.052 614.342 589.703 639.672C571.788 660.926 535.753 668.063 483.278 616.82L357.177 617.152L349.763 519.969C333.465 521.202 310.728 519.78 290.795 507.166C254.868 484.436 235.781 338.36 235.781 338.36L297.065 323.782Z" fill="#5AB2DD"/>
<path fill-rule="evenodd" clip-rule="evenodd" d="M343.441 487.762C302.978 492.847 269.814 453.366 253.51 429.133C262.59 463.712 275.082 497.235 290.79 507.174C310.724 519.789 333.461 521.21 349.758 519.978L350.063 523.98C363.002 502.225 366.909 484.81 343.441 487.762Z" fill="#4D80AA"/>
<path fill-rule="evenodd" clip-rule="evenodd" d="M300.911 336.295C297.62 325.922 297.072 323.782 297.072 323.782L235.781 338.367C235.781 338.367 236.458 343.702 238.05 353.696L300.911 336.295Z" fill="white"/>
<path d="M275.857 308.819L301.918 290.281C304.491 288.453 307.985 288.811 310.185 291.073C314.81 295.731 321.953 296.679 327.499 293.449C334.852 289.17 336.795 279.63 331.974 272.859C329.076 268.79 324.438 266.698 319.793 266.88C317.748 266.962 316.205 265.012 316.902 263.089C318.432 258.843 317.931 253.941 315.115 249.987C310.287 243.203 300.611 241.923 294.165 247.495C289.297 251.7 287.875 258.782 290.732 264.544C292.222 267.483 291.43 270.909 288.857 272.737L262.268 291.655L275.857 308.819Z" fill="#9679BC"/>
<path d="M267.644 300.769C267.265 300.769 266.893 300.586 266.669 300.241C266.317 299.706 266.466 298.982 267.008 298.623L310.138 270.232C310.666 269.88 311.398 270.022 311.757 270.571C312.109 271.106 311.96 271.83 311.418 272.189L268.287 300.58C268.084 300.701 267.861 300.769 267.644 300.769Z" fill="#F6F6FF"/>
<path d="M538.111 561.991C537.631 561.991 537.184 561.686 537.014 561.205C536.798 560.596 537.123 559.932 537.732 559.716L551.213 554.963C551.816 554.739 552.486 555.071 552.703 555.673C552.919 556.283 552.594 556.946 551.992 557.163L538.511 561.916C538.369 561.97 538.24 561.991 538.111 561.991Z" fill="#F6F6FF"/>
<path d="M491.029 560.779C490.44 560.779 489.932 560.338 489.864 559.743L482.111 491.736C482.037 491.092 482.497 490.517 483.141 490.442C483.764 490.449 484.359 490.835 484.434 491.472L492.193 559.485C492.261 560.129 491.801 560.704 491.164 560.779C491.123 560.772 491.076 560.779 491.029 560.779Z" fill="#F6F6FF"/>
<path d="M332.034 569.77C331.831 569.255 331.627 568.74 331.424 568.219C329.149 562.376 327.098 556.37 324.207 550.791C321.417 545.401 318.038 540.35 314.883 535.17C312.236 530.817 309.243 526.727 306.467 522.455C310.035 519.841 313.204 516.618 315.797 512.84C328.574 494.24 338.547 486.623 344.912 481.355C357.641 470.82 368.38 468.551 376.072 473.135C383.763 477.726 383.831 492.974 377.439 494.315C371.054 495.655 362.489 498.594 360.553 509.184C359.232 516.435 352.685 533.342 349.022 542.483C347.492 546.295 335.311 564.881 333.016 568.294C332.697 568.808 332.366 569.289 332.034 569.77Z" fill="#352C29"/>
<path d="M347.937 481.992C347.937 481.992 337.767 494.139 344.044 497.511L331.674 499.915L325.539 490.957L331.382 484.044L347.937 481.992Z" fill="#352C29"/>
<path d="M236.034 454.103C245.581 447.955 270.566 463.887 270.566 463.887C270.566 463.887 304.407 449.464 313.764 455.937C320.251 460.427 329.053 473.576 329.053 473.576C344.917 467.814 346.922 463.264 351.878 472.614C353.801 476.237 353.219 482.175 350.497 484.87C347.375 487.964 333.204 489.609 330.414 489.812C327.083 490.056 327.408 494.213 330.407 495.094C333.867 496.102 334.45 495.094 343.313 496.055C345.723 496.319 349.007 498.053 348.777 497.992C347.314 497.619 346.427 499.082 346.17 501.174C345.757 504.526 347.335 507.803 350.063 509.793C356.286 514.33 370.417 528.63 362.813 561.415L357.173 617.153H242.589L264.371 547.927C239.697 523.85 245.514 494.945 245.514 494.945C245.514 494.945 226.481 460.251 236.034 454.103Z" fill="#352C29"/>
<path d="M331.664 550.676C329.247 530.112 309.666 523.294 309.023 523.077C300.837 520.41 294.749 516.306 293.267 511.093C290.761 502.297 296.266 495.215 304.33 490.949C312.956 486.393 324.968 485.546 326.728 481.7C329.356 475.952 322.266 471.273 320.249 465.613C319.551 463.649 320.838 463.094 321.589 463.649C323.715 466.188 325.645 468.768 327.013 470.657C328.265 472.39 330.54 473.047 332.524 472.255C345.254 467.19 347.312 463.988 351.882 472.614C353.805 476.236 353.223 482.174 350.501 484.869C347.38 487.963 333.208 489.609 330.419 489.812C327.087 490.056 327.412 494.213 330.412 495.093C333.872 496.102 334.454 495.093 343.317 496.055C345.728 496.319 349.012 498.052 348.781 497.991C347.319 497.619 346.432 499.081 346.174 501.173C345.761 504.525 347.339 507.802 350.068 509.793C356.29 514.329 370.421 528.63 362.817 561.414L357.177 617.152H324.921C328.469 596.372 333.262 564.272 331.664 550.676Z" fill="#FAF4E5"/>
<path d="M292.731 456.925C292.731 456.925 276.684 441.088 270.035 441.393C263.386 441.698 265.803 468.517 265.803 468.517L292.731 456.925Z" fill="#352C29"/>
<path d="M257.767 552.043C265.588 537.431 280.876 540.938 305.719 544.893C320.838 547.296 335.944 540.728 344.611 528.107C357.388 509.508 367.361 501.89 373.726 496.623C386.455 486.087 397.194 483.819 404.886 488.403C412.577 492.993 412.645 508.242 406.253 509.582C399.868 510.923 391.303 513.861 389.367 524.451C388.046 531.703 381.499 548.61 377.836 557.75C376.306 561.562 373.455 572.024 361.829 583.561C350.366 594.936 335.165 599.493 325.537 602.046L323.709 613.313L242.58 614.558C242.594 614.565 244.672 576.513 257.767 552.043Z" fill="#352C29"/>
<path d="M350.405 476.514C348.09 472.669 345.435 475.005 341.942 473.644C340.77 473.19 339.816 472.032 339.362 470.664C339.145 470.014 339.47 469.303 340.1 469.033C346.39 466.331 348.421 466.087 351.875 472.614C352.342 473.495 352.66 474.51 352.829 475.587C353.06 477.009 351.17 477.774 350.419 476.548C350.419 476.535 350.412 476.528 350.405 476.514Z" fill="#222120"/>
<path d="M315.145 465.579C313.12 465.688 311.136 465.945 309.173 466.446C308.056 466.73 307.27 467.8 307.507 468.965C307.731 470.055 308.902 470.915 310.026 470.63C311.624 470.224 313.262 469.933 314.908 469.845C316.059 469.784 317.095 469.066 317.162 467.827C317.223 466.771 316.303 465.518 315.145 465.579Z" fill="white"/>
<path d="M349.796 489.772C355.632 489.59 364.082 492.311 364.8 495.257C365.89 499.692 361.766 500.464 357.975 499.915C354.833 499.462 350.236 498.371 349.017 498.067C342.49 496.408 343.465 496.137 331.656 495.562C331.656 495.555 334.31 490.26 349.796 489.772Z" fill="#FFBBC8"/>
<path d="M399.476 498.899C399.103 498.899 398.738 498.716 398.514 498.391C398.149 497.863 398.284 497.132 398.812 496.766C401.636 494.823 409.104 494.329 409.944 494.274C410.607 494.281 411.142 494.735 411.183 495.371C411.223 496.015 410.729 496.57 410.086 496.61C407.98 496.732 402.083 497.355 400.139 498.689C399.936 498.831 399.699 498.899 399.476 498.899Z" fill="#F6F6FF"/>
<path d="M395.013 489.583C394.492 489.583 394.011 489.231 393.883 488.703C393.727 488.08 394.106 487.444 394.729 487.288C395.271 487.153 400.058 485.954 402.116 485.954C402.759 485.954 403.287 486.475 403.287 487.125C403.287 487.769 402.766 488.297 402.116 488.297C400.613 488.297 396.686 489.204 395.298 489.556C395.203 489.57 395.108 489.583 395.013 489.583Z" fill="#F6F6FF"/>
<path d="M370.489 483.162C370.117 483.162 369.751 482.979 369.528 482.654C369.162 482.126 369.297 481.395 369.832 481.029C372.656 479.086 380.124 478.598 380.964 478.544C381.654 478.571 382.162 479.004 382.203 479.641C382.237 480.284 381.749 480.839 381.099 480.88C378.993 481.002 373.096 481.618 371.153 482.952C370.95 483.094 370.713 483.162 370.489 483.162Z" fill="#F6F6FF"/>
<path d="M366.029 473.841C365.508 473.841 365.027 473.489 364.898 472.961C364.743 472.338 365.122 471.702 365.745 471.546C366.286 471.41 371.073 470.212 373.138 470.212C373.782 470.212 374.31 470.733 374.31 471.383C374.31 472.027 373.788 472.555 373.138 472.555C371.635 472.555 367.708 473.462 366.313 473.814C366.219 473.834 366.124 473.841 366.029 473.841Z" fill="#F6F6FF"/>
<path d="M269.291 465.302C268.905 465.302 268.519 465.105 268.302 464.753C267.957 464.205 268.126 463.487 268.675 463.148C278.459 457.041 301.25 453.926 302.218 453.805C302.888 453.744 303.443 454.177 303.531 454.807C303.619 455.45 303.166 456.032 302.529 456.12C302.299 456.154 279.278 459.289 269.921 465.125C269.724 465.241 269.508 465.302 269.291 465.302Z" fill="#F6F6FF"/>
<path d="M269.903 474.524C269.605 474.524 269.308 474.416 269.084 474.185C268.962 474.07 256.883 462.282 242.454 460.562C241.818 460.488 241.357 459.906 241.432 459.269C241.506 458.633 242.021 458.186 242.725 458.247C257.966 460.061 270.208 472.019 270.716 472.527C271.176 472.98 271.183 473.725 270.729 474.179C270.506 474.409 270.208 474.524 269.903 474.524Z" fill="#F6F6FF"/>
<path d="M260.604 476.519C260.604 476.519 256.129 473.384 253.603 471.644C253.075 471.272 252.94 470.547 253.305 470.012C253.671 469.484 254.395 469.356 254.937 469.714C257.463 471.461 261.952 474.603 261.952 474.603L260.604 476.519Z" fill="#F6F6FF"/>
<path d="M276.1 462.154C275.654 462.154 275.234 461.903 275.037 461.463C273.04 457.055 272.404 447.149 272.383 446.729C272.343 446.086 272.83 445.531 273.473 445.49C274.164 445.484 274.672 445.964 274.712 446.58C274.726 446.682 275.356 456.48 277.163 460.501C277.434 461.09 277.17 461.781 276.581 462.045C276.425 462.12 276.263 462.154 276.1 462.154Z" fill="#F6F6FF"/>
<path d="M310.084 546.606C304.992 546.606 299.108 545.929 292.426 544.128C291.803 543.965 291.43 543.322 291.599 542.699C291.762 542.076 292.412 541.67 293.028 541.873C318.954 548.827 332.536 538.21 332.672 538.109C333.159 537.709 333.911 537.77 334.31 538.291C334.717 538.792 334.635 539.53 334.128 539.93C333.694 540.289 325.603 546.606 310.084 546.606Z" fill="#F6F6FF"/>
<path d="M316.905 603.227C316.268 603.227 315.638 603.214 314.995 603.2C314.352 603.187 313.844 602.645 313.858 602.002C313.871 601.358 314.393 600.763 315.056 600.864C358.038 601.941 375.182 563.083 375.351 562.69C375.602 562.094 376.285 561.823 376.881 562.074C377.477 562.324 377.755 563.008 377.497 563.604C377.328 564.003 360.184 603.227 316.905 603.227Z" fill="#F6F6FF"/>
<path d="M399.877 429.774C419.039 427.33 450.442 425.61 454.227 425.867C459.197 426.199 464.106 426.863 468.94 427.899C468.852 428.041 449.562 475.444 413.175 469.79C387.161 465.748 382.002 443.919 381.176 431.792C388.238 431.101 394.988 430.397 399.877 429.774Z" fill="white"/>
<path d="M399.874 429.774C419.036 427.33 450.439 425.61 454.224 425.867C455.578 425.955 456.926 426.077 458.266 426.213L455.111 431.054C455.111 431.054 441.204 463.527 414.973 459.654C393.726 456.519 391.776 437.73 391.803 430.708C394.803 430.383 397.545 430.072 399.874 429.774Z" fill="#FF9D76"/>
<path d="M454.22 425.868C445.743 399.272 426.08 338.367 426.08 338.367L416.079 341.252L415.328 346.878C406.417 350.094 373.145 354.556 373.145 354.556L371.75 361.937C371.75 361.937 378.061 416.917 386.07 421.521C392.11 424.994 399.504 424.358 403.743 423.701L407.284 446.654L454.22 425.868Z" fill="#FF9D76"/>
<path d="M434.72 333.574C421.673 324.041 389.443 322.843 375.759 338.368C368.663 346.412 365.772 361.234 371.947 364.443C372.272 364.612 371.67 358.606 376.274 356.203C383.708 352.316 398.909 351.125 410.155 350.238C410.155 350.238 408.138 359.771 415.247 366.975C420.508 372.304 423.867 368.627 423.867 368.627L431.159 382.596C431.159 382.596 430.157 395.874 446.576 402.015C446.576 402.015 445.08 396.849 448.364 378.96C450.632 366.616 451.126 345.559 434.72 333.574Z" fill="#75434B"/>
<path d="M422.592 371.464C422.741 370.983 422.944 366.149 427.433 365.14C431.929 364.138 434.955 366.596 436.039 373.38C437.129 380.165 429.532 384.965 426.749 382.866C423.966 380.774 422.592 371.464 422.592 371.464Z" fill="#FF9D76"/>
<path d="M423.373 376.576C422.737 376.576 422.222 376.069 422.202 375.432C422.195 375.249 422.148 371.045 425.608 368.797C427.233 367.74 428.716 367.47 430.022 367.991C432.047 368.797 432.67 371.146 432.738 371.41C432.887 372.04 432.501 372.67 431.878 372.825C431.214 372.968 430.618 372.595 430.469 371.966C430.361 371.566 429.928 370.456 429.156 370.158C428.458 369.894 427.531 370.327 426.888 370.754C424.504 372.304 424.545 375.344 424.545 375.378C424.558 376.021 424.051 376.556 423.401 376.576C423.394 376.576 423.387 376.576 423.373 376.576Z" fill="#EF685E"/>
<path d="M426.547 414.032C427.766 412.447 425.918 410.335 424.191 411.337C415.314 416.469 402.172 424.053 401.766 424.147C401.603 424.188 406.296 440.316 406.296 440.316L426.547 414.032Z" fill="#EF685E"/>
<path d="M408.233 355.7C408.064 355.7 407.895 355.666 407.732 355.585C407.15 355.307 406.9 354.61 407.184 354.027L413.034 341.779C413.312 341.183 414.009 340.946 414.591 341.23C415.174 341.508 415.424 342.205 415.14 342.788L409.29 355.036C409.087 355.456 408.667 355.7 408.233 355.7Z" fill="#FF9D76"/>
<path d="M398.471 380.809C399.419 380.578 400.001 379.624 399.778 378.676L399.114 375.927C398.884 374.979 397.929 374.397 396.981 374.62C396.034 374.85 395.451 375.805 395.675 376.753L396.338 379.502C396.562 380.45 397.523 381.032 398.471 380.809Z" fill="#49263E"/>
<path d="M316.094 479.095C317.042 478.865 317.624 477.91 317.401 476.962L316.737 474.213C316.507 473.265 315.552 472.683 314.604 472.906C313.657 473.136 313.074 474.091 313.298 475.039L313.961 477.788C314.185 478.736 315.146 479.318 316.094 479.095Z" fill="#E8E8E8"/>
<path d="M378.83 385.527C379.778 385.297 380.361 384.342 380.137 383.395L379.474 380.646C379.243 379.698 378.289 379.115 377.341 379.339C376.393 379.569 375.811 380.524 376.034 381.472L376.698 384.221C376.928 385.162 377.883 385.751 378.83 385.527Z" fill="#49263E"/>
<path d="M384.665 395.468C382.79 395.468 381.097 394.669 379.723 393.119C378.023 391.196 377.231 388.562 377.556 387.303C377.739 386.605 378.037 385.908 378.375 385.15C379.431 382.78 380.745 379.834 379.066 372.854C378.917 372.224 379.303 371.594 379.926 371.438C380.569 371.283 381.185 371.675 381.341 372.298C383.203 380.051 381.646 383.545 380.508 386.091C380.224 386.727 379.966 387.296 379.817 387.878C379.756 388.264 380.203 390.262 381.659 391.758C382.688 392.821 383.914 393.275 385.254 393.085C385.932 393.011 386.48 393.457 386.568 394.087C386.649 394.724 386.202 395.313 385.566 395.401C385.261 395.448 384.963 395.468 384.665 395.468Z" fill="#EF685E"/>
<path d="M387.925 371.646C387.736 371.646 387.533 371.598 387.343 371.497C386.774 371.192 386.592 370.427 386.889 369.851C387.431 368.836 393.681 363.988 402.131 366.513C402.747 366.703 403.099 367.353 402.916 367.976C402.727 368.592 402.07 368.93 401.454 368.761C394.608 366.696 389.429 370.44 388.88 371.07C388.677 371.449 388.311 371.646 387.925 371.646Z" fill="#75434B"/>
<path d="M373.297 374.862C373.148 374.862 372.992 374.835 372.85 374.774C372.254 374.523 371.969 373.839 372.22 373.244C372.261 373.156 373.148 371.077 375.253 370.346C376.669 369.845 378.233 370.082 379.912 371.016C380.481 371.334 380.67 372.045 380.359 372.607C380.034 373.176 379.323 373.365 378.767 373.054C377.704 372.451 376.777 372.269 376.025 372.553C374.928 372.925 374.387 374.131 374.38 374.137C374.19 374.591 373.75 374.862 373.297 374.862Z" fill="#75434B"/>
<path d="M383.205 403.395C382.947 403.172 382.71 402.928 382.5 402.664C382.121 402.183 381.972 401.554 382.108 400.951C382.243 400.348 382.643 399.841 383.191 399.57L395.25 393.571C395.92 393.239 396.719 393.3 397.329 393.726C397.945 394.153 398.27 394.884 398.189 395.629C397.654 400.409 395.155 403.774 391.336 404.865C388.432 405.697 385.141 405.061 383.205 403.395Z" fill="white"/>
<path d="M333.397 451.613C333.12 451.613 332.836 451.511 332.612 451.315C332.131 450.881 332.091 450.143 332.531 449.663L346.641 434.049C347.081 433.568 347.813 433.534 348.293 433.968C348.774 434.401 348.815 435.139 348.375 435.62L334.264 451.227C334.034 451.477 333.716 451.613 333.397 451.613Z" fill="#F6F6FF"/>
<path d="M293.083 324.731C293.083 324.731 292.697 321.027 303.151 306.144C313.606 291.262 301.743 289.386 300.497 282.643C300.172 280.862 296.252 281.519 293.097 278.289C290.903 276.041 290.077 270.509 286.373 269.108C275.878 265.126 270.123 266.426 267.645 271.2C267.645 271.2 258.179 270.685 257.461 278.499C257.461 278.499 245.91 279.765 245.998 287.084C245.998 287.084 236.194 288.303 240.873 300.2L241.942 337.981L293.083 324.731Z" fill="#FF9D76"/>
<path d="M286.336 284.6C285.74 284.6 285.226 284.139 285.171 283.53C285.165 283.489 284.792 279.582 282.395 278.662C279.274 277.463 267.682 272.487 267.188 272.277C266.592 272.019 266.321 271.335 266.572 270.74C266.829 270.144 267.513 269.873 268.109 270.123C268.231 270.178 280.154 275.29 283.235 276.475C287.006 277.917 287.487 283.103 287.501 283.32C287.555 283.963 287.074 284.525 286.438 284.586C286.404 284.593 286.37 284.6 286.336 284.6Z" fill="#EF685E"/>
<path d="M279.904 305.055C279.478 305.055 279.071 304.825 278.861 304.412C278.8 304.283 272.497 291.838 270.046 288.507C268.421 286.293 262.036 282.643 258.968 280.883C256.199 279.298 255.779 279.055 256.213 278.025C256.443 277.484 257.222 277.213 257.784 277.382C258.075 277.463 258.305 277.653 258.454 277.89C258.826 278.113 259.409 278.445 260.126 278.851C264.907 281.594 270.154 284.715 271.928 287.119C274.487 290.606 280.683 302.834 280.94 303.355C281.231 303.931 281.001 304.635 280.426 304.926C280.263 305.014 280.08 305.055 279.904 305.055Z" fill="#EF685E"/>
<path d="M267.576 313.795C267.576 313.795 260.913 301.925 258.015 296.861C255.341 292.196 245.658 288.214 245.563 288.174C244.968 287.93 244.676 287.246 244.92 286.65C245.164 286.048 245.855 285.763 246.444 286.007C246.87 286.183 256.972 290.347 260.046 295.696C262.951 300.768 269.621 312.651 269.621 312.651L267.576 313.795Z" fill="#EF685E"/>
<path d="M216.314 302.853C222.76 297.558 232.226 298.906 236.979 305.589C238.042 307.085 240.1 307.437 241.57 306.388L247.095 302.521L251.916 314.425L262.234 318.521L256.29 322.753C254.021 324.364 253.365 327.418 254.712 329.856C258.05 336.051 256.432 343.736 250.988 347.961C244.549 352.965 235.313 351.556 230.635 344.982C227.967 341.231 227.371 336.633 228.624 332.55C229.301 330.343 227.622 328.109 225.306 328.095C220.526 328.068 215.833 325.644 213.139 321.141C209.74 315.454 211.202 307.051 216.314 302.853Z" fill="#F75454"/>
<path d="M236.764 323.059C236.385 323.059 236.006 322.876 235.782 322.531C235.43 321.989 235.579 321.265 236.121 320.913L250.658 311.427C251.2 311.082 251.924 311.224 252.276 311.765C252.628 312.307 252.479 313.032 251.938 313.384L237.401 322.87C237.204 322.992 236.988 323.059 236.764 323.059Z" fill="#F6F6FF"/>
<path d="M259.082 318.759C258.026 318.759 256.99 318.556 255.988 318.149C250.713 316.01 247.687 308.839 246.082 303.206L246.001 302.915C245.804 302.312 246.109 301.649 246.712 301.432C247.287 301.229 247.958 301.493 248.188 302.089C248.215 302.143 248.262 302.306 248.337 302.563C250.409 309.828 253.442 314.595 256.875 315.983C258.825 316.768 260.897 316.504 263.212 315.164C272.468 309.828 285.888 299.604 289.416 296.896C287.479 293.984 282.286 285.121 286.809 279.907C288.123 278.397 289.754 277.578 291.664 277.477C296.376 277.274 301.109 281.614 301.312 281.796C301.786 282.237 301.807 282.975 301.366 283.449C300.926 283.916 300.195 283.943 299.714 283.503C299.674 283.469 295.557 279.643 291.779 279.813C290.506 279.88 289.463 280.415 288.576 281.444C285.143 285.399 289.842 293.618 291.948 296.449C292.327 296.963 292.226 297.674 291.731 298.067C291.569 298.196 275.21 310.952 264.384 317.195C262.549 318.231 260.782 318.759 259.082 318.759Z" fill="#EF685E"/>
<path d="M200.548 497.754C200.04 497.754 199.566 497.416 199.424 496.901C199.248 496.285 199.606 495.635 200.236 495.459L216.595 490.828C217.197 490.672 217.861 491.01 218.037 491.64C218.213 492.256 217.854 492.906 217.224 493.082L200.866 497.714C200.757 497.741 200.656 497.754 200.548 497.754Z" fill="#FFD333"/>
<path d="M211.291 462.153C211.183 462.153 211.081 462.14 210.973 462.113L185.629 454.949C185.013 454.766 184.647 454.123 184.817 453.507C185 452.891 185.656 452.552 186.259 452.694L211.602 459.858C212.219 460.041 212.584 460.684 212.415 461.3C212.273 461.815 211.799 462.153 211.291 462.153Z" fill="#FFD333"/>
<path d="M233.354 435.991C232.88 435.991 232.44 435.7 232.257 435.233L227.504 422.619C227.274 422.016 227.585 421.339 228.188 421.109C228.804 420.906 229.461 421.19 229.697 421.793L234.451 434.407C234.681 435.01 234.369 435.687 233.767 435.917C233.625 435.971 233.489 435.991 233.354 435.991Z" fill="#FFD333"/>
<path d="M475.797 506.19C475.797 514.004 469.466 520.335 461.652 520.335C453.839 520.335 447.508 514.004 447.508 506.19C447.508 498.377 453.839 492.046 461.652 492.046C469.466 492.053 475.797 498.383 475.797 506.19Z" fill="white"/>
<path fill-rule="evenodd" clip-rule="evenodd" d="M461.531 516.867C467.514 516.867 472.364 512.017 472.364 506.034C472.364 500.05 467.514 495.2 461.531 495.2C455.548 495.2 450.697 500.05 450.697 506.034C450.697 509.577 452.399 512.724 455.03 514.7V506.357C455.03 505.438 455.193 504.551 455.521 503.695C455.849 502.839 456.304 502.11 456.887 501.506C457.47 500.894 458.157 500.412 458.949 500.06C459.751 499.709 460.616 499.533 461.545 499.533C462.473 499.533 463.347 499.709 464.167 500.06C464.986 500.412 465.701 500.894 466.311 501.506C466.921 502.11 467.404 502.839 467.759 503.695C468.114 504.551 468.292 505.438 468.292 506.357C468.292 507.275 468.114 508.145 467.759 508.964C467.404 509.775 466.921 510.482 466.311 511.085C465.701 511.689 464.986 512.166 464.167 512.518C463.347 512.869 462.473 513.045 461.545 513.045C460.862 513.045 460.238 512.932 459.673 512.707C459.118 512.473 458.608 512.166 458.144 511.788L458.089 515.841C458.086 515.999 458.066 516.149 458.03 516.289C459.128 516.664 460.306 516.867 461.531 516.867ZM463.074 509.667C462.628 509.856 462.155 509.951 461.654 509.951C461.153 509.951 460.684 509.86 460.247 509.68C459.81 509.491 459.428 509.234 459.1 508.91C458.772 508.586 458.512 508.208 458.321 507.775C458.139 507.343 458.048 506.879 458.048 506.384C458.048 505.888 458.139 505.402 458.321 504.924C458.512 504.447 458.772 504.046 459.1 503.722C459.428 503.398 459.81 503.141 460.247 502.952C460.684 502.763 461.153 502.668 461.654 502.668C462.155 502.668 462.628 502.758 463.074 502.938C463.52 503.109 463.912 503.353 464.249 503.668C464.586 503.974 464.854 504.366 465.055 504.843C465.255 505.312 465.355 505.794 465.355 506.289C465.355 506.793 465.255 507.271 465.055 507.721C464.854 508.163 464.586 508.55 464.249 508.883C463.912 509.207 463.52 509.469 463.074 509.667Z" fill="#B6AEFF"/>
<path d="M456.228 516.571C456.228 516.571 433.695 519.456 430.248 522.394C426.802 525.333 426.836 535.807 426.836 535.807L452.295 533.796L456.228 516.571Z" fill="#555555"/>
<path fill-rule="evenodd" clip-rule="evenodd" d="M421.177 513.531C421.502 510.43 427.461 509.522 438.869 510.917C446.636 511.865 460.205 513.93 463.881 516.923C468.127 520.376 486.753 538.847 488.92 549.003L502.164 557.873L484.126 600.909C483.53 599.975 472.819 589.588 463.597 579.852C453.373 573.914 455.641 564.766 455.641 564.766C455.641 564.766 440.467 568.158 433.541 565.985C426.614 563.811 433.209 559.038 433.209 559.038C433.209 559.038 431.076 558.923 428.706 554.732C426.337 550.541 430.995 545.117 430.995 545.117C430.995 545.117 422.348 543.966 423.066 539.091C423.784 534.216 450.38 526.971 450.38 526.971C431.53 519.191 420.297 521.852 421.177 513.531Z" fill="#FF9D76"/>
<path d="M446.748 527.593C446.219 527.593 445.746 527.235 445.61 526.7C445.461 526.07 445.847 525.44 446.47 525.285L456.288 522.928C456.931 522.786 457.547 523.165 457.703 523.788C457.852 524.418 457.466 525.048 456.843 525.203L447.025 527.56C446.924 527.587 446.836 527.593 446.748 527.593Z" fill="#EF685E"/>
<path d="M428.209 547.162C427.715 547.162 427.254 546.844 427.092 546.35C426.902 545.734 427.241 545.077 427.85 544.881L454.487 536.431C455.11 536.241 455.76 536.579 455.956 537.196C456.146 537.812 455.807 538.469 455.198 538.665L428.561 547.115C428.446 547.149 428.324 547.162 428.209 547.162Z" fill="#EF685E"/>
<path d="M431.535 560.78C431.047 560.78 430.6 560.476 430.431 559.995C430.221 559.379 430.546 558.722 431.155 558.505L455.131 550.265C455.747 550.055 456.404 550.38 456.621 550.989C456.831 551.606 456.506 552.262 455.896 552.479L431.921 560.719C431.785 560.76 431.663 560.78 431.535 560.78Z" fill="#EF685E"/>
<path d="M453.384 566.386C452.863 566.386 452.382 566.034 452.253 565.499C452.098 564.869 452.483 564.24 453.106 564.084L462.003 561.89C462.647 561.707 463.27 562.12 463.419 562.743C463.574 563.373 463.188 564.003 462.565 564.159L453.668 566.352C453.574 566.379 453.479 566.386 453.384 566.386Z" fill="#EF685E"/>
<path d="M517.958 556.072L489.581 622.779L479.445 614.884L505.886 549.741L517.958 556.072Z" fill="white"/>
<path d="M489.602 622.792C538.643 667.446 572.511 660.059 589.696 639.672C597.679 630.199 598.295 614.213 594.571 595.214C592.838 609.941 585.904 634.126 559.24 637.349C521.168 641.953 490.577 623.388 489.602 622.792Z" fill="#4D80AA"/>
<path d="M489.601 623.964C489.35 623.964 489.1 623.883 488.883 623.714L478.72 615.799C478.341 615.508 478.185 615.013 478.314 614.56C484.293 593.373 504.619 549.681 504.829 549.241C504.964 548.949 505.208 548.726 505.513 548.624C505.811 548.523 506.149 548.55 506.434 548.692L562.51 578.125C563.079 578.43 563.296 579.134 563.004 579.71C562.7 580.278 561.982 580.495 561.42 580.204L506.434 551.34C503.265 558.205 486.412 595.1 480.785 614.438L490.325 621.872C490.833 622.272 490.921 622.996 490.529 623.511C490.298 623.815 489.953 623.964 489.601 623.964Z" fill="#F6F6FF"/>
<circle cx="315.831" cy="476.336" r="5.16301" fill="#F6F6FF"/>
<circle cx="316.863" cy="475.303" r="4.1304" fill="#222120"/>
</g>
<defs>
<clipPath id="clip0_3253_9548">
<rect width="768" height="615" fill="white"/>
</clipPath>
</defs>
</svg>
