<svg width="557" height="135" viewBox="0 0 557 135" fill="none" xmlns="http://www.w3.org/2000/svg">
<path d="M0.466797 44.5424V43.3366V43.2562C0.466797 37.5758 1.4314 32.2169 3.36059 27.1796C5.34338 22.1422 8.07641 17.7479 11.5597 13.9967C15.043 10.1919 19.1693 7.19091 23.9387 4.99377C28.7617 2.79662 34.0402 1.69806 39.7742 1.69806C45.4546 1.69806 50.8135 2.79662 55.8509 4.99377C60.9418 7.19091 65.3629 10.1919 69.1141 13.9967C72.8653 17.7479 75.8395 22.169 78.0367 27.2599C80.2338 32.2973 81.3324 37.6562 81.3324 43.3366C81.3324 49.0706 80.2338 54.4563 78.0367 59.4936C75.8395 64.531 72.8653 68.9253 69.1141 72.6765C65.3629 76.4277 60.9418 79.4019 55.8509 81.599C50.8135 83.7426 45.4546 84.8144 39.7742 84.8144C36.1838 84.8144 32.7809 84.1981 29.5655 82.9656L29.1636 92.9331C29.1636 95.023 28.8153 96.979 28.1186 98.8011C27.4756 100.569 26.5378 102.124 25.3052 103.463C24.0727 104.803 22.599 105.875 20.8842 106.679C19.1693 107.429 17.2669 107.804 15.1769 107.804C13.1406 107.804 11.2114 107.429 9.38934 106.679C7.62091 105.875 6.06683 104.803 4.72711 103.463C3.38739 102.124 2.34241 100.569 1.59216 98.8011C0.841919 96.979 0.466797 95.023 0.466797 92.9331V44.5424ZM40.8996 55.6352C42.5608 55.6352 44.1417 55.2869 45.6422 54.5903C47.1963 53.8936 48.5628 52.9558 49.7417 51.7768C50.9207 50.5979 51.8585 49.2314 52.5552 47.6773C53.3054 46.0696 53.6805 44.3816 53.6805 42.6132C53.6805 40.8447 53.3054 39.2638 52.5552 37.8705C51.8585 36.4772 50.9207 35.2983 49.7417 34.3337C48.5628 33.3155 47.1963 32.5652 45.6422 32.0829C44.1417 31.5471 42.5608 31.2791 40.8996 31.2791C39.2383 31.2791 37.6575 31.6006 36.157 32.2437C34.7101 32.8868 33.4239 33.771 32.2986 34.8964C31.2268 36.0217 30.3694 37.3346 29.7263 38.8351C29.0832 40.282 28.7617 41.8361 28.7617 43.4974C28.7617 45.1586 29.0832 46.7395 29.7263 48.24C30.3694 49.6869 31.2268 50.973 32.2986 52.0984C33.4239 53.1702 34.7101 54.0276 36.157 54.6706C37.6575 55.3137 39.2383 55.6352 40.8996 55.6352Z" fill="#F6F6FF"/>
<path d="M104.929 77.2583C105.357 77.9014 105.92 78.4641 106.617 78.9464C107.367 79.4287 108.171 79.8306 109.028 80.1521C109.939 80.4737 110.877 80.7148 111.842 80.8756C112.806 81.0364 113.771 81.1167 114.735 81.1167C116.129 81.1167 117.468 80.9024 118.755 80.4737C121.327 79.6162 123.685 79.1875 125.828 79.1875C128.186 79.1875 130.223 79.6698 131.937 80.6344C133.652 81.5454 135.046 82.6976 136.117 84.0909C137.243 85.4306 138.047 86.9311 138.529 88.5924C139.065 90.2001 139.333 91.6737 139.333 93.0135C139.333 95.6393 138.502 97.8901 136.841 99.7657C135.233 101.641 133.09 103.195 130.41 104.428C127.784 105.607 124.783 106.464 121.407 107C118.085 107.59 114.735 107.884 111.359 107.884C106.268 107.884 101.392 106.866 96.7296 104.83C92.121 102.74 88.0482 99.9264 84.5114 96.3896C81.0281 92.8527 78.2415 88.7264 76.1515 84.0105C74.0615 79.2411 73.0165 74.1502 73.0165 68.7377C73.0165 63.2716 74.0615 58.1539 76.1515 53.3845C78.2415 48.5615 81.0817 44.3816 84.6721 40.8447C88.3162 37.3079 92.5497 34.5212 97.3727 32.4849C102.196 30.4485 107.313 29.4303 112.726 29.4303C118.031 29.4303 123.042 30.4485 127.758 32.4849C132.527 34.4676 136.707 37.2007 140.297 40.684C143.888 44.1136 146.755 48.1864 148.898 52.9022C151.042 57.618 152.167 62.6554 152.274 68.0143C152.274 69.997 151.926 71.6047 151.229 72.8373C150.533 74.0162 149.541 74.954 148.255 75.6507C147.023 76.2937 145.549 76.7225 143.834 76.9368C142.119 77.1512 140.244 77.2583 138.207 77.2583H104.929ZM123.015 61.9051C122.586 61.2085 122.158 60.5118 121.729 59.8152C121.354 59.0649 120.818 58.3951 120.121 57.8056C119.424 57.2161 118.54 56.7338 117.468 56.3587C116.397 55.9836 115.003 55.796 113.289 55.796C111.574 55.796 110.18 56.0104 109.109 56.4391C108.037 56.8142 107.179 57.3233 106.536 57.9664C105.893 58.5558 105.384 59.2257 105.009 59.9759C104.634 60.6726 104.312 61.3157 104.044 61.9051H123.015Z" fill="#F6F6FF"/>
<path d="M147.737 20.0254C147.737 18.0427 148.112 16.167 148.862 14.3986C149.666 12.6302 150.711 11.1029 151.997 9.81676C153.337 8.53063 154.864 7.51244 156.579 6.7622C158.347 6.01196 160.196 5.63683 162.125 5.63683C164.054 5.63683 165.903 6.01196 167.672 6.7622C169.494 7.51244 171.075 8.53063 172.414 9.81676C173.808 11.1029 174.906 12.6302 175.71 14.3986C176.567 16.1135 176.996 17.9891 176.996 20.0254V24.9288H194.52C196.449 24.9288 198.271 25.3039 199.986 26.0542C201.754 26.8044 203.281 27.8494 204.568 29.1891C205.907 30.4753 206.952 32.0026 207.703 33.771C208.453 35.4858 208.828 37.3079 208.828 39.2371C208.828 41.1663 208.426 42.9615 207.622 44.6227C206.872 46.284 205.854 47.7309 204.568 48.9634C203.281 50.196 201.754 51.1874 199.986 51.9376C198.271 52.6343 196.449 52.9826 194.52 52.9826H176.996V68.4162C176.996 69.9167 177.237 71.3368 177.72 72.6765C178.202 74.0162 178.872 75.1952 179.729 76.2134C180.64 77.178 181.685 77.955 182.864 78.5445C184.097 79.1339 185.41 79.4287 186.803 79.4287C188.035 79.4287 189.188 79.2947 190.259 79.0268C191.385 78.7052 192.269 78.2497 192.912 77.6603C193.823 76.7492 194.761 75.9454 195.725 75.2488C196.744 74.5521 197.842 73.9894 199.021 73.5607C201.218 72.8105 203.469 72.6229 205.773 72.998C208.131 73.3196 210.328 74.4449 212.365 76.3741C213.919 77.7674 215.017 79.4287 215.661 81.3579C216.357 83.2871 216.652 85.2699 216.545 87.3063C216.438 89.289 215.928 91.2718 215.017 93.2546C214.16 95.1838 212.981 96.8719 211.481 98.3188C208.212 101.534 204.46 103.946 200.227 105.553C196.047 107.161 191.572 107.965 186.803 107.965C181.39 107.965 176.299 106.92 171.53 104.83C166.814 102.686 162.688 99.8193 159.151 96.2288C155.614 92.5848 152.828 88.378 150.791 83.6086C148.755 78.7856 147.737 73.6679 147.737 68.2554V20.0254Z" fill="#F6F6FF"/>
<path d="M212.891 68.7377V67.532C213.052 62.2803 214.204 57.3501 216.348 52.7414C218.491 48.1328 221.331 44.1136 224.868 40.684C228.459 37.2007 232.585 34.4676 237.247 32.4849C241.963 30.4485 246.947 29.4303 252.199 29.4303C257.557 29.4303 262.622 30.4753 267.391 32.5652C272.16 34.6016 276.314 37.415 279.85 41.0055C283.387 44.5959 286.174 48.7759 288.21 53.5453C290.3 58.3147 291.345 63.3788 291.345 68.7377C291.345 74.0966 290.3 79.1607 288.21 83.9302C286.174 88.646 283.387 92.7723 279.85 96.3092C276.314 99.846 272.16 102.659 267.391 104.749C262.622 106.786 257.557 107.804 252.199 107.804C248.394 107.804 244.803 107.322 241.427 106.357V119.861C241.427 121.951 241.079 123.907 240.382 125.729C239.739 127.551 238.801 129.106 237.569 130.392C236.39 131.731 234.943 132.776 233.228 133.527C231.513 134.33 229.611 134.732 227.521 134.732C225.538 134.732 223.662 134.33 221.894 133.527C220.126 132.776 218.572 131.731 217.232 130.392C215.892 129.106 214.82 127.551 214.016 125.729C213.266 123.907 212.891 121.951 212.891 119.861V68.7377ZM241.508 68.7377C241.508 70.2382 241.802 71.6315 242.392 72.9176C242.981 74.1502 243.758 75.2488 244.723 76.2134C245.741 77.1244 246.893 77.8478 248.179 78.3837C249.465 78.9196 250.805 79.1875 252.199 79.1875C253.592 79.1875 254.932 78.9196 256.218 78.3837C257.504 77.8478 258.629 77.1244 259.594 76.2134C260.558 75.2488 261.335 74.1502 261.925 72.9176C262.514 71.6315 262.809 70.2382 262.809 68.7377C262.809 67.2372 262.514 65.8707 261.925 64.6382C261.389 63.352 260.639 62.2535 259.674 61.3425C258.71 60.3779 257.584 59.6276 256.298 59.0917C255.012 58.5558 253.645 58.2879 252.199 58.2879C250.805 58.2879 249.465 58.5558 248.179 59.0917C246.893 59.6276 245.741 60.3779 244.723 61.3425C243.758 62.2535 242.981 63.352 242.392 64.6382C241.802 65.8707 241.508 67.2372 241.508 68.7377Z" fill="#F6F6FF"/>
<path d="M325.07 107.804C319.711 107.804 314.647 106.786 309.877 104.749C305.108 102.659 300.901 99.846 297.257 96.3092C293.667 92.7723 290.8 88.646 288.656 83.9302C286.566 79.1607 285.521 74.0966 285.521 68.7377C285.521 63.3788 286.566 58.3147 288.656 53.5453C290.8 48.7759 293.667 44.5959 297.257 41.0055C300.901 37.415 305.108 34.6016 309.877 32.5652C314.647 30.4753 319.711 29.4303 325.07 29.4303C330.482 29.4303 335.573 30.4753 340.343 32.5652C345.166 34.6016 349.372 37.415 352.963 41.0055C356.553 44.5959 359.393 48.7759 361.483 53.5453C363.573 58.3147 364.618 63.3788 364.618 68.7377C364.618 72.7569 364.029 76.6153 362.85 80.3129C361.671 83.9569 360.01 87.333 357.866 90.4412C355.723 93.5494 353.177 96.336 350.23 98.8011C347.336 101.213 344.121 103.169 340.584 104.669C339.137 103.329 338.012 101.722 337.208 99.846C336.457 97.9704 336.082 95.9073 336.082 93.6565L334.957 90.8431C334.957 89.5034 335.145 87.6546 335.52 85.2967C335.895 82.9388 336.404 80.3933 337.047 77.6603C337.744 74.9272 338.547 72.1674 339.458 69.3808C340.423 66.5406 341.468 63.9951 342.593 61.7444C343.772 59.4401 344.978 57.5644 346.211 56.1175C347.497 54.6706 348.836 53.9472 350.23 53.9472C352.266 53.9472 354.142 54.3491 355.857 55.1529C357.625 55.9032 359.152 56.9482 360.438 58.2879C361.725 59.574 362.743 61.1281 363.493 62.9501C364.243 64.7186 364.618 66.6477 364.618 68.7377V93.6565C364.618 95.6929 364.216 97.5953 363.413 99.3637C362.662 101.079 361.617 102.606 360.278 103.946C358.992 105.285 357.437 106.33 355.615 107.081C353.847 107.831 351.971 108.206 349.989 108.206C348.113 108.206 346.371 107.884 344.764 107.241C343.156 106.652 341.763 105.794 340.584 104.669C338.172 105.687 335.654 106.464 333.028 107C330.456 107.536 327.803 107.804 325.07 107.804ZM325.07 79.1875C326.517 79.1875 327.883 78.9196 329.169 78.3837C330.509 77.8478 331.688 77.1244 332.706 76.2134C333.724 75.2488 334.528 74.1502 335.118 72.9176C335.761 71.6315 336.082 70.2382 336.082 68.7377C336.082 67.2372 335.761 65.8707 335.118 64.6382C334.528 63.352 333.724 62.2535 332.706 61.3425C331.742 60.3779 330.589 59.6276 329.25 59.0917C327.91 58.5558 326.517 58.2879 325.07 58.2879C323.677 58.2879 322.31 58.5558 320.97 59.0917C319.684 59.6276 318.532 60.3779 317.514 61.3425C316.496 62.2535 315.665 63.352 315.022 64.6382C314.432 65.8707 314.138 67.2372 314.138 68.7377C314.138 70.2382 314.432 71.6315 315.022 72.9176C315.665 74.1502 316.496 75.2488 317.514 76.2134C318.586 77.1244 319.765 77.8478 321.051 78.3837C322.337 78.9196 323.677 79.1875 325.07 79.1875Z" fill="#F6F6FF"/>
<path d="M444.001 45.9089C445.983 45.9089 447.832 46.284 449.547 47.0342C451.316 47.7845 452.843 48.7759 454.129 50.0084C455.415 51.241 456.433 52.7147 457.184 54.4295C457.934 56.1443 458.309 57.9664 458.309 59.8956V82.8048C458.309 84.8948 457.853 86.7704 456.942 88.4316C456.085 90.0929 454.986 91.647 453.647 93.0938C447.109 98.5063 440.571 102.365 434.033 104.669C427.549 106.92 420.85 108.018 413.937 107.965C409.329 107.911 404.827 107.241 400.433 105.955C396.092 104.669 391.966 102.874 388.054 100.569C384.196 98.2652 380.659 95.5053 377.443 92.29C374.228 89.0747 371.441 85.511 369.083 81.599C366.779 77.6335 364.984 73.3999 363.698 68.8985C362.412 64.397 361.769 59.6812 361.769 54.751C361.769 49.8744 362.385 45.1586 363.617 40.6036C364.85 36.0485 366.592 31.7882 368.842 27.8226C371.093 23.8035 373.799 20.1594 376.961 16.8905C380.176 13.6216 383.74 10.8082 387.652 8.45025C391.564 6.09234 395.771 4.27032 400.272 2.98419C404.774 1.64447 409.49 0.974609 414.42 0.974609C422.19 0.974609 429.183 2.31432 435.4 4.99377C441.67 7.61962 447.457 11.5584 452.762 16.8101C454.156 18.1498 455.201 19.6771 455.897 21.392C456.594 23.0532 456.942 24.7949 456.942 26.6169C456.942 28.3853 456.594 30.1537 455.897 31.9222C455.201 33.637 454.156 35.1643 452.762 36.504C451.369 37.8973 449.815 38.9423 448.1 39.639C446.385 40.3356 444.617 40.7107 442.795 40.7643C440.973 40.8179 439.178 40.5232 437.409 39.8801C435.694 39.2371 434.14 38.2457 432.747 36.9059C430.121 34.3873 427.308 32.592 424.307 31.5203C421.306 30.3949 418.117 29.8322 414.741 29.8322C411.419 29.8322 408.284 30.4753 405.336 31.7614C402.389 32.9939 399.817 34.7356 397.62 36.9863C395.422 39.1835 393.654 41.7825 392.314 44.7835C391.028 47.7845 390.385 51.0266 390.385 54.5099C390.385 57.8324 391.001 60.9941 392.234 63.9951C393.466 66.9961 395.154 69.6487 397.298 71.953C399.495 74.2038 402.067 75.999 405.015 77.3387C408.016 78.6784 411.285 79.3751 414.822 79.4287C416.161 79.4287 417.447 79.4019 418.68 79.3483C419.913 79.2947 421.118 79.1607 422.297 78.9464C423.53 78.732 424.736 78.4105 425.914 77.9818C427.093 77.4995 428.326 76.8832 429.612 76.133V74.2038H428.487C426.504 74.2038 424.655 73.8287 422.94 73.0784C421.225 72.3282 419.752 71.31 418.519 70.0238C417.287 68.7377 416.295 67.2372 415.545 65.5224C414.848 63.754 414.5 61.8783 414.5 59.8956C414.5 57.9664 414.848 56.1443 415.545 54.4295C416.295 52.6611 417.287 51.1338 418.519 49.8476C419.752 48.5615 421.225 47.5433 422.94 46.7931C424.655 45.9892 426.504 45.5873 428.487 45.5873L444.001 45.9089Z" fill="#F6F6FF"/>
<path d="M503.126 107.965C498.357 107.965 493.748 107.322 489.301 106.036C484.853 104.749 480.673 102.954 476.761 100.65C472.902 98.292 469.365 95.5053 466.15 92.29C462.935 89.0211 460.175 85.4306 457.871 81.5187C455.566 77.5531 453.771 73.3196 452.485 68.8181C451.199 64.263 450.556 59.5204 450.556 54.5903C450.556 49.928 451.145 45.373 452.324 40.9251C453.557 36.4772 455.272 32.2705 457.469 28.3049C459.719 24.3393 462.426 20.6953 465.587 17.3728C468.749 13.9967 472.286 11.1029 476.198 8.6914C480.164 6.2799 484.451 4.4043 489.059 3.06458C493.668 1.67126 498.545 0.974609 503.689 0.974609H503.85C508.994 0.974609 513.871 1.67126 518.48 3.06458C523.142 4.4043 527.429 6.2799 531.341 8.6914C535.253 11.1029 538.79 13.9967 541.952 17.3728C545.167 20.6953 547.873 24.3393 550.07 28.3049C552.267 32.2705 553.955 36.504 555.134 41.0055C556.367 45.4534 556.983 49.9816 556.983 54.5903C556.983 59.4668 556.34 64.1827 555.054 68.7377C553.768 73.2928 551.973 77.5531 549.668 81.5187C547.364 85.4842 544.577 89.1015 541.308 92.3704C538.093 95.5857 534.529 98.3456 530.617 100.65C526.706 102.954 522.526 104.749 518.078 106.036C513.63 107.322 509.021 107.965 504.252 107.965H503.207H503.126ZM528.286 54.4295C528.286 50.9462 527.643 47.7309 526.357 44.7835C525.071 41.8361 523.356 39.2906 521.213 37.1471C519.069 34.9499 516.55 33.2083 513.657 31.9222C510.816 30.636 507.842 29.9394 504.734 29.8322H503.77C500.554 29.8322 497.446 30.4485 494.445 31.681C491.498 32.9136 488.899 34.6284 486.648 36.8256C484.397 38.9691 482.602 41.5414 481.262 44.5424C479.922 47.5433 479.253 50.839 479.253 54.4295C479.253 57.752 479.842 60.9138 481.021 63.9147C482.254 66.9157 483.942 69.5415 486.085 71.7923C488.282 74.043 490.828 75.8382 493.722 77.178C496.669 78.5177 499.884 79.2143 503.368 79.2679H504.171C507.601 79.2143 510.79 78.5177 513.737 77.178C516.684 75.8382 519.23 74.043 521.373 71.7923C523.571 69.5415 525.259 66.9157 526.438 63.9147C527.67 60.9138 528.286 57.752 528.286 54.4295Z" fill="#F6F6FF"/>
<path d="M31.8076 52.1943C26.8151 47.2022 26.7315 39.1538 31.5609 34.0571C31.6404 33.9735 31.724 33.8899 31.8076 33.8063C36.8837 28.7305 45.1168 28.7305 50.1929 33.8105C55.269 38.8904 55.269 47.1144 50.1929 52.1943C50.1093 52.2779 50.0256 52.3615 49.942 52.441C44.8492 57.2658 36.8001 57.1864 31.8076 52.1943Z" fill="#66D5C0"/>
<path d="M244.368 77.6334C239.952 73.2173 239.878 66.0976 244.15 61.589C244.22 61.515 244.294 61.4411 244.368 61.3671C248.859 56.877 256.142 56.877 260.632 61.3708C265.123 65.8645 265.123 73.1396 260.632 77.6334C260.558 77.7074 260.484 77.7813 260.41 77.8516C255.905 82.1198 248.785 82.0495 244.368 77.6334Z" fill="#FFD333"/>
<path d="M317.368 76.6334C312.952 72.2173 312.878 65.0976 317.15 60.589C317.22 60.515 317.294 60.4411 317.368 60.3671C321.859 55.877 329.142 55.877 333.632 60.3708C338.123 64.8645 338.123 72.1396 333.632 76.6334C333.558 76.7074 333.484 76.7813 333.41 76.8516C328.905 81.1198 321.785 81.0495 317.368 76.6334Z" fill="#66D5C0"/>
</svg>
