<svg width="20" height="20" viewBox="0 0 20 20" fill="none" xmlns="http://www.w3.org/2000/svg">
<path fill-rule="evenodd" clip-rule="evenodd" d="M10 20C15.5229 20 20 15.5229 20 10C20 4.47705 15.5229 0 10 0C4.47705 0 0 4.47705 0 10C0 15.5229 4.47705 20 10 20ZM12.563 10.042C12.731 9.73608 12.8149 9.3999 12.8149 9.03394C12.8149 8.63794 12.728 8.28711 12.5542 7.98096C12.3799 7.67505 12.1191 7.43506 11.771 7.26099C11.4229 7.08691 10.9971 7 10.4932 7H8V13.3181H9.53906V11.05H10.4932C10.833 11.05 11.1367 11.0098 11.4038 10.9287C11.542 10.887 11.6704 10.8345 11.7891 10.771C11.9814 10.6682 12.1465 10.5481 12.2837 10.4104C12.3945 10.2991 12.4878 10.1763 12.563 10.042ZM11.0332 9.6189C10.8892 9.75708 10.6699 9.82593 10.376 9.82593H9.53906V8.24194H10.376C10.6699 8.24194 10.8892 8.31104 11.0332 8.44897C11.1235 8.53564 11.1855 8.64478 11.2192 8.77637C11.2393 8.85425 11.249 8.94019 11.249 9.03394C11.249 9.14868 11.2339 9.25171 11.2041 9.34277C11.1685 9.45166 11.1113 9.5437 11.0332 9.6189Z" fill="#333333"/>
</svg>
