<svg width="80" height="80" viewBox="0 0 80 80" fill="none" xmlns="http://www.w3.org/2000/svg">
<path d="M40.0003 6.66675C21.6003 6.66675 6.66699 21.6001 6.66699 40.0001C6.66699 58.4001 21.6003 73.3334 40.0003 73.3334C58.4003 73.3334 73.3337 58.4001 73.3337 40.0001C73.3337 21.6001 58.4003 6.66675 40.0003 6.66675ZM40.0003 20.0001C46.4337 20.0001 51.667 25.2334 51.667 31.6667C51.667 38.1001 46.4337 43.3334 40.0003 43.3334C33.567 43.3334 28.3337 38.1001 28.3337 31.6667C28.3337 25.2334 33.567 20.0001 40.0003 20.0001ZM40.0003 66.6668C33.2337 66.6668 25.2337 63.9334 19.5337 57.0668C25.3723 52.4858 32.5791 49.9961 40.0003 49.9961C47.4216 49.9961 54.6283 52.4858 60.467 57.0668C54.767 63.9334 46.767 66.6668 40.0003 66.6668Z" fill="#09003E"/>
</svg>
