<svg width="1440" height="306" viewBox="0 0 1440 306" fill="none" xmlns="http://www.w3.org/2000/svg">
<g clip-path="url(#clip0_611_17402)">
<rect width="1440" height="306" fill="#66D5C0"/>
<mask id="mask0_611_17402" style="mask-type:luminance" maskUnits="userSpaceOnUse" x="44" y="-51" width="1363" height="766">
<path d="M1406.06 -50.7017H44.9365V714.702H1406.06V-50.7017Z" fill="white"/>
</mask>
<g mask="url(#mask0_611_17402)">
<path style="mix-blend-mode:multiply" opacity="0.25" d="M52.3726 2.93318V110.097H11V112.932H52.3726V220.095H11V222.93H52.3726V330.094H11V332.928H52.3726V440.092H11V442.927H52.3726V550.09H11V552.925H52.3726V660.089H11V662.924H52.3726V773H55.2083V662.924H162.404V773H165.24V662.924H272.436V773H275.271V662.924H382.467V773H385.303V662.924H492.499V773H495.335V662.924H602.531V773H605.366V662.924H712.562V773H715.398V662.924H822.594V773H825.429V662.924H932.625V773H935.461V662.924H1042.66V773H1045.49V662.924H1152.69V773H1155.52V662.924H1262.72V773H1265.56V662.924H1372.75V773H1375.59V662.924H1440V660.089H1375.59V552.925H1440V550.09H1375.59V442.927H1440V440.092H1375.59V332.928H1440V330.094H1375.59V222.93H1440V220.095H1375.59V112.932H1440V110.097H1375.59V2.93318H1440V0.0983505H1375.59V-109H1372.75V0.0983505H1265.56V-109H1262.72V0.0983505H1155.52V-109H1152.69V0.0983505H1045.49V-109H1042.66V0.0983505H935.461V-109H932.625V0.0983505H825.429V-109H822.594V0.0983505H715.398V-109H712.562V0.0983505H605.366V-109H602.531V0.0983505H495.335V-109H492.499V0.0983505H385.303V-109H382.467V0.0983505H275.271V-109H272.436V0.0983505H165.24V-109H162.404V0.0983505H55.2083V-109H52.3726V0.0983505H11V2.93318H52.3726ZM272.436 2.93318V110.097H165.24V2.93318H272.436ZM495.335 222.93H602.531V330.094H495.335V222.93ZM492.499 330.094H385.303V222.93H492.499V330.094ZM605.366 222.93H712.562V330.094H605.366V222.93ZM715.398 222.93H822.594V330.094H715.398V222.93ZM825.429 222.93H932.625V330.094H825.429V222.93ZM935.461 222.93H1042.66V330.094H935.461V222.93ZM1045.49 222.93H1152.69V330.094H1045.49V222.93ZM1152.69 332.928V440.092H1045.49V332.928H1152.69ZM1042.66 440.092H935.461V332.928H1042.66V440.092ZM932.625 440.092H825.429V332.928H932.625V440.092ZM822.594 440.092H715.398V332.928H822.594V440.092ZM712.562 440.092H605.366V332.928H712.562V440.092ZM602.531 440.092H495.335V332.928H602.531V440.092ZM492.499 440.092H385.303V332.928H492.499V440.092ZM382.467 440.092H275.271V332.928H382.467V440.092ZM275.271 330.094V222.93H382.467V330.094H275.271ZM275.271 220.095V112.932H382.467V220.095H275.271ZM385.303 112.932H492.499V220.095H385.303V112.932ZM495.335 112.932H602.531V220.095H495.335V112.932ZM605.366 112.932H712.562V220.095H605.366V112.932ZM715.398 112.932H822.594V220.095H715.398V112.932ZM825.429 112.932H932.625V220.095H825.429V112.932ZM935.461 112.932H1042.66V220.095H935.461V112.932ZM1045.49 112.932H1152.69V220.095H1045.49V112.932ZM1155.52 112.932H1262.72V220.095H1155.52V112.932ZM1262.72 222.93V330.094H1155.52V222.93H1262.72ZM1262.72 332.928V440.092H1155.52V332.928H1262.72ZM1262.72 442.927V550.09H1155.52V442.927H1262.72ZM1152.69 550.09H1045.49V442.927H1152.69V550.09ZM1042.66 550.09H935.461V442.927H1042.66V550.09ZM932.625 550.09H825.429V442.927H932.625V550.09ZM822.594 550.09H715.398V442.927H822.594V550.09ZM712.562 550.09H605.366V442.927H712.562V550.09ZM602.531 550.09H495.335V442.927H602.531V550.09ZM492.499 550.09H385.303V442.927H492.499V550.09ZM382.467 550.09H275.271V442.927H382.467V550.09ZM272.436 550.09H165.24V442.927H272.436V550.09ZM165.24 440.092V332.928H272.436V440.092H165.24ZM165.24 330.094V222.93H272.436V330.094H165.24ZM165.24 220.095V112.932H272.436V220.095H165.24ZM382.467 2.93318V110.097H275.271V2.93318H382.467ZM492.499 2.93318V110.097H385.303V2.93318H492.499ZM602.531 2.93318V110.097H495.335V2.93318H602.531ZM712.562 2.93318V110.097H605.366V2.93318H712.562ZM822.594 2.93318V110.097H715.398V2.93318H822.594ZM932.625 2.93318V110.097H825.429V2.93318H932.625ZM1042.66 2.93318V110.097H935.461V2.93318H1042.66ZM1152.69 2.93318V110.097H1045.49V2.93318H1152.69ZM1262.72 2.93318V110.097H1155.52V2.93318H1262.72ZM1372.75 110.097H1265.56V2.93318H1372.75V110.097ZM1372.75 220.095H1265.56V112.932H1372.75V220.095ZM1372.75 330.094H1265.56V222.93H1372.75V330.094ZM1372.75 440.092H1265.56V332.928H1372.75V440.092ZM1372.75 550.09H1265.56V442.927H1372.75V550.09ZM1265.56 660.089V552.925H1372.75V660.089H1265.56ZM1155.52 660.089V552.925H1262.72V660.089H1155.52ZM1045.49 660.089V552.925H1152.69V660.089H1045.49ZM935.461 660.089V552.925H1042.66V660.089H935.461ZM825.429 660.089V552.925H932.625V660.089H825.429ZM715.398 660.089V552.925H822.594V660.089H715.398ZM605.366 660.089V552.925H712.562V660.089H605.366ZM495.335 660.089V552.925H602.531V660.089H495.335ZM385.303 660.089V552.925H492.499V660.089H385.303ZM275.271 660.089V552.925H382.467V660.089H275.271ZM165.24 660.089V552.925H272.436V660.089H165.24ZM55.2083 552.925H162.404V660.089H55.2083V552.925ZM55.2083 442.927H162.404V550.09H55.2083V442.927ZM55.2083 332.928H162.404V440.092H55.2083V332.928ZM55.2083 222.93H162.404V330.094H55.2083V222.93ZM55.2083 112.932H162.404V220.095H55.2083V112.932ZM55.2083 2.93318H162.404V110.097H55.2083V2.93318Z" fill="url(#paint0_radial_611_17402)"/>
</g>
<path d="M1081.53 356.56C1153.38 356.56 1211.62 298.315 1211.62 226.466C1211.62 154.617 1153.38 96.3713 1081.53 96.3713C1009.68 96.3713 951.437 154.617 951.437 226.466C951.437 298.315 1009.68 356.56 1081.53 356.56Z" fill="#F7F7F7"/>
<path d="M1081.53 375.997C999.078 375.997 932 308.919 932 226.472C932 187.58 946.86 150.737 973.837 122.735C974.426 122.134 975.402 122.115 976.009 122.698C976.622 123.287 976.641 124.256 976.052 124.87C949.621 152.289 935.068 188.371 935.068 226.472C935.068 307.225 1000.77 372.923 1081.53 372.923C1102.83 372.923 1123.37 368.456 1142.57 359.64C1143.35 359.284 1144.25 359.627 1144.6 360.394C1144.96 361.167 1144.62 362.075 1143.85 362.431C1124.24 371.432 1103.27 375.997 1081.53 375.997Z" fill="#49263E"/>
<path d="M1197.08 211.75C1204.09 207.966 1206.71 199.215 1202.93 192.204C1199.14 185.192 1190.39 182.575 1183.38 186.359C1176.37 190.142 1173.75 198.893 1177.54 205.905C1181.32 212.916 1190.07 215.533 1197.08 211.75Z" fill="#FFC885"/>
<path d="M1201.91 176.362L1171.43 181.088C1171.25 179.972 1167.21 153.48 1169.77 130.504C1170.72 121.967 1175.25 114.25 1183.22 107.565C1188.67 102.99 1195.15 99.2956 1201.41 95.7186C1209.54 91.0821 1219.66 85.3064 1220.98 80.3277C1221.63 77.8993 1220.4 73.8676 1217.52 68.9733C1212.4 60.2863 1207.22 58.5892 1203.76 58.0688C1197.22 57.0797 1188.21 59.6675 1178.38 65.3541C1170.09 70.1593 1164.28 75.3678 1164.22 75.4193L1143.46 52.6026C1144.29 51.8525 1151.86 45.0736 1162.92 38.6603C1179.25 29.2045 1194.53 25.4728 1208.37 27.5637C1218.66 29.1248 1233.22 34.8536 1244.09 53.3152C1251.41 65.7244 1253.66 77.4821 1250.8 88.2552C1246.15 105.704 1229.82 115.019 1216.7 122.511C1211.96 125.216 1207.47 127.775 1204.17 130.293C1201.24 132.529 1200.54 133.776 1200.42 134.02C1198.34 152.824 1201.88 176.128 1201.91 176.362Z" fill="#FFC885"/>
<path d="M1127.02 309.698C1126.76 309.784 1126.51 309.876 1126.25 309.962C1113.51 314.281 1101.27 315.575 1100.77 315.631C1094.61 316.263 1089.1 311.784 1088.46 305.624C1087.83 299.464 1092.3 293.967 1098.46 293.322C1098.75 293.292 1109.08 292.151 1119.36 288.617C1129.64 285.077 1136.12 280.377 1136.66 276.033C1137.56 268.873 1134.35 257.94 1131.25 247.362C1128.79 238.957 1126.24 230.269 1125.22 221.993C1123.85 210.894 1125.5 202.114 1130.26 195.157C1133.76 190.046 1140.74 188.733 1145.85 192.23C1150.96 195.727 1152.27 202.703 1148.77 207.814C1144.74 213.704 1149.01 228.239 1152.77 241.055C1156.52 253.829 1160.39 267.039 1158.92 278.818C1157.73 288.279 1151.22 301.274 1127.02 309.698Z" fill="#49263E"/>
<path d="M1130.26 195.157C1128.47 197.777 1127.12 200.66 1126.2 203.826C1130.08 211.667 1138.59 216.078 1147.15 214.851C1147.14 211.949 1147.61 209.52 1148.77 207.814C1152.27 202.703 1150.96 195.727 1145.85 192.23C1140.74 188.739 1133.76 190.046 1130.26 195.157Z" fill="white"/>
<path d="M1040.63 213.943C1040.63 213.943 1020.74 282.089 1028.73 318.232H1124.84C1124.84 318.232 1115.63 224.447 1104.29 213.943H1040.63Z" fill="#49263E"/>
<path d="M1112.48 203.311C1112.48 211.225 1112.32 226.466 1072.87 226.466C1033.45 226.466 1033.59 211.207 1033.59 203.311C1033.59 178.861 1051.25 164.983 1073.03 164.983C1094.83 164.983 1112.48 178.867 1112.48 203.311Z" fill="white"/>
<path d="M1103.86 182.978C1103.86 182.978 1097.56 147.915 1091 147.019C1084.45 146.123 1076.43 170.634 1076.43 170.634L1103.86 182.978Z" fill="#49263E"/>
<path d="M1097.87 175.125C1097.87 175.125 1094.32 155.363 1090.62 154.86C1086.93 154.357 1082.41 168.168 1082.41 168.168L1097.87 175.125Z" fill="#F2744B"/>
<path d="M1075.73 196.267C1075.73 197.047 1074.52 198.267 1073.04 198.267C1071.55 198.267 1070.35 197.047 1070.35 196.267C1070.35 195.488 1071.55 194.85 1073.04 194.85C1074.52 194.85 1075.73 195.482 1075.73 196.267Z" fill="#49263E"/>
<path d="M1042.22 182.978C1042.22 182.978 1048.52 147.915 1055.08 147.019C1061.63 146.123 1069.65 170.634 1069.65 170.634L1042.22 182.978Z" fill="#49263E"/>
<path d="M1048.21 175.125C1048.21 175.125 1051.76 155.363 1055.45 154.86C1059.15 154.357 1063.67 168.168 1063.67 168.168L1048.21 175.125Z" fill="#F2744B"/>
<path d="M1075.14 165.032C1074.51 165.008 1073.89 164.995 1073.29 164.989C1073.21 164.989 1073.13 164.983 1073.05 164.983C1070.56 164.995 1068.19 165.173 1065.82 165.511C1047.86 168.204 1034.17 181.076 1033.61 201.967C1044.57 202.802 1061.31 204.305 1064.31 195.47C1069.54 180.082 1069.48 176.726 1073.04 176.732C1075.78 176.739 1077.69 186.187 1081.68 194.592C1085.37 202.348 1097.51 204.697 1112.47 202.562C1112.13 179.364 1095.73 165.885 1075.14 165.032Z" fill="#49263E"/>
<path d="M1070 202.084C1069.48 202.084 1069.11 201.992 1069.03 201.967C1068.22 201.74 1067.74 200.887 1067.97 200.071C1068.2 199.268 1069.03 198.777 1069.83 199.004C1069.88 199.016 1070.24 199.071 1070.54 198.85C1070.97 198.519 1071.27 197.648 1071.35 196.458C1071.41 195.611 1072.15 195.04 1072.99 195.028C1073.84 195.083 1074.47 195.82 1074.41 196.666C1074.26 198.899 1073.55 200.489 1072.28 201.378C1071.47 201.943 1070.63 202.084 1070 202.084Z" fill="#49263E"/>
<path d="M1075.79 202.084C1075.17 202.084 1074.32 201.949 1073.51 201.372C1072.25 200.482 1071.54 198.9 1071.39 196.66C1071.33 195.813 1071.97 195.083 1072.82 195.022C1073.66 194.997 1074.4 195.605 1074.45 196.452C1074.53 197.642 1074.83 198.513 1075.27 198.844C1075.57 199.084 1075.96 199.004 1075.97 198.998C1076.81 198.801 1077.62 199.317 1077.81 200.12C1078.02 200.924 1077.56 201.74 1076.76 201.961C1076.68 201.992 1076.31 202.084 1075.79 202.084Z" fill="#49263E"/>
<path d="M1063.49 193.414C1063.2 193.414 1062.92 193.335 1062.66 193.169L1055.83 188.77C1055.12 188.31 1054.91 187.359 1055.37 186.647C1055.82 185.935 1056.78 185.733 1057.49 186.187L1064.32 190.586C1065.03 191.046 1065.24 191.997 1064.78 192.709C1064.49 193.169 1063.99 193.414 1063.49 193.414Z" fill="white"/>
<path d="M1082.6 193.414C1082.1 193.414 1081.6 193.163 1081.31 192.709C1080.85 191.997 1081.06 191.046 1081.77 190.586L1088.6 186.187C1089.3 185.733 1090.26 185.935 1090.72 186.647C1091.18 187.365 1090.97 188.31 1090.26 188.77L1083.43 193.169C1083.17 193.335 1082.89 193.414 1082.6 193.414Z" fill="white"/>
<path d="M1046.07 222.594C1046.07 222.594 1050.91 270.389 1072.87 270.389C1094.84 270.389 1099.78 222.594 1099.78 222.594H1046.07Z" fill="white"/>
<path d="M1071.16 319.41C1070.44 319.41 1069.79 318.895 1069.65 318.153L1061.16 272.285C1061 271.45 1061.55 270.646 1062.39 270.493C1063.22 270.364 1064.02 270.886 1064.18 271.726L1072.68 317.594C1072.83 318.429 1072.28 319.232 1071.44 319.386C1071.35 319.398 1071.25 319.41 1071.16 319.41Z" fill="white"/>
<path d="M1073.35 319.41C1073.26 319.41 1073.16 319.404 1073.07 319.386C1072.24 319.232 1071.68 318.429 1071.84 317.594L1080.33 271.726C1080.49 270.892 1081.31 270.364 1082.13 270.493C1082.96 270.646 1083.51 271.45 1083.36 272.284L1074.86 318.152C1074.72 318.895 1074.08 319.41 1073.35 319.41Z" fill="white"/>
<path d="M1029.44 266.088C1029.44 266.088 1002.83 282.984 1019.28 318.232H1057.93L1029.44 266.088Z" fill="#49263E"/>
<path d="M1117.91 266.088C1117.91 266.088 1144.52 282.984 1128.08 318.232H1089.43L1117.91 266.088Z" fill="#49263E"/>
<path d="M1043.68 319.41C1043 319.41 1042.38 318.956 1042.2 318.263L1035.23 291.881C1035.02 291.065 1035.51 290.224 1036.33 290.009C1037.15 289.807 1037.99 290.279 1038.2 291.101L1045.17 317.484C1045.38 318.3 1044.89 319.14 1044.07 319.355C1043.94 319.392 1043.81 319.41 1043.68 319.41Z" fill="white"/>
<path d="M1100.83 319.41C1100.7 319.41 1100.57 319.392 1100.44 319.355C1099.62 319.14 1099.13 318.3 1099.35 317.484L1106.31 291.102C1106.53 290.273 1107.37 289.801 1108.19 290.01C1109.01 290.224 1109.5 291.065 1109.28 291.881L1102.32 318.263C1102.13 318.956 1101.51 319.41 1100.83 319.41Z" fill="white"/>
<path d="M1071.16 135.239C1070.51 135.239 1069.9 134.816 1069.7 134.159L1063.84 115.348C1063.59 114.538 1064.05 113.679 1064.85 113.428C1065.66 113.17 1066.52 113.63 1066.77 114.44L1072.62 133.251C1072.87 134.061 1072.42 134.92 1071.62 135.171C1071.47 135.22 1071.32 135.239 1071.16 135.239Z" fill="#49263E"/>
<path d="M1099.78 129.582C1099.59 129.582 1099.4 129.545 1099.22 129.472C1098.43 129.165 1098.05 128.269 1098.35 127.478L1106.37 107.28C1106.68 106.489 1107.58 106.102 1108.36 106.421C1109.15 106.728 1109.53 107.624 1109.22 108.415L1101.21 128.613C1100.97 129.214 1100.39 129.582 1099.78 129.582Z" fill="#49263E"/>
<path d="M1119.67 156.381C1119.05 156.381 1118.46 155.989 1118.23 155.369C1117.94 154.571 1118.36 153.688 1119.15 153.399L1134.57 147.822C1135.36 147.534 1136.25 147.945 1136.53 148.743C1136.82 149.54 1136.41 150.424 1135.61 150.712L1120.2 156.289C1120.02 156.351 1119.85 156.381 1119.67 156.381Z" fill="#49263E"/>
<path d="M1074.78 229.349C1061.77 229.349 1051.35 225.539 1050.7 225.3C1049.91 225.005 1049.5 224.122 1049.8 223.33C1050.09 222.533 1050.98 222.115 1051.77 222.428C1052.01 222.514 1075.12 230.944 1094.81 222.453C1095.59 222.122 1096.49 222.477 1096.83 223.257C1097.16 224.036 1096.8 224.938 1096.02 225.275C1088.92 228.33 1081.5 229.349 1074.78 229.349Z" fill="#49263E"/>
</g>
<defs>
<radialGradient id="paint0_radial_611_17402" cx="0" cy="0" r="1" gradientUnits="userSpaceOnUse" gradientTransform="translate(543 222.5) rotate(180) scale(805 378.327)">
<stop stop-color="#59CAFF"/>
<stop offset="1" stop-color="white" stop-opacity="0"/>
</radialGradient>
<clipPath id="clip0_611_17402">
<rect width="1440" height="306" fill="white"/>
</clipPath>
</defs>
</svg>
