<svg width="792" height="540" viewBox="0 0 792 540" fill="none" xmlns="http://www.w3.org/2000/svg">
<path d="M121.21 860.23C77.8302 810.23 96.3702 762.11 89.0502 606.97C74.9602 308.1 -5.80978 232.94 51.7302 158.13C133.7 51.5697 369.65 110.38 429.2 125.22C489.7 140.3 848.75 229.79 872.24 471.8C892.78 683.47 640.63 847.05 470.42 896.67C441.93 904.97 215.02 968.36 121.21 860.23Z" fill="#F6F6FF"/>
<path d="M629.849 133.036C632.019 131.186 634.199 129.336 636.369 127.476C641.279 123.296 646.189 119.106 651.099 114.926C653.769 112.656 651.339 107.786 647.889 109.406C635.069 115.446 622.249 121.486 609.429 127.526C610.959 115.986 611.149 104.296 610.039 92.7059C609.759 89.8459 605.929 89.0959 604.279 91.2159C596.749 100.866 589.369 110.646 581.679 120.166C579.249 123.166 576.029 126.756 571.929 126.616C568.259 126.486 564.949 124.066 561.869 122.086C557.849 119.506 553.509 116.846 548.579 116.816C546.299 116.806 544.139 118.856 545.229 121.256C549.859 131.446 557.619 139.876 567.279 145.406C554.739 158.986 542.199 172.566 529.659 186.136C528.099 187.826 529.499 191.276 531.859 191.276C546.159 191.226 558.709 184.716 570.629 177.456C573.599 175.646 576.539 173.796 579.499 171.976C580.929 171.096 582.369 170.216 583.819 169.366C584.409 169.016 585.009 168.666 585.599 168.326C586.079 168.056 587.179 167.276 587.739 167.146C587.849 167.596 588.139 168.106 588.249 168.486C588.789 170.366 589.009 172.386 589.369 174.306C590.159 178.486 590.949 182.666 591.739 186.846L596.949 214.436C597.579 217.786 601.649 217.956 603.129 215.176C609.349 203.476 608.799 189.906 608.489 177.066C608.409 173.856 608.349 170.636 608.419 167.426C608.449 166.126 608.419 164.776 608.629 163.486C608.659 163.296 608.869 162.766 608.979 162.416C609.309 162.666 609.869 163.046 610.069 163.206C610.649 163.676 611.229 164.146 611.809 164.616C613.129 165.656 614.469 166.676 615.829 167.656C618.559 169.616 621.369 171.466 624.259 173.176C630.779 177.046 637.619 180.306 644.759 182.866C647.819 183.966 650.299 180.516 648.499 177.906C641.939 168.376 635.369 158.836 628.809 149.306C627.289 147.096 625.619 144.946 624.259 142.636C623.219 140.876 622.919 139.496 624.309 137.906C625.909 136.076 628.019 134.596 629.849 133.036ZM616.909 141.066C617.289 143.946 619.009 146.386 620.609 148.716C624.199 153.926 627.779 159.136 631.369 164.346C633.299 167.156 635.229 169.956 637.169 172.766C634.089 171.326 631.069 169.756 628.149 168.026C625.099 166.216 622.129 164.266 619.259 162.176C617.899 161.186 616.559 160.166 615.249 159.116C613.779 157.946 612.369 156.616 610.539 156.046C606.999 154.936 603.889 157.186 602.769 160.496C601.729 163.546 601.989 167.056 601.999 170.236C602.019 177.126 602.439 184.016 602.199 190.896C602.069 194.476 601.739 198.016 601.049 201.486C600.189 196.936 599.329 192.376 598.469 187.826C597.639 183.436 596.809 179.046 595.979 174.656C595.299 171.076 595.109 166.666 593.009 163.556C592.069 162.166 590.669 161.096 588.989 160.796C586.809 160.406 584.949 161.326 583.109 162.376C579.869 164.226 576.689 166.166 573.519 168.136C567.439 171.906 561.389 175.766 554.939 178.896C550.289 181.156 545.389 183.036 540.309 184.056C552.089 171.306 563.859 158.556 575.629 145.816C576.809 144.536 576.289 142.276 574.999 141.306C574.129 140.646 573.149 140.546 572.249 140.816C565.219 137.246 559.199 131.846 554.819 125.316C556.139 126.046 557.429 126.876 558.709 127.706C562.379 130.066 566.309 132.616 570.779 132.996C576.349 133.476 580.869 130.566 584.549 126.676C588.629 122.366 592.059 117.346 595.709 112.676C598.539 109.056 601.359 105.426 604.189 101.806C604.589 112.126 603.909 122.446 602.149 132.646C601.749 134.986 604.459 136.996 606.589 135.996C613.959 132.526 621.329 129.056 628.699 125.576C627.769 126.366 626.839 127.166 625.909 127.956C623.739 129.806 621.419 131.566 619.479 133.676C617.649 135.666 616.549 138.306 616.909 141.066Z" fill="#FFD333"/>
<path d="M9.10624 272.084C-2.83376 260.144 -3.03376 240.894 8.51624 228.704C8.70624 228.504 8.90624 228.304 9.10624 228.104C21.2462 215.964 40.9362 215.964 53.0762 228.114C65.2162 240.264 65.2162 259.934 53.0762 272.084C52.8762 272.284 52.6762 272.484 52.4762 272.674C40.2962 284.214 21.0462 284.024 9.10624 272.084Z" fill="#FFD333"/>
<path d="M265.094 117.832C265.094 117.832 313.494 284.182 339.604 281.832C350.184 280.882 395.584 277.102 416.944 274.372C445.244 270.762 491.624 268.222 497.214 268.602C548.414 272.012 608.734 294.662 644.004 364.442C682.544 440.692 728.824 546.962 697.294 584.372C670.834 615.762 617.614 626.302 540.114 550.622L353.874 551.112L342.924 407.582C318.854 409.402 285.274 407.302 255.834 388.672C202.774 355.102 174.584 139.362 174.584 139.362L265.094 117.832Z" fill="#60A3C4"/>
<path fill-rule="evenodd" clip-rule="evenodd" d="M333.593 360.012C273.833 367.522 224.853 309.212 200.773 273.422C214.183 324.492 232.633 374.002 255.833 388.682C285.273 407.312 318.853 409.412 342.923 407.592L343.373 413.502C362.483 381.372 368.253 355.652 333.593 360.012Z" fill="#4D80AA"/>
<path fill-rule="evenodd" clip-rule="evenodd" d="M270.774 136.312C265.914 120.992 265.104 117.832 265.104 117.832L174.584 139.372C174.584 139.372 175.584 147.252 177.934 162.012L270.774 136.312Z" fill="white"/>
<path d="M233.773 95.7323L272.263 68.3522C276.063 65.6523 281.223 66.1823 284.473 69.5222C291.303 76.4022 301.853 77.8022 310.043 73.0322C320.903 66.7122 323.773 52.6222 316.653 42.6222C312.373 36.6123 305.523 33.5223 298.663 33.7923C295.643 33.9123 293.363 31.0323 294.393 28.1923C296.653 21.9223 295.913 14.6823 291.753 8.84225C284.623 -1.17775 270.333 -3.06775 260.813 5.16225C253.623 11.3723 251.523 21.8323 255.743 30.3423C257.943 34.6823 256.773 39.7422 252.973 42.4422L213.703 70.3822L233.773 95.7323Z" fill="#9679BC"/>
<path d="M221.643 83.8422C221.083 83.8422 220.533 83.5722 220.203 83.0622C219.683 82.2722 219.903 81.2022 220.703 80.6722L284.403 38.7422C285.183 38.2222 286.263 38.4322 286.793 39.2422C287.313 40.0322 287.093 41.1022 286.293 41.6322L222.593 83.5622C222.293 83.7422 221.963 83.8422 221.643 83.8422Z" fill="#49263E"/>
<path d="M621.104 469.642C620.394 469.642 619.734 469.192 619.484 468.482C619.164 467.582 619.644 466.602 620.544 466.282L640.454 459.262C641.344 458.932 642.334 459.422 642.654 460.312C642.974 461.212 642.494 462.192 641.604 462.512L621.694 469.532C621.484 469.612 621.294 469.642 621.104 469.642Z" fill="#49263E"/>
<path d="M551.572 467.852C550.702 467.852 549.952 467.202 549.852 466.322L538.402 365.882C538.292 364.932 538.972 364.082 539.922 363.972C540.842 363.982 541.722 364.552 541.832 365.492L553.292 465.942C553.392 466.892 552.712 467.742 551.772 467.852C551.712 467.842 551.642 467.852 551.572 467.852Z" fill="#49263E"/>
<path d="M316.752 481.132C316.452 480.372 316.152 479.612 315.852 478.842C312.492 470.212 309.462 461.342 305.192 453.102C301.072 445.142 296.082 437.682 291.422 430.032C287.512 423.602 283.092 417.562 278.992 411.252C284.262 407.392 288.942 402.632 292.772 397.052C311.642 369.582 326.372 358.332 335.772 350.552C354.572 334.992 370.432 331.642 381.792 338.412C393.152 345.192 393.252 367.712 383.812 369.692C374.382 371.672 361.732 376.012 358.872 391.652C356.922 402.362 347.252 427.332 341.842 440.832C339.582 446.462 321.592 473.912 318.202 478.952C317.732 479.712 317.242 480.422 316.752 481.132Z" fill="#EF685E"/>
<path d="M340.244 351.492C340.244 351.492 325.224 369.432 334.494 374.412L316.224 377.962L307.164 364.732L315.794 354.522L340.244 351.492Z" fill="#49263E"/>
<path d="M174.962 310.302C189.062 301.222 225.962 324.752 225.962 324.752C225.962 324.752 275.942 303.452 289.762 313.012C299.342 319.642 312.342 339.062 312.342 339.062C335.772 330.552 338.732 323.832 346.052 337.642C348.892 342.992 348.032 351.762 344.012 355.742C339.402 360.312 318.472 362.742 314.352 363.042C309.432 363.402 309.912 369.542 314.342 370.842C319.452 372.332 320.312 370.842 333.402 372.262C336.962 372.652 341.812 375.212 341.472 375.122C339.312 374.572 338.002 376.732 337.622 379.822C337.012 384.772 339.342 389.612 343.372 392.552C352.562 399.252 373.432 420.372 362.202 468.792L353.872 551.112H184.642L216.812 448.872C180.372 413.312 188.962 370.622 188.962 370.622C188.962 370.622 160.852 319.382 174.962 310.302Z" fill="#FF9D76"/>
<path d="M316.193 452.932C312.623 422.562 283.703 412.492 282.753 412.172C270.663 408.232 261.673 402.172 259.483 394.472C255.783 381.482 263.913 371.022 275.823 364.722C288.563 357.992 306.303 356.742 308.903 351.062C312.783 342.572 302.313 335.662 299.333 327.302C298.304 324.402 300.203 323.582 301.313 324.402C304.453 328.152 307.303 331.962 309.323 334.752C311.173 337.312 314.534 338.282 317.464 337.112C336.264 329.632 339.304 324.902 346.054 337.642C348.894 342.992 348.033 351.762 344.013 355.742C339.403 360.312 318.473 362.742 314.353 363.042C309.433 363.402 309.913 369.542 314.343 370.842C319.453 372.332 320.313 370.842 333.403 372.262C336.963 372.652 341.813 375.212 341.473 375.122C339.313 374.572 338.003 376.732 337.623 379.822C337.013 384.772 339.343 389.612 343.373 392.552C352.563 399.252 373.434 420.372 362.203 468.792L353.873 551.112H306.233C311.473 520.422 318.553 473.012 316.193 452.932Z" fill="white"/>
<path d="M258.694 314.472C258.694 314.472 234.994 291.082 225.174 291.532C215.354 291.982 218.924 331.592 218.924 331.592L258.694 314.472Z" fill="#FF9D76"/>
<path d="M207.053 454.952C218.603 433.372 241.183 438.552 277.873 444.392C300.203 447.942 322.513 438.242 335.313 419.602C354.183 392.132 368.913 380.882 378.313 373.102C397.113 357.542 412.973 354.192 424.333 360.962C435.693 367.742 435.793 390.262 426.353 392.242C416.923 394.222 404.273 398.562 401.413 414.202C399.463 424.912 389.793 449.882 384.383 463.382C382.123 469.012 377.913 484.462 360.743 501.502C343.813 518.302 321.363 525.032 307.143 528.802L304.443 545.442L184.623 547.282C184.643 547.292 187.713 491.092 207.053 454.952Z" fill="#FF9D76"/>
<path d="M343.884 343.402C340.464 337.722 336.544 341.172 331.384 339.162C329.654 338.492 328.244 336.782 327.574 334.762C327.254 333.802 327.734 332.752 328.664 332.352C337.954 328.362 340.954 328.002 346.054 337.642C346.744 338.942 347.214 340.442 347.464 342.032C347.804 344.132 345.014 345.262 343.904 343.452C343.904 343.432 343.894 343.422 343.884 343.402Z" fill="#49263E"/>
<path d="M285.774 354.702C284.934 354.702 284.204 354.102 284.074 353.252C283.994 352.752 282.214 341.092 289.564 338.322C296.464 335.722 305.154 342.312 305.514 342.592C306.274 343.182 306.404 344.252 305.824 345.012C305.234 345.762 304.154 345.902 303.404 345.322C301.344 343.732 295.034 339.942 290.784 341.552C286.134 343.292 287.464 352.602 287.484 352.702C287.634 353.652 286.994 354.532 286.054 354.682C285.954 354.692 285.864 354.702 285.774 354.702Z" fill="#49263E"/>
<path d="M291.803 327.252C288.813 327.412 285.883 327.792 282.983 328.532C281.333 328.952 280.173 330.532 280.523 332.252C280.853 333.862 282.583 335.132 284.243 334.712C286.603 334.112 289.023 333.682 291.453 333.552C293.153 333.462 294.683 332.402 294.783 330.572C294.873 329.012 293.513 327.162 291.803 327.252Z" fill="white"/>
<path d="M342.983 362.982C351.603 362.712 364.083 366.732 365.143 371.082C366.753 377.632 360.663 378.772 355.063 377.962C350.423 377.292 343.633 375.682 341.833 375.232C332.193 372.782 333.633 372.382 316.193 371.532C316.193 371.522 320.113 363.702 342.983 362.982Z" fill="#FFBBC8"/>
<path d="M416.353 376.462C415.803 376.462 415.263 376.192 414.933 375.712C414.393 374.932 414.593 373.852 415.373 373.312C419.543 370.442 430.573 369.712 431.813 369.632C432.793 369.642 433.583 370.312 433.643 371.252C433.703 372.202 432.973 373.022 432.023 373.082C428.913 373.262 420.203 374.182 417.333 376.152C417.033 376.362 416.683 376.462 416.353 376.462Z" fill="#49263E"/>
<path d="M409.763 362.702C408.993 362.702 408.283 362.182 408.093 361.402C407.863 360.482 408.423 359.542 409.343 359.312C410.143 359.112 417.213 357.342 420.253 357.342C421.203 357.342 421.983 358.112 421.983 359.072C421.983 360.022 421.213 360.802 420.253 360.802C418.033 360.802 412.233 362.142 410.183 362.662C410.043 362.682 409.903 362.702 409.763 362.702Z" fill="#49263E"/>
<path d="M373.544 353.222C372.994 353.222 372.454 352.952 372.124 352.472C371.584 351.692 371.784 350.612 372.574 350.072C376.744 347.202 387.774 346.482 389.014 346.402C390.034 346.442 390.784 347.082 390.844 348.022C390.894 348.972 390.174 349.792 389.214 349.852C386.104 350.032 377.394 350.942 374.524 352.912C374.224 353.122 373.874 353.222 373.544 353.222Z" fill="#49263E"/>
<path d="M366.954 339.452C366.184 339.452 365.474 338.932 365.284 338.152C365.054 337.232 365.614 336.292 366.534 336.062C367.334 335.862 374.404 334.092 377.454 334.092C378.404 334.092 379.184 334.862 379.184 335.822C379.184 336.772 378.414 337.552 377.454 337.552C375.234 337.552 369.434 338.892 367.374 339.412C367.234 339.442 367.094 339.452 366.954 339.452Z" fill="#49263E"/>
<path d="M224.072 326.842C223.502 326.842 222.932 326.552 222.612 326.032C222.102 325.222 222.352 324.162 223.162 323.662C237.612 314.642 271.272 310.042 272.702 309.862C273.692 309.772 274.512 310.412 274.642 311.342C274.772 312.292 274.102 313.152 273.162 313.282C272.822 313.332 238.822 317.962 225.002 326.582C224.712 326.752 224.392 326.842 224.072 326.842Z" fill="#49263E"/>
<path d="M224.974 340.462C224.534 340.462 224.094 340.302 223.764 339.962C223.584 339.792 205.744 322.382 184.434 319.842C183.494 319.732 182.814 318.872 182.924 317.932C183.034 316.992 183.794 316.332 184.834 316.422C207.344 319.102 225.424 336.762 226.174 337.512C226.854 338.182 226.864 339.282 226.194 339.952C225.864 340.292 225.424 340.462 224.974 340.462Z" fill="#49263E"/>
<path d="M211.244 343.412C211.244 343.412 204.634 338.782 200.904 336.212C200.124 335.662 199.924 334.592 200.464 333.802C201.004 333.022 202.074 332.832 202.874 333.362C206.604 335.942 213.234 340.582 213.234 340.582L211.244 343.412Z" fill="#49263E"/>
<path d="M234.132 322.192C233.472 322.192 232.852 321.822 232.562 321.172C229.612 314.662 228.672 300.032 228.642 299.412C228.582 298.462 229.302 297.642 230.252 297.582C231.272 297.572 232.022 298.282 232.082 299.192C232.102 299.342 233.032 313.812 235.702 319.752C236.102 320.622 235.712 321.642 234.842 322.032C234.612 322.142 234.372 322.192 234.132 322.192Z" fill="#49263E"/>
<path d="M284.323 446.922C276.803 446.922 268.113 445.922 258.243 443.262C257.323 443.022 256.773 442.072 257.023 441.152C257.263 440.232 258.223 439.632 259.133 439.932C297.423 450.202 317.483 434.522 317.683 434.372C318.403 433.782 319.513 433.872 320.103 434.642C320.703 435.382 320.583 436.472 319.833 437.062C319.193 437.592 307.243 446.922 284.323 446.922Z" fill="#49263E"/>
<path d="M294.403 530.542C293.463 530.542 292.533 530.522 291.583 530.502C290.633 530.482 289.883 529.682 289.903 528.732C289.923 527.782 290.693 526.902 291.673 527.052C355.153 528.642 380.473 471.252 380.723 470.672C381.093 469.792 382.103 469.392 382.983 469.762C383.863 470.132 384.273 471.142 383.893 472.022C383.643 472.612 358.323 530.542 294.403 530.542Z" fill="#49263E"/>
<path d="M416.942 274.372C445.242 270.762 491.622 268.222 497.212 268.602C504.552 269.092 511.802 270.072 518.942 271.602C518.812 271.812 490.322 341.822 436.582 333.472C398.162 327.502 390.542 295.262 389.322 277.352C399.752 276.332 409.722 275.292 416.942 274.372Z" fill="white"/>
<path d="M416.944 274.372C445.244 270.762 491.624 268.222 497.214 268.602C499.214 268.732 501.204 268.912 503.184 269.112L498.524 276.262C498.524 276.262 477.984 324.222 439.244 318.502C407.864 313.872 404.984 286.122 405.024 275.752C409.454 275.272 413.504 274.812 416.944 274.372Z" fill="#FF9D76"/>
<path d="M497.202 268.602C484.682 229.322 455.642 139.372 455.642 139.372L440.872 143.632L439.762 151.942C426.602 156.692 377.462 163.282 377.462 163.282L375.402 174.182C375.402 174.182 384.722 255.382 396.552 262.182C405.472 267.312 416.392 266.372 422.652 265.402L427.882 299.302L497.202 268.602Z" fill="#FF9D76"/>
<path d="M468.403 132.292C449.133 118.212 401.533 116.442 381.323 139.372C370.843 151.252 366.573 173.142 375.693 177.882C376.173 178.132 375.283 169.262 382.083 165.712C393.063 159.972 415.513 158.212 432.123 156.902C432.123 156.902 429.143 170.982 439.643 181.622C447.413 189.492 452.373 184.062 452.373 184.062L463.143 204.692C463.143 204.692 461.663 224.302 485.913 233.372C485.913 233.372 483.703 225.742 488.553 199.322C491.903 181.092 492.633 149.992 468.403 132.292Z" fill="#75434B"/>
<path d="M450.492 188.252C450.712 187.542 451.012 180.402 457.642 178.912C464.282 177.432 468.752 181.062 470.352 191.082C471.962 201.102 460.742 208.192 456.632 205.092C452.522 202.002 450.492 188.252 450.492 188.252Z" fill="#FF9D76"/>
<path d="M451.653 195.802C450.713 195.802 449.953 195.052 449.923 194.112C449.913 193.842 449.843 187.632 454.953 184.312C457.353 182.752 459.543 182.352 461.473 183.122C464.463 184.312 465.383 187.782 465.483 188.172C465.703 189.102 465.133 190.032 464.213 190.262C463.233 190.472 462.353 189.922 462.133 188.992C461.973 188.402 461.333 186.762 460.193 186.322C459.163 185.932 457.793 186.572 456.843 187.202C453.323 189.492 453.383 193.982 453.383 194.032C453.403 194.982 452.653 195.772 451.693 195.802C451.683 195.802 451.673 195.802 451.653 195.802Z" fill="#EF685E"/>
<path d="M456.342 251.122C458.142 248.782 455.412 245.662 452.862 247.142C439.752 254.722 420.342 265.922 419.742 266.062C419.502 266.122 426.432 289.942 426.432 289.942L456.342 251.122Z" fill="#EF685E"/>
<path d="M429.294 164.972C429.044 164.972 428.794 164.922 428.554 164.802C427.694 164.392 427.324 163.362 427.744 162.502L436.384 144.412C436.794 143.532 437.824 143.182 438.684 143.602C439.544 144.012 439.914 145.042 439.494 145.902L430.854 163.992C430.554 164.612 429.934 164.972 429.294 164.972Z" fill="#FF9D76"/>
<path d="M414.863 202.052C416.263 201.712 417.123 200.302 416.793 198.902L415.813 194.842C415.473 193.442 414.063 192.582 412.663 192.912C411.263 193.252 410.403 194.662 410.733 196.062L411.713 200.122C412.043 201.522 413.463 202.382 414.863 202.052Z" fill="#49263E"/>
<path d="M385.863 209.022C387.263 208.682 388.123 207.272 387.793 205.872L386.813 201.812C386.473 200.412 385.063 199.552 383.663 199.882C382.263 200.222 381.403 201.632 381.733 203.032L382.713 207.092C383.053 208.482 384.463 209.352 385.863 209.022Z" fill="#49263E"/>
<path d="M394.483 223.702C391.713 223.702 389.213 222.522 387.183 220.232C384.673 217.392 383.503 213.502 383.983 211.642C384.253 210.612 384.693 209.582 385.193 208.462C386.753 204.962 388.693 200.612 386.213 190.302C385.993 189.372 386.563 188.442 387.483 188.212C388.433 187.982 389.343 188.562 389.573 189.482C392.323 200.932 390.023 206.092 388.343 209.852C387.923 210.792 387.543 211.632 387.323 212.492C387.233 213.062 387.893 216.012 390.043 218.222C391.563 219.792 393.373 220.462 395.353 220.182C396.353 220.072 397.163 220.732 397.293 221.662C397.413 222.602 396.753 223.472 395.813 223.602C395.363 223.672 394.923 223.702 394.483 223.702Z" fill="#EF685E"/>
<path d="M399.294 188.522C399.014 188.522 398.714 188.452 398.434 188.302C397.594 187.852 397.324 186.722 397.764 185.872C398.564 184.372 407.794 177.212 420.274 180.942C421.184 181.222 421.704 182.182 421.434 183.102C421.154 184.012 420.184 184.512 419.274 184.262C409.164 181.212 401.514 186.742 400.704 187.672C400.404 188.232 399.864 188.522 399.294 188.522Z" fill="#75434B"/>
<path d="M377.693 193.272C377.473 193.272 377.243 193.232 377.033 193.142C376.153 192.772 375.733 191.762 376.103 190.882C376.163 190.752 377.473 187.682 380.583 186.602C382.673 185.862 384.983 186.212 387.463 187.592C388.303 188.062 388.583 189.112 388.123 189.942C387.643 190.782 386.593 191.062 385.773 190.602C384.203 189.712 382.833 189.442 381.723 189.862C380.103 190.412 379.303 192.192 379.293 192.202C379.013 192.872 378.363 193.272 377.693 193.272Z" fill="#75434B"/>
<path d="M392.323 235.412C391.943 235.082 391.593 234.722 391.283 234.332C390.723 233.622 390.503 232.692 390.703 231.802C390.903 230.912 391.493 230.162 392.303 229.762L410.113 220.902C411.103 220.412 412.283 220.502 413.183 221.132C414.093 221.762 414.573 222.842 414.453 223.942C413.663 231.002 409.973 235.972 404.333 237.582C400.043 238.812 395.183 237.872 392.323 235.412Z" fill="white"/>
<path d="M318.763 306.622C318.353 306.622 317.933 306.472 317.603 306.182C316.893 305.542 316.833 304.452 317.483 303.742L338.323 280.682C338.973 279.972 340.053 279.922 340.763 280.562C341.473 281.202 341.533 282.292 340.883 283.002L320.043 306.052C319.703 306.422 319.233 306.622 318.763 306.622Z" fill="#49263E"/>
<path d="M259.213 119.232C259.213 119.232 258.643 113.762 274.083 91.7823C289.523 69.8023 272.003 67.0323 270.163 57.0723C269.683 54.4423 263.893 55.4123 259.233 50.6423C255.993 47.3223 254.773 39.1523 249.303 37.0823C233.803 31.2023 225.303 33.1223 221.643 40.1723C221.643 40.1723 207.663 39.4123 206.603 50.9523C206.603 50.9523 189.543 52.8223 189.673 63.6323C189.673 63.6323 175.193 65.4323 182.103 83.0023L183.683 138.802L259.213 119.232Z" fill="#FF9D76"/>
<path d="M249.244 59.9622C248.364 59.9622 247.604 59.2822 247.524 58.3822C247.514 58.3222 246.964 52.5522 243.424 51.1922C238.814 49.4222 221.694 42.0722 220.964 41.7622C220.084 41.3822 219.684 40.3722 220.054 39.4922C220.434 38.6122 221.444 38.2122 222.324 38.5822C222.504 38.6622 240.114 46.2122 244.664 47.9622C250.234 50.0922 250.944 57.7522 250.964 58.0722C251.044 59.0222 250.334 59.8522 249.394 59.9422C249.344 59.9522 249.294 59.9622 249.244 59.9622Z" fill="#EF685E"/>
<path d="M239.743 90.1723C239.113 90.1723 238.513 89.8323 238.203 89.2223C238.113 89.0323 228.803 70.6523 225.183 65.7323C222.783 62.4623 213.353 57.0723 208.823 54.4723C204.733 52.1323 204.113 51.7723 204.753 50.2523C205.093 49.4523 206.243 49.0523 207.073 49.3023C207.503 49.4223 207.843 49.7023 208.063 50.0523C208.613 50.3823 209.473 50.8723 210.533 51.4723C217.593 55.5223 225.343 60.1323 227.963 63.6823C231.743 68.8323 240.893 86.8923 241.273 87.6623C241.703 88.5123 241.363 89.5523 240.513 89.9823C240.273 90.1123 240.003 90.1723 239.743 90.1723Z" fill="#EF685E"/>
<path d="M221.542 103.082C221.542 103.082 211.702 85.5523 207.422 78.0723C203.472 71.1823 189.172 65.3023 189.032 65.2423C188.152 64.8823 187.722 63.8723 188.082 62.9923C188.442 62.1023 189.462 61.6823 190.332 62.0423C190.962 62.3023 205.882 68.4523 210.422 76.3523C214.712 83.8423 224.562 101.392 224.562 101.392L221.542 103.082Z" fill="#EF685E"/>
<path d="M145.822 86.9222C155.342 79.1022 169.322 81.0922 176.342 90.9622C177.912 93.1722 180.952 93.6922 183.122 92.1422L191.282 86.4322L198.402 104.012L213.642 110.062L204.862 116.312C201.512 118.692 200.542 123.202 202.532 126.802C207.462 135.952 205.072 147.302 197.032 153.542C187.522 160.932 173.882 158.852 166.972 149.142C163.032 143.602 162.152 136.812 164.002 130.782C165.002 127.522 162.522 124.222 159.102 124.202C152.042 124.162 145.112 120.582 141.132 113.932C136.112 105.532 138.272 93.1222 145.822 86.9222Z" fill="#F75454"/>
<path d="M176.032 116.762C175.472 116.762 174.912 116.492 174.582 115.982C174.062 115.182 174.282 114.112 175.082 113.592L196.552 99.5822C197.352 99.0722 198.422 99.2822 198.942 100.082C199.462 100.882 199.242 101.952 198.442 102.472L176.972 116.482C176.682 116.662 176.362 116.762 176.032 116.762Z" fill="#49263E"/>
<path d="M208.994 110.412C207.434 110.412 205.904 110.112 204.424 109.512C196.634 106.352 192.164 95.7623 189.794 87.4423L189.674 87.0123C189.384 86.1223 189.834 85.1423 190.724 84.8223C191.574 84.5223 192.564 84.9123 192.904 85.7923C192.944 85.8723 193.014 86.1123 193.124 86.4923C196.184 97.2223 200.664 104.262 205.734 106.312C208.614 107.472 211.674 107.082 215.094 105.102C228.764 97.2223 248.584 82.1223 253.794 78.1223C250.934 73.8223 243.264 60.7323 249.944 53.0323C251.884 50.8023 254.294 49.5923 257.114 49.4423C264.074 49.1423 271.064 55.5523 271.364 55.8223C272.064 56.4723 272.094 57.5623 271.444 58.2623C270.794 58.9523 269.714 58.9923 269.004 58.3423C268.944 58.2923 262.864 52.6423 257.284 52.8923C255.404 52.9923 253.864 53.7823 252.554 55.3023C247.484 61.1423 254.424 73.2823 257.534 77.4623C258.094 78.2223 257.944 79.2723 257.214 79.8523C256.974 80.0423 232.814 98.8823 216.824 108.102C214.114 109.632 211.504 110.412 208.994 110.412Z" fill="#EF685E"/>
<path d="M122.552 374.772C121.802 374.772 121.102 374.272 120.892 373.512C120.632 372.602 121.162 371.642 122.092 371.382L146.252 364.542C147.142 364.312 148.122 364.812 148.382 365.742C148.642 366.652 148.112 367.612 147.182 367.872L123.022 374.712C122.862 374.752 122.712 374.772 122.552 374.772Z" fill="#49263E"/>
<path d="M138.413 322.192C138.253 322.192 138.103 322.172 137.943 322.132L100.513 311.552C99.6031 311.282 99.0631 310.332 99.3131 309.422C99.5831 308.512 100.553 308.012 101.443 308.222L138.873 318.802C139.783 319.072 140.323 320.022 140.073 320.932C139.863 321.692 139.163 322.192 138.413 322.192Z" fill="#49263E"/>
<path d="M171.002 283.552C170.302 283.552 169.652 283.122 169.382 282.432L162.362 263.802C162.022 262.912 162.482 261.912 163.372 261.572C164.282 261.272 165.252 261.692 165.602 262.582L172.622 281.212C172.962 282.102 172.502 283.102 171.612 283.442C171.402 283.522 171.202 283.552 171.002 283.552Z" fill="#49263E"/>
<path d="M529.073 387.232C529.073 398.772 519.723 408.122 508.183 408.122C496.643 408.122 487.293 398.772 487.293 387.232C487.293 375.692 496.643 366.342 508.183 366.342C519.723 366.352 529.073 375.702 529.073 387.232Z" fill="white"/>
<path d="M500.174 402.562C500.174 402.562 466.894 406.822 461.804 411.162C456.714 415.502 456.764 430.972 456.764 430.972L494.364 428.002L500.174 402.562Z" fill="#EF685E"/>
<path fill-rule="evenodd" clip-rule="evenodd" d="M448.413 398.072C448.893 393.492 457.693 392.152 474.543 394.212C486.013 395.612 506.053 398.662 511.483 403.082C517.753 408.182 545.263 435.462 548.463 450.462L568.023 463.562L541.383 527.122C540.503 525.742 524.683 510.402 511.063 496.022C495.963 487.252 499.313 473.742 499.313 473.742C499.313 473.742 476.903 478.752 466.673 475.542C456.443 472.332 466.183 465.282 466.183 465.282C466.183 465.282 463.033 465.112 459.533 458.922C456.033 452.732 462.913 444.722 462.913 444.722C462.913 444.722 450.143 443.022 451.203 435.822C452.263 428.622 491.543 417.922 491.543 417.922C463.703 406.432 447.113 410.362 448.413 398.072Z" fill="#FF9D76"/>
<path d="M486.173 418.842C485.393 418.842 484.693 418.312 484.493 417.522C484.273 416.592 484.843 415.662 485.763 415.432L500.263 411.952C501.213 411.742 502.123 412.302 502.353 413.222C502.573 414.152 502.003 415.082 501.083 415.312L486.583 418.792C486.433 418.832 486.303 418.842 486.173 418.842Z" fill="#EF685E"/>
<path d="M458.794 447.742C458.064 447.742 457.384 447.272 457.144 446.542C456.864 445.632 457.364 444.662 458.264 444.372L497.604 431.892C498.524 431.612 499.484 432.112 499.774 433.022C500.054 433.932 499.554 434.902 498.654 435.192L459.314 447.672C459.144 447.722 458.964 447.742 458.794 447.742Z" fill="#EF685E"/>
<path d="M463.703 467.852C462.983 467.852 462.323 467.402 462.073 466.692C461.763 465.782 462.243 464.812 463.143 464.492L498.553 452.322C499.463 452.012 500.433 452.492 500.753 453.392C501.063 454.302 500.583 455.272 499.683 455.592L464.273 467.762C464.073 467.822 463.893 467.852 463.703 467.852Z" fill="#EF685E"/>
<path d="M495.973 476.132C495.203 476.132 494.493 475.612 494.303 474.822C494.073 473.892 494.643 472.962 495.563 472.732L508.703 469.492C509.653 469.222 510.573 469.832 510.793 470.752C511.023 471.682 510.453 472.612 509.533 472.842L496.393 476.082C496.253 476.122 496.113 476.132 495.973 476.132Z" fill="#EF685E"/>
<path d="M591.343 460.902L549.433 559.422L534.463 547.762L573.513 451.552L591.343 460.902Z" fill="white"/>
<path d="M549.463 559.442C621.893 625.392 671.913 614.482 697.293 584.372C709.083 570.382 709.993 546.772 704.493 518.712C701.933 540.462 691.693 576.182 652.313 580.942C596.083 587.742 550.903 560.322 549.463 559.442Z" fill="#4D80AA"/>
<path d="M549.464 561.172C549.094 561.172 548.724 561.052 548.404 560.802L533.394 549.112C532.834 548.682 532.604 547.952 532.794 547.282C541.624 515.992 571.644 451.462 571.954 450.812C572.154 450.382 572.514 450.052 572.964 449.902C573.404 449.752 573.904 449.792 574.324 450.002L657.144 493.472C657.984 493.922 658.304 494.962 657.874 495.812C657.424 496.652 656.364 496.972 655.534 496.542L574.324 453.912C569.644 464.052 544.754 518.542 536.444 547.102L550.534 558.082C551.284 558.672 551.414 559.742 550.834 560.502C550.494 560.952 549.984 561.172 549.464 561.172Z" fill="#49263E"/>
</svg>
