<svg width="27" height="27" viewBox="0 0 27 27" fill="none" xmlns="http://www.w3.org/2000/svg">
<path d="M7.28617 14.8968C7.884 14.8968 8.37313 14.4077 8.37313 13.8099C8.37313 13.212 7.884 12.7229 7.28617 12.7229C6.68835 12.7229 6.19922 13.212 6.19922 13.8099C6.19922 14.4077 6.68835 14.8968 7.28617 14.8968Z" stroke="#333333" stroke-width="2.17391"/>
<path d="M13.8079 14.8968C14.4057 14.8968 14.8949 14.4077 14.8949 13.8099C14.8949 13.212 14.4057 12.7229 13.8079 12.7229C13.2101 12.7229 12.721 13.212 12.721 13.8099C12.721 14.4077 13.2101 14.8968 13.8079 14.8968Z" stroke="#333333" stroke-width="2.17391"/>
<path d="M20.3296 14.8968C20.9275 14.8968 21.4166 14.4077 21.4166 13.8099C21.4166 13.212 20.9275 12.7229 20.3296 12.7229C19.7318 12.7229 19.2427 13.212 19.2427 13.8099C19.2427 14.4077 19.7318 14.8968 20.3296 14.8968Z" stroke="#333333" stroke-width="2.17391"/>
</svg>
