<svg width="80" height="82" viewBox="0 0 80 82" fill="none" xmlns="http://www.w3.org/2000/svg">
<circle cx="40" cy="40.0015" r="40" fill="white"/>
<g filter="url(#filter0_d_611_9499)">
<rect x="35.7246" y="34.7241" width="21.9124" height="21.9124" rx="10.9562" fill="#6E60F6"/>
<path d="M50.5343 43.998C50.5343 44.4792 50.4239 44.9209 50.203 45.3232C49.9821 45.7177 49.6429 46.0372 49.1854 46.2817C48.7278 46.5262 48.1599 46.6485 47.4815 46.6485H46.2272V49.6304H44.2038V41.3238H47.4815C48.1441 41.3238 48.7042 41.4382 49.1617 41.6669C49.6192 41.8957 49.9624 42.2112 50.1912 42.6135C50.4199 43.0159 50.5343 43.4773 50.5343 43.998ZM47.3276 45.0393C47.7142 45.0393 48.0021 44.9485 48.1914 44.7671C48.3807 44.5857 48.4754 44.3293 48.4754 43.998C48.4754 43.6667 48.3807 43.4103 48.1914 43.2289C48.0021 43.0474 47.7142 42.9567 47.3276 42.9567H46.2272V45.0393H47.3276Z" fill="white"/>
<path d="M35.0898 35.0859C41.2337 35.0859 46.0469 32.4605 46.0469 29.1094C46.0469 25.7582 41.2337 23 35.0898 23C28.9459 23 24 25.7582 24 29.1094C24 32.4605 28.9459 35.0859 35.0898 35.0859Z" fill="#6E60F6"/>
<path d="M24 45.416V47.0391C24 50.3902 28.9459 53.0156 35.0898 53.0156C35.4383 53.0156 35.776 52.9835 36.1191 52.9667C35.3551 51.7654 34.7852 50.4323 34.4497 49.0073C30.0068 48.8846 26.149 47.5194 24 45.416Z" fill="#6E60F6"/>
<path d="M34.1416 46.9883C34.1188 46.675 34.0938 46.362 34.0938 46.043C34.0938 45.0046 34.2298 43.9996 34.4618 43.0312C30.0134 42.9107 26.151 41.5447 24 39.4395V41.0625C24 44.2358 28.4666 46.7297 34.1416 46.9883Z" fill="#6E60F6"/>
<path d="M35.0898 41.0625C35.0909 41.0625 35.0918 41.0624 35.0929 41.0624C35.7499 39.4922 36.7048 38.0769 37.8908 36.891C36.9912 37.0047 36.0615 37.0781 35.0898 37.0781C30.3606 37.0781 26.2529 35.6678 24 33.4629V35.0859C24 38.4371 28.9459 41.0625 35.0898 41.0625Z" fill="#6E60F6"/>
</g>
<defs>
<filter id="filter0_d_611_9499" x="9" y="18" width="63.6367" height="63.6367" filterUnits="userSpaceOnUse" color-interpolation-filters="sRGB">
<feFlood flood-opacity="0" result="BackgroundImageFix"/>
<feColorMatrix in="SourceAlpha" type="matrix" values="0 0 0 0 0 0 0 0 0 0 0 0 0 0 0 0 0 0 127 0" result="hardAlpha"/>
<feOffset dy="10"/>
<feGaussianBlur stdDeviation="7.5"/>
<feComposite in2="hardAlpha" operator="out"/>
<feColorMatrix type="matrix" values="0 0 0 0 0.443137 0 0 0 0 0.0941176 0 0 0 0 0.937255 0 0 0 0.15 0"/>
<feBlend mode="normal" in2="BackgroundImageFix" result="effect1_dropShadow_611_9499"/>
<feBlend mode="normal" in="SourceGraphic" in2="effect1_dropShadow_611_9499" result="shape"/>
</filter>
</defs>
</svg>
