<svg width="1440" height="306" viewBox="0 0 1440 306" fill="none" xmlns="http://www.w3.org/2000/svg">
<g clip-path="url(#clip0_611_17402)">
<rect width="1440" height="306" fill="#66D5C0"/>
<mask id="mask0_611_17402" style="mask-type:luminance" maskUnits="userSpaceOnUse" x="44" y="-51" width="1363" height="766">
<path d="M1406.06 -50.7017H44.9365V714.702H1406.06V-50.7017Z" fill="white"/>
</mask>
<g mask="url(#mask0_611_17402)">
<path style="mix-blend-mode:multiply" opacity="0.25" d="M52.3726 2.93318V110.097H11V112.932H52.3726V220.095H11V222.93H52.3726V330.094H11V332.928H52.3726V440.092H11V442.927H52.3726V550.09H11V552.925H52.3726V660.089H11V662.924H52.3726V773H55.2083V662.924H162.404V773H165.24V662.924H272.436V773H275.271V662.924H382.467V773H385.303V662.924H492.499V773H495.335V662.924H602.531V773H605.366V662.924H712.562V773H715.398V662.924H822.594V773H825.429V662.924H932.625V773H935.461V662.924H1042.66V773H1045.49V662.924H1152.69V773H1155.52V662.924H1262.72V773H1265.56V662.924H1372.75V773H1375.59V662.924H1440V660.089H1375.59V552.925H1440V550.09H1375.59V442.927H1440V440.092H1375.59V332.928H1440V330.094H1375.59V222.93H1440V220.095H1375.59V112.932H1440V110.097H1375.59V2.93318H1440V0.0983505H1375.59V-109H1372.75V0.0983505H1265.56V-109H1262.72V0.0983505H1155.52V-109H1152.69V0.0983505H1045.49V-109H1042.66V0.0983505H935.461V-109H932.625V0.0983505H825.429V-109H822.594V0.0983505H715.398V-109H712.562V0.0983505H605.366V-109H602.531V0.0983505H495.335V-109H492.499V0.0983505H385.303V-109H382.467V0.0983505H275.271V-109H272.436V0.0983505H165.24V-109H162.404V0.0983505H55.2083V-109H52.3726V0.0983505H11V2.93318H52.3726ZM272.436 2.93318V110.097H165.24V2.93318H272.436ZM495.335 222.93H602.531V330.094H495.335V222.93ZM492.499 330.094H385.303V222.93H492.499V330.094ZM605.366 222.93H712.562V330.094H605.366V222.93ZM715.398 222.93H822.594V330.094H715.398V222.93ZM825.429 222.93H932.625V330.094H825.429V222.93ZM935.461 222.93H1042.66V330.094H935.461V222.93ZM1045.49 222.93H1152.69V330.094H1045.49V222.93ZM1152.69 332.928V440.092H1045.49V332.928H1152.69ZM1042.66 440.092H935.461V332.928H1042.66V440.092ZM932.625 440.092H825.429V332.928H932.625V440.092ZM822.594 440.092H715.398V332.928H822.594V440.092ZM712.562 440.092H605.366V332.928H712.562V440.092ZM602.531 440.092H495.335V332.928H602.531V440.092ZM492.499 440.092H385.303V332.928H492.499V440.092ZM382.467 440.092H275.271V332.928H382.467V440.092ZM275.271 330.094V222.93H382.467V330.094H275.271ZM275.271 220.095V112.932H382.467V220.095H275.271ZM385.303 112.932H492.499V220.095H385.303V112.932ZM495.335 112.932H602.531V220.095H495.335V112.932ZM605.366 112.932H712.562V220.095H605.366V112.932ZM715.398 112.932H822.594V220.095H715.398V112.932ZM825.429 112.932H932.625V220.095H825.429V112.932ZM935.461 112.932H1042.66V220.095H935.461V112.932ZM1045.49 112.932H1152.69V220.095H1045.49V112.932ZM1155.52 112.932H1262.72V220.095H1155.52V112.932ZM1262.72 222.93V330.094H1155.52V222.93H1262.72ZM1262.72 332.928V440.092H1155.52V332.928H1262.72ZM1262.72 442.927V550.09H1155.52V442.927H1262.72ZM1152.69 550.09H1045.49V442.927H1152.69V550.09ZM1042.66 550.09H935.461V442.927H1042.66V550.09ZM932.625 550.09H825.429V442.927H932.625V550.09ZM822.594 550.09H715.398V442.927H822.594V550.09ZM712.562 550.09H605.366V442.927H712.562V550.09ZM602.531 550.09H495.335V442.927H602.531V550.09ZM492.499 550.09H385.303V442.927H492.499V550.09ZM382.467 550.09H275.271V442.927H382.467V550.09ZM272.436 550.09H165.24V442.927H272.436V550.09ZM165.24 440.092V332.928H272.436V440.092H165.24ZM165.24 330.094V222.93H272.436V330.094H165.24ZM165.24 220.095V112.932H272.436V220.095H165.24ZM382.467 2.93318V110.097H275.271V2.93318H382.467ZM492.499 2.93318V110.097H385.303V2.93318H492.499ZM602.531 2.93318V110.097H495.335V2.93318H602.531ZM712.562 2.93318V110.097H605.366V2.93318H712.562ZM822.594 2.93318V110.097H715.398V2.93318H822.594ZM932.625 2.93318V110.097H825.429V2.93318H932.625ZM1042.66 2.93318V110.097H935.461V2.93318H1042.66ZM1152.69 2.93318V110.097H1045.49V2.93318H1152.69ZM1262.72 2.93318V110.097H1155.52V2.93318H1262.72ZM1372.75 110.097H1265.56V2.93318H1372.75V110.097ZM1372.75 220.095H1265.56V112.932H1372.75V220.095ZM1372.75 330.094H1265.56V222.93H1372.75V330.094ZM1372.75 440.092H1265.56V332.928H1372.75V440.092ZM1372.75 550.09H1265.56V442.927H1372.75V550.09ZM1265.56 660.089V552.925H1372.75V660.089H1265.56ZM1155.52 660.089V552.925H1262.72V660.089H1155.52ZM1045.49 660.089V552.925H1152.69V660.089H1045.49ZM935.461 660.089V552.925H1042.66V660.089H935.461ZM825.429 660.089V552.925H932.625V660.089H825.429ZM715.398 660.089V552.925H822.594V660.089H715.398ZM605.366 660.089V552.925H712.562V660.089H605.366ZM495.335 660.089V552.925H602.531V660.089H495.335ZM385.303 660.089V552.925H492.499V660.089H385.303ZM275.271 660.089V552.925H382.467V660.089H275.271ZM165.24 660.089V552.925H272.436V660.089H165.24ZM55.2083 552.925H162.404V660.089H55.2083V552.925ZM55.2083 442.927H162.404V550.09H55.2083V442.927ZM55.2083 332.928H162.404V440.092H55.2083V332.928ZM55.2083 222.93H162.404V330.094H55.2083V222.93ZM55.2083 112.932H162.404V220.095H55.2083V112.932ZM55.2083 2.93318H162.404V110.097H55.2083V2.93318Z" fill="url(#paint0_radial_611_17402)"/>
</g>
</g>
<defs>
<radialGradient id="paint0_radial_611_17402" cx="0" cy="0" r="1" gradientUnits="userSpaceOnUse" gradientTransform="translate(543 222.5) rotate(180) scale(805 378.327)">
<stop stop-color="#59CAFF"/>
<stop offset="1" stop-color="white" stop-opacity="0"/>
</radialGradient>
<clipPath id="clip0_611_17402">
<rect width="1440" height="306" fill="white"/>
</clipPath>
</defs>
</svg>
