<svg width="26" height="26" viewBox="0 0 26 26" fill="none" xmlns="http://www.w3.org/2000/svg">
<path d="M23.0091 24.0272C23.6812 24.0272 24.2262 23.4822 24.2262 22.81V3.19196C24.2262 2.51966 23.6813 1.97485 23.0091 1.97485H3.39095C2.71864 1.97485 2.17383 2.51966 2.17383 3.19196V22.81C2.17383 23.4821 2.71855 24.0272 3.39095 24.0272H23.0091Z" fill="#3C5A99"/>
<path d="M17.3908 24.0271V15.4873H20.2572L20.6865 12.1591H17.3908V10.0343C17.3908 9.07073 17.6584 8.41408 19.0401 8.41408L20.8025 8.41331V5.43659C20.4977 5.39604 19.4515 5.30542 18.2344 5.30542C15.6935 5.30542 13.9539 6.85641 13.9539 9.70469V12.1591H11.0801V15.4873H13.9539V24.0271H17.3908Z" fill="white"/>
</svg>
