<svg width="25" height="24" viewBox="0 0 25 24" fill="none" xmlns="http://www.w3.org/2000/svg">
<path d="M23.2994 12.2331C23.2994 11.3698 23.2279 10.7398 23.0732 10.0864H13.0137V13.983H18.9184C18.7994 14.9514 18.1565 16.4097 16.7279 17.3897L16.7079 17.5202L19.8885 19.9349L20.1089 19.9564C22.1327 18.1247 23.2994 15.4297 23.2994 12.2331Z" fill="#4285F4"/>
<path d="M13.0128 22.5001C15.9056 22.5001 18.3342 21.5667 20.108 19.9567L16.7271 17.39C15.8223 18.0083 14.608 18.44 13.0128 18.44C10.1795 18.44 7.77479 16.6083 6.91757 14.0767L6.79192 14.0871L3.48466 16.5955L3.44141 16.7133C5.20329 20.1433 8.82233 22.5001 13.0128 22.5001Z" fill="#34A853"/>
<path d="M6.91978 14.0762C6.69359 13.4229 6.56269 12.7229 6.56269 11.9996C6.56269 11.2762 6.69359 10.5762 6.90788 9.92288L6.90189 9.78374L3.55317 7.23511L3.44361 7.28618C2.71745 8.70953 2.30078 10.3079 2.30078 11.9996C2.30078 13.6912 2.71745 15.2895 3.44361 16.7129L6.91978 14.0762Z" fill="#FBBC05"/>
<path d="M13.0129 5.55997C15.0248 5.55997 16.3819 6.41163 17.1557 7.12335L20.1795 4.23C18.3224 2.53834 15.9057 1.5 13.0129 1.5C8.82236 1.5 5.2033 3.85665 3.44141 7.28662L6.90568 9.92332C7.77481 7.39166 10.1796 5.55997 13.0129 5.55997Z" fill="#EB4335"/>
</svg>
