<svg width="16" height="15" viewBox="0 0 16 15" fill="none" xmlns="http://www.w3.org/2000/svg">
<path fill-rule="evenodd" clip-rule="evenodd" d="M8.67054 0.553168L10.1661 5.45517H15.0039C15.7833 5.45517 16.1074 6.44517 15.4766 6.90117L11.5621 9.38517L13.0577 13.9527C13.2996 14.6877 12.4491 15.2997 11.8183 14.8452L7.90535 12.0222L3.99086 14.8452C3.36005 15.2997 2.51265 14.6877 2.75296 13.9527L4.24698 9.38517L0.334074 6.90117C-0.298315 6.44517 0.0273651 5.45517 0.806784 5.45517H5.64456L7.14016 0.553168C7.18628 0.394195 7.28612 0.25398 7.42435 0.15405C7.56258 0.05412 7.73156 0 7.90535 0C8.07913 0 8.24812 0.05412 8.38635 0.15405C8.52458 0.25398 8.62442 0.394195 8.67054 0.553168Z" fill="#FF5C00"/>
</svg>
