<svg width="17" height="16" viewBox="0 0 17 16" fill="none" xmlns="http://www.w3.org/2000/svg">
<path fill-rule="evenodd" clip-rule="evenodd" d="M9.28413 1.05317L10.7798 5.95517H15.6177C16.3972 5.95517 16.7213 6.94517 16.0904 7.40117L12.1758 9.88517L13.6715 14.4527C13.9134 15.1877 13.0628 15.7997 12.432 15.3452L8.51891 12.5222L4.60428 15.3452C3.97345 15.7997 3.12602 15.1877 3.36634 14.4527L4.86041 9.88517L0.947367 7.40117C0.314956 6.94517 0.640647 5.95517 1.42009 5.95517H6.25804L7.75369 1.05317C7.79981 0.894195 7.89966 0.75398 8.03789 0.65405C8.17613 0.55412 8.34512 0.5 8.51891 0.5C8.6927 0.5 8.86169 0.55412 8.99992 0.65405C9.13816 0.75398 9.23801 0.894195 9.28413 1.05317Z" fill="#F5A623"/>
</svg>
