<svg width="100" height="101" viewBox="0 0 100 101" fill="none" xmlns="http://www.w3.org/2000/svg">
<path d="M50 100.5C77.6142 100.5 100 78.1142 100 50.5C100 22.8858 77.6142 0.5 50 0.5C22.3858 0.5 0 22.8858 0 50.5C0 78.1142 22.3858 100.5 50 100.5Z" fill="#66D5C0" fill-opacity="0.3"/>
<path d="M49.617 84.73C68.7343 84.73 84.2319 69.2323 84.2319 50.115C84.2319 30.9977 68.7343 15.5 49.617 15.5C30.4996 15.5 15.002 30.9977 15.002 50.115C15.002 69.2323 30.4996 84.73 49.617 84.73Z" fill="#66D5C0"/>
<path d="M32.5 48.625L45 61.75L67.5 39.25" stroke="white" stroke-width="8.55"/>
</svg>
