<svg width="40" height="40" viewBox="0 0 40 40" fill="none" xmlns="http://www.w3.org/2000/svg">
<path d="M24 12.7332H24.0167M19.8333 34.3999H9C7.67392 34.3999 6.40215 33.8731 5.46447 32.9354C4.52678 31.9978 4 30.726 4 29.3999V9.3999C4 8.07382 4.52678 6.80205 5.46447 5.86437C6.40215 4.92669 7.67392 4.3999 9 4.3999H29C30.3261 4.3999 31.5979 4.92669 32.5355 5.86437C33.4732 6.80205 34 8.07382 34 9.3999V20.2332" stroke="#B3B3B3" stroke-width="2" stroke-linecap="round" stroke-linejoin="round"/>
<path d="M4 26.0665L12.3333 17.7332C13.88 16.2449 15.7867 16.2449 17.3333 17.7332L24 24.3999" stroke="#B3B3B3" stroke-width="2" stroke-linecap="round" stroke-linejoin="round"/>
<path d="M22.333 22.7332L23.9997 21.0665C25.1163 19.9932 26.4163 19.6932 27.6363 20.1665M25.6663 31.0665H35.6663M30.6663 26.0665V36.0665" stroke="#B3B3B3" stroke-width="2" stroke-linecap="round" stroke-linejoin="round"/>
</svg>
