<svg width="309" height="309" viewBox="0 0 309 309" fill="none" xmlns="http://www.w3.org/2000/svg">
<g clip-path="url(#clip0_743_25464)">
<rect x="1" y="1" width="308" height="308" rx="30" fill="#FFC885"/>
<path d="M460 309C460 309 440.836 170.011 322.474 167.078C202.429 164.099 201.845 247.54 114.35 256.318C26.8545 265.097 -70.0321 152.645 -149 309H460Z" fill="#F0A141"/>
<g clip-path="url(#clip1_743_25464)">
<path d="M100.909 87H239.087C242.898 87 245.996 90.0831 245.996 93.8768V277.081C245.996 280.875 242.898 283.958 239.087 283.958H100.909C97.0975 283.958 94 280.875 94 277.081V93.8768C94 90.0831 97.0975 87 100.909 87Z" fill="#49263E"/>
<path d="M226.43 101.231H113.579C109.763 101.231 106.67 104.31 106.67 108.108V139.437C106.67 143.235 109.763 146.314 113.579 146.314H226.434C230.249 146.314 233.343 143.235 233.343 139.437V108.108C233.343 104.31 230.249 101.231 226.434 101.231H226.43Z" fill="#FFFAF4"/>
<path d="M204.004 101.231H189.167L155.52 144.818C155.161 145.288 154.882 145.79 154.673 146.314H169.856L202.914 103.487C203.448 102.793 203.807 102.024 204.004 101.227V101.231Z" fill="#F8F1E3"/>
<path d="M194.874 128.289C196.336 129.407 198.431 129.133 199.554 127.678L219.972 101.231H211.556L194.265 123.631C193.142 125.086 193.418 127.171 194.879 128.289H194.874Z" fill="#F8F1E3"/>
<path d="M208.967 208.404H226.241C230.052 208.404 233.15 211.487 233.15 215.281V261.893C233.15 265.691 230.052 268.77 226.241 268.77H208.967C205.155 268.77 202.058 265.687 202.058 261.893V215.281C202.058 211.487 205.155 208.404 208.967 208.404Z" fill="#41CFC1"/>
<path d="M111.75 240.989H130.068C132.714 240.989 134.864 243.129 134.864 245.764V263.996C134.864 266.631 132.714 268.771 130.068 268.771H111.75C109.103 268.771 106.953 266.631 106.953 263.996V245.764C106.953 243.129 109.103 240.989 111.75 240.989Z" fill="#75A3D6"/>
<path d="M143.147 240.989H161.465C164.112 240.989 166.262 243.129 166.262 245.764V263.996C166.262 266.631 164.112 268.771 161.465 268.771H143.147C140.5 268.771 138.351 266.631 138.351 263.996V245.764C138.351 243.129 140.5 240.989 143.147 240.989Z" fill="#75A3D6"/>
<path d="M175.391 240.989H193.709C196.356 240.989 198.506 243.129 198.506 245.764V263.996C198.506 266.631 196.356 268.771 193.709 268.771H175.391C172.745 268.771 170.595 266.631 170.595 263.996V245.764C170.595 243.129 172.745 240.989 175.391 240.989Z" fill="#75A3D6"/>
<path d="M111.75 208.404H130.068C132.714 208.404 134.864 210.544 134.864 213.179V231.411C134.864 234.046 132.714 236.186 130.068 236.186H111.75C109.103 236.186 106.953 234.046 106.953 231.411V213.179C106.953 210.544 109.103 208.404 111.75 208.404Z" fill="#75A3D6"/>
<path d="M143.147 208.404H161.465C164.112 208.404 166.262 210.544 166.262 213.179V231.411C166.262 234.046 164.112 236.186 161.465 236.186H143.147C140.5 236.186 138.351 234.046 138.351 231.411V213.179C138.351 210.544 140.5 208.404 143.147 208.404Z" fill="#75A3D6"/>
<path d="M175.391 208.404H193.709C196.356 208.404 198.506 210.544 198.506 213.179V231.411C198.506 234.046 196.356 236.186 193.709 236.186H175.391C172.745 236.186 170.595 234.046 170.595 231.411V213.179C170.595 210.544 172.745 208.404 175.391 208.404Z" fill="#75A3D6"/>
<path d="M129.647 175.737H111.329C108.68 175.737 106.532 177.875 106.532 180.512V198.744C106.532 201.381 108.68 203.519 111.329 203.519H129.647C132.296 203.519 134.443 201.381 134.443 198.744V180.512C134.443 177.875 132.296 175.737 129.647 175.737Z" fill="#75A3D6"/>
<path d="M142.725 175.737H161.043C163.69 175.737 165.84 177.877 165.84 180.512V198.744C165.84 201.379 163.69 203.519 161.043 203.519H142.725C140.079 203.519 137.929 201.379 137.929 198.744V180.512C137.929 177.877 140.079 175.737 142.725 175.737Z" fill="#75A3D6"/>
<path d="M174.969 175.737H193.287C195.934 175.737 198.084 177.877 198.084 180.512V198.744C198.084 201.379 195.934 203.519 193.287 203.519H174.969C172.323 203.519 170.173 201.379 170.173 198.744V180.512C170.173 177.877 172.323 175.737 174.969 175.737Z" fill="#75A3D6"/>
<path d="M208.967 175.737H226.241C230.052 175.737 233.15 178.82 233.15 182.614V196.642C233.15 200.435 230.052 203.519 226.241 203.519H208.967C205.151 203.519 202.058 200.435 202.058 196.642V182.618C202.058 178.82 205.155 175.741 208.967 175.741V175.737Z" fill="#42AA92"/>
<path d="M113.441 154.338H191.171C194.987 154.338 198.08 157.421 198.08 161.215V161.406C198.08 165.199 194.983 168.283 191.171 168.283H113.441C109.63 168.283 106.532 165.199 106.532 161.406V161.215C106.532 157.417 109.63 154.338 113.441 154.338Z" fill="#C2E1F4"/>
<path d="M210.912 154.338H226.237C230.052 154.338 233.146 157.421 233.146 161.215V161.884C233.146 165.677 230.048 168.76 226.237 168.76H210.908C207.097 168.76 203.999 165.677 203.999 161.884V161.215C203.999 157.417 207.097 154.338 210.908 154.338H210.912Z" fill="#C2E1F4"/>
</g>
<path d="M120.999 204.221C121.195 228.252 101.859 247.851 77.8281 248.015C53.7971 248.18 34.198 228.876 34.001 204.845C33.8369 180.847 53.1733 161.215 77.2043 161.051C101.235 160.887 120.834 180.19 120.999 204.221Z" fill="#FFB21B"/>
<path d="M118.799 204.255C118.963 227.071 100.612 245.653 77.8281 245.85C55.0447 246.014 36.3977 227.662 36.2335 204.879C36.0694 182.095 54.4209 163.448 77.2044 163.284C99.9879 163.12 118.602 181.472 118.766 204.255H118.799Z" fill="#FFC91D"/>
<path d="M110.033 204.286C110.164 222.244 95.7191 236.919 77.7615 237.05C59.8039 237.181 45.1293 222.736 44.998 204.746C44.8666 186.788 59.3115 172.114 77.3019 171.982C95.2595 171.851 109.934 186.296 110.065 204.286H110.033Z" fill="#FFB21B"/>
<path d="M108.688 205.665C108.819 222.868 94.9651 236.919 77.7626 237.05C60.5601 237.181 46.5092 223.327 46.3779 206.125C46.2466 188.922 60.1005 174.872 77.303 174.74C94.5055 174.609 108.556 188.463 108.688 205.665Z" fill="#FFE984"/>
<path d="M75.0367 224.707V220.012C71.6881 219.881 68.4709 219.027 66.5996 217.944L68.0441 212.166C70.1452 213.282 73.067 214.3 76.2514 214.267C79.0747 214.267 80.9788 213.151 80.9788 211.181C80.9788 209.31 79.3702 208.128 75.7261 206.913C70.4406 205.173 66.7966 202.744 66.7638 197.951C66.7638 193.618 69.784 190.171 75.0695 189.12V184.425L79.8626 184.393V188.726C83.2112 188.857 85.4436 189.514 87.085 190.302L85.7062 195.883C84.393 195.358 82.1278 194.241 78.5823 194.274C75.365 194.274 74.3473 195.686 74.3473 197.065C74.3473 198.706 76.0873 199.724 80.3222 201.267C86.2315 203.302 88.5952 205.994 88.628 210.459C88.6608 214.858 85.5749 218.633 79.8954 219.651V224.707L75.1024 224.74L75.0367 224.707Z" fill="#FFB21B"/>
</g>
<path d="M0 0H84V38C84 49.0457 75.0457 58 64 58H0V0Z" fill="white"/>
<g clip-path="url(#clip2_743_25464)">
<path d="M24.6257 16.7578C25.7084 16.2358 26.9844 15.9748 28.4537 15.9748C29.923 15.9748 31.1894 16.2358 32.2527 16.7578C33.3354 17.2798 34.186 18.0242 34.8047 18.9908C35.4234 19.9575 35.8777 21.0595 36.1677 22.2968C36.4577 23.5148 36.6027 24.8972 36.6027 26.4438C36.6027 27.9905 36.4577 29.3825 36.1677 30.6198C35.8777 31.8378 35.4234 32.9301 34.8047 33.8968C34.186 34.8635 33.3354 35.6078 32.2527 36.1298C31.1894 36.6518 29.923 36.9128 28.4537 36.9128C26.9844 36.9128 25.7084 36.6518 24.6257 36.1298C23.5624 35.6078 22.7214 34.8635 22.1027 33.8968C21.484 32.9301 21.0297 31.8378 20.7397 30.6198C20.4497 29.3825 20.3047 27.9905 20.3047 26.4438C20.3047 24.8972 20.4497 23.5148 20.7397 22.2968C21.0297 21.0595 21.484 19.9575 22.1027 18.9908C22.7214 18.0242 23.5624 17.2798 24.6257 16.7578ZM29.9037 20.9628C29.4977 20.7308 29.0144 20.6148 28.4537 20.6148C27.893 20.6148 27.4 20.7308 26.9747 20.9628C26.5687 21.1755 26.2497 21.4462 26.0177 21.7748C25.805 22.1035 25.631 22.5385 25.4957 23.0798C25.3604 23.6212 25.2734 24.1432 25.2347 24.6458C25.196 25.1485 25.1767 25.7478 25.1767 26.4438C25.1767 27.1398 25.196 27.7391 25.2347 28.2418C25.2734 28.7445 25.3604 29.2665 25.4957 29.8078C25.631 30.3491 25.805 30.7841 26.0177 31.1128C26.2497 31.4415 26.5687 31.7218 26.9747 31.9538C27.4 32.1665 27.893 32.2728 28.4537 32.2728C29.0144 32.2728 29.4977 32.1665 29.9037 31.9538C30.329 31.7218 30.648 31.4415 30.8607 31.1128C31.0927 30.7841 31.2764 30.3491 31.4117 29.8078C31.547 29.2665 31.634 28.7445 31.6727 28.2418C31.7114 27.7391 31.7307 27.1398 31.7307 26.4438C31.7307 25.7478 31.7114 25.1485 31.6727 24.6458C31.634 24.1432 31.547 23.6212 31.4117 23.0798C31.2764 22.5385 31.0927 22.1035 30.8607 21.7748C30.648 21.4462 30.329 21.1755 29.9037 20.9628ZM48.2417 19.6578C46.9077 19.6578 46.173 20.3732 46.0377 21.8038H41.2237C41.2237 19.7738 41.8713 18.2078 43.1667 17.1058C44.4813 15.9845 46.2213 15.4238 48.3867 15.4238C50.552 15.4238 52.234 15.9555 53.4327 17.0188C54.6313 18.0822 55.2307 19.4355 55.2307 21.0788C55.2307 22.3742 54.9117 23.4278 54.2737 24.2398C53.655 25.0518 53.017 25.5931 52.3597 25.8638V25.9798C54.525 26.8111 55.6077 28.4835 55.6077 30.9968C55.6077 32.8915 54.9697 34.3898 53.6937 35.4918C52.437 36.5745 50.6873 37.1158 48.4447 37.1158C46.2213 37.1158 44.404 36.5455 42.9927 35.4048C41.5813 34.2641 40.8757 32.5628 40.8757 30.3008H45.6897C45.709 31.1515 45.9507 31.8281 46.4147 32.3308C46.8787 32.8141 47.5167 33.0558 48.3287 33.0558C49.16 33.0558 49.7787 32.8335 50.1847 32.3888C50.61 31.9441 50.8227 31.3158 50.8227 30.5038C50.8227 29.6725 50.5327 29.0538 49.9527 28.6478C49.3727 28.2418 48.4253 28.0388 47.1107 28.0388H46.1827V24.0078H47.1107C49.3147 24.0078 50.4167 23.2345 50.4167 21.6878C50.4167 21.0692 50.2137 20.5762 49.8077 20.2088C49.421 19.8415 48.899 19.6578 48.2417 19.6578Z" fill="#222222"/>
</g>
<defs>
<clipPath id="clip0_743_25464">
<rect x="1" y="1" width="308" height="308" rx="30" fill="white"/>
</clipPath>
<clipPath id="clip1_743_25464">
<rect width="152" height="196.958" fill="white" transform="translate(94 87)"/>
</clipPath>
<clipPath id="clip2_743_25464">
<rect width="36" height="23" fill="white" transform="translate(20 15)"/>
</clipPath>
</defs>
</svg>
