<svg width="376" height="250" viewBox="0 0 376 250" fill="none" xmlns="http://www.w3.org/2000/svg">
<path d="M38.3416 225.381C7.99696 201.524 -1.68068 159.224 0.231821 122.351C2.30953 82.3839 20.0427 43.413 60.7508 30.7514C84.2265 23.4469 108.984 26.6311 132.379 32.5338C154.774 38.1811 177.083 49.7112 200.819 46.4519C214.982 44.5094 227.353 37.4902 240.33 32.0281C255.095 25.815 271.241 21.995 287.297 22C303.903 22.005 320.72 26.3607 334.398 35.778C353.048 48.6198 364.563 69.8976 369.955 91.8913C377.489 122.631 379.051 157.176 368.423 187.396C359.631 212.379 342.484 231.784 317.266 240.085C289.81 249.122 260.346 249.157 231.754 249.092C202.356 249.026 172.962 248.961 143.564 248.891C108.068 248.816 67.6649 248.441 38.3416 225.381Z" fill="#CBE7EF"/>
<path d="M231.378 200.423C231.378 200.423 229.105 179.601 243.634 173.738C258.163 167.875 263.971 189.003 264.236 187.081C264.502 185.158 255.57 148.17 267.671 138.147C279.767 128.124 287.076 150.348 287.076 150.348C287.076 150.348 285.244 141.661 294.17 142.237C303.102 142.813 298.781 167.986 298.781 167.986C298.781 167.986 308.664 155.7 317.982 158.909C327.299 162.113 310.016 192.357 310.016 192.357C310.016 192.357 324.755 184.828 328.165 195.532C331.574 206.23 319.524 215.402 319.524 215.402C319.524 215.402 337.752 219.938 338.573 234.412C339.395 248.886 339.395 248.886 339.395 248.886C339.395 248.886 214.101 247.409 213.826 247.414C213.545 247.419 207.823 227.303 214.556 221.095C221.295 214.887 216.819 210.01 221.796 203.632C226.772 197.254 231.378 200.423 231.378 200.423Z" fill="#80C7A7"/>
<path d="M254.163 141.416C253.207 139.163 251.545 136.655 249.137 136.189C246.644 135.704 244.05 137.446 243.77 140.024C243.565 141.927 244.391 143.789 245.372 145.431C246.548 147.404 252.366 155.93 254.984 151.644C255.595 150.643 255.575 149.391 255.5 148.22C255.35 145.902 255.04 143.559 254.163 141.416Z" fill="#80C7A7"/>
<path d="M49.7454 249C49.7454 249 20.1405 243.151 20.6987 236.87C21.5234 227.698 30.5755 226.744 30.5755 226.744C30.5755 226.744 10.251 216.823 16.0363 206.882C21.8152 196.936 47.0621 208.202 47.0621 208.202C47.0621 208.202 26.5537 180.182 38.4223 171.517C50.2846 162.851 60.1423 184.149 59.7744 183.32C59.4065 182.492 53.4309 162.57 63.0222 161.044C72.6135 159.518 79.3122 198.372 78.9823 196.931C78.6461 195.49 84.8754 181.689 99.1482 188.446C113.421 195.199 112.749 224.695 112.749 224.695C112.749 224.695 114.068 200.39 129.8 203.137C145.532 205.888 144.44 222.531 144.802 222.155C145.17 221.773 163.065 198.091 180.027 190.289C196.99 182.492 222.053 188.125 222.053 188.125L224 249H49.7454Z" fill="#3F9896"/>
<path d="M76.938 167.96C76.9431 167.89 76.9481 167.82 76.9581 167.75C77.1784 164.972 76.7979 161.307 74.4448 159.429C72.0066 157.487 68.2117 157.912 66.4443 160.556C65.1426 162.503 64.9874 164.997 65.1176 167.335C65.2778 170.148 66.7598 182.7 72.0366 179.531C73.2683 178.79 73.9592 177.423 74.5399 176.106C75.6864 173.508 76.6777 170.789 76.938 167.96Z" fill="#3F9896"/>
<path d="M323.238 180.116C323.083 182.149 324.064 183.841 327.053 182.795C329.206 182.039 331.474 179.756 331.164 177.308C330.938 175.52 329.446 174.299 327.604 174.589C326.287 174.799 325.171 175.711 324.41 176.802C323.769 177.733 323.328 178.98 323.238 180.116Z" fill="#80C7A7"/>
<path d="M221.215 81.8233H332.781C332.781 81.8233 323.563 68.0804 314.537 67.75C305.51 67.4195 291.877 69.7225 291.877 69.7225C291.877 69.7225 297.039 43.7987 280.537 43.2229C264.036 42.6472 247.519 67.034 247.519 67.034C247.519 67.034 236.615 62.6283 229.275 65.497C223.518 67.755 221.215 81.8233 221.215 81.8233Z" fill="white"/>
<path d="M42.002 69.0766H98.4106C98.4106 69.0766 84.3322 45.0352 72.8823 47.5535C61.4323 50.0718 60.406 57.2962 60.406 57.2962C60.406 57.2962 44.4552 58.7081 42.002 69.0766Z" fill="white"/>
<path d="M46.7168 226.021H76.5701V244.4C76.5701 247.343 74.1823 249.731 71.2396 249.731H52.0473C49.1045 249.731 46.7168 247.343 46.7168 244.4V226.021Z" fill="#040701"/>
<path d="M173.436 226.021H203.289V244.4C203.289 247.343 200.901 249.731 197.958 249.731H178.766C175.823 249.731 173.436 247.343 173.436 244.4V226.021Z" fill="#040701"/>
<path d="M39.4768 151.343C39.2703 150.826 37.4633 141.856 36.5341 137.171C36.2114 135.545 34.7787 134.383 33.1138 134.383H24.092C20.7233 134.383 18 137.12 18 140.475V140.733C18 142.721 19.6133 144.334 21.601 144.334H32.6104L35.1401 153.163L39.4897 151.343H39.4768Z" fill="#E1AA2F"/>
<path d="M211.523 151.343C211.729 150.826 213.536 141.856 214.465 137.171C214.788 135.545 216.221 134.383 217.886 134.383H226.908C230.276 134.383 232.999 137.12 232.999 140.475V140.733C232.999 142.721 231.386 144.334 229.398 144.334H218.389L215.859 153.163L211.51 151.343H211.523Z" fill="#E1AA2F"/>
<path d="M219.59 159.939H219.603L189.943 104.712C188.433 101.898 185.49 100.143 182.302 100.143H67.7681C64.5285 100.143 61.56 101.95 60.0628 104.828L31.4873 159.939H31.5002C30.829 161.024 30.416 162.276 30.416 163.644V218.962C30.416 224.434 34.8559 228.874 40.3284 228.874H210.736C216.208 228.874 220.648 224.434 220.648 218.962V163.644C220.648 162.276 220.248 161.011 219.564 159.939H219.59Z" fill="#FFD333"/>
<path d="M46.5887 150.75L65.3809 112.314C66.5942 109.823 69.1239 108.248 71.8988 108.248H176.96C179.605 108.248 182.045 109.694 183.323 112.017L204.386 150.492C206.671 154.661 203.651 159.733 198.914 159.733H52.2032C47.5825 159.733 44.5624 154.893 46.5887 150.737V150.75Z" fill="#3B3D51"/>
<mask id="mask0_611_8912" style="mask-type:luminance" maskUnits="userSpaceOnUse" x="45" y="108" width="161" height="52">
<path d="M46.5887 150.75L65.3809 112.314C66.5942 109.823 69.1239 108.248 71.8988 108.248H176.96C179.605 108.248 182.045 109.694 183.323 112.017L204.386 150.492C206.671 154.661 203.651 159.733 198.914 159.733H52.2032C47.5825 159.733 44.5624 154.893 46.5887 150.737V150.75Z" fill="white"/>
</mask>
<g mask="url(#mask0_611_8912)">
<path d="M91.8398 91.2746L162.375 182.874H244.888L188.524 82.2012L91.8398 91.2746Z" fill="#46495E"/>
</g>
<path d="M43.6074 180.72V193.188C43.6074 195.898 45.8145 198.105 48.5249 198.105H78.5718C81.3725 198.105 83.244 195.214 82.0824 192.659L80.8691 189.974C78.6492 185.07 74.248 181.495 68.995 180.294L49.6091 175.906C46.5372 175.209 43.6074 177.545 43.6074 180.707V180.72Z" fill="#F7F7F7"/>
<path d="M207.934 180.72V193.188C207.934 195.898 205.727 198.105 203.017 198.105H172.97C170.169 198.105 168.298 195.214 169.46 192.659L170.673 189.974C172.893 185.07 177.294 181.495 182.547 180.294L201.933 175.906C205.005 175.209 207.934 177.545 207.934 180.707V180.72Z" fill="#F7F7F7"/>
<path d="M30.4297 163.657C30.4297 163.657 106.334 191.509 220.662 163.657" stroke="#1C1C1C" stroke-width="2.27848" stroke-miterlimit="10"/>
<path d="M30.4297 210.47H220.662" stroke="#1C1C1C" stroke-width="2.27848" stroke-miterlimit="10"/>
<path d="M68.6328 215.103H53.6352C53.0935 215.103 52.6543 215.542 52.6543 216.084V222.563C52.6543 223.105 53.0935 223.544 53.6352 223.544H68.6328C69.1746 223.544 69.6137 223.105 69.6137 222.563V216.084C69.6137 215.542 69.1746 215.103 68.6328 215.103Z" fill="#F7F7F7"/>
<path d="M196.021 215.103H181.024C180.482 215.103 180.043 215.542 180.043 216.084V222.563C180.043 223.105 180.482 223.544 181.024 223.544H196.021C196.563 223.544 197.002 223.105 197.002 222.563V216.084C197.002 215.542 196.563 215.103 196.021 215.103Z" fill="#F7F7F7"/>
<path d="M152.604 200.609H94.3299C92.8585 200.609 91.6582 199.409 91.6582 197.937C91.6582 196.466 92.8585 195.266 94.3299 195.266H152.604C154.075 195.266 155.275 196.466 155.275 197.937C155.275 199.409 154.075 200.609 152.604 200.609Z" fill="#AE6919"/>
<path d="M91.6719 188.799H155.276" stroke="#E1AA2F" stroke-width="2.27848" stroke-miterlimit="10"/>
<path d="M153.753 94.708H98.0996V100.155H153.753V94.708Z" fill="#E1AA2F"/>
<path d="M101.455 94.7091L104.411 83.79C105.482 79.8534 109.044 77.1172 113.136 77.1172H138.743C142.821 77.1172 146.396 79.8534 147.468 83.79L150.423 94.7091H101.481H101.455Z" fill="#AE6919"/>
<path d="M115.111 84.5245H112.801V83.0273H119.086V84.5245H116.789V90.5907H115.111V84.5245Z" fill="#F7F7F7"/>
<path d="M125.359 89.2873H121.474L120.919 90.5909H119.1L122.494 83.0146H124.327L127.721 90.5909H125.889L125.334 89.2873H125.359ZM123.423 84.7183L122.12 87.7901H124.727L123.423 84.7183Z" fill="#F7F7F7"/>
<path d="M133.968 83.0146H135.813V83.0921L133.258 86.7834L135.852 90.5393V90.5909H133.981L132.199 87.9321L130.418 90.5909H128.547V90.5393L131.115 86.7834L128.573 83.0921V83.0146H130.418L132.187 85.7122L133.955 83.0146H133.968Z" fill="#F7F7F7"/>
<path d="M137.363 90.5909V83.0146H139.041V90.5909H137.363Z" fill="#F7F7F7"/>
<path d="M327.565 190.455H306.768L309.852 225.766H332.992C338.985 225.766 343.195 219.873 341.258 214.201L334.944 195.727C333.863 192.573 330.899 190.455 327.565 190.455Z" fill="#F75454"/>
<path d="M307.755 142.412L335.851 224.58C338.97 233.702 332.191 243.184 322.549 243.184H285.31L275.047 125.766L287.673 122.011C287.673 122.011 307.384 128.86 308.631 129.806C309.882 130.752 307.755 142.412 307.755 142.412Z" fill="#F9C164"/>
<path d="M275.512 130.997L283.978 227.874C284.704 234.007 285.345 239.289 285.85 243.184H308.92C304.069 217.12 287.467 127.948 286.927 125.765L279.011 124.589L276.868 125.225L275.512 130.997Z" fill="#FFA466"/>
<path d="M300.594 229.406C300.174 229.406 299.803 229.1 299.743 228.67L294.046 191.025C294.006 190.775 294.081 190.525 294.246 190.335C294.406 190.144 294.647 190.034 294.897 190.034H317.436C317.912 190.034 318.302 190.42 318.302 190.9C318.302 191.376 317.917 191.766 317.436 191.766H295.898L301.44 228.419C301.516 228.89 301.19 229.33 300.714 229.401C300.679 229.401 300.634 229.406 300.594 229.406Z" fill="#49263E"/>
<path d="M307.059 160.145L297.521 132.624C296.635 130.066 294.227 128.349 291.524 128.334C283.333 128.299 276.159 128.294 275.072 128.354C275.398 128.334 271.242 116.533 271.242 116.533C272.844 115.577 273.51 115.577 278.692 115.557C280.88 115.552 283.909 115.552 287.689 115.567C294.182 115.587 300.641 115.632 300.641 115.632C303.339 115.652 305.737 117.37 306.623 119.923L320.502 159.97L307.059 160.145Z" fill="#F75454"/>
<path d="M314.107 161.848C313.752 161.848 313.416 161.623 313.291 161.267L299.348 121.375C290.181 121.315 276.819 121.265 275.963 121.365C275.502 121.5 275.076 121.23 274.936 120.774C274.801 120.319 275.111 119.823 275.572 119.688C275.732 119.643 276.238 119.492 299.969 119.653C300.334 119.653 300.66 119.888 300.785 120.233L314.933 160.701C315.089 161.152 314.853 161.648 314.403 161.803C314.298 161.833 314.197 161.848 314.107 161.848Z" fill="#49263E"/>
<path fill-rule="evenodd" clip-rule="evenodd" d="M157.799 144.07C157.799 144.07 177.665 186.866 178.306 185.253L214.558 142.417L249.639 159.209C249.639 159.209 198.347 234.878 174.776 224.81C151.206 214.737 141.027 148.46 141.027 148.46L157.799 144.07Z" fill="#C77965"/>
<path d="M198.842 160.987C199.377 160.351 209.496 167.085 209.496 167.085L211.098 159.099L205.425 153.211L198.842 160.987Z" fill="#49263E"/>
<path fill-rule="evenodd" clip-rule="evenodd" d="M199.652 155.259L214.311 160.986V145.081L200.894 149.341L199.652 155.259Z" fill="#FFBBC8"/>
<path fill-rule="evenodd" clip-rule="evenodd" d="M285.851 169.177C285.746 160.726 283.137 145.957 278.386 131.783C273.024 115.797 247.306 112.378 247.306 112.378C236.406 122.716 233.337 118.591 233.337 118.591C233.337 118.591 199.518 172.221 200.94 180.637C203.784 197.489 214.493 214.406 214.998 214.351L213.226 249.101L293.591 247.675C293.591 247.68 286.066 186.765 285.851 169.177Z" fill="#FFBBC8"/>
<path d="M184.929 197.404C184.633 197.404 184.348 197.254 184.183 196.978L177.559 185.689C177.319 185.278 177.459 184.747 177.869 184.507C178.275 184.267 178.806 184.402 179.056 184.812L185.68 196.102C185.92 196.513 185.78 197.043 185.369 197.284C185.229 197.364 185.079 197.404 184.929 197.404Z" fill="#49263E"/>
<path fill-rule="evenodd" clip-rule="evenodd" d="M263.155 238.733C274.585 234.898 282.245 208.834 286.921 185.173C286.295 178.239 285.895 172.596 285.85 169.177C285.784 163.965 284.768 156.345 282.881 147.949C277.504 149.656 271.921 151.759 271.696 153.206C271.261 156.025 229.105 225.04 229.105 225.04C229.105 225.04 241.587 245.972 263.155 238.733Z" fill="#FF99AF"/>
<path d="M211.679 91.6311C211.679 91.6311 198.482 85.9486 205.246 62.8335C208.505 51.7039 212.125 33.1797 197.18 28.9192C182.236 24.6636 174.055 37.8759 175.592 58.0973C176.618 71.5999 184.073 91.4608 199.223 100.853C207.238 105.82 211.679 91.6311 211.679 91.6311Z" fill="#C6AFC9"/>
<path d="M252.256 86.8747C253.522 75.9104 253.823 64.7809 250.163 54.2371C247.179 45.6359 238.523 39.2976 229.716 37.5153C210.646 33.6552 190.144 50.5022 191.141 69.9526C191.501 76.9718 195.612 82.4539 199.712 87.821C201.314 89.9187 203.071 92.0965 203.907 94.6399C204.839 97.4786 203.887 101.839 200.894 103.126C200.002 103.511 199.016 103.567 198.06 103.727C187.982 105.399 185.368 115.742 189.399 123.933C190.23 125.625 191.221 127.483 190.7 129.295C189.989 131.783 187.005 132.634 184.782 133.956C179.27 137.235 178.234 144.54 181.198 149.942C183.386 153.932 187.561 156.686 192.042 157.477C196.808 158.313 201.71 157.061 206.18 155.214C213.039 152.38 220.229 149.281 226.697 145.621C231.383 142.973 237.717 138.592 236.42 132.334C235.218 126.537 260.642 130.442 257.858 119.192C254.033 103.752 251.535 93.0828 252.256 86.8747Z" fill="#49263E"/>
<path fill-rule="evenodd" clip-rule="evenodd" d="M245.522 82.1283C247.515 78.033 247.69 72.9013 243.294 70.6383C241.246 69.5869 239.599 69.6871 238.283 70.393C235.058 72.1203 231.038 70.6934 229.761 67.2639C229.316 66.0724 229.166 65.2963 229.166 65.2963C214.206 68.4354 202.24 62.4727 202.24 62.4727C202.24 62.4727 203.818 70.3229 199.662 76.6412C199.662 76.6412 211.808 106.58 224.244 106.365L238.027 124.889C238.027 124.889 257.277 115.487 263.44 113.004C262.379 112.328 253.943 91.3654 245.522 82.1283Z" fill="#CC7A64"/>
<path d="M244.517 78.8944C243.961 78.8493 243.615 78.4238 243.655 77.9482C243.706 77.3924 243.38 75.5701 242.309 74.5587C241.738 74.023 241.057 73.8278 240.256 73.953C237.502 74.3785 236.992 78.0934 236.987 78.1334C236.927 78.604 236.541 78.9345 236.021 78.8844C235.55 78.8243 235.214 78.3938 235.275 77.9231C235.3 77.7179 235.945 72.8715 239.991 72.2457C241.342 72.0505 242.539 72.4009 243.49 73.3021C244.952 74.6739 245.483 76.9819 245.378 78.1084C245.333 78.559 244.957 78.8944 244.517 78.8944Z" fill="#49263E"/>
<path d="M179.572 55.7542C179.172 55.7542 178.811 55.4739 178.726 55.0684C177.374 48.685 179.777 43.9639 179.877 43.7686C180.098 43.348 180.618 43.1778 181.039 43.4031C181.465 43.6234 181.63 44.1441 181.409 44.5646C181.384 44.6097 179.197 48.9604 180.413 54.7129C180.513 55.1785 180.213 55.6391 179.747 55.7342C179.687 55.7442 179.632 55.7542 179.572 55.7542Z" fill="#49263E"/>
<path d="M184.768 55.3985C184.297 55.3985 183.917 55.023 183.902 54.5574C183.812 50.9276 184.107 49.2254 184.122 49.1503C184.202 48.6797 184.668 48.3893 185.123 48.4544C185.594 48.5395 185.904 48.9901 185.819 49.4557C185.819 49.4707 185.539 51.0878 185.629 54.5123C185.639 54.9879 185.264 55.3884 184.788 55.3985C184.783 55.3985 184.778 55.3985 184.768 55.3985Z" fill="#49263E"/>
<path d="M217.667 72.2305C217.287 72.2305 216.941 71.9852 216.836 71.6047C216.796 71.4595 216.47 70.1578 217.372 68.9662C218.198 67.8798 219.73 67.3291 221.933 67.3291C222.408 67.3291 222.799 67.7146 222.799 68.1952C222.799 68.6709 222.413 69.0614 221.933 69.0614C220.335 69.0614 219.239 69.3868 218.758 70.0026C218.358 70.5183 218.498 71.1291 218.508 71.1591C218.623 71.6147 218.343 72.0903 217.892 72.2055C217.817 72.2205 217.737 72.2305 217.667 72.2305Z" fill="#49263E"/>
<path d="M203.412 80.7115C203.297 80.7115 203.187 80.6915 203.082 80.6414C202.641 80.4562 202.431 79.9555 202.616 79.5149C203.272 77.9429 205.455 75.2494 209.02 76.1956C209.475 76.3208 209.751 76.7964 209.625 77.257C209.505 77.7176 209.045 77.9879 208.564 77.8678C205.575 77.0667 204.263 80.0606 204.208 80.1858C204.068 80.5162 203.748 80.7115 203.412 80.7115Z" fill="#49263E"/>
<path d="M210.928 83.5353C211.508 83.2349 211.739 82.509 211.438 81.9282L210.562 80.231C210.262 79.6502 209.536 79.4199 208.955 79.7203C208.374 80.0207 208.144 80.7467 208.444 81.3274L209.321 83.0246C209.621 83.6054 210.347 83.8357 210.928 83.5353Z" fill="#49263E"/>
<path d="M224.209 76.9019C224.79 76.6015 225.02 75.8755 224.72 75.2948L223.843 73.6026C223.543 73.0218 222.817 72.7915 222.236 73.0919C221.656 73.3923 221.425 74.1182 221.726 74.699L222.602 76.3912C222.902 76.972 223.628 77.2023 224.209 76.9019Z" fill="#49263E"/>
<path d="M216.67 91.8612C215.884 91.8612 215.253 91.646 214.782 91.3856C213.215 90.5245 212.519 88.6771 212.534 87.3303C212.569 84.1762 211.022 79.0295 208.429 77.8179C207.993 77.6176 207.808 77.102 208.008 76.6714C208.209 76.2458 208.724 76.0506 209.155 76.2559C212.544 77.8379 214.302 83.7106 214.261 87.3503C214.251 88.2315 214.717 89.383 215.613 89.8786C216.775 90.5245 218.302 89.8436 219.363 89.1527C219.764 88.8974 220.294 89.0125 220.56 89.413C220.82 89.8136 220.7 90.3493 220.299 90.6046C218.842 91.5408 217.636 91.8612 216.67 91.8612Z" fill="#49263E"/>
<path d="M223.324 92.2469C223.144 92.2469 222.969 92.2319 222.799 92.1968C222.483 92.1368 222.213 91.9365 222.063 91.6561C221.912 91.3758 221.897 91.0403 222.018 90.7449L224.731 84.2765C224.881 83.916 225.217 83.6707 225.602 83.6306C225.993 83.5906 226.368 83.7658 226.589 84.0862C228.005 86.1539 228.166 88.3318 227.029 90.059C226.168 91.3758 224.651 92.2469 223.324 92.2469Z" fill="white"/>
<path fill-rule="evenodd" clip-rule="evenodd" d="M224.241 106.366C224.241 106.366 232.081 105.254 236.286 98.2099C236.486 97.8795 236.997 98.0597 236.932 98.4402L233.337 118.587L221.938 114.862L224.241 106.366Z" fill="#49263E"/>
<path d="M290.271 238.733C281.395 238.733 270.726 234.708 261.314 227.623C251.801 220.469 235.385 203.827 232.281 172.777C230.113 151.053 232.366 134.186 238.974 122.641C244.276 113.384 250.555 110.996 251.255 110.756L254.149 119.127C254.064 119.162 249.929 120.874 246.179 127.918C242.539 134.757 240.146 148.015 242.534 171.971C245.298 199.662 258.28 214.266 266.636 220.549C276.944 228.304 287.453 230.692 293.295 229.621L294.892 238.332C293.426 238.603 291.879 238.733 290.271 238.733Z" fill="#49263E"/>
<path d="M222.958 221.135C222.778 221.135 222.597 221.08 222.442 220.965L214.477 215.042C214.091 214.757 214.016 214.216 214.302 213.831C214.582 213.445 215.123 213.375 215.508 213.65L223.474 219.573C223.859 219.859 223.934 220.399 223.649 220.785C223.479 221.015 223.218 221.135 222.958 221.135Z" fill="#49263E"/>
<path d="M241.562 168.221C241.262 170.439 239.55 180.432 239.259 182.109C233.522 170.739 227.824 157.307 227.824 157.307L211.098 161.858C213.09 177.563 217.721 196.067 222.913 211.017C225.071 217.23 227.549 223.723 231.84 228.815C236.761 234.653 245.307 236.48 252.627 235.529C255.406 235.168 258.239 234.322 260.282 232.4C262.139 230.647 263.151 228.194 264.047 225.806C268.568 213.79 271.386 201.434 273.474 188.808C273.9 186.229 278.391 166.769 278.391 166.769C262.605 169.848 248.547 168.536 241.562 168.221Z" fill="#C77965"/>
<path d="M251.18 206.897C250.854 206.897 250.544 206.711 250.399 206.396L233.116 169.172C232.911 168.742 233.101 168.226 233.536 168.026C233.962 167.821 234.483 168.016 234.683 168.446L251.966 205.67C252.171 206.1 251.981 206.616 251.545 206.816C251.425 206.871 251.3 206.897 251.18 206.897Z" fill="#49263E"/>
<path d="M257.724 116.093C229.617 116.033 233.848 167.555 233.848 167.555C233.988 167.5 234.759 167.515 236.02 167.575C243 167.89 265.178 169.397 280.959 166.318C284.148 165.698 287.077 164.887 289.565 163.84C289.565 163.84 285.83 116.153 257.724 116.093Z" fill="#FFBBC8"/>
<path d="M255.03 169.513C243.6 169.513 234.488 168.496 233.752 168.411C233.277 168.356 232.941 167.931 232.991 167.455C233.041 166.979 233.467 166.644 233.948 166.694C234.303 166.739 269.634 170.664 289.255 163.029C289.695 162.864 290.201 163.074 290.371 163.52C290.541 163.965 290.326 164.466 289.881 164.636C279.923 168.521 266.34 169.513 255.03 169.513Z" fill="#49263E"/>
<path d="M243.449 134.982C242.508 133.16 240.405 129.756 237.001 127.593C232.174 124.534 229.431 126.241 229.431 126.241L217.035 138.277C212.724 142.462 210.326 148.235 210.396 154.243C210.536 165.462 214.311 180.247 214.311 180.247L232.83 168.822L230.257 152.671C230.257 152.671 245.191 143.128 246.033 142.162C246.418 141.721 246.728 140.039 246.954 138.337C247.219 136.344 245.492 134.662 243.509 134.977L243.449 134.982Z" fill="#C77965"/>
<path d="M237.977 134.101C239.264 134.682 241.362 135.168 243.259 135.113C244.156 132.174 245.177 129.806 246.178 127.918C249.928 120.869 254.068 119.162 254.244 119.092C254.154 119.122 251.255 110.756 251.255 110.756C250.554 110.996 244.276 113.384 238.974 122.641C237.487 125.24 236.22 128.114 235.174 131.243C235.589 132.459 236.516 133.44 237.977 134.101Z" fill="#49263E"/>
<path d="M237.978 134.962C237.798 134.962 237.617 134.907 237.467 134.792L231.034 130.026C230.648 129.741 230.568 129.2 230.849 128.819C231.144 128.434 231.68 128.354 232.055 128.639L238.489 133.405C238.874 133.691 238.954 134.231 238.674 134.612C238.504 134.842 238.243 134.962 237.978 134.962Z" fill="#49263E"/>
<path d="M224.85 157.067C224.57 157.067 224.289 156.926 224.129 156.676C223.869 156.276 223.979 155.74 224.38 155.479L233.166 149.732C233.556 149.467 234.102 149.582 234.363 149.982C234.623 150.383 234.513 150.919 234.112 151.179L225.326 156.926C225.181 157.021 225.015 157.067 224.85 157.067Z" fill="#49263E"/>
<path d="M285.91 80.2461C284.688 78.9895 283.301 77.868 282.27 76.4111C280.513 73.9379 279.191 70.9089 279.266 67.8199C279.381 63.2589 279.176 58.4777 277.864 57.977C275.761 57.166 266.935 65.2866 263.811 68.2505C263.075 68.2204 262.339 68.2304 261.598 68.2655C260.857 68.2304 260.116 68.2254 259.385 68.2505C256.256 65.2866 247.429 57.166 245.332 57.977C244.02 58.4827 243.82 63.2639 243.93 67.8199C244.005 70.9089 242.688 73.9329 240.926 76.4111C239.895 77.863 238.508 78.9895 237.286 80.2461C235.349 82.2387 234.177 84.712 234.492 87.5557C234.513 87.7359 234.538 87.9111 234.568 88.0864C235.519 93.5835 240.821 98.3047 245.657 100.523C250.563 102.771 256.076 103.522 261.438 103.562C267.115 103.522 272.627 102.776 277.534 100.523C282.37 98.3047 287.672 93.5885 288.623 88.0864C288.653 87.9111 288.678 87.7309 288.698 87.5557C289.019 84.712 287.842 82.2387 285.91 80.2461Z" fill="#C6AFC9"/>
<path d="M262.89 100.823L248.586 96.9428C248.586 96.9428 240.971 109.574 244.366 123.507C247.45 136.149 252.822 136.9 255.891 137.07C258.189 137.2 259.19 134.892 259.641 131.708C260.322 136.094 261.758 138.066 265.328 138.362C270.97 138.827 275.807 124.979 277.209 121.7C278.61 118.421 284.063 106.996 282.671 97.2231C281.564 89.5231 268.407 97.2181 262.89 100.823Z" fill="#C6AFC9"/>
<path d="M273.197 72.2356C273.087 72.2356 272.977 72.2155 272.867 72.1705L267.25 69.8625C267.019 69.7673 266.844 69.5771 266.759 69.3418C266.679 69.1065 266.704 68.8461 266.829 68.6308C268.276 66.1176 274.634 62.1774 275.36 61.7368C275.761 61.4915 276.301 61.6117 276.547 62.0222C276.797 62.4328 276.667 62.9634 276.261 63.2088C274.659 64.19 270.669 66.8285 268.947 68.6909L273.523 70.5684C273.963 70.7486 274.174 71.2543 273.993 71.6949C273.858 72.0353 273.538 72.2356 273.197 72.2356Z" fill="#49263E"/>
<path d="M252.525 96.7578C252.525 96.7578 250.838 103.872 260.596 114.501C260.596 114.501 275.135 106.951 273.808 97.4037L252.525 96.7578Z" fill="white"/>
<path d="M279.677 91.1856C279.626 91.0554 279.566 90.9302 279.506 90.8051C278.901 89.5234 277.929 88.3769 276.392 87.5809C270.665 84.632 264.642 86.5245 264.126 84.6921C263.721 83.2502 263.07 80.7269 262.584 79.1398C261.968 77.1372 259.816 76.3212 258.569 78.8344C257.673 80.6468 257.057 82.7946 256.526 84.6921C256.011 86.5195 249.988 84.627 244.26 87.5809C242.723 88.3719 241.747 89.5234 241.146 90.8051C241.086 90.9302 241.031 91.0604 240.981 91.1856C240 93.6037 240.445 96.3273 241.912 98.3399C243.139 99.2111 244.41 99.952 245.657 100.523C250.564 102.771 256.076 103.522 261.438 103.562C265.843 103.532 270.019 103.086 273.949 101.88C275.116 101.294 276.172 100.643 277.123 99.957C279.817 98.0245 280.958 94.3447 279.677 91.1856Z" fill="white"/>
<path d="M262.585 84.3113C262.585 84.897 261.599 85.3676 260.387 85.3676C259.171 85.3676 258.189 84.892 258.189 84.3113C258.189 83.7255 259.176 83.2549 260.387 83.2549C261.599 83.2549 262.585 83.7255 262.585 84.3113Z" fill="#49263E"/>
<path d="M262.829 90.4596C262.504 90.4596 262.193 90.2743 262.043 89.9589L260.371 86.3392L258.609 89.9789C258.403 90.4045 257.888 90.5897 257.457 90.3795C257.027 90.1692 256.846 89.6535 257.057 89.223L259.615 83.9411C259.76 83.6457 260.061 83.4554 260.396 83.4554C260.711 83.4454 261.042 83.6507 261.182 83.9561L263.62 89.238C263.82 89.6685 263.63 90.1842 263.2 90.3845C263.074 90.4295 262.949 90.4596 262.829 90.4596Z" fill="#49263E"/>
<path d="M261.918 104.533C256.491 104.533 252.396 103.577 252.05 103.497C251.589 103.382 251.304 102.916 251.414 102.455C251.529 101.99 251.98 101.704 252.461 101.815C252.621 101.855 269.032 105.675 279.686 97.7442C280.072 97.4688 280.607 97.5389 280.893 97.9244C281.178 98.3099 281.098 98.8507 280.718 99.136C274.895 103.457 267.665 104.533 261.918 104.533Z" fill="#49263E"/>
<path d="M255.3 69.8126C255.019 69.8126 254.754 69.6774 254.584 69.4321C253.187 67.3644 247.85 62.9436 247.049 62.4529C246.728 62.3278 246.498 62.0124 246.498 61.6469C246.498 61.1713 246.884 60.7808 247.364 60.7808C248.355 60.7808 254.794 66.6484 256.015 68.4658C256.281 68.8613 256.181 69.397 255.785 69.6624C255.64 69.7625 255.47 69.8126 255.3 69.8126Z" fill="#49263E"/>
<path d="M250.418 70.7235C250.268 70.7235 250.113 70.6835 249.972 70.5983L247.609 69.1765C247.204 68.9312 247.069 68.4005 247.314 67.9899C247.554 67.5794 248.09 67.4492 248.501 67.6945L250.864 69.1164C251.269 69.3617 251.404 69.8924 251.159 70.303C250.999 70.5733 250.713 70.7235 250.418 70.7235Z" fill="#49263E"/>
<path d="M259.915 134.612C259.439 134.612 259.049 134.227 259.049 133.746C259.049 123.988 259.86 114.877 259.87 114.781C259.91 114.311 260.27 113.97 260.806 114C261.282 114.045 261.632 114.466 261.587 114.942C261.577 115.032 260.776 124.069 260.776 133.746C260.781 134.227 260.396 134.612 259.915 134.612Z" fill="#49263E"/>
<path d="M203.413 65.8824C203.082 65.8824 202.772 65.6922 202.627 65.3718C202.542 65.1815 200.534 60.7107 200.033 55.6641C199.988 55.1885 200.334 54.7629 200.809 54.7178C201.355 54.6828 201.71 55.0182 201.755 55.4939C202.231 60.2501 204.179 64.6158 204.199 64.6608C204.399 65.0964 204.204 65.6071 203.768 65.8023C203.648 65.8524 203.533 65.8824 203.413 65.8824Z" fill="#CC7A64"/>
<path d="M154.384 136.65C155.265 136.85 153.853 137.171 155.645 136.745C157.438 136.315 161.103 131.588 159.671 128.75C159.671 128.75 162.459 125.325 161.193 121.5C161.193 121.5 158.805 112.318 157.778 111.192C157.778 111.192 158.489 108.358 157.893 106.831C157.298 105.304 151.23 99.3312 148.626 98.8756C146.023 98.42 139.925 105.629 138.083 107.978C136.24 110.326 131.073 116.444 132.145 119.688C133.221 122.932 135.164 139.579 135.164 139.579L143.409 160.686L164.011 157.012L154.384 136.65Z" fill="#C77965"/>
<path d="M139.454 112.378C138.978 112.378 138.588 111.993 138.588 111.512C138.588 111.036 138.973 110.646 139.454 110.646L157.773 110.631C158.249 110.631 158.639 111.016 158.639 111.497C158.639 111.973 158.254 112.363 157.773 112.363L139.454 112.378Z" fill="#49263E"/>
<path d="M151.385 112.368C151.095 112.368 150.81 112.223 150.644 111.953L147.841 107.352C147.595 106.946 147.726 106.41 148.131 106.165C148.542 105.915 149.072 106.045 149.323 106.451L152.126 111.052C152.372 111.457 152.241 111.993 151.836 112.238C151.696 112.328 151.541 112.368 151.385 112.368Z" fill="#49263E"/>
<path d="M142.439 121.38C142.004 121.38 141.628 121.05 141.578 120.604C141.533 120.128 141.874 119.703 142.349 119.658C143.991 119.487 159.817 118.596 160.493 118.556C161.004 118.496 161.379 118.897 161.404 119.372C161.429 119.848 161.064 120.259 160.588 120.284C160.423 120.294 144.127 121.215 142.529 121.38C142.499 121.38 142.469 121.38 142.439 121.38Z" fill="#49263E"/>
<path d="M145.112 131.323C144.727 131.323 144.371 131.073 144.261 130.697C144.141 130.257 144.361 129.796 144.802 129.651C145.418 129.446 154.334 128.655 159.596 128.204C160.062 128.174 160.492 128.519 160.532 128.99C160.577 129.466 160.222 129.886 159.746 129.926C154.534 130.377 146.003 131.148 145.307 131.303C145.242 131.318 145.177 131.323 145.112 131.323Z" fill="#49263E"/>
<path d="M155.065 151.815C154.955 151.815 154.84 151.795 154.735 151.75C154.294 151.564 154.084 151.059 154.269 150.618C156.998 144.075 154.82 139.223 154.059 137.851C151.761 137.962 147.095 138.202 146.439 138.282C145.963 138.367 145.538 138.007 145.478 137.531C145.418 137.055 145.753 136.625 146.229 136.565C147.13 136.45 153.738 136.134 154.489 136.099C154.815 136.099 155.08 136.234 155.24 136.47C155.416 136.72 159.451 142.683 155.866 151.284C155.726 151.614 155.406 151.815 155.065 151.815Z" fill="#49263E"/>
<path d="M253.133 83.9761C253.789 83.9761 254.325 83.4405 254.325 82.7846V80.8771C254.325 80.2212 253.789 79.6855 253.133 79.6855C252.477 79.6855 251.941 80.2212 251.941 80.8771V82.7846C251.941 83.4354 252.477 83.9761 253.133 83.9761Z" fill="#49263E"/>
<path d="M267.637 83.9761C268.293 83.9761 268.828 83.4405 268.828 82.7846V80.8771C268.828 80.2212 268.293 79.6855 267.637 79.6855C266.981 79.6855 266.445 80.2212 266.445 80.8771V82.7846C266.445 83.4354 266.981 83.9761 267.637 83.9761Z" fill="#49263E"/>
<path d="M344.191 249.747H29.5302C29.0546 249.747 28.6641 249.362 28.6641 248.881C28.6641 248.406 29.0496 248.015 29.5302 248.015H344.191C344.667 248.015 345.057 248.401 345.057 248.881C345.057 249.362 344.672 249.747 344.191 249.747Z" fill="#49263E"/>
</svg>
