<svg width="372" height="250" viewBox="0 0 372 250" fill="none" xmlns="http://www.w3.org/2000/svg">
<path d="M46.9551 248.138C46.6527 248.047 46.3503 247.949 46.0478 247.841C40.4207 245.833 36.0302 241.08 31.9962 236.36C17.8365 219.814 5.12414 200.761 2.23496 177.81C-2.59294 139.435 5.44275 103.572 35.5928 79.9236C49.6661 68.8907 66.3693 62.2429 83.4451 58.9649C101.509 55.4979 119.984 55.6869 138.237 53.6942C172.378 49.968 200.179 30.0732 231.204 15.7731C261.354 1.88347 296.38 -7.06487 326.33 7.327C340.852 14.3042 353.17 26.5846 360.833 41.7217C374.399 68.5127 372.725 101.358 366.925 131.292C362.172 155.841 354.931 179.727 347.278 203.391C343.595 214.786 339.81 226.138 335.927 237.451C331.477 250.423 321.535 248.014 310.659 248.317C296.791 248.7 282.917 249.019 269.044 249.273C240.741 249.791 212.437 250.034 184.129 249.996C141.931 249.996 99.7325 249.499 57.5343 249.218C53.9809 249.197 50.3681 249.159 46.9551 248.138Z" fill="#DACAC2"/>
<mask id="mask0_611_9156" style="mask-type:luminance" maskUnits="userSpaceOnUse" x="0" y="0" width="372" height="250">
<path d="M46.9551 248.138C46.6527 248.047 46.3503 247.949 46.0478 247.841C40.4207 245.833 36.0302 241.08 31.9962 236.36C17.8365 219.814 5.12414 200.761 2.23496 177.81C-2.59294 139.435 5.44275 103.572 35.5928 79.9236C49.6661 68.8907 66.3693 62.2429 83.4451 58.9649C101.509 55.4979 119.984 55.6869 138.237 53.6942C172.378 49.968 200.179 30.0732 231.204 15.7731C261.354 1.88347 296.38 -7.06487 326.33 7.327C340.852 14.3042 353.17 26.5846 360.833 41.7217C374.399 68.5127 372.725 101.358 366.925 131.292C362.172 155.841 354.931 179.727 347.278 203.391C343.595 214.786 339.81 226.138 335.927 237.451C331.477 250.423 321.535 248.014 310.659 248.317C296.791 248.7 282.917 249.019 269.044 249.273C240.741 249.791 212.437 250.034 184.129 249.996C141.931 249.996 99.7325 249.499 57.5343 249.218C53.9809 249.197 50.3681 249.159 46.9551 248.138Z" fill="white"/>
</mask>
<g mask="url(#mask0_611_9156)">
<path d="M21.902 255.694C21.1892 255.694 20.6113 255.116 20.6113 254.403V-7.80454C20.6113 -8.51738 21.1892 -9.09521 21.902 -9.09521C22.6149 -9.09521 23.1927 -8.51738 23.1927 -7.80454V254.403C23.1927 255.116 22.6149 255.694 21.902 255.694Z" fill="#F4F0ED"/>
<path d="M58.5211 255.694C57.8083 255.694 57.2305 255.116 57.2305 254.403V-7.80454C57.2305 -8.51738 57.8083 -9.09521 58.5211 -9.09521C59.234 -9.09521 59.8118 -8.51738 59.8118 -7.80454V254.403C59.8118 255.116 59.234 255.694 58.5211 255.694Z" fill="#F4F0ED"/>
<path d="M94.8073 255.337C94.2943 255.337 93.873 254.921 93.873 254.403V-7.80451C93.873 -8.31754 94.2889 -8.73877 94.8073 -8.73877C95.3203 -8.73877 95.7416 -8.32294 95.7416 -7.80451V254.403C95.7416 254.916 95.3203 255.337 94.8073 255.337Z" fill="#F4F0ED"/>
<path d="M131.432 255.337C130.919 255.337 130.498 254.921 130.498 254.403V-7.80451C130.498 -8.31754 130.914 -8.73877 131.432 -8.73877C131.945 -8.73877 132.367 -8.32294 132.367 -7.80451V254.403C132.361 254.916 131.945 255.337 131.432 255.337Z" fill="#F4F0ED"/>
<path d="M21.903 255.337C21.39 255.337 20.9688 254.921 20.9688 254.403V-7.80451C20.9688 -8.31754 21.3846 -8.73877 21.903 -8.73877C22.416 -8.73877 22.8373 -8.32294 22.8373 -7.80451V254.403C22.8319 254.916 22.416 255.337 21.903 255.337Z" fill="#F4F0ED"/>
<path d="M58.5221 255.337C58.0091 255.337 57.5879 254.921 57.5879 254.403V-7.80451C57.5879 -8.31754 58.0037 -8.73877 58.5221 -8.73877C59.0352 -8.73877 59.4564 -8.32294 59.4564 -7.80451V254.403C59.4564 254.916 59.0406 255.337 58.5221 255.337Z" fill="#F4F0ED"/>
<path d="M167.981 255.337C167.468 255.337 167.047 254.921 167.047 254.403V-7.80451C167.047 -8.31754 167.463 -8.73877 167.981 -8.73877C168.494 -8.73877 168.915 -8.32294 168.915 -7.80451V254.403C168.915 254.916 168.494 255.337 167.981 255.337Z" fill="#F4F0ED"/>
<path d="M240.891 255.337C240.378 255.337 239.957 254.921 239.957 254.403V-7.80451C239.957 -8.31754 240.373 -8.73877 240.891 -8.73877C241.404 -8.73877 241.826 -8.32294 241.826 -7.80451V254.403C241.82 254.916 241.404 255.337 240.891 255.337Z" fill="#F4F0ED"/>
<path d="M277.51 255.337C276.997 255.337 276.576 254.921 276.576 254.403V-7.80451C276.576 -8.31754 276.992 -8.73877 277.51 -8.73877C278.023 -8.73877 278.445 -8.32294 278.445 -7.80451V254.403C278.445 254.916 278.029 255.337 277.51 255.337Z" fill="#F4F0ED"/>
<path d="M314.173 255.337C313.659 255.337 313.238 254.921 313.238 254.403V-7.80451C313.238 -8.31754 313.654 -8.73877 314.173 -8.73877C314.686 -8.73877 315.107 -8.32294 315.107 -7.80451V254.403C315.107 254.916 314.686 255.337 314.173 255.337Z" fill="#F4F0ED"/>
<path d="M350.794 255.337C350.281 255.337 349.859 254.921 349.859 254.403V-7.80451C349.859 -8.31754 350.275 -8.73877 350.794 -8.73877C351.307 -8.73877 351.728 -8.32294 351.728 -7.80451V254.403C351.728 254.916 351.312 255.337 350.794 255.337Z" fill="#F4F0ED"/>
<path d="M204.606 255.337C204.093 255.337 203.672 254.921 203.672 254.403V-7.80451C203.672 -8.31754 204.088 -8.73877 204.606 -8.73877C205.119 -8.73877 205.54 -8.32294 205.54 -7.80451V254.403C205.54 254.916 205.125 255.337 204.606 255.337Z" fill="#F4F0ED"/>
</g>
<path d="M306.777 211.509C300.669 196.69 275.876 154.346 257.699 135.153C256.073 136.455 254.416 137.718 252.704 138.917C242.778 145.878 231.767 151.063 220.631 155.772C214.701 158.278 208.734 160.659 202.653 162.787C197.08 164.736 191.48 166.599 185.961 168.7C186.49 170.25 187.581 171.687 188.537 172.923C189.763 174.516 191.048 176.072 192.285 177.659C195.455 181.72 198.938 185.555 202.324 189.427C214.388 203.224 225.394 218.027 235.558 233.283C238.987 238.429 242.448 243.543 245.91 248.663L274.705 248.927C324.242 249.9 317.815 238.294 306.777 211.509Z" fill="#FF9D76"/>
<path d="M295.635 215.532C295.09 215.429 261.311 207.75 233.607 212.599C233.127 212.686 232.614 212.351 232.527 211.843C232.441 211.336 232.776 210.855 233.283 210.763C261.365 205.833 295.506 213.609 295.846 213.69C296.348 213.809 296.656 214.306 296.543 214.808C296.446 215.24 296.062 215.532 295.635 215.532Z" fill="#EF685E"/>
<path d="M261.56 131.562C250.91 121.803 228.396 99.7215 195.676 99.7215C181.608 99.7215 176.278 99.5054 160.59 99.7755C132.508 100.251 111.512 121.847 100.824 131.562C82.3498 148.341 78.0187 170.801 71.3061 187.093C60.2624 213.879 72.2674 247.41 106.505 247.41L233.462 248.587L226.674 163.046C226.674 163.046 254.053 162.954 263.644 159.309C267.101 157.996 279.181 151.878 279.181 151.878C277.89 150.528 262.764 132.669 261.56 131.562Z" fill="#F75454"/>
<path d="M172.179 187.374C172.179 189.454 170.495 191.144 168.41 191.144C166.331 191.144 164.641 189.459 164.641 187.374C164.641 185.295 166.326 183.605 168.41 183.605C170.495 183.605 172.179 185.295 172.179 187.374Z" fill="white"/>
<path d="M153.029 100.418C153.181 104.009 155.168 121.523 179.421 121.523C203.668 121.523 203.722 103.804 203.479 100.159C200.984 99.8727 198.387 99.7215 195.676 99.7215C181.608 99.7215 176.278 99.5054 160.59 99.7755C158.008 99.8241 155.486 100.045 153.029 100.418Z" fill="#FF9D76"/>
<path d="M84.3638 121.101L113.396 142.206L103.443 208.84L120.859 247.831H62.7031C43.6939 211.438 56.7303 181.25 84.3638 121.101Z" fill="#FF9D76"/>
<path d="M62.7035 196.36H23.3945V247.825H62.7035V196.36Z" fill="#60A3C4"/>
<path d="M335.701 247.83H304.768V206.912C304.768 201.085 309.493 196.36 315.32 196.36H325.154C330.981 196.36 335.706 201.085 335.706 206.912V247.83H335.701Z" fill="#F9C164"/>
<path d="M88.2049 112.607L84.3652 121.102L113.403 142.206L128.637 125.611L88.2049 112.607Z" fill="#FF9D76"/>
<path d="M158.489 102.367L129.631 78.8887L94.1895 122.45L123.048 145.929L158.489 102.367Z" fill="#49263E"/>
<path d="M158.493 102.368L129.635 78.8896L123.214 86.7818L152.072 110.261L158.493 102.368Z" fill="#9679BC"/>
<path d="M132.433 104.555C132.433 104.555 138.876 108.162 141.576 103.863C144.492 99.2137 127.4 87.9 122.253 85.4969C116.335 82.7265 108.796 84.1306 103.79 88.7101C97.8224 94.1698 91.0287 100.348 88.199 112.607C87.7399 114.588 88.5338 117.526 89.6463 120.334C91.5688 125.178 95.9376 128.624 101.1 129.364L103.034 129.639L96.3859 123.996C101.052 126.421 109.876 131.691 113.629 130.654C118.722 129.245 112.976 122.106 112.976 122.106C112.976 122.106 122.459 128.197 125.407 123.737C127.616 120.399 123.177 112.99 123.177 112.99C123.177 112.99 131.526 118.417 134.528 114.729C137.968 110.5 132.433 104.555 132.433 104.555Z" fill="#FF9D76"/>
<path d="M133.071 106.202C132.86 106.202 132.644 106.126 132.466 105.98C126.574 100.974 113.381 93.565 113.246 93.4894C112.798 93.2356 112.636 92.6685 112.89 92.2203C113.144 91.7721 113.711 91.6155 114.159 91.8639C114.71 92.1717 127.638 99.4351 133.676 104.56C134.07 104.895 134.118 105.483 133.784 105.872C133.595 106.088 133.335 106.202 133.071 106.202Z" fill="#EF685E"/>
<path d="M123.987 115.426C123.808 115.426 123.63 115.377 123.474 115.275L104.405 102.687C103.973 102.4 103.854 101.822 104.14 101.396C104.427 100.964 105.004 100.856 105.431 101.131L124.5 113.719C124.932 114.006 125.05 114.583 124.764 115.01C124.586 115.28 124.289 115.426 123.987 115.426Z" fill="#EF685E"/>
<path d="M114.219 124.379C114.041 124.379 113.857 124.331 113.701 124.223C109.953 121.706 97.6778 113.465 97.1269 112.936C96.7543 112.58 96.7435 111.991 97.0999 111.618C97.4509 111.251 98.0342 111.235 98.4014 111.575C99.0494 112.115 108.516 118.498 114.743 122.678C115.169 122.965 115.283 123.542 114.997 123.969C114.813 124.234 114.521 124.379 114.219 124.379Z" fill="#EF685E"/>
<path d="M101.192 128.678C100.987 128.678 100.776 128.608 100.603 128.467L92.6484 121.992C92.2488 121.668 92.1894 121.08 92.5134 120.68C92.8375 120.286 93.4261 120.226 93.8257 120.545L101.78 127.02C102.18 127.344 102.239 127.933 101.915 128.332C101.732 128.559 101.462 128.678 101.192 128.678Z" fill="#EF685E"/>
<path d="M328.811 225.691C330.789 220.945 328.545 215.494 323.8 213.516C319.054 211.538 313.603 213.782 311.625 218.528C309.647 223.274 311.89 228.725 316.636 230.703C321.382 232.681 326.833 230.437 328.811 225.691Z" fill="white"/>
<path d="M181.893 127.447C170.007 127.447 159.271 122.192 159.098 122.106C158.634 121.874 158.45 121.317 158.682 120.858C158.915 120.394 159.476 120.21 159.93 120.442C160.205 120.577 187.412 133.868 202.074 117.24C202.414 116.851 203.003 116.813 203.386 117.159C203.77 117.499 203.808 118.088 203.467 118.471C197.419 125.335 189.421 127.447 181.893 127.447Z" fill="#49263E"/>
<path d="M86.908 218.469C86.5894 218.469 86.2762 218.302 86.1034 218.005C85.8442 217.562 85.9954 216.99 86.4382 216.73L96.526 210.86C96.9688 210.601 97.5413 210.752 97.8005 211.195C98.0597 211.638 97.9085 212.21 97.4603 212.47L87.3724 218.345C87.232 218.431 87.07 218.469 86.908 218.469Z" fill="#49263E"/>
<path d="M226.662 163.975C226.166 163.975 225.755 163.586 225.734 163.089L224.492 137.292C224.465 136.779 224.864 136.341 225.377 136.32C225.842 136.201 226.328 136.687 226.349 137.206L227.591 163.003C227.618 163.516 227.219 163.953 226.706 163.975C226.695 163.975 226.679 163.975 226.662 163.975Z" fill="#49263E"/>
<path d="M270.084 248.3V151.877L86.1379 151.877L86.1379 248.3L270.084 248.3Z" fill="#80C7A7"/>
<path d="M188.871 188.027C188.871 188.027 195.141 185.235 197.981 185.37C200.304 185.478 206.185 197.062 208.253 201.285C208.685 202.17 208.393 203.24 207.567 203.78C206.768 204.304 205.882 204.827 205.65 204.763C205.207 204.628 188.871 188.027 188.871 188.027Z" fill="#F9C164"/>
<path d="M197.16 193.001C196.858 193.001 196.561 192.855 196.383 192.585C196.097 192.158 196.215 191.58 196.642 191.294L201.06 188.367C201.486 188.081 202.064 188.2 202.35 188.626C202.636 189.053 202.518 189.631 202.091 189.917L197.674 192.844C197.517 192.947 197.339 193.001 197.16 193.001Z" fill="#49263E"/>
<path d="M202.133 199.972C201.831 199.972 201.534 199.827 201.355 199.557C201.069 199.13 201.188 198.552 201.615 198.266L205.341 195.793C205.768 195.506 206.345 195.625 206.632 196.052C206.918 196.478 206.799 197.056 206.372 197.342L202.646 199.816C202.49 199.924 202.311 199.972 202.133 199.972Z" fill="#49263E"/>
<path d="M208.803 216.833C206 215.072 203.802 208.813 204.785 207.242C205.806 205.616 212.367 204.925 215.17 206.68C217.973 208.441 215.926 210.32 214.166 213.123C212.405 215.926 211.606 218.593 208.803 216.833Z" fill="#F9C164"/>
<path d="M213.724 209.639C213.562 209.623 207.33 208.543 207.33 208.543C206.822 208.457 206.482 207.976 206.574 207.463C206.66 206.955 207.157 206.615 207.654 206.707L213.886 207.787C214.393 207.873 214.733 208.354 214.642 208.867C214.561 209.321 214.166 209.639 213.724 209.639Z" fill="#49263E"/>
<path d="M210.023 215.53C209.737 215.53 209.445 215.395 209.267 215.142L205.584 210C205.287 209.585 205.379 209.001 205.8 208.699C206.216 208.402 206.799 208.494 207.101 208.915L210.784 214.056C211.087 214.472 210.99 215.055 210.568 215.358C210.401 215.476 210.212 215.53 210.023 215.53Z" fill="#49263E"/>
<path d="M192.273 188.621C187.132 187.168 181.721 188.497 179.043 189.377C178.006 189.717 177.363 190.743 177.504 191.829C177.876 194.626 179.037 200.075 182.585 204.071C186.225 208.17 198.716 209.391 205.142 209.753C206.881 209.85 208.048 207.992 207.205 206.464C204.084 200.826 197.55 190.112 192.273 188.621Z" fill="#F75454"/>
<path d="M183.368 194.215C183.746 194.453 184.249 194.334 184.486 193.962L185.172 192.865C185.41 192.487 185.291 191.985 184.918 191.747C184.54 191.51 184.038 191.629 183.8 192.001L183.114 193.098C182.877 193.481 182.99 193.983 183.368 194.215Z" fill="#49263E"/>
<path d="M189.693 207.841C190.416 208.543 189.655 209.639 188.467 209.612L185.615 209.547C184.973 209.531 184.46 209.164 184.395 208.667L184.33 201.863C184.325 201.123 185.621 200.837 185.999 201.49L189.693 207.841Z" fill="#F9C164"/>
<path d="M183.384 203.008C182.396 203.008 181.462 202.754 180.652 202.246C180.22 201.976 180.085 201.398 180.36 200.961C180.635 200.518 181.208 200.394 181.645 200.669C183.152 201.614 184.891 200.966 185.793 200.496C187.764 199.481 189.049 197.699 189.109 196.63C189.141 196.117 189.6 195.717 190.091 195.755C190.604 195.782 190.999 196.225 190.966 196.738C190.858 198.639 189.038 200.918 186.646 202.154C185.544 202.721 184.432 203.008 183.384 203.008Z" fill="#49263E"/>
<path d="M194.531 208.613C194.531 208.613 195.32 210.849 197.258 211.556C199.197 212.264 204.079 209.677 204.079 209.677L194.531 208.613Z" fill="#F9C164"/>
<path d="M154.159 165.438C154.159 165.438 147.808 162.835 144.967 163.056C142.651 163.24 137.126 174.991 135.187 179.279C134.782 180.175 135.106 181.234 135.949 181.747C136.764 182.244 137.666 182.741 137.893 182.67C138.341 182.525 154.159 165.438 154.159 165.438Z" fill="#F75454"/>
<path d="M145.999 170.66C145.832 170.66 145.664 170.617 145.508 170.52L141.004 167.728C140.567 167.458 140.432 166.88 140.702 166.442C140.972 165.999 141.544 165.864 141.987 166.14L146.491 168.932C146.928 169.202 147.063 169.78 146.793 170.217C146.615 170.503 146.307 170.66 145.999 170.66Z" fill="#49263E"/>
<path d="M141.235 177.783C141.067 177.783 140.895 177.735 140.743 177.643L136.941 175.288C136.504 175.018 136.369 174.44 136.639 174.003C136.909 173.56 137.487 173.436 137.924 173.7L141.726 176.055C142.164 176.325 142.299 176.903 142.029 177.34C141.85 177.627 141.548 177.783 141.235 177.783Z" fill="#49263E"/>
<path d="M135.118 194.837C137.866 192.996 139.87 186.667 138.838 185.128C137.769 183.535 131.192 183.043 128.443 184.885C125.694 186.726 127.8 188.546 129.642 191.295C131.489 194.044 132.369 196.679 135.118 194.837Z" fill="#F75454"/>
<path d="M129.955 187.801C129.523 187.801 129.134 187.499 129.042 187.056C128.94 186.554 129.264 186.057 129.766 185.954L135.966 184.68C136.479 184.577 136.965 184.901 137.067 185.403C137.17 185.905 136.846 186.402 136.344 186.505L130.144 187.779C130.079 187.796 130.014 187.801 129.955 187.801Z" fill="#49263E"/>
<path d="M133.827 193.574C133.648 193.574 133.465 193.525 133.308 193.417C132.882 193.131 132.768 192.548 133.054 192.121L136.581 186.872C136.867 186.44 137.45 186.327 137.877 186.618C138.304 186.905 138.417 187.488 138.131 187.909L134.604 193.158C134.421 193.428 134.129 193.574 133.827 193.574Z" fill="#49263E"/>
<path d="M150.773 166.135C155.866 164.525 161.315 165.686 164.02 166.48C165.068 166.788 165.743 167.798 165.63 168.883C165.344 171.692 164.35 177.173 160.926 181.272C157.416 185.479 144.963 187.083 138.552 187.639C136.819 187.79 135.593 185.965 136.392 184.415C139.341 178.696 145.551 167.787 150.773 166.135Z" fill="#F9C164"/>
<path d="M159.85 171.454C159.483 171.702 158.975 171.6 158.727 171.232L158.003 170.158C157.755 169.79 157.857 169.283 158.225 169.034C158.592 168.786 159.099 168.889 159.348 169.256L160.071 170.33C160.32 170.703 160.217 171.205 159.85 171.454Z" fill="#49263E"/>
<path d="M157.448 178.804C157.81 178.14 159.117 178.388 159.128 179.122L159.268 185.927C159.214 186.424 158.717 186.807 158.075 186.845L155.223 186.996C154.035 187.061 153.241 185.986 153.943 185.263L157.448 178.804Z" fill="#F75454"/>
<path d="M159.921 180.24C158.928 180.24 157.869 179.991 156.811 179.484C154.38 178.323 152.49 176.098 152.328 174.202C152.28 173.689 152.663 173.236 153.176 173.192C153.738 173.171 154.143 173.527 154.186 174.04C154.283 175.104 155.617 176.848 157.621 177.804C158.544 178.242 160.305 178.83 161.779 177.847C162.206 177.567 162.789 177.68 163.07 178.101C163.356 178.528 163.242 179.106 162.816 179.397C161.968 179.959 160.98 180.24 159.921 180.24Z" fill="#49263E"/>
<path d="M149.131 186.186C149.131 186.186 148.407 188.443 146.496 189.21C144.584 189.977 139.621 187.536 139.621 187.536L149.131 186.186Z" fill="#F75454"/>
<path d="M87.4805 248.181C87.4805 248.181 116.658 227.363 147.467 227.298C182.667 227.222 202.281 245.675 217.963 239.152C235.617 231.807 259.4 233.033 269.239 248.181H87.4805Z" fill="#3F9896"/>
<path d="M240.919 193.752C240.919 195.815 239.245 197.489 237.182 197.489C235.119 197.489 233.445 195.815 233.445 193.752C233.445 191.689 235.119 190.015 237.182 190.015C239.245 190.015 240.919 191.689 240.919 193.752Z" fill="white"/>
<path d="M190.076 165.324C190.076 166.782 188.894 167.965 187.436 167.965C185.978 167.965 184.795 166.782 184.795 165.324C184.795 163.866 185.978 162.683 187.436 162.683C188.894 162.683 190.076 163.866 190.076 165.324Z" fill="white"/>
<path d="M173.244 173.511C175.015 172.458 177.31 173.036 178.363 174.813C179.416 176.584 178.839 178.879 177.062 179.932C175.29 180.985 172.995 180.408 171.942 178.631C170.889 176.854 171.472 174.564 173.244 173.511Z" fill="white"/>
<path d="M110.335 178.377C111.588 177.632 113.208 178.042 113.953 179.295C114.698 180.548 114.288 182.168 113.035 182.919C111.782 183.664 110.162 183.254 109.417 182.001C108.671 180.742 109.082 179.122 110.335 178.377Z" fill="white"/>
<path d="M270.087 249.699H86.1413C85.6283 249.699 85.207 249.283 85.207 248.765V139.559C85.207 139.046 85.6229 138.625 86.1413 138.625H270.087C270.6 138.625 271.022 139.041 271.022 139.559V248.77C271.016 249.283 270.6 249.699 270.087 249.699ZM87.0701 247.836H269.153V140.494H87.0701V247.836Z" fill="#49263E"/>
<path d="M248.507 238.321C248.507 238.321 241.762 228.816 243.107 225.624C244.452 222.438 248.507 231.171 248.507 231.171C248.507 231.171 244.516 214.516 248.507 213.198C249.771 212.782 251.845 219.139 251.845 219.139C251.845 219.139 252.293 195.464 256.548 196.403C260.804 197.343 256.548 219.139 256.548 219.139C256.548 219.139 258.79 214.3 261.031 216.239C263.272 218.177 254.761 231.171 254.761 231.171C254.761 231.171 257.45 225.673 259.691 228.535C261.933 231.397 252.174 240.832 252.174 240.832L248.507 238.321Z" fill="#3F9896"/>
<path d="M233.716 238.18C233.716 238.18 226.684 229.88 227.392 228.222C228.099 226.564 232.771 231.311 232.771 231.311C232.771 231.311 229.644 218.134 232.641 217.426C235.633 216.719 236.4 230.155 236.4 230.155C236.4 230.155 236.734 227.466 238.932 228.697C241.13 229.928 236.853 238.196 236.853 238.196L233.716 238.18Z" fill="#3F9896"/>
<path d="M102.105 241.209C102.105 241.209 95.7106 230.7 95.9644 228.864C96.2236 227.028 100.846 227.935 102.547 230.83C102.547 230.83 94.2741 216.546 96.0562 214.467C97.8329 212.388 102.591 219.576 102.591 219.576C102.591 219.576 97.6709 196.127 101.349 194.102C105.026 192.077 107.084 216.687 107.084 216.687C107.084 216.687 104.427 205.006 108.434 205.67C112.441 206.334 109.222 228.2 109.222 228.2C109.222 228.2 111.123 223.421 113.704 224.236C116.286 225.052 109.935 240.259 109.935 240.259L102.105 241.209Z" fill="#3F9896"/>
<path d="M123.084 237.316C123.084 237.316 115.356 226.229 117.37 224.042C119.384 221.86 122.074 227.908 122.074 227.908C122.074 227.908 120.562 215.812 123.084 214.975C125.606 214.132 125.93 227.012 125.93 227.012C125.93 227.012 125.87 222.821 128.765 223.01C131.654 223.205 127.285 237.316 127.285 237.316H123.084Z" fill="#3F9896"/>
<path d="M62.7042 202.058H23.3952C22.8822 202.058 22.4609 201.642 22.4609 201.124C22.4609 200.611 22.8768 200.189 23.3952 200.189H62.7042C63.2172 200.189 63.6385 200.605 63.6385 201.124C63.6385 201.642 63.2226 202.058 62.7042 202.058Z" fill="#49263E"/>
<path d="M62.7035 214.603H23.3945V237.317H62.7035V214.603Z" fill="#4D80AA"/>
<path d="M331.316 198.958H309.142C308.656 198.958 308.268 198.564 308.268 198.083V195.55C308.268 195.064 308.662 194.675 309.142 194.675H331.316C331.802 194.675 332.191 195.07 332.191 195.55V198.083C332.196 198.564 331.802 198.958 331.316 198.958Z" fill="#49263E"/>
<path d="M362.935 249.7H0.934258C0.421227 249.7 0 249.284 0 248.765C0 248.252 0.415826 247.831 0.934258 247.831H362.935C363.448 247.831 363.869 248.247 363.869 248.765C363.869 249.284 363.448 249.7 362.935 249.7Z" fill="#49263E"/>
<path d="M335.695 219.068H304.762V225.128H335.695V219.068Z" fill="white"/>
<path d="M159.516 80.496V111.559L179.794 112.039L196.578 112.25V78.7085L159.516 80.496Z" fill="#FF9D76"/>
<path d="M159.516 92.0365C163.166 97.0858 169.096 100.396 175.771 100.396H180.755C187.171 100.396 192.906 97.3396 196.578 92.6089V78.7085L159.516 80.5014V92.0365Z" fill="#EF685E"/>
<path d="M176.623 31.4289C176.623 37.7311 171.515 42.8344 165.218 42.8344C158.921 42.8344 153.812 37.7257 153.812 31.4289C153.812 25.1321 158.921 20.0234 165.218 20.0234C171.515 20.0234 176.623 25.1321 176.623 31.4289Z" fill="#75434B"/>
<path d="M169.473 46.5444C169.473 53.6134 163.743 59.3432 156.674 59.3432C149.605 59.3432 143.875 53.6134 143.875 46.5444C143.875 39.4754 149.605 33.7456 156.674 33.7456C163.743 33.7456 169.473 39.4754 169.473 46.5444Z" fill="#75434B"/>
<path d="M215.381 46.5444C215.381 53.6134 209.651 59.3432 202.582 59.3432C195.513 59.3432 189.783 53.6134 189.783 46.5444C189.783 39.4754 195.513 33.7456 202.582 33.7456C209.651 33.7456 215.381 39.4754 215.381 46.5444Z" fill="#75434B"/>
<path d="M192.296 42.8344C198.595 42.8344 203.702 37.728 203.702 31.4289C203.702 25.1299 198.595 20.0234 192.296 20.0234C185.997 20.0234 180.891 25.1299 180.891 31.4289C180.891 37.728 185.997 42.8344 192.296 42.8344Z" fill="#75434B"/>
<path d="M187.491 29.539C189.351 25.0761 187.24 19.9509 182.777 18.0915C178.314 16.2321 173.189 18.3426 171.33 22.8055C169.47 27.2684 171.581 32.3936 176.044 34.253C180.507 36.1124 185.632 34.0019 187.491 29.539Z" fill="#75434B"/>
<path d="M180.749 95.4822H175.765C164.743 95.4822 155.719 86.4636 155.719 75.4361V54.2399C155.719 43.2124 164.737 34.1938 175.765 34.1938H180.749C191.777 34.1938 200.795 43.2124 200.795 54.2399V75.4361C200.795 86.4582 191.777 95.4822 180.749 95.4822Z" fill="#FF9D76"/>
<path d="M159.498 62.691C160.643 67.5135 159.703 72.1253 156.074 72.9894C152.445 73.8534 147.509 70.6402 146.365 65.8178C145.214 60.9953 147.229 56.3834 150.852 55.5193C154.476 54.6553 158.348 57.8685 159.498 62.691Z" fill="#FF9D76"/>
<path d="M197.14 62.691C195.99 67.5135 196.935 72.1253 200.564 72.9894C204.193 73.8534 209.129 70.6402 210.273 65.8178C211.424 60.9953 209.409 56.3834 205.786 55.5193C202.157 54.6553 198.285 57.8685 197.14 62.691Z" fill="#FF9D76"/>
<path d="M207.941 66.5311C207.25 66.4069 206.925 65.9155 207.028 65.4078C207.498 63.1505 207.374 61.5034 206.677 60.4989C206.202 59.8239 205.446 59.4243 204.36 59.2677C202.513 58.9923 201.466 60.3801 200.856 61.4386C200.834 61.4764 200.694 61.7086 200.661 61.7464C200.337 62.1514 199.754 62.2163 199.354 61.903C198.96 61.5952 198.884 61.0336 199.171 60.6286C200.596 58.1444 202.411 57.1021 204.625 57.4262C206.223 57.6584 207.433 58.3334 208.2 59.4351C209.221 60.8932 209.437 62.9723 208.853 65.7913C208.762 66.2287 208.373 66.5311 207.941 66.5311Z" fill="#EF685E"/>
<path d="M148.661 66.5311C148.229 66.5311 147.84 66.2287 147.748 65.7859C147.165 62.9669 147.381 60.8878 148.407 59.4297C149.179 58.328 150.384 57.653 151.982 57.4261C154.207 57.1021 156.011 58.1498 157.366 60.5151C157.685 60.9202 157.636 61.5466 157.231 61.8652C156.821 62.1838 156.259 62.1514 155.946 61.7464C155.919 61.7086 155.773 61.4818 155.752 61.4386C155.147 60.3747 154.11 59.0084 152.252 59.2677C151.161 59.4243 150.405 59.8293 149.935 60.4989C149.233 61.498 149.115 63.1505 149.579 65.4078C149.682 65.9101 149.358 66.4015 148.855 66.5095C148.785 66.5257 148.72 66.5311 148.661 66.5311Z" fill="#EF685E"/>
<path d="M167.994 65.591C167.416 65.5856 166.946 65.105 166.957 64.5271L166.979 62.8422C166.984 62.2644 167.465 61.7946 168.043 61.8054C168.621 61.8108 169.09 62.2914 169.08 62.8692L169.058 64.5541C169.053 65.1266 168.572 65.5964 167.994 65.591Z" fill="#49263E"/>
<path d="M188.024 65.7046C187.446 65.7046 186.971 65.2294 186.971 64.6515V62.9666C186.971 62.3888 187.446 61.9136 188.024 61.9136C188.602 61.9136 189.077 62.3888 189.077 62.9666V64.6515C189.077 65.2294 188.602 65.7046 188.024 65.7046Z" fill="#49263E"/>
<path d="M192.964 59.9101C192.78 59.9101 192.597 59.8561 192.435 59.7481C188.876 57.3072 185.171 59.6563 185.009 59.7589C184.588 60.0397 184.005 59.9209 183.718 59.4889C183.438 59.0569 183.556 58.4844 183.988 58.2036C184.188 58.0686 188.881 55.066 193.488 58.2144C193.909 58.506 194.017 59.0839 193.731 59.5105C193.552 59.7697 193.261 59.9101 192.964 59.9101Z" fill="#75434B"/>
<path d="M172.994 59.9102C172.822 59.9102 172.643 59.8616 172.487 59.759C168.107 56.9292 164.3 59.6888 164.267 59.7212C163.857 60.0236 163.274 59.948 162.966 59.5322C162.658 59.1218 162.745 58.5385 163.155 58.2307C163.204 58.1929 168.042 54.6719 173.502 58.1929C173.934 58.4737 174.058 59.0515 173.777 59.4836C173.599 59.759 173.297 59.9102 172.994 59.9102Z" fill="#75434B"/>
<path d="M158.38 52.7276C162.89 52.7276 166.545 49.0718 166.545 44.5623C166.545 40.0527 162.89 36.397 158.38 36.397C153.871 36.397 150.215 40.0527 150.215 44.5623C150.215 49.0718 153.871 52.7276 158.38 52.7276Z" fill="#75434B"/>
<path d="M182.834 41.3118C182.834 46.7661 178.412 51.189 172.957 51.189C167.503 51.189 163.08 46.7661 163.08 41.3118C163.08 35.8574 167.503 31.4346 172.957 31.4346C178.412 31.4292 182.834 35.852 182.834 41.3118Z" fill="#75434B"/>
<path d="M185.588 48.0672C190.536 48.0672 194.547 44.0561 194.547 39.1081C194.547 34.1601 190.536 30.1489 185.588 30.1489C180.64 30.1489 176.629 34.1601 176.629 39.1081C176.629 44.0561 180.64 48.0672 185.588 48.0672Z" fill="#75434B"/>
<path d="M205.26 46.679C206.253 42.4606 203.638 38.2365 199.419 37.2441C195.201 36.2517 190.977 38.8669 189.984 43.0852C188.992 47.3035 191.607 51.5276 195.825 52.52C200.044 53.5124 204.268 50.8973 205.26 46.679Z" fill="#75434B"/>
<path d="M156.674 66.6442C155.108 66.6442 153.822 65.3589 153.822 63.7928V47.7269C153.822 46.1608 155.108 44.8755 156.674 44.8755C158.24 44.8755 159.525 46.1608 159.525 47.7269V63.7928C159.525 65.3643 158.24 66.6442 156.674 66.6442Z" fill="#75434B"/>
<path d="M200.795 66.6442C199.229 66.6442 197.943 65.3589 197.943 63.7928V47.7269C197.943 46.1608 199.229 44.8755 200.795 44.8755C202.361 44.8755 203.646 46.1608 203.646 47.7269V63.7928C203.646 65.3643 202.361 66.6442 200.795 66.6442Z" fill="#75434B"/>
<path d="M175.663 76.6943C175.56 76.6943 175.458 76.6781 175.361 76.6457C175.069 76.5431 172.525 75.6035 172.045 73.4163C171.629 71.51 172.174 69.5173 172.747 67.4058C173.422 64.927 174.118 62.3619 173.449 59.5591C173.33 59.0569 173.638 58.5546 174.14 58.4358C174.637 58.317 175.145 58.6302 175.263 59.1271C176.041 62.3943 175.247 65.3159 174.545 67.8918C174.01 69.8575 173.551 71.5532 173.87 73.0167C174.086 74.0104 175.463 74.6962 175.976 74.8798C176.457 75.0526 176.716 75.5819 176.549 76.0679C176.408 76.4513 176.046 76.6943 175.663 76.6943Z" fill="#EF685E"/>
<path d="M178.037 81.3978C176.795 81.3978 175.828 81.1385 175.753 81.1169C175.256 80.9819 174.964 80.4689 175.099 79.9721C175.234 79.4752 175.726 79.1728 176.244 79.3186C176.266 79.3186 178.89 80.0099 180.538 78.892C181.31 78.3628 181.753 77.5149 181.893 76.2944C181.952 75.7814 182.438 75.4196 182.924 75.4736C183.438 75.533 183.799 75.992 183.745 76.5051C183.546 78.2764 182.816 79.5994 181.58 80.4419C180.462 81.1979 179.139 81.3978 178.037 81.3978Z" fill="#49263E"/>
<path d="M82.4743 224.712C82.3555 224.712 82.2313 224.69 82.1179 224.642C81.6426 224.447 81.4158 223.896 81.6156 223.427L85.2771 214.581C85.4715 214.106 86.0331 213.884 86.4921 214.079C86.9674 214.273 87.1942 214.824 86.9944 215.294L83.3275 224.14C83.1871 224.496 82.8415 224.712 82.4743 224.712Z" fill="#EF685E"/>
</svg>
