<svg width="356" height="301" viewBox="0 0 356 301" fill="none" xmlns="http://www.w3.org/2000/svg">
<g clip-path="url(#clip0_611_6873)">
<path d="M355.999 188.668L289.856 171.904L308.405 106.233L242.739 124.787L225.971 58.6396L178.377 107.542L130.783 58.6396L114.015 124.787L48.3485 106.233L66.9026 171.904L0.754883 188.668L49.657 236.262L0.754883 283.855L66.9026 300.624H289.856L355.999 283.855L307.102 236.262L355.999 188.668Z" fill="#DACAC2"/>
<path d="M285.186 215.113C281.887 210.961 276.258 194.81 272.46 176.611C270.43 166.866 269.857 156.78 266.618 147.344C261.748 133.169 252.012 129.935 240.254 130.184C231.995 130.362 229.814 136.091 229.814 136.091C229.814 136.091 205.141 127.549 200.547 142.683C192.465 142.319 182.025 144.032 176.61 153.763C166.869 171.282 176.891 188.241 176.891 188.241C176.891 188.241 183.179 225.953 196.168 238.892L204.882 253.939L226.239 300.678H333.443C333.443 300.674 294.267 226.562 285.186 215.113Z" fill="#49263E"/>
<path d="M237.651 131.416C232.186 131.97 226.739 136.404 227.516 147.839C228.293 159.274 235.135 163.563 239.019 164.163C243.308 164.826 251.662 161.005 251.662 144.909C251.658 133.728 246.52 130.516 237.651 131.416Z" fill="#FFBBC8"/>
<path d="M239.991 165.466C239.596 165.466 239.21 165.439 238.828 165.38C234.858 164.762 227.125 160.324 226.285 147.921C225.458 135.773 231.55 130.793 237.524 130.189C242.658 129.676 246.383 130.53 248.909 132.81C251.585 135.227 252.889 139.184 252.889 144.909C252.889 155.294 249.514 160.369 246.679 162.795C244.675 164.512 242.249 165.466 239.991 165.466ZM240.287 132.506C239.501 132.506 238.665 132.552 237.774 132.642C231.518 133.278 228.143 138.925 228.742 147.753C229.478 158.597 235.907 162.432 239.205 162.94C240.65 163.163 242.94 162.754 245.075 160.919C247.515 158.829 250.422 154.354 250.422 144.904C250.422 139.92 249.386 136.563 247.256 134.637C245.679 133.21 243.385 132.506 240.287 132.506Z" fill="#49263E"/>
<path d="M207.163 134.323C201.698 134.877 196.251 139.312 197.027 150.747C197.804 162.182 204.646 166.47 208.531 167.07C212.819 167.733 221.174 163.913 221.174 147.816C221.17 136.631 216.031 133.424 207.163 134.323Z" fill="#FFBBC8"/>
<path d="M209.502 168.374C209.107 168.374 208.721 168.347 208.339 168.288C204.369 167.67 196.641 163.231 195.796 150.829C194.973 138.68 201.061 133.701 207.035 133.097C212.169 132.583 215.894 133.438 218.42 135.718C221.096 138.14 222.4 142.097 222.4 147.816C222.4 158.202 219.025 163.277 216.19 165.703C214.186 167.415 211.76 168.374 209.502 168.374ZM207.285 135.546C201.029 136.182 197.654 141.829 198.253 150.656C198.989 161.5 205.418 165.335 208.716 165.844C210.161 166.071 212.451 165.653 214.586 163.822C217.026 161.732 219.933 157.257 219.933 147.807C219.933 142.824 218.897 139.466 216.767 137.54C214.79 135.755 211.692 135.105 207.285 135.546Z" fill="#49263E"/>
<path d="M201.434 180.513C207.749 175.843 215.241 173.221 222.773 173.294C235.871 173.421 249.823 181.79 255.206 195.682C256.097 197.977 256.665 200.521 256.324 203.001C255.688 207.617 251.962 211.047 248.001 212.256C242.876 213.823 236.684 212.924 231.564 211.606C228.747 210.879 225.935 209.93 223.046 209.934C217.476 209.948 215.799 214.232 212.033 217.88C209.625 220.215 207.136 222.5 204.301 224.131C198.781 227.307 193.402 226.521 190.998 219.384C187.296 208.385 187.428 195.124 195.042 186.405C196.982 184.193 199.131 182.217 201.434 180.513Z" fill="#FFBBC8"/>
<path d="M219.661 227.148C219.461 227.148 219.257 227.098 219.066 226.994C218.471 226.667 218.253 225.921 218.58 225.322C218.634 225.226 223.963 215.758 234.099 219.557C234.735 219.797 235.058 220.506 234.821 221.142C234.581 221.778 233.872 222.096 233.236 221.864C225.126 218.821 220.915 226.194 220.742 226.508C220.515 226.916 220.093 227.148 219.661 227.148Z" fill="white"/>
<path d="M208.531 190.126C211.633 134.287 216.654 120.539 201.298 115.692C182.685 109.817 177.683 123.011 177.683 123.011C177.683 123.011 188.177 40.903 168.61 34.1792C156.167 29.9041 152.605 34.1792 152.605 34.1792C152.605 24.8022 146.294 14.4348 132.147 19.1506C123.665 21.9764 120.012 34.1792 116.546 55.9498C112.044 84.2216 104.407 111.421 100.454 132.946C93.3081 171.863 76.8438 203.451 68.9252 253.939C65.6269 274.969 53.5059 300.678 53.5059 300.678H157.53H192.621C222.287 233.136 206.636 224.213 208.531 190.126Z" fill="#FF9D76"/>
<path d="M156.02 234.762C155.339 234.762 154.789 234.213 154.789 233.531C154.789 226.771 156.752 220.134 159.023 212.447C162.04 202.243 165.792 189.54 165.974 171.99C166.447 126.218 180.826 117.641 181.439 117.296C182.034 116.959 182.784 117.178 183.115 117.768C183.447 118.359 183.238 119.104 182.652 119.44C182.484 119.54 168.895 128.036 168.441 172.013C168.255 189.908 164.448 202.792 161.39 213.146C159.173 220.647 157.261 227.125 157.261 233.531C157.256 234.208 156.702 234.762 156.02 234.762Z" fill="#49263E"/>
<path d="M125.932 180.286C125.863 180.286 125.791 180.281 125.718 180.268C125.046 180.15 124.6 179.514 124.714 178.846C139.02 96.2565 151.273 34.5519 151.396 33.9386C151.527 33.2708 152.177 32.8392 152.845 32.9709C153.513 33.1027 153.944 33.7523 153.813 34.4202C153.69 35.0335 141.446 96.7108 127.145 179.268C127.04 179.863 126.522 180.286 125.932 180.286Z" fill="#49263E"/>
<path d="M155.894 70.456C151.046 70.456 146.112 68.1072 145.785 67.9482C145.172 67.6529 144.917 66.9169 145.213 66.3036C145.508 65.6903 146.244 65.4359 146.857 65.7312C146.962 65.7857 157.965 71.0103 161.582 65.3995C165.539 59.2572 166.079 45.3053 165.62 41.0348C165.548 40.3579 166.038 39.7491 166.711 39.6764C167.401 39.5992 167.997 40.0944 168.069 40.7667C168.46 44.374 168.36 59.4299 163.653 66.7306C161.832 69.5655 158.878 70.456 155.894 70.456Z" fill="#49263E"/>
<path d="M198.38 156.303C197.726 156.303 197.172 156.253 196.786 156.203C188.731 155.181 182.784 154.127 179.577 149.852C177.051 146.485 176.451 141.297 177.691 133.533C178.641 127.577 181.026 123.492 184.783 121.394C190.503 118.195 197.167 120.903 197.449 121.016C198.112 121.289 198.421 122.048 198.149 122.706C197.876 123.37 197.122 123.688 196.459 123.411C196.395 123.388 190.639 121.071 186.032 123.661C183.016 125.355 181.071 128.812 180.253 133.933C179.131 140.956 179.577 145.517 181.653 148.289C184.251 151.76 189.462 152.655 197.113 153.627C198.19 153.763 200.893 153.913 202.855 152.368C204.132 151.36 204.9 149.756 205.136 147.607C205.213 146.894 205.858 146.394 206.567 146.458C207.28 146.535 207.794 147.176 207.717 147.889C207.403 150.76 206.308 152.955 204.468 154.408C202.487 155.967 200.089 156.303 198.38 156.303Z" fill="#49263E"/>
<path d="M120.012 42.8977C120.012 42.8977 109.654 36.2738 103.03 47.1546C96.4064 58.0353 94.0395 103.93 89.3101 123.801C84.5807 143.673 78.9473 209.566 78.9473 209.566L120.012 120.017V42.8977Z" fill="#FF9D76"/>
<path d="M86.9885 180.286C86.825 180.286 86.6614 180.254 86.5024 180.186C85.8755 179.918 85.5847 179.196 85.8573 178.569C88.7194 171.895 94.6482 143.687 98.9823 123.088C100.709 114.883 102.199 107.796 103.253 103.185C107.001 86.7934 118.709 43.0205 118.827 42.5798C119.004 41.9211 119.685 41.5395 120.335 41.7076C120.994 41.8847 121.384 42.5571 121.207 43.2159C121.089 43.6565 109.391 87.384 105.656 103.73C104.607 108.319 103.121 115.397 101.395 123.593C96.8016 145.445 91.0819 172.645 88.1243 179.541C87.9199 180.004 87.4655 180.286 86.9885 180.286Z" fill="#49263E"/>
<path d="M125.083 56.9541C121.257 56.9541 118.009 55.8183 117.8 55.7456C117.159 55.5184 116.828 54.8143 117.055 54.1737C117.282 53.5331 117.986 53.1969 118.627 53.4241C118.7 53.4468 125.773 55.9001 130.58 53.265C132.674 52.1156 134.069 50.1076 134.714 47.3045C137.513 35.1835 138.48 29.9044 138.489 29.8544C138.612 29.182 139.253 28.7368 139.92 28.864C140.588 28.9866 141.033 29.6272 140.911 30.2951C140.902 30.3496 139.929 35.6696 137.113 47.8587C136.3 51.3842 134.496 53.9283 131.752 55.4321C129.648 56.5815 127.268 56.9541 125.083 56.9541Z" fill="#49263E"/>
<path d="M101.504 71.2147C99.0866 71.2147 97.2148 70.4151 97.0967 70.3651C96.4743 70.0925 96.1926 69.3701 96.4607 68.7477C96.7287 68.1253 97.4465 67.8391 98.078 68.1072C98.1144 68.1208 101.608 69.5928 104.679 68.0345C106.842 66.935 108.359 64.5726 109.181 61.0108C109.336 60.3475 110.008 59.9386 110.658 60.0886C111.321 60.243 111.735 60.9018 111.58 61.5651C110.581 65.8901 108.627 68.8113 105.765 70.247C104.316 70.9739 102.826 71.2147 101.504 71.2147Z" fill="#49263E"/>
<path d="M73.6814 95.6251C73.3588 95.6251 73.0408 95.4979 72.8 95.2525L44.7281 66.3901C44.2556 65.904 44.2647 65.1226 44.7508 64.6456C45.2415 64.1731 46.0183 64.1822 46.4954 64.6683L74.5673 93.5307C75.0398 94.0168 75.0307 94.7982 74.5446 95.2752C74.3038 95.5115 73.9948 95.6251 73.6814 95.6251Z" fill="#49263E"/>
<path d="M195.654 40.0082C195.582 40.0082 195.504 39.9992 195.427 39.9855C194.759 39.8583 194.319 39.2177 194.441 38.5454L201.311 1.678C201.433 1.01016 202.074 0.57402 202.751 0.692141C203.419 0.819348 203.859 1.45993 203.737 2.12777L196.867 38.9951C196.754 39.5903 196.236 40.0082 195.654 40.0082Z" fill="#49263E"/>
<path d="M260.472 96.2747C260.085 96.2747 259.704 96.0929 259.463 95.7522C259.072 95.1934 259.204 94.4256 259.758 94.0349L287.062 74.7403C287.621 74.3451 288.389 74.4814 288.78 75.0356C289.17 75.5944 289.039 76.3622 288.484 76.7529L261.18 96.0475C260.967 96.1974 260.717 96.2747 260.472 96.2747Z" fill="#49263E"/>
<path d="M216.121 278.54L226.234 300.679H333.438C333.438 300.679 319.136 273.62 305.811 249.678C290.142 258.146 268.085 246.997 257.077 252.631C243.83 259.409 245.052 270.113 233.667 277.164C227.438 281.016 223.581 280.244 216.121 278.54Z" fill="white"/>
</g>
<defs>
<clipPath id="clip0_611_6873">
<rect width="355.244" height="300" fill="white" transform="translate(0.755859 0.673828)"/>
</clipPath>
</defs>
</svg>
