<svg width="309" height="309" viewBox="0 0 309 309" fill="none" xmlns="http://www.w3.org/2000/svg">
<g clip-path="url(#clip0_743_25401)">
<rect x="1" y="1" width="308" height="308" rx="30" fill="#F7E3E1"/>
<path d="M495 309C495 309 475.836 170.012 357.474 167.078C237.429 164.1 236.845 247.54 149.35 256.319C61.8545 265.097 -35.0321 152.645 -114 309H495Z" fill="#F2CCC9"/>
<path d="M234.974 122.235H39.5859V260.463H234.974V122.235Z" fill="white"/>
<path d="M39.5859 97.722V122.235H234.974V97.722C234.974 92.8526 231.026 88.9053 226.157 88.9053H48.4027C43.5332 88.9053 39.5859 92.8526 39.5859 97.722Z" fill="#E68A48"/>
<path d="M69.6645 111.428C73.6985 111.428 76.9686 108.157 76.9686 104.123C76.9686 100.09 73.6985 96.8193 69.6645 96.8193C65.6305 96.8193 62.3604 100.09 62.3604 104.123C62.3604 108.157 65.6305 111.428 69.6645 111.428Z" fill="#420909"/>
<path d="M69.6656 106.87C67.3503 106.87 65.4795 104.993 65.4795 102.684V83.7701C65.4795 81.4548 67.3569 79.584 69.6656 79.584C71.9809 79.584 73.8517 81.4614 73.8517 83.7701V102.684C73.8517 104.999 71.9743 106.87 69.6656 106.87Z" fill="white"/>
<path d="M205.757 111.428C209.791 111.428 213.061 108.157 213.061 104.123C213.061 100.09 209.791 96.8193 205.757 96.8193C201.723 96.8193 198.453 100.09 198.453 104.123C198.453 108.157 201.723 111.428 205.757 111.428Z" fill="#420909"/>
<path d="M205.757 106.87C203.442 106.87 201.571 104.993 201.571 102.684V83.7701C201.571 81.4548 203.449 79.584 205.757 79.584C208.073 79.584 209.944 81.4614 209.944 83.7701V102.684C209.944 104.999 208.066 106.87 205.757 106.87Z" fill="white"/>
<path d="M132.132 138.475H102.597V168.01H132.132V138.475Z" fill="#F7E3E1"/>
<path d="M171.426 138.475H141.891V168.01H171.426V138.475Z" fill="#E68A48"/>
<path d="M92.8378 138.475H63.3027V168.01H92.8378V138.475Z" fill="#F7E3E1"/>
<path d="M210.719 138.475H181.184V168.01H210.719V138.475Z" fill="#F7E3E1"/>
<path d="M132.132 175.971H102.597V205.506H132.132V175.971Z" fill="#F7E3E1"/>
<path d="M92.8378 175.971H63.3027V205.506H92.8378V175.971Z" fill="#E68A48"/>
<path d="M171.426 175.971H141.891V205.506H171.426V175.971Z" fill="#F7E3E1"/>
<path d="M210.719 175.971H181.184V205.506H210.719V175.971Z" fill="#F7E3E1"/>
<path d="M132.132 213.46H102.597V242.995H132.132V213.46Z" fill="#E68A48"/>
<path d="M92.8378 213.46H63.3027V242.995H92.8378V213.46Z" fill="#F7E3E1"/>
<path d="M171.426 213.46H141.891V242.995H171.426V213.46Z" fill="#F7E3E1"/>
<path d="M210.719 213.46H181.184V242.995H210.719V213.46Z" fill="#F7E3E1"/>
<path d="M151.497 154.536L155.232 157.482L161.82 150.476" stroke="white" stroke-width="2.06984" stroke-linecap="round" stroke-linejoin="round"/>
<path d="M72.9092 191.64L76.6442 194.586L83.2318 187.587" stroke="white" stroke-width="2.06984" stroke-linecap="round" stroke-linejoin="round"/>
<path d="M111.871 228.779L115.606 231.724L122.194 224.725" stroke="white" stroke-width="2.06984" stroke-linecap="round" stroke-linejoin="round"/>
<path d="M227.205 192.429H241.464V183.037H227.205V192.429Z" fill="#E68A48"/>
<path d="M221.16 185.471H247.503V178H221.16V185.471Z" fill="#9679BC"/>
<path d="M234.5 285.238C260.734 285.238 282 263.972 282 237.738C282 211.505 260.734 190.238 234.5 190.238C208.266 190.238 187 211.505 187 237.738C187 263.972 208.266 285.238 234.5 285.238Z" fill="#9679BC"/>
<path d="M243.187 275.786C264.19 270.984 277.323 250.064 272.52 229.061C267.717 208.058 246.798 194.925 225.795 199.728C204.792 204.531 191.659 225.45 196.462 246.453C201.264 267.456 222.184 280.589 243.187 275.786Z" fill="white"/>
<path d="M234.33 204.729V209.623" stroke="#F2CCC9" stroke-width="3.24815" stroke-linecap="round" stroke-linejoin="round"/>
<path d="M234.33 265.695V270.589" stroke="#F2CCC9" stroke-width="3.24815" stroke-linecap="round" stroke-linejoin="round"/>
<path d="M201.402 237.661H206.297" stroke="#F2CCC9" stroke-width="3.24815" stroke-linecap="round" stroke-linejoin="round"/>
<path d="M262.369 237.661H267.263" stroke="#F2CCC9" stroke-width="3.24815" stroke-linecap="round" stroke-linejoin="round"/>
<path d="M234.5 238.839L249.942 228.148" stroke="#420909" stroke-width="2.75267" stroke-linecap="round" stroke-linejoin="round"/>
<path d="M234.501 238.839L214.753 220.17" stroke="#420909" stroke-width="2.75267" stroke-linecap="round" stroke-linejoin="round"/>
<path d="M236.132 241.671C238.296 240.77 239.32 238.285 238.419 236.121C237.518 233.957 235.033 232.933 232.869 233.834C230.704 234.736 229.681 237.221 230.582 239.385C231.483 241.549 233.968 242.572 236.132 241.671Z" fill="#E68A48"/>
</g>
<path d="M0 0H84V37C84 48.0457 75.0457 57 64 57H0V0Z" fill="white"/>
<g clip-path="url(#clip1_743_25401)">
<path d="M24.6257 16.7581C25.7084 16.2361 26.9844 15.9751 28.4537 15.9751C29.923 15.9751 31.1894 16.2361 32.2527 16.7581C33.3354 17.2801 34.186 18.0244 34.8047 18.9911C35.4234 19.9577 35.8777 21.0597 36.1677 22.2971C36.4577 23.5151 36.6027 24.8974 36.6027 26.4441C36.6027 27.9908 36.4577 29.3828 36.1677 30.6201C35.8777 31.8381 35.4234 32.9304 34.8047 33.8971C34.186 34.8638 33.3354 35.6081 32.2527 36.1301C31.1894 36.6521 29.923 36.9131 28.4537 36.9131C26.9844 36.9131 25.7084 36.6521 24.6257 36.1301C23.5624 35.6081 22.7214 34.8638 22.1027 33.8971C21.484 32.9304 21.0297 31.8381 20.7397 30.6201C20.4497 29.3828 20.3047 27.9908 20.3047 26.4441C20.3047 24.8974 20.4497 23.5151 20.7397 22.2971C21.0297 21.0597 21.484 19.9577 22.1027 18.9911C22.7214 18.0244 23.5624 17.2801 24.6257 16.7581ZM29.9037 20.9631C29.4977 20.7311 29.0144 20.6151 28.4537 20.6151C27.893 20.6151 27.4 20.7311 26.9747 20.9631C26.5687 21.1757 26.2497 21.4464 26.0177 21.7751C25.805 22.1037 25.631 22.5387 25.4957 23.0801C25.3604 23.6214 25.2734 24.1434 25.2347 24.6461C25.196 25.1488 25.1767 25.7481 25.1767 26.4441C25.1767 27.1401 25.196 27.7394 25.2347 28.2421C25.2734 28.7448 25.3604 29.2668 25.4957 29.8081C25.631 30.3494 25.805 30.7844 26.0177 31.1131C26.2497 31.4418 26.5687 31.7221 26.9747 31.9541C27.4 32.1668 27.893 32.2731 28.4537 32.2731C29.0144 32.2731 29.4977 32.1668 29.9037 31.9541C30.329 31.7221 30.648 31.4418 30.8607 31.1131C31.0927 30.7844 31.2764 30.3494 31.4117 29.8081C31.547 29.2668 31.634 28.7448 31.6727 28.2421C31.7114 27.7394 31.7307 27.1401 31.7307 26.4441C31.7307 25.7481 31.7114 25.1488 31.6727 24.6461C31.634 24.1434 31.547 23.6214 31.4117 23.0801C31.2764 22.5387 31.0927 22.1037 30.8607 21.7751C30.648 21.4464 30.329 21.1757 29.9037 20.9631ZM40.7887 36.7101V33.0271C41.3107 32.5631 42.0453 31.9251 42.9927 31.1131C43.94 30.3011 44.6747 29.6728 45.1967 29.2281C45.7187 28.7641 46.3277 28.1938 47.0237 27.5171C47.7197 26.8211 48.2417 26.2314 48.5897 25.7481C49.4983 24.4914 49.9527 23.3991 49.9527 22.4711C49.9527 20.8277 49.2277 20.0061 47.7777 20.0061C47.0817 20.0061 46.5307 20.2574 46.1247 20.7601C45.7187 21.2434 45.5157 21.9491 45.5157 22.8771H40.7307C40.7307 20.5571 41.3977 18.8074 42.7317 17.6281C44.085 16.4294 45.854 15.8301 48.0387 15.8301C50.2233 15.8301 51.9247 16.4584 53.1427 17.7151C54.3607 18.9524 54.9697 20.4507 54.9697 22.2101C54.9697 23.5441 54.6797 24.7137 54.0997 25.7191C53.7517 26.2991 53.452 26.7921 53.2007 27.1981C52.9493 27.6041 52.5337 28.1068 51.9537 28.7061C51.3737 29.3054 50.9483 29.7404 50.6777 30.0111C50.407 30.2818 49.9043 30.7458 49.1697 31.4031C48.4543 32.0604 48 32.4858 47.8067 32.6791H55.3467V36.7101H40.7887Z" fill="#222222"/>
</g>
<defs>
<clipPath id="clip0_743_25401">
<rect x="1" y="1" width="308" height="308" rx="30" fill="white"/>
</clipPath>
<clipPath id="clip1_743_25401">
<rect width="36" height="22" fill="white" transform="translate(20 15)"/>
</clipPath>
</defs>
</svg>
