<svg width="309" height="309" viewBox="0 0 309 309" fill="none" xmlns="http://www.w3.org/2000/svg">
<g clip-path="url(#clip0_743_25340)">
<rect x="1" y="1" width="308" height="308" rx="30" fill="#E6E6E6"/>
<rect width="308" height="308" transform="translate(1 1)" fill="#2FB484"/>
<g clip-path="url(#clip1_743_25340)">
<path d="M460 309C460 309 440.836 170.011 322.474 167.078C202.429 164.099 201.845 247.54 114.35 256.318C26.8545 265.097 -70.0321 152.645 -149 309H460Z" fill="#2A9C73"/>
</g>
<path d="M0 0H78V37C78 48.0457 69.0457 57 58 57H0V0Z" fill="white"/>
<g clip-path="url(#clip2_743_25340)">
<path d="M24.6257 16.7581C25.7084 16.2361 26.9844 15.9751 28.4537 15.9751C29.923 15.9751 31.1894 16.2361 32.2527 16.7581C33.3354 17.2801 34.186 18.0244 34.8047 18.9911C35.4234 19.9578 35.8777 21.0598 36.1677 22.2971C36.4577 23.5151 36.6027 24.8974 36.6027 26.4441C36.6027 27.9908 36.4577 29.3828 36.1677 30.6201C35.8777 31.8381 35.4234 32.9304 34.8047 33.8971C34.186 34.8638 33.3354 35.6081 32.2527 36.1301C31.1894 36.6521 29.923 36.9131 28.4537 36.9131C26.9844 36.9131 25.7084 36.6521 24.6257 36.1301C23.5624 35.6081 22.7214 34.8638 22.1027 33.8971C21.484 32.9304 21.0297 31.8381 20.7397 30.6201C20.4497 29.3828 20.3047 27.9908 20.3047 26.4441C20.3047 24.8974 20.4497 23.5151 20.7397 22.2971C21.0297 21.0598 21.484 19.9578 22.1027 18.9911C22.7214 18.0244 23.5624 17.2801 24.6257 16.7581ZM29.9037 20.9631C29.4977 20.7311 29.0144 20.6151 28.4537 20.6151C27.893 20.6151 27.4 20.7311 26.9747 20.9631C26.5687 21.1758 26.2497 21.4464 26.0177 21.7751C25.805 22.1038 25.631 22.5388 25.4957 23.0801C25.3604 23.6214 25.2734 24.1434 25.2347 24.6461C25.196 25.1488 25.1767 25.7481 25.1767 26.4441C25.1767 27.1401 25.196 27.7394 25.2347 28.2421C25.2734 28.7448 25.3604 29.2668 25.4957 29.8081C25.631 30.3494 25.805 30.7844 26.0177 31.1131C26.2497 31.4418 26.5687 31.7221 26.9747 31.9541C27.4 32.1668 27.893 32.2731 28.4537 32.2731C29.0144 32.2731 29.4977 32.1668 29.9037 31.9541C30.329 31.7221 30.648 31.4418 30.8607 31.1131C31.0927 30.7844 31.2764 30.3494 31.4117 29.8081C31.547 29.2668 31.634 28.7448 31.6727 28.2421C31.7114 27.7394 31.7307 27.1401 31.7307 26.4441C31.7307 25.7481 31.7114 25.1488 31.6727 24.6461C31.634 24.1434 31.547 23.6214 31.4117 23.0801C31.2764 22.5388 31.0927 22.1038 30.8607 21.7751C30.648 21.4464 30.329 21.1758 29.9037 20.9631ZM43.9787 37.0001V21.0211H40.4697V16.4101H49.1117V37.0001H43.9787Z" fill="#222222"/>
</g>
<g clip-path="url(#clip3_743_25340)">
<path d="M88.2376 203.652C88.2376 203.652 72.0266 239.115 114.327 269.503C114.327 269.503 157.122 297.29 186.124 250.243L88.2376 203.652Z" fill="#F7E0D4"/>
<path d="M102.385 246.576L65.8594 325.991H141.05L156.122 272.155L102.385 246.576Z" fill="#F7E0D4"/>
<path d="M136.668 263.693L176.056 254.177L138.682 225.552L136.668 263.693Z" fill="#D69799"/>
<path d="M184.249 146.555L166.177 136.049L189.835 95.1807C192.735 90.1816 199.118 88.4814 204.108 91.3743C209.098 94.2799 210.795 100.675 207.907 105.674L184.249 146.542V146.555Z" fill="#F7E0D4"/>
<mask id="mask0_743_25340" style="mask-type:luminance" maskUnits="userSpaceOnUse" x="166" y="89" width="44" height="58">
<path d="M184.249 146.555L166.177 136.049L189.835 95.1807C192.735 90.1816 199.118 88.4814 204.108 91.3743C209.098 94.2799 210.795 100.675 207.907 105.674L184.249 146.542V146.555Z" fill="white"/>
</mask>
<g mask="url(#mask0_743_25340)">
<path d="M205.475 137.395L193.039 138.866L181.096 89.1923L195.787 85.6523L205.475 137.395Z" fill="#D69799"/>
</g>
<path d="M194.23 171.475L176.157 160.969L199.815 120.101C202.715 115.102 209.098 113.401 214.088 116.294C219.078 119.2 220.775 125.595 217.888 130.594L194.23 171.462V171.475Z" fill="#F7E0D4"/>
<mask id="mask1_743_25340" style="mask-type:luminance" maskUnits="userSpaceOnUse" x="176" y="114" width="44" height="58">
<path d="M194.23 171.475L176.157 160.969L199.815 120.101C202.715 115.102 209.098 113.401 214.088 116.294C219.078 119.2 220.775 125.595 217.888 130.594L194.23 171.462V171.475Z" fill="white"/>
</mask>
<g mask="url(#mask1_743_25340)">
<path d="M201.183 113.566L210.922 160.131L189.81 125.442L201.183 113.566Z" fill="#D69799"/>
</g>
<path d="M200.042 203.018L181.97 192.512L205.628 151.644C208.528 146.644 214.911 144.944 219.901 147.837C224.891 150.743 226.588 157.138 223.7 162.137L200.042 203.005V203.018Z" fill="#F7E0D4"/>
<mask id="mask2_743_25340" style="mask-type:luminance" maskUnits="userSpaceOnUse" x="181" y="146" width="45" height="58">
<path d="M200.042 203.018L181.97 192.512L205.628 151.644C208.528 146.644 214.911 144.944 219.901 147.837C224.891 150.743 226.588 157.138 223.7 162.137L200.042 203.005V203.018Z" fill="white"/>
</mask>
<g mask="url(#mask2_743_25340)">
<path d="M206.654 138.905L218.129 195.189L197.802 150.185L206.654 138.905Z" fill="#D69799"/>
</g>
<path d="M177.861 72.2832L111.251 88.3658C105.709 89.7039 102.3 95.2895 103.635 100.842L141.299 257.409C142.635 262.962 148.21 266.378 153.752 265.04L220.361 248.957C225.903 247.619 229.313 242.033 227.978 236.481L190.314 79.9134C188.978 74.3613 183.403 70.9451 177.861 72.2832Z" fill="#49263E"/>
<path d="M177.108 77.434L114.278 92.604C109.953 93.6481 107.292 98.007 108.334 102.34L141.111 238.592C142.153 242.925 146.504 245.59 150.829 244.546L213.659 229.376C217.983 228.332 220.644 223.973 219.602 219.641L186.825 83.3884C185.783 79.0557 181.432 76.3898 177.108 77.434Z" fill="#95BCDF"/>
<mask id="mask3_743_25340" style="mask-type:luminance" maskUnits="userSpaceOnUse" x="108" y="77" width="112" height="168">
<path d="M177.108 77.434L114.278 92.604C109.953 93.6481 107.292 98.007 108.334 102.34L141.111 238.592C142.153 242.925 146.504 245.59 150.829 244.546L213.659 229.376C217.983 228.332 220.644 223.973 219.602 219.641L186.825 83.3884C185.783 79.0557 181.432 76.3898 177.108 77.434Z" fill="white"/>
</mask>
<g mask="url(#mask3_743_25340)">
<path d="M207.393 99.4298L112.009 215.725L117.077 219.897L212.461 103.602L207.393 99.4298Z" fill="#D8EEFF"/>
<path d="M182.106 75.5895L86.7217 191.884L91.7904 196.057L187.174 79.7621L182.106 75.5895Z" fill="#D8EEFF"/>
<path d="M224.371 284.704L175.788 242.3C163.617 232.809 162.098 220.921 171.406 207.928L189.226 183.034C190.783 180.852 190.467 177.844 188.478 176.043L93.5303 89.6745L97.9376 84.8149L192.899 171.17C197.357 175.218 198.066 181.968 194.558 186.866L176.738 211.76C169.431 221.961 170.393 229.802 179.879 237.174L180.018 237.288L228.664 279.743L224.358 284.691L224.371 284.704Z" fill="#D8EEFF"/>
</g>
<path d="M170.938 154.029C172.027 158.533 169.253 163.063 164.757 164.154C160.261 165.245 155.74 162.466 154.651 157.962C153.562 153.458 156.335 148.928 160.831 147.837C165.327 146.746 169.849 149.524 170.938 154.029Z" fill="white"/>
<path d="M178.436 153.471C176.397 144.97 167.861 139.742 159.375 141.798C150.89 143.84 145.672 152.392 147.724 160.893C148.332 163.406 149.509 165.626 151.08 167.453H151.067L151.244 167.656C151.32 167.745 151.409 167.834 151.498 167.935L170.723 188.972L178.296 161.426C178.322 161.337 178.347 161.236 178.372 161.147L178.41 161.02C179.006 158.622 179.069 156.059 178.448 153.483L178.436 153.471ZM164.277 162.137C160.895 162.949 157.488 160.868 156.665 157.468C155.854 154.08 157.931 150.667 161.326 149.842C164.707 149.03 168.114 151.111 168.937 154.511C169.748 157.899 167.671 161.312 164.277 162.137Z" fill="#564E86"/>
<path d="M187.72 244.914C188.251 247.109 186.896 249.317 184.705 249.85C182.514 250.382 180.311 249.025 179.779 246.83C179.247 244.635 180.602 242.427 182.793 241.894C184.984 241.361 187.188 242.719 187.72 244.914Z" stroke="white" stroke-width="0.520631" stroke-miterlimit="10"/>
<path d="M127.93 134.692C134.921 139.184 143.533 152.012 125.84 190.089C125.84 190.089 156.299 226.808 136.124 264.898L100.371 213.448L88.251 203.653L122.535 136.139C123.548 134.134 126.055 133.487 127.943 134.692H127.93Z" fill="#F7E0D4"/>
</g>
</g>
<path d="M0 0H78V37C78 48.0457 69.0457 57 58 57H0V0Z" fill="white"/>
<g clip-path="url(#clip4_743_25340)">
<path d="M24.6257 16.7581C25.7084 16.2361 26.9844 15.9751 28.4537 15.9751C29.923 15.9751 31.1894 16.2361 32.2527 16.7581C33.3354 17.2801 34.186 18.0244 34.8047 18.9911C35.4234 19.9578 35.8777 21.0598 36.1677 22.2971C36.4577 23.5151 36.6027 24.8974 36.6027 26.4441C36.6027 27.9908 36.4577 29.3828 36.1677 30.6201C35.8777 31.8381 35.4234 32.9304 34.8047 33.8971C34.186 34.8638 33.3354 35.6081 32.2527 36.1301C31.1894 36.6521 29.923 36.9131 28.4537 36.9131C26.9844 36.9131 25.7084 36.6521 24.6257 36.1301C23.5624 35.6081 22.7214 34.8638 22.1027 33.8971C21.484 32.9304 21.0297 31.8381 20.7397 30.6201C20.4497 29.3828 20.3047 27.9908 20.3047 26.4441C20.3047 24.8974 20.4497 23.5151 20.7397 22.2971C21.0297 21.0598 21.484 19.9578 22.1027 18.9911C22.7214 18.0244 23.5624 17.2801 24.6257 16.7581ZM29.9037 20.9631C29.4977 20.7311 29.0144 20.6151 28.4537 20.6151C27.893 20.6151 27.4 20.7311 26.9747 20.9631C26.5687 21.1758 26.2497 21.4464 26.0177 21.7751C25.805 22.1038 25.631 22.5388 25.4957 23.0801C25.3604 23.6214 25.2734 24.1434 25.2347 24.6461C25.196 25.1488 25.1767 25.7481 25.1767 26.4441C25.1767 27.1401 25.196 27.7394 25.2347 28.2421C25.2734 28.7448 25.3604 29.2668 25.4957 29.8081C25.631 30.3494 25.805 30.7844 26.0177 31.1131C26.2497 31.4418 26.5687 31.7221 26.9747 31.9541C27.4 32.1668 27.893 32.2731 28.4537 32.2731C29.0144 32.2731 29.4977 32.1668 29.9037 31.9541C30.329 31.7221 30.648 31.4418 30.8607 31.1131C31.0927 30.7844 31.2764 30.3494 31.4117 29.8081C31.547 29.2668 31.634 28.7448 31.6727 28.2421C31.7114 27.7394 31.7307 27.1401 31.7307 26.4441C31.7307 25.7481 31.7114 25.1488 31.6727 24.6461C31.634 24.1434 31.547 23.6214 31.4117 23.0801C31.2764 22.5388 31.0927 22.1038 30.8607 21.7751C30.648 21.4464 30.329 21.1758 29.9037 20.9631ZM43.9787 37.0001V21.0211H40.4697V16.4101H49.1117V37.0001H43.9787Z" fill="#222222"/>
</g>
<defs>
<clipPath id="clip0_743_25340">
<rect x="1" y="1" width="308" height="308" rx="30" fill="white"/>
</clipPath>
<clipPath id="clip1_743_25340">
<rect x="1" y="1" width="308" height="308" rx="30" fill="white"/>
</clipPath>
<clipPath id="clip2_743_25340">
<rect width="30" height="22" fill="white" transform="translate(20 15)"/>
</clipPath>
<clipPath id="clip3_743_25340">
<rect width="201.244" height="254.308" fill="white" transform="translate(52.8779 72)"/>
</clipPath>
<clipPath id="clip4_743_25340">
<rect width="30" height="22" fill="white" transform="translate(20 15)"/>
</clipPath>
</defs>
</svg>
