<svg width="309" height="309" viewBox="0 0 309 309" fill="none" xmlns="http://www.w3.org/2000/svg">
<g clip-path="url(#clip0_743_25503)">
<rect x="1" y="1" width="308" height="308" rx="30" fill="#AEA4DD"/>
<path d="M460 309C460 309 440.836 170.011 322.474 167.078C202.429 164.099 201.845 247.54 114.35 256.318C26.8545 265.097 -70.0321 152.645 -149 309H460Z" fill="#9083CA"/>
<path d="M155.267 120.307C177.443 120.307 195.42 102.329 195.42 80.1534C195.42 57.9773 177.443 40 155.267 40C133.091 40 115.113 57.9773 115.113 80.1534C115.113 102.329 133.091 120.307 155.267 120.307Z" fill="#F7E3E1" fill-opacity="0.4"/>
<path d="M154.957 107.642C170.31 107.642 182.756 95.1966 182.756 79.8441C182.756 64.4916 170.31 52.0459 154.957 52.0459C139.605 52.0459 127.159 64.4916 127.159 79.8441C127.159 95.1966 139.605 107.642 154.957 107.642Z" fill="#E68A48"/>
<path d="M141.213 78.6474L151.251 89.1877L169.32 71.1187" stroke="white" stroke-width="6.023"/>
<path d="M90.5791 258.528H115.091V273.619C115.091 276.035 113.131 277.996 110.714 277.996H94.9559C92.5397 277.996 90.5791 276.035 90.5791 273.619V258.528Z" fill="#040701"/>
<path d="M194.627 258.528H219.139V273.619C219.139 276.035 217.179 277.996 214.762 277.996H199.004C196.588 277.996 194.627 276.035 194.627 273.619V258.528Z" fill="#040701"/>
<path d="M84.6344 197.21C84.4648 196.786 82.9811 189.421 82.2181 185.574C81.9532 184.239 80.7768 183.285 79.4098 183.285H72.0021C69.2361 183.285 67 185.532 67 188.287V188.499C67 190.131 68.3247 191.456 69.9567 191.456H78.9965L81.0736 198.705L84.645 197.21H84.6344Z" fill="#E1AA2F"/>
<path d="M225.9 197.21C226.07 196.786 227.553 189.421 228.317 185.574C228.581 184.239 229.758 183.285 231.125 183.285H238.533C241.299 183.285 243.535 185.532 243.535 188.287V188.499C243.535 190.131 242.21 191.456 240.578 191.456H231.538L229.461 198.705L225.89 197.21H225.9Z" fill="#E1AA2F"/>
<path d="M232.524 204.269H232.535L208.181 158.922C206.941 156.612 204.525 155.17 201.908 155.17H107.865C105.205 155.17 102.767 156.654 101.538 159.017L78.0749 204.269H78.0855C77.5344 205.159 77.1953 206.187 77.1953 207.31V252.732C77.1953 257.225 80.8409 260.871 85.3342 260.871H225.254C229.747 260.871 233.393 257.225 233.393 252.732V207.31C233.393 206.187 233.064 205.149 232.503 204.269H232.524Z" fill="#FFD333"/>
<path d="M90.473 196.723L105.903 165.164C106.899 163.119 108.976 161.826 111.255 161.826H197.519C199.692 161.826 201.695 163.013 202.744 164.92L220.039 196.512C221.915 199.935 219.435 204.099 215.546 204.099H95.0829C91.289 204.099 88.8092 200.125 90.473 196.713V196.723Z" fill="#3B3D51"/>
<mask id="mask0_743_25503" style="mask-type:luminance" maskUnits="userSpaceOnUse" x="89" y="161" width="132" height="44">
<path d="M90.473 196.723L105.903 165.164C106.899 163.119 108.976 161.826 111.255 161.826H197.519C199.692 161.826 201.695 163.013 202.744 164.92L220.039 196.512C221.915 199.935 219.435 204.099 215.546 204.099H95.0829C91.289 204.099 88.8092 200.125 90.473 196.713V196.723Z" fill="white"/>
</mask>
<g mask="url(#mask0_743_25503)">
<path d="M127.629 147.889L185.545 223.1H253.295L207.015 140.439L127.629 147.889Z" fill="#46495E"/>
</g>
<path d="M88.0244 221.331V231.569C88.0244 233.794 89.8366 235.606 92.0621 235.606H116.733C119.033 235.606 120.57 233.232 119.616 231.134L118.62 228.93C116.797 224.903 113.183 221.967 108.87 220.982L92.9523 217.378C90.4301 216.806 88.0244 218.724 88.0244 221.321V221.331Z" fill="#F7F7F7"/>
<path d="M222.953 221.331V231.569C222.953 233.794 221.141 235.606 218.915 235.606H194.244C191.945 235.606 190.408 233.232 191.362 231.134L192.358 228.93C194.181 224.903 197.794 221.967 202.108 220.982L218.025 217.378C220.547 216.806 222.953 218.724 222.953 221.321V221.331Z" fill="#F7F7F7"/>
<path d="M77.2051 207.321C77.2051 207.321 139.529 230.19 233.403 207.321" stroke="#1C1C1C" stroke-width="2.27848" stroke-miterlimit="10"/>
<path d="M77.2051 245.759H233.403" stroke="#1C1C1C" stroke-width="2.27848" stroke-miterlimit="10"/>
<path d="M108.574 249.563H96.2595C95.8147 249.563 95.4541 249.924 95.4541 250.368V255.688C95.4541 256.133 95.8147 256.494 96.2595 256.494H108.574C109.019 256.494 109.379 256.133 109.379 255.688V250.368C109.379 249.924 109.019 249.563 108.574 249.563Z" fill="#F7F7F7"/>
<path d="M213.172 249.563H200.857C200.412 249.563 200.052 249.924 200.052 250.368V255.688C200.052 256.133 200.412 256.494 200.857 256.494H213.172C213.616 256.494 213.977 256.133 213.977 255.688V250.368C213.977 249.924 213.616 249.563 213.172 249.563Z" fill="#F7F7F7"/>
<path d="M177.521 237.662H129.673C128.465 237.662 127.479 236.676 127.479 235.468C127.479 234.26 128.465 233.274 129.673 233.274H177.521C178.729 233.274 179.715 234.26 179.715 235.468C179.715 236.676 178.729 237.662 177.521 237.662Z" fill="#AE6919"/>
<path d="M127.49 227.965H179.715" stroke="#E1AA2F" stroke-width="2.27848" stroke-miterlimit="10"/>
<path d="M178.465 150.708H132.769V155.18H178.465V150.708Z" fill="#E1AA2F"/>
<path d="M135.523 150.709L137.95 141.744C138.83 138.511 141.755 136.265 145.114 136.265H166.14C169.489 136.265 172.424 138.511 173.304 141.744L175.731 150.709H135.545H135.523Z" fill="#AE6919"/>
<path d="M146.737 142.347H144.84V141.118H150.001V142.347H148.114V147.328H146.737V142.347Z" fill="#F7F7F7"/>
<path d="M155.152 146.258H151.962L151.506 147.328H150.012L152.799 141.107H154.304L157.091 147.328H155.586L155.13 146.258H155.152ZM153.562 142.506L152.492 145.029H154.632L153.562 142.506Z" fill="#F7F7F7"/>
<path d="M162.22 141.107H163.735V141.171L161.637 144.202L163.767 147.286V147.328H162.23L160.768 145.145L159.305 147.328H157.769V147.286L159.877 144.202L157.79 141.171V141.107H159.305L160.757 143.322L162.209 141.107H162.22Z" fill="#F7F7F7"/>
<path d="M165.007 147.328V141.107H166.385V147.328H165.007Z" fill="#F7F7F7"/>
</g>
<path d="M0 0H87V37C87 48.0457 78.0457 57 67 57H0V0Z" fill="white"/>
<g clip-path="url(#clip1_743_25503)">
<path d="M24.6257 16.7581C25.7084 16.2361 26.9844 15.9751 28.4537 15.9751C29.923 15.9751 31.1894 16.2361 32.2527 16.7581C33.3354 17.2801 34.186 18.0244 34.8047 18.9911C35.4234 19.9578 35.8777 21.0598 36.1677 22.2971C36.4577 23.5151 36.6027 24.8974 36.6027 26.4441C36.6027 27.9908 36.4577 29.3828 36.1677 30.6201C35.8777 31.8381 35.4234 32.9304 34.8047 33.8971C34.186 34.8638 33.3354 35.6081 32.2527 36.1301C31.1894 36.6521 29.923 36.9131 28.4537 36.9131C26.9844 36.9131 25.7084 36.6521 24.6257 36.1301C23.5624 35.6081 22.7214 34.8638 22.1027 33.8971C21.484 32.9304 21.0297 31.8381 20.7397 30.6201C20.4497 29.3828 20.3047 27.9908 20.3047 26.4441C20.3047 24.8974 20.4497 23.5151 20.7397 22.2971C21.0297 21.0598 21.484 19.9578 22.1027 18.9911C22.7214 18.0244 23.5624 17.2801 24.6257 16.7581ZM29.9037 20.9631C29.4977 20.7311 29.0144 20.6151 28.4537 20.6151C27.893 20.6151 27.4 20.7311 26.9747 20.9631C26.5687 21.1758 26.2497 21.4464 26.0177 21.7751C25.805 22.1038 25.631 22.5388 25.4957 23.0801C25.3604 23.6214 25.2734 24.1434 25.2347 24.6461C25.196 25.1488 25.1767 25.7481 25.1767 26.4441C25.1767 27.1401 25.196 27.7394 25.2347 28.2421C25.2734 28.7448 25.3604 29.2668 25.4957 29.8081C25.631 30.3494 25.805 30.7844 26.0177 31.1131C26.2497 31.4418 26.5687 31.7221 26.9747 31.9541C27.4 32.1668 27.893 32.2731 28.4537 32.2731C29.0144 32.2731 29.4977 32.1668 29.9037 31.9541C30.329 31.7221 30.648 31.4418 30.8607 31.1131C31.0927 30.7844 31.2764 30.3494 31.4117 29.8081C31.547 29.2668 31.634 28.7448 31.6727 28.2421C31.7114 27.7394 31.7307 27.1401 31.7307 26.4441C31.7307 25.7481 31.7114 25.1488 31.6727 24.6461C31.634 24.1434 31.547 23.6214 31.4117 23.0801C31.2764 22.5388 31.0927 22.1038 30.8607 21.7751C30.648 21.4464 30.329 21.1758 29.9037 20.9631ZM51.1707 28.9381V21.7461L46.5887 28.9381H51.1707ZM50.8227 37.0001V33.2301H41.0787V29.2281L50.2427 16.1201H55.7817V28.9381H58.1597V33.2301H55.7817V37.0001H50.8227Z" fill="#222222"/>
</g>
<defs>
<clipPath id="clip0_743_25503">
<rect x="1" y="1" width="308" height="308" rx="30" fill="white"/>
</clipPath>
<clipPath id="clip1_743_25503">
<rect width="39" height="22" fill="white" transform="translate(20 15)"/>
</clipPath>
</defs>
</svg>
