<svg width="373" height="250" viewBox="0 0 373 250" fill="none" xmlns="http://www.w3.org/2000/svg">
<path d="M92.3021 249.641C69.5936 248.891 45.7691 243.885 29.4779 228.98C18.8694 219.276 12.3812 206.137 8.68536 192.638C-4.97135 142.768 17.5467 83.0546 76.4954 74.2182C114.074 68.5858 122.968 -34.0923 265.637 11.7529C382.773 49.3933 337.982 132.432 345.635 165.215C349.064 179.905 375.561 228.045 330.465 249.446C268.609 249.415 206.721 249.451 144.904 248.778C127.584 248.588 110.292 250.17 92.9716 249.661C92.7485 249.656 92.5253 249.651 92.3021 249.641Z" fill="#FFC885"/>
<mask id="mask0_611_8650" style="mask-type:luminance" maskUnits="userSpaceOnUse" x="4" y="0" width="353" height="250">
<path d="M92.3021 249.641C69.5936 248.891 45.7691 243.885 29.4779 228.98C18.8694 219.276 12.3812 206.137 8.68536 192.638C-4.97135 142.768 17.5467 83.0546 76.4954 74.2182C114.074 68.5858 122.968 -34.0923 265.637 11.7529C382.773 49.3933 337.982 132.432 345.635 165.215C349.064 179.905 375.561 228.045 330.465 249.446C268.609 249.415 206.721 249.451 144.904 248.778C127.584 248.588 110.292 250.17 92.9716 249.661C92.7485 249.656 92.5253 249.651 92.3021 249.641Z" fill="white"/>
</mask>
<g mask="url(#mask0_611_8650)">
<path d="M376.54 185.743H4.82055C4.30346 185.743 3.87891 185.348 3.87891 184.855C3.87891 184.367 4.29801 183.967 4.82055 183.967H376.54C377.057 183.967 377.482 184.362 377.482 184.855C377.482 185.348 377.057 185.743 376.54 185.743Z" fill="#F4F0ED"/>
<path d="M362.763 90.7975H260.27C259.753 90.7975 259.328 90.4022 259.328 89.9093V21.5342C259.328 21.0465 259.747 20.646 260.27 20.646H362.763C363.28 20.646 363.705 21.0413 363.705 21.5342V89.9144C363.705 90.4022 363.28 90.7975 362.763 90.7975ZM261.206 89.0262H361.822V22.4225H261.206V89.0262Z" fill="#F4F0ED"/>
<path d="M350.236 78.097V33.3506L272.792 33.3506V78.097L350.236 78.097Z" fill="#F4F0ED"/>
<path d="M74.5844 105.559H18.9397C18.4226 105.559 17.998 105.164 17.998 104.671V52.1817C17.998 51.6939 18.4172 51.2935 18.9397 51.2935H74.5844C75.1015 51.2935 75.5261 51.6888 75.5261 52.1817V104.671C75.5261 105.164 75.1015 105.559 74.5844 105.559ZM19.8759 103.788H73.6428V53.07H19.8759V103.788Z" fill="#F4F0ED"/>
<path d="M62.0586 92.8586L62.0586 63.998L31.463 63.998L31.463 92.8586H62.0586Z" fill="#F4F0ED"/>
</g>
<path d="M123.8 82.7053C141.74 69.2788 152.92 77.5298 159.664 62.2139C162.473 54.6663 165.684 43.9045 166.942 41.5786C175.476 25.8006 193.281 23.2077 210.927 31.5101C216.648 34.2005 221.656 37.3376 225.351 41.1474C226.277 42.0972 227.115 43.0933 227.866 44.1356C228.242 44.6542 228.623 45.1727 228.922 45.7273C232.493 52.402 233.821 58.6044 228.329 75.3374C222.499 93.1025 247.869 84.908 247.951 115.745C247.984 127.318 240.69 164.712 177.463 166.73C149.878 167.608 112.685 149.109 105.527 125.193C102.555 115.273 105.859 96.137 123.8 82.7053Z" fill="#75434B"/>
<path d="M295.15 174.715C295.15 174.715 267.461 127.16 251.817 117.6C232.206 105.616 207.255 106.047 184.84 104.928C171.869 104.281 158.517 103.059 145.797 106.232C134.154 109.138 124.96 115.49 116.654 123.53C109.453 130.497 77.3279 187.412 71.9066 209.377C66.7738 230.146 83.9521 249.914 106.96 249.796C117.607 249.739 129.652 249.554 140.909 249.087H196.591H252.546L301.845 249.318C343.06 233.745 295.15 174.715 295.15 174.715Z" fill="#9679BC"/>
<path d="M315.746 210.994C298.698 240.301 270.067 233.606 270.067 233.606C270.067 233.606 196.03 238.869 135.922 238.576C93.401 238.371 77.5507 218.757 73.0819 205.279C72.6084 206.748 72.211 208.113 71.9007 209.371C66.7679 230.14 83.9464 249.908 106.954 249.79C117.601 249.733 129.647 249.548 140.903 249.081H196.586H252.541L301.839 249.312C320.481 242.273 320.89 226.336 315.746 210.994Z" fill="#7C5FAA"/>
<mask id="mask1_611_8650" style="mask-type:luminance" maskUnits="userSpaceOnUse" x="70" y="104" width="249" height="146">
<path d="M295.15 174.715C295.15 174.715 267.461 127.16 251.817 117.6C232.206 105.616 207.255 106.047 184.84 104.928C171.869 104.281 158.517 103.059 145.797 106.232C134.154 109.138 124.96 115.49 116.654 123.53C109.453 130.497 77.3279 187.412 71.9066 209.377C66.7738 230.146 83.9521 249.914 106.96 249.796C117.607 249.739 129.652 249.554 140.909 249.087H196.591H252.546L301.845 249.318C343.06 233.745 295.15 174.715 295.15 174.715Z" fill="white"/>
</mask>
<g mask="url(#mask1_611_8650)">
<path d="M188.266 149.145C141.744 149.145 113.375 124.454 113.064 124.177C112.689 123.838 112.673 123.278 113.026 122.924C113.386 122.569 113.984 122.549 114.354 122.888C114.692 123.191 148.956 152.96 203.882 146.445C258.596 139.96 268.639 119.027 268.731 118.816C268.938 118.364 269.493 118.159 269.967 118.349C270.446 118.539 270.669 119.052 270.468 119.504C270.07 120.403 260.071 141.572 204.122 148.201C198.624 148.853 193.339 149.145 188.266 149.145Z" fill="#F4F0ED"/>
<path d="M194.024 179.649C165.828 179.649 138.918 176.219 137.013 175.973C108.921 171.916 87.5242 159.152 87.3119 159.024C86.8764 158.762 86.7458 158.213 87.0288 157.802C87.3064 157.386 87.8888 157.268 88.3243 157.535C88.5311 157.663 109.618 170.227 137.285 174.222C138.074 174.324 217.358 184.434 247.279 170.232C247.399 170.176 247.535 170.145 247.665 170.14C248.046 170.13 285.304 168.779 294.019 155.615C294.291 155.194 294.873 155.075 295.314 155.332C295.755 155.589 295.886 156.138 295.614 156.554C286.622 170.135 251.301 171.778 247.937 171.906C235.163 177.877 214.261 179.649 194.024 179.649Z" fill="#F4F0ED"/>
<path d="M315.542 239.47C315.308 239.47 315.079 239.387 314.894 239.228C301.003 226.829 284.827 218.742 284.663 218.66C284.206 218.434 284.032 217.895 284.266 217.464C284.511 217.027 285.071 216.863 285.54 217.094C285.703 217.176 302.097 225.371 316.184 237.945C316.56 238.284 316.576 238.843 316.217 239.197C316.037 239.377 315.792 239.47 315.542 239.47Z" fill="#F4F0ED"/>
<path d="M122.479 203.144C122.327 203.144 122.175 203.108 122.033 203.036C107.25 195.473 73.9759 192.593 73.6385 192.567C73.1268 192.521 72.7404 192.095 72.7893 191.607C72.8383 191.119 73.2085 190.749 73.8127 190.801C75.1898 190.919 107.805 193.738 122.926 201.48C123.383 201.711 123.552 202.25 123.307 202.682C123.132 202.974 122.806 203.144 122.479 203.144Z" fill="#F4F0ED"/>
<path d="M97.3918 252.537C96.9183 252.537 96.5155 252.203 96.4611 251.751C93.1844 225.052 115.223 203.503 115.441 203.288C115.8 202.933 116.405 202.928 116.775 203.272C117.145 203.616 117.15 204.176 116.786 204.525C116.568 204.736 95.1547 225.699 98.3226 251.541C98.3825 252.029 98.0178 252.465 97.4953 252.522C97.4626 252.532 97.4245 252.537 97.3918 252.537Z" fill="#F4F0ED"/>
<path d="M152.933 256.378C152.509 256.378 152.128 256.106 152.019 255.7C147.942 239.788 151.834 199.381 151.997 197.666C152.046 197.178 152.492 196.813 153.015 196.865C153.532 196.911 153.913 197.342 153.864 197.83C153.82 198.246 149.831 239.655 153.842 255.279C153.962 255.756 153.657 256.234 153.151 256.347C153.075 256.367 153.004 256.378 152.933 256.378Z" fill="#F4F0ED"/>
<path d="M251.872 252.537C251.513 252.537 251.17 252.342 251.017 252.013L243.968 237.272C243.751 236.826 243.963 236.302 244.437 236.097C244.921 235.901 245.471 236.097 245.678 236.538L252.726 251.284C252.944 251.731 252.732 252.255 252.258 252.455C252.133 252.511 252.002 252.537 251.872 252.537Z" fill="#F4F0ED"/>
</g>
<path d="M296.374 202.63C296.287 202.63 296.2 202.62 296.113 202.594C295.617 202.456 295.329 201.968 295.47 201.495C298.845 190.456 298.508 181.918 294.469 176.111C290.337 170.181 283.632 169.297 283.561 169.292C283.049 169.231 282.684 168.789 282.75 168.301C282.815 167.819 283.283 167.444 283.795 167.531C284.105 167.567 291.399 168.497 296.015 175.105C300.391 181.358 300.815 190.405 297.272 201.978C297.158 202.379 296.782 202.63 296.374 202.63Z" fill="#49263E"/>
<path d="M247.043 190.487C246.39 190.405 246.041 189.953 246.112 189.471C249.34 168.984 239.243 144.991 239.14 144.75C238.944 144.298 239.178 143.779 239.662 143.595C240.136 143.41 240.685 143.631 240.881 144.088C240.985 144.334 251.272 168.774 247.974 189.732C247.903 190.174 247.5 190.487 247.043 190.487Z" fill="#49263E"/>
<path d="M165.942 99.8655L187.828 46.2211L198.764 36.209C198.764 36.209 216.083 39.0175 223.965 47.7306C227.71 51.869 227.04 59.0007 225.625 64.7101C221.216 82.4393 215.436 97.5139 207.832 101.252C205.399 102.448 202.677 102.787 196.679 100.908L194.747 107.536C197.343 113.256 204.599 136.802 184.873 131.037C165.158 125.271 165.942 99.8655 165.942 99.8655Z" fill="#FF9D76"/>
<path d="M200.222 71.3121C200.886 71.4918 201.582 71.1272 201.773 70.506L202.328 68.6884C202.519 68.062 202.132 67.4048 201.473 67.2251C200.809 67.0454 200.113 67.4099 199.922 68.0312L199.367 69.8488C199.176 70.47 199.563 71.1324 200.222 71.3121Z" fill="#49263E"/>
<path d="M217.341 76.5548C218.005 76.7345 218.701 76.3699 218.892 75.7487L219.447 73.9311C219.638 73.3047 219.251 72.6475 218.593 72.4678C217.929 72.2881 217.232 72.6526 217.041 73.2739L216.486 75.0915C216.296 75.7127 216.682 76.3751 217.341 76.5548Z" fill="#49263E"/>
<path d="M223.971 71.8873C223.655 71.8873 223.345 71.7384 223.17 71.4662C223.078 71.3276 221.058 68.4061 216.72 69.5614C216.214 69.7051 215.702 69.4176 215.561 68.9452C215.419 68.4729 215.713 67.9851 216.214 67.8567C220.846 66.6296 223.84 69.0787 224.776 70.542C225.043 70.9631 224.901 71.5073 224.455 71.7589C224.308 71.8462 224.139 71.8873 223.971 71.8873Z" fill="#75434B"/>
<path d="M207.707 66.1219C207.391 66.1219 207.086 65.973 206.906 65.706C206.825 65.5777 204.795 62.6305 200.402 63.7806C199.896 63.9141 199.384 63.6368 199.243 63.1645C199.101 62.6921 199.395 62.2043 199.896 62.076C204.522 60.854 207.549 63.3031 208.507 64.7716C208.779 65.1874 208.643 65.7317 208.202 65.9884C208.049 66.0808 207.875 66.1219 207.707 66.1219Z" fill="#75434B"/>
<path d="M210.194 85.0828C209.905 85.0828 209.622 85.0726 209.367 85.0572C208.849 85.0264 208.458 84.6054 208.49 84.1176C208.517 83.6298 208.947 83.2396 209.486 83.2909C209.53 83.2961 214.913 83.5579 215.076 81.2628C215.142 80.2924 214.777 78.8548 214.39 77.335C213.52 73.8847 212.431 69.5872 216.056 67.9082C216.508 67.6977 217.085 67.8723 217.308 68.3138C217.537 68.7554 217.346 69.2843 216.878 69.4999C214.766 70.4754 215.272 73.1915 216.214 76.9243C216.633 78.5775 217.03 80.1384 216.943 81.3809C216.742 84.3178 212.932 85.0828 210.194 85.0828Z" fill="#EF685E"/>
<path d="M230.986 217.042C231.198 219.075 232.629 220.605 234.181 220.456C235.732 220.313 236.815 218.546 236.603 216.513C236.391 214.48 234.959 212.95 233.408 213.099C231.856 213.243 230.773 215.009 230.986 217.042Z" fill="white"/>
<path d="M130.032 195.704C129.651 195.704 129.292 195.483 129.15 195.129L125.182 185.168C124.997 184.711 125.247 184.198 125.732 184.028C126.222 183.859 126.761 184.085 126.946 184.547L130.914 194.508C131.099 194.965 130.848 195.478 130.364 195.647C130.25 195.689 130.141 195.704 130.032 195.704Z" fill="#49263E"/>
<path d="M135.923 200.417C135.362 200.396 134.96 199.98 134.981 199.493L137.409 147.281C137.431 146.803 137.844 146.434 138.351 146.434C138.911 146.454 139.314 146.87 139.292 147.358L136.865 199.57C136.843 200.047 136.424 200.417 135.923 200.417Z" fill="#49263E"/>
<path d="M195.775 178.401C195.775 178.401 193.412 187.812 207.096 201.87C207.096 201.87 227.486 191.884 225.625 179.253L195.775 178.401Z" fill="white"/>
<path d="M208.948 188.947C201.301 188.947 195.526 187.674 195.047 187.566C194.247 187.381 193.751 186.627 193.947 185.872C194.143 185.122 194.943 184.66 195.743 184.835C195.967 184.886 218.855 189.908 233.698 179.5C234.357 179.038 235.298 179.172 235.783 179.793C236.278 180.414 236.142 181.297 235.478 181.759C227.259 187.515 217.053 188.947 208.948 188.947Z" fill="#49263E"/>
<path d="M271.178 167.537C248.47 152.781 234.584 154.716 234.584 154.716L186.56 177.503L180.91 190.134C166.099 195.653 156.705 209.798 164.641 214.722C170.476 218.342 180.801 206.143 188.438 205.27C188.438 205.27 175.314 216.417 185.754 221.022C193.244 224.329 200.244 216.596 208.539 216.216C214.989 215.919 220.28 215.374 222.261 215.703C224.438 220.997 229.724 234.341 240.882 235.527C257.32 237.273 273.737 239.095 284.057 229.083C295.955 217.546 292.815 181.595 271.178 167.537Z" fill="#49263E"/>
<path d="M208.615 89.7503C206.971 89.7503 205.599 89.2882 204.522 88.3743C201.98 86.2127 202.127 82.3259 202.132 82.1616C202.154 81.6739 202.573 81.3401 203.112 81.3145C203.629 81.335 204.037 81.7457 204.015 82.2335C204.01 82.2643 203.901 85.4631 205.79 87.0599C206.726 87.8506 208.049 88.133 209.742 87.8968C210.253 87.8249 210.732 88.1535 210.808 88.6413C210.89 89.1239 210.531 89.5757 210.025 89.6476C209.529 89.7195 209.061 89.7503 208.615 89.7503Z" fill="#49263E"/>
<path d="M229.27 148.205C229.27 148.205 224.856 125.018 220.262 124.428C215.668 123.837 210.045 140.042 210.045 140.042L229.27 148.205Z" fill="#49263E"/>
<path d="M225.081 143.014C225.081 143.014 222.594 129.947 220.003 129.613C217.412 129.28 214.244 138.414 214.244 138.414L225.081 143.014Z" fill="#FFBBC8"/>
<path d="M233.408 213.983C232.88 213.978 232.467 213.577 232.467 213.089C232.57 202.554 235.95 194.436 242.509 188.953C253.564 179.721 269.502 181.292 270.171 181.359C270.688 181.41 271.053 181.852 270.998 182.339C270.939 182.827 270.465 183.192 269.959 183.12C269.796 183.099 254.147 181.574 243.739 190.287C237.605 195.422 234.437 203.098 234.339 213.105C234.345 213.593 233.926 213.983 233.408 213.983Z" fill="#F4F0ED"/>
<path d="M254.833 226.88C255.557 224.575 249.232 216.087 246.722 214.121C243.908 211.913 233.986 211.056 233.986 211.056L203.254 216.775V241.703L214.254 241.272C214.254 241.272 232.402 247.972 237.861 247.033C243.321 246.093 248.04 236.204 248.04 236.204C248.04 236.204 256.917 236.907 257.56 233.842C258.392 229.894 256.678 227.897 254.833 226.88Z" fill="#FF9D76"/>
<path d="M257.232 228.354C257.064 228.354 256.895 228.313 256.737 228.225L239.515 218.675C239.052 218.419 238.895 217.849 239.167 217.412C239.439 216.971 240.038 216.827 240.511 217.084L257.733 226.634C258.196 226.89 258.354 227.46 258.081 227.902C257.891 228.189 257.564 228.354 257.232 228.354Z" fill="#EF685E"/>
<path d="M248.895 237.175C248.748 237.175 248.595 237.144 248.459 237.077L237.225 231.799C236.74 231.573 236.544 231.019 236.789 230.562C237.029 230.1 237.617 229.915 238.101 230.146L249.336 235.424C249.82 235.65 250.016 236.204 249.771 236.661C249.597 236.985 249.248 237.175 248.895 237.175Z" fill="#EF685E"/>
<path d="M244.484 242.951C244.359 242.951 244.228 242.925 244.103 242.879L235.411 239.434C234.915 239.233 234.676 238.694 234.888 238.222C235.095 237.749 235.677 237.534 236.167 237.729L244.86 241.174C245.355 241.374 245.595 241.914 245.382 242.386C245.23 242.735 244.871 242.951 244.484 242.951Z" fill="#EF685E"/>
<path d="M239.395 247.464C239.303 247.464 239.21 247.453 239.112 247.423L233.027 245.697C232.51 245.554 232.216 245.035 232.368 244.547C232.526 244.06 233.081 243.777 233.588 243.926L239.673 245.651C240.19 245.795 240.484 246.314 240.332 246.801C240.206 247.202 239.815 247.464 239.395 247.464Z" fill="#EF685E"/>
<path d="M226.299 108.301C212.702 105.713 198.311 105.6 184.839 104.928C171.868 104.281 158.516 103.059 145.796 106.232C144.44 106.571 143.118 106.956 141.822 107.387C148.098 115.14 167.356 136.253 189.286 134.004C208.195 132.068 220.622 116.999 226.299 108.301Z" fill="#FF9D76"/>
<path d="M183.25 93.6519C188.393 98.5091 196.683 100.907 196.683 100.907L193.118 112.916C187.811 111.458 184.153 101.821 182.569 94.114C182.477 93.6724 182.912 93.3336 183.25 93.6519Z" fill="#EF685E"/>
<path d="M184.023 148.205C184.023 148.205 188.438 125.018 193.032 124.428C197.626 123.837 203.248 140.042 203.248 140.042L184.023 148.205Z" fill="#49263E"/>
<path d="M188.219 143.014C188.219 143.014 190.706 129.947 193.297 129.613C195.888 129.28 199.056 138.414 199.056 138.414L188.219 143.014Z" fill="#FFBBC8"/>
<path d="M97.3912 211.071C97.0319 211.071 96.6891 210.876 96.5312 210.547C96.3244 210.101 96.5312 209.577 97.0047 209.377C97.5218 209.161 148.856 187.792 187.115 201.213C187.6 201.383 187.85 201.891 187.67 202.353C187.491 202.81 186.935 203.046 186.462 202.877C148.915 189.702 98.2838 210.779 97.7722 210.994C97.6524 211.046 97.5164 211.071 97.3912 211.071Z" fill="#49263E"/>
<path d="M203.16 249.974C202.638 249.974 202.219 249.574 202.219 249.086L202.306 213.099C202.306 212.611 202.725 212.216 203.248 212.216C203.77 212.216 204.189 212.616 204.189 213.104L204.102 249.091C204.102 249.579 203.678 249.974 203.16 249.974Z" fill="#49263E"/>
<path d="M240.212 171.695C240.953 175.171 247.022 174.237 247.517 174.15C247.06 174.227 241.916 175.187 243.914 178.427C244.98 180.162 247.212 181.384 252.34 179.859C259.426 177.749 265.544 175.803 265.544 175.803C265.544 175.803 261.005 179.407 254.811 182.354C251.284 184.033 251.795 186.57 252.459 187.335C254.103 189.24 255.878 189.892 262.627 187.093C269.376 184.295 273.072 182.257 273.072 182.257C273.072 182.257 281.161 193.029 287.186 194.045C288.906 194.338 290.164 192.521 291.056 190.138C293.038 184.86 292.063 178.991 288.634 174.417C285.787 170.617 282.277 166.397 280.431 165.929C272.789 163.989 261.01 160.461 259.813 160.661C256.073 161.283 249.422 163.706 243.533 167.316C240.212 169.344 239.956 170.499 240.212 171.695Z" fill="#FF9D76"/>
<path d="M244.828 176.013C244.447 176.013 244.088 175.802 243.93 175.458C243.712 174.991 243.941 174.447 244.436 174.241C244.621 174.17 262.856 166.689 264.146 166.108C264.641 165.888 265.224 166.083 265.452 166.545C265.686 167.007 265.479 167.556 264.989 167.777C263.672 168.368 245.971 175.628 245.22 175.936C245.09 175.987 244.959 176.013 244.828 176.013Z" fill="#EF685E"/>
<path d="M262.006 179.217C261.685 179.217 261.364 179.063 261.179 178.785C260.89 178.354 261.026 177.784 261.483 177.512L269.071 172.973C269.528 172.696 270.133 172.829 270.421 173.261C270.71 173.692 270.573 174.262 270.116 174.534L262.529 179.073C262.365 179.17 262.186 179.217 262.006 179.217Z" fill="#EF685E"/>
<path d="M259.814 160.661C259.814 160.661 242.537 160.286 240.823 160.969C239.108 161.652 240.131 167.937 243.528 167.315L259.814 160.661Z" fill="#FF9D76"/>
<path d="M241.574 169.343C241.198 169.343 240.845 169.143 240.681 168.799C240.458 168.332 240.676 167.787 241.171 167.577L259.863 159.624C260.353 159.413 260.941 159.618 261.158 160.086C261.381 160.553 261.164 161.097 260.668 161.308L241.977 169.261C241.846 169.317 241.71 169.343 241.574 169.343Z" fill="#EF685E"/>
<path d="M287.92 217.664C287.501 217.664 287.114 217.397 287.011 216.996C286.886 216.519 287.185 216.041 287.691 215.918C290.342 215.281 292.176 211.374 292.655 209.921C292.813 209.454 293.336 209.197 293.831 209.341C294.326 209.484 294.599 209.982 294.446 210.45C294.359 210.701 292.367 216.626 288.143 217.638C288.072 217.653 287.996 217.664 287.92 217.664Z" fill="#49263E"/>
<path d="M229.675 52.2995C228.178 47.3037 214.298 37.4507 214.298 37.4507L198.339 33.2148L189.358 34.4214L171.738 47.6836L179.342 55.529L168.141 83.2395C168.141 83.2395 151.877 93.4878 149.193 93.8061C142.515 94.5917 137.137 109.168 137.137 109.168C137.137 109.168 164.853 118.225 175.5 109.168C182.14 103.52 185.003 85.8529 186.217 73.3557C186.848 66.8709 192.237 59.6006 199.057 58.6097C213.835 56.4635 224.754 54.5227 224.754 54.5227C224.754 54.5227 228.107 56.787 225.081 71.3841C225.081 71.379 231.084 57.0077 229.675 52.2995Z" fill="#75434B"/>
<path d="M224.666 57.0287C224.551 57.0287 224.432 57.0081 224.323 56.967C223.838 56.7873 223.604 56.2688 223.795 55.8169C225.956 50.6722 225.085 46.6469 225.074 46.6058C224.965 46.1283 225.292 45.6559 225.798 45.5532C226.293 45.4351 226.805 45.7586 226.914 46.2361C226.957 46.4209 227.915 50.8314 225.542 56.469C225.39 56.8181 225.041 57.0287 224.666 57.0287Z" fill="#FF9D76"/>
<path d="M37.7901 158.895C37.7901 158.895 23.5673 133.855 54.2119 128.269C54.2119 128.269 70.6174 151.841 37.7901 158.895Z" fill="#3F9896"/>
<path d="M23.3705 154.926C23.3705 154.926 -6.71889 156.01 1.38587 127.581C1.38587 127.581 31.0344 124.002 23.3705 154.926Z" fill="#80C7A7"/>
<path d="M28.2247 187.992C28.2247 187.992 -1.03192 194.723 0.889489 165.339C0.889489 165.339 29.1881 156.246 28.2247 187.992Z" fill="#3F9896"/>
<path d="M28.2252 188.88C27.9966 188.88 27.768 188.803 27.5884 188.644L4.43351 168.389C4.05249 168.055 4.03071 167.496 4.38451 167.136C4.74375 166.777 5.33705 166.756 5.71262 167.09L28.8675 187.345C29.2485 187.679 29.2703 188.239 28.9165 188.598C28.726 188.783 28.4756 188.88 28.2252 188.88Z" fill="#80C7A7"/>
<path d="M23.3695 155.814C23.0756 155.814 22.7871 155.686 22.6021 155.44L3.86692 130.492C3.56211 130.091 3.66555 129.542 4.09011 129.254C4.51467 128.972 5.09706 129.064 5.40188 129.465L24.137 154.413C24.4364 154.813 24.3384 155.363 23.9138 155.65C23.7451 155.758 23.5546 155.814 23.3695 155.814Z" fill="#3F9896"/>
<path d="M37.7892 159.778C37.6422 159.778 37.5007 159.747 37.3646 159.681C36.902 159.46 36.7169 158.926 36.951 158.49L50.2049 133.752C50.4444 133.315 51.0105 133.141 51.4677 133.362C51.9303 133.582 52.1154 134.116 51.8814 134.553L38.6274 159.291C38.4587 159.604 38.1321 159.778 37.7892 159.778Z" fill="#80C7A7"/>
<path d="M35.2047 208.817C34.7148 208.817 34.3066 208.463 34.2685 208.001C31.8027 177.497 22.1848 155.193 22.0868 154.973C21.8854 154.521 22.114 154.002 22.5985 153.817C23.0666 153.622 23.6218 153.843 23.8232 154.295C23.9212 154.521 33.6534 177.061 36.1409 207.862C36.1844 208.35 35.7925 208.776 35.2754 208.817C35.2537 208.812 35.2264 208.817 35.2047 208.817Z" fill="#49263E"/>
<path d="M31.4866 183.782C30.9532 183.771 30.5395 183.371 30.545 182.878C30.7899 170.499 36.4072 159.003 36.6467 158.52C36.8644 158.079 37.425 157.878 37.8931 158.094C38.3667 158.299 38.5681 158.828 38.3504 159.27C38.296 159.383 32.6678 170.92 32.4283 182.909C32.4174 183.391 31.9983 183.782 31.4866 183.782Z" fill="#49263E"/>
<path d="M34.1738 199.216C33.8418 199.216 33.5206 199.052 33.3465 198.754L27.0706 187.935C26.8256 187.504 26.9889 186.97 27.4461 186.734C27.9033 186.503 28.4749 186.657 28.7198 187.088L34.9957 197.907C35.2406 198.338 35.0773 198.872 34.6201 199.108C34.4786 199.18 34.3262 199.216 34.1738 199.216Z" fill="#49263E"/>
<path d="M15.1621 205.285H55.245L52.4255 249.087H18.2919L15.1621 205.285Z" fill="#F75454"/>
<path d="M54.69 213.982H15.7229C15.2058 213.982 14.7812 213.587 14.7812 213.094C14.7812 212.606 15.2004 212.206 15.7229 212.206H54.69C55.2071 212.206 55.6317 212.601 55.6317 213.094C55.6262 213.587 55.2071 213.982 54.69 213.982Z" fill="#49263E"/>
<path d="M333.093 217.874C333.093 217.874 307.26 184.937 315.713 177.81C324.166 170.678 340.136 202.229 340.61 213.484C340.61 213.484 331.683 142.531 348.127 144.421C364.565 146.31 348.127 210.188 348.127 210.188C348.127 210.188 362.687 173.518 371.14 173.43C379.593 173.338 356.476 216.78 356.476 216.78L333.093 217.874Z" fill="#3F9896"/>
<path d="M343.507 223.537C342.951 223.517 342.549 223.106 342.565 222.618L345.216 153.838C345.237 153.35 345.706 153.011 346.19 152.985C346.707 153.006 347.115 153.417 347.094 153.904L344.443 222.685C344.421 223.163 344.007 223.537 343.507 223.537Z" fill="#80C7A7"/>
<path d="M338.026 220.929C337.596 220.929 337.204 220.647 337.106 220.236C334.047 207.261 317.952 184.793 317.794 184.567C317.505 184.162 317.614 183.612 318.044 183.335C318.474 183.063 319.057 183.165 319.35 183.571C320.02 184.5 335.805 206.548 338.946 219.851C339.054 220.328 338.739 220.801 338.233 220.909C338.162 220.919 338.096 220.929 338.026 220.929Z" fill="#80C7A7"/>
<path d="M351.174 223.538C350.581 223.497 350.194 223.071 350.238 222.583C350.869 215.081 366.556 181.682 367.226 180.265C367.438 179.818 367.999 179.613 368.467 179.813C368.94 180.013 369.152 180.537 368.946 180.984C368.782 181.328 352.725 215.523 352.11 222.721C352.072 223.184 351.658 223.538 351.174 223.538Z" fill="#80C7A7"/>
<path d="M326.109 217.874H366.192L363.373 249.086H329.239L326.109 217.874Z" fill="#FFBBC8"/>
<path d="M365.334 228.313H327.069C326.552 228.313 326.127 227.917 326.127 227.424C326.127 226.937 326.546 226.536 327.069 226.536H365.334C365.851 226.536 366.275 226.931 366.275 227.424C366.27 227.917 365.851 228.313 365.334 228.313Z" fill="#49263E"/>
<path d="M370.668 250H12.9749C12.4578 250 12.0332 249.605 12.0332 249.112C12.0332 248.624 12.4523 248.224 12.9749 248.224H370.668C371.185 248.224 371.609 248.619 371.609 249.112C371.609 249.6 371.19 250 370.668 250Z" fill="#49263E"/>
<path d="M235.384 162.289C235.384 176.049 222.604 186.102 206.846 186.102C191.083 186.102 178.303 176.049 178.303 162.289C178.303 148.529 191.083 137.372 206.846 137.372C222.604 137.372 235.384 148.529 235.384 162.289Z" fill="#49263E"/>
<path d="M197.408 201.748C202.906 199.612 209.546 197.086 213.052 195.946C213.28 195.761 213.509 195.571 213.738 195.381C214.658 192.937 220.095 179.644 230.372 176.394C232.87 173.221 234.552 169.519 235.145 165.519C229.942 161.745 222.354 160.734 213.569 160.467C211.43 160.4 209.579 154.65 208.855 152.75C208.104 150.768 206.749 149.443 205.208 149.443C203.695 149.443 202.367 150.717 201.605 152.637C200.838 154.573 198.932 160.339 196.739 160.344C189.614 160.369 183.262 160.734 178.309 163.075C178.499 168.477 180.66 173.442 184.187 177.446C184.916 178.057 185.668 178.658 186.441 179.244C186.239 184.434 186.566 199.581 197.408 201.748Z" fill="#F4F0ED"/>
<path d="M207.603 160.369C207.603 161.186 206.531 161.848 205.214 161.848C203.891 161.848 202.824 161.186 202.824 160.369C202.824 159.553 203.897 158.891 205.214 158.891C206.536 158.896 207.603 159.558 207.603 160.369Z" fill="#49263E"/>
<path d="M202.082 166.063C202.006 166.063 201.935 166.063 201.859 166.057C201.342 166.027 200.95 165.606 200.982 165.118C201.01 164.625 201.434 164.204 201.978 164.291C202.338 164.307 202.664 164.209 202.947 163.978C203.927 163.151 204.237 161.072 204.27 160.338C204.297 159.85 204.727 159.455 205.25 159.496C205.767 159.516 206.17 159.932 206.148 160.42C206.132 160.764 205.936 163.834 204.205 165.297C203.6 165.796 202.871 166.063 202.082 166.063Z" fill="#49263E"/>
<path d="M208.343 166.063C207.554 166.063 206.819 165.796 206.215 165.293C204.484 163.824 204.283 160.759 204.266 160.415C204.245 159.927 204.647 159.511 205.165 159.491C205.66 159.45 206.123 159.85 206.144 160.333C206.182 161.067 206.493 163.152 207.472 163.978C207.755 164.214 208.082 164.327 208.441 164.291C208.937 164.204 209.405 164.63 209.437 165.118C209.47 165.606 209.078 166.027 208.561 166.058C208.496 166.063 208.42 166.063 208.343 166.063Z" fill="#49263E"/>
<path d="M204.336 182.883C197.446 182.883 192.318 181.564 191.997 181.482C191.502 181.348 191.208 180.86 191.344 180.388C191.491 179.916 192.024 179.638 192.498 179.772C192.612 179.803 204.015 182.734 215.484 179.772C215.979 179.633 216.496 179.921 216.638 180.393C216.774 180.865 216.48 181.353 215.979 181.482C211.908 182.529 207.885 182.883 204.336 182.883Z" fill="#49263E"/>
<path d="M196.075 158.274C196.788 158.274 197.37 157.724 197.37 157.052V155.096C197.37 154.423 196.788 153.874 196.075 153.874C195.362 153.874 194.779 154.423 194.779 155.096V157.052C194.779 157.724 195.362 158.274 196.075 158.274Z" fill="#F4F0ED"/>
<path d="M214.352 158.274C215.065 158.274 215.648 157.725 215.648 157.052V155.096C215.648 154.423 215.065 153.874 214.352 153.874C213.639 153.874 213.057 154.423 213.057 155.096V157.052C213.057 157.725 213.639 158.274 214.352 158.274Z" fill="#F4F0ED"/>
</svg>
