<svg width="23" height="23" viewBox="0 0 23 23" fill="none" xmlns="http://www.w3.org/2000/svg">
<g clip-path="url(#clip0_1449_8885)">
<path d="M6.72461 22.459C5.30859 22.459 4.39062 21.5605 4.32227 20.1641L3.64844 5.95508H2.47656C2.08594 5.95508 1.74414 5.62305 1.74414 5.21289C1.74414 4.8125 2.08594 4.48047 2.47656 4.48047H6.91016V2.98633C6.91016 1.57031 7.82812 0.710938 9.33203 0.710938H13.043C14.5469 0.710938 15.4648 1.57031 15.4648 2.98633V4.48047H19.9277C20.3281 4.48047 20.6504 4.8125 20.6504 5.21289C20.6504 5.61328 20.3281 5.95508 19.9277 5.95508H18.7559L18.082 20.1543C18.0137 21.5508 17.0762 22.459 15.6797 22.459H6.72461ZM8.46289 3.08398V4.48047H13.9121V3.08398C13.9121 2.52734 13.5215 2.16602 12.9355 2.16602H9.43945C8.85352 2.16602 8.46289 2.52734 8.46289 3.08398ZM6.86133 20.9844H15.5234C16.0996 20.9844 16.5195 20.5742 16.5391 19.9883L17.1836 5.95508H5.17188L5.85547 19.9883C5.88477 20.5645 6.30469 20.9844 6.86133 20.9844ZM8.30664 19.3145C7.94531 19.3145 7.70117 19.0898 7.69141 18.7383L7.39844 8.29883C7.38867 7.95703 7.63281 7.72266 8.00391 7.72266C8.35547 7.72266 8.59961 7.94727 8.60938 8.28906L8.91211 18.7383C8.92188 19.0801 8.67773 19.3145 8.30664 19.3145ZM11.1973 19.3145C10.8262 19.3145 10.5723 19.0801 10.5723 18.7383V8.29883C10.5723 7.95703 10.8262 7.72266 11.1973 7.72266C11.5684 7.72266 11.832 7.95703 11.832 8.29883V18.7383C11.832 19.0801 11.5684 19.3145 11.1973 19.3145ZM14.0977 19.3145C13.7266 19.3145 13.4824 19.0801 13.4922 18.7383L13.7852 8.29883C13.7949 7.94727 14.0391 7.72266 14.3906 7.72266C14.7617 7.72266 15.0059 7.95703 14.9961 8.29883L14.7031 18.7383C14.6934 19.0898 14.4492 19.3145 14.0977 19.3145Z" fill="#B3B3B3"/>
</g>
<defs>
<clipPath id="clip0_1449_8885">
<rect width="22" height="23" fill="white" transform="translate(0.25)"/>
</clipPath>
</defs>
</svg>
