<svg width="45" height="29" viewBox="0 0 45 29" fill="none" xmlns="http://www.w3.org/2000/svg">
<g clip-path="url(#clip0_611_7408)">
<mask id="mask0_611_7408" style="mask-type:luminance" maskUnits="userSpaceOnUse" x="0" y="0" width="45" height="29">
<path d="M45 0.5H0V28.5H45V0.5Z" fill="white"/>
</mask>
<g mask="url(#mask0_611_7408)">
<path d="M0 2.65385C0 1.46431 0.95939 0.5 2.14286 0.5H42.8571C44.0406 0.5 45 1.46431 45 2.65385V26.3462C45 27.5357 44.0406 28.5 42.8571 28.5H2.14286C0.959389 28.5 0 27.5357 0 26.3462V2.65385Z" fill="white"/>
<path d="M18.6331 9.30228L14.4247 19.3934H11.6792L9.60832 11.3395C9.48258 10.8435 9.37394 10.6619 8.99107 10.4529C8.3668 10.1123 7.33588 9.79313 6.42969 9.59474L6.49046 9.30228H10.9101C11.4734 9.30228 11.9798 9.67937 12.1078 10.3314L13.2015 16.1704L15.9043 9.30228H18.6331ZM29.3908 16.0992C29.4018 13.4359 25.7265 13.2891 25.7518 12.0993C25.7596 11.7371 26.1033 11.3521 26.8534 11.2537C27.2256 11.2047 28.251 11.1674 29.4149 11.7054L29.871 9.56546C29.245 9.33593 28.4408 9.11719 27.4405 9.11719C24.8732 9.11719 23.0665 10.4889 23.0512 12.4532C23.0345 13.9059 24.3403 14.7167 25.3247 15.1994C26.337 15.6939 26.6766 16.0115 26.6728 16.4537C26.6656 17.1308 25.8656 17.4296 25.1176 17.4413C23.8117 17.4615 23.0548 17.0862 22.4507 16.804L21.9799 19.015C22.5869 19.2948 23.707 19.5389 24.8685 19.5511C27.5973 19.5511 29.3823 18.1974 29.3908 16.0992ZM36.1695 19.3934H38.5717L36.4748 9.30228H34.2577C34.021 9.30028 33.789 9.36978 33.5921 9.50179C33.395 9.6338 33.242 9.82223 33.1528 10.0427L29.2548 19.3934H31.9821L32.5236 17.8858H35.8551L36.1695 19.3934ZM33.2715 15.8175L34.6385 12.0282L35.4254 15.8174L33.2715 15.8175ZM22.3439 9.30228L20.1962 19.3934H17.599L19.7476 9.30228H22.3439Z" fill="#1434CB"/>
</g>
</g>
<defs>
<clipPath id="clip0_611_7408">
<rect width="45" height="28" fill="white" transform="translate(0 0.5)"/>
</clipPath>
</defs>
</svg>
