<svg width="10" height="14" viewBox="0 0 10 14" fill="none" xmlns="http://www.w3.org/2000/svg">
<path d="M3.47852 6.18799C3.81185 6.50049 4.20768 6.65674 4.66602 6.65674C5.12435 6.65674 5.50977 6.50049 5.82227 6.18799C6.1556 5.85465 6.32227 5.45882 6.32227 5.00049C6.32227 4.54215 6.1556 4.15674 5.82227 3.84424C5.50977 3.5109 5.12435 3.34424 4.66602 3.34424C4.20768 3.34424 3.81185 3.5109 3.47852 3.84424C3.16602 4.15674 3.00977 4.54215 3.00977 5.00049C3.00977 5.45882 3.16602 5.85465 3.47852 6.18799ZM1.35352 1.71924C2.27018 0.802572 3.37435 0.344238 4.66602 0.344238C5.95768 0.344238 7.05143 0.802572 7.94727 1.71924C8.86393 2.61507 9.32227 3.70882 9.32227 5.00049C9.32227 5.64632 9.1556 6.3859 8.82227 7.21924C8.50977 8.05257 8.12435 8.83382 7.66602 9.56299C7.20768 10.2922 6.74935 10.9797 6.29102 11.6255C5.85352 12.2505 5.47852 12.7505 5.16602 13.1255L4.66602 13.6567C4.54102 13.5109 4.37435 13.3234 4.16602 13.0942C3.95768 12.8442 3.58268 12.3651 3.04102 11.6567C2.49935 10.9276 2.02018 10.2297 1.60352 9.56299C1.20768 8.87549 0.843099 8.10465 0.509766 7.25049C0.176432 6.39632 0.00976562 5.64632 0.00976562 5.00049C0.00976562 3.70882 0.457682 2.61507 1.35352 1.71924Z" fill="#333333"/>
</svg>
