<svg width="16" height="17" viewBox="0 0 16 17" fill="none" xmlns="http://www.w3.org/2000/svg">
<g clip-path="url(#clip0_2522_9375)">
<g clip-path="url(#clip1_2522_9375)">
<path fill-rule="evenodd" clip-rule="evenodd" d="M8 16.5C10.1217 16.5 12.1566 15.6571 13.6569 14.1569C15.1571 12.6566 16 10.6217 16 8.5C16 6.37827 15.1571 4.34344 13.6569 2.84315C12.1566 1.34285 10.1217 0.5 8 0.5C5.87827 0.5 3.84344 1.34285 2.34315 2.84315C0.842855 4.34344 0 6.37827 0 8.5C0 10.6217 0.842855 12.6566 2.34315 14.1569C3.84344 15.6571 5.87827 16.5 8 16.5ZM8.7 12.7C8.7 12.8857 8.62625 13.0637 8.49498 13.195C8.3637 13.3263 8.18565 13.4 8 13.4C7.81435 13.4 7.6363 13.3263 7.50503 13.195C7.37375 13.0637 7.3 12.8857 7.3 12.7C7.3 12.5143 7.37375 12.3363 7.50503 12.205C7.6363 12.0738 7.81435 12 8 12C8.18565 12 8.3637 12.0738 8.49498 12.205C8.62625 12.3363 8.7 12.5143 8.7 12.7ZM8 4C7.86739 4 7.74021 4.05268 7.64645 4.14645C7.55268 4.24021 7.5 4.36739 7.5 4.5V10C7.5 10.1326 7.55268 10.2598 7.64645 10.3536C7.74021 10.4473 7.86739 10.5 8 10.5C8.13261 10.5 8.25979 10.4473 8.35355 10.3536C8.44732 10.2598 8.5 10.1326 8.5 10V4.5C8.5 4.36739 8.44732 4.24021 8.35355 4.14645C8.25979 4.05268 8.13261 4 8 4Z" fill="#333333"/>
</g>
</g>
<defs>
<clipPath id="clip0_2522_9375">
<rect width="16" height="16" fill="white" transform="translate(0 0.5)"/>
</clipPath>
<clipPath id="clip1_2522_9375">
<rect width="16" height="16" fill="white" transform="translate(0 0.5)"/>
</clipPath>
</defs>
</svg>
