<svg width="48" height="48" viewBox="0 0 48 48" fill="none" xmlns="http://www.w3.org/2000/svg">
<circle cx="24.5" cy="24.5" r="17.5" fill="#1A202C"/>
<path d="M31.5003 24.0002C31.5003 25.9893 30.7101 27.897 29.3035 29.3035C27.897 30.7101 25.9893 31.5003 24.0002 31.5003C22.0111 31.5003 20.1034 30.7101 18.6969 29.3035C17.2903 27.897 16.5001 25.9893 16.5001 24.0002C16.5001 23.5727 16.5451 23.1552 16.6226 22.7502H14.0001V32.7428C14.0001 33.4378 14.5626 34.0003 15.2576 34.0003H32.7453C33.0783 33.9996 33.3976 33.8668 33.6328 33.6311C33.8681 33.3953 34.0003 33.0758 34.0003 32.7428V22.7502H31.3778C31.4553 23.1552 31.5003 23.5727 31.5003 24.0002V24.0002ZM24.0002 29.0002C24.657 29.0001 25.3073 28.8705 25.914 28.6191C26.5207 28.3676 27.072 27.999 27.5363 27.5345C28.0006 27.07 28.3688 26.5185 28.62 25.9117C28.8712 25.3049 29.0004 24.6545 29.0002 23.9977C29.0001 23.3409 28.8705 22.6906 28.6191 22.0839C28.3676 21.4772 27.999 20.9259 27.5345 20.4616C27.07 19.9973 26.5185 19.6291 25.9117 19.3779C25.3049 19.1267 24.6545 18.9975 23.9977 18.9977C22.6713 18.998 21.3993 19.5252 20.4616 20.4634C19.5239 21.4015 18.9973 22.6738 18.9977 24.0002C18.998 25.3266 19.5252 26.5986 20.4634 27.5363C21.4015 28.474 22.6738 29.0006 24.0002 29.0002V29.0002ZM30.0002 18.7502H32.9978C33.1969 18.7502 33.3879 18.6712 33.529 18.5306C33.67 18.3901 33.7496 18.1993 33.7503 18.0001V15.0026C33.7503 14.803 33.671 14.6116 33.5299 14.4705C33.3887 14.3294 33.1973 14.2501 32.9978 14.2501H30.0002C29.8007 14.2501 29.6093 14.3294 29.4681 14.4705C29.327 14.6116 29.2477 14.803 29.2477 15.0026V18.0001C29.2502 18.4126 29.5877 18.7502 30.0002 18.7502V18.7502ZM24.0002 0C17.6349 0 11.5304 2.52858 7.02949 7.02949C2.52858 11.5304 0 17.6349 0 24.0002C0 30.3654 2.52858 36.47 7.02949 40.9709C11.5304 45.4718 17.6349 48.0004 24.0002 48.0004C27.1519 48.0004 30.2728 47.3796 33.1847 46.1735C36.0965 44.9674 38.7423 43.1995 40.9709 40.9709C43.1995 38.7423 44.9674 36.0965 46.1735 33.1847C47.3796 30.2728 48.0004 27.1519 48.0004 24.0002C48.0004 20.8484 47.3796 17.7276 46.1735 14.8157C44.9674 11.9039 43.1995 9.25812 40.9709 7.02949C38.7423 4.80087 36.0965 3.03303 33.1847 1.82691C30.2728 0.620783 27.1519 0 24.0002 0V0ZM36.5003 33.7228C36.5003 35.2503 35.2503 36.5003 33.7228 36.5003H14.2776C12.7501 36.5003 11.5001 35.2503 11.5001 33.7228V14.2776C11.5001 12.7501 12.7501 11.5001 14.2776 11.5001H33.7228C35.2503 11.5001 36.5003 12.7501 36.5003 14.2776V33.7228V33.7228Z" fill="white"/>
</svg>
