<svg width="48" height="48" viewBox="0 0 48 48" fill="none" xmlns="http://www.w3.org/2000/svg">
<circle cx="24" cy="24" r="15" fill="#1A202C"/>
<path d="M24.0002 0C10.7451 0 0 10.7451 0 24.0002C0 37.2553 10.7451 48.0004 24.0002 48.0004C37.2553 48.0004 48.0004 37.2553 48.0004 24.0002C48.0004 10.7451 37.2553 0 24.0002 0ZM33.7628 19.6602C33.7728 19.8652 33.7753 20.0702 33.7753 20.2702C33.7753 26.5202 29.0227 33.7228 20.3277 33.7228C17.7584 33.727 15.2425 32.9891 13.0826 31.5978C13.4501 31.6428 13.8276 31.6603 14.2101 31.6603C16.4251 31.6603 18.4627 30.9078 20.0802 29.6377C19.0944 29.6184 18.1393 29.292 17.3479 28.704C16.5565 28.1161 15.9683 27.2959 15.6651 26.3577C16.373 26.4923 17.1023 26.4641 17.7976 26.2752C16.7278 26.0589 15.7656 25.4791 15.0744 24.6344C14.3832 23.7896 14.0054 22.7317 14.0051 21.6402V21.5827C14.6426 21.9352 15.3726 22.1502 16.1476 22.1752C15.1446 21.5075 14.4346 20.4818 14.1627 19.308C13.8909 18.1341 14.0777 16.9008 14.6851 15.8601C15.8725 17.3201 17.3533 18.5145 19.0316 19.3659C20.7099 20.2174 22.5482 20.7068 24.4277 20.8027C24.1888 19.7884 24.2916 18.7237 24.7202 17.7739C25.1489 16.8241 25.8793 16.0426 26.7979 15.5508C27.7165 15.059 28.7719 14.8844 29.8 15.0543C30.828 15.2242 31.7712 15.7289 32.4828 16.4901C33.5407 16.2808 34.5552 15.8928 35.4828 15.3426C35.1302 16.438 34.392 17.3681 33.4053 17.9601C34.3424 17.8473 35.2575 17.5953 36.1203 17.2126C35.4865 18.1624 34.6881 18.9912 33.7628 19.6602V19.6602Z" fill="white"/>
</svg>
