<svg width="1429" height="560" viewBox="0 0 1429 560" fill="none" xmlns="http://www.w3.org/2000/svg">
<mask id="mask0_611_10770" style="mask-type:luminance" maskUnits="userSpaceOnUse" x="33" y="-38" width="1363" height="766">
<path d="M1395.06 -37.7017H33.9365V727.702H1395.06V-37.7017Z" fill="white"/>
</mask>
<g mask="url(#mask0_611_10770)">
<path style="mix-blend-mode:multiply" opacity="0.25" d="M41.3726 15.9332V123.097H0V125.932H41.3726V233.095H0V235.93H41.3726V343.094H0V345.928H41.3726V453.092H0V455.927H41.3726V563.09H0V565.925H41.3726V673.089H0V675.924H41.3726V786H44.2083V675.924H151.404V786H154.24V675.924H261.436V786H264.271V675.924H371.467V786H374.303V675.924H481.499V786H484.335V675.924H591.531V786H594.366V675.924H701.562V786H704.398V675.924H811.594V786H814.429V675.924H921.625V786H924.461V675.924H1031.66V786H1034.49V675.924H1141.69V786H1144.52V675.924H1251.72V786H1254.56V675.924H1361.75V786H1364.59V675.924H1429V673.089H1364.59V565.925H1429V563.09H1364.59V455.927H1429V453.092H1364.59V345.928H1429V343.094H1364.59V235.93H1429V233.095H1364.59V125.932H1429V123.097H1364.59V15.9332H1429V13.0984H1364.59V-96H1361.75V13.0984H1254.56V-96H1251.72V13.0984H1144.52V-96H1141.69V13.0984H1034.49V-96H1031.66V13.0984H924.461V-96H921.625V13.0984H814.429V-96H811.594V13.0984H704.398V-96H701.562V13.0984H594.366V-96H591.531V13.0984H484.335V-96H481.499V13.0984H374.303V-96H371.467V13.0984H264.271V-96H261.436V13.0984H154.24V-96H151.404V13.0984H44.2083V-96H41.3726V13.0984H0V15.9332H41.3726ZM261.436 15.9332V123.097H154.24V15.9332H261.436ZM484.335 235.93H591.531V343.094H484.335V235.93ZM481.499 343.094H374.303V235.93H481.499V343.094ZM594.366 235.93H701.562V343.094H594.366V235.93ZM704.398 235.93H811.594V343.094H704.398V235.93ZM814.429 235.93H921.625V343.094H814.429V235.93ZM924.461 235.93H1031.66V343.094H924.461V235.93ZM1034.49 235.93H1141.69V343.094H1034.49V235.93ZM1141.69 345.928V453.092H1034.49V345.928H1141.69ZM1031.66 453.092H924.461V345.928H1031.66V453.092ZM921.625 453.092H814.429V345.928H921.625V453.092ZM811.594 453.092H704.398V345.928H811.594V453.092ZM701.562 453.092H594.366V345.928H701.562V453.092ZM591.531 453.092H484.335V345.928H591.531V453.092ZM481.499 453.092H374.303V345.928H481.499V453.092ZM371.467 453.092H264.271V345.928H371.467V453.092ZM264.271 343.094V235.93H371.467V343.094H264.271ZM264.271 233.095V125.932H371.467V233.095H264.271ZM374.303 125.932H481.499V233.095H374.303V125.932ZM484.335 125.932H591.531V233.095H484.335V125.932ZM594.366 125.932H701.562V233.095H594.366V125.932ZM704.398 125.932H811.594V233.095H704.398V125.932ZM814.429 125.932H921.625V233.095H814.429V125.932ZM924.461 125.932H1031.66V233.095H924.461V125.932ZM1034.49 125.932H1141.69V233.095H1034.49V125.932ZM1144.52 125.932H1251.72V233.095H1144.52V125.932ZM1251.72 235.93V343.094H1144.52V235.93H1251.72ZM1251.72 345.928V453.092H1144.52V345.928H1251.72ZM1251.72 455.927V563.09H1144.52V455.927H1251.72ZM1141.69 563.09H1034.49V455.927H1141.69V563.09ZM1031.66 563.09H924.461V455.927H1031.66V563.09ZM921.625 563.09H814.429V455.927H921.625V563.09ZM811.594 563.09H704.398V455.927H811.594V563.09ZM701.562 563.09H594.366V455.927H701.562V563.09ZM591.531 563.09H484.335V455.927H591.531V563.09ZM481.499 563.09H374.303V455.927H481.499V563.09ZM371.467 563.09H264.271V455.927H371.467V563.09ZM261.436 563.09H154.24V455.927H261.436V563.09ZM154.24 453.092V345.928H261.436V453.092H154.24ZM154.24 343.094V235.93H261.436V343.094H154.24ZM154.24 233.095V125.932H261.436V233.095H154.24ZM371.467 15.9332V123.097H264.271V15.9332H371.467ZM481.499 15.9332V123.097H374.303V15.9332H481.499ZM591.531 15.9332V123.097H484.335V15.9332H591.531ZM701.562 15.9332V123.097H594.366V15.9332H701.562ZM811.594 15.9332V123.097H704.398V15.9332H811.594ZM921.625 15.9332V123.097H814.429V15.9332H921.625ZM1031.66 15.9332V123.097H924.461V15.9332H1031.66ZM1141.69 15.9332V123.097H1034.49V15.9332H1141.69ZM1251.72 15.9332V123.097H1144.52V15.9332H1251.72ZM1361.75 123.097H1254.56V15.9332H1361.75V123.097ZM1361.75 233.095H1254.56V125.932H1361.75V233.095ZM1361.75 343.094H1254.56V235.93H1361.75V343.094ZM1361.75 453.092H1254.56V345.928H1361.75V453.092ZM1361.75 563.09H1254.56V455.927H1361.75V563.09ZM1254.56 673.089V565.925H1361.75V673.089H1254.56ZM1144.52 673.089V565.925H1251.72V673.089H1144.52ZM1034.49 673.089V565.925H1141.69V673.089H1034.49ZM924.461 673.089V565.925H1031.66V673.089H924.461ZM814.429 673.089V565.925H921.625V673.089H814.429ZM704.398 673.089V565.925H811.594V673.089H704.398ZM594.366 673.089V565.925H701.562V673.089H594.366ZM484.335 673.089V565.925H591.531V673.089H484.335ZM374.303 673.089V565.925H481.499V673.089H374.303ZM264.271 673.089V565.925H371.467V673.089H264.271ZM154.24 673.089V565.925H261.436V673.089H154.24ZM44.2083 565.925H151.404V673.089H44.2083V565.925ZM44.2083 455.927H151.404V563.09H44.2083V455.927ZM44.2083 345.928H151.404V453.092H44.2083V345.928ZM44.2083 235.93H151.404V343.094H44.2083V235.93ZM44.2083 125.932H151.404V233.095H44.2083V125.932ZM44.2083 15.9332H151.404V123.097H44.2083V15.9332Z" fill="url(#paint0_radial_611_10770)"/>
</g>
<defs>
<radialGradient id="paint0_radial_611_10770" cx="0" cy="0" r="1" gradientUnits="userSpaceOnUse" gradientTransform="translate(479.1 344.99) rotate(-140.928) scale(770.398 362.065)">
<stop stop-color="#E89E00"/>
<stop offset="1" stop-color="white" stop-opacity="0"/>
</radialGradient>
</defs>
</svg>
