<svg width="934" height="500" viewBox="0 0 934 500" fill="none" xmlns="http://www.w3.org/2000/svg">
<path d="M246.78 716.657C182.72 714.544 115.513 700.433 69.5573 658.42C39.6313 631.068 21.3287 594.033 10.903 555.986C-27.6215 415.417 35.9001 247.104 202.19 222.197C308.198 206.321 333.287 -83.0952 735.745 46.1277C1066.17 152.224 939.822 386.284 961.411 478.689C971.084 520.094 1045.83 655.786 918.618 716.107C744.129 716.02 569.547 716.121 395.166 714.226C346.308 713.69 297.526 718.148 248.668 716.715C248.039 716.7 247.409 716.686 246.78 716.657Z" fill="#FFF3E4"/>
<path d="M298.282 98.3807C329.901 74.7172 349.606 89.2592 361.492 62.2656C366.442 48.9634 372.102 29.9964 374.318 25.8972C389.36 -1.91081 420.739 -6.48062 451.84 8.15182C461.922 12.8936 470.748 18.4226 477.262 25.137C478.893 26.8111 480.37 28.5667 481.694 30.4036C482.356 31.3176 483.027 32.2316 483.555 33.2089C489.848 44.9727 492.189 55.9041 482.509 85.3952C472.235 116.705 516.949 102.263 517.093 156.612C517.15 177.009 504.295 242.913 392.861 246.47C344.243 248.017 278.693 215.413 266.078 173.262C260.84 155.779 266.663 122.053 298.282 98.3807Z" fill="#75434B"/>
<path d="M600.275 260.542C600.275 260.542 551.474 176.729 523.903 159.88C489.339 138.759 445.364 139.519 405.86 137.547C382.999 136.406 359.467 134.253 337.048 139.845C316.528 144.967 300.326 156.161 285.686 170.332C272.995 182.611 216.376 282.921 206.821 321.633C197.775 358.237 228.051 393.076 268.601 392.868C287.365 392.768 308.595 392.443 328.433 391.619H426.571H525.189L612.074 392.026C684.713 364.58 600.275 260.542 600.275 260.542Z" fill="#9679BC"/>
<path d="M636.577 324.482C606.531 376.135 556.071 364.335 556.071 364.335C556.071 364.335 425.585 373.61 319.648 373.094C244.706 372.732 216.771 338.165 208.895 314.411C208.06 316.999 207.36 319.406 206.813 321.623C197.767 358.227 228.043 393.066 268.593 392.858C287.357 392.758 308.587 392.432 328.426 391.609H426.564H525.181L612.066 392.016C644.923 379.61 645.642 351.521 636.577 324.482Z" fill="#7C5FAA"/>
<mask id="mask0_611_10779" style="mask-type:luminance" maskUnits="userSpaceOnUse" x="205" y="136" width="437" height="257">
<path d="M600.275 260.543C600.275 260.543 551.474 176.73 523.903 159.88C489.339 138.76 445.364 139.52 405.86 137.547C382.999 136.407 359.467 134.253 337.048 139.846C316.528 144.967 300.326 156.161 285.686 170.332C272.995 182.612 216.376 282.921 206.821 321.634C197.775 358.237 228.051 393.076 268.601 392.868C287.365 392.769 308.595 392.443 328.433 391.62H426.571H525.189L612.074 392.027C684.713 364.581 600.275 260.543 600.275 260.543Z" fill="white"/>
</mask>
<g mask="url(#mask0_611_10779)">
<path d="M411.895 215.477C329.902 215.477 279.903 171.96 279.356 171.472C278.694 170.874 278.665 169.888 279.289 169.264C279.922 168.639 280.977 168.603 281.63 169.2C282.225 169.734 342.613 222.201 439.418 210.718C535.848 199.289 553.548 162.395 553.711 162.024C554.075 161.228 555.054 160.866 555.888 161.201C556.733 161.536 557.126 162.44 556.771 163.237C556.071 164.82 538.448 202.13 439.84 213.812C430.151 214.962 420.836 215.477 411.895 215.477Z" fill="#F4F0ED"/>
<path d="M422.043 269.238C372.35 269.238 324.922 263.193 321.564 262.759C272.054 255.61 234.343 233.114 233.969 232.888C233.202 232.426 232.971 231.458 233.47 230.734C233.96 230.001 234.986 229.793 235.753 230.264C236.118 230.49 273.282 252.633 322.044 259.673C323.435 259.854 463.169 277.672 515.902 252.642C516.113 252.543 516.353 252.488 516.583 252.479C517.255 252.461 582.92 250.081 598.279 226.879C598.758 226.137 599.785 225.929 600.562 226.382C601.339 226.834 601.569 227.802 601.089 228.535C585.242 252.47 522.992 255.366 517.063 255.592C494.548 266.116 457.71 269.238 422.043 269.238Z" fill="#F4F0ED"/>
<path d="M636.212 374.67C635.8 374.67 635.397 374.525 635.071 374.244C610.589 352.391 582.078 338.138 581.79 337.993C580.985 337.595 580.678 336.645 581.09 335.885C581.522 335.116 582.51 334.826 583.335 335.233C583.623 335.378 612.517 349.821 637.344 371.982C638.006 372.579 638.035 373.565 637.402 374.19C637.085 374.507 636.654 374.67 636.212 374.67Z" fill="#F4F0ED"/>
<path d="M295.951 310.647C295.683 310.647 295.414 310.584 295.165 310.457C269.11 297.128 210.467 292.051 209.872 292.006C208.97 291.924 208.289 291.173 208.376 290.314C208.462 289.454 209.114 288.802 210.179 288.893C212.606 289.101 270.088 294.069 296.738 307.715C297.544 308.122 297.841 309.072 297.41 309.833C297.103 310.348 296.527 310.647 295.951 310.647Z" fill="#F4F0ED"/>
<path d="M251.738 397.7C250.903 397.7 250.193 397.112 250.097 396.315C244.322 349.26 283.165 311.281 283.548 310.9C284.182 310.276 285.246 310.267 285.899 310.873C286.551 311.48 286.561 312.466 285.918 313.081C285.534 313.452 247.795 350.4 253.378 395.944C253.483 396.804 252.841 397.573 251.92 397.673C251.862 397.691 251.795 397.7 251.738 397.7Z" fill="#F4F0ED"/>
<path d="M349.625 404.469C348.877 404.469 348.206 403.989 348.014 403.274C340.829 375.231 347.688 304.015 347.976 300.992C348.062 300.133 348.848 299.49 349.769 299.581C350.681 299.662 351.352 300.422 351.266 301.282C351.189 302.015 344.157 374.996 351.227 402.532C351.439 403.374 350.901 404.216 350.009 404.415C349.875 404.451 349.75 404.469 349.625 404.469Z" fill="#F4F0ED"/>
<path d="M524 397.7C523.367 397.7 522.763 397.356 522.494 396.777L510.071 370.797C509.687 370.01 510.061 369.087 510.896 368.725C511.75 368.381 512.719 368.725 513.083 369.503L525.506 395.492C525.89 396.279 525.516 397.202 524.681 397.555C524.461 397.655 524.23 397.7 524 397.7Z" fill="#F4F0ED"/>
</g>
<path d="M602.436 309.741C602.283 309.741 602.129 309.723 601.976 309.678C601.103 309.434 600.594 308.574 600.844 307.741C606.791 288.286 606.197 273.237 599.079 263.003C591.797 252.551 579.979 250.994 579.854 250.985C578.952 250.877 578.309 250.099 578.424 249.239C578.54 248.388 579.365 247.728 580.266 247.881C580.813 247.945 593.668 249.583 601.803 261.229C609.516 272.251 610.264 288.195 604.019 308.592C603.817 309.298 603.156 309.741 602.436 309.741Z" fill="#49263E"/>
<path d="M515.493 288.341C514.342 288.196 513.728 287.4 513.853 286.549C519.541 250.443 501.746 208.157 501.564 207.731C501.219 206.935 501.631 206.021 502.485 205.695C503.319 205.369 504.288 205.759 504.634 206.564C504.816 206.998 522.947 250.072 517.134 287.011C517.009 287.789 516.299 288.341 515.493 288.341Z" fill="#49263E"/>
<path d="M372.555 128.624L411.129 34.0787L430.402 16.4329C430.402 16.4329 460.927 21.3827 474.818 36.7391C481.418 44.0327 480.238 56.6019 477.744 66.6646C469.974 97.9112 459.786 124.479 446.384 131.067C442.096 133.176 437.299 133.773 426.728 130.461L423.322 142.143C427.898 152.224 440.686 193.723 405.92 183.561C371.174 173.399 372.555 128.624 372.555 128.624Z" fill="#FF9D76"/>
<path d="M432.972 78.3008C434.143 78.6176 435.371 77.9751 435.706 76.8801L436.685 73.6767C437.021 72.5727 436.339 71.4144 435.179 71.0977C434.008 70.781 432.78 71.4235 432.445 72.5184L431.466 75.7218C431.13 76.8168 431.812 77.9841 432.972 78.3008Z" fill="#49263E"/>
<path d="M463.142 87.5411C464.312 87.8578 465.54 87.2153 465.876 86.1203L466.855 82.917C467.19 81.813 466.509 80.6547 465.349 80.338C464.178 80.0212 462.95 80.6637 462.615 81.7587L461.636 84.9621C461.3 86.057 461.981 87.2243 463.142 87.5411Z" fill="#49263E"/>
<path d="M474.827 79.3148C474.27 79.3148 473.723 79.0523 473.416 78.5727C473.253 78.3284 469.694 73.1795 462.048 75.2155C461.156 75.4689 460.254 74.9621 460.005 74.1296C459.756 73.2971 460.274 72.4374 461.156 72.2112C469.32 70.0485 474.596 74.3649 476.246 76.9439C476.716 77.6859 476.467 78.6451 475.68 79.0885C475.421 79.2424 475.124 79.3148 474.827 79.3148Z" fill="#75434B"/>
<path d="M446.164 69.1531C445.607 69.1531 445.07 68.8906 444.753 68.4201C444.609 68.1939 441.031 62.9997 433.29 65.0267C432.397 65.2619 431.496 64.7733 431.246 63.9408C430.997 63.1082 431.515 62.2486 432.397 62.0223C440.552 59.8687 445.885 64.1851 447.574 66.7731C448.053 67.5061 447.814 68.4653 447.037 68.9178C446.768 69.0807 446.461 69.1531 446.164 69.1531Z" fill="#75434B"/>
<path d="M450.547 102.571C450.039 102.571 449.54 102.553 449.089 102.526C448.178 102.472 447.487 101.73 447.544 100.87C447.592 100.01 448.35 99.3226 449.3 99.4131C449.377 99.4222 458.864 99.8837 459.152 95.8387C459.267 94.1284 458.624 91.5947 457.943 88.9161C456.408 82.8351 454.49 75.261 460.879 72.3019C461.675 71.9309 462.692 72.2386 463.085 73.0168C463.488 73.795 463.152 74.7271 462.327 75.1072C458.605 76.8265 459.497 81.6135 461.157 88.1922C461.896 91.106 462.596 93.857 462.443 96.0468C462.088 101.223 455.372 102.571 450.547 102.571Z" fill="#EF685E"/>
<path d="M487.193 335.142C487.567 338.726 490.09 341.422 492.824 341.16C495.558 340.906 497.467 337.794 497.093 334.21C496.719 330.627 494.196 327.93 491.462 328.192C488.728 328.446 486.819 331.559 487.193 335.142Z" fill="white"/>
<path d="M309.268 297.535C308.597 297.535 307.964 297.145 307.714 296.521L300.721 278.966C300.395 278.16 300.836 277.255 301.69 276.957C302.553 276.658 303.503 277.056 303.829 277.871L310.822 295.426C311.149 296.231 310.707 297.136 309.854 297.435C309.652 297.507 309.46 297.535 309.268 297.535Z" fill="#49263E"/>
<path d="M319.647 305.841C318.659 305.805 317.949 305.072 317.988 304.212L322.266 212.192C322.305 211.35 323.034 210.699 323.926 210.699C324.914 210.735 325.624 211.468 325.586 212.328L321.307 304.348C321.269 305.19 320.53 305.841 319.647 305.841Z" fill="#49263E"/>
<path d="M425.135 267.039C425.135 267.039 420.971 283.626 445.088 308.403C445.088 308.403 481.024 290.802 477.743 268.541L425.135 267.039Z" fill="white"/>
<path d="M448.351 285.627C434.872 285.627 424.694 283.383 423.85 283.193C422.44 282.867 421.567 281.537 421.912 280.207C422.257 278.885 423.668 278.071 425.078 278.379C425.471 278.469 465.81 287.319 491.971 268.977C493.131 268.162 494.791 268.397 495.645 269.492C496.518 270.587 496.278 272.144 495.108 272.958C480.622 283.102 462.635 285.627 448.351 285.627Z" fill="#49263E"/>
<path d="M558.029 247.891C518.006 221.884 493.534 225.296 493.534 225.296L408.894 265.456L398.936 287.717C372.833 297.444 356.275 322.375 370.262 331.053C380.546 337.433 398.744 315.932 412.203 314.394C412.203 314.394 389.074 334.039 407.474 342.156C420.674 347.984 433.011 334.356 447.631 333.686C458.999 333.161 468.323 332.202 471.815 332.781C475.652 342.111 484.967 365.63 504.633 367.72C533.605 370.797 562.538 374.009 580.726 356.363C601.697 336.03 596.162 272.668 558.029 247.891Z" fill="#49263E"/>
<path d="M447.765 110.797C444.868 110.797 442.45 109.982 440.551 108.372C436.071 104.562 436.33 97.7116 436.34 97.4221C436.378 96.5624 437.117 95.9742 438.066 95.929C438.978 95.9652 439.697 96.6891 439.659 97.5487C439.649 97.603 439.457 103.241 442.786 106.055C444.436 107.448 446.767 107.946 449.751 107.53C450.653 107.403 451.497 107.982 451.631 108.842C451.775 109.693 451.142 110.489 450.25 110.616C449.377 110.742 448.552 110.797 447.765 110.797Z" fill="#49263E"/>
<path d="M484.169 213.821C484.169 213.821 476.389 172.955 468.292 171.915C460.196 170.874 450.286 199.433 450.286 199.433L484.169 213.821Z" fill="#49263E"/>
<path d="M476.784 204.672C476.784 204.672 472.4 181.642 467.834 181.054C463.267 180.465 457.684 196.564 457.684 196.564L476.784 204.672Z" fill="#FFBBC8"/>
<path d="M491.462 329.75C490.532 329.741 489.803 329.035 489.803 328.175C489.985 309.606 495.942 295.3 507.502 285.635C526.986 269.365 555.075 272.134 556.255 272.251C557.166 272.342 557.809 273.12 557.713 273.98C557.607 274.839 556.773 275.482 555.88 275.355C555.593 275.319 528.012 272.631 509.67 287.988C498.859 297.037 493.275 310.565 493.103 328.202C493.112 329.062 492.374 329.75 491.462 329.75Z" fill="#F4F0ED"/>
<path d="M529.221 352.48C530.496 348.417 519.349 333.459 514.927 329.993C509.967 326.102 492.479 324.591 492.479 324.591L438.316 334.672V378.605L457.704 377.845C457.704 377.845 489.687 389.654 499.309 387.998C508.931 386.342 517.248 368.914 517.248 368.914C517.248 368.914 532.895 370.153 534.027 364.751C535.495 357.792 532.473 354.272 529.221 352.48Z" fill="#FF9D76"/>
<path d="M533.451 355.077C533.154 355.077 532.856 355.005 532.578 354.851L502.225 338.02C501.41 337.567 501.132 336.563 501.611 335.794C502.091 335.016 503.146 334.762 503.981 335.215L534.333 352.046C535.149 352.498 535.427 353.503 534.947 354.281C534.612 354.788 534.036 355.077 533.451 355.077Z" fill="#EF685E"/>
<path d="M518.754 370.625C518.495 370.625 518.226 370.57 517.986 370.453L498.186 361.15C497.332 360.752 496.987 359.775 497.419 358.969C497.841 358.155 498.877 357.829 499.73 358.236L519.531 367.539C520.385 367.937 520.73 368.914 520.298 369.72C519.991 370.29 519.377 370.625 518.754 370.625Z" fill="#EF685E"/>
<path d="M510.983 380.805C510.762 380.805 510.532 380.759 510.311 380.678L494.991 374.606C494.118 374.253 493.696 373.303 494.07 372.47C494.434 371.638 495.461 371.258 496.324 371.602L511.645 377.674C512.517 378.027 512.94 378.977 512.565 379.809C512.297 380.425 511.664 380.805 510.983 380.805Z" fill="#EF685E"/>
<path d="M502.013 388.758C501.85 388.758 501.687 388.74 501.514 388.686L490.789 385.645C489.878 385.392 489.359 384.478 489.628 383.618C489.906 382.759 490.885 382.261 491.777 382.524L502.502 385.564C503.413 385.817 503.931 386.731 503.663 387.591C503.442 388.297 502.751 388.758 502.013 388.758Z" fill="#EF685E"/>
<path d="M478.933 143.491C454.969 138.931 429.605 138.732 405.862 137.546C383.001 136.406 359.469 134.252 337.05 139.845C334.661 140.442 332.33 141.121 330.047 141.881C341.108 155.545 375.048 192.755 413.699 188.791C447.026 185.38 468.927 158.821 478.933 143.491Z" fill="#FF9D76"/>
<path d="M403.06 117.674C412.125 126.234 426.736 130.46 426.736 130.46L420.452 151.626C411.099 149.056 404.652 132.071 401.861 118.488C401.698 117.71 402.465 117.112 403.06 117.674Z" fill="#EF685E"/>
<path d="M404.422 213.821C404.422 213.821 412.202 172.955 420.298 171.915C428.395 170.874 438.305 199.433 438.305 199.433L404.422 213.821Z" fill="#49263E"/>
<path d="M411.818 204.672C411.818 204.672 416.202 181.642 420.768 181.054C425.335 180.465 430.918 196.564 430.918 196.564L411.818 204.672Z" fill="#FFBBC8"/>
<path d="M251.739 324.619C251.106 324.619 250.501 324.275 250.223 323.696C249.859 322.908 250.223 321.985 251.058 321.633C251.969 321.252 342.442 283.59 409.872 307.244C410.726 307.543 411.167 308.439 410.851 309.253C410.534 310.059 409.556 310.475 408.721 310.176C342.548 286.956 253.312 324.103 252.41 324.483C252.199 324.573 251.959 324.619 251.739 324.619Z" fill="#49263E"/>
<path d="M438.153 393.184C437.232 393.184 436.493 392.478 436.493 391.618L436.647 328.193C436.647 327.333 437.385 326.636 438.306 326.636C439.227 326.636 439.966 327.342 439.966 328.202L439.812 391.627C439.812 392.487 439.064 393.184 438.153 393.184Z" fill="#49263E"/>
<path d="M503.454 255.22C504.759 261.347 515.456 259.7 516.329 259.546C515.523 259.681 506.457 261.374 509.978 267.084C511.858 270.142 515.791 272.296 524.828 269.608C537.318 265.889 548.101 262.46 548.101 262.46C548.101 262.46 540.1 268.812 529.183 274.006C522.967 276.965 523.869 281.436 525.039 282.784C527.936 286.141 531.064 287.29 542.959 282.359C554.855 277.427 561.368 273.834 561.368 273.834C561.368 273.834 575.624 292.819 586.243 294.611C589.275 295.127 591.491 291.924 593.064 287.725C596.556 278.422 594.839 268.079 588.795 260.016C583.778 253.32 577.59 245.882 574.338 245.058C560.869 241.638 540.11 235.421 537.999 235.774C531.409 236.869 519.686 241.14 509.306 247.501C503.454 251.076 503.004 253.112 503.454 255.22Z" fill="#FF9D76"/>
<path d="M511.588 262.83C510.916 262.83 510.283 262.459 510.005 261.853C509.621 261.029 510.024 260.07 510.897 259.708C511.223 259.581 543.36 246.397 545.634 245.374C546.507 244.985 547.533 245.329 547.936 246.143C548.349 246.958 547.984 247.926 547.121 248.315C544.799 249.356 513.602 262.151 512.278 262.694C512.048 262.785 511.818 262.83 511.588 262.83Z" fill="#EF685E"/>
<path d="M541.865 268.477C541.299 268.477 540.733 268.205 540.407 267.717C539.898 266.956 540.138 265.952 540.944 265.472L554.317 257.473C555.123 256.984 556.188 257.22 556.696 257.98C557.204 258.74 556.965 259.744 556.159 260.224L542.786 268.223C542.498 268.395 542.182 268.477 541.865 268.477Z" fill="#EF685E"/>
<path d="M537.999 235.774C537.999 235.774 507.55 235.113 504.529 236.317C501.507 237.52 503.31 248.597 509.296 247.502L537.999 235.774Z" fill="#FF9D76"/>
<path d="M505.853 251.075C505.191 251.075 504.568 250.722 504.28 250.116C503.887 249.292 504.27 248.333 505.143 247.962L538.086 233.945C538.949 233.574 539.986 233.936 540.369 234.759C540.763 235.583 540.379 236.542 539.506 236.913L506.563 250.93C506.333 251.03 506.093 251.075 505.853 251.075Z" fill="#EF685E"/>
<path d="M587.536 336.238C586.798 336.238 586.117 335.767 585.934 335.061C585.714 334.22 586.241 333.378 587.134 333.161C591.805 332.039 595.038 325.153 595.882 322.592C596.161 321.768 597.082 321.316 597.955 321.569C598.828 321.822 599.307 322.7 599.039 323.524C598.885 323.967 595.374 334.41 587.93 336.192C587.805 336.22 587.671 336.238 587.536 336.238Z" fill="#49263E"/>
<path d="M484.879 44.7919C482.241 35.9871 457.779 18.6218 457.779 18.6218L429.651 11.1562L413.823 13.2828L382.77 36.6567L396.171 50.4838L376.429 99.3219C376.429 99.3219 347.764 117.384 343.035 117.945C331.264 119.33 321.786 145.02 321.786 145.02C321.786 145.02 370.634 160.983 389.399 145.02C401.102 135.066 406.148 103.928 408.288 81.9023C409.4 70.4733 418.898 57.6597 430.918 55.9132C456.963 52.1307 476.207 48.7101 476.207 48.7101C476.207 48.7101 482.116 52.7008 476.783 78.4275C476.783 78.4184 487.364 53.0899 484.879 44.7919Z" fill="#75434B"/>
<path d="M476.053 53.1272C475.852 53.1272 475.641 53.091 475.449 53.0186C474.595 52.7019 474.183 51.788 474.519 50.9916C478.327 41.9244 476.792 34.8299 476.773 34.7575C476.581 33.9159 477.157 33.0834 478.049 32.9024C478.922 32.6943 479.824 33.2644 480.015 34.106C480.092 34.4317 481.781 42.2049 477.598 52.1409C477.329 52.7562 476.715 53.1272 476.053 53.1272Z" fill="#FF9D76"/>
<path d="M146.693 232.661C146.693 232.661 121.626 188.529 175.635 178.683C175.635 178.683 204.549 220.228 146.693 232.661Z" fill="#3F9896"/>
<path d="M121.281 225.667C121.281 225.667 68.2501 227.576 82.5343 177.471C82.5343 177.471 134.788 171.164 121.281 225.667Z" fill="#80C7A7"/>
<path d="M129.837 283.943C129.837 283.943 78.2734 295.806 81.6598 244.018C81.6598 244.018 131.535 227.992 129.837 283.943Z" fill="#3F9896"/>
<path d="M129.838 285.508C129.435 285.508 129.032 285.372 128.715 285.092L87.9059 249.393C87.2344 248.805 87.196 247.818 87.8196 247.185C88.4527 246.552 89.4984 246.515 90.1603 247.104L130.97 282.802C131.641 283.391 131.679 284.377 131.056 285.01C130.72 285.336 130.279 285.508 129.838 285.508Z" fill="#80C7A7"/>
<path d="M121.28 227.232C120.762 227.232 120.254 227.006 119.928 226.571L86.908 182.602C86.3708 181.896 86.5531 180.927 87.3013 180.421C88.0496 179.923 89.076 180.086 89.6132 180.792L122.633 224.761C123.16 225.467 122.988 226.436 122.24 226.942C121.942 227.132 121.606 227.232 121.28 227.232Z" fill="#3F9896"/>
<path d="M146.693 234.217C146.434 234.217 146.185 234.163 145.945 234.046C145.129 233.656 144.803 232.715 145.216 231.946L168.575 188.347C168.997 187.578 169.995 187.271 170.801 187.66C171.616 188.049 171.942 188.99 171.53 189.759L148.17 233.358C147.873 233.91 147.297 234.217 146.693 234.217Z" fill="#80C7A7"/>
<path d="M142.137 320.646C141.274 320.646 140.554 320.021 140.487 319.207C136.141 265.446 119.19 226.137 119.018 225.748C118.663 224.951 119.066 224.037 119.919 223.712C120.744 223.368 121.723 223.757 122.078 224.553C122.25 224.951 139.403 264.677 143.787 318.963C143.864 319.822 143.173 320.573 142.262 320.646C142.223 320.637 142.175 320.646 142.137 320.646Z" fill="#49263E"/>
<path d="M135.584 276.522C134.644 276.504 133.915 275.798 133.925 274.929C134.357 253.112 144.257 232.851 144.679 232C145.063 231.222 146.051 230.869 146.876 231.249C147.71 231.611 148.065 232.543 147.682 233.321C147.586 233.52 137.666 253.854 137.244 274.984C137.225 275.834 136.486 276.522 135.584 276.522Z" fill="#49263E"/>
<path d="M140.322 303.724C139.736 303.724 139.171 303.434 138.864 302.91L127.803 283.843C127.371 283.083 127.659 282.142 128.465 281.726C129.27 281.318 130.278 281.59 130.709 282.35L141.77 301.417C142.202 302.177 141.914 303.118 141.108 303.534C140.859 303.661 140.59 303.724 140.322 303.724Z" fill="#49263E"/>
<path d="M106.813 314.42H177.457L172.488 391.618H112.33L106.813 314.42Z" fill="#F75454"/>
<path d="M176.481 329.749H107.803C106.892 329.749 106.144 329.052 106.144 328.183C106.144 327.323 106.882 326.618 107.803 326.618H176.481C177.392 326.618 178.14 327.314 178.14 328.183C178.131 329.052 177.392 329.749 176.481 329.749Z" fill="#49263E"/>
<path d="M667.151 336.608C667.151 336.608 621.622 278.558 636.52 265.998C651.418 253.428 679.565 309.035 680.399 328.871C680.399 328.871 664.667 203.821 693.648 207.151C722.619 210.481 693.648 323.061 693.648 323.061C693.648 323.061 719.309 258.432 734.207 258.279C749.106 258.116 708.363 334.68 708.363 334.68L667.151 336.608Z" fill="#3F9896"/>
<path d="M685.503 346.589C684.525 346.553 683.815 345.829 683.844 344.97L688.515 223.747C688.554 222.888 689.379 222.291 690.233 222.245C691.144 222.282 691.863 223.005 691.825 223.865L687.153 345.087C687.115 345.929 686.386 346.589 685.503 346.589Z" fill="#80C7A7"/>
<path d="M675.842 341.993C675.084 341.993 674.393 341.495 674.221 340.771C668.829 317.904 640.462 278.305 640.184 277.907C639.676 277.192 639.867 276.223 640.625 275.735C641.383 275.255 642.41 275.436 642.928 276.151C644.108 277.789 671.928 316.646 677.463 340.092C677.655 340.934 677.098 341.766 676.206 341.956C676.082 341.974 675.966 341.993 675.842 341.993Z" fill="#80C7A7"/>
<path d="M699.018 346.591C697.973 346.518 697.291 345.767 697.368 344.908C698.481 331.687 726.128 272.822 727.308 270.325C727.683 269.537 728.671 269.176 729.496 269.528C730.33 269.881 730.704 270.804 730.34 271.592C730.052 272.198 701.752 332.465 700.668 345.152C700.601 345.966 699.872 346.591 699.018 346.591Z" fill="#80C7A7"/>
<path d="M654.842 336.608H725.486L720.517 391.618H660.358L654.842 336.608Z" fill="#FFBBC8"/>
<path d="M723.971 355.006H656.531C655.62 355.006 654.872 354.309 654.872 353.441C654.872 352.581 655.61 351.875 656.531 351.875H723.971C724.882 351.875 725.631 352.572 725.631 353.441C725.621 354.309 724.882 355.006 723.971 355.006Z" fill="#49263E"/>
<path d="M733.373 393.229H102.959C102.048 393.229 101.3 392.532 101.3 391.663C101.3 390.804 102.039 390.098 102.959 390.098H733.373C734.285 390.098 735.033 390.795 735.033 391.663C735.033 392.523 734.294 393.229 733.373 393.229Z" fill="#49263E"/>
<path d="M494.944 238.642C494.944 262.894 472.419 280.612 444.647 280.612C416.865 280.612 394.341 262.894 394.341 238.642C394.341 214.391 416.865 194.727 444.647 194.727C472.419 194.727 494.944 214.391 494.944 238.642Z" fill="#49263E"/>
<path d="M428.012 308.186C437.702 304.421 449.405 299.969 455.583 297.96C455.986 297.635 456.389 297.3 456.792 296.965C458.413 292.658 467.997 269.229 486.109 263.501C490.512 257.909 493.476 251.385 494.522 244.335C485.351 237.684 471.978 235.901 456.495 235.431C452.724 235.313 449.463 225.178 448.187 221.83C446.863 218.337 444.474 216.002 441.759 216.002C439.092 216.002 436.752 218.247 435.409 221.631C434.056 225.043 430.699 235.205 426.832 235.214C414.275 235.259 403.08 235.901 394.35 240.028C394.686 249.548 398.494 258.298 404.711 265.356C405.996 266.433 407.32 267.492 408.682 268.524C408.327 277.672 408.903 304.367 428.012 308.186Z" fill="#F4F0ED"/>
<path d="M445.981 235.259C445.981 236.698 444.092 237.865 441.77 237.865C439.439 237.865 437.559 236.698 437.559 235.259C437.559 233.82 439.448 232.653 441.77 232.653C444.101 232.662 445.981 233.829 445.981 235.259Z" fill="#49263E"/>
<path d="M436.251 245.293C436.117 245.293 435.992 245.293 435.858 245.284C434.947 245.23 434.256 244.488 434.313 243.628C434.361 242.759 435.11 242.017 436.069 242.171C436.702 242.198 437.278 242.026 437.777 241.619C439.503 240.162 440.05 236.497 440.108 235.203C440.156 234.344 440.913 233.647 441.834 233.719C442.746 233.755 443.456 234.488 443.417 235.348C443.389 235.954 443.043 241.366 439.992 243.945C438.928 244.823 437.642 245.293 436.251 245.293Z" fill="#49263E"/>
<path d="M447.285 245.293C445.894 245.293 444.599 244.823 443.534 243.936C440.483 241.348 440.128 235.946 440.1 235.339C440.061 234.48 440.771 233.747 441.683 233.71C442.555 233.638 443.371 234.344 443.409 235.195C443.476 236.489 444.023 240.162 445.75 241.619C446.249 242.036 446.824 242.235 447.458 242.171C448.331 242.018 449.156 242.769 449.213 243.628C449.271 244.488 448.58 245.23 447.669 245.284C447.554 245.293 447.419 245.293 447.285 245.293Z" fill="#49263E"/>
<path d="M440.224 274.939C428.079 274.939 419.042 272.613 418.476 272.469C417.603 272.233 417.085 271.374 417.325 270.541C417.584 269.709 418.524 269.22 419.358 269.455C419.56 269.509 439.658 274.676 459.87 269.455C460.743 269.211 461.655 269.718 461.904 270.55C462.144 271.383 461.626 272.242 460.743 272.469C453.568 274.315 446.478 274.939 440.224 274.939Z" fill="#49263E"/>
<path d="M425.663 231.566C426.92 231.566 427.946 230.597 427.946 229.412V225.964C427.946 224.779 426.92 223.811 425.663 223.811C424.406 223.811 423.38 224.779 423.38 225.964V229.412C423.38 230.597 424.406 231.566 425.663 231.566Z" fill="#F4F0ED"/>
<path d="M457.876 231.566C459.133 231.566 460.159 230.598 460.159 229.413V225.965C460.159 224.78 459.133 223.811 457.876 223.811C456.619 223.811 455.593 224.78 455.593 225.965V229.413C455.593 230.598 456.619 231.566 457.876 231.566Z" fill="#F4F0ED"/>
</svg>
