<svg width="80" height="81" viewBox="0 0 80 81" fill="none" xmlns="http://www.w3.org/2000/svg">
<circle cx="40" cy="40.0005" r="40" fill="white"/>
<g filter="url(#filter0_d_611_9485)">
<path d="M43.1521 47.6431C43.1521 43.1168 46.8642 39.4288 51.42 39.4288H52.8036V24.3747C52.8036 23.6035 52.1961 23 51.42 23H29.3836C28.6412 23 28 23.6035 28 24.3747V54.4829C28 55.254 28.6074 55.8575 29.3836 55.8575H51.42C46.8642 55.8575 43.1521 52.1694 43.1521 47.6431ZM37.1453 46.0673H34.1756C33.3994 46.0673 32.792 45.4638 32.792 44.6927C32.792 43.9215 33.3994 43.318 34.1756 43.318H37.1453C37.9214 43.318 38.5289 43.9215 38.5289 44.6927C38.5289 45.4638 37.9214 46.0673 37.1453 46.0673ZM40.0812 38.8252H34.1756C33.3994 38.8252 32.792 38.2217 32.792 37.4506C32.792 36.6794 33.3994 36.0759 34.1756 36.0759H40.0475C40.8236 36.0759 41.4311 36.6794 41.4311 37.4506C41.4311 38.2217 40.8236 38.8252 40.0812 38.8252ZM34.1756 31.5832C33.3994 31.5832 32.792 30.9797 32.792 30.2085C32.792 29.4374 33.3994 28.8339 34.1756 28.8339H42.8147C43.5908 28.8339 44.1983 29.4374 44.1983 30.2085C44.1983 30.9797 43.5908 31.5832 42.8147 31.5832H34.1756Z" fill="#6E60F6"/>
<rect x="45" y="40.9995" width="13.16" height="13.16" rx="6.58" fill="#6E60F6"/>
<path d="M53.912 47.0036C53.912 47.2926 53.8456 47.5579 53.713 47.7995C53.5803 48.0364 53.3766 48.2282 53.1018 48.3751C52.8271 48.522 52.4859 48.5954 52.0785 48.5954H51.3252V50.3862H50.11V45.3975H52.0785C52.4765 45.3975 52.8128 45.4662 53.0876 45.6036C53.3624 45.741 53.5685 45.9305 53.7059 46.1721C53.8433 46.4137 53.912 46.6909 53.912 47.0036ZM51.9861 47.6289C52.2183 47.6289 52.3912 47.5745 52.5049 47.4655C52.6186 47.3565 52.6754 47.2026 52.6754 47.0036C52.6754 46.8046 52.6186 46.6506 52.5049 46.5417C52.3912 46.4327 52.2183 46.3782 51.9861 46.3782H51.3252V47.6289H51.9861Z" fill="white"/>
</g>
<defs>
<filter id="filter0_d_611_9485" x="13" y="18" width="60.1602" height="62.8574" filterUnits="userSpaceOnUse" color-interpolation-filters="sRGB">
<feFlood flood-opacity="0" result="BackgroundImageFix"/>
<feColorMatrix in="SourceAlpha" type="matrix" values="0 0 0 0 0 0 0 0 0 0 0 0 0 0 0 0 0 0 127 0" result="hardAlpha"/>
<feOffset dy="10"/>
<feGaussianBlur stdDeviation="7.5"/>
<feComposite in2="hardAlpha" operator="out"/>
<feColorMatrix type="matrix" values="0 0 0 0 0.443137 0 0 0 0 0.0941176 0 0 0 0 0.937255 0 0 0 0.15 0"/>
<feBlend mode="normal" in2="BackgroundImageFix" result="effect1_dropShadow_611_9485"/>
<feBlend mode="normal" in="SourceGraphic" in2="effect1_dropShadow_611_9485" result="shape"/>
</filter>
</defs>
</svg>
