<svg width="11" height="11" viewBox="0 0 11 11" fill="none" xmlns="http://www.w3.org/2000/svg">
<path d="M10.3125 4.875H6.375V0.9375C6.375 0.71875 6.15625 0.5 5.9375 0.5H5.0625C4.81641 0.5 4.625 0.71875 4.625 0.9375V4.875H0.6875C0.441406 4.875 0.25 5.09375 0.25 5.3125V6.1875C0.25 6.43359 0.441406 6.625 0.6875 6.625H4.625V10.5625C4.625 10.8086 4.81641 11 5.0625 11H5.9375C6.15625 11 6.375 10.8086 6.375 10.5625V6.625H10.3125C10.5312 6.625 10.75 6.43359 10.75 6.1875V5.3125C10.75 5.09375 10.5312 4.875 10.3125 4.875Z" fill="#5E5E5E"/>
</svg>
