<svg width="100" height="101" viewBox="0 0 100 101" fill="none" xmlns="http://www.w3.org/2000/svg">
<path d="M50 100.5C77.6142 100.5 100 78.1142 100 50.5C100 22.8858 77.6142 0.5 50 0.5C22.3858 0.5 0 22.8858 0 50.5C0 78.1142 22.3858 100.5 50 100.5Z" fill="#E0E0E0"/>
<path d="M49.617 84.73C68.7343 84.73 84.2319 69.2323 84.2319 50.115C84.2319 30.9977 68.7343 15.5 49.617 15.5C30.4996 15.5 15.002 30.9977 15.002 50.115C15.002 69.2323 30.4996 84.73 49.617 84.73Z" fill="#999999"/>
<path d="M50.0009 46.6014L63.6467 32.9561L67.5448 36.8539L53.8989 50.4993L67.5448 64.1446L63.6467 68.0425L50.0009 54.3971L36.3551 68.0425L32.457 64.1446L46.1029 50.4993L32.457 36.8539L36.3551 32.9561L50.0009 46.6014Z" fill="white"/>
</svg>
