<svg width="375" height="400" viewBox="0 0 375 400" fill="none" xmlns="http://www.w3.org/2000/svg">
<g clip-path="url(#clip0_1494_13624)">
<rect width="375" height="400" fill="#CBE7EF"/>
<mask id="mask0_1494_13624" style="mask-type:luminance" maskUnits="userSpaceOnUse" x="-54" y="-5" width="765" height="431">
<path d="M711 -4.96875H-54V425.214H711V-4.96875Z" fill="white"/>
</mask>
<g mask="url(#mask0_1494_13624)">
<path style="mix-blend-mode:multiply" opacity="0.25" d="M-49.8204 25.1758V85.4054H-73.0732V86.9987H-49.8204V147.228H-73.0732V148.821H-49.8204V209.051H-73.0732V210.644H-49.8204V270.874H-73.0732V272.467H-49.8204V332.697H-73.0732V334.29H-49.8204V394.519H-73.0732V396.113H-49.8204V457.979H-48.2267V396.113H12.021V457.979H13.6148V396.113H73.8625V457.979H75.4563V396.113H135.704V457.979H137.298V396.113H197.546V457.979H199.139V396.113H259.387V457.979H260.981V396.113H321.228V457.979H322.822V396.113H383.07V457.979H384.664V396.113H444.911V457.979H446.505V396.113H506.753V457.979H508.347V396.113H568.594V457.979H570.188V396.113H630.436V457.979H632.03V396.113H692.277V457.979H693.871V396.113H730.073V394.519H693.871V334.29H730.073V332.697H693.871V272.467H730.073V270.874H693.871V210.644H730.073V209.051H693.871V148.821H730.073V147.228H693.871V86.9987H730.073V85.4054H693.871V25.1758H730.073V23.5826H693.871V-37.7344H692.277V23.5826H632.03V-37.7344H630.436V23.5826H570.188V-37.7344H568.594V23.5826H508.347V-37.7344H506.753V23.5826H446.505V-37.7344H444.911V23.5826H384.664V-37.7344H383.07V23.5826H322.822V-37.7344H321.228V23.5826H260.981V-37.7344H259.387V23.5826H199.139V-37.7344H197.546V23.5826H137.298V-37.7344H135.704V23.5826H75.4563V-37.7344H73.8625V23.5826H13.6148V-37.7344H12.021V23.5826H-48.2267V-37.7344H-49.8204V23.5826H-73.0732V25.1758H-49.8204ZM73.8625 25.1758V85.4054H13.6148V25.1758H73.8625ZM199.139 148.821H259.387V209.051H199.139V148.821ZM197.546 209.051H137.298V148.821H197.546V209.051ZM260.981 148.821H321.228V209.051H260.981V148.821ZM322.822 148.821H383.07V209.051H322.822V148.821ZM384.664 148.821H444.911V209.051H384.664V148.821ZM446.505 148.821H506.753V209.051H446.505V148.821ZM508.347 148.821H568.594V209.051H508.347V148.821ZM568.594 210.644V270.874H508.347V210.644H568.594ZM506.753 270.874H446.505V210.644H506.753V270.874ZM444.911 270.874H384.664V210.644H444.911V270.874ZM383.07 270.874H322.822V210.644H383.07V270.874ZM321.228 270.874H260.981V210.644H321.228V270.874ZM259.387 270.874H199.139V210.644H259.387V270.874ZM197.546 270.874H137.298V210.644H197.546V270.874ZM135.704 270.874H75.4563V210.644H135.704V270.874ZM75.4563 209.051V148.821H135.704V209.051H75.4563ZM75.4563 147.228V86.9987H135.704V147.228H75.4563ZM137.298 86.9987H197.546V147.228H137.298V86.9987ZM199.139 86.9987H259.387V147.228H199.139V86.9987ZM260.981 86.9987H321.228V147.228H260.981V86.9987ZM322.822 86.9987H383.07V147.228H322.822V86.9987ZM384.664 86.9987H444.911V147.228H384.664V86.9987ZM446.505 86.9987H506.753V147.228H446.505V86.9987ZM508.347 86.9987H568.594V147.228H508.347V86.9987ZM570.188 86.9987H630.436V147.228H570.188V86.9987ZM630.436 148.821V209.051H570.188V148.821H630.436ZM630.436 210.644V270.874H570.188V210.644H630.436ZM630.436 272.467V332.697H570.188V272.467H630.436ZM568.594 332.697H508.347V272.467H568.594V332.697ZM506.753 332.697H446.505V272.467H506.753V332.697ZM444.911 332.697H384.664V272.467H444.911V332.697ZM383.07 332.697H322.822V272.467H383.07V332.697ZM321.228 332.697H260.981V272.467H321.228V332.697ZM259.387 332.697H199.139V272.467H259.387V332.697ZM197.546 332.697H137.298V272.467H197.546V332.697ZM135.704 332.697H75.4563V272.467H135.704V332.697ZM73.8625 332.697H13.6148V272.467H73.8625V332.697ZM13.6148 270.874V210.644H73.8625V270.874H13.6148ZM13.6148 209.051V148.821H73.8625V209.051H13.6148ZM13.6148 147.228V86.9987H73.8625V147.228H13.6148ZM135.704 25.1758V85.4054H75.4563V25.1758H135.704ZM197.546 25.1758V85.4054H137.298V25.1758H197.546ZM259.387 25.1758V85.4054H199.139V25.1758H259.387ZM321.228 25.1758V85.4054H260.981V25.1758H321.228ZM383.07 25.1758V85.4054H322.822V25.1758H383.07ZM444.911 25.1758V85.4054H384.664V25.1758H444.911ZM506.753 25.1758V85.4054H446.505V25.1758H506.753ZM568.594 25.1758V85.4054H508.347V25.1758H568.594ZM630.436 25.1758V85.4054H570.188V25.1758H630.436ZM692.277 85.4054H632.03V25.1758H692.277V85.4054ZM692.277 147.228H632.03V86.9987H692.277V147.228ZM692.277 209.051H632.03V148.821H692.277V209.051ZM692.277 270.874H632.03V210.644H692.277V270.874ZM692.277 332.697H632.03V272.467H692.277V332.697ZM632.03 394.519V334.29H692.277V394.519H632.03ZM570.188 394.519V334.29H630.436V394.519H570.188ZM508.347 394.519V334.29H568.594V394.519H508.347ZM446.505 394.519V334.29H506.753V394.519H446.505ZM384.664 394.519V334.29H444.911V394.519H384.664ZM322.822 394.519V334.29H383.07V394.519H322.822ZM260.981 394.519V334.29H321.228V394.519H260.981ZM199.139 394.519V334.29H259.387V394.519H199.139ZM137.298 394.519V334.29H197.546V394.519H137.298ZM75.4563 394.519V334.29H135.704V394.519H75.4563ZM13.6148 394.519V334.29H73.8625V394.519H13.6148ZM-48.2267 334.29H12.021V394.519H-48.2267V334.29ZM-48.2267 272.467H12.021V332.697H-48.2267V272.467ZM-48.2267 210.644H12.021V270.874H-48.2267V210.644ZM-48.2267 148.821H12.021V209.051H-48.2267V148.821ZM-48.2267 86.9987H12.021V147.228H-48.2267V86.9987ZM-48.2267 25.1758H12.021V85.4054H-48.2267V25.1758Z" fill="url(#paint0_radial_1494_13624)"/>
</g>
<path d="M68.8053 424.541C23.3147 388.798 8.80662 325.42 11.6737 270.173C14.7885 210.291 41.3728 151.901 102.4 132.931C137.593 121.986 174.707 126.757 209.78 135.601C243.352 144.062 276.797 161.338 312.38 156.454C333.613 153.544 352.159 143.027 371.613 134.843C393.747 125.534 417.952 119.811 442.022 119.818C466.917 119.826 492.128 126.352 512.633 140.462C540.591 159.702 557.854 191.583 565.937 224.536C577.233 270.593 579.574 322.352 563.64 367.629C550.461 405.061 524.754 434.135 486.949 446.573C445.789 460.112 401.62 460.165 358.756 460.067C314.684 459.97 270.62 459.872 226.548 459.767C173.334 459.655 112.765 459.092 68.8053 424.541Z" fill="#F0FCFF"/>
<path d="M312.578 293.926C312.578 293.926 309.826 268.715 327.417 261.616C345.009 254.518 352.041 280.099 352.362 277.771C352.683 275.443 341.869 230.658 356.52 218.522C371.166 206.386 380.016 233.295 380.016 233.295C380.016 233.295 377.798 222.778 388.606 223.475C399.42 224.172 394.189 254.651 394.189 254.651C394.189 254.651 406.155 239.775 417.436 243.661C428.718 247.54 407.792 284.16 407.792 284.16C407.792 284.16 425.638 275.043 429.766 288.004C433.895 300.958 419.304 312.063 419.304 312.063C419.304 312.063 441.375 317.555 442.369 335.08C443.363 352.605 443.363 352.605 443.363 352.605C443.363 352.605 291.658 350.817 291.325 350.823C290.985 350.829 284.056 326.472 292.21 318.956C300.369 311.439 294.95 305.535 300.975 297.812C307.001 290.089 312.578 293.926 312.578 293.926Z" fill="#80C7A7"/>
<path d="M340.165 222.478C339.007 219.75 336.994 216.713 334.079 216.149C331.06 215.561 327.92 217.671 327.58 220.793C327.332 223.096 328.332 225.351 329.52 227.339C330.945 229.728 337.988 240.051 341.159 234.862C341.898 233.65 341.874 232.134 341.783 230.716C341.601 227.909 341.226 225.072 340.165 222.478Z" fill="#80C7A7"/>
<path d="M83.2784 352.453C83.2784 352.453 54.9875 345.39 55.521 337.807C56.309 326.732 64.9594 325.58 64.9594 325.58C64.9594 325.58 45.537 313.602 51.0655 301.599C56.5879 289.591 80.7142 303.194 80.7142 303.194C80.7142 303.194 61.1161 269.362 72.4579 258.899C83.7937 248.436 93.2139 274.151 92.8623 273.151C92.5107 272.151 86.8004 248.097 95.966 246.254C105.132 244.411 111.533 291.324 111.218 289.585C110.896 287.845 116.849 271.181 130.489 279.34C144.128 287.493 143.485 323.107 143.485 323.107C143.485 323.107 144.746 293.761 159.78 297.077C174.813 300.399 173.77 320.494 174.116 320.04C174.468 319.579 191.568 290.985 207.778 281.565C223.987 272.151 247.938 278.952 247.938 278.952L249.799 352.453H83.2784Z" fill="#3F9896"/>
<path d="M125.579 254.621C125.585 254.536 125.591 254.452 125.604 254.367C125.87 251.002 125.41 246.565 122.56 244.292C119.608 241.94 115.013 242.455 112.874 245.656C111.297 248.014 111.11 251.033 111.267 253.864C111.461 257.27 113.255 272.468 119.645 268.63C121.136 267.733 121.972 266.078 122.676 264.484C124.064 261.338 125.264 258.046 125.579 254.621Z" fill="#3F9896"/>
<path d="M2.56055 317.213H31.2111V334.852C31.2111 337.676 28.9195 339.967 26.0954 339.967H7.67627C4.85209 339.967 2.56055 337.676 2.56055 334.852V317.213Z" fill="#040701"/>
<path d="M124.174 317.213H152.824V334.852C152.824 337.676 150.533 339.967 147.709 339.967H129.29C126.465 339.967 124.174 337.676 124.174 334.852V317.213Z" fill="#040701"/>
<path d="M160.727 245.544C160.925 245.048 162.66 236.44 163.551 231.943C163.861 230.382 165.236 229.268 166.834 229.268H175.492C178.725 229.268 181.339 231.894 181.339 235.114V235.362C181.339 237.269 179.79 238.818 177.883 238.818H167.317L164.889 247.29L160.715 245.544H160.727Z" fill="#E1AA2F"/>
<path d="M168.47 253.793H168.482L140.017 200.79C138.568 198.09 135.744 196.405 132.684 196.405H22.7642C19.6552 196.405 16.8062 198.139 15.3693 200.902L-12.0549 253.793H-12.0425C-12.6866 254.834 -13.083 256.035 -13.083 257.348V310.438C-13.083 315.69 -8.82197 319.951 -3.56999 319.951H159.972C165.224 319.951 169.485 315.69 169.485 310.438V257.348C169.485 256.035 169.101 254.821 168.445 253.793H168.47Z" fill="#FFD333"/>
<path d="M2.43593 244.974L20.471 208.086C21.6354 205.696 24.0632 204.185 26.7263 204.185H127.554C130.094 204.185 132.435 205.572 133.661 207.801L153.876 244.726C156.069 248.727 153.17 253.595 148.624 253.595H7.82417C3.38971 253.595 0.491214 248.95 2.43593 244.962V244.974Z" fill="#3B3D51"/>
<mask id="mask1_1494_13624" style="mask-type:luminance" maskUnits="userSpaceOnUse" x="1" y="204" width="154" height="50">
<path d="M2.43593 244.976L20.471 208.088C21.6354 205.698 24.0632 204.187 26.7263 204.187H127.554C130.094 204.187 132.435 205.574 133.661 207.803L153.876 244.728C156.069 248.729 153.17 253.597 148.624 253.597H7.82417C3.38971 253.597 0.491214 248.952 2.43593 244.964V244.976Z" fill="white"/>
</mask>
<g mask="url(#mask1_1494_13624)">
<path d="M45.8652 187.898L113.559 275.807H192.747L138.654 179.19L45.8652 187.898Z" fill="#46495E"/>
</g>
<path d="M-0.424805 273.737V285.703C-0.424805 288.304 1.69333 290.422 4.29454 290.422H33.1309C35.8188 290.422 37.6149 287.647 36.5001 285.195L35.3357 282.618C33.2052 277.911 28.9813 274.48 23.9399 273.328L5.33503 269.117C2.38698 268.448 -0.424805 270.69 -0.424805 273.725V273.737Z" fill="#F7F7F7"/>
<path d="M157.283 273.737V285.703C157.283 288.304 155.165 290.422 152.564 290.422H123.728C121.04 290.422 119.244 287.647 120.358 285.195L121.523 282.618C123.653 277.911 127.877 274.48 132.919 273.328L151.524 269.117C154.472 268.448 157.283 270.69 157.283 273.725V273.737Z" fill="#F7F7F7"/>
<path d="M-13.0713 257.362C-13.0713 257.362 59.7751 284.093 169.497 257.362" stroke="#1C1C1C" stroke-width="1.54417" stroke-miterlimit="10"/>
<path d="M-13.0713 302.29H169.497" stroke="#1C1C1C" stroke-width="1.54417" stroke-miterlimit="10"/>
<path d="M23.5936 306.736H9.20018C8.68027 306.736 8.25879 307.158 8.25879 307.678V313.896C8.25879 314.416 8.68027 314.837 9.20018 314.837H23.5936C24.1135 314.837 24.535 314.416 24.535 313.896V307.678C24.535 307.158 24.1135 306.736 23.5936 306.736Z" fill="#F7F7F7"/>
<path d="M145.85 306.736H131.457C130.937 306.736 130.516 307.158 130.516 307.678V313.896C130.516 314.416 130.937 314.837 131.457 314.837H145.85C146.37 314.837 146.792 314.416 146.792 313.896V307.678C146.792 307.158 146.37 306.736 145.85 306.736Z" fill="#F7F7F7"/>
<path d="M104.181 292.826H48.2545C46.8424 292.826 45.6904 291.674 45.6904 290.262C45.6904 288.85 46.8424 287.698 48.2545 287.698H104.181C105.593 287.698 106.745 288.85 106.745 290.262C106.745 291.674 105.593 292.826 104.181 292.826Z" fill="#AE6919"/>
<path d="M45.7031 281.492H106.745" stroke="#E1AA2F" stroke-width="1.54417" stroke-miterlimit="10"/>
<path d="M105.284 191.189H51.8721V196.417H105.284V191.189Z" fill="#E1AA2F"/>
<path d="M55.0918 191.191L57.9284 180.712C58.9565 176.934 62.3752 174.308 66.3018 174.308H90.8771C94.7913 174.308 98.2224 176.934 99.2505 180.712L102.087 191.191H55.1166H55.0918Z" fill="#AE6919"/>
<path d="M68.1977 181.418H65.9805V179.981H72.0128V181.418H69.808V187.24H68.1977V181.418Z" fill="#F7F7F7"/>
<path d="M78.033 185.986H74.3045L73.7719 187.237H72.0254L75.2831 179.966H77.042L80.2997 187.237H78.5408L78.0082 185.986H78.033ZM76.1749 181.601L74.9239 184.549H77.426L76.1749 181.601Z" fill="#F7F7F7"/>
<path d="M86.2952 179.966H88.0665V180.04L85.6139 183.583L88.1037 187.187V187.237H86.3076L84.5982 184.685L82.8888 187.237H81.0928V187.187L83.5577 183.583L81.1175 180.04V179.966H82.8888L84.5858 182.555L86.2828 179.966H86.2952Z" fill="#F7F7F7"/>
<path d="M89.5527 187.237V179.966H91.163V187.237H89.5527Z" fill="#F7F7F7"/>
<path d="M368.204 284.123H343.818L347.435 325.527H374.568C381.595 325.527 386.532 318.618 384.26 311.966L376.857 290.305C375.589 286.606 372.114 284.123 368.204 284.123Z" fill="#F75454"/>
<path d="M344.975 227.791L377.92 324.136C381.578 334.832 373.629 345.951 362.323 345.951H318.658L306.624 208.272L321.429 203.869C321.429 203.869 344.541 211.9 346.003 213.009C347.47 214.119 344.975 227.791 344.975 227.791Z" fill="#F9C164"/>
<path d="M307.17 214.408L317.097 328C317.948 335.192 318.699 341.385 319.292 345.952H346.343C340.655 315.391 321.188 210.833 320.554 208.273L311.273 206.894L308.761 207.639L307.17 214.408Z" fill="#FFA466"/>
<path d="M336.581 329.793C336.087 329.793 335.653 329.435 335.583 328.93L328.902 284.79C328.855 284.497 328.943 284.203 329.137 283.98C329.325 283.757 329.607 283.628 329.9 283.628H356.329C356.886 283.628 357.344 284.08 357.344 284.644C357.344 285.201 356.892 285.659 356.329 285.659H331.074L337.573 328.636C337.661 329.188 337.279 329.705 336.721 329.787C336.68 329.787 336.628 329.793 336.581 329.793Z" fill="#49263E"/>
<path d="M344.159 248.583L332.976 216.314C331.937 213.314 329.113 211.3 325.943 211.283C316.339 211.242 307.927 211.236 306.653 211.306C307.035 211.283 302.162 197.446 302.162 197.446C304.041 196.325 304.821 196.325 310.897 196.301C313.463 196.295 317.014 196.295 321.446 196.313C329.06 196.337 336.633 196.389 336.633 196.389C339.797 196.413 342.609 198.426 343.648 201.42L359.921 248.378L344.159 248.583Z" fill="#F75454"/>
<path d="M352.425 250.584C352.008 250.584 351.614 250.32 351.468 249.903L335.119 203.127C324.37 203.057 308.702 202.998 307.698 203.116C307.158 203.274 306.659 202.957 306.494 202.423C306.336 201.889 306.7 201.308 307.24 201.149C307.428 201.096 308.021 200.92 335.847 201.108C336.275 201.108 336.657 201.384 336.803 201.789L353.393 249.24C353.575 249.768 353.299 250.349 352.771 250.531C352.648 250.566 352.53 250.584 352.425 250.584Z" fill="#49263E"/>
<path fill-rule="evenodd" clip-rule="evenodd" d="M169.144 229.735C169.144 229.735 192.438 279.915 193.19 278.025L235.697 227.798L276.831 247.487C276.831 247.487 216.689 336.213 189.051 324.407C161.413 312.596 149.479 234.883 149.479 234.883L169.144 229.735Z" fill="#C77965"/>
<path d="M217.271 249.573C217.899 248.827 229.763 256.723 229.763 256.723L231.641 247.36L224.99 240.456L217.271 249.573Z" fill="#49263E"/>
<path fill-rule="evenodd" clip-rule="evenodd" d="M218.221 242.856L235.409 249.572V230.922L219.677 235.918L218.221 242.856Z" fill="#FFBBC8"/>
<path fill-rule="evenodd" clip-rule="evenodd" d="M319.292 259.175C319.169 249.266 316.11 231.948 310.539 215.329C304.252 196.585 274.096 192.575 274.096 192.575C261.316 204.698 257.717 199.86 257.717 199.86C257.717 199.86 218.063 262.744 219.73 272.613C223.064 292.372 235.621 312.209 236.214 312.144L234.136 352.891L328.368 351.217C328.368 351.223 319.545 279.798 319.292 259.175Z" fill="#FFBBC8"/>
<path d="M200.957 292.269C200.61 292.269 200.276 292.093 200.082 291.77L192.316 278.533C192.034 278.051 192.198 277.429 192.68 277.147C193.155 276.865 193.777 277.024 194.071 277.505L201.837 290.743C202.119 291.224 201.955 291.847 201.473 292.128C201.309 292.222 201.133 292.269 200.957 292.269Z" fill="#49263E"/>
<path fill-rule="evenodd" clip-rule="evenodd" d="M292.682 340.733C306.084 336.236 315.065 305.674 320.548 277.931C319.815 269.8 319.345 263.184 319.292 259.175C319.216 253.064 318.024 244.129 315.811 234.284C309.506 236.286 302.961 238.752 302.697 240.448C302.186 243.753 252.757 324.677 252.757 324.677C252.757 324.677 267.392 349.221 292.682 340.733Z" fill="#FF99AF"/>
<path d="M232.322 168.246C232.322 168.246 216.847 161.583 224.778 134.48C228.6 121.43 232.844 99.7093 215.321 94.7135C197.798 89.7237 188.205 105.216 190.008 128.926C191.211 144.759 199.952 168.047 217.716 179.06C227.114 184.883 232.322 168.246 232.322 168.246Z" fill="#C6AFC9"/>
<path d="M279.901 162.671C281.387 149.815 281.739 136.765 277.448 124.402C273.949 114.317 263.799 106.885 253.473 104.795C231.112 100.269 207.073 120.023 208.241 142.829C208.664 151.059 213.483 157.488 218.291 163.781C220.17 166.24 222.23 168.794 223.211 171.776C224.303 175.105 223.187 180.218 219.677 181.727C218.632 182.179 217.475 182.243 216.354 182.431C204.537 184.392 201.473 196.52 206.198 206.124C207.173 208.108 208.335 210.286 207.725 212.411C206.891 215.329 203.392 216.327 200.786 217.877C194.322 221.722 193.107 230.287 196.582 236.621C199.148 241.3 204.044 244.528 209.298 245.456C214.886 246.436 220.634 244.969 225.876 242.802C233.918 239.48 242.348 235.846 249.933 231.555C255.428 228.449 262.854 223.313 261.333 215.975C259.924 209.177 289.734 213.756 286.47 200.565C281.985 182.46 279.056 169.951 279.901 162.671Z" fill="#49263E"/>
<path fill-rule="evenodd" clip-rule="evenodd" d="M272.005 157.103C274.342 152.301 274.547 146.284 269.393 143.63C266.992 142.398 265.061 142.515 263.517 143.343C259.736 145.368 255.022 143.695 253.525 139.674C253.003 138.277 252.827 137.367 252.827 137.367C235.286 141.047 221.256 134.056 221.256 134.056C221.256 134.056 223.105 143.26 218.232 150.669C218.232 150.669 232.474 185.774 247.056 185.522L263.217 207.242C263.217 207.242 285.789 196.218 293.016 193.306C291.771 192.513 281.88 167.934 272.005 157.103Z" fill="#CC7A64"/>
<path d="M270.826 153.312C270.175 153.26 269.77 152.761 269.817 152.203C269.875 151.551 269.494 149.414 268.238 148.229C267.568 147.6 266.77 147.372 265.831 147.518C262.602 148.017 262.003 152.373 261.997 152.42C261.927 152.972 261.475 153.359 260.864 153.301C260.312 153.23 259.919 152.725 259.99 152.174C260.019 151.933 260.776 146.25 265.52 145.516C267.105 145.288 268.508 145.698 269.623 146.755C271.337 148.364 271.959 151.07 271.836 152.391C271.783 152.919 271.343 153.312 270.826 153.312Z" fill="#49263E"/>
<path d="M194.675 126.183C194.205 126.183 193.782 125.855 193.683 125.379C192.098 117.894 194.915 112.359 195.033 112.13C195.291 111.637 195.902 111.437 196.395 111.701C196.894 111.959 197.088 112.57 196.829 113.063C196.8 113.116 194.234 118.217 195.661 124.962C195.778 125.508 195.426 126.048 194.88 126.16C194.81 126.172 194.745 126.183 194.675 126.183Z" fill="#49263E"/>
<path d="M200.768 125.762C200.216 125.762 199.77 125.322 199.752 124.776C199.647 120.52 199.993 118.524 200.011 118.436C200.105 117.884 200.651 117.544 201.185 117.62C201.737 117.72 202.101 118.248 202.001 118.794C202.001 118.812 201.672 120.708 201.778 124.723C201.789 125.281 201.349 125.751 200.792 125.762C200.786 125.762 200.78 125.762 200.768 125.762Z" fill="#49263E"/>
<path d="M239.343 145.499C238.897 145.499 238.492 145.211 238.369 144.765C238.322 144.595 237.94 143.069 238.997 141.672C239.966 140.398 241.762 139.752 244.345 139.752C244.903 139.752 245.361 140.204 245.361 140.768C245.361 141.325 244.909 141.783 244.345 141.783C242.472 141.783 241.187 142.165 240.623 142.887C240.154 143.491 240.318 144.208 240.33 144.243C240.465 144.777 240.136 145.335 239.608 145.47C239.52 145.487 239.426 145.499 239.343 145.499Z" fill="#49263E"/>
<path d="M222.63 155.445C222.495 155.445 222.365 155.421 222.242 155.362C221.726 155.145 221.479 154.558 221.696 154.042C222.465 152.198 225.025 149.04 229.204 150.149C229.739 150.296 230.062 150.854 229.915 151.394C229.774 151.934 229.234 152.251 228.67 152.11C225.166 151.171 223.628 154.681 223.563 154.828C223.399 155.216 223.023 155.445 222.63 155.445Z" fill="#49263E"/>
<path d="M231.441 158.758C232.122 158.406 232.392 157.554 232.04 156.873L231.013 154.883C230.661 154.202 229.809 153.932 229.128 154.285C228.448 154.637 228.177 155.488 228.53 156.169L229.557 158.159C229.909 158.84 230.76 159.11 231.441 158.758Z" fill="#49263E"/>
<path d="M247.016 150.977C247.697 150.624 247.967 149.773 247.614 149.092L246.587 147.108C246.235 146.427 245.384 146.157 244.703 146.509C244.022 146.861 243.752 147.713 244.104 148.394L245.131 150.378C245.483 151.059 246.335 151.329 247.016 150.977Z" fill="#49263E"/>
<path d="M238.175 168.52C237.253 168.52 236.514 168.268 235.962 167.963C234.125 166.953 233.309 164.787 233.326 163.208C233.367 159.509 231.553 153.474 228.512 152.054C228.002 151.819 227.784 151.214 228.019 150.709C228.254 150.21 228.859 149.981 229.364 150.222C233.338 152.077 235.398 158.963 235.351 163.231C235.34 164.264 235.886 165.614 236.936 166.196C238.298 166.953 240.089 166.154 241.333 165.344C241.803 165.045 242.425 165.18 242.736 165.65C243.042 166.119 242.901 166.747 242.431 167.047C240.723 168.145 239.308 168.52 238.175 168.52Z" fill="#49263E"/>
<path d="M245.977 168.971C245.765 168.971 245.56 168.953 245.36 168.912C244.99 168.842 244.673 168.607 244.497 168.278C244.321 167.949 244.304 167.556 244.445 167.21L247.626 159.625C247.802 159.203 248.196 158.915 248.648 158.868C249.106 158.821 249.546 159.026 249.804 159.402C251.466 161.827 251.653 164.38 250.321 166.406C249.311 167.949 247.532 168.971 245.977 168.971Z" fill="white"/>
<path fill-rule="evenodd" clip-rule="evenodd" d="M247.051 185.526C247.051 185.526 256.244 184.223 261.175 175.963C261.41 175.576 262.009 175.787 261.933 176.233L257.718 199.856L244.351 195.488L247.051 185.526Z" fill="#49263E"/>
<path d="M324.476 340.733C314.068 340.733 301.558 336.013 290.522 327.706C279.368 319.317 260.119 299.804 256.479 263.396C253.937 237.924 256.579 218.146 264.328 204.609C270.544 193.755 277.906 190.955 278.728 190.673L282.121 200.488C282.021 200.529 277.172 202.537 272.775 210.797C268.507 218.816 265.701 234.361 268.502 262.45C271.742 294.92 286.964 312.044 296.762 319.411C308.849 328.504 321.171 331.305 328.022 330.048L329.894 340.263C328.174 340.58 326.36 340.733 324.476 340.733Z" fill="#49263E"/>
<path d="M245.549 320.1C245.337 320.1 245.126 320.036 244.944 319.901L235.604 312.956C235.152 312.622 235.064 311.988 235.399 311.536C235.728 311.084 236.362 311.001 236.814 311.324L246.153 318.269C246.605 318.604 246.693 319.238 246.359 319.69C246.159 319.96 245.854 320.1 245.549 320.1Z" fill="#49263E"/>
<path d="M267.362 258.05C267.01 260.651 265.002 272.368 264.662 274.335C257.934 261.003 251.254 245.253 251.254 245.253L231.641 250.589C233.977 269.005 239.407 290.702 245.495 308.231C248.025 315.516 250.931 323.13 255.962 329.1C261.732 335.945 271.753 338.088 280.336 336.972C283.594 336.55 286.916 335.558 289.312 333.303C291.49 331.249 292.675 328.372 293.726 325.572C299.027 311.483 302.332 296.995 304.78 282.19C305.279 279.166 310.545 256.348 310.545 256.348C292.035 259.958 275.551 258.42 267.362 258.05Z" fill="#C77965"/>
<path d="M278.64 303.403C278.258 303.403 277.894 303.185 277.724 302.815L257.459 259.169C257.219 258.664 257.442 258.059 257.952 257.825C258.451 257.584 259.062 257.813 259.297 258.318L279.561 301.964C279.802 302.469 279.579 303.074 279.068 303.309C278.927 303.373 278.781 303.403 278.64 303.403Z" fill="#49263E"/>
<path d="M286.312 196.934C253.356 196.863 258.316 257.276 258.316 257.276C258.481 257.211 259.385 257.229 260.864 257.299C269.047 257.669 295.053 259.436 313.557 255.826C317.296 255.098 320.731 254.147 323.648 252.92C323.648 252.92 319.269 197.004 286.312 196.934Z" fill="#FFBBC8"/>
<path d="M283.154 259.567C269.752 259.567 259.068 258.376 258.205 258.276C257.647 258.211 257.254 257.712 257.312 257.155C257.371 256.597 257.87 256.204 258.434 256.262C258.85 256.315 300.278 260.918 323.284 251.965C323.801 251.771 324.394 252.018 324.593 252.541C324.793 253.063 324.54 253.65 324.018 253.85C312.342 258.405 296.415 259.567 283.154 259.567Z" fill="#49263E"/>
<path d="M269.576 219.08C268.472 216.943 266.006 212.951 262.015 210.415C256.355 206.829 253.138 208.83 253.138 208.83L238.603 222.943C233.549 227.851 230.737 234.619 230.819 241.664C230.984 254.819 235.41 272.155 235.41 272.155L257.124 258.758L254.107 239.82C254.107 239.82 271.619 228.631 272.605 227.498C273.057 226.982 273.421 225.009 273.685 223.013C273.996 220.677 271.971 218.704 269.646 219.074L269.576 219.08Z" fill="#C77965"/>
<path d="M263.16 218.047C264.668 218.728 267.128 219.297 269.353 219.232C270.404 215.787 271.601 213.01 272.775 210.797C277.172 202.531 282.027 200.529 282.233 200.447C282.127 200.482 278.728 190.673 278.728 190.673C277.906 190.955 270.544 193.755 264.328 204.609C262.584 207.656 261.099 211.026 259.872 214.695C260.359 216.121 261.445 217.272 263.16 218.047Z" fill="#49263E"/>
<path d="M263.159 219.06C262.947 219.06 262.736 218.995 262.56 218.86L255.016 213.272C254.564 212.937 254.471 212.303 254.799 211.857C255.146 211.405 255.774 211.311 256.214 211.646L263.758 217.234C264.21 217.569 264.303 218.203 263.975 218.649C263.775 218.919 263.47 219.06 263.159 219.06Z" fill="#49263E"/>
<path d="M247.767 244.975C247.439 244.975 247.11 244.811 246.922 244.517C246.617 244.047 246.746 243.419 247.216 243.114L257.518 236.375C257.976 236.064 258.616 236.199 258.921 236.668C259.226 237.138 259.097 237.766 258.628 238.071L248.325 244.811C248.155 244.922 247.961 244.975 247.767 244.975Z" fill="#49263E"/>
<path d="M319.363 154.896C317.93 153.422 316.304 152.107 315.095 150.399C313.034 147.499 311.485 143.947 311.573 140.325C311.708 134.977 311.467 129.371 309.929 128.784C307.463 127.833 297.114 137.355 293.451 140.83C292.588 140.795 291.725 140.807 290.856 140.848C289.987 140.807 289.118 140.801 288.261 140.83C284.592 137.355 274.243 127.833 271.783 128.784C270.245 129.377 270.01 134.983 270.139 140.325C270.227 143.947 268.683 147.493 266.617 150.399C265.408 152.101 263.782 153.422 262.349 154.896C260.077 157.232 258.704 160.132 259.074 163.467C259.097 163.678 259.126 163.883 259.162 164.089C260.277 170.535 266.494 176.07 272.165 178.671C277.918 181.307 284.381 182.187 290.668 182.234C297.325 182.187 303.789 181.313 309.542 178.671C315.212 176.07 321.429 170.54 322.545 164.089C322.58 163.883 322.609 163.672 322.633 163.467C323.008 160.132 321.629 157.232 319.363 154.896Z" fill="#C6AFC9"/>
<path d="M292.37 179.028L275.599 174.478C275.599 174.478 266.67 189.289 270.65 205.626C274.266 220.449 280.565 221.33 284.164 221.529C286.858 221.682 288.032 218.976 288.561 215.242C289.359 220.385 291.044 222.698 295.229 223.044C301.845 223.59 307.516 207.352 309.16 203.507C310.804 199.662 317.196 186.266 315.565 174.807C314.267 165.778 298.84 174.801 292.37 179.028Z" fill="#C6AFC9"/>
<path d="M304.458 145.505C304.329 145.505 304.2 145.482 304.07 145.429L297.484 142.723C297.214 142.611 297.008 142.388 296.908 142.112C296.815 141.836 296.844 141.531 296.991 141.279C298.687 138.332 306.143 133.712 306.994 133.195C307.464 132.908 308.098 133.048 308.385 133.53C308.679 134.011 308.526 134.633 308.051 134.921C306.172 136.072 301.493 139.165 299.474 141.349L304.839 143.551C305.356 143.762 305.603 144.355 305.391 144.871C305.233 145.271 304.857 145.505 304.458 145.505Z" fill="#49263E"/>
<path d="M280.219 174.257C280.219 174.257 278.24 182.599 289.682 195.062C289.682 195.062 306.729 186.209 305.174 175.014L280.219 174.257Z" fill="white"/>
<path d="M312.054 167.725C311.996 167.573 311.925 167.426 311.855 167.279C311.144 165.776 310.005 164.432 308.203 163.499C301.487 160.041 294.425 162.26 293.821 160.111C293.345 158.421 292.582 155.462 292.013 153.601C291.291 151.253 288.766 150.296 287.305 153.243C286.254 155.368 285.532 157.886 284.909 160.111C284.305 162.254 277.243 160.035 270.527 163.499C268.725 164.426 267.58 165.776 266.875 167.279C266.805 167.426 266.74 167.578 266.682 167.725C265.531 170.561 266.054 173.754 267.774 176.114C269.212 177.136 270.703 178.004 272.165 178.674C277.918 181.309 284.381 182.19 290.668 182.237C295.834 182.202 300.73 181.679 305.338 180.264C306.706 179.578 307.945 178.814 309.06 178.01C312.219 175.744 313.557 171.429 312.054 167.725Z" fill="white"/>
<path d="M292.013 159.666C292.013 160.353 290.856 160.905 289.436 160.905C288.009 160.905 286.858 160.347 286.858 159.666C286.858 158.98 288.015 158.428 289.436 158.428C290.856 158.428 292.013 158.98 292.013 159.666Z" fill="#49263E"/>
<path d="M292.299 166.873C291.918 166.873 291.554 166.656 291.378 166.286L289.417 162.042L287.351 166.31C287.11 166.809 286.505 167.026 286 166.779C285.496 166.533 285.284 165.928 285.531 165.423L288.531 159.23C288.701 158.884 289.053 158.661 289.446 158.661C289.816 158.649 290.204 158.89 290.368 159.248L293.227 165.441C293.462 165.946 293.239 166.55 292.734 166.785C292.587 166.838 292.44 166.873 292.299 166.873Z" fill="#49263E"/>
<path d="M291.232 183.377C284.868 183.377 280.066 182.256 279.661 182.162C279.121 182.027 278.786 181.481 278.915 180.941C279.05 180.395 279.579 180.06 280.142 180.19C280.33 180.237 299.573 184.716 312.066 175.417C312.518 175.094 313.146 175.176 313.48 175.628C313.815 176.08 313.721 176.714 313.275 177.049C306.448 182.115 297.971 183.377 291.232 183.377Z" fill="#49263E"/>
<path d="M283.471 142.667C283.142 142.667 282.831 142.509 282.631 142.221C280.993 139.797 274.735 134.613 273.796 134.038C273.42 133.891 273.15 133.521 273.15 133.093C273.15 132.535 273.602 132.077 274.166 132.077C275.328 132.077 282.878 138.957 284.31 141.088C284.621 141.552 284.504 142.18 284.04 142.491C283.87 142.609 283.67 142.667 283.471 142.667Z" fill="#49263E"/>
<path d="M277.747 143.733C277.571 143.733 277.389 143.686 277.225 143.586L274.454 141.919C273.978 141.631 273.82 141.009 274.108 140.528C274.389 140.046 275.018 139.894 275.499 140.181L278.27 141.848C278.745 142.136 278.904 142.758 278.616 143.24C278.428 143.557 278.094 143.733 277.747 143.733Z" fill="#49263E"/>
<path d="M288.884 218.645C288.326 218.645 287.868 218.193 287.868 217.63C287.868 206.188 288.819 195.504 288.831 195.393C288.878 194.841 289.301 194.442 289.929 194.477C290.486 194.53 290.897 195.023 290.844 195.58C290.833 195.686 289.893 206.282 289.893 217.63C289.899 218.193 289.447 218.645 288.884 218.645Z" fill="#49263E"/>
<path d="M222.629 138.059C222.242 138.059 221.878 137.836 221.708 137.46C221.608 137.237 219.254 131.995 218.667 126.077C218.614 125.52 219.019 125.021 219.577 124.968C220.217 124.927 220.633 125.32 220.686 125.878C221.244 131.455 223.527 136.574 223.551 136.626C223.786 137.137 223.557 137.736 223.046 137.965C222.905 138.024 222.77 138.059 222.629 138.059Z" fill="#CC7A64"/>
<path d="M165.141 221.031C166.174 221.266 164.518 221.642 166.62 221.143C168.722 220.638 173.019 215.096 171.34 211.768C171.34 211.768 174.61 207.752 173.124 203.267C173.124 203.267 170.324 192.501 169.121 191.18C169.121 191.18 169.954 187.858 169.256 186.067C168.557 184.277 161.442 177.273 158.39 176.739C155.337 176.205 148.187 184.658 146.027 187.411C143.866 190.165 137.808 197.338 139.064 201.142C140.326 204.946 142.604 224.466 142.604 224.466L152.273 249.215L176.429 244.906L165.141 221.031Z" fill="#C77965"/>
<path d="M140.404 168.842C135.614 177.192 137.869 196.922 139.616 204.063L150.153 187.917C147.38 162.001 142.454 165.656 140.404 168.842Z" fill="#C77965"/>
<path d="M147.635 192.576C147.077 192.576 146.619 192.124 146.619 191.561C146.619 191.003 147.071 190.545 147.635 190.545L169.115 190.527C169.672 190.527 170.13 190.979 170.13 191.543C170.13 192.101 169.678 192.559 169.115 192.559L147.635 192.576Z" fill="#49263E"/>
<path d="M161.625 192.564C161.284 192.564 160.95 192.393 160.756 192.076L157.469 186.681C157.181 186.206 157.334 185.578 157.809 185.29C158.29 184.997 158.913 185.149 159.206 185.625L162.494 191.02C162.781 191.495 162.629 192.123 162.153 192.411C161.989 192.517 161.807 192.564 161.625 192.564Z" fill="#49263E"/>
<path d="M151.135 203.13C150.624 203.13 150.184 202.743 150.125 202.221C150.072 201.663 150.471 201.164 151.029 201.111C152.954 200.911 171.511 199.866 172.303 199.82C172.902 199.749 173.342 200.219 173.372 200.776C173.401 201.334 172.972 201.815 172.415 201.845C172.221 201.857 153.113 202.937 151.24 203.13C151.205 203.13 151.17 203.13 151.135 203.13Z" fill="#49263E"/>
<path d="M154.268 214.79C153.816 214.79 153.4 214.497 153.271 214.056C153.13 213.54 153.388 213 153.905 212.83C154.627 212.589 165.082 211.661 171.252 211.133C171.798 211.098 172.302 211.503 172.349 212.055C172.402 212.612 171.985 213.105 171.428 213.152C165.317 213.681 155.313 214.585 154.497 214.767C154.421 214.784 154.345 214.79 154.268 214.79Z" fill="#49263E"/>
<path d="M165.939 238.813C165.81 238.813 165.675 238.79 165.552 238.737C165.035 238.519 164.789 237.927 165.006 237.41C168.205 229.737 165.652 224.049 164.76 222.44C162.065 222.57 156.594 222.851 155.825 222.945C155.267 223.045 154.768 222.622 154.698 222.065C154.627 221.507 155.02 221.002 155.578 220.932C156.635 220.797 164.384 220.427 165.264 220.386C165.646 220.386 165.957 220.544 166.145 220.82C166.35 221.114 171.082 228.105 166.879 238.191C166.714 238.578 166.339 238.813 165.939 238.813Z" fill="#49263E"/>
<path d="M280.928 159.272C281.697 159.272 282.326 158.644 282.326 157.875V155.638C282.326 154.869 281.697 154.241 280.928 154.241C280.159 154.241 279.531 154.869 279.531 155.638V157.875C279.531 158.638 280.159 159.272 280.928 159.272Z" fill="#49263E"/>
<path d="M297.936 159.272C298.705 159.272 299.333 158.644 299.333 157.875V155.638C299.333 154.869 298.705 154.241 297.936 154.241C297.167 154.241 296.539 154.869 296.539 155.638V157.875C296.539 158.638 297.167 159.272 297.936 159.272Z" fill="#49263E"/>
<path d="M454.558 353.647H85.6025C85.0448 353.647 84.5869 353.195 84.5869 352.632C84.5869 352.074 85.0389 351.616 85.6025 351.616H454.558C455.116 351.616 455.574 352.068 455.574 352.632C455.574 353.195 455.122 353.647 454.558 353.647Z" fill="#49263E"/>
</g>
<defs>
<radialGradient id="paint0_radial_1494_13624" cx="0" cy="0" r="1" gradientUnits="userSpaceOnUse" gradientTransform="translate(196.197 210.117) rotate(-140.928) scale(432.99 203.493)">
<stop stop-color="#59CAFF"/>
<stop offset="1" stop-color="white" stop-opacity="0"/>
</radialGradient>
<clipPath id="clip0_1494_13624">
<rect width="375" height="400" fill="white"/>
</clipPath>
</defs>
</svg>
