<svg width="37" height="37" viewBox="0 0 37 37" fill="none" xmlns="http://www.w3.org/2000/svg">
<rect width="36.49" height="36.49" rx="18.245" fill="white"/>
<path d="M12.7764 20.3863C13.3742 20.3863 13.8634 19.8972 13.8634 19.2994C13.8634 18.7015 13.3742 18.2124 12.7764 18.2124C12.1786 18.2124 11.6895 18.7015 11.6895 19.2994C11.6895 19.8972 12.1786 20.3863 12.7764 20.3863Z" stroke="#333333" stroke-width="2.17391"/>
<path d="M19.2981 20.3863C19.896 20.3863 20.3851 19.8972 20.3851 19.2994C20.3851 18.7015 19.896 18.2124 19.2981 18.2124C18.7003 18.2124 18.2112 18.7015 18.2112 19.2994C18.2112 19.8972 18.7003 20.3863 19.2981 20.3863Z" stroke="#333333" stroke-width="2.17391"/>
<path d="M25.8199 20.3863C26.4177 20.3863 26.9068 19.8972 26.9068 19.2994C26.9068 18.7015 26.4177 18.2124 25.8199 18.2124C25.2221 18.2124 24.7329 18.7015 24.7329 19.2994C24.7329 19.8972 25.2221 20.3863 25.8199 20.3863Z" stroke="#333333" stroke-width="2.17391"/>
</svg>
