<svg width="420" height="300" viewBox="0 0 420 300" fill="none" xmlns="http://www.w3.org/2000/svg">
<path d="M214 88.2332H214.017M209.833 109.9H199C197.674 109.9 196.402 109.373 195.464 108.435C194.527 107.498 194 106.226 194 104.9V84.8999C194 83.5738 194.527 82.3021 195.464 81.3644C196.402 80.4267 197.674 79.8999 199 79.8999H219C220.326 79.8999 221.598 80.4267 222.536 81.3644C223.473 82.3021 224 83.5738 224 84.8999V95.7332" stroke="#B3B3B3" stroke-width="2" stroke-linecap="round" stroke-linejoin="round"/>
<path d="M194 101.567L202.333 93.2332C203.88 91.7449 205.787 91.7449 207.333 93.2332L214 99.8999" stroke="#B3B3B3" stroke-width="2" stroke-linecap="round" stroke-linejoin="round"/>
<path d="M212.333 98.2332L214 96.5665C215.116 95.4932 216.416 95.1932 217.636 95.6665M215.666 106.567H225.666M220.666 101.567V111.567" stroke="#B3B3B3" stroke-width="2" stroke-linecap="round" stroke-linejoin="round"/>
<path d="M151.984 138.284H161.312V139.356H151.984V138.284ZM155.632 131.42H160.064L159.776 132.3H155.088L155.632 131.42ZM158.08 136.028H159.232V143.212C159.232 143.884 159.088 144.236 158.592 144.428C158.128 144.62 157.328 144.636 156.048 144.636C156 144.3 155.84 143.82 155.68 143.484C156.624 143.516 157.488 143.5 157.76 143.484C158.016 143.484 158.08 143.42 158.08 143.212V136.028ZM156.352 130.044L157.52 130.396C156.368 131.916 154.448 133.324 152.48 134.22C152.304 134.012 151.952 133.66 151.728 133.468C153.648 132.7 155.424 131.356 156.352 130.044ZM153.152 140.284L154.08 139.756C154.88 140.524 155.808 141.596 156.208 142.316L155.232 142.94C154.848 142.204 153.952 141.084 153.152 140.284ZM154.56 132.636L155.328 132.108C156.288 132.844 157.376 133.932 157.872 134.716L157.056 135.308C156.592 134.54 155.536 133.42 154.56 132.636ZM147.824 134.684H150.896V135.74H147.824V134.684ZM146.64 138.108H150.848V139.164H146.64V138.108ZM150.336 130.076H151.456V144.78H150.336V130.076ZM147.328 130.7H148.4V135.74H147.328V130.7ZM147.52 138.508H148.576V139.548C148.576 140.94 148.416 143.212 147.424 144.812C147.216 144.62 146.784 144.348 146.496 144.236C147.376 142.764 147.52 140.764 147.52 139.516V138.508ZM159.632 131.42H159.856L160.064 131.372L160.8 131.74C159.376 135.228 156.016 137.228 152.624 138.172C152.512 137.9 152.24 137.5 152.032 137.26C155.184 136.524 158.432 134.588 159.632 131.628V131.42ZM152.064 134.844C152.96 134.764 154.16 134.604 155.456 134.428L155.52 135.276C154.352 135.452 153.232 135.612 152.256 135.74L152.064 134.844ZM170.16 134.828H176.208V135.932H170.16V134.828ZM170.176 138.7H176.224V139.804H170.176V138.7ZM170.16 142.588H176.224V143.692H170.16V142.588ZM169.568 131.004H176.8V144.636H175.6V132.156H170.72V144.684H169.568V131.004ZM162.816 133.5H168.864V134.652H162.816V133.5ZM165.424 130.06H166.576V144.764H165.424V130.06ZM165.36 134.204L166.16 134.476C165.584 137.068 164.352 140.188 163.088 141.804C162.96 141.468 162.656 140.988 162.448 140.716C163.648 139.276 164.864 136.524 165.36 134.204ZM166.464 135.964C166.928 136.412 168.576 138.332 168.96 138.78L168.208 139.772C167.76 138.988 166.416 137.196 165.856 136.54L166.464 135.964ZM181.648 134.028H189.744V135.244H181.648V134.028ZM188.512 130.076H189.744V134.764H188.512V130.076ZM181.28 130.236H182.48V135.676C182.48 138.924 182.208 142.252 179.904 144.844C179.712 144.556 179.28 144.14 179.008 143.932C181.056 141.596 181.28 138.572 181.28 135.676V130.236ZM181.6 137.82H190.32V144.78H189.072V139.02H181.6V137.82ZM194.432 138.572C195.68 138.22 197.552 137.644 199.376 137.068L199.536 138.172C197.872 138.732 196.112 139.292 194.752 139.74L194.432 138.572ZM194.656 133.292H199.52V134.412H194.656V133.292ZM196.704 130.076H197.84V143.292C197.84 143.948 197.68 144.284 197.296 144.46C196.912 144.652 196.288 144.7 195.264 144.7C195.232 144.396 195.072 143.9 194.928 143.564C195.616 143.58 196.24 143.58 196.432 143.58C196.624 143.58 196.704 143.516 196.704 143.276V130.076ZM201.712 132.3H209.28V133.388H201.712V132.3ZM204.528 133.9H205.616V142.092H204.528V133.9ZM202.16 130.06L203.328 130.316C202.72 132.54 201.68 134.636 200.48 136.028C200.288 135.82 199.776 135.452 199.488 135.292C200.672 134.028 201.632 132.076 202.16 130.06ZM199.824 138.54L207.696 135.484L208.064 136.492L200.176 139.548L199.824 138.54ZM201.504 135.196H202.608V142.86C202.608 143.516 202.768 143.66 203.776 143.66C204.256 143.66 206.768 143.66 207.376 143.66C208.176 143.66 208.304 143.372 208.4 141.868C208.656 142.044 209.104 142.204 209.424 142.284C209.264 144.156 208.912 144.7 207.44 144.7C207.024 144.7 204.112 144.7 203.728 144.7C202 144.7 201.504 144.332 201.504 142.844V135.196ZM207.52 135.724H207.344L207.808 135.324L208.656 135.58L208.608 135.788C208.576 137.532 208.448 139.852 208.224 141.276L207.312 141.036C207.456 139.708 207.52 137.42 207.52 135.724ZM217.072 130.108H218.288C218.208 137.884 219.6 143.628 223.312 143.628C224.016 143.628 224.24 143.116 224.368 141.276C224.64 141.516 225.072 141.74 225.392 141.852C225.152 144.156 224.672 144.78 223.28 144.78C218.464 144.78 217.088 138.236 217.072 130.108ZM222.304 138.988L223.472 139.516C221.008 142.524 216.384 143.996 211.744 144.812C211.6 144.524 211.264 143.98 211.04 143.708C215.696 143.052 220.16 141.66 222.304 138.988ZM212.928 134.764H223.264V135.804H212.928V134.764ZM212.208 131.788H213.376V139.772H212.208V131.788ZM212.928 131.788H223.872V138.828H212.928V137.756H222.672V132.86H212.928V131.788ZM227.536 138.428H235.04V139.484H227.536V138.428ZM230.688 136.7H231.824V142.892H230.688V136.7ZM226.992 142.844C229.008 142.524 232.192 141.948 235.2 141.372L235.264 142.428C232.416 142.988 229.36 143.58 227.264 143.98L226.992 142.844ZM227.12 131.116H235.36V132.188H227.12V131.116ZM232.064 133.228L232.928 132.7C233.824 133.788 234.896 135.244 235.36 136.156L234.448 136.764C233.984 135.836 232.944 134.332 232.064 133.228ZM236.256 131.452H237.376V141.148H236.256V131.452ZM239.424 130.332H240.592V142.908C240.592 143.66 240.4 144.028 239.936 144.22C239.424 144.412 238.576 144.444 237.408 144.444C237.36 144.124 237.152 143.58 236.976 143.244C237.904 143.276 238.784 143.276 239.072 143.276C239.344 143.26 239.424 143.18 239.424 142.908V130.332ZM227.888 136.476C227.824 136.22 227.648 135.66 227.504 135.356C227.744 135.308 227.984 135.02 228.272 134.636C228.56 134.252 229.472 132.796 230 131.388L231.168 131.852C230.48 133.308 229.52 134.812 228.64 135.836V135.852C228.64 135.852 227.888 136.22 227.888 136.476ZM227.888 136.476L227.872 135.612L228.512 135.228L233.888 134.78C234.016 135.084 234.256 135.468 234.4 135.708C228.928 136.236 228.288 136.3 227.888 136.476ZM247.008 131.964H257.152V132.908H247.008V131.964ZM248.272 136.156H255.776V137.068H248.272V136.156ZM248.272 134.044H255.776V134.956H248.272V134.044ZM249.232 139.18V141.18H254.672V139.18H249.232ZM248.096 138.268H255.856V142.108H248.096V138.268ZM250.608 130.332L251.712 129.884C252.16 130.38 252.72 131.116 252.976 131.596L251.824 132.092C251.584 131.628 251.056 130.876 250.608 130.332ZM243.328 130.62L244.224 130.092C244.96 130.86 245.84 131.884 246.288 132.54L245.36 133.196C244.928 132.524 244.032 131.404 243.328 130.62ZM242.752 133.756H246.256V134.764H242.752V133.756ZM245.6 141.1C246.592 143.196 248.672 143.484 251.856 143.484C253.536 143.484 255.888 143.404 257.52 143.276C257.344 143.532 257.184 144.092 257.12 144.428C255.616 144.508 253.6 144.556 251.84 144.556C248.096 144.556 246 144.108 244.8 141.468L245.6 141.1ZM245.824 137.756H246.096L246.304 137.724L246.912 137.948C246.352 141.372 245.024 143.628 243.232 144.828C243.072 144.572 242.672 144.172 242.448 143.996C244.144 142.924 245.376 140.892 245.824 137.964V137.756ZM242.976 138.956V138.044L243.552 137.756H246.224L246.208 138.732H243.92C243.504 138.732 243.088 138.828 242.976 138.956ZM242.976 138.956C242.896 138.684 242.656 138.124 242.528 137.868C242.768 137.804 243.024 137.708 243.296 137.388C243.808 136.892 245.376 134.732 245.92 133.884V133.836L246.288 133.676L247.088 134.06C246.304 135.148 244.816 137.18 243.872 138.204C243.872 138.204 242.976 138.652 242.976 138.956ZM268.144 131.164H269.264V143.836H268.144V131.164ZM265.968 134.924V137.068H271.504V134.924H265.968ZM265.968 131.82V133.932H271.504V131.82H265.968ZM264.864 130.78H272.64V138.108H264.864V130.78ZM264.88 139.9H272.752V140.956H264.88V139.9ZM264.192 143.324H273.328V144.396H264.192V143.324ZM260.896 137.564L261.984 136.14V144.764H260.896V137.564ZM263.792 135.964L264.528 136.636C263.968 137.244 263.344 137.9 262.848 138.316L262.304 137.788C262.768 137.308 263.424 136.492 263.792 135.964ZM258.752 132.908H263.2V133.996H258.752V132.908ZM261.824 136.78C262.272 137.228 263.888 139.084 264.256 139.548L263.584 140.524C263.12 139.756 261.792 137.996 261.232 137.356L261.824 136.78ZM262.848 132.908H263.072L263.264 132.844L263.904 133.34C262.832 136.124 260.768 138.876 258.912 140.428C258.8 140.108 258.512 139.5 258.336 139.292C260.08 137.948 262 135.468 262.848 133.164V132.908ZM260.368 130.572L261.232 130.028C261.728 130.668 262.288 131.5 262.576 132.044L261.664 132.7C261.392 132.14 260.832 131.244 260.368 130.572Z" fill="#5C5F66"/>
<path d="M183.072 179.608H186.726V180.518H183.072V179.608ZM182.624 177.242H183.618V183.934L182.624 183.556V177.242ZM180.594 180.168C181.28 182.94 182.792 183.528 184.864 183.528C185.172 183.528 187.02 183.528 187.454 183.528C187.314 183.752 187.16 184.214 187.132 184.494H184.78C182.274 184.494 180.664 183.752 179.81 180.462L180.594 180.168ZM180.846 171.754L181.854 171.908C181.378 174.288 180.44 176.276 179.068 177.55C178.928 177.368 178.522 176.99 178.284 176.836C179.614 175.702 180.44 173.882 180.846 171.754ZM184.612 171.754L185.634 171.88C185.256 174.316 184.374 176.164 182.946 177.354C182.778 177.172 182.344 176.85 182.106 176.696C183.52 175.66 184.304 173.952 184.612 171.754ZM180.496 174.596L181 173.882C181.63 174.358 182.428 175.03 182.82 175.45L182.302 176.262C181.924 175.814 181.126 175.1 180.496 174.596ZM184.164 174.61L184.864 173.994C185.802 174.778 186.978 175.926 187.524 176.64L186.796 177.354C186.25 176.612 185.116 175.436 184.164 174.61ZM179.88 178.264L180.916 178.334C180.72 181.19 180.118 183.22 178.62 184.592C178.466 184.424 178.046 184.074 177.822 183.92C179.25 182.744 179.754 180.812 179.88 178.264ZM177.738 174.596L178.69 174.946C177.724 176.626 176.254 178.32 174.882 179.44C174.784 179.216 174.476 178.726 174.28 178.502C175.582 177.55 176.912 176.08 177.738 174.596ZM177.416 171.754L178.354 172.118C177.542 173.294 176.226 174.61 175.036 175.45C174.896 175.24 174.63 174.876 174.448 174.68C175.54 173.938 176.8 172.748 177.416 171.754ZM176.478 177.2L177.332 176.346L177.472 176.416V184.676H176.478V177.2ZM191.286 180.14H199.672V180.854H191.286V180.14ZM191.314 178.418H200.274V182.59H191.314V181.82H199.238V179.174H191.314V178.418ZM194.898 178.796H195.906V183.01C195.906 183.5 196.074 183.584 196.97 183.584C197.39 183.584 199.546 183.584 200.092 183.584C200.848 183.584 200.974 183.346 201.044 181.932C201.282 182.1 201.674 182.24 201.968 182.296C201.814 183.99 201.492 184.438 200.162 184.438C199.798 184.438 197.264 184.438 196.914 184.438C195.346 184.438 194.898 184.158 194.898 183.01V178.796ZM190.768 178.418H191.776V183.318H190.768V178.418ZM190.166 172.3H200.792V173.056H190.166V172.3ZM194.926 172.496H195.962V177.886H194.926V172.496ZM189.55 173.952H201.45V176.962H200.4V174.694H190.558V176.962H189.55V173.952ZM190.81 177.13C191.706 177.032 192.91 176.85 194.156 176.654L194.184 177.326C193.106 177.55 192.042 177.76 191.132 177.942L190.81 177.13ZM191.174 175.534L191.482 174.974C192.378 175.128 193.568 175.436 194.198 175.716L193.89 176.346C193.26 176.08 192.084 175.716 191.174 175.534ZM199.392 174.904L199.854 175.506C199.056 175.842 197.908 176.136 197.096 176.304L196.718 175.758C197.53 175.576 198.706 175.156 199.392 174.904ZM196.55 177.228L196.802 176.584C197.88 176.696 199.294 177.004 200.078 177.27L199.84 177.984C199.07 177.718 197.642 177.382 196.55 177.228ZM204.862 172.258H207.592V173.224H204.862V172.258ZM204.4 172.258H205.282V177.242C205.282 179.398 205.142 182.52 204.162 184.662C204.008 184.466 203.63 184.13 203.434 184.032C204.316 182.044 204.4 179.286 204.4 177.242V172.258ZM207.018 172.258H207.914V183.374C207.914 183.92 207.802 184.214 207.466 184.382C207.102 184.55 206.556 184.564 205.618 184.564C205.59 184.298 205.464 183.878 205.338 183.612C205.982 183.64 206.584 183.626 206.766 183.626C206.934 183.626 207.018 183.556 207.018 183.36V172.258ZM205.212 179.538C205.758 179.216 206.514 178.684 207.298 178.124L207.592 178.754C206.934 179.314 206.276 179.86 205.646 180.378L205.212 179.538ZM205.254 175.464L205.856 175.086C206.332 175.562 206.878 176.22 207.13 176.654L206.5 177.088C206.248 176.654 205.702 175.954 205.254 175.464ZM212.478 171.908L213.402 172.146C213.01 172.832 212.464 173.672 212.002 174.358C212.646 175.114 213.318 176.038 213.654 176.64L212.8 177.046C212.45 176.346 211.736 175.296 210.952 174.372C211.526 173.546 212.156 172.552 212.478 171.908ZM215.166 171.894L216.104 172.132C215.684 172.818 215.096 173.672 214.606 174.344C215.278 175.1 216.02 176.024 216.37 176.612L215.516 177.06C215.152 176.36 214.354 175.282 213.514 174.372C214.144 173.546 214.802 172.538 215.166 171.894ZM208.838 177.914H215.978V184.55H214.998V178.796H209.776V184.62H208.838V177.914ZM209.314 183.136H215.474V184.018H209.314V183.136ZM211.68 176.682L212.772 176.934C212.422 177.522 212.03 178.124 211.722 178.516L210.91 178.278C211.19 177.802 211.512 177.13 211.68 176.682ZM213.626 178.992L214.396 179.398C213.542 180.714 212.1 181.946 210.588 182.814C210.448 182.632 210.196 182.38 210.014 182.226C211.498 181.428 212.898 180.182 213.626 178.992ZM210.35 179.79L210.924 179.244C212.268 180.098 213.906 181.33 214.704 182.17L214.088 182.786C213.318 181.932 211.694 180.644 210.35 179.79ZM209.86 171.796L210.798 172.034C210.406 172.748 209.86 173.644 209.412 174.372C210.056 175.184 210.7 176.164 211.022 176.794L210.182 177.2C209.846 176.472 209.132 175.366 208.376 174.386C208.936 173.532 209.566 172.468 209.86 171.796ZM222.19 177.718H230.324V178.53H222.19V177.718ZM221.602 179.832H230.772V180.644H221.602V179.832ZM224.136 176.71H225.116V180.28H224.136V176.71ZM227.3 176.71H228.28V180.28H227.3V176.71ZM226.936 181.232L227.636 180.756C228.686 181.246 229.862 181.904 230.534 182.422L229.61 182.912C229.008 182.38 227.958 181.722 226.936 181.232ZM224.598 180.77L225.536 181.092C224.794 181.792 223.646 182.506 222.694 182.94C222.498 182.772 222.12 182.45 221.882 182.296C222.862 181.918 223.94 181.344 224.598 180.77ZM222.498 172.3H225.83V174.68H222.498V173.952H224.92V173.014H222.498V172.3ZM226.964 172.314H230.366V174.694H226.964V173.966H229.442V173.028H226.964V172.314ZM226.558 172.314H227.426V175.17C227.426 175.562 227.482 175.688 227.804 175.688C228.084 175.688 229.414 175.688 229.694 175.688C229.96 175.688 230.38 175.674 230.618 175.632C230.632 175.856 230.66 176.178 230.702 176.388C230.492 176.43 230.114 176.458 229.736 176.458C229.414 176.458 227.986 176.458 227.762 176.458C226.796 176.458 226.558 176.108 226.558 175.156V172.314ZM222.106 176.808L222.078 176.122L222.512 175.828L225.956 175.282C225.914 175.506 225.872 175.856 225.872 176.038C222.764 176.598 222.344 176.682 222.106 176.808ZM222.106 176.808C222.05 176.584 221.854 176.178 221.728 175.968C221.896 175.884 222.092 175.702 222.092 175.17V172.3H222.946V176.024C222.946 176.024 222.106 176.5 222.106 176.808ZM218.438 172.3L219.208 171.824C219.852 172.51 220.636 173.406 221.028 173.966L220.202 174.54C219.838 173.966 219.054 172.986 218.438 172.3ZM218.158 174.988H220.706V175.87H218.158V174.988ZM220.566 181.4C221.434 183.234 223.282 183.486 226.096 183.486C227.58 183.486 229.652 183.416 231.094 183.29C230.926 183.528 230.8 184.018 230.744 184.312C229.414 184.382 227.636 184.424 226.082 184.424C222.778 184.424 220.93 184.046 219.866 181.722L220.566 181.4ZM220.552 178.474H220.804L220.986 178.446L221.518 178.642C221.084 181.582 220.034 183.57 218.606 184.662C218.466 184.438 218.116 184.088 217.906 183.934C219.264 182.968 220.202 181.176 220.552 178.656V178.474ZM218.382 179.524V178.726L218.886 178.474H220.832V179.328H219.18C218.858 179.328 218.494 179.426 218.382 179.524ZM218.382 179.524C218.326 179.286 218.116 178.796 218.004 178.586C218.2 178.53 218.41 178.446 218.62 178.166C218.984 177.774 220.09 175.814 220.468 175.086V175.044L220.762 174.918L221.462 175.184C220.916 176.136 219.838 177.984 219.166 178.866C219.166 178.866 218.382 179.244 218.382 179.524ZM242.668 173.028V174.498H244.096V173.028H242.668ZM240.428 173.028V174.498H241.828V173.028H240.428ZM238.244 173.028V174.498H239.588V173.028H238.244ZM237.39 172.258H244.978V175.254H237.39V172.258ZM237.544 176.08H244.698V176.892H237.544V176.08ZM236.928 177.886H245.146V178.712H236.928V177.886ZM237.222 180.042H244.852V180.868H237.222V180.042ZM236.746 181.876H245.342V182.702H236.746V181.876ZM240.568 175.016H241.562V178.208H240.568V175.016ZM240.568 180.406H241.562V184.62H240.568V180.406ZM238.594 178.908L239.476 178.698C239.686 179.104 239.938 179.65 240.036 180L239.126 180.266C239.042 179.888 238.818 179.328 238.594 178.908ZM242.752 178.67L243.746 178.936C243.424 179.496 243.102 180.098 242.822 180.504L242.038 180.252C242.276 179.804 242.598 179.132 242.752 178.67ZM232.49 178.978C233.526 178.684 235.08 178.194 236.592 177.704L236.732 178.656C235.346 179.146 233.89 179.622 232.756 180L232.49 178.978ZM232.644 174.568H236.732V175.548H232.644V174.568ZM234.338 171.754H235.318V183.346C235.318 183.906 235.178 184.2 234.828 184.368C234.506 184.536 233.96 184.564 233.078 184.564C233.036 184.298 232.91 183.864 232.77 183.57C233.386 183.598 233.918 183.598 234.086 183.584C234.254 183.584 234.338 183.528 234.338 183.346V171.754Z" fill="#333333"/>
<rect x="146.5" y="158" width="127" height="39" rx="7.5" stroke="#888888"/>
<path d="M151.761 213.308H156.693V214.208H151.761V213.308ZM146.733 218.996H157.509V219.896H146.733V218.996ZM151.245 209.6H152.193V219.476H151.245V209.6ZM163.257 213.596V214.352H168.177V213.596H163.257ZM163.257 212.3V213.044H168.177V212.3H163.257ZM162.429 211.736H169.041V214.928H162.429V211.736ZM161.841 215.708C163.545 215.708 166.197 215.66 168.705 215.6L168.681 216.248C166.245 216.32 163.689 216.404 161.925 216.44L161.841 215.708ZM167.193 215.048L167.805 214.688C168.489 215.168 169.317 215.876 169.713 216.356L169.065 216.764C168.681 216.284 167.877 215.552 167.193 215.048ZM165.249 209.516H166.125V215.972L165.249 216.044V209.516ZM161.601 217.076H169.641V217.808H161.601V217.076ZM167.073 216.044H167.949V219.512C167.949 220.004 167.841 220.232 167.469 220.352C167.097 220.484 166.497 220.472 165.573 220.472C165.525 220.244 165.405 219.932 165.297 219.704C166.029 219.728 166.641 219.728 166.845 219.704C167.025 219.704 167.073 219.656 167.073 219.5V216.044ZM162.885 218.228L163.545 217.808C164.109 218.264 164.769 218.924 165.093 219.368L164.385 219.86C164.097 219.404 163.449 218.708 162.885 218.228ZM161.937 210.356H169.521V211.052H161.937V210.356ZM161.289 209.468L162.141 209.732C161.349 211.772 160.113 213.8 158.817 215.144C158.721 214.94 158.469 214.46 158.301 214.256C159.489 213.092 160.617 211.292 161.289 209.468ZM160.041 212.564L160.881 211.712L160.905 211.724V220.448H160.041V212.564ZM170.733 212.024H174.381V212.876H170.733V212.024ZM172.341 209.42H173.169V220.448H172.341V209.42ZM172.329 212.528L172.881 212.72C172.533 214.616 171.777 216.992 170.949 218.192C170.841 217.952 170.625 217.616 170.481 217.412C171.249 216.32 172.017 214.244 172.329 212.528ZM173.097 213.704C173.361 214.028 174.345 215.54 174.561 215.876L174.081 216.536C173.829 215.948 173.013 214.532 172.725 214.064L173.097 213.704ZM175.425 217.664H180.609V218.336H175.425V217.664ZM175.365 219.296H180.657V219.992H175.365V219.296ZM177.525 209.432H178.389V211.796H177.525V209.432ZM177.549 216.38H178.341V219.68H177.549V216.38ZM174.549 211.376H181.485V213.32H180.645V212.108H175.353V213.32H174.549V211.376ZM174.861 216.008H181.149V220.436H180.285V216.704H175.689V220.46H174.861V216.008ZM176.457 213.584V214.688H179.625V213.584H176.457ZM175.665 212.924H180.465V215.348H175.665V212.924ZM175.089 209.84L175.833 209.588C176.157 210.056 176.493 210.68 176.613 211.112L175.833 211.388C175.713 210.968 175.401 210.32 175.089 209.84ZM180.057 209.54L180.897 209.828C180.573 210.392 180.225 210.992 179.937 211.388L179.265 211.136C179.529 210.704 179.877 210.02 180.057 209.54ZM187.629 215.744H188.541V220.46H187.629V215.744ZM183.081 210.32H193.209V212.06H192.345V211.088H183.921V212.06H183.081V210.32ZM182.877 212.468H193.389V213.2H182.877V212.468ZM182.745 216.74H193.509V217.52H182.745V216.74ZM190.629 211.628L191.505 211.844C190.521 214.808 188.061 215.792 183.189 216.092C183.117 215.828 182.997 215.528 182.865 215.324C187.521 215.132 189.777 214.244 190.629 211.628ZM184.389 214.376L185.133 213.824C188.193 214.268 191.325 214.976 193.245 215.612L192.357 216.212C190.617 215.564 187.629 214.88 184.389 214.376ZM187.293 209.624L188.181 209.396C188.445 209.756 188.757 210.248 188.913 210.56L187.977 210.836C187.833 210.512 187.533 209.996 187.293 209.624ZM184.389 214.376C185.313 213.56 186.513 212.252 187.185 211.208L188.061 211.484C187.341 212.516 186.177 213.692 185.385 214.376H184.389ZM185.757 217.772L186.657 218.072C185.913 218.876 184.689 219.632 183.633 220.1C183.465 219.932 183.117 219.632 182.901 219.488C183.981 219.092 185.121 218.468 185.757 217.772ZM189.477 218.216L190.089 217.64C191.181 218.132 192.573 218.924 193.281 219.5L192.621 220.16C191.949 219.572 190.581 218.744 189.477 218.216ZM194.865 212.876H205.413V213.788H194.865V212.876ZM200.709 213.236C201.489 216.14 203.121 218.564 205.617 219.596C205.389 219.8 205.089 220.184 204.933 220.436C202.341 219.212 200.709 216.68 199.809 213.452L200.709 213.236ZM199.653 209.432H200.625C200.577 212.576 200.553 218.048 195.309 220.448C195.165 220.208 194.877 219.884 194.625 219.704C199.725 217.484 199.629 212.312 199.653 209.432ZM211.677 209.6H212.649V219.212C212.649 219.884 212.469 220.148 212.037 220.292C211.605 220.448 210.861 220.472 209.721 220.472C209.673 220.208 209.505 219.788 209.349 219.524C210.237 219.56 211.101 219.548 211.341 219.536C211.593 219.536 211.677 219.452 211.677 219.212V209.6ZM214.581 212.66L215.445 212.324C216.489 214.016 217.509 216.212 217.821 217.664L216.861 218.048C216.573 216.632 215.601 214.376 214.581 212.66ZM208.533 212.408L209.541 212.576C209.145 214.34 208.449 216.512 207.357 217.856C207.141 217.688 206.745 217.472 206.505 217.376C207.573 216.104 208.233 214.028 208.533 212.408ZM219.213 209.924H222.105V210.74H220.017V220.448H219.213V209.924ZM221.937 209.924H222.093L222.237 209.888L222.825 210.236C222.465 211.22 222.033 212.396 221.625 213.356C222.501 214.352 222.705 215.228 222.705 215.972C222.705 216.62 222.561 217.136 222.225 217.376C222.069 217.496 221.841 217.568 221.601 217.604C221.361 217.628 221.061 217.628 220.797 217.616C220.785 217.4 220.701 217.052 220.569 216.824C220.833 216.848 221.073 216.86 221.277 216.836C221.409 216.824 221.541 216.8 221.649 216.728C221.817 216.596 221.889 216.26 221.889 215.9C221.889 215.24 221.685 214.4 220.809 213.452C221.253 212.36 221.697 210.98 221.937 210.164V209.924ZM223.881 209.96H228.717V215.228H223.881V214.436H227.841V210.752H223.881V209.96ZM223.941 212.204H228.309V212.96H223.941V212.204ZM226.137 214.76C226.653 217.016 227.805 218.828 229.701 219.596C229.497 219.776 229.221 220.136 229.077 220.376C227.109 219.428 225.969 217.46 225.393 214.904L226.137 214.76ZM228.837 215.624L229.437 216.248C228.729 216.824 227.781 217.448 227.085 217.844L226.593 217.268C227.277 216.86 228.273 216.152 228.837 215.624ZM223.389 220.472L223.317 219.668L223.749 219.332L226.425 218.684C226.425 218.936 226.437 219.308 226.473 219.5C223.989 220.184 223.617 220.316 223.389 220.472ZM223.389 220.472C223.317 220.268 223.125 219.896 222.981 219.728C223.161 219.62 223.425 219.368 223.425 218.876V209.96H224.301V219.584C224.301 219.584 223.389 220.136 223.389 220.472ZM238.233 210.524H239.073V217.172H238.233V210.524ZM240.369 209.552H241.245V219.212C241.245 219.812 241.101 220.076 240.729 220.244C240.369 220.4 239.709 220.424 238.821 220.424C238.773 220.16 238.641 219.752 238.521 219.464C239.229 219.488 239.901 219.488 240.117 219.488C240.309 219.476 240.369 219.428 240.369 219.224V209.552ZM233.589 209.468H234.441V220.46H233.589V209.468ZM236.109 215.288H236.937V218.588C236.937 218.996 236.877 219.224 236.577 219.368C236.289 219.512 235.833 219.524 235.161 219.512C235.137 219.284 235.029 218.96 234.909 218.732C235.425 218.744 235.809 218.744 235.953 218.732C236.073 218.732 236.109 218.696 236.109 218.576V215.288ZM231.201 215.288H236.445V216.104H232.017V219.476H231.201V215.288ZM230.649 213.248H237.369V214.076H230.649V213.248ZM231.813 211.16H236.889V211.988H231.645L231.813 211.16ZM231.825 209.708L232.665 209.876C232.377 211.124 231.909 212.396 231.405 213.212C231.225 213.116 230.829 212.96 230.613 212.888C231.153 212.072 231.573 210.872 231.825 209.708ZM245.261 211.82V210.824H247.517V219.5H246.413V211.82H245.261ZM249.392 215.072C249.392 213.696 249.616 212.624 250.064 211.856C250.512 211.08 251.296 210.692 252.416 210.692C253.528 210.692 254.308 211.08 254.756 211.856C255.204 212.624 255.428 213.696 255.428 215.072C255.428 216.472 255.204 217.56 254.756 218.336C254.308 219.112 253.528 219.5 252.416 219.5C251.296 219.5 250.512 219.112 250.064 218.336C249.616 217.56 249.392 216.472 249.392 215.072ZM254.348 215.072C254.348 214.376 254.3 213.788 254.204 213.308C254.116 212.82 253.928 212.428 253.64 212.132C253.36 211.836 252.952 211.688 252.416 211.688C251.872 211.688 251.456 211.836 251.168 212.132C250.888 212.428 250.7 212.82 250.604 213.308C250.516 213.788 250.472 214.376 250.472 215.072C250.472 215.792 250.516 216.396 250.604 216.884C250.7 217.372 250.888 217.764 251.168 218.06C251.456 218.356 251.872 218.504 252.416 218.504C252.952 218.504 253.36 218.356 253.64 218.06C253.928 217.764 254.116 217.372 254.204 216.884C254.3 216.396 254.348 215.792 254.348 215.072ZM265.592 211.196V219.5H264.5V213.308L261.74 219.5H260.972L258.2 213.296V219.5H257.108V211.196H258.284L261.356 218.06L264.428 211.196H265.592ZM271.632 215.192C271.936 215.24 272.212 215.364 272.46 215.564C272.716 215.764 272.916 216.012 273.06 216.308C273.212 216.604 273.288 216.92 273.288 217.256C273.288 217.68 273.18 218.064 272.964 218.408C272.748 218.744 272.432 219.012 272.016 219.212C271.608 219.404 271.124 219.5 270.564 219.5H267.444V211.136H270.444C271.012 211.136 271.496 211.232 271.896 211.424C272.296 211.608 272.596 211.86 272.796 212.18C272.996 212.5 273.096 212.86 273.096 213.26C273.096 213.756 272.96 214.168 272.688 214.496C272.424 214.816 272.072 215.048 271.632 215.192ZM268.536 214.748H270.372C270.884 214.748 271.28 214.628 271.56 214.388C271.84 214.148 271.98 213.816 271.98 213.392C271.98 212.968 271.84 212.636 271.56 212.396C271.28 212.156 270.876 212.036 270.348 212.036H268.536V214.748ZM270.468 218.6C271.012 218.6 271.436 218.472 271.74 218.216C272.044 217.96 272.196 217.604 272.196 217.148C272.196 216.684 272.036 216.32 271.716 216.056C271.396 215.784 270.968 215.648 270.432 215.648H268.536V218.6H270.468Z" fill="#5C5F66"/>
</svg>
