<svg width="80" height="80" viewBox="0 0 80 80" fill="none" xmlns="http://www.w3.org/2000/svg">
<circle cx="40" cy="40.001" r="40" fill="#6E60F6"/>
<g filter="url(#filter0_d_611_7040)">
<path d="M57 36.5957C57 34.8995 55.62 33.5195 53.9238 33.5195H51.873C51.6054 33.5195 51.3456 33.5541 51.0979 33.6187L49.2694 26.6131C49.1751 26.252 48.8489 26 48.4757 26H30.5243C30.1511 26 29.8249 26.252 29.7306 26.6131L27.9021 33.6187C27.6544 33.5541 27.3946 33.5195 27.127 33.5195H25.0762C23.38 33.5195 22 34.8995 22 36.5957C22 37.9762 22.9142 39.1471 24.169 39.5352C24.1362 39.6914 24.1191 39.8508 24.1191 40.0137V52.5234C24.1191 52.9765 24.4864 53.3438 24.9395 53.3438H29.793C30.246 53.3438 30.6133 52.9765 30.6133 52.5234V51.293H48.3867V52.5234C48.3867 52.9765 48.754 53.3438 49.207 53.3438H54.0605C54.5136 53.3438 54.8809 52.9765 54.8809 52.5234V40.0137C54.8809 39.8508 54.8638 39.6914 54.831 39.5352C56.0858 39.1471 57 37.9762 57 36.5957ZM31.3359 28.0508H47.6641L49.354 34.8333C49.14 35.1383 48.9797 35.4836 48.8875 35.8556C46.2404 35.2282 42.9564 34.8867 39.5 34.8867C36.0436 34.8867 32.7596 35.2282 30.1125 35.8556C30.0203 35.4836 29.86 35.1383 29.646 34.8333L31.3359 28.0508ZM25.6152 37.6211H25.0762C24.5108 37.6211 24.0508 37.1611 24.0508 36.5957C24.0508 36.0303 24.5108 35.5703 25.0762 35.5703H27.127C27.6319 35.5703 28.0517 35.9375 28.1359 36.4187C27.0937 36.7747 26.2531 37.1761 25.6152 37.6211ZM30.2715 45.4824C29.1388 45.4824 28.2207 44.5643 28.2207 43.4316C28.2207 42.299 29.1388 41.3809 30.2715 41.3809C31.4041 41.3809 32.3223 42.299 32.3223 43.4316C32.3223 44.5643 31.4041 45.4824 30.2715 45.4824ZM44.2852 45.8242H34.7148V43.7734H44.2852V45.8242ZM48.7285 45.4824C47.5959 45.4824 46.6777 44.5643 46.6777 43.4316C46.6777 42.299 47.5959 41.3809 48.7285 41.3809C49.8612 41.3809 50.7793 42.299 50.7793 43.4316C50.7793 44.5643 49.8612 45.4824 48.7285 45.4824ZM53.9238 37.6211H53.3848C52.7469 37.1761 51.9063 36.7747 50.864 36.4187C50.9482 35.9375 51.3681 35.5703 51.873 35.5703H53.9238C54.4892 35.5703 54.9491 36.0303 54.9491 36.5957C54.9491 37.1611 54.4892 37.6211 53.9238 37.6211Z" fill="white"/>
</g>
<defs>
<filter id="filter0_d_611_7040" x="7" y="21" width="65" height="57.3438" filterUnits="userSpaceOnUse" color-interpolation-filters="sRGB">
<feFlood flood-opacity="0" result="BackgroundImageFix"/>
<feColorMatrix in="SourceAlpha" type="matrix" values="0 0 0 0 0 0 0 0 0 0 0 0 0 0 0 0 0 0 127 0" result="hardAlpha"/>
<feOffset dy="10"/>
<feGaussianBlur stdDeviation="7.5"/>
<feComposite in2="hardAlpha" operator="out"/>
<feColorMatrix type="matrix" values="0 0 0 0 0.0352941 0 0 0 0 0 0 0 0 0 0.243137 0 0 0 0.3 0"/>
<feBlend mode="normal" in2="BackgroundImageFix" result="effect1_dropShadow_611_7040"/>
<feBlend mode="normal" in="SourceGraphic" in2="effect1_dropShadow_611_7040" result="shape"/>
</filter>
</defs>
</svg>
