<svg width="80" height="80" viewBox="0 0 80 80" fill="none" xmlns="http://www.w3.org/2000/svg">
<circle cx="40" cy="40" r="40" fill="#6E60F6"/>
<g filter="url(#filter0_d_3356_9904)">
<path d="M40.7658 30.341C40.4709 30.1141 40.0602 30.1141 39.7653 30.341L28.5471 38.9731C28.3453 39.1284 28.2271 39.3686 28.2271 39.6232V50.8096C28.2271 51.2627 28.5943 51.6299 29.0474 51.6299H37.0801C37.5331 51.6299 37.9004 51.2627 37.9004 50.8096V42.5351H43.0393V50.8096C43.0393 51.2627 43.4066 51.6299 43.8596 51.6299H51.4838C51.9368 51.6299 52.3041 51.2627 52.3041 50.8096V39.6232C52.3041 39.3686 52.1859 39.1284 51.9841 38.9731L40.7658 30.341Z" fill="white"/>
<path d="M52.8083 32.0186V26.4934C52.8083 26.0404 52.4411 25.6731 51.988 25.6731H48.5587C48.1057 25.6731 47.7384 26.0404 47.7384 26.4934V28.1183L40.7658 22.7544C40.4709 22.5276 40.0603 22.5276 39.7654 22.7544L23.4158 35.3319C23.0567 35.6082 22.9896 36.1232 23.2658 36.4823L24.6811 38.322C24.9574 38.6811 25.4725 38.7483 25.8316 38.472L39.9321 27.622C40.1287 27.4707 40.4025 27.4707 40.5991 27.622L54.6997 38.472C55.0588 38.7483 55.5739 38.6812 55.8502 38.3221L57.2655 36.4824C57.5417 36.1233 57.4745 35.6083 57.1155 35.332L52.8083 32.0186Z" fill="white"/>
</g>
<defs>
<filter id="filter0_d_3356_9904" x="8.0957" y="17.5845" width="64.3398" height="59.0454" filterUnits="userSpaceOnUse" color-interpolation-filters="sRGB">
<feFlood flood-opacity="0" result="BackgroundImageFix"/>
<feColorMatrix in="SourceAlpha" type="matrix" values="0 0 0 0 0 0 0 0 0 0 0 0 0 0 0 0 0 0 127 0" result="hardAlpha"/>
<feOffset dy="10"/>
<feGaussianBlur stdDeviation="7.5"/>
<feComposite in2="hardAlpha" operator="out"/>
<feColorMatrix type="matrix" values="0 0 0 0 0.0352941 0 0 0 0 0 0 0 0 0 0.243137 0 0 0 0.3 0"/>
<feBlend mode="normal" in2="BackgroundImageFix" result="effect1_dropShadow_3356_9904"/>
<feBlend mode="normal" in="SourceGraphic" in2="effect1_dropShadow_3356_9904" result="shape"/>
</filter>
</defs>
</svg>
