<svg width="45" height="29" viewBox="0 0 45 29" fill="none" xmlns="http://www.w3.org/2000/svg">
<g clip-path="url(#clip0_611_7398)">
<mask id="mask0_611_7398" style="mask-type:luminance" maskUnits="userSpaceOnUse" x="0" y="0" width="45" height="29">
<path d="M45 0.5H0V28.5H45V0.5Z" fill="white"/>
</mask>
<g mask="url(#mask0_611_7398)">
<path d="M0 2.65385C0 1.46431 0.95939 0.5 2.14286 0.5H42.8571C44.0406 0.5 45 1.46431 45 2.65385V26.3462C45 27.5357 44.0406 28.5 42.8571 28.5H2.14286C0.959389 28.5 0 27.5357 0 26.3462V2.65385Z" fill="white"/>
<path d="M25.6903 8.52734H19.3164V20.0409H25.6903V8.52734Z" fill="#FF5F00"/>
<path d="M19.7195 14.2828C19.7187 13.1741 19.9686 12.0798 20.4507 11.0826C20.9327 10.0854 21.6341 9.21151 22.5018 8.52701C21.4272 7.67779 20.1366 7.14961 18.7775 7.00284C17.4184 6.85607 16.0456 7.09663 14.8161 7.69702C13.5866 8.29742 12.55 9.23342 11.8247 10.398C11.0995 11.5626 10.7148 12.9089 10.7148 14.2828C10.7148 15.6568 11.0995 17.0029 11.8247 18.1676C12.55 19.3322 13.5866 20.2682 14.8161 20.8685C16.0456 21.4689 17.4184 21.7095 18.7775 21.5627C20.1366 21.4159 21.4272 20.8878 22.5018 20.0386C21.6339 19.3543 20.9324 18.4805 20.4503 17.4832C19.9682 16.4859 19.7184 15.3915 19.7195 14.2828Z" fill="#EB001B"/>
<path d="M34.2847 14.2811C34.2844 15.6546 33.8997 17.0003 33.1745 18.1645C32.4494 19.3288 31.413 20.2644 30.184 20.8648C28.9548 21.4651 27.5825 21.7058 26.2238 21.5594C24.865 21.413 23.5746 20.8854 22.5 20.0368C23.367 19.3516 24.0678 18.4776 24.5497 17.4806C25.0317 16.4836 25.2821 15.3895 25.2821 14.2811C25.2821 13.1726 25.0317 12.0785 24.5497 11.0815C24.0678 10.0844 23.367 9.21037 22.5 8.52523C23.5746 7.67668 24.865 7.14907 26.2238 7.00266C27.5825 6.85624 28.9548 7.09694 30.184 7.69726C31.413 8.29757 32.4494 9.23329 33.1745 10.3975C33.8997 11.5617 34.2844 12.9074 34.2847 14.2811Z" fill="#F79E1B"/>
<path d="M33.591 18.8199V18.5839H33.6862V18.5352H33.4453V18.5839H33.5384V18.8199H33.591ZM34.0585 18.8199V18.5352H33.9836L33.9007 18.7385L33.8157 18.5352H33.7408V18.8199H33.7934V18.6063L33.8723 18.7893H33.9269L34.0059 18.6043V18.8199H34.0585Z" fill="#F79E1B"/>
</g>
</g>
<defs>
<clipPath id="clip0_611_7398">
<rect width="45" height="28" fill="white" transform="translate(0 0.5)"/>
</clipPath>
</defs>
</svg>
