<svg width="20" height="20" viewBox="0 0 20 20" fill="none" xmlns="http://www.w3.org/2000/svg">
<rect x="6.10352e-05" width="19.9999" height="19.9999" rx="9.99996" fill="#333333"/>
<path d="M12.2051 8.67889C12.2051 9.04489 12.1211 9.38089 11.9531 9.68689C11.7851 9.98689 11.5271 10.2299 11.1791 10.4159C10.8311 10.6019 10.3991 10.6949 9.88309 10.6949H8.92909V12.9629H7.39009V6.64489H9.88309C10.3871 6.64489 10.8131 6.73189 11.1611 6.90589C11.5091 7.07989 11.7701 7.31989 11.9441 7.62589C12.1181 7.93189 12.2051 8.28289 12.2051 8.67889ZM9.76609 9.47089C10.0601 9.47089 10.2791 9.40189 10.4231 9.26389C10.5671 9.12589 10.6391 8.93089 10.6391 8.67889C10.6391 8.42689 10.5671 8.23189 10.4231 8.09389C10.2791 7.95589 10.0601 7.88689 9.76609 7.88689H8.92909V9.47089H9.76609Z" fill="white"/>
<rect x="6.10352e-05" width="19.9999" height="19.9999" rx="9.99996" stroke="#333333"/>
</svg>
