<svg width="24" height="20" viewBox="0 0 24 20" fill="none" xmlns="http://www.w3.org/2000/svg">
<path d="M8.9707 14.8428C7.48633 14.8428 6.70508 13.9443 6.49023 12.4795L4.9668 2.1084H1.89062C1.41211 2.1084 0.992188 1.68848 0.992188 1.2002C0.992188 0.702148 1.41211 0.282227 1.89062 0.282227H5.25C6.33398 0.282227 6.66602 0.711914 6.7832 1.55176L6.93945 2.62598H22.6133C23.2773 2.62598 23.6777 3.00684 23.6777 3.57324C23.6777 3.6709 23.6582 3.83691 23.6387 3.97363L22.9062 8.88574C22.6816 10.3604 21.9004 11.2686 20.416 11.2686H8.19922L8.3457 12.2842C8.41406 12.7822 8.70703 13.124 9.18555 13.124H20.3379C20.7969 13.124 21.1973 13.4756 21.1973 13.9834C21.1973 14.4912 20.7969 14.8428 20.3379 14.8428H8.9707ZM21.6758 4.34473H7.19336L7.94531 9.5498L20.2207 9.54004C20.709 9.54004 20.9824 9.21777 21.0508 8.70996L21.6758 4.34473ZM9.76172 19.7256C8.82422 19.7256 8.07227 18.9736 8.07227 18.0361C8.07227 17.0889 8.82422 16.3369 9.76172 16.3369C10.709 16.3369 11.4512 17.0889 11.4512 18.0361C11.4512 18.9736 10.709 19.7256 9.76172 19.7256ZM18.7949 19.7256C17.8574 19.7256 17.0957 18.9736 17.0957 18.0361C17.0957 17.0889 17.8574 16.3369 18.7949 16.3369C19.7422 16.3369 20.4941 17.0889 20.4941 18.0361C20.4941 18.9736 19.7422 19.7256 18.7949 19.7256Z" fill="#09003E"/>
</svg>
