<svg width="16" height="16" viewBox="0 0 16 16" fill="none" xmlns="http://www.w3.org/2000/svg">
<path fill-rule="evenodd" clip-rule="evenodd" d="M8 16C10.1217 16 12.1566 15.1571 13.6569 13.6569C15.1571 12.1566 16 10.1217 16 8C16 5.87827 15.1571 3.84344 13.6569 2.34315C12.1566 0.842855 10.1217 0 8 0C5.87827 0 3.84344 0.842855 2.34315 2.34315C0.842855 3.84344 0 5.87827 0 8C0 10.1217 0.842855 12.1566 2.34315 13.6569C3.84344 15.1571 5.87827 16 8 16ZM8.7 12.2C8.7 12.3857 8.62625 12.5637 8.49498 12.695C8.3637 12.8263 8.18565 12.9 8 12.9C7.81435 12.9 7.6363 12.8263 7.50503 12.695C7.37375 12.5637 7.3 12.3857 7.3 12.2C7.3 12.0143 7.37375 11.8363 7.50503 11.705C7.6363 11.5738 7.81435 11.5 8 11.5C8.18565 11.5 8.3637 11.5738 8.49498 11.705C8.62625 11.8363 8.7 12.0143 8.7 12.2ZM8 3.5C7.86739 3.5 7.74021 3.55268 7.64645 3.64645C7.55268 3.74021 7.5 3.86739 7.5 4V9.5C7.5 9.63261 7.55268 9.75979 7.64645 9.85355C7.74021 9.94732 7.86739 10 8 10C8.13261 10 8.25979 9.94732 8.35355 9.85355C8.44732 9.75979 8.5 9.63261 8.5 9.5V4C8.5 3.86739 8.44732 3.74021 8.35355 3.64645C8.25979 3.55268 8.13261 3.5 8 3.5Z" fill="#6E60F6"/>
</svg>
