<svg width="20" height="18" viewBox="0 0 20 18" fill="none" xmlns="http://www.w3.org/2000/svg">
<path d="M17.5605 10.1423L11.9035 15.8003C11.5284 16.1752 11.0198 16.3858 10.4895 16.3858C9.95913 16.3858 9.45052 16.1752 9.07546 15.8003L3.41846 10.1433C2.95083 9.67972 2.57936 9.12836 2.32539 8.52086C2.07141 7.91337 1.93993 7.26168 1.93849 6.60323C1.93705 5.94478 2.06567 5.29253 2.31699 4.68393C2.5683 4.07532 2.93735 3.52235 3.40294 3.05675C3.86854 2.59116 4.42151 2.22211 5.03012 1.9708C5.63872 1.71948 6.29097 1.59086 6.94943 1.5923C7.60788 1.59374 8.25956 1.72522 8.86706 1.9792C9.47456 2.23317 10.0259 2.60464 10.4895 3.07227C11.431 2.15414 12.6964 1.64393 14.0115 1.65217C15.3266 1.66041 16.5855 2.18644 17.5154 3.11629C18.4454 4.04615 18.9716 5.30496 18.9801 6.62004C18.9885 7.93512 18.4785 9.20057 17.5605 10.1423Z" stroke="#333333" stroke-width="2" stroke-linecap="round" stroke-linejoin="round"/>
</svg>
