<svg width="48" height="48" viewBox="0 0 48 48" fill="none" xmlns="http://www.w3.org/2000/svg">
<circle cx="24" cy="24" r="15" fill="#1A202C"/>
<path d="M24.0002 0C10.7451 0 0 10.7451 0 24.0002C0 37.2553 10.7451 48.0004 24.0002 48.0004C37.2553 48.0004 48.0004 37.2553 48.0004 24.0002C48.0004 10.7451 37.2553 0 24.0002 0ZM29.6852 16.5851H26.0777C25.6502 16.5851 25.1752 17.1476 25.1752 17.8951V20.5002H29.6877L29.0052 24.2152H25.1752V35.3678H20.9177V24.2152H17.0551V20.5002H20.9177V18.3151C20.9177 15.1801 23.0927 12.6326 26.0777 12.6326H29.6852V16.5851Z" fill="white"/>
</svg>
