<svg width="24" height="21" viewBox="0 0 24 21" fill="none" xmlns="http://www.w3.org/2000/svg">
<path d="M9.03906 15.5254C7.42773 15.5254 6.55859 14.5586 6.31445 12.9668L4.88867 3.23047H2.21289C1.55859 3.23047 0.992188 2.67383 0.992188 2C0.992188 1.32617 1.55859 0.769531 2.21289 0.769531H5.42578C6.65625 0.769531 7.11523 1.27734 7.26172 2.27344L7.36914 3.04492H22.5742C23.4629 3.04492 23.9414 3.55273 23.9414 4.27539C23.9414 4.41211 23.9121 4.59766 23.8926 4.73438L23.2383 9.19727C23.0039 10.8184 22.125 11.7754 20.5234 11.7754H8.60938L8.75586 12.7617C8.80469 13.1133 9.00977 13.3477 9.3418 13.3477H20.3477C20.9434 13.3477 21.4707 13.7773 21.4707 14.4316C21.4707 15.0957 20.9434 15.5254 20.3477 15.5254H9.03906ZM21.334 5.22266H7.68164L8.30664 9.59766L20.25 9.58789C20.5918 9.58789 20.7676 9.37305 20.8262 9.02148L21.334 5.22266ZM9.86914 20.6523C8.83398 20.6523 7.98438 19.8125 7.98438 18.7578C7.98438 17.7129 8.83398 16.873 9.86914 16.873C10.9238 16.873 11.7637 17.7129 11.7637 18.7578C11.7637 19.8125 10.9238 20.6523 9.86914 20.6523ZM18.7266 20.6523C17.6816 20.6523 16.832 19.8125 16.832 18.7578C16.832 17.7129 17.6816 16.873 18.7266 16.873C19.7715 16.873 20.6113 17.7129 20.6113 18.7578C20.6113 19.8125 19.7715 20.6523 18.7266 20.6523Z" fill="#09003E"/>
</svg>
