<svg width="30" height="31" viewBox="0 0 30 31" fill="none" xmlns="http://www.w3.org/2000/svg">
<path d="M15 2.83691C8.1 2.83691 2.5 8.43691 2.5 15.3369C2.5 22.2369 8.1 27.8369 15 27.8369C21.9 27.8369 27.5 22.2369 27.5 15.3369C27.5 8.43691 21.9 2.83691 15 2.83691ZM15 7.83691C17.4125 7.83691 19.375 9.79941 19.375 12.2119C19.375 14.6244 17.4125 16.5869 15 16.5869C12.5875 16.5869 10.625 14.6244 10.625 12.2119C10.625 9.79941 12.5875 7.83691 15 7.83691ZM15 25.3369C12.4625 25.3369 9.4625 24.3119 7.325 21.7369C9.51451 20.0191 12.217 19.0854 15 19.0854C17.783 19.0854 20.4855 20.0191 22.675 21.7369C20.5375 24.3119 17.5375 25.3369 15 25.3369Z" fill="#09003E"/>
</svg>
