<svg width="1440" height="560" viewBox="0 0 1440 560" fill="none" xmlns="http://www.w3.org/2000/svg">
<g clip-path="url(#clip0_611_10769)">
<rect width="1440" height="560" fill="#FFC885"/>
<mask id="mask0_611_10769" style="mask-type:luminance" maskUnits="userSpaceOnUse" x="44" y="-38" width="1363" height="766">
<path d="M1406.06 -37.7017H44.9365V727.702H1406.06V-37.7017Z" fill="white"/>
</mask>
<g mask="url(#mask0_611_10769)">
<path style="mix-blend-mode:multiply" opacity="0.25" d="M52.3726 15.9332V123.097H11V125.932H52.3726V233.095H11V235.93H52.3726V343.094H11V345.928H52.3726V453.092H11V455.927H52.3726V563.09H11V565.925H52.3726V673.089H11V675.924H52.3726V786H55.2083V675.924H162.404V786H165.24V675.924H272.436V786H275.271V675.924H382.467V786H385.303V675.924H492.499V786H495.335V675.924H602.531V786H605.366V675.924H712.562V786H715.398V675.924H822.594V786H825.429V675.924H932.625V786H935.461V675.924H1042.66V786H1045.49V675.924H1152.69V786H1155.52V675.924H1262.72V786H1265.56V675.924H1372.75V786H1375.59V675.924H1440V673.089H1375.59V565.925H1440V563.09H1375.59V455.927H1440V453.092H1375.59V345.928H1440V343.094H1375.59V235.93H1440V233.095H1375.59V125.932H1440V123.097H1375.59V15.9332H1440V13.0984H1375.59V-96H1372.75V13.0984H1265.56V-96H1262.72V13.0984H1155.52V-96H1152.69V13.0984H1045.49V-96H1042.66V13.0984H935.461V-96H932.625V13.0984H825.429V-96H822.594V13.0984H715.398V-96H712.562V13.0984H605.366V-96H602.531V13.0984H495.335V-96H492.499V13.0984H385.303V-96H382.467V13.0984H275.271V-96H272.436V13.0984H165.24V-96H162.404V13.0984H55.2083V-96H52.3726V13.0984H11V15.9332H52.3726ZM272.436 15.9332V123.097H165.24V15.9332H272.436ZM495.335 235.93H602.531V343.094H495.335V235.93ZM492.499 343.094H385.303V235.93H492.499V343.094ZM605.366 235.93H712.562V343.094H605.366V235.93ZM715.398 235.93H822.594V343.094H715.398V235.93ZM825.429 235.93H932.625V343.094H825.429V235.93ZM935.461 235.93H1042.66V343.094H935.461V235.93ZM1045.49 235.93H1152.69V343.094H1045.49V235.93ZM1152.69 345.928V453.092H1045.49V345.928H1152.69ZM1042.66 453.092H935.461V345.928H1042.66V453.092ZM932.625 453.092H825.429V345.928H932.625V453.092ZM822.594 453.092H715.398V345.928H822.594V453.092ZM712.562 453.092H605.366V345.928H712.562V453.092ZM602.531 453.092H495.335V345.928H602.531V453.092ZM492.499 453.092H385.303V345.928H492.499V453.092ZM382.467 453.092H275.271V345.928H382.467V453.092ZM275.271 343.094V235.93H382.467V343.094H275.271ZM275.271 233.095V125.932H382.467V233.095H275.271ZM385.303 125.932H492.499V233.095H385.303V125.932ZM495.335 125.932H602.531V233.095H495.335V125.932ZM605.366 125.932H712.562V233.095H605.366V125.932ZM715.398 125.932H822.594V233.095H715.398V125.932ZM825.429 125.932H932.625V233.095H825.429V125.932ZM935.461 125.932H1042.66V233.095H935.461V125.932ZM1045.49 125.932H1152.69V233.095H1045.49V125.932ZM1155.52 125.932H1262.72V233.095H1155.52V125.932ZM1262.72 235.93V343.094H1155.52V235.93H1262.72ZM1262.72 345.928V453.092H1155.52V345.928H1262.72ZM1262.72 455.927V563.09H1155.52V455.927H1262.72ZM1152.69 563.09H1045.49V455.927H1152.69V563.09ZM1042.66 563.09H935.461V455.927H1042.66V563.09ZM932.625 563.09H825.429V455.927H932.625V563.09ZM822.594 563.09H715.398V455.927H822.594V563.09ZM712.562 563.09H605.366V455.927H712.562V563.09ZM602.531 563.09H495.335V455.927H602.531V563.09ZM492.499 563.09H385.303V455.927H492.499V563.09ZM382.467 563.09H275.271V455.927H382.467V563.09ZM272.436 563.09H165.24V455.927H272.436V563.09ZM165.24 453.092V345.928H272.436V453.092H165.24ZM165.24 343.094V235.93H272.436V343.094H165.24ZM165.24 233.095V125.932H272.436V233.095H165.24ZM382.467 15.9332V123.097H275.271V15.9332H382.467ZM492.499 15.9332V123.097H385.303V15.9332H492.499ZM602.531 15.9332V123.097H495.335V15.9332H602.531ZM712.562 15.9332V123.097H605.366V15.9332H712.562ZM822.594 15.9332V123.097H715.398V15.9332H822.594ZM932.625 15.9332V123.097H825.429V15.9332H932.625ZM1042.66 15.9332V123.097H935.461V15.9332H1042.66ZM1152.69 15.9332V123.097H1045.49V15.9332H1152.69ZM1262.72 15.9332V123.097H1155.52V15.9332H1262.72ZM1372.75 123.097H1265.56V15.9332H1372.75V123.097ZM1372.75 233.095H1265.56V125.932H1372.75V233.095ZM1372.75 343.094H1265.56V235.93H1372.75V343.094ZM1372.75 453.092H1265.56V345.928H1372.75V453.092ZM1372.75 563.09H1265.56V455.927H1372.75V563.09ZM1265.56 673.089V565.925H1372.75V673.089H1265.56ZM1155.52 673.089V565.925H1262.72V673.089H1155.52ZM1045.49 673.089V565.925H1152.69V673.089H1045.49ZM935.461 673.089V565.925H1042.66V673.089H935.461ZM825.429 673.089V565.925H932.625V673.089H825.429ZM715.398 673.089V565.925H822.594V673.089H715.398ZM605.366 673.089V565.925H712.562V673.089H605.366ZM495.335 673.089V565.925H602.531V673.089H495.335ZM385.303 673.089V565.925H492.499V673.089H385.303ZM275.271 673.089V565.925H382.467V673.089H275.271ZM165.24 673.089V565.925H272.436V673.089H165.24ZM55.2083 565.925H162.404V673.089H55.2083V565.925ZM55.2083 455.927H162.404V563.09H55.2083V455.927ZM55.2083 345.928H162.404V453.092H55.2083V345.928ZM55.2083 235.93H162.404V343.094H55.2083V235.93ZM55.2083 125.932H162.404V233.095H55.2083V125.932ZM55.2083 15.9332H162.404V123.097H55.2083V15.9332Z" fill="url(#paint0_radial_611_10769)"/>
</g>
<path d="M752.78 776.657C688.72 774.544 621.513 760.433 575.557 718.42C545.631 691.068 527.329 654.033 516.903 615.986C478.378 475.417 541.9 307.104 708.19 282.197C814.198 266.321 839.287 -23.0952 1241.74 106.128C1572.17 212.224 1445.82 446.284 1467.41 538.689C1477.08 580.094 1551.83 715.786 1424.62 776.107C1250.13 776.02 1075.55 776.121 901.166 774.226C852.308 773.69 803.526 778.148 754.668 776.715C754.039 776.7 753.409 776.686 752.78 776.657Z" fill="#FFF3E4"/>
<path d="M804.282 158.381C835.901 134.717 855.606 149.259 867.492 122.266C872.442 108.963 878.102 89.9964 880.318 85.8972C895.36 58.0892 926.739 53.5194 957.84 68.1518C967.922 72.8936 976.748 78.4226 983.262 85.137C984.893 86.8111 986.37 88.5667 987.694 90.4036C988.356 91.3176 989.027 92.2316 989.555 93.2089C995.848 104.973 998.189 115.904 988.509 145.395C978.235 176.705 1022.95 162.263 1023.09 216.612C1023.15 237.009 1010.3 302.913 898.861 306.47C850.243 308.017 784.693 275.413 772.078 233.262C766.84 215.779 772.663 182.053 804.282 158.381Z" fill="#75434B"/>
<path d="M1106.27 320.542C1106.27 320.542 1057.47 236.729 1029.9 219.88C995.339 198.759 951.364 199.519 911.86 197.547C888.999 196.406 865.467 194.253 843.048 199.845C822.528 204.967 806.326 216.161 791.686 230.332C778.995 242.611 722.376 342.921 712.821 381.633C703.775 418.237 734.051 453.076 774.601 452.868C793.365 452.768 814.595 452.443 834.433 451.619H932.571H1031.19L1118.07 452.026C1190.71 424.58 1106.27 320.542 1106.27 320.542Z" fill="#9679BC"/>
<path d="M1142.58 384.482C1112.53 436.135 1062.07 424.335 1062.07 424.335C1062.07 424.335 931.585 433.61 825.648 433.094C750.706 432.732 722.771 398.165 714.895 374.411C714.06 376.999 713.36 379.406 712.813 381.623C703.767 418.227 734.043 453.066 774.593 452.858C793.357 452.758 814.587 452.432 834.426 451.609H932.564H1031.18L1118.07 452.016C1150.92 439.61 1151.64 411.521 1142.58 384.482Z" fill="#7C5FAA"/>
<mask id="mask1_611_10769" style="mask-type:luminance" maskUnits="userSpaceOnUse" x="711" y="196" width="437" height="257">
<path d="M1106.27 320.543C1106.27 320.543 1057.47 236.73 1029.9 219.88C995.339 198.76 951.364 199.52 911.86 197.547C888.999 196.407 865.467 194.253 843.048 199.846C822.528 204.967 806.326 216.161 791.686 230.332C778.995 242.612 722.376 342.921 712.821 381.634C703.775 418.237 734.051 453.076 774.601 452.868C793.365 452.769 814.595 452.443 834.433 451.62H932.571H1031.19L1118.07 452.027C1190.71 424.581 1106.27 320.543 1106.27 320.543Z" fill="white"/>
</mask>
<g mask="url(#mask1_611_10769)">
<path d="M917.895 275.477C835.902 275.477 785.903 231.96 785.356 231.472C784.694 230.874 784.665 229.888 785.289 229.264C785.922 228.639 786.977 228.603 787.63 229.2C788.225 229.734 848.613 282.201 945.418 270.718C1041.85 259.289 1059.55 222.395 1059.71 222.024C1060.08 221.228 1061.05 220.866 1061.89 221.201C1062.73 221.536 1063.13 222.44 1062.77 223.237C1062.07 224.82 1044.45 262.13 945.84 273.812C936.151 274.962 926.836 275.477 917.895 275.477Z" fill="#F4F0ED"/>
<path d="M928.043 329.238C878.35 329.238 830.922 323.193 827.564 322.759C778.054 315.61 740.343 293.114 739.969 292.888C739.202 292.426 738.971 291.458 739.47 290.734C739.96 290.001 740.986 289.793 741.753 290.264C742.118 290.49 779.282 312.633 828.044 319.673C829.435 319.854 969.169 337.672 1021.9 312.642C1022.11 312.543 1022.35 312.488 1022.58 312.479C1023.25 312.461 1088.92 310.081 1104.28 286.879C1104.76 286.137 1105.78 285.929 1106.56 286.382C1107.34 286.834 1107.57 287.802 1107.09 288.535C1091.24 312.47 1028.99 315.366 1023.06 315.592C1000.55 326.116 963.71 329.238 928.043 329.238Z" fill="#F4F0ED"/>
<path d="M1142.21 434.67C1141.8 434.67 1141.4 434.525 1141.07 434.244C1116.59 412.391 1088.08 398.138 1087.79 397.993C1086.98 397.595 1086.68 396.645 1087.09 395.885C1087.52 395.116 1088.51 394.826 1089.33 395.233C1089.62 395.378 1118.52 409.821 1143.34 431.982C1144.01 432.579 1144.04 433.565 1143.4 434.19C1143.09 434.507 1142.65 434.67 1142.21 434.67Z" fill="#F4F0ED"/>
<path d="M801.951 370.647C801.683 370.647 801.414 370.584 801.165 370.457C775.11 357.128 716.467 352.051 715.872 352.006C714.97 351.924 714.289 351.173 714.376 350.314C714.462 349.454 715.114 348.802 716.179 348.893C718.606 349.101 776.088 354.069 802.738 367.715C803.544 368.122 803.841 369.072 803.41 369.833C803.103 370.348 802.527 370.647 801.951 370.647Z" fill="#F4F0ED"/>
<path d="M757.738 457.7C756.903 457.7 756.193 457.112 756.097 456.315C750.322 409.26 789.165 371.281 789.548 370.9C790.182 370.276 791.246 370.267 791.899 370.873C792.551 371.48 792.561 372.466 791.918 373.081C791.534 373.452 753.795 410.4 759.378 455.944C759.483 456.804 758.841 457.573 757.92 457.673C757.862 457.691 757.795 457.7 757.738 457.7Z" fill="#F4F0ED"/>
<path d="M855.625 464.469C854.877 464.469 854.206 463.989 854.014 463.274C846.829 435.231 853.688 364.015 853.976 360.992C854.062 360.133 854.848 359.49 855.769 359.581C856.681 359.662 857.352 360.422 857.266 361.282C857.189 362.015 850.157 434.996 857.227 462.532C857.439 463.374 856.901 464.216 856.009 464.415C855.875 464.451 855.75 464.469 855.625 464.469Z" fill="#F4F0ED"/>
<path d="M1030 457.7C1029.37 457.7 1028.76 457.356 1028.49 456.777L1016.07 430.797C1015.69 430.01 1016.06 429.087 1016.9 428.725C1017.75 428.381 1018.72 428.725 1019.08 429.503L1031.51 455.492C1031.89 456.279 1031.52 457.202 1030.68 457.555C1030.46 457.655 1030.23 457.7 1030 457.7Z" fill="#F4F0ED"/>
</g>
<path d="M1108.44 369.741C1108.28 369.741 1108.13 369.723 1107.98 369.678C1107.1 369.434 1106.59 368.574 1106.84 367.741C1112.79 348.286 1112.2 333.237 1105.08 323.003C1097.8 312.551 1085.98 310.994 1085.85 310.985C1084.95 310.877 1084.31 310.099 1084.42 309.239C1084.54 308.388 1085.36 307.728 1086.27 307.881C1086.81 307.945 1099.67 309.583 1107.8 321.229C1115.52 332.251 1116.26 348.195 1110.02 368.592C1109.82 369.298 1109.16 369.741 1108.44 369.741Z" fill="#49263E"/>
<path d="M1021.49 348.341C1020.34 348.196 1019.73 347.4 1019.85 346.549C1025.54 310.443 1007.75 268.157 1007.56 267.731C1007.22 266.935 1007.63 266.021 1008.48 265.695C1009.32 265.369 1010.29 265.759 1010.63 266.564C1010.82 266.998 1028.95 310.072 1023.13 347.011C1023.01 347.789 1022.3 348.341 1021.49 348.341Z" fill="#49263E"/>
<path d="M878.555 188.624L917.129 94.0787L936.402 76.4329C936.402 76.4329 966.927 81.3827 980.818 96.7391C987.418 104.033 986.238 116.602 983.744 126.665C975.974 157.911 965.786 184.479 952.384 191.067C948.096 193.176 943.299 193.773 932.728 190.461L929.322 202.143C933.898 212.224 946.686 253.723 911.92 243.561C877.174 233.399 878.555 188.624 878.555 188.624Z" fill="#FF9D76"/>
<path d="M938.972 138.301C940.143 138.618 941.371 137.975 941.706 136.88L942.685 133.677C943.021 132.573 942.339 131.414 941.179 131.098C940.008 130.781 938.78 131.423 938.445 132.518L937.466 135.722C937.13 136.817 937.812 137.984 938.972 138.301Z" fill="#49263E"/>
<path d="M969.142 147.541C970.312 147.858 971.54 147.215 971.876 146.12L972.855 142.917C973.19 141.813 972.509 140.655 971.349 140.338C970.178 140.021 968.95 140.664 968.615 141.759L967.636 144.962C967.3 146.057 967.981 147.224 969.142 147.541Z" fill="#49263E"/>
<path d="M980.827 139.315C980.27 139.315 979.723 139.052 979.416 138.573C979.253 138.328 975.694 133.179 968.048 135.216C967.156 135.469 966.254 134.962 966.005 134.13C965.756 133.297 966.274 132.437 967.156 132.211C975.32 130.048 980.596 134.365 982.246 136.944C982.716 137.686 982.467 138.645 981.68 139.089C981.421 139.242 981.124 139.315 980.827 139.315Z" fill="#75434B"/>
<path d="M952.164 129.153C951.607 129.153 951.07 128.891 950.753 128.42C950.609 128.194 947.031 123 939.29 125.027C938.397 125.262 937.496 124.773 937.246 123.941C936.997 123.108 937.515 122.249 938.397 122.022C946.552 119.869 951.885 124.185 953.574 126.773C954.053 127.506 953.814 128.465 953.037 128.918C952.768 129.081 952.461 129.153 952.164 129.153Z" fill="#75434B"/>
<path d="M956.547 162.571C956.039 162.571 955.54 162.553 955.089 162.526C954.178 162.472 953.487 161.73 953.544 160.87C953.592 160.01 954.35 159.323 955.3 159.413C955.377 159.422 964.864 159.884 965.152 155.839C965.267 154.128 964.624 151.595 963.943 148.916C962.408 142.835 960.49 135.261 966.879 132.302C967.675 131.931 968.692 132.239 969.085 133.017C969.488 133.795 969.152 134.727 968.327 135.107C964.605 136.826 965.497 141.613 967.157 148.192C967.896 151.106 968.596 153.857 968.443 156.047C968.088 161.223 961.372 162.571 956.547 162.571Z" fill="#EF685E"/>
<path d="M993.193 395.142C993.567 398.726 996.09 401.422 998.824 401.16C1001.56 400.906 1003.47 397.794 1003.09 394.21C1002.72 390.627 1000.2 387.93 997.462 388.192C994.728 388.446 992.819 391.559 993.193 395.142Z" fill="white"/>
<path d="M815.268 357.535C814.597 357.535 813.964 357.145 813.714 356.521L806.721 338.966C806.395 338.16 806.836 337.255 807.69 336.957C808.553 336.658 809.503 337.056 809.829 337.871L816.822 355.426C817.149 356.231 816.707 357.136 815.854 357.435C815.652 357.507 815.46 357.535 815.268 357.535Z" fill="#49263E"/>
<path d="M825.647 365.841C824.659 365.805 823.949 365.072 823.988 364.212L828.266 272.192C828.305 271.35 829.034 270.699 829.926 270.699C830.914 270.735 831.624 271.468 831.586 272.328L827.307 364.348C827.269 365.19 826.53 365.841 825.647 365.841Z" fill="#49263E"/>
<path d="M931.135 327.039C931.135 327.039 926.971 343.626 951.088 368.403C951.088 368.403 987.024 350.802 983.743 328.541L931.135 327.039Z" fill="white"/>
<path d="M954.351 345.627C940.872 345.627 930.694 343.383 929.85 343.193C928.44 342.867 927.567 341.537 927.912 340.207C928.257 338.885 929.668 338.071 931.078 338.379C931.471 338.469 971.81 347.319 997.971 328.977C999.131 328.162 1000.79 328.397 1001.64 329.492C1002.52 330.587 1002.28 332.144 1001.11 332.958C986.622 343.102 968.635 345.627 954.351 345.627Z" fill="#49263E"/>
<path d="M1064.03 307.891C1024.01 281.884 999.534 285.296 999.534 285.296L914.894 325.456L904.936 347.717C878.833 357.444 862.275 382.375 876.262 391.053C886.546 397.433 904.744 375.932 918.203 374.394C918.203 374.394 895.074 394.039 913.474 402.156C926.674 407.984 939.011 394.356 953.631 393.686C964.999 393.161 974.323 392.202 977.815 392.781C981.652 402.111 990.967 425.63 1010.63 427.72C1039.6 430.797 1068.54 434.009 1086.73 416.363C1107.7 396.03 1102.16 332.668 1064.03 307.891Z" fill="#49263E"/>
<path d="M953.765 170.797C950.868 170.797 948.45 169.982 946.551 168.372C942.071 164.562 942.33 157.712 942.34 157.422C942.378 156.562 943.117 155.974 944.066 155.929C944.978 155.965 945.697 156.689 945.659 157.549C945.649 157.603 945.457 163.241 948.786 166.055C950.436 167.448 952.767 167.946 955.751 167.53C956.653 167.403 957.497 167.982 957.631 168.842C957.775 169.693 957.142 170.489 956.25 170.616C955.377 170.742 954.552 170.797 953.765 170.797Z" fill="#49263E"/>
<path d="M990.169 273.821C990.169 273.821 982.389 232.955 974.292 231.915C966.196 230.874 956.286 259.433 956.286 259.433L990.169 273.821Z" fill="#49263E"/>
<path d="M982.784 264.672C982.784 264.672 978.4 241.642 973.834 241.054C969.267 240.465 963.684 256.564 963.684 256.564L982.784 264.672Z" fill="#FFBBC8"/>
<path d="M997.462 389.75C996.532 389.741 995.803 389.035 995.803 388.175C995.985 369.606 1001.94 355.3 1013.5 345.635C1032.99 329.365 1061.07 332.134 1062.25 332.251C1063.17 332.342 1063.81 333.12 1063.71 333.98C1063.61 334.839 1062.77 335.482 1061.88 335.355C1061.59 335.319 1034.01 332.631 1015.67 347.988C1004.86 357.037 999.275 370.565 999.103 388.202C999.112 389.062 998.374 389.75 997.462 389.75Z" fill="#F4F0ED"/>
<path d="M1035.22 412.48C1036.5 408.417 1025.35 393.459 1020.93 389.993C1015.97 386.102 998.479 384.591 998.479 384.591L944.316 394.672V438.605L963.704 437.845C963.704 437.845 995.687 449.654 1005.31 447.998C1014.93 446.342 1023.25 428.914 1023.25 428.914C1023.25 428.914 1038.89 430.153 1040.03 424.751C1041.49 417.792 1038.47 414.272 1035.22 412.48Z" fill="#FF9D76"/>
<path d="M1039.45 415.077C1039.15 415.077 1038.86 415.005 1038.58 414.851L1008.23 398.02C1007.41 397.567 1007.13 396.563 1007.61 395.794C1008.09 395.016 1009.15 394.762 1009.98 395.215L1040.33 412.046C1041.15 412.498 1041.43 413.503 1040.95 414.281C1040.61 414.788 1040.04 415.077 1039.45 415.077Z" fill="#EF685E"/>
<path d="M1024.75 430.625C1024.49 430.625 1024.23 430.57 1023.99 430.453L1004.19 421.15C1003.33 420.752 1002.99 419.775 1003.42 418.969C1003.84 418.155 1004.88 417.829 1005.73 418.236L1025.53 427.539C1026.38 427.937 1026.73 428.914 1026.3 429.72C1025.99 430.29 1025.38 430.625 1024.75 430.625Z" fill="#EF685E"/>
<path d="M1016.98 440.805C1016.76 440.805 1016.53 440.759 1016.31 440.678L1000.99 434.606C1000.12 434.253 999.696 433.303 1000.07 432.47C1000.43 431.638 1001.46 431.258 1002.32 431.602L1017.64 437.674C1018.52 438.027 1018.94 438.977 1018.57 439.809C1018.3 440.425 1017.66 440.805 1016.98 440.805Z" fill="#EF685E"/>
<path d="M1008.01 448.758C1007.85 448.758 1007.69 448.74 1007.51 448.686L996.789 445.645C995.878 445.392 995.359 444.478 995.628 443.618C995.906 442.759 996.885 442.261 997.777 442.524L1008.5 445.564C1009.41 445.817 1009.93 446.731 1009.66 447.591C1009.44 448.297 1008.75 448.758 1008.01 448.758Z" fill="#EF685E"/>
<path d="M984.933 203.491C960.969 198.931 935.605 198.732 911.862 197.546C889.001 196.406 865.469 194.252 843.05 199.845C840.661 200.442 838.33 201.121 836.047 201.881C847.108 215.545 881.048 252.755 919.699 248.791C953.026 245.38 974.927 218.821 984.933 203.491Z" fill="#FF9D76"/>
<path d="M909.06 177.674C918.125 186.234 932.736 190.46 932.736 190.46L926.452 211.626C917.099 209.056 910.652 192.071 907.861 178.488C907.698 177.71 908.465 177.112 909.06 177.674Z" fill="#EF685E"/>
<path d="M910.422 273.821C910.422 273.821 918.202 232.955 926.298 231.915C934.395 230.874 944.305 259.433 944.305 259.433L910.422 273.821Z" fill="#49263E"/>
<path d="M917.818 264.672C917.818 264.672 922.202 241.642 926.768 241.054C931.335 240.465 936.918 256.564 936.918 256.564L917.818 264.672Z" fill="#FFBBC8"/>
<path d="M757.739 384.619C757.106 384.619 756.501 384.275 756.223 383.696C755.859 382.908 756.223 381.985 757.058 381.633C757.969 381.252 848.442 343.59 915.872 367.244C916.726 367.543 917.167 368.439 916.851 369.253C916.534 370.059 915.556 370.475 914.721 370.176C848.548 346.956 759.312 384.103 758.41 384.483C758.199 384.573 757.959 384.619 757.739 384.619Z" fill="#49263E"/>
<path d="M944.153 453.184C943.232 453.184 942.493 452.478 942.493 451.618L942.647 388.193C942.647 387.333 943.385 386.636 944.306 386.636C945.227 386.636 945.966 387.342 945.966 388.202L945.812 451.627C945.812 452.487 945.064 453.184 944.153 453.184Z" fill="#49263E"/>
<path d="M1009.45 315.22C1010.76 321.347 1021.46 319.7 1022.33 319.546C1021.52 319.681 1012.46 321.374 1015.98 327.084C1017.86 330.142 1021.79 332.296 1030.83 329.608C1043.32 325.889 1054.1 322.46 1054.1 322.46C1054.1 322.46 1046.1 328.812 1035.18 334.006C1028.97 336.965 1029.87 341.436 1031.04 342.784C1033.94 346.141 1037.06 347.29 1048.96 342.359C1060.85 337.427 1067.37 333.834 1067.37 333.834C1067.37 333.834 1081.62 352.819 1092.24 354.611C1095.27 355.127 1097.49 351.924 1099.06 347.725C1102.56 338.422 1100.84 328.079 1094.8 320.016C1089.78 313.32 1083.59 305.882 1080.34 305.058C1066.87 301.638 1046.11 295.421 1044 295.774C1037.41 296.869 1025.69 301.14 1015.31 307.501C1009.45 311.076 1009 313.112 1009.45 315.22Z" fill="#FF9D76"/>
<path d="M1017.59 322.83C1016.92 322.83 1016.28 322.459 1016 321.853C1015.62 321.029 1016.02 320.07 1016.9 319.708C1017.22 319.581 1049.36 306.397 1051.63 305.374C1052.51 304.985 1053.53 305.329 1053.94 306.143C1054.35 306.958 1053.98 307.926 1053.12 308.315C1050.8 309.356 1019.6 322.151 1018.28 322.694C1018.05 322.785 1017.82 322.83 1017.59 322.83Z" fill="#EF685E"/>
<path d="M1047.87 328.477C1047.3 328.477 1046.73 328.205 1046.41 327.717C1045.9 326.956 1046.14 325.952 1046.94 325.472L1060.32 317.473C1061.12 316.984 1062.19 317.22 1062.7 317.98C1063.2 318.74 1062.96 319.744 1062.16 320.224L1048.79 328.223C1048.5 328.395 1048.18 328.477 1047.87 328.477Z" fill="#EF685E"/>
<path d="M1044 295.774C1044 295.774 1013.55 295.113 1010.53 296.317C1007.51 297.52 1009.31 308.597 1015.3 307.502L1044 295.774Z" fill="#FF9D76"/>
<path d="M1011.85 311.075C1011.19 311.075 1010.57 310.722 1010.28 310.116C1009.89 309.292 1010.27 308.333 1011.14 307.962L1044.09 293.945C1044.95 293.574 1045.99 293.936 1046.37 294.759C1046.76 295.583 1046.38 296.542 1045.51 296.913L1012.56 310.93C1012.33 311.03 1012.09 311.075 1011.85 311.075Z" fill="#EF685E"/>
<path d="M1093.54 396.238C1092.8 396.238 1092.12 395.767 1091.93 395.061C1091.71 394.22 1092.24 393.378 1093.13 393.161C1097.81 392.039 1101.04 385.153 1101.88 382.592C1102.16 381.768 1103.08 381.316 1103.95 381.569C1104.83 381.822 1105.31 382.7 1105.04 383.524C1104.89 383.967 1101.37 394.41 1093.93 396.192C1093.81 396.22 1093.67 396.238 1093.54 396.238Z" fill="#49263E"/>
<path d="M990.879 104.792C988.241 95.9871 963.779 78.6218 963.779 78.6218L935.651 71.1562L919.823 73.2828L888.77 96.6567L902.171 110.484L882.429 159.322C882.429 159.322 853.764 177.384 849.035 177.945C837.264 179.33 827.786 205.02 827.786 205.02C827.786 205.02 876.634 220.983 895.399 205.02C907.102 195.066 912.148 163.928 914.288 141.902C915.4 130.473 924.898 117.66 936.918 115.913C962.963 112.131 982.207 108.71 982.207 108.71C982.207 108.71 988.116 112.701 982.783 138.427C982.783 138.418 993.364 113.09 990.879 104.792Z" fill="#75434B"/>
<path d="M982.053 113.127C981.852 113.127 981.641 113.091 981.449 113.019C980.595 112.702 980.183 111.788 980.519 110.992C984.327 101.924 982.792 94.8299 982.773 94.7575C982.581 93.9159 983.157 93.0834 984.049 92.9024C984.922 92.6943 985.824 93.2644 986.015 94.106C986.092 94.4317 987.781 102.205 983.598 112.141C983.329 112.756 982.715 113.127 982.053 113.127Z" fill="#FF9D76"/>
<path d="M652.693 292.661C652.693 292.661 627.626 248.529 681.635 238.683C681.635 238.683 710.549 280.228 652.693 292.661Z" fill="#3F9896"/>
<path d="M627.281 285.667C627.281 285.667 574.25 287.576 588.534 237.471C588.534 237.471 640.788 231.164 627.281 285.667Z" fill="#80C7A7"/>
<path d="M635.837 343.943C635.837 343.943 584.273 355.806 587.66 304.018C587.66 304.018 637.535 287.992 635.837 343.943Z" fill="#3F9896"/>
<path d="M635.838 345.508C635.435 345.508 635.032 345.372 634.715 345.092L593.906 309.393C593.234 308.805 593.196 307.818 593.82 307.185C594.453 306.552 595.498 306.515 596.16 307.104L636.97 342.802C637.641 343.391 637.679 344.377 637.056 345.01C636.72 345.336 636.279 345.508 635.838 345.508Z" fill="#80C7A7"/>
<path d="M627.28 287.232C626.762 287.232 626.254 287.006 625.928 286.571L592.908 242.602C592.371 241.896 592.553 240.927 593.301 240.421C594.05 239.923 595.076 240.086 595.613 240.792L628.633 284.761C629.16 285.467 628.988 286.436 628.24 286.942C627.942 287.132 627.606 287.232 627.28 287.232Z" fill="#3F9896"/>
<path d="M652.693 294.217C652.434 294.217 652.185 294.163 651.945 294.046C651.129 293.656 650.803 292.715 651.216 291.946L674.575 248.347C674.997 247.578 675.995 247.271 676.801 247.66C677.616 248.049 677.942 248.99 677.53 249.759L654.17 293.358C653.873 293.91 653.297 294.217 652.693 294.217Z" fill="#80C7A7"/>
<path d="M648.137 380.646C647.274 380.646 646.554 380.021 646.487 379.207C642.141 325.446 625.19 286.137 625.018 285.748C624.663 284.951 625.066 284.037 625.919 283.712C626.744 283.368 627.723 283.757 628.078 284.553C628.25 284.951 645.403 324.677 649.787 378.963C649.864 379.822 649.173 380.573 648.262 380.646C648.223 380.637 648.175 380.646 648.137 380.646Z" fill="#49263E"/>
<path d="M641.584 336.522C640.644 336.504 639.915 335.798 639.925 334.929C640.357 313.112 650.257 292.851 650.679 292C651.063 291.222 652.051 290.869 652.876 291.249C653.71 291.611 654.065 292.543 653.682 293.321C653.586 293.52 643.666 313.854 643.244 334.984C643.225 335.834 642.486 336.522 641.584 336.522Z" fill="#49263E"/>
<path d="M646.322 363.724C645.736 363.724 645.171 363.434 644.864 362.91L633.803 343.843C633.371 343.083 633.659 342.142 634.465 341.726C635.27 341.318 636.278 341.59 636.709 342.35L647.77 361.417C648.202 362.177 647.914 363.118 647.108 363.534C646.859 363.661 646.59 363.724 646.322 363.724Z" fill="#49263E"/>
<path d="M612.813 374.42H683.457L678.488 451.618H618.33L612.813 374.42Z" fill="#F75454"/>
<path d="M682.481 389.749H613.803C612.892 389.749 612.144 389.052 612.144 388.183C612.144 387.323 612.882 386.618 613.803 386.618H682.481C683.392 386.618 684.14 387.314 684.14 388.183C684.131 389.052 683.392 389.749 682.481 389.749Z" fill="#49263E"/>
<path d="M1173.15 396.608C1173.15 396.608 1127.62 338.558 1142.52 325.998C1157.42 313.428 1185.56 369.035 1186.4 388.871C1186.4 388.871 1170.67 263.821 1199.65 267.151C1228.62 270.481 1199.65 383.061 1199.65 383.061C1199.65 383.061 1225.31 318.432 1240.21 318.279C1255.11 318.116 1214.36 394.68 1214.36 394.68L1173.15 396.608Z" fill="#3F9896"/>
<path d="M1191.5 406.589C1190.52 406.553 1189.81 405.829 1189.84 404.97L1194.52 283.747C1194.55 282.888 1195.38 282.291 1196.23 282.245C1197.14 282.282 1197.86 283.005 1197.83 283.865L1193.15 405.087C1193.11 405.929 1192.39 406.589 1191.5 406.589Z" fill="#80C7A7"/>
<path d="M1181.84 401.993C1181.08 401.993 1180.39 401.495 1180.22 400.771C1174.83 377.904 1146.46 338.305 1146.18 337.907C1145.68 337.192 1145.87 336.223 1146.63 335.735C1147.38 335.255 1148.41 335.436 1148.93 336.151C1150.11 337.789 1177.93 376.646 1183.46 400.092C1183.65 400.934 1183.1 401.766 1182.21 401.956C1182.08 401.974 1181.97 401.993 1181.84 401.993Z" fill="#80C7A7"/>
<path d="M1205.02 406.591C1203.97 406.518 1203.29 405.767 1203.37 404.908C1204.48 391.687 1232.13 332.822 1233.31 330.325C1233.68 329.537 1234.67 329.176 1235.5 329.528C1236.33 329.881 1236.7 330.804 1236.34 331.592C1236.05 332.198 1207.75 392.465 1206.67 405.152C1206.6 405.966 1205.87 406.591 1205.02 406.591Z" fill="#80C7A7"/>
<path d="M1160.84 396.608H1231.49L1226.52 451.618H1166.36L1160.84 396.608Z" fill="#FFBBC8"/>
<path d="M1229.97 415.006H1162.53C1161.62 415.006 1160.87 414.309 1160.87 413.441C1160.87 412.581 1161.61 411.875 1162.53 411.875H1229.97C1230.88 411.875 1231.63 412.572 1231.63 413.441C1231.62 414.309 1230.88 415.006 1229.97 415.006Z" fill="#49263E"/>
<path d="M1239.37 453.229H608.959C608.048 453.229 607.3 452.532 607.3 451.663C607.3 450.804 608.039 450.098 608.959 450.098H1239.37C1240.28 450.098 1241.03 450.795 1241.03 451.663C1241.03 452.523 1240.29 453.229 1239.37 453.229Z" fill="#49263E"/>
<path d="M1000.94 298.642C1000.94 322.894 978.419 340.612 950.647 340.612C922.865 340.612 900.341 322.894 900.341 298.642C900.341 274.391 922.865 254.727 950.647 254.727C978.419 254.727 1000.94 274.391 1000.94 298.642Z" fill="#49263E"/>
<path d="M934.012 368.186C943.702 364.421 955.405 359.969 961.583 357.96C961.986 357.635 962.389 357.3 962.792 356.965C964.413 352.658 973.997 329.229 992.109 323.501C996.512 317.909 999.476 311.385 1000.52 304.335C991.351 297.684 977.978 295.901 962.495 295.431C958.724 295.313 955.463 285.178 954.187 281.83C952.863 278.337 950.474 276.002 947.759 276.002C945.092 276.002 942.752 278.247 941.409 281.631C940.056 285.043 936.699 295.205 932.832 295.214C920.275 295.259 909.08 295.901 900.35 300.028C900.686 309.548 904.494 318.298 910.711 325.356C911.996 326.433 913.32 327.492 914.682 328.524C914.327 337.672 914.903 364.367 934.012 368.186Z" fill="#F4F0ED"/>
<path d="M951.981 295.259C951.981 296.698 950.092 297.865 947.77 297.865C945.439 297.865 943.559 296.698 943.559 295.259C943.559 293.82 945.448 292.653 947.77 292.653C950.101 292.662 951.981 293.829 951.981 295.259Z" fill="#49263E"/>
<path d="M942.251 305.293C942.117 305.293 941.992 305.293 941.858 305.284C940.947 305.23 940.256 304.488 940.313 303.628C940.361 302.759 941.11 302.017 942.069 302.171C942.702 302.198 943.278 302.026 943.777 301.619C945.503 300.162 946.05 296.497 946.108 295.203C946.156 294.344 946.913 293.647 947.834 293.719C948.746 293.755 949.456 294.488 949.417 295.348C949.389 295.954 949.043 301.366 945.992 303.945C944.928 304.823 943.642 305.293 942.251 305.293Z" fill="#49263E"/>
<path d="M953.285 305.293C951.894 305.293 950.599 304.823 949.534 303.936C946.483 301.348 946.128 295.946 946.1 295.339C946.061 294.48 946.771 293.747 947.683 293.71C948.555 293.638 949.371 294.344 949.409 295.195C949.476 296.489 950.023 300.162 951.75 301.619C952.249 302.036 952.824 302.235 953.458 302.171C954.331 302.018 955.156 302.769 955.213 303.628C955.271 304.488 954.58 305.23 953.669 305.284C953.554 305.293 953.419 305.293 953.285 305.293Z" fill="#49263E"/>
<path d="M946.224 334.939C934.079 334.939 925.042 332.613 924.476 332.469C923.603 332.233 923.085 331.374 923.325 330.541C923.584 329.709 924.524 329.22 925.358 329.455C925.56 329.509 945.658 334.676 965.87 329.455C966.743 329.211 967.655 329.718 967.904 330.55C968.144 331.383 967.626 332.242 966.743 332.469C959.568 334.315 952.478 334.939 946.224 334.939Z" fill="#49263E"/>
<path d="M931.663 291.566C932.92 291.566 933.946 290.597 933.946 289.412V285.964C933.946 284.779 932.92 283.811 931.663 283.811C930.406 283.811 929.38 284.779 929.38 285.964V289.412C929.38 290.597 930.406 291.566 931.663 291.566Z" fill="#F4F0ED"/>
<path d="M963.876 291.566C965.133 291.566 966.159 290.598 966.159 289.413V285.965C966.159 284.78 965.133 283.811 963.876 283.811C962.619 283.811 961.593 284.78 961.593 285.965V289.413C961.593 290.598 962.619 291.566 963.876 291.566Z" fill="#F4F0ED"/>
</g>
<defs>
<radialGradient id="paint0_radial_611_10769" cx="0" cy="0" r="1" gradientUnits="userSpaceOnUse" gradientTransform="translate(490.1 344.99) rotate(-140.928) scale(770.398 362.065)">
<stop stop-color="#E89E00"/>
<stop offset="1" stop-color="white" stop-opacity="0"/>
</radialGradient>
<clipPath id="clip0_611_10769">
<rect width="1440" height="560" fill="white"/>
</clipPath>
</defs>
</svg>
