<svg width="375" height="400" viewBox="0 0 375 400" fill="none" xmlns="http://www.w3.org/2000/svg">
<g clip-path="url(#clip0_1494_10857)">
<rect width="375" height="400" fill="#FFC885"/>
<mask id="mask0_1494_10857" style="mask-type:luminance" maskUnits="userSpaceOnUse" x="-153" y="-16" width="732" height="412">
<path d="M578.523 -16H-153V395.339H578.523V-16Z" fill="white"/>
</mask>
<g mask="url(#mask0_1494_10857)">
<path style="mix-blend-mode:multiply" opacity="0.25" d="M-149.003 12.8245V70.4158H-171.238V71.9393H-149.003V129.531H-171.238V131.054H-149.003V188.645H-171.238V190.169H-149.003V247.76H-171.238V249.284H-149.003V306.875H-171.238V308.398H-149.003V365.99H-171.238V367.513H-149.003V426.67H-147.479V367.513H-89.8678V426.67H-88.3438V367.513H-30.7325V426.67H-29.2085V367.513H28.4027V426.67H29.9267V367.513H87.538V426.67H89.062V367.513H146.673V426.67H148.197V367.513H205.808V426.67H207.332V367.513H264.944V426.67H266.468V367.513H324.079V426.67H325.603V367.513H383.214V426.67H384.738V367.513H442.349V426.67H443.873V367.513H501.485V426.67H503.009V367.513H560.62V426.67H562.144V367.513H596.762V365.99H562.144V308.398H596.762V306.875H562.144V249.284H596.762V247.76H562.144V190.169H596.762V188.645H562.144V131.054H596.762V129.531H562.144V71.9393H596.762V70.4158H562.144V12.8245H596.762V11.301H562.144V-47.3301H560.62V11.301H503.009V-47.3301H501.485V11.301H443.873V-47.3301H442.349V11.301H384.738V-47.3301H383.214V11.301H325.603V-47.3301H324.079V11.301H266.468V-47.3301H264.944V11.301H207.332V-47.3301H205.808V11.301H148.197V-47.3301H146.673V11.301H89.062V-47.3301H87.538V11.301H29.9267V-47.3301H28.4027V11.301H-29.2085V-47.3301H-30.7325V11.301H-88.3438V-47.3301H-89.8678V11.301H-147.479V-47.3301H-149.003V11.301H-171.238V12.8245H-149.003ZM-30.7325 12.8245V70.4158H-88.3438V12.8245H-30.7325ZM89.062 131.054H146.673V188.645H89.062V131.054ZM87.538 188.645H29.9267V131.054H87.538V188.645ZM148.197 131.054H205.808V188.645H148.197V131.054ZM207.332 131.054H264.944V188.645H207.332V131.054ZM266.468 131.054H324.079V188.645H266.468V131.054ZM325.603 131.054H383.214V188.645H325.603V131.054ZM384.738 131.054H442.349V188.645H384.738V131.054ZM442.349 190.169V247.76H384.738V190.169H442.349ZM383.214 247.76H325.603V190.169H383.214V247.76ZM324.079 247.76H266.468V190.169H324.079V247.76ZM264.944 247.76H207.332V190.169H264.944V247.76ZM205.808 247.76H148.197V190.169H205.808V247.76ZM146.673 247.76H89.062V190.169H146.673V247.76ZM87.538 247.76H29.9267V190.169H87.538V247.76ZM28.4027 247.76H-29.2085V190.169H28.4027V247.76ZM-29.2085 188.645V131.054H28.4027V188.645H-29.2085ZM-29.2085 129.531V71.9393H28.4027V129.531H-29.2085ZM29.9267 71.9393H87.538V129.531H29.9267V71.9393ZM89.062 71.9393H146.673V129.531H89.062V71.9393ZM148.197 71.9393H205.808V129.531H148.197V71.9393ZM207.332 71.9393H264.944V129.531H207.332V71.9393ZM266.468 71.9393H324.079V129.531H266.468V71.9393ZM325.603 71.9393H383.214V129.531H325.603V71.9393ZM384.738 71.9393H442.349V129.531H384.738V71.9393ZM443.873 71.9393H501.485V129.531H443.873V71.9393ZM501.485 131.054V188.645H443.873V131.054H501.485ZM501.485 190.169V247.76H443.873V190.169H501.485ZM501.485 249.284V306.875H443.873V249.284H501.485ZM442.349 306.875H384.738V249.284H442.349V306.875ZM383.214 306.875H325.603V249.284H383.214V306.875ZM324.079 306.875H266.468V249.284H324.079V306.875ZM264.944 306.875H207.332V249.284H264.944V306.875ZM205.808 306.875H148.197V249.284H205.808V306.875ZM146.673 306.875H89.062V249.284H146.673V306.875ZM87.538 306.875H29.9267V249.284H87.538V306.875ZM28.4027 306.875H-29.2085V249.284H28.4027V306.875ZM-30.7325 306.875H-88.3438V249.284H-30.7325V306.875ZM-88.3438 247.76V190.169H-30.7325V247.76H-88.3438ZM-88.3438 188.645V131.054H-30.7325V188.645H-88.3438ZM-88.3438 129.531V71.9393H-30.7325V129.531H-88.3438ZM28.4027 12.8245V70.4158H-29.2085V12.8245H28.4027ZM87.538 12.8245V70.4158H29.9267V12.8245H87.538ZM146.673 12.8245V70.4158H89.062V12.8245H146.673ZM205.808 12.8245V70.4158H148.197V12.8245H205.808ZM264.944 12.8245V70.4158H207.332V12.8245H264.944ZM324.079 12.8245V70.4158H266.468V12.8245H324.079ZM383.214 12.8245V70.4158H325.603V12.8245H383.214ZM442.349 12.8245V70.4158H384.738V12.8245H442.349ZM501.485 12.8245V70.4158H443.873V12.8245H501.485ZM560.62 70.4158H503.009V12.8245H560.62V70.4158ZM560.62 129.531H503.009V71.9393H560.62V129.531ZM560.62 188.645H503.009V131.054H560.62V188.645ZM560.62 247.76H503.009V190.169H560.62V247.76ZM560.62 306.875H503.009V249.284H560.62V306.875ZM503.009 365.99V308.398H560.62V365.99H503.009ZM443.873 365.99V308.398H501.485V365.99H443.873ZM384.738 365.99V308.398H442.349V365.99H384.738ZM325.603 365.99V308.398H383.214V365.99H325.603ZM266.468 365.99V308.398H324.079V365.99H266.468ZM207.332 365.99V308.398H264.944V365.99H207.332ZM148.197 365.99V308.398H205.808V365.99H148.197ZM89.062 365.99V308.398H146.673V365.99H89.062ZM29.9267 365.99V308.398H87.538V365.99H29.9267ZM-29.2085 365.99V308.398H28.4027V365.99H-29.2085ZM-88.3438 365.99V308.398H-30.7325V365.99H-88.3438ZM-147.479 308.398H-89.8678V365.99H-147.479V308.398ZM-147.479 249.284H-89.8678V306.875H-147.479V249.284ZM-147.479 190.169H-89.8678V247.76H-147.479V190.169ZM-147.479 131.054H-89.8678V188.645H-147.479V131.054ZM-147.479 71.9393H-89.8678V129.531H-147.479V71.9393ZM-147.479 12.8245H-89.8678V70.4158H-147.479V12.8245Z" fill="url(#paint0_radial_1494_10857)"/>
</g>
<path d="M126.796 551.149C85.5756 549.79 42.3298 540.71 12.7582 513.676C-6.49834 496.075 -18.2755 472.244 -24.9842 447.762C-49.7737 357.309 -8.89924 249.005 98.1037 232.978C166.317 222.762 182.461 36.5306 441.432 119.682C654.054 187.952 572.75 338.563 586.642 398.024C592.866 424.667 640.963 511.981 559.105 550.795C446.826 550.74 334.488 550.805 222.278 549.585C190.84 549.24 159.45 552.108 128.011 551.187C127.606 551.177 127.201 551.168 126.796 551.149Z" fill="#FFF3E4"/>
<path d="M159.937 153.305C180.283 138.078 192.962 147.436 200.611 130.066C203.796 121.507 207.438 109.302 208.864 106.664C218.543 88.7704 238.735 85.8299 258.747 95.2455C265.235 98.2967 270.914 101.854 275.106 106.175C276.155 107.252 277.106 108.382 277.957 109.564C278.383 110.152 278.816 110.74 279.155 111.369C283.204 118.939 284.711 125.973 278.482 144.949C271.871 165.097 300.643 155.803 300.736 190.775C300.773 203.9 292.501 246.308 220.796 248.597C189.512 249.592 147.332 228.612 139.215 201.49C135.844 190.24 139.591 168.538 159.937 153.305Z" fill="#75434B"/>
<path d="M354.261 257.651C354.261 257.651 322.859 203.719 305.118 192.877C282.877 179.287 254.58 179.776 229.16 178.506C214.45 177.773 199.308 176.387 184.882 179.985C171.678 183.281 161.252 190.484 151.832 199.603C143.665 207.504 107.232 272.051 101.084 296.961C95.2631 320.514 114.745 342.932 140.838 342.799C152.912 342.735 166.573 342.525 179.338 341.995H242.487H305.945L361.853 342.257C408.595 324.596 354.261 257.651 354.261 257.651Z" fill="#9679BC"/>
<path d="M377.62 298.794C358.286 332.031 325.817 324.438 325.817 324.438C325.817 324.438 241.852 330.407 173.685 330.075C125.462 329.842 107.486 307.599 102.418 292.313C101.881 293.979 101.431 295.528 101.079 296.954C95.2577 320.508 114.74 342.926 140.832 342.792C152.907 342.728 166.567 342.518 179.333 341.988H242.482H305.94L361.848 342.25C382.99 334.267 383.453 316.193 377.62 298.794Z" fill="#7C5FAA"/>
<mask id="mask1_1494_10857" style="mask-type:luminance" maskUnits="userSpaceOnUse" x="100" y="177" width="281" height="166">
<path d="M354.261 257.649C354.261 257.649 322.859 203.717 305.118 192.875C282.877 179.285 254.58 179.774 229.16 178.504C214.45 177.771 199.308 176.385 184.882 179.983C171.678 183.279 161.252 190.482 151.832 199.601C143.665 207.502 107.232 272.049 101.084 296.959C95.2631 320.512 114.745 342.931 140.838 342.797C152.912 342.733 166.573 342.523 179.338 341.993H242.487H305.945L361.853 342.255C408.595 324.594 354.261 257.649 354.261 257.649Z" fill="white"/>
</mask>
<g mask="url(#mask1_1494_10857)">
<path d="M233.043 228.651C180.283 228.651 148.11 200.649 147.758 200.335C147.332 199.95 147.314 199.316 147.715 198.914C148.122 198.512 148.801 198.489 149.221 198.873C149.604 199.217 188.462 232.978 250.753 225.588C312.804 218.234 324.193 194.494 324.298 194.256C324.532 193.743 325.162 193.51 325.699 193.726C326.242 193.941 326.495 194.523 326.267 195.036C325.816 196.055 314.477 220.063 251.025 227.58C244.79 228.319 238.796 228.651 233.043 228.651Z" fill="#F4F0ED"/>
<path d="M239.573 263.247C207.598 263.247 177.079 259.357 174.918 259.078C143.06 254.477 118.794 240.002 118.553 239.856C118.059 239.559 117.911 238.936 118.232 238.47C118.547 237.999 119.207 237.865 119.701 238.168C119.936 238.313 143.85 252.562 175.227 257.092C176.122 257.208 266.037 268.674 299.969 252.568C300.105 252.504 300.259 252.469 300.408 252.463C300.84 252.451 343.093 250.92 352.976 235.99C353.285 235.512 353.945 235.378 354.445 235.67C354.945 235.961 355.094 236.584 354.785 237.055C344.587 252.457 304.531 254.32 300.716 254.466C286.228 261.238 262.524 263.247 239.573 263.247Z" fill="#F4F0ED"/>
<path d="M377.385 331.087C377.12 331.087 376.86 330.994 376.651 330.814C360.897 316.752 342.551 307.581 342.366 307.487C341.848 307.231 341.65 306.62 341.916 306.131C342.193 305.636 342.829 305.449 343.36 305.711C343.545 305.805 362.138 315.098 378.114 329.358C378.54 329.742 378.558 330.377 378.151 330.779C377.947 330.983 377.669 331.087 377.385 331.087Z" fill="#F4F0ED"/>
<path d="M158.437 289.891C158.264 289.891 158.091 289.851 157.93 289.769C141.165 281.192 103.43 277.925 103.047 277.896C102.467 277.844 102.028 277.36 102.084 276.807C102.139 276.254 102.559 275.835 103.244 275.893C104.806 276.027 141.794 279.224 158.943 288.005C159.461 288.267 159.653 288.878 159.375 289.367C159.177 289.699 158.807 289.891 158.437 289.891Z" fill="#F4F0ED"/>
<path d="M129.986 345.907C129.449 345.907 128.992 345.528 128.93 345.016C125.214 314.737 150.209 290.298 150.455 290.054C150.863 289.652 151.548 289.646 151.968 290.036C152.388 290.426 152.394 291.061 151.98 291.457C151.733 291.696 127.449 315.471 131.042 344.777C131.109 345.33 130.696 345.825 130.103 345.889C130.066 345.901 130.023 345.907 129.986 345.907Z" fill="#F4F0ED"/>
<path d="M192.974 350.265C192.493 350.265 192.061 349.956 191.937 349.496C187.314 331.451 191.727 285.625 191.913 283.68C191.968 283.127 192.474 282.714 193.067 282.772C193.653 282.824 194.085 283.314 194.03 283.867C193.981 284.338 189.456 331.3 194.005 349.019C194.141 349.56 193.795 350.102 193.221 350.23C193.135 350.253 193.055 350.265 192.974 350.265Z" fill="#F4F0ED"/>
<path d="M305.18 345.908C304.772 345.908 304.384 345.687 304.211 345.314L296.217 328.597C295.97 328.09 296.211 327.496 296.748 327.263C297.297 327.042 297.92 327.263 298.155 327.764L306.149 344.487C306.396 344.994 306.155 345.588 305.618 345.815C305.476 345.879 305.328 345.908 305.18 345.908Z" fill="#F4F0ED"/>
</g>
<path d="M355.651 289.309C355.553 289.309 355.454 289.297 355.355 289.268C354.793 289.111 354.466 288.558 354.627 288.022C358.454 275.503 358.071 265.819 353.491 259.234C348.806 252.508 341.2 251.507 341.12 251.501C340.54 251.431 340.126 250.93 340.2 250.377C340.275 249.83 340.805 249.405 341.386 249.504C341.737 249.544 350.009 250.598 355.244 258.092C360.207 265.185 360.688 275.445 356.67 288.569C356.54 289.023 356.114 289.309 355.651 289.309Z" fill="#49263E"/>
<path d="M299.706 275.54C298.965 275.446 298.57 274.934 298.651 274.387C302.311 251.153 290.86 223.943 290.743 223.669C290.521 223.157 290.786 222.569 291.336 222.359C291.873 222.15 292.496 222.4 292.718 222.918C292.836 223.198 304.503 250.915 300.762 274.684C300.682 275.184 300.225 275.54 299.706 275.54Z" fill="#49263E"/>
<path d="M207.729 172.765L232.551 111.928L244.952 100.573C244.952 100.573 264.594 103.758 273.533 113.64C277.78 118.333 277.021 126.421 275.416 132.896C270.416 153.002 263.86 170.098 255.236 174.337C252.477 175.694 249.391 176.078 242.588 173.947L240.397 181.465C243.341 187.951 251.57 214.655 229.199 208.116C206.84 201.577 207.729 172.765 207.729 172.765Z" fill="#FF9D76"/>
<path d="M246.606 140.385C247.359 140.589 248.15 140.176 248.366 139.471L248.995 137.41C249.211 136.699 248.773 135.954 248.026 135.75C247.273 135.546 246.483 135.96 246.267 136.664L245.637 138.726C245.421 139.43 245.859 140.181 246.606 140.385Z" fill="#49263E"/>
<path d="M266.02 146.331C266.773 146.534 267.563 146.121 267.779 145.416L268.409 143.355C268.625 142.645 268.187 141.899 267.44 141.696C266.687 141.492 265.896 141.905 265.68 142.61L265.051 144.671C264.835 145.376 265.273 146.127 266.02 146.331Z" fill="#49263E"/>
<path d="M273.538 141.038C273.18 141.038 272.829 140.869 272.631 140.56C272.526 140.403 270.236 137.09 265.316 138.4C264.742 138.563 264.162 138.237 264.001 137.701C263.841 137.166 264.174 136.612 264.742 136.467C269.995 135.075 273.39 137.853 274.452 139.512C274.755 139.99 274.594 140.607 274.088 140.892C273.921 140.991 273.73 141.038 273.538 141.038Z" fill="#75434B"/>
<path d="M255.094 134.499C254.736 134.499 254.391 134.33 254.187 134.027C254.094 133.882 251.792 130.539 246.81 131.844C246.236 131.995 245.656 131.681 245.495 131.145C245.335 130.609 245.668 130.056 246.236 129.91C251.483 128.525 254.915 131.302 256.002 132.967C256.31 133.439 256.156 134.056 255.656 134.347C255.483 134.452 255.286 134.499 255.094 134.499Z" fill="#75434B"/>
<path d="M257.915 156C257.588 156 257.267 155.989 256.977 155.971C256.391 155.936 255.946 155.459 255.983 154.905C256.014 154.352 256.502 153.91 257.113 153.968C257.162 153.974 263.267 154.271 263.452 151.668C263.526 150.567 263.113 148.937 262.675 147.213C261.687 143.3 260.452 138.427 264.564 136.523C265.076 136.284 265.73 136.482 265.983 136.983C266.243 137.483 266.026 138.083 265.496 138.328C263.101 139.434 263.675 142.514 264.743 146.748C265.218 148.623 265.668 150.393 265.57 151.802C265.341 155.133 261.02 156 257.915 156Z" fill="#EF685E"/>
<path d="M281.495 305.654C281.736 307.96 283.36 309.695 285.119 309.526C286.878 309.363 288.107 307.36 287.866 305.054C287.625 302.749 286.002 301.013 284.242 301.182C282.483 301.345 281.255 303.348 281.495 305.654Z" fill="white"/>
<path d="M167.006 281.456C166.574 281.456 166.166 281.206 166.006 280.804L161.506 269.508C161.296 268.989 161.58 268.407 162.129 268.215C162.685 268.023 163.296 268.279 163.506 268.803L168.006 280.1C168.216 280.618 167.932 281.2 167.382 281.392C167.253 281.439 167.129 281.456 167.006 281.456Z" fill="#49263E"/>
<path d="M173.685 286.801C173.049 286.777 172.592 286.306 172.617 285.753L175.37 226.54C175.394 225.998 175.864 225.579 176.438 225.579C177.073 225.602 177.53 226.074 177.506 226.627L174.752 285.84C174.728 286.381 174.252 286.801 173.685 286.801Z" fill="#49263E"/>
<path d="M241.563 261.833C241.563 261.833 238.884 272.506 254.402 288.449C254.402 288.449 277.526 277.124 275.415 262.8L241.563 261.833Z" fill="white"/>
<path d="M256.502 273.792C247.829 273.792 241.279 272.348 240.736 272.226C239.829 272.016 239.267 271.16 239.489 270.304C239.711 269.454 240.619 268.93 241.526 269.128C241.779 269.186 267.736 274.881 284.57 263.078C285.317 262.554 286.385 262.705 286.934 263.41C287.496 264.115 287.342 265.116 286.589 265.64C277.267 272.168 265.693 273.792 256.502 273.792Z" fill="#49263E"/>
<path d="M327.077 249.512C301.323 232.778 285.576 234.973 285.576 234.973L231.112 260.815L224.705 275.139C207.908 281.398 197.254 297.44 206.254 303.025C212.871 307.13 224.581 293.295 233.242 292.305C233.242 292.305 218.359 304.946 230.199 310.169C238.693 313.919 246.631 305.15 256.039 304.719C263.354 304.381 269.354 303.764 271.601 304.137C274.07 310.14 280.064 325.274 292.718 326.619C311.361 328.599 329.978 330.666 341.682 319.311C355.176 306.227 351.614 265.455 327.077 249.512Z" fill="#49263E"/>
<path d="M256.125 161.296C254.261 161.296 252.705 160.772 251.483 159.736C248.6 157.285 248.767 152.877 248.773 152.69C248.798 152.137 249.273 151.759 249.884 151.729C250.471 151.753 250.934 152.219 250.909 152.772C250.903 152.807 250.779 156.434 252.921 158.245C253.983 159.142 255.483 159.462 257.403 159.194C257.983 159.113 258.526 159.486 258.613 160.039C258.705 160.586 258.298 161.098 257.724 161.18C257.162 161.262 256.631 161.296 256.125 161.296Z" fill="#49263E"/>
<path d="M279.55 227.589C279.55 227.589 274.544 201.293 269.334 200.623C264.124 199.954 257.747 218.331 257.747 218.331L279.55 227.589Z" fill="#49263E"/>
<path d="M274.798 221.701C274.798 221.701 271.977 206.882 269.038 206.503C266.1 206.125 262.507 216.484 262.507 216.484L274.798 221.701Z" fill="#FFBBC8"/>
<path d="M284.243 302.186C283.644 302.18 283.175 301.726 283.175 301.173C283.293 289.224 287.126 280.018 294.564 273.799C307.102 263.33 325.176 265.112 325.935 265.187C326.522 265.245 326.935 265.746 326.873 266.299C326.806 266.853 326.269 267.266 325.694 267.184C325.509 267.161 307.762 265.432 295.959 275.313C289.003 281.136 285.41 289.841 285.299 301.19C285.305 301.743 284.83 302.186 284.243 302.186Z" fill="#F4F0ED"/>
<path d="M308.54 316.811C309.361 314.197 302.188 304.572 299.342 302.341C296.151 299.838 284.897 298.865 284.897 298.865L250.045 305.352V333.622L262.52 333.133C262.52 333.133 283.101 340.732 289.292 339.666C295.484 338.6 300.836 327.386 300.836 327.386C300.836 327.386 310.904 328.183 311.632 324.707C312.577 320.229 310.632 317.964 308.54 316.811Z" fill="#FF9D76"/>
<path d="M311.261 318.483C311.07 318.483 310.879 318.436 310.7 318.337L291.168 307.507C290.644 307.216 290.465 306.569 290.773 306.074C291.082 305.574 291.761 305.411 292.298 305.702L311.829 316.532C312.354 316.823 312.533 317.47 312.224 317.97C312.008 318.297 311.638 318.483 311.261 318.483Z" fill="#EF685E"/>
<path d="M301.804 328.487C301.638 328.487 301.465 328.452 301.311 328.376L288.57 322.39C288.02 322.134 287.798 321.505 288.076 320.987C288.347 320.463 289.014 320.253 289.563 320.515L302.304 326.501C302.854 326.757 303.076 327.386 302.798 327.904C302.601 328.271 302.206 328.487 301.804 328.487Z" fill="#EF685E"/>
<path d="M296.804 335.037C296.662 335.037 296.514 335.008 296.372 334.956L286.514 331.049C285.952 330.822 285.68 330.21 285.921 329.675C286.156 329.139 286.816 328.894 287.372 329.116L297.23 333.023C297.792 333.25 298.063 333.861 297.822 334.397C297.65 334.793 297.242 335.037 296.804 335.037Z" fill="#EF685E"/>
<path d="M291.032 340.156C290.927 340.156 290.822 340.144 290.711 340.109L283.81 338.153C283.223 337.99 282.89 337.402 283.063 336.848C283.242 336.295 283.871 335.975 284.445 336.144L291.347 338.1C291.933 338.263 292.267 338.851 292.094 339.405C291.952 339.859 291.507 340.156 291.032 340.156Z" fill="#EF685E"/>
<path d="M276.18 182.332C260.76 179.397 244.439 179.269 229.161 178.506C214.451 177.773 199.309 176.387 184.883 179.985C183.346 180.37 181.846 180.806 180.376 181.296C187.494 190.088 209.334 214.032 234.204 211.481C255.649 209.286 269.742 192.196 276.18 182.332Z" fill="#FF9D76"/>
<path d="M227.358 165.72C233.192 171.228 242.593 173.948 242.593 173.948L238.55 187.567C232.531 185.914 228.383 174.984 226.587 166.244C226.482 165.743 226.975 165.359 227.358 165.72Z" fill="#EF685E"/>
<path d="M228.235 227.589C228.235 227.589 233.241 201.293 238.451 200.623C243.661 199.954 250.038 218.331 250.038 218.331L228.235 227.589Z" fill="#49263E"/>
<path d="M232.994 221.701C232.994 221.701 235.815 206.882 238.753 206.503C241.692 206.125 245.284 216.484 245.284 216.484L232.994 221.701Z" fill="#FFBBC8"/>
<path d="M129.987 298.883C129.58 298.883 129.191 298.662 129.012 298.289C128.777 297.782 129.012 297.188 129.549 296.961C130.135 296.717 188.352 272.482 231.742 287.703C232.291 287.895 232.575 288.472 232.371 288.996C232.167 289.514 231.538 289.782 231.001 289.59C188.42 274.648 130.999 298.551 130.419 298.795C130.283 298.854 130.129 298.883 129.987 298.883Z" fill="#49263E"/>
<path d="M249.94 343.002C249.347 343.002 248.872 342.548 248.872 341.995L248.97 301.182C248.97 300.629 249.446 300.181 250.038 300.181C250.631 300.181 251.106 300.635 251.106 301.188L251.007 342.001C251.007 342.554 250.526 343.002 249.94 343.002Z" fill="#49263E"/>
<path d="M291.959 254.229C292.799 258.171 299.682 257.111 300.244 257.012C299.725 257.099 293.892 258.188 296.157 261.862C297.367 263.831 299.898 265.216 305.713 263.487C313.75 261.094 320.688 258.887 320.688 258.887C320.688 258.887 315.54 262.975 308.515 266.317C304.515 268.221 305.095 271.098 305.849 271.965C307.713 274.125 309.725 274.865 317.38 271.691C325.034 268.518 329.225 266.206 329.225 266.206C329.225 266.206 338.398 278.423 345.232 279.576C347.183 279.908 348.608 277.846 349.621 275.144C351.868 269.159 350.763 262.503 346.874 257.315C343.645 253.006 339.664 248.219 337.571 247.69C328.904 245.489 315.546 241.488 314.188 241.715C309.947 242.42 302.404 245.168 295.725 249.262C291.959 251.562 291.669 252.872 291.959 254.229Z" fill="#FF9D76"/>
<path d="M297.193 259.125C296.761 259.125 296.353 258.887 296.174 258.497C295.927 257.967 296.186 257.349 296.748 257.117C296.958 257.035 317.637 248.551 319.1 247.893C319.662 247.643 320.323 247.864 320.582 248.388C320.847 248.912 320.613 249.535 320.057 249.786C318.563 250.455 298.489 258.689 297.637 259.038C297.489 259.096 297.341 259.125 297.193 259.125Z" fill="#EF685E"/>
<path d="M316.675 262.759C316.311 262.759 315.947 262.584 315.737 262.27C315.41 261.781 315.564 261.134 316.083 260.826L324.688 255.678C325.206 255.364 325.892 255.515 326.219 256.004C326.546 256.493 326.392 257.14 325.873 257.448L317.268 262.596C317.083 262.706 316.879 262.759 316.675 262.759Z" fill="#EF685E"/>
<path d="M314.188 241.717C314.188 241.717 294.595 241.292 292.651 242.066C290.706 242.841 291.867 249.968 295.718 249.263L314.188 241.717Z" fill="#FF9D76"/>
<path d="M293.503 251.563C293.077 251.563 292.676 251.336 292.49 250.945C292.237 250.416 292.484 249.798 293.046 249.56L314.244 240.54C314.799 240.301 315.466 240.534 315.713 241.064C315.966 241.594 315.719 242.211 315.157 242.45L293.96 251.469C293.811 251.534 293.657 251.563 293.503 251.563Z" fill="#EF685E"/>
<path d="M346.064 306.359C345.589 306.359 345.151 306.056 345.033 305.602C344.891 305.061 345.231 304.519 345.805 304.379C348.811 303.657 350.891 299.226 351.435 297.578C351.614 297.048 352.206 296.757 352.768 296.92C353.33 297.083 353.638 297.648 353.465 298.178C353.367 298.463 351.107 305.183 346.317 306.33C346.237 306.347 346.151 306.359 346.064 306.359Z" fill="#49263E"/>
<path d="M280.007 118.821C278.31 113.156 262.569 101.982 262.569 101.982L244.469 97.1777L234.284 98.5461L214.302 113.587L222.926 122.484L210.222 153.91C210.222 153.91 191.777 165.532 188.734 165.893C181.16 166.784 175.061 183.315 175.061 183.315C175.061 183.315 206.494 193.587 218.568 183.315C226.099 176.91 229.346 156.874 230.722 142.701C231.438 135.347 237.55 127.101 245.284 125.978C262.044 123.544 274.427 121.343 274.427 121.343C274.427 121.343 278.229 123.911 274.797 140.465C274.797 140.459 281.606 124.161 280.007 118.821Z" fill="#75434B"/>
<path d="M274.328 124.185C274.198 124.185 274.062 124.162 273.939 124.115C273.39 123.912 273.124 123.324 273.34 122.811C275.791 116.977 274.803 112.412 274.791 112.365C274.667 111.823 275.038 111.288 275.612 111.171C276.174 111.037 276.754 111.404 276.877 111.946C276.927 112.155 278.013 117.157 275.322 123.551C275.149 123.947 274.754 124.185 274.328 124.185Z" fill="#FF9D76"/>
<path d="M62.3932 239.711C62.3932 239.711 46.2633 211.313 81.0169 204.978C81.0169 204.978 99.6222 231.71 62.3932 239.711Z" fill="#3F9896"/>
<path d="M46.0413 235.209C46.0413 235.209 11.9173 236.437 21.1088 204.196C21.1088 204.196 54.7328 200.138 46.0413 235.209Z" fill="#80C7A7"/>
<path d="M51.5466 272.711C51.5466 272.711 18.3671 280.345 20.5462 247.02C20.5462 247.02 52.6392 236.708 51.5466 272.711Z" fill="#3F9896"/>
<path d="M51.5465 273.718C51.2872 273.718 51.028 273.63 50.8243 273.45L24.5646 250.479C24.1325 250.1 24.1078 249.466 24.5091 249.058C24.9165 248.65 25.5893 248.627 26.0153 249.006L52.2749 271.977C52.707 272.355 52.7317 272.99 52.3305 273.398C52.1144 273.607 51.8305 273.718 51.5465 273.718Z" fill="#80C7A7"/>
<path d="M46.0413 236.219C45.7079 236.219 45.3808 236.073 45.1709 235.794L23.9237 207.501C23.578 207.046 23.6953 206.423 24.1768 206.097C24.6583 205.777 25.3187 205.882 25.6644 206.336L46.9116 234.629C47.2512 235.084 47.1401 235.707 46.6586 236.033C46.4672 236.155 46.2512 236.219 46.0413 236.219Z" fill="#3F9896"/>
<path d="M62.3932 240.712C62.2265 240.712 62.066 240.677 61.9117 240.601C61.387 240.351 61.1771 239.745 61.4426 239.25L76.4736 211.195C76.7453 210.701 77.3872 210.503 77.9058 210.753C78.4305 211.003 78.6404 211.609 78.3749 212.104L63.3438 240.158C63.1525 240.514 62.7821 240.712 62.3932 240.712Z" fill="#80C7A7"/>
<path d="M59.4617 296.327C58.9061 296.327 58.4432 295.926 58.3999 295.402C55.6036 260.808 44.696 235.513 44.5849 235.263C44.3565 234.751 44.6158 234.162 45.1652 233.953C45.696 233.732 46.3257 233.982 46.5541 234.494C46.6652 234.751 57.7024 260.313 60.5234 295.244C60.5728 295.798 60.1283 296.281 59.5419 296.327C59.5172 296.322 59.4864 296.327 59.4617 296.327Z" fill="#49263E"/>
<path d="M55.2452 267.935C54.6403 267.923 54.1711 267.469 54.1773 266.91C54.4551 252.871 60.8256 239.834 61.0972 239.286C61.3441 238.786 61.9799 238.558 62.5108 238.803C63.0478 239.036 63.2762 239.636 63.0293 240.136C62.9676 240.265 56.5848 253.349 56.3132 266.945C56.3008 267.492 55.8255 267.935 55.2452 267.935Z" fill="#49263E"/>
<path d="M58.2938 285.438C57.9172 285.438 57.5531 285.252 57.3555 284.914L50.2381 272.645C49.9603 272.156 50.1455 271.55 50.6641 271.283C51.1826 271.021 51.8308 271.195 52.1085 271.684L59.2259 283.953C59.5037 284.442 59.3185 285.048 58.8 285.316C58.6395 285.397 58.4666 285.438 58.2938 285.438Z" fill="#49263E"/>
<path d="M36.7319 292.32H82.1894L78.9918 341.995H40.2814L36.7319 292.32Z" fill="#F75454"/>
<path d="M81.5612 302.186H37.3692C36.7828 302.186 36.3013 301.737 36.3013 301.178C36.3013 300.625 36.7766 300.171 37.3692 300.171H81.5612C82.1476 300.171 82.6291 300.619 82.6291 301.178C82.623 301.737 82.1476 302.186 81.5612 302.186Z" fill="#49263E"/>
<path d="M397.294 306.597C397.294 306.597 367.997 269.243 377.584 261.161C387.17 253.073 405.282 288.855 405.819 301.618C405.819 301.618 395.695 221.152 414.344 223.295C432.986 225.438 414.344 297.88 414.344 297.88C414.344 297.88 430.856 256.293 440.443 256.194C450.029 256.089 423.813 305.357 423.813 305.357L397.294 306.597Z" fill="#3F9896"/>
<path d="M439.906 343.031H34.252C33.6656 343.031 33.1841 342.583 33.1841 342.024C33.1841 341.471 33.6594 341.017 34.252 341.017H439.906C440.493 341.017 440.974 341.465 440.974 342.024C440.974 342.577 440.499 343.031 439.906 343.031Z" fill="#49263E"/>
<path d="M286.484 243.56C286.484 259.165 271.989 270.567 254.119 270.567C236.242 270.567 221.748 259.165 221.748 243.56C221.748 227.955 236.242 215.302 254.119 215.302C271.989 215.302 286.484 227.955 286.484 243.56Z" fill="#49263E"/>
<path d="M243.415 288.309C249.649 285.886 257.18 283.022 261.156 281.729C261.415 281.519 261.674 281.304 261.933 281.088C262.977 278.317 269.144 263.241 280.798 259.555C283.631 255.957 285.539 251.759 286.212 247.223C280.31 242.943 271.705 241.796 261.742 241.493C259.316 241.417 257.217 234.896 256.396 232.741C255.545 230.494 254.007 228.991 252.26 228.991C250.544 228.991 249.038 230.435 248.174 232.613C247.304 234.808 245.143 241.347 242.655 241.353C234.575 241.382 227.371 241.796 221.754 244.451C221.97 250.577 224.421 256.207 228.421 260.749C229.248 261.442 230.1 262.123 230.976 262.787C230.748 268.674 231.118 285.852 243.415 288.309Z" fill="#F4F0ED"/>
<path d="M254.977 241.381C254.977 242.307 253.761 243.058 252.267 243.058C250.767 243.058 249.557 242.307 249.557 241.381C249.557 240.455 250.773 239.704 252.267 239.704C253.767 239.71 254.977 240.461 254.977 241.381Z" fill="#49263E"/>
<path d="M248.716 247.838C248.629 247.838 248.549 247.838 248.463 247.833C247.876 247.798 247.432 247.32 247.469 246.767C247.5 246.208 247.981 245.731 248.599 245.83C249.006 245.847 249.376 245.736 249.697 245.474C250.809 244.537 251.16 242.179 251.197 241.346C251.228 240.793 251.716 240.344 252.309 240.391C252.895 240.414 253.352 240.886 253.327 241.439C253.309 241.829 253.086 245.311 251.123 246.971C250.438 247.536 249.611 247.838 248.716 247.838Z" fill="#49263E"/>
<path d="M255.816 247.84C254.921 247.84 254.088 247.538 253.402 246.967C251.439 245.302 251.211 241.825 251.192 241.435C251.168 240.882 251.624 240.41 252.211 240.387C252.773 240.34 253.297 240.795 253.322 241.342C253.365 242.175 253.717 244.539 254.828 245.476C255.149 245.744 255.52 245.872 255.927 245.831C256.489 245.732 257.02 246.216 257.057 246.769C257.094 247.322 256.649 247.8 256.063 247.835C255.989 247.84 255.902 247.84 255.816 247.84Z" fill="#49263E"/>
<path d="M251.273 266.917C243.458 266.917 237.643 265.42 237.279 265.327C236.717 265.176 236.383 264.623 236.538 264.087C236.704 263.551 237.309 263.237 237.846 263.388C237.976 263.423 250.908 266.748 263.915 263.388C264.476 263.231 265.063 263.557 265.223 264.093C265.378 264.629 265.044 265.182 264.476 265.327C259.859 266.515 255.297 266.917 251.273 266.917Z" fill="#49263E"/>
<path d="M241.903 239.006C242.711 239.006 243.372 238.383 243.372 237.62V235.401C243.372 234.639 242.711 234.016 241.903 234.016C241.094 234.016 240.434 234.639 240.434 235.401V237.62C240.434 238.383 241.094 239.006 241.903 239.006Z" fill="#F4F0ED"/>
<path d="M262.631 239.007C263.44 239.007 264.1 238.384 264.1 237.621V235.402C264.1 234.64 263.44 234.017 262.631 234.017C261.823 234.017 261.162 234.64 261.162 235.402V237.621C261.162 238.384 261.823 239.007 262.631 239.007Z" fill="#F4F0ED"/>
</g>
<defs>
<radialGradient id="paint0_radial_1494_10857" cx="0" cy="0" r="1" gradientUnits="userSpaceOnUse" gradientTransform="translate(86.2484 189.665) rotate(-140.93) scale(414.035 194.582)">
<stop stop-color="#E89E00"/>
<stop offset="1" stop-color="white" stop-opacity="0"/>
</radialGradient>
<clipPath id="clip0_1494_10857">
<rect width="375" height="400" fill="white"/>
</clipPath>
</defs>
</svg>
