<svg width="768" height="390" viewBox="0 0 768 390" fill="none" xmlns="http://www.w3.org/2000/svg">
<g clip-path="url(#clip0_1494_10570)">
<rect width="768" height="389.354" fill="#FFC885"/>
<mask id="mask0_1494_10570" style="mask-type:luminance" maskUnits="userSpaceOnUse" x="11" y="26" width="732" height="412">
<path d="M742.761 26.3301H11.2383V437.669H742.761V26.3301Z" fill="white"/>
</mask>
<g mask="url(#mask0_1494_10570)">
<path style="mix-blend-mode:multiply" opacity="0.25" d="M15.2353 55.1546V112.746H-7V114.269H15.2353V171.861H-7V173.384H15.2353V230.975H-7V232.499H15.2353V290.09H-7V291.614H15.2353V349.205H-7V350.729H15.2353V408.32H-7V409.843H15.2353V469H16.7593V409.843H74.3705V469H75.8945V409.843H133.506V469H135.03V409.843H192.641V469H194.165V409.843H251.776V469H253.3V409.843H310.911V469H312.435V409.843H370.047V469H371.571V409.843H429.182V469H430.706V409.843H488.317V469H489.841V409.843H547.452V469H548.977V409.843H606.588V469H608.112V409.843H665.723V469H667.247V409.843H724.858V469H726.382V409.843H761V408.32H726.382V350.729H761V349.205H726.382V291.614H761V290.09H726.382V232.499H761V230.975H726.382V173.384H761V171.861H726.382V114.269H761V112.746H726.382V55.1546H761V53.6311H726.382V-5H724.858V53.6311H667.247V-5H665.723V53.6311H608.112V-5H606.588V53.6311H548.977V-5H547.452V53.6311H489.841V-5H488.317V53.6311H430.706V-5H429.182V53.6311H371.571V-5H370.047V53.6311H312.435V-5H310.911V53.6311H253.3V-5H251.776V53.6311H194.165V-5H192.641V53.6311H135.03V-5H133.506V53.6311H75.8945V-5H74.3705V53.6311H16.7593V-5H15.2353V53.6311H-7V55.1546H15.2353ZM133.506 55.1546V112.746H75.8945V55.1546H133.506ZM253.3 173.384H310.911V230.975H253.3V173.384ZM251.776 230.975H194.165V173.384H251.776V230.975ZM312.435 173.384H370.047V230.975H312.435V173.384ZM371.571 173.384H429.182V230.975H371.571V173.384ZM430.706 173.384H488.317V230.975H430.706V173.384ZM489.841 173.384H547.452V230.975H489.841V173.384ZM548.977 173.384H606.588V230.975H548.977V173.384ZM606.588 232.499V290.09H548.977V232.499H606.588ZM547.452 290.09H489.841V232.499H547.452V290.09ZM488.317 290.09H430.706V232.499H488.317V290.09ZM429.182 290.09H371.571V232.499H429.182V290.09ZM370.047 290.09H312.435V232.499H370.047V290.09ZM310.911 290.09H253.3V232.499H310.911V290.09ZM251.776 290.09H194.165V232.499H251.776V290.09ZM192.641 290.09H135.03V232.499H192.641V290.09ZM135.03 230.975V173.384H192.641V230.975H135.03ZM135.03 171.861V114.269H192.641V171.861H135.03ZM194.165 114.269H251.776V171.861H194.165V114.269ZM253.3 114.269H310.911V171.861H253.3V114.269ZM312.435 114.269H370.047V171.861H312.435V114.269ZM371.571 114.269H429.182V171.861H371.571V114.269ZM430.706 114.269H488.317V171.861H430.706V114.269ZM489.841 114.269H547.452V171.861H489.841V114.269ZM548.977 114.269H606.588V171.861H548.977V114.269ZM608.112 114.269H665.723V171.861H608.112V114.269ZM665.723 173.384V230.975H608.112V173.384H665.723ZM665.723 232.499V290.09H608.112V232.499H665.723ZM665.723 291.614V349.205H608.112V291.614H665.723ZM606.588 349.205H548.977V291.614H606.588V349.205ZM547.452 349.205H489.841V291.614H547.452V349.205ZM488.317 349.205H430.706V291.614H488.317V349.205ZM429.182 349.205H371.571V291.614H429.182V349.205ZM370.047 349.205H312.435V291.614H370.047V349.205ZM310.911 349.205H253.3V291.614H310.911V349.205ZM251.776 349.205H194.165V291.614H251.776V349.205ZM192.641 349.205H135.03V291.614H192.641V349.205ZM133.506 349.205H75.8945V291.614H133.506V349.205ZM75.8945 290.09V232.499H133.506V290.09H75.8945ZM75.8945 230.975V173.384H133.506V230.975H75.8945ZM75.8945 171.861V114.269H133.506V171.861H75.8945ZM192.641 55.1546V112.746H135.03V55.1546H192.641ZM251.776 55.1546V112.746H194.165V55.1546H251.776ZM310.911 55.1546V112.746H253.3V55.1546H310.911ZM370.047 55.1546V112.746H312.435V55.1546H370.047ZM429.182 55.1546V112.746H371.571V55.1546H429.182ZM488.317 55.1546V112.746H430.706V55.1546H488.317ZM547.452 55.1546V112.746H489.841V55.1546H547.452ZM606.588 55.1546V112.746H548.977V55.1546H606.588ZM665.723 55.1546V112.746H608.112V55.1546H665.723ZM724.858 112.746H667.247V55.1546H724.858V112.746ZM724.858 171.861H667.247V114.269H724.858V171.861ZM724.858 230.975H667.247V173.384H724.858V230.975ZM724.858 290.09H667.247V232.499H724.858V290.09ZM724.858 349.205H667.247V291.614H724.858V349.205ZM667.247 408.32V350.729H724.858V408.32H667.247ZM608.112 408.32V350.729H665.723V408.32H608.112ZM548.977 408.32V350.729H606.588V408.32H548.977ZM489.841 408.32V350.729H547.452V408.32H489.841ZM430.706 408.32V350.729H488.317V408.32H430.706ZM371.571 408.32V350.729H429.182V408.32H371.571ZM312.435 408.32V350.729H370.047V408.32H312.435ZM253.3 408.32V350.729H310.911V408.32H253.3ZM194.165 408.32V350.729H251.776V408.32H194.165ZM135.03 408.32V350.729H192.641V408.32H135.03ZM75.8945 408.32V350.729H133.506V408.32H75.8945ZM16.7593 350.729H74.3705V408.32H16.7593V350.729ZM16.7593 291.614H74.3705V349.205H16.7593V291.614ZM16.7593 232.499H74.3705V290.09H16.7593V232.499ZM16.7593 173.384H74.3705V230.975H16.7593V173.384ZM16.7593 114.269H74.3705V171.861H16.7593V114.269ZM16.7593 55.1546H74.3705V112.746H16.7593V55.1546Z" fill="url(#paint0_radial_1494_10570)"/>
</g>
<path d="M455.796 504.149C414.576 502.79 371.33 493.71 341.758 466.676C322.502 449.075 310.724 425.244 304.016 400.762C279.226 310.309 320.101 202.005 427.104 185.978C495.317 175.762 511.461 -10.4694 770.432 72.682C983.054 140.952 901.75 291.563 915.642 351.024C921.866 377.667 969.963 464.981 888.105 503.795C775.826 503.74 663.488 503.805 551.278 502.585C519.84 502.24 488.45 505.108 457.011 504.187C456.606 504.177 456.201 504.168 455.796 504.149Z" fill="#FFF3E4"/>
<path d="M488.938 106.305C509.284 91.0785 521.963 100.436 529.611 83.0662C532.796 74.5066 536.438 62.3019 537.864 59.6641C547.544 41.7704 567.735 38.8299 587.748 48.2455C594.236 51.2967 599.915 54.8544 604.106 59.175C605.155 60.2522 606.106 61.3819 606.958 62.5639C607.384 63.152 607.816 63.7401 608.156 64.369C612.205 71.9387 613.711 78.9728 607.483 97.9495C600.871 118.097 629.643 108.803 629.736 143.775C629.773 156.9 621.501 199.308 549.797 201.597C518.512 202.592 476.333 181.612 468.215 154.49C464.845 143.24 468.592 121.538 488.938 106.305Z" fill="#75434B"/>
<path d="M683.261 210.651C683.261 210.651 651.859 156.719 634.118 145.877C611.877 132.287 583.581 132.776 558.161 131.506C543.451 130.773 528.308 129.387 513.882 132.985C500.678 136.281 490.252 143.484 480.832 152.603C472.666 160.504 436.233 225.051 430.085 249.961C424.264 273.514 443.745 295.932 469.838 295.799C481.913 295.735 495.573 295.525 508.339 294.995H571.488H634.946L690.854 295.257C737.595 277.596 683.261 210.651 683.261 210.651Z" fill="#9679BC"/>
<path d="M706.62 251.794C687.286 285.031 654.817 277.438 654.817 277.438C654.817 277.438 570.852 283.407 502.685 283.075C454.462 282.842 436.486 260.599 431.418 245.313C430.881 246.979 430.431 248.528 430.079 249.954C424.258 273.508 443.74 295.926 469.832 295.792C481.907 295.728 495.567 295.518 508.333 294.988H571.482H634.94L690.848 295.25C711.99 287.267 712.453 269.193 706.62 251.794Z" fill="#7C5FAA"/>
<mask id="mask1_1494_10570" style="mask-type:luminance" maskUnits="userSpaceOnUse" x="429" y="130" width="281" height="166">
<path d="M683.261 210.649C683.261 210.649 651.859 156.717 634.118 145.875C611.877 132.285 583.581 132.774 558.161 131.504C543.451 130.771 528.308 129.385 513.882 132.983C500.678 136.279 490.252 143.482 480.832 152.601C472.666 160.502 436.233 225.049 430.085 249.959C424.264 273.512 443.745 295.931 469.838 295.797C481.913 295.733 495.573 295.523 508.339 294.993H571.488H634.946L690.854 295.255C737.595 277.594 683.261 210.649 683.261 210.649Z" fill="white"/>
</mask>
<g mask="url(#mask1_1494_10570)">
<path d="M562.044 181.651C509.284 181.651 477.111 153.649 476.759 153.335C476.333 152.95 476.315 152.316 476.716 151.914C477.123 151.512 477.802 151.489 478.222 151.873C478.605 152.217 517.463 185.978 579.754 178.588C641.805 171.234 653.194 147.494 653.299 147.256C653.533 146.743 654.163 146.51 654.7 146.726C655.243 146.941 655.496 147.523 655.268 148.036C654.817 149.055 643.477 173.063 580.026 180.58C573.791 181.319 567.797 181.651 562.044 181.651Z" fill="#F4F0ED"/>
<path d="M568.575 216.247C536.599 216.247 506.08 212.357 503.92 212.078C472.061 207.477 447.795 193.002 447.555 192.856C447.061 192.559 446.913 191.936 447.234 191.47C447.548 190.999 448.209 190.865 448.703 191.168C448.937 191.313 472.851 205.562 504.228 210.092C505.123 210.208 595.038 221.674 628.971 205.568C629.107 205.504 629.261 205.469 629.409 205.463C629.841 205.451 672.095 203.92 681.978 188.99C682.286 188.512 682.947 188.378 683.447 188.67C683.947 188.961 684.095 189.584 683.786 190.055C673.589 205.457 633.533 207.32 629.718 207.466C615.23 214.238 591.526 216.247 568.575 216.247Z" fill="#F4F0ED"/>
<path d="M706.386 284.087C706.121 284.087 705.861 283.994 705.652 283.814C689.898 269.752 671.552 260.581 671.367 260.487C670.849 260.231 670.651 259.62 670.917 259.131C671.194 258.636 671.83 258.449 672.361 258.711C672.546 258.805 691.139 268.098 707.115 282.358C707.54 282.742 707.559 283.377 707.152 283.779C706.948 283.983 706.67 284.087 706.386 284.087Z" fill="#F4F0ED"/>
<path d="M487.438 242.891C487.265 242.891 487.092 242.851 486.931 242.769C470.166 234.192 432.431 230.925 432.048 230.896C431.468 230.844 431.029 230.36 431.085 229.807C431.14 229.254 431.56 228.835 432.245 228.893C433.807 229.027 470.795 232.224 487.944 241.005C488.462 241.267 488.654 241.878 488.376 242.367C488.178 242.699 487.808 242.891 487.438 242.891Z" fill="#F4F0ED"/>
<path d="M458.987 298.907C458.45 298.907 457.993 298.528 457.931 298.016C454.215 267.737 479.21 243.298 479.456 243.054C479.864 242.652 480.549 242.646 480.969 243.036C481.389 243.426 481.395 244.061 480.981 244.457C480.734 244.696 456.45 268.471 460.043 297.777C460.11 298.33 459.697 298.825 459.104 298.889C459.067 298.901 459.024 298.907 458.987 298.907Z" fill="#F4F0ED"/>
<path d="M521.975 303.265C521.494 303.265 521.062 302.956 520.938 302.496C516.315 284.451 520.728 238.625 520.914 236.68C520.969 236.127 521.475 235.714 522.068 235.772C522.654 235.824 523.086 236.314 523.031 236.867C522.982 237.338 518.457 284.3 523.006 302.019C523.142 302.56 522.796 303.102 522.222 303.23C522.136 303.253 522.056 303.265 521.975 303.265Z" fill="#F4F0ED"/>
<path d="M634.18 298.908C633.773 298.908 633.384 298.687 633.211 298.314L625.217 281.597C624.97 281.09 625.211 280.496 625.748 280.263C626.298 280.042 626.921 280.263 627.156 280.764L635.149 297.487C635.396 297.994 635.156 298.588 634.619 298.815C634.477 298.879 634.329 298.908 634.18 298.908Z" fill="#F4F0ED"/>
</g>
<path d="M684.652 242.309C684.553 242.309 684.454 242.297 684.355 242.268C683.794 242.111 683.467 241.558 683.627 241.022C687.454 228.503 687.072 218.819 682.491 212.234C677.806 205.508 670.201 204.507 670.121 204.501C669.54 204.431 669.127 203.93 669.201 203.377C669.275 202.83 669.806 202.405 670.386 202.504C670.738 202.544 679.01 203.598 684.244 211.092C689.207 218.185 689.689 228.445 685.67 241.569C685.541 242.023 685.115 242.309 684.652 242.309Z" fill="#49263E"/>
<path d="M628.707 228.54C627.966 228.446 627.571 227.934 627.651 227.387C631.312 204.153 619.861 176.943 619.744 176.669C619.521 176.157 619.787 175.569 620.336 175.359C620.873 175.15 621.497 175.4 621.719 175.918C621.836 176.198 633.503 203.915 629.762 227.684C629.682 228.184 629.225 228.54 628.707 228.54Z" fill="#49263E"/>
<path d="M536.729 125.765L561.551 64.9278L573.952 53.5732C573.952 53.5732 593.594 56.7583 602.533 66.6398C606.78 71.333 606.021 79.421 604.416 85.896C599.416 106.002 592.86 123.098 584.236 127.337C581.477 128.694 578.391 129.078 571.588 126.947L569.397 134.465C572.341 140.951 580.57 167.655 558.199 161.116C535.84 154.577 536.729 125.765 536.729 125.765Z" fill="#FF9D76"/>
<path d="M575.606 93.3853C576.359 93.5891 577.15 93.1757 577.366 92.4711L577.995 90.4098C578.211 89.6994 577.773 88.9541 577.026 88.7503C576.273 88.5465 575.483 88.9599 575.267 89.6645L574.637 91.7258C574.421 92.4303 574.859 93.1815 575.606 93.3853Z" fill="#49263E"/>
<path d="M595.019 99.3306C595.773 99.5344 596.563 99.121 596.779 98.4164L597.408 96.3551C597.624 95.6447 597.186 94.8994 596.439 94.6956C595.686 94.4918 594.896 94.9052 594.68 95.6098L594.05 97.6711C593.834 98.3756 594.272 99.1268 595.019 99.3306Z" fill="#49263E"/>
<path d="M602.538 94.0378C602.18 94.0378 601.829 93.8689 601.631 93.5603C601.526 93.4031 599.236 90.0899 594.316 91.4001C593.742 91.5631 593.162 91.237 593.001 90.7013C592.841 90.1656 593.174 89.6124 593.742 89.4669C598.995 88.0752 602.39 90.8527 603.452 92.5122C603.755 92.9897 603.594 93.6069 603.088 93.8922C602.921 93.9912 602.73 94.0378 602.538 94.0378Z" fill="#75434B"/>
<path d="M584.094 87.4988C583.736 87.4988 583.391 87.3299 583.187 87.0272C583.094 86.8816 580.792 83.5393 575.81 84.8436C575.236 84.995 574.656 84.6805 574.495 84.1448C574.335 83.6091 574.668 83.056 575.236 82.9104C580.483 81.5245 583.915 84.3021 585.002 85.9674C585.31 86.439 585.156 87.0563 584.656 87.3474C584.483 87.4522 584.286 87.4988 584.094 87.4988Z" fill="#75434B"/>
<path d="M586.915 109C586.588 109 586.267 108.989 585.976 108.971C585.39 108.936 584.946 108.459 584.983 107.905C585.013 107.352 585.501 106.91 586.112 106.968C586.162 106.974 592.267 107.271 592.452 104.668C592.526 103.567 592.112 101.937 591.674 100.213C590.686 96.3005 589.452 91.4268 593.563 89.5227C594.075 89.2839 594.73 89.4819 594.983 89.9827C595.242 90.4835 595.026 91.0832 594.495 91.3278C592.1 92.4341 592.674 95.5144 593.742 99.7476C594.217 101.623 594.668 103.393 594.569 104.802C594.341 108.133 590.02 109 586.915 109Z" fill="#EF685E"/>
<path d="M610.496 258.654C610.737 260.96 612.36 262.695 614.119 262.526C615.879 262.363 617.107 260.36 616.866 258.054C616.626 255.749 615.002 254.013 613.243 254.182C611.484 254.345 610.255 256.348 610.496 258.654Z" fill="white"/>
<path d="M496.006 234.456C495.574 234.456 495.166 234.206 495.006 233.804L490.506 222.508C490.296 221.989 490.58 221.407 491.129 221.215C491.685 221.023 492.296 221.279 492.506 221.803L497.006 233.1C497.216 233.618 496.932 234.2 496.382 234.392C496.253 234.439 496.129 234.456 496.006 234.456Z" fill="#49263E"/>
<path d="M502.684 239.801C502.048 239.777 501.591 239.306 501.616 238.753L504.369 179.54C504.394 178.998 504.863 178.579 505.437 178.579C506.073 178.602 506.53 179.074 506.505 179.627L503.752 238.84C503.727 239.381 503.252 239.801 502.684 239.801Z" fill="#49263E"/>
<path d="M570.563 214.833C570.563 214.833 567.884 225.506 583.403 241.449C583.403 241.449 606.527 230.124 604.416 215.8L570.563 214.833Z" fill="white"/>
<path d="M585.502 226.792C576.829 226.792 570.279 225.348 569.736 225.226C568.829 225.016 568.267 224.16 568.489 223.304C568.711 222.454 569.619 221.93 570.526 222.128C570.779 222.186 596.736 227.881 613.57 216.078C614.317 215.554 615.385 215.705 615.934 216.41C616.496 217.115 616.342 218.116 615.589 218.64C606.267 225.168 594.693 226.792 585.502 226.792Z" fill="#49263E"/>
<path d="M656.077 202.512C630.324 185.778 614.577 187.973 614.577 187.973L560.113 213.815L553.705 228.139C536.909 234.398 526.254 250.44 535.255 256.025C541.872 260.13 553.582 246.295 562.243 245.305C562.243 245.305 547.36 257.946 559.199 263.169C567.693 266.919 575.632 258.15 585.039 257.719C592.354 257.381 598.354 256.764 600.601 257.137C603.07 263.14 609.064 278.274 621.719 279.619C640.361 281.599 658.979 283.666 670.682 272.311C684.176 259.227 680.615 218.455 656.077 202.512Z" fill="#49263E"/>
<path d="M585.125 114.296C583.261 114.296 581.705 113.772 580.483 112.736C577.6 110.285 577.767 105.877 577.773 105.69C577.798 105.137 578.273 104.759 578.884 104.729C579.471 104.753 579.934 105.219 579.909 105.772C579.903 105.807 579.779 109.434 581.921 111.245C582.983 112.142 584.483 112.462 586.403 112.194C586.983 112.113 587.526 112.486 587.613 113.039C587.705 113.586 587.298 114.098 586.724 114.18C586.162 114.262 585.631 114.296 585.125 114.296Z" fill="#49263E"/>
<path d="M608.55 180.589C608.55 180.589 603.544 154.293 598.334 153.623C593.124 152.954 586.747 171.331 586.747 171.331L608.55 180.589Z" fill="#49263E"/>
<path d="M603.798 174.701C603.798 174.701 600.977 159.882 598.039 159.503C595.1 159.125 591.508 169.484 591.508 169.484L603.798 174.701Z" fill="#FFBBC8"/>
<path d="M613.243 255.186C612.644 255.18 612.175 254.726 612.175 254.173C612.292 242.224 616.125 233.018 623.564 226.799C636.101 216.33 654.175 218.112 654.935 218.187C655.521 218.245 655.935 218.746 655.873 219.299C655.805 219.853 655.268 220.266 654.694 220.184C654.509 220.161 636.762 218.432 624.959 228.313C618.002 234.136 614.409 242.841 614.298 254.19C614.304 254.743 613.829 255.186 613.243 255.186Z" fill="#F4F0ED"/>
<path d="M637.54 269.811C638.361 267.197 631.188 257.572 628.342 255.341C625.151 252.838 613.897 251.865 613.897 251.865L579.045 258.352V286.622L591.52 286.133C591.52 286.133 612.101 293.732 618.292 292.666C624.484 291.6 629.836 280.386 629.836 280.386C629.836 280.386 639.904 281.183 640.632 277.707C641.577 273.229 639.632 270.964 637.54 269.811Z" fill="#FF9D76"/>
<path d="M640.261 271.483C640.07 271.483 639.879 271.436 639.7 271.337L620.168 260.507C619.644 260.216 619.465 259.569 619.773 259.074C620.082 258.574 620.761 258.411 621.298 258.702L640.829 269.532C641.354 269.823 641.533 270.47 641.224 270.97C641.008 271.297 640.638 271.483 640.261 271.483Z" fill="#EF685E"/>
<path d="M630.804 281.487C630.638 281.487 630.465 281.452 630.311 281.376L617.57 275.39C617.02 275.134 616.798 274.505 617.076 273.987C617.347 273.463 618.014 273.253 618.563 273.515L631.304 279.501C631.854 279.757 632.076 280.386 631.798 280.904C631.601 281.271 631.206 281.487 630.804 281.487Z" fill="#EF685E"/>
<path d="M625.804 288.037C625.662 288.037 625.514 288.008 625.372 287.956L615.514 284.049C614.952 283.822 614.68 283.21 614.921 282.675C615.156 282.139 615.816 281.894 616.372 282.116L626.23 286.023C626.792 286.25 627.063 286.861 626.822 287.397C626.65 287.793 626.242 288.037 625.804 288.037Z" fill="#EF685E"/>
<path d="M620.032 293.156C619.928 293.156 619.823 293.144 619.711 293.109L612.81 291.153C612.224 290.99 611.89 290.402 612.063 289.848C612.242 289.295 612.872 288.975 613.446 289.144L620.347 291.1C620.934 291.263 621.267 291.851 621.094 292.405C620.952 292.859 620.508 293.156 620.032 293.156Z" fill="#EF685E"/>
<path d="M605.18 135.332C589.76 132.397 573.439 132.269 558.161 131.506C543.451 130.773 528.308 129.387 513.882 132.985C512.345 133.37 510.845 133.806 509.376 134.296C516.493 143.088 538.333 167.032 563.204 164.481C584.649 162.286 598.741 145.196 605.18 135.332Z" fill="#FF9D76"/>
<path d="M556.358 118.72C562.192 124.228 571.593 126.948 571.593 126.948L567.55 140.567C561.531 138.914 557.383 127.984 555.587 119.244C555.482 118.743 555.975 118.359 556.358 118.72Z" fill="#EF685E"/>
<path d="M557.235 180.589C557.235 180.589 562.242 154.293 567.452 153.623C572.661 152.954 579.038 171.331 579.038 171.331L557.235 180.589Z" fill="#49263E"/>
<path d="M561.994 174.701C561.994 174.701 564.815 159.882 567.753 159.503C570.692 159.125 574.284 169.484 574.284 169.484L561.994 174.701Z" fill="#FFBBC8"/>
<path d="M458.987 251.883C458.58 251.883 458.191 251.662 458.012 251.289C457.777 250.782 458.012 250.188 458.549 249.961C459.135 249.717 517.352 225.482 560.742 240.703C561.291 240.895 561.575 241.472 561.371 241.996C561.167 242.514 560.538 242.782 560.001 242.59C517.42 227.648 459.999 251.551 459.419 251.795C459.283 251.854 459.129 251.883 458.987 251.883Z" fill="#49263E"/>
<path d="M578.94 296.002C578.347 296.002 577.872 295.548 577.872 294.995L577.971 254.182C577.971 253.629 578.446 253.181 579.039 253.181C579.631 253.181 580.107 253.635 580.107 254.188L580.008 295.001C580.008 295.554 579.526 296.002 578.94 296.002Z" fill="#49263E"/>
<path d="M620.959 207.229C621.799 211.171 628.682 210.111 629.244 210.012C628.725 210.099 622.892 211.188 625.157 214.862C626.367 216.831 628.898 218.216 634.713 216.487C642.75 214.094 649.688 211.887 649.688 211.887C649.688 211.887 644.54 215.975 637.515 219.317C633.515 221.221 634.095 224.098 634.849 224.965C636.713 227.125 638.725 227.865 646.38 224.691C654.034 221.518 658.225 219.206 658.225 219.206C658.225 219.206 667.398 231.423 674.232 232.576C676.183 232.908 677.608 230.846 678.621 228.144C680.868 222.159 679.763 215.503 675.874 210.315C672.645 206.006 668.664 201.219 666.571 200.69C657.904 198.489 644.546 194.488 643.188 194.715C638.947 195.42 631.404 198.168 624.725 202.262C620.959 204.562 620.669 205.872 620.959 207.229Z" fill="#FF9D76"/>
<path d="M626.193 212.125C625.761 212.125 625.354 211.887 625.175 211.497C624.928 210.967 625.187 210.349 625.749 210.117C625.959 210.035 646.638 201.551 648.101 200.893C648.663 200.643 649.323 200.864 649.582 201.388C649.848 201.912 649.613 202.535 649.058 202.786C647.564 203.455 627.489 211.689 626.638 212.038C626.489 212.096 626.341 212.125 626.193 212.125Z" fill="#EF685E"/>
<path d="M645.675 215.759C645.311 215.759 644.947 215.584 644.737 215.27C644.41 214.781 644.564 214.134 645.083 213.826L653.688 208.678C654.206 208.364 654.892 208.515 655.219 209.004C655.546 209.493 655.392 210.14 654.873 210.448L646.268 215.596C646.083 215.706 645.879 215.759 645.675 215.759Z" fill="#EF685E"/>
<path d="M643.188 194.717C643.188 194.717 623.595 194.292 621.651 195.066C619.707 195.841 620.867 202.968 624.719 202.263L643.188 194.717Z" fill="#FF9D76"/>
<path d="M622.503 204.563C622.077 204.563 621.676 204.336 621.491 203.945C621.238 203.416 621.485 202.798 622.046 202.56L643.244 193.54C643.8 193.301 644.467 193.534 644.713 194.064C644.967 194.594 644.72 195.211 644.158 195.45L622.96 204.469C622.812 204.534 622.658 204.563 622.503 204.563Z" fill="#EF685E"/>
<path d="M675.064 259.359C674.589 259.359 674.151 259.056 674.033 258.602C673.891 258.061 674.231 257.519 674.805 257.379C677.811 256.657 679.891 252.226 680.435 250.578C680.614 250.048 681.206 249.757 681.768 249.92C682.33 250.083 682.638 250.648 682.465 251.178C682.367 251.463 680.107 258.183 675.317 259.33C675.237 259.347 675.151 259.359 675.064 259.359Z" fill="#49263E"/>
<path d="M609.007 71.8213C607.309 66.1557 591.568 54.9816 591.568 54.9816L573.469 50.1777L563.284 51.5461L543.302 66.5866L551.925 75.4839L539.222 106.91C539.222 106.91 520.777 118.532 517.734 118.893C510.159 119.784 504.061 136.315 504.061 136.315C504.061 136.315 535.493 146.587 547.567 136.315C555.098 129.91 558.345 109.874 559.722 95.7009C560.438 88.3466 566.549 80.1015 574.284 78.9776C591.043 76.5437 603.426 74.3426 603.426 74.3426C603.426 74.3426 607.229 76.9105 603.797 93.4649C603.797 93.4591 610.605 77.1609 609.007 71.8213Z" fill="#75434B"/>
<path d="M603.328 77.1854C603.199 77.1854 603.063 77.1621 602.939 77.1155C602.39 76.9117 602.125 76.3236 602.341 75.8112C604.791 69.9767 603.804 65.4115 603.791 65.3649C603.668 64.8234 604.038 64.2877 604.612 64.1713C605.174 64.0373 605.754 64.4042 605.878 64.9457C605.927 65.1553 607.014 70.1572 604.322 76.5507C604.149 76.9466 603.754 77.1854 603.328 77.1854Z" fill="#FF9D76"/>
<path d="M391.393 192.711C391.393 192.711 375.263 164.313 410.017 157.978C410.017 157.978 428.622 184.71 391.393 192.711Z" fill="#3F9896"/>
<path d="M375.041 188.209C375.041 188.209 340.917 189.437 350.109 157.196C350.109 157.196 383.733 153.138 375.041 188.209Z" fill="#80C7A7"/>
<path d="M380.547 225.711C380.547 225.711 347.367 233.345 349.546 200.02C349.546 200.02 381.639 189.708 380.547 225.711Z" fill="#3F9896"/>
<path d="M380.547 226.718C380.287 226.718 380.028 226.63 379.824 226.45L353.565 203.479C353.133 203.1 353.108 202.466 353.509 202.058C353.916 201.65 354.589 201.627 355.015 202.006L381.275 224.977C381.707 225.355 381.732 225.99 381.33 226.398C381.114 226.607 380.83 226.718 380.547 226.718Z" fill="#80C7A7"/>
<path d="M375.041 189.219C374.708 189.219 374.381 189.073 374.171 188.794L352.924 160.501C352.578 160.046 352.695 159.423 353.177 159.097C353.658 158.777 354.319 158.882 354.664 159.336L375.912 187.629C376.251 188.084 376.14 188.707 375.659 189.033C375.467 189.155 375.251 189.219 375.041 189.219Z" fill="#3F9896"/>
<path d="M391.394 193.712C391.227 193.712 391.067 193.677 390.912 193.601C390.388 193.351 390.178 192.745 390.443 192.25L405.474 164.195C405.746 163.701 406.388 163.503 406.906 163.753C407.431 164.003 407.641 164.609 407.375 165.104L392.344 193.158C392.153 193.514 391.783 193.712 391.394 193.712Z" fill="#80C7A7"/>
<path d="M388.462 249.327C387.906 249.327 387.443 248.926 387.4 248.402C384.604 213.808 373.696 188.513 373.585 188.263C373.357 187.751 373.616 187.162 374.165 186.953C374.696 186.732 375.326 186.982 375.554 187.494C375.665 187.751 386.702 213.313 389.523 248.244C389.573 248.798 389.128 249.281 388.542 249.327C388.517 249.322 388.486 249.327 388.462 249.327Z" fill="#49263E"/>
<path d="M384.246 220.935C383.641 220.923 383.172 220.469 383.178 219.91C383.456 205.871 389.826 192.834 390.098 192.286C390.345 191.786 390.98 191.558 391.511 191.803C392.048 192.036 392.277 192.636 392.03 193.136C391.968 193.265 385.585 206.349 385.314 219.945C385.301 220.492 384.826 220.935 384.246 220.935Z" fill="#49263E"/>
<path d="M387.294 238.438C386.917 238.438 386.553 238.252 386.356 237.914L379.238 225.645C378.96 225.156 379.146 224.55 379.664 224.283C380.183 224.021 380.831 224.195 381.109 224.684L388.226 236.953C388.504 237.442 388.318 238.048 387.8 238.316C387.639 238.397 387.467 238.438 387.294 238.438Z" fill="#49263E"/>
<path d="M365.731 245.32H411.189L407.991 294.995H369.281L365.731 245.32Z" fill="#F75454"/>
<path d="M410.561 255.186H366.369C365.782 255.186 365.301 254.737 365.301 254.178C365.301 253.625 365.776 253.171 366.369 253.171H410.561C411.147 253.171 411.629 253.619 411.629 254.178C411.622 254.737 411.147 255.186 410.561 255.186Z" fill="#49263E"/>
<path d="M726.295 259.597C726.295 259.597 696.998 222.243 706.584 214.161C716.171 206.073 734.282 241.855 734.819 254.618C734.819 254.618 724.696 174.152 743.344 176.295C761.986 178.438 743.344 250.88 743.344 250.88C743.344 250.88 759.857 209.293 769.443 209.194C779.03 209.089 752.813 258.357 752.813 258.357L726.295 259.597Z" fill="#3F9896"/>
<path d="M738.104 266.022C737.474 265.998 737.017 265.533 737.036 264.979L740.042 186.976C740.067 186.423 740.597 186.039 741.147 186.01C741.733 186.033 742.196 186.499 742.172 187.052L739.165 265.055C739.141 265.597 738.672 266.022 738.104 266.022Z" fill="#80C7A7"/>
<path d="M731.886 263.064C731.398 263.064 730.954 262.744 730.843 262.278C727.374 247.564 709.12 222.083 708.941 221.826C708.614 221.366 708.738 220.743 709.225 220.429C709.713 220.12 710.373 220.237 710.707 220.697C711.466 221.751 729.368 246.754 732.929 261.841C733.053 262.383 732.695 262.918 732.121 263.041C732.04 263.052 731.966 263.064 731.886 263.064Z" fill="#80C7A7"/>
<path d="M746.799 266.023C746.126 265.977 745.688 265.493 745.737 264.94C746.453 256.433 764.244 218.555 765.003 216.948C765.244 216.442 765.879 216.209 766.41 216.436C766.947 216.663 767.188 217.257 766.954 217.763C766.768 218.153 748.558 256.934 747.861 265.097C747.817 265.622 747.348 266.023 746.799 266.023Z" fill="#80C7A7"/>
<path d="M718.373 259.598H763.831L760.633 294.995H721.922L718.373 259.598Z" fill="#FFBBC8"/>
<path d="M762.856 271.439H719.46C718.874 271.439 718.393 270.99 718.393 270.431C718.393 269.878 718.868 269.424 719.46 269.424H762.856C763.443 269.424 763.924 269.872 763.924 270.431C763.918 270.99 763.443 271.439 762.856 271.439Z" fill="#49263E"/>
<path d="M768.906 296.031H363.252C362.665 296.031 362.184 295.583 362.184 295.024C362.184 294.471 362.659 294.017 363.252 294.017H768.906C769.492 294.017 769.974 294.465 769.974 295.024C769.974 295.577 769.498 296.031 768.906 296.031Z" fill="#49263E"/>
<path d="M615.484 196.56C615.484 212.165 600.989 223.567 583.119 223.567C565.242 223.567 550.748 212.165 550.748 196.56C550.748 180.955 565.242 168.302 583.119 168.302C600.989 168.302 615.484 180.955 615.484 196.56Z" fill="#49263E"/>
<path d="M572.415 241.309C578.649 238.886 586.18 236.022 590.156 234.729C590.415 234.519 590.674 234.304 590.933 234.088C591.977 231.317 598.144 216.241 609.798 212.555C612.631 208.957 614.539 204.759 615.212 200.223C609.31 195.943 600.705 194.796 590.742 194.493C588.316 194.417 586.217 187.896 585.396 185.741C584.545 183.494 583.007 181.991 581.26 181.991C579.544 181.991 578.038 183.435 577.174 185.613C576.304 187.808 574.143 194.347 571.655 194.353C563.575 194.382 556.371 194.796 550.754 197.451C550.97 203.577 553.421 209.207 557.421 213.749C558.248 214.442 559.1 215.123 559.976 215.787C559.748 221.674 560.118 238.852 572.415 241.309Z" fill="#F4F0ED"/>
<path d="M583.977 194.381C583.977 195.307 582.761 196.058 581.268 196.058C579.768 196.058 578.558 195.307 578.558 194.381C578.558 193.455 579.774 192.704 581.268 192.704C582.768 192.71 583.977 193.461 583.977 194.381Z" fill="#49263E"/>
<path d="M577.716 200.838C577.629 200.838 577.549 200.838 577.463 200.833C576.876 200.798 576.432 200.32 576.469 199.767C576.5 199.208 576.981 198.731 577.599 198.83C578.006 198.847 578.376 198.736 578.697 198.474C579.809 197.537 580.16 195.179 580.197 194.346C580.228 193.793 580.716 193.344 581.309 193.391C581.895 193.414 582.352 193.886 582.327 194.439C582.309 194.829 582.086 198.311 580.123 199.971C579.438 200.536 578.611 200.838 577.716 200.838Z" fill="#49263E"/>
<path d="M584.816 200.84C583.921 200.84 583.088 200.538 582.402 199.967C580.439 198.302 580.211 194.825 580.192 194.435C580.168 193.882 580.624 193.41 581.211 193.387C581.773 193.34 582.297 193.795 582.322 194.342C582.365 195.175 582.717 197.539 583.828 198.476C584.149 198.744 584.52 198.872 584.927 198.831C585.489 198.732 586.02 199.216 586.057 199.769C586.094 200.322 585.649 200.8 585.063 200.835C584.989 200.84 584.902 200.84 584.816 200.84Z" fill="#49263E"/>
<path d="M580.273 219.917C572.458 219.917 566.643 218.42 566.279 218.327C565.717 218.176 565.383 217.623 565.538 217.087C565.704 216.551 566.309 216.237 566.846 216.388C566.976 216.423 579.908 219.748 592.915 216.388C593.476 216.231 594.063 216.557 594.223 217.093C594.378 217.629 594.044 218.182 593.476 218.327C588.859 219.515 584.297 219.917 580.273 219.917Z" fill="#49263E"/>
<path d="M570.903 192.006C571.711 192.006 572.372 191.383 572.372 190.62V188.401C572.372 187.639 571.711 187.016 570.903 187.016C570.094 187.016 569.434 187.639 569.434 188.401V190.62C569.434 191.383 570.094 192.006 570.903 192.006Z" fill="#F4F0ED"/>
<path d="M591.631 192.007C592.44 192.007 593.1 191.384 593.1 190.621V188.402C593.1 187.64 592.44 187.017 591.631 187.017C590.823 187.017 590.162 187.64 590.162 188.402V190.621C590.162 191.384 590.823 192.007 591.631 192.007Z" fill="#F4F0ED"/>
</g>
<defs>
<radialGradient id="paint0_radial_1494_10570" cx="0" cy="0" r="1" gradientUnits="userSpaceOnUse" gradientTransform="translate(250.487 231.995) rotate(-140.93) scale(414.035 194.582)">
<stop stop-color="#E89E00"/>
<stop offset="1" stop-color="white" stop-opacity="0"/>
</radialGradient>
<clipPath id="clip0_1494_10570">
<rect width="768" height="389.354" fill="white"/>
</clipPath>
</defs>
</svg>
