<svg width="1440" height="560" viewBox="0 0 1440 560" fill="none" xmlns="http://www.w3.org/2000/svg">
<g clip-path="url(#clip0_611_9624)">
<rect width="1440" height="560" fill="#CBE7EF"/>
<mask id="mask0_611_9624" style="mask-type:luminance" maskUnits="userSpaceOnUse" x="44" y="-38" width="1363" height="766">
<path d="M1406.06 -37.7017H44.9365V727.702H1406.06V-37.7017Z" fill="white"/>
</mask>
<g mask="url(#mask0_611_9624)">
<path style="mix-blend-mode:multiply" opacity="0.25" d="M52.3726 15.9332V123.097H11V125.932H52.3726V233.095H11V235.93H52.3726V343.094H11V345.928H52.3726V453.092H11V455.927H52.3726V563.09H11V565.925H52.3726V673.089H11V675.924H52.3726V786H55.2083V675.924H162.404V786H165.24V675.924H272.436V786H275.271V675.924H382.467V786H385.303V675.924H492.499V786H495.335V675.924H602.531V786H605.366V675.924H712.562V786H715.398V675.924H822.594V786H825.429V675.924H932.625V786H935.461V675.924H1042.66V786H1045.49V675.924H1152.69V786H1155.52V675.924H1262.72V786H1265.56V675.924H1372.75V786H1375.59V675.924H1440V673.089H1375.59V565.925H1440V563.09H1375.59V455.927H1440V453.092H1375.59V345.928H1440V343.094H1375.59V235.93H1440V233.095H1375.59V125.932H1440V123.097H1375.59V15.9332H1440V13.0984H1375.59V-96H1372.75V13.0984H1265.56V-96H1262.72V13.0984H1155.52V-96H1152.69V13.0984H1045.49V-96H1042.66V13.0984H935.461V-96H932.625V13.0984H825.429V-96H822.594V13.0984H715.398V-96H712.562V13.0984H605.366V-96H602.531V13.0984H495.335V-96H492.499V13.0984H385.303V-96H382.467V13.0984H275.271V-96H272.436V13.0984H165.24V-96H162.404V13.0984H55.2083V-96H52.3726V13.0984H11V15.9332H52.3726ZM272.436 15.9332V123.097H165.24V15.9332H272.436ZM495.335 235.93H602.531V343.094H495.335V235.93ZM492.499 343.094H385.303V235.93H492.499V343.094ZM605.366 235.93H712.562V343.094H605.366V235.93ZM715.398 235.93H822.594V343.094H715.398V235.93ZM825.429 235.93H932.625V343.094H825.429V235.93ZM935.461 235.93H1042.66V343.094H935.461V235.93ZM1045.49 235.93H1152.69V343.094H1045.49V235.93ZM1152.69 345.928V453.092H1045.49V345.928H1152.69ZM1042.66 453.092H935.461V345.928H1042.66V453.092ZM932.625 453.092H825.429V345.928H932.625V453.092ZM822.594 453.092H715.398V345.928H822.594V453.092ZM712.562 453.092H605.366V345.928H712.562V453.092ZM602.531 453.092H495.335V345.928H602.531V453.092ZM492.499 453.092H385.303V345.928H492.499V453.092ZM382.467 453.092H275.271V345.928H382.467V453.092ZM275.271 343.094V235.93H382.467V343.094H275.271ZM275.271 233.095V125.932H382.467V233.095H275.271ZM385.303 125.932H492.499V233.095H385.303V125.932ZM495.335 125.932H602.531V233.095H495.335V125.932ZM605.366 125.932H712.562V233.095H605.366V125.932ZM715.398 125.932H822.594V233.095H715.398V125.932ZM825.429 125.932H932.625V233.095H825.429V125.932ZM935.461 125.932H1042.66V233.095H935.461V125.932ZM1045.49 125.932H1152.69V233.095H1045.49V125.932ZM1155.52 125.932H1262.72V233.095H1155.52V125.932ZM1262.72 235.93V343.094H1155.52V235.93H1262.72ZM1262.72 345.928V453.092H1155.52V345.928H1262.72ZM1262.72 455.927V563.09H1155.52V455.927H1262.72ZM1152.69 563.09H1045.49V455.927H1152.69V563.09ZM1042.66 563.09H935.461V455.927H1042.66V563.09ZM932.625 563.09H825.429V455.927H932.625V563.09ZM822.594 563.09H715.398V455.927H822.594V563.09ZM712.562 563.09H605.366V455.927H712.562V563.09ZM602.531 563.09H495.335V455.927H602.531V563.09ZM492.499 563.09H385.303V455.927H492.499V563.09ZM382.467 563.09H275.271V455.927H382.467V563.09ZM272.436 563.09H165.24V455.927H272.436V563.09ZM165.24 453.092V345.928H272.436V453.092H165.24ZM165.24 343.094V235.93H272.436V343.094H165.24ZM165.24 233.095V125.932H272.436V233.095H165.24ZM382.467 15.9332V123.097H275.271V15.9332H382.467ZM492.499 15.9332V123.097H385.303V15.9332H492.499ZM602.531 15.9332V123.097H495.335V15.9332H602.531ZM712.562 15.9332V123.097H605.366V15.9332H712.562ZM822.594 15.9332V123.097H715.398V15.9332H822.594ZM932.625 15.9332V123.097H825.429V15.9332H932.625ZM1042.66 15.9332V123.097H935.461V15.9332H1042.66ZM1152.69 15.9332V123.097H1045.49V15.9332H1152.69ZM1262.72 15.9332V123.097H1155.52V15.9332H1262.72ZM1372.75 123.097H1265.56V15.9332H1372.75V123.097ZM1372.75 233.095H1265.56V125.932H1372.75V233.095ZM1372.75 343.094H1265.56V235.93H1372.75V343.094ZM1372.75 453.092H1265.56V345.928H1372.75V453.092ZM1372.75 563.09H1265.56V455.927H1372.75V563.09ZM1265.56 673.089V565.925H1372.75V673.089H1265.56ZM1155.52 673.089V565.925H1262.72V673.089H1155.52ZM1045.49 673.089V565.925H1152.69V673.089H1045.49ZM935.461 673.089V565.925H1042.66V673.089H935.461ZM825.429 673.089V565.925H932.625V673.089H825.429ZM715.398 673.089V565.925H822.594V673.089H715.398ZM605.366 673.089V565.925H712.562V673.089H605.366ZM495.335 673.089V565.925H602.531V673.089H495.335ZM385.303 673.089V565.925H492.499V673.089H385.303ZM275.271 673.089V565.925H382.467V673.089H275.271ZM165.24 673.089V565.925H272.436V673.089H165.24ZM55.2083 565.925H162.404V673.089H55.2083V565.925ZM55.2083 455.927H162.404V563.09H55.2083V455.927ZM55.2083 345.928H162.404V453.092H55.2083V345.928ZM55.2083 235.93H162.404V343.094H55.2083V235.93ZM55.2083 125.932H162.404V233.095H55.2083V125.932ZM55.2083 15.9332H162.404V123.097H55.2083V15.9332Z" fill="url(#paint0_radial_611_9624)"/>
</g>
<path d="M659.936 602.3C584.801 543.264 560.839 438.585 565.574 347.336C570.719 248.43 614.627 151.99 715.423 120.657C773.55 102.581 834.851 110.46 892.78 125.068C948.229 139.043 1003.47 167.576 1062.24 159.511C1097.31 154.703 1127.94 137.333 1160.07 123.816C1196.63 108.441 1236.61 98.9876 1276.36 99C1317.48 99.0124 1359.12 109.791 1392.99 133.096C1439.17 164.875 1467.68 217.531 1481.03 271.958C1499.69 348.03 1503.56 433.518 1477.24 508.301C1455.47 570.125 1413.01 618.147 1350.57 638.688C1282.59 661.052 1209.63 661.138 1138.84 660.977C1066.05 660.816 993.266 660.655 920.474 660.482C832.582 660.296 732.543 659.367 659.936 602.3Z" fill="#F0FCFF"/>
<path d="M1062.56 386.574C1062.56 386.574 1058.02 344.933 1087.07 333.209C1116.13 321.484 1127.74 363.736 1128.27 359.891C1128.81 356.047 1110.94 282.076 1135.14 262.032C1159.33 241.987 1173.95 286.432 1173.95 286.432C1173.95 286.432 1170.29 269.06 1188.14 270.212C1206 271.363 1197.36 321.705 1197.36 321.705C1197.36 321.705 1217.12 297.135 1235.76 303.553C1254.39 309.96 1219.83 370.444 1219.83 370.444C1219.83 370.444 1249.3 355.386 1256.12 376.792C1262.94 398.188 1238.84 416.531 1238.84 416.531C1238.84 416.531 1275.29 425.602 1276.94 454.547C1278.58 483.492 1278.58 483.492 1278.58 483.492C1278.58 483.492 1028.01 480.539 1027.46 480.549C1026.9 480.559 1015.46 440.33 1028.92 427.914C1042.4 415.499 1033.45 405.747 1043.4 392.992C1053.35 380.236 1062.56 386.574 1062.56 386.574Z" fill="#80C7A7"/>
<path d="M1108.13 268.57C1106.22 264.064 1102.89 259.048 1098.08 258.117C1093.09 257.146 1087.91 260.63 1087.34 265.786C1086.93 269.591 1088.59 273.315 1090.55 276.6C1092.9 280.544 1104.54 297.595 1109.77 289.025C1110.99 287.022 1110.95 284.519 1110.8 282.176C1110.5 277.541 1109.88 272.855 1108.13 268.57Z" fill="#80C7A7"/>
<path d="M683.841 483.24C683.841 483.24 637.114 471.576 637.995 459.05C639.296 440.758 653.584 438.856 653.584 438.856C653.584 438.856 621.504 419.071 630.636 399.247C639.757 379.413 679.605 401.88 679.605 401.88C679.605 401.88 647.236 346.002 665.969 328.721C684.692 311.44 700.251 353.912 699.67 352.26C699.089 350.608 689.658 310.879 704.796 307.835C719.935 304.792 730.508 382.276 729.987 379.403C729.456 376.529 739.288 349.006 761.816 362.482C784.343 375.949 783.282 434.771 783.282 434.771C783.282 434.771 785.365 386.301 810.195 391.778C835.025 397.265 833.303 430.455 833.874 429.704C834.455 428.943 862.699 381.716 889.472 366.157C916.245 350.608 955.803 361.841 955.803 361.841L958.877 483.24H683.841Z" fill="#3F9896"/>
<path d="M753.706 321.655C753.716 321.515 753.726 321.375 753.746 321.235C754.187 315.678 753.426 308.349 748.72 304.594C743.844 300.709 736.255 301.561 732.72 306.847C730.117 310.742 729.807 315.728 730.067 320.404C730.388 326.03 733.351 351.131 743.904 344.793C746.367 343.312 747.749 340.578 748.91 337.945C751.203 332.749 753.185 327.312 753.706 321.655Z" fill="#3F9896"/>
<path d="M1246.27 345.964C1245.96 350.029 1247.92 353.413 1253.9 351.321C1258.2 349.809 1262.74 345.243 1262.12 340.347C1261.67 336.773 1258.68 334.33 1255 334.911C1252.37 335.331 1250.13 337.154 1248.61 339.336C1247.33 341.199 1246.45 343.692 1246.27 345.964Z" fill="#80C7A7"/>
<path d="M550.521 425.031H597.842V454.164C597.842 458.829 594.057 462.613 589.392 462.613H558.97C554.305 462.613 550.521 458.829 550.521 454.164V425.031Z" fill="#040701"/>
<path d="M751.386 425.031H798.707V454.164C798.707 458.829 794.922 462.613 790.257 462.613H759.835C755.171 462.613 751.386 458.829 751.386 454.164V425.031Z" fill="#040701"/>
<path d="M539.043 306.657C538.716 305.839 535.852 291.62 534.379 284.193C533.867 281.615 531.596 279.774 528.957 279.774H514.657C509.317 279.774 505 284.111 505 289.431V289.84C505 292.991 507.557 295.548 510.708 295.548H528.159L532.169 309.542L539.064 306.657H539.043Z" fill="#E1AA2F"/>
<path d="M811.759 306.657C812.086 305.839 814.95 291.62 816.423 284.193C816.935 281.615 819.206 279.774 821.845 279.774H836.146C841.485 279.774 845.802 284.111 845.802 289.431V289.84C845.802 292.991 843.245 295.548 840.094 295.548H822.643L818.633 309.542L811.738 306.657H811.759Z" fill="#E1AA2F"/>
<path d="M824.547 320.284H824.567L777.553 232.741C775.159 228.281 770.495 225.499 765.441 225.499H583.89C578.755 225.499 574.05 228.363 571.676 232.925L526.381 320.284H526.401C525.337 322.003 524.683 323.987 524.683 326.156V413.842C524.683 422.517 531.72 429.554 540.395 429.554H810.512C819.186 429.554 826.224 422.517 826.224 413.842V326.156C826.224 323.987 825.59 321.982 824.506 320.284H824.547Z" fill="#FFD333"/>
<path d="M550.316 305.717L580.104 244.791C582.027 240.842 586.037 238.346 590.435 238.346H756.97C761.164 238.346 765.03 240.638 767.056 244.32L800.444 305.308C804.066 311.916 799.278 319.956 791.77 319.956H559.215C551.891 319.956 547.104 312.284 550.316 305.697V305.717Z" fill="#3B3D51"/>
<mask id="mask1_611_9624" style="mask-type:luminance" maskUnits="userSpaceOnUse" x="549" y="238" width="253" height="82">
<path d="M550.316 305.717L580.104 244.791C582.027 240.842 586.037 238.346 590.435 238.346H756.97C761.164 238.346 765.03 240.638 767.056 244.32L800.444 305.308C804.066 311.916 799.278 319.956 791.77 319.956H559.215C551.891 319.956 547.104 312.284 550.316 305.697V305.717Z" fill="white"/>
</mask>
<g mask="url(#mask1_611_9624)">
<path d="M622.046 211.442L733.853 356.638H864.646L775.302 197.059L622.046 211.442Z" fill="#46495E"/>
</g>
<path d="M545.59 353.223V372.987C545.59 377.283 549.088 380.781 553.385 380.781H601.013C605.452 380.781 608.419 376.199 606.577 372.148L604.654 367.892C601.135 360.118 594.159 354.451 585.832 352.548L555.103 345.592C550.234 344.488 545.59 348.191 545.59 353.203V353.223Z" fill="#F7F7F7"/>
<path d="M806.071 353.223V372.987C806.071 377.283 802.572 380.781 798.276 380.781H750.648C746.209 380.781 743.242 376.199 745.083 372.148L747.006 367.892C750.525 360.118 757.502 354.451 765.828 352.548L796.558 345.592C801.427 344.488 806.071 348.191 806.071 353.203V353.223Z" fill="#F7F7F7"/>
<path d="M524.702 326.176C524.702 326.176 645.02 370.326 826.244 326.176" stroke="#1C1C1C" stroke-width="2.27848" stroke-miterlimit="10"/>
<path d="M524.702 400.381H826.244" stroke="#1C1C1C" stroke-width="2.27848" stroke-miterlimit="10"/>
<path d="M585.26 407.725H561.487C560.628 407.725 559.932 408.421 559.932 409.28V419.55C559.932 420.409 560.628 421.105 561.487 421.105H585.26C586.118 421.105 586.814 420.409 586.814 419.55V409.28C586.814 408.421 586.118 407.725 585.26 407.725Z" fill="#F7F7F7"/>
<path d="M787.187 407.725H763.414C762.556 407.725 761.859 408.421 761.859 409.28V419.55C761.859 420.409 762.556 421.105 763.414 421.105H787.187C788.046 421.105 788.742 420.409 788.742 419.55V409.28C788.742 408.421 788.046 407.725 787.187 407.725Z" fill="#F7F7F7"/>
<path d="M718.363 384.75H625.992C623.659 384.75 621.757 382.847 621.757 380.515C621.757 378.182 623.659 376.28 625.992 376.28H718.363C720.695 376.28 722.598 378.182 722.598 380.515C722.598 382.847 720.695 384.75 718.363 384.75Z" fill="#AE6919"/>
<path d="M621.777 366.029H722.598" stroke="#E1AA2F" stroke-width="2.27848" stroke-miterlimit="10"/>
<path d="M720.185 216.884H631.967V225.517H720.185V216.884Z" fill="#E1AA2F"/>
<path d="M637.285 216.885L641.97 199.577C643.668 193.337 649.315 189 655.8 189H696.39C702.855 189 708.523 193.337 710.221 199.577L714.906 216.885H637.326H637.285Z" fill="#AE6919"/>
<path d="M658.931 200.742H655.269V198.368H665.232V200.742H661.59V210.357H658.931V200.742Z" fill="#F7F7F7"/>
<path d="M675.175 208.291H669.017L668.138 210.358H665.253L670.634 198.348H673.539L678.919 210.358H676.014L675.135 208.291H675.175ZM672.107 201.049L670.04 205.918H674.173L672.107 201.049Z" fill="#F7F7F7"/>
<path d="M688.822 198.348H691.748V198.471L687.697 204.322L691.809 210.276V210.358H688.843L686.019 206.143L683.196 210.358H680.229V210.276L684.301 204.322L680.27 198.471V198.348H683.196L685.999 202.624L688.802 198.348H688.822Z" fill="#F7F7F7"/>
<path d="M694.202 210.358V198.348H696.862V210.358H694.202Z" fill="#F7F7F7"/>
<path d="M1154.44 370.385H1114.16L1120.14 438.771H1164.95C1176.56 438.771 1184.71 427.359 1180.96 416.373L1168.73 380.595C1166.64 374.487 1160.9 370.385 1154.44 370.385Z" fill="#F75454"/>
<path d="M1116.07 277.342L1170.49 436.473C1176.53 454.139 1163.4 472.503 1144.73 472.503H1072.61L1052.73 245.103L1077.18 237.831C1077.18 237.831 1115.36 251.095 1117.77 252.928C1120.2 254.76 1116.07 277.342 1116.07 277.342Z" fill="#F9C164"/>
<path d="M1053.63 255.236L1070.03 442.853C1071.43 454.731 1072.67 464.96 1073.65 472.503H1118.33C1108.94 422.026 1076.79 249.331 1075.74 245.104L1060.41 242.825L1056.26 244.057L1053.63 255.236Z" fill="#FFA466"/>
<path d="M1102.21 445.82C1101.4 445.82 1100.68 445.228 1100.56 444.394L1089.53 371.49C1089.45 371.006 1089.6 370.521 1089.92 370.152C1090.23 369.784 1090.69 369.571 1091.18 369.571H1134.83C1135.75 369.571 1136.5 370.317 1136.5 371.248C1136.5 372.169 1135.76 372.925 1134.83 372.925H1093.11L1103.85 443.91C1103.99 444.821 1103.36 445.674 1102.44 445.81C1102.37 445.81 1102.29 445.82 1102.21 445.82Z" fill="#49263E"/>
<path d="M1114.73 311.686L1096.26 258.387C1094.54 253.432 1089.88 250.107 1084.64 250.078C1068.78 250.01 1054.88 250 1052.78 250.116C1053.41 250.078 1045.36 227.224 1045.36 227.224C1048.46 225.372 1049.75 225.372 1059.79 225.333C1064.03 225.324 1069.89 225.324 1077.21 225.353C1089.79 225.392 1102.3 225.479 1102.3 225.479C1107.52 225.518 1112.17 228.843 1113.88 233.788L1140.76 311.346L1114.73 311.686Z" fill="#F75454"/>
<path d="M1128.38 314.982C1127.69 314.982 1127.04 314.546 1126.8 313.858L1099.8 236.6C1082.04 236.484 1056.16 236.387 1054.51 236.581C1053.61 236.843 1052.79 236.319 1052.52 235.437C1052.26 234.554 1052.86 233.594 1053.75 233.333C1054.06 233.245 1055.04 232.954 1101 233.265C1101.71 233.265 1102.34 233.72 1102.58 234.389L1129.98 312.762C1130.28 313.635 1129.82 314.594 1128.95 314.895C1128.75 314.953 1128.55 314.982 1128.38 314.982Z" fill="#49263E"/>
<path fill-rule="evenodd" clip-rule="evenodd" d="M825.661 280.552C825.661 280.552 864.135 363.433 865.376 360.311L935.584 277.352L1003.52 309.873C1003.52 309.873 904.189 456.417 858.54 436.919C812.892 417.411 793.18 289.055 793.18 289.055L825.661 280.552Z" fill="#C77965"/>
<path d="M905.148 313.315C906.186 312.084 925.781 325.125 925.781 325.125L928.884 309.66L917.899 298.257L905.148 313.315Z" fill="#49263E"/>
<path fill-rule="evenodd" clip-rule="evenodd" d="M906.719 302.222L935.109 313.314V282.51L909.123 290.761L906.719 302.222Z" fill="#FFBBC8"/>
<path fill-rule="evenodd" clip-rule="evenodd" d="M1073.66 329.177C1073.45 312.81 1068.4 284.207 1059.2 256.758C1048.81 225.799 999.006 219.176 999.006 219.176C977.898 239.198 971.954 231.209 971.954 231.209C971.954 231.209 906.458 335.072 909.211 351.371C914.719 384.008 935.458 416.77 936.438 416.664L933.005 483.963L1088.65 481.2C1088.65 481.21 1074.07 363.239 1073.66 329.177Z" fill="#FFBBC8"/>
<path d="M878.203 383.843C877.631 383.843 877.079 383.552 876.759 383.019L863.931 361.154C863.465 360.359 863.737 359.331 864.532 358.866C865.317 358.401 866.345 358.662 866.83 359.457L879.658 381.322C880.123 382.117 879.852 383.145 879.057 383.61C878.785 383.765 878.494 383.843 878.203 383.843Z" fill="#49263E"/>
<path fill-rule="evenodd" clip-rule="evenodd" d="M1029.7 463.883C1051.84 456.456 1066.67 405.979 1075.73 360.156C1074.52 346.727 1073.74 335.8 1073.65 329.177C1073.53 319.084 1071.56 304.327 1067.91 288.066C1057.49 291.373 1046.68 295.445 1046.24 298.247C1045.4 303.706 963.761 437.365 963.761 437.365C963.761 437.365 987.933 477.904 1029.7 463.883Z" fill="#FF99AF"/>
<path d="M930.009 178.997C930.009 178.997 904.451 167.992 917.55 123.225C923.862 101.671 930.872 65.7962 901.93 57.5449C872.987 49.3033 857.144 74.891 860.121 114.053C862.108 140.203 876.546 178.667 905.886 196.857C921.409 206.475 930.009 178.997 930.009 178.997Z" fill="#C6AFC9"/>
<path d="M1008.6 169.785C1011.05 148.551 1011.63 126.997 1004.54 106.577C998.763 89.9192 981.999 77.6441 964.944 74.1924C928.012 66.7168 888.307 99.3437 890.236 137.013C890.935 150.606 898.895 161.223 906.836 171.617C909.939 175.68 913.342 179.898 914.961 184.823C916.765 190.321 914.922 198.766 909.124 201.258C907.398 202.005 905.488 202.111 903.636 202.422C884.118 205.66 879.057 225.692 886.862 241.555C888.472 244.832 890.392 248.429 889.383 251.939C888.006 256.758 882.228 258.406 877.923 260.966C867.247 267.317 865.24 281.463 870.98 291.925C875.217 299.653 883.304 304.986 891.982 306.518C901.212 308.137 910.705 305.713 919.363 302.135C932.647 296.647 946.57 290.645 959.097 283.557C968.173 278.428 980.438 269.944 977.927 257.824C975.6 246.596 1024.84 254.159 1019.44 232.372C1012.04 202.47 1007.2 181.808 1008.6 169.785Z" fill="#49263E"/>
<path fill-rule="evenodd" clip-rule="evenodd" d="M995.552 160.593C999.411 152.662 999.751 142.723 991.238 138.341C987.272 136.305 984.082 136.499 981.532 137.866C975.288 141.211 967.502 138.447 965.029 131.806C964.167 129.498 963.876 127.995 963.876 127.995C934.904 134.075 911.731 122.527 911.731 122.527C911.731 122.527 914.785 137.73 906.737 149.966C906.737 149.966 930.26 207.948 954.345 207.531L981.038 243.406C981.038 243.406 1018.32 225.197 1030.25 220.388C1028.2 219.079 1011.86 178.482 995.552 160.593Z" fill="#CC7A64"/>
<path d="M993.605 154.329C992.528 154.242 991.859 153.418 991.937 152.497C992.034 151.421 991.404 147.891 989.329 145.933C988.223 144.895 986.905 144.517 985.353 144.76C980.021 145.584 979.032 152.778 979.022 152.856C978.906 153.767 978.159 154.407 977.151 154.31C976.239 154.194 975.59 153.36 975.706 152.448C975.754 152.051 977.005 142.665 984.839 141.453C987.457 141.075 989.775 141.754 991.617 143.499C994.448 146.156 995.476 150.626 995.272 152.807C995.185 153.68 994.458 154.329 993.605 154.329Z" fill="#49263E"/>
<path d="M867.828 109.515C867.052 109.515 866.354 108.972 866.189 108.187C863.572 95.8243 868.226 86.681 868.42 86.3029C868.846 85.4884 869.855 85.1588 870.669 85.5951C871.493 86.0217 871.813 87.0301 871.387 87.8445C871.338 87.9318 867.101 96.3576 869.457 107.498C869.651 108.4 869.069 109.292 868.167 109.476C868.051 109.496 867.944 109.515 867.828 109.515Z" fill="#49263E"/>
<path d="M877.893 108.826C876.982 108.826 876.245 108.099 876.216 107.197C876.041 100.168 876.613 96.8711 876.642 96.7257C876.797 95.8143 877.699 95.2519 878.581 95.3779C879.493 95.5428 880.094 96.4154 879.929 97.3171C879.929 97.3462 879.386 100.478 879.561 107.11C879.58 108.031 878.853 108.807 877.932 108.826C877.922 108.826 877.912 108.826 877.893 108.826Z" fill="#49263E"/>
<path d="M941.606 141.424C940.869 141.424 940.2 140.949 939.996 140.212C939.919 139.931 939.288 137.41 941.034 135.103C942.634 132.999 945.601 131.932 949.867 131.932C950.788 131.932 951.544 132.679 951.544 133.61C951.544 134.531 950.798 135.287 949.867 135.287C946.774 135.287 944.65 135.917 943.719 137.11C942.944 138.108 943.215 139.291 943.235 139.35C943.458 140.232 942.915 141.153 942.042 141.376C941.897 141.405 941.741 141.424 941.606 141.424Z" fill="#49263E"/>
<path d="M914.001 157.85C913.778 157.85 913.565 157.811 913.361 157.714C912.508 157.355 912.101 156.386 912.46 155.532C913.73 152.488 917.957 147.271 924.861 149.104C925.743 149.346 926.276 150.267 926.034 151.159C925.801 152.051 924.909 152.575 923.978 152.342C918.19 150.791 915.65 156.589 915.543 156.832C915.271 157.471 914.651 157.85 914.001 157.85Z" fill="#49263E"/>
<path d="M928.555 163.318C929.68 162.736 930.126 161.33 929.544 160.206L927.847 156.919C927.265 155.794 925.859 155.348 924.735 155.93C923.61 156.511 923.164 157.917 923.746 159.042L925.443 162.329C926.024 163.454 927.43 163.9 928.555 163.318Z" fill="#49263E"/>
<path d="M954.278 150.471C955.402 149.889 955.848 148.483 955.267 147.359L953.57 144.081C952.988 142.957 951.582 142.511 950.457 143.092C949.333 143.674 948.887 145.08 949.468 146.205L951.165 149.482C951.747 150.607 953.153 151.053 954.278 150.471Z" fill="#49263E"/>
<path d="M939.676 179.442C938.154 179.442 936.932 179.025 936.021 178.521C932.986 176.853 931.638 173.276 931.667 170.667C931.735 164.559 928.739 154.591 923.717 152.245C922.873 151.857 922.514 150.859 922.902 150.025C923.29 149.201 924.289 148.822 925.123 149.22C931.687 152.284 935.09 163.657 935.012 170.706C934.993 172.413 935.895 174.643 937.63 175.603C939.88 176.853 942.837 175.535 944.893 174.197C945.668 173.702 946.696 173.925 947.21 174.701C947.714 175.477 947.481 176.514 946.706 177.009C943.884 178.822 941.547 179.442 939.676 179.442Z" fill="#49263E"/>
<path d="M952.562 180.189C952.213 180.189 951.873 180.16 951.544 180.092C950.933 179.976 950.409 179.588 950.118 179.045C949.827 178.502 949.798 177.853 950.031 177.281L955.286 164.753C955.577 164.055 956.227 163.58 956.973 163.503C957.73 163.425 958.457 163.764 958.884 164.385C961.627 168.389 961.938 172.607 959.737 175.952C958.069 178.502 955.131 180.189 952.562 180.189Z" fill="white"/>
<path fill-rule="evenodd" clip-rule="evenodd" d="M954.336 207.532C954.336 207.532 969.52 205.38 977.665 191.737C978.052 191.097 979.041 191.446 978.915 192.183L971.954 231.2L949.876 223.986L954.336 207.532Z" fill="#49263E"/>
<path d="M1082.22 463.883C1065.03 463.883 1044.36 456.087 1026.14 442.368C1007.71 428.512 975.92 396.283 969.908 336.148C965.71 294.078 970.073 261.412 982.872 239.053C993.14 221.125 1005.3 216.5 1006.66 216.035L1012.26 232.246C1012.1 232.314 1004.09 235.63 996.824 249.272C989.775 262.517 985.141 288.192 989.766 334.587C995.118 388.216 1020.26 416.499 1036.44 428.667C1056.41 443.686 1076.76 448.311 1088.07 446.236L1091.17 463.107C1088.33 463.631 1085.33 463.883 1082.22 463.883Z" fill="#49263E"/>
<path d="M951.854 429.802C951.505 429.802 951.156 429.695 950.855 429.472L935.429 418.002C934.682 417.449 934.537 416.402 935.089 415.656C935.632 414.909 936.679 414.773 937.426 415.306L952.852 426.777C953.599 427.329 953.744 428.377 953.192 429.123C952.862 429.569 952.358 429.802 951.854 429.802Z" fill="#49263E"/>
<path d="M987.884 327.325C987.302 331.621 983.986 350.974 983.424 354.222C972.312 332.202 961.278 306.188 961.278 306.188L928.884 315.002C932.743 345.418 941.712 381.254 951.766 410.206C955.945 422.239 960.745 434.815 969.054 444.675C978.585 455.981 995.136 459.52 1009.31 457.678C1014.69 456.98 1020.18 455.341 1024.14 451.618C1027.73 448.224 1029.69 443.473 1031.43 438.848C1040.18 415.578 1045.64 391.648 1049.69 367.195C1050.51 362.202 1059.21 324.513 1059.21 324.513C1028.64 330.476 1001.41 327.936 987.884 327.325Z" fill="#C77965"/>
<path d="M1006.51 402.227C1005.88 402.227 1005.28 401.868 1005 401.257L971.527 329.168C971.13 328.334 971.498 327.335 972.342 326.947C973.166 326.55 974.174 326.928 974.562 327.762L1008.03 399.851C1008.43 400.685 1008.06 401.684 1007.22 402.072C1006.99 402.178 1006.74 402.227 1006.51 402.227Z" fill="#49263E"/>
<path d="M1019.18 226.371C964.749 226.254 972.943 326.036 972.943 326.036C973.214 325.929 974.707 325.958 977.151 326.074C990.667 326.685 1033.62 329.604 1064.18 323.641C1070.36 322.438 1076.03 320.868 1080.85 318.841C1080.85 318.841 1073.62 226.487 1019.18 226.371Z" fill="#FFBBC8"/>
<path d="M1013.97 329.827C991.831 329.827 974.184 327.859 972.759 327.694C971.838 327.588 971.188 326.763 971.285 325.842C971.382 324.921 972.206 324.272 973.137 324.368C973.825 324.456 1042.25 332.057 1080.25 317.271C1081.1 316.951 1082.08 317.358 1082.41 318.221C1082.74 319.084 1082.32 320.054 1081.46 320.383C1062.17 327.907 1035.87 329.827 1013.97 329.827Z" fill="#49263E"/>
<path d="M991.539 262.954C989.716 259.424 985.644 252.831 979.051 248.642C969.704 242.718 964.39 246.025 964.39 246.025L940.383 269.334C932.035 277.44 927.391 288.619 927.526 300.254C927.798 321.983 935.109 350.615 935.109 350.615L970.974 328.489L965.99 297.21C965.99 297.21 994.913 278.729 996.542 276.858C997.289 276.005 997.89 272.747 998.326 269.45C998.84 265.591 995.495 262.333 991.655 262.944L991.539 262.954Z" fill="#C77965"/>
<path d="M980.942 261.247C983.434 262.372 987.497 263.312 991.172 263.206C992.907 257.514 994.885 252.928 996.824 249.272C1004.09 235.621 1012.11 232.314 1012.44 232.178C1012.27 232.237 1006.66 216.035 1006.66 216.035C1005.3 216.5 993.14 221.125 982.872 239.053C979.992 244.085 977.539 249.651 975.513 255.711C976.317 258.067 978.111 259.967 980.942 261.247Z" fill="#49263E"/>
<path d="M980.942 262.915C980.593 262.915 980.244 262.808 979.953 262.585L967.494 253.355C966.747 252.802 966.592 251.755 967.135 251.018C967.707 250.271 968.744 250.116 969.472 250.669L981.931 259.899C982.677 260.452 982.833 261.499 982.29 262.236C981.96 262.682 981.456 262.915 980.942 262.915Z" fill="#49263E"/>
<path d="M955.519 305.722C954.976 305.722 954.433 305.451 954.122 304.966C953.618 304.19 953.832 303.153 954.607 302.649L971.624 291.518C972.38 291.004 973.437 291.227 973.941 292.003C974.445 292.778 974.232 293.816 973.456 294.32L956.44 305.451C956.159 305.635 955.839 305.722 955.519 305.722Z" fill="#49263E"/>
<path d="M1073.77 156.948C1071.4 154.514 1068.72 152.342 1066.72 149.521C1063.32 144.731 1060.76 138.865 1060.9 132.882C1061.13 124.049 1060.73 114.79 1058.19 113.82C1054.12 112.249 1037.02 127.976 1030.97 133.716C1029.55 133.658 1028.12 133.677 1026.69 133.745C1025.25 133.677 1023.82 133.668 1022.4 133.716C1016.34 127.976 999.247 112.249 995.184 113.82C992.644 114.799 992.256 124.059 992.47 132.882C992.615 138.865 990.065 144.721 986.652 149.521C984.655 152.333 981.969 154.514 979.603 156.948C975.851 160.807 973.582 165.597 974.193 171.104C974.231 171.453 974.28 171.792 974.338 172.132C976.18 182.778 986.448 191.921 995.815 196.216C1005.32 200.57 1015.99 202.024 1026.38 202.102C1037.37 202.024 1048.05 200.58 1057.55 196.216C1066.92 191.921 1077.18 182.788 1079.03 172.132C1079.08 171.792 1079.13 171.443 1079.17 171.104C1079.79 165.597 1077.51 160.807 1073.77 156.948Z" fill="#C6AFC9"/>
<path d="M1029.19 196.799L1001.49 189.284C1001.49 189.284 986.74 213.747 993.314 240.731C999.287 265.214 1009.69 266.668 1015.63 266.998C1020.08 267.25 1022.02 262.78 1022.9 256.613C1024.22 265.107 1027 268.927 1033.91 269.499C1044.84 270.401 1054.2 243.582 1056.92 237.231C1059.63 230.88 1070.19 208.754 1067.5 189.827C1065.36 174.915 1039.87 189.818 1029.19 196.799Z" fill="#C6AFC9"/>
<path d="M1049.15 141.435C1048.94 141.435 1048.73 141.396 1048.51 141.309L1037.63 136.839C1037.19 136.655 1036.85 136.286 1036.68 135.831C1036.53 135.375 1036.58 134.871 1036.82 134.454C1039.62 129.586 1051.94 121.956 1053.34 121.102C1054.12 120.627 1055.16 120.86 1055.64 121.655C1056.12 122.45 1055.87 123.478 1055.09 123.953C1051.98 125.853 1044.26 130.963 1040.92 134.57L1049.78 138.206C1050.64 138.555 1051.04 139.534 1050.69 140.388C1050.43 141.047 1049.81 141.435 1049.15 141.435Z" fill="#49263E"/>
<path d="M1009.12 188.926C1009.12 188.926 1005.85 202.703 1024.75 223.288C1024.75 223.288 1052.91 208.667 1050.34 190.176L1009.12 188.926Z" fill="white"/>
<path d="M1061.7 178.134C1061.6 177.882 1061.49 177.639 1061.37 177.397C1060.2 174.915 1058.32 172.694 1055.34 171.153C1044.25 165.442 1032.58 169.107 1031.58 165.558C1030.8 162.766 1029.54 157.879 1028.6 154.805C1027.41 150.927 1023.24 149.347 1020.82 154.214C1019.09 157.724 1017.89 161.883 1016.87 165.558C1015.87 169.097 1004.2 165.432 993.111 171.153C990.134 172.685 988.243 174.915 987.08 177.397C986.963 177.639 986.857 177.892 986.76 178.134C984.859 182.817 985.722 188.092 988.563 191.989C990.939 193.677 993.402 195.112 995.816 196.217C1005.32 200.57 1015.99 202.025 1026.38 202.102C1034.91 202.044 1043 201.181 1050.61 198.845C1052.87 197.71 1054.91 196.45 1056.76 195.121C1061.97 191.379 1064.18 184.252 1061.7 178.134Z" fill="white"/>
<path d="M1028.6 164.821C1028.6 165.956 1026.69 166.867 1024.34 166.867C1021.98 166.867 1020.08 165.946 1020.08 164.821C1020.08 163.687 1021.99 162.775 1024.34 162.775C1026.69 162.775 1028.6 163.687 1028.6 164.821Z" fill="#49263E"/>
<path d="M1029.07 176.728C1028.44 176.728 1027.84 176.369 1027.55 175.758L1024.31 168.748L1020.9 175.797C1020.5 176.621 1019.5 176.98 1018.67 176.573C1017.83 176.166 1017.49 175.167 1017.89 174.333L1022.85 164.104C1023.13 163.532 1023.71 163.163 1024.36 163.163C1024.97 163.144 1025.61 163.541 1025.88 164.133L1030.6 174.362C1030.99 175.196 1030.62 176.195 1029.79 176.582C1029.55 176.67 1029.3 176.728 1029.07 176.728Z" fill="#49263E"/>
<path d="M1027.31 203.983C1016.8 203.983 1008.87 202.131 1008.2 201.976C1007.3 201.753 1006.75 200.851 1006.96 199.959C1007.19 199.058 1008.06 198.505 1008.99 198.718C1009.3 198.796 1041.08 206.194 1061.72 190.836C1062.46 190.302 1063.5 190.438 1064.05 191.185C1064.61 191.931 1064.45 192.978 1063.72 193.531C1052.44 201.899 1038.44 203.983 1027.31 203.983Z" fill="#49263E"/>
<path d="M1014.49 136.741C1013.95 136.741 1013.43 136.479 1013.1 136.004C1010.4 132 1000.06 123.438 998.511 122.488C997.89 122.246 997.444 121.635 997.444 120.927C997.444 120.006 998.191 119.25 999.122 119.25C1001.04 119.25 1013.51 130.613 1015.88 134.133C1016.39 134.899 1016.2 135.937 1015.43 136.45C1015.15 136.644 1014.82 136.741 1014.49 136.741Z" fill="#49263E"/>
<path d="M1005.04 138.507C1004.75 138.507 1004.44 138.429 1004.17 138.264L999.597 135.511C998.811 135.035 998.549 134.008 999.025 133.213C999.49 132.418 1000.53 132.165 1001.32 132.641L1005.9 135.394C1006.68 135.869 1006.95 136.897 1006.47 137.692C1006.16 138.216 1005.61 138.507 1005.04 138.507Z" fill="#49263E"/>
<path d="M1023.43 262.236C1022.51 262.236 1021.75 261.49 1021.75 260.559C1021.75 241.661 1023.32 224.015 1023.34 223.831C1023.42 222.919 1024.12 222.26 1025.16 222.318C1026.08 222.405 1026.76 223.22 1026.67 224.141C1026.65 224.315 1025.1 241.817 1025.1 260.559C1025.11 261.49 1024.36 262.236 1023.43 262.236Z" fill="#49263E"/>
<path d="M914.001 129.13C913.361 129.13 912.76 128.762 912.478 128.141C912.314 127.773 908.425 119.114 907.456 109.341C907.369 108.419 908.038 107.595 908.959 107.508C910.016 107.44 910.704 108.09 910.791 109.011C911.712 118.222 915.484 126.677 915.523 126.764C915.911 127.608 915.533 128.597 914.689 128.975C914.456 129.072 914.233 129.13 914.001 129.13Z" fill="#CC7A64"/>
<path d="M819.048 266.182C820.755 266.57 818.02 267.191 821.491 266.367C824.963 265.533 832.06 256.38 829.287 250.882C829.287 250.882 834.688 244.25 832.235 236.842C832.235 236.842 827.61 219.06 825.622 216.878C825.622 216.878 826.999 211.39 825.845 208.433C824.691 205.476 812.94 193.909 807.898 193.026C802.856 192.144 791.046 206.106 787.478 210.654C783.91 215.201 773.904 227.049 775.979 233.332C778.063 239.615 781.825 271.855 781.825 271.855L797.795 312.733L837.693 305.616L819.048 266.182Z" fill="#C77965"/>
<path d="M778.193 179.982C770.282 193.774 774.006 226.361 776.891 238.154L794.295 211.488C789.714 168.682 781.578 174.72 778.193 179.982Z" fill="#C77965"/>
<path d="M790.134 219.176C789.213 219.176 788.457 218.43 788.457 217.499C788.457 216.578 789.204 215.821 790.134 215.821L825.612 215.792C826.533 215.792 827.289 216.539 827.289 217.47C827.289 218.391 826.543 219.147 825.612 219.147L790.134 219.176Z" fill="#49263E"/>
<path d="M813.241 219.157C812.678 219.157 812.126 218.876 811.806 218.352L806.376 209.442C805.901 208.656 806.153 207.619 806.938 207.144C807.733 206.659 808.761 206.911 809.246 207.696L814.676 216.607C815.151 217.392 814.899 218.43 814.113 218.905C813.842 219.079 813.541 219.157 813.241 219.157Z" fill="#49263E"/>
<path d="M795.914 236.61C795.07 236.61 794.343 235.97 794.246 235.107C794.159 234.186 794.818 233.362 795.739 233.274C798.919 232.945 829.568 231.219 830.877 231.141C831.866 231.025 832.594 231.801 832.642 232.722C832.691 233.643 831.983 234.438 831.062 234.486C830.742 234.506 799.181 236.29 796.088 236.61C796.03 236.61 795.972 236.61 795.914 236.61Z" fill="#49263E"/>
<path d="M801.091 255.866C800.345 255.866 799.656 255.381 799.443 254.654C799.21 253.801 799.637 252.909 800.49 252.628C801.683 252.23 818.951 250.698 829.142 249.826C830.043 249.767 830.877 250.436 830.955 251.348C831.042 252.269 830.354 253.083 829.432 253.161C819.339 254.034 802.817 255.527 801.469 255.827C801.343 255.856 801.217 255.866 801.091 255.866Z" fill="#49263E"/>
<path d="M820.367 295.552C820.154 295.552 819.931 295.513 819.727 295.426C818.874 295.067 818.467 294.088 818.826 293.234C824.11 280.562 819.892 271.166 818.419 268.51C813.968 268.723 804.931 269.188 803.661 269.343C802.74 269.508 801.916 268.81 801.8 267.889C801.683 266.968 802.333 266.134 803.254 266.018C804.999 265.795 817.798 265.184 819.252 265.116C819.883 265.116 820.396 265.378 820.707 265.833C821.046 266.318 828.861 277.866 821.919 294.524C821.647 295.164 821.027 295.552 820.367 295.552Z" fill="#49263E"/>
<path d="M1010.29 164.172C1011.56 164.172 1012.6 163.134 1012.6 161.864V158.17C1012.6 156.9 1011.56 155.862 1010.29 155.862C1009.02 155.862 1007.98 156.9 1007.98 158.17V161.864C1007.98 163.125 1009.02 164.172 1010.29 164.172Z" fill="#49263E"/>
<path d="M1038.38 164.172C1039.65 164.172 1040.69 163.134 1040.69 161.864V158.17C1040.69 156.9 1039.65 155.862 1038.38 155.862C1037.11 155.862 1036.07 156.9 1036.07 158.17V161.864C1036.07 163.125 1037.11 164.172 1038.38 164.172Z" fill="#49263E"/>
<path d="M1297.07 485.214H687.677C686.756 485.214 686 484.468 686 483.537C686 482.616 686.747 481.859 687.677 481.859H1297.07C1297.99 481.859 1298.75 482.606 1298.75 483.537C1298.75 484.468 1298 485.214 1297.07 485.214Z" fill="#49263E"/>
</g>
<defs>
<radialGradient id="paint0_radial_611_9624" cx="0" cy="0" r="1" gradientUnits="userSpaceOnUse" gradientTransform="translate(490.1 344.99) rotate(-140.928) scale(770.398 362.065)">
<stop stop-color="#59CAFF"/>
<stop offset="1" stop-color="white" stop-opacity="0"/>
</radialGradient>
<clipPath id="clip0_611_9624">
<rect width="1440" height="560" fill="white"/>
</clipPath>
</defs>
</svg>
