<svg width="935" height="518" viewBox="0 0 935 518" fill="none" xmlns="http://www.w3.org/2000/svg">
<path d="M154.936 560.3C79.801 501.264 55.8385 396.585 60.574 305.336C65.7186 206.43 109.627 109.99 210.423 78.6569C268.55 60.5806 329.851 68.4603 387.78 83.0676C443.229 97.043 498.468 125.576 557.24 117.511C592.31 112.703 622.942 95.3333 655.073 81.8163C691.631 66.4408 731.609 56.9876 771.365 57C812.484 57.0124 854.124 67.7913 887.991 91.096C934.168 122.875 962.68 175.531 976.031 229.958C994.688 306.03 998.556 391.518 972.238 466.301C950.47 528.125 908.012 576.147 845.57 596.688C777.588 619.052 704.634 619.138 633.838 618.977C561.046 618.816 488.266 618.655 415.474 618.482C327.582 618.296 227.543 617.367 154.936 560.3Z" fill="#F0FCFF"/>
<path d="M557.564 344.574C557.564 344.574 553.019 302.933 582.074 291.209C611.13 279.484 622.744 321.736 623.274 317.891C623.805 314.047 605.943 240.076 630.143 220.032C654.332 199.987 668.95 244.432 668.95 244.432C668.95 244.432 665.286 227.06 683.138 228.212C700.999 229.363 692.359 279.705 692.359 279.705C692.359 279.705 712.123 255.135 730.756 261.553C749.389 267.96 714.826 328.444 714.826 328.444C714.826 328.444 744.302 313.386 751.121 334.792C757.939 356.188 733.84 374.531 733.84 374.531C733.84 374.531 770.294 383.602 771.936 412.547C773.578 441.492 773.578 441.492 773.578 441.492C773.578 441.492 523.012 438.539 522.461 438.549C521.901 438.559 510.457 398.33 523.923 385.914C537.399 373.499 528.449 363.747 538.401 350.992C548.353 338.236 557.564 344.574 557.564 344.574Z" fill="#80C7A7"/>
<path d="M603.13 226.57C601.217 222.064 597.893 217.048 593.077 216.117C588.091 215.146 582.905 218.63 582.344 223.786C581.934 227.591 583.586 231.315 585.548 234.6C587.901 238.544 599.535 255.595 604.772 247.025C605.993 245.022 605.953 242.519 605.803 240.176C605.503 235.541 604.882 230.855 603.13 226.57Z" fill="#80C7A7"/>
<path d="M178.841 441.24C178.841 441.24 132.114 429.576 132.995 417.05C134.296 398.758 148.584 396.856 148.584 396.856C148.584 396.856 116.504 377.071 125.636 357.247C134.757 337.413 174.605 359.88 174.605 359.88C174.605 359.88 142.236 304.002 160.969 286.721C179.692 269.44 195.251 311.912 194.67 310.26C194.089 308.608 184.658 268.879 199.796 265.835C214.935 262.792 225.508 340.276 224.987 337.403C224.456 334.529 234.288 307.006 256.816 320.482C279.343 333.949 278.282 392.771 278.282 392.771C278.282 392.771 280.365 344.301 305.195 349.778C330.025 355.265 328.303 388.455 328.874 387.704C329.455 386.943 357.699 339.716 384.472 324.157C411.245 308.608 450.803 319.841 450.803 319.841L453.877 441.24H178.841Z" fill="#3F9896"/>
<path d="M248.706 279.655C248.716 279.515 248.726 279.375 248.746 279.235C249.187 273.678 248.426 266.349 243.72 262.594C238.844 258.709 231.255 259.561 227.72 264.847C225.117 268.742 224.807 273.728 225.067 278.404C225.388 284.03 228.351 309.131 238.904 302.793C241.367 301.312 242.749 298.578 243.91 295.945C246.203 290.749 248.185 285.312 248.706 279.655Z" fill="#3F9896"/>
<path d="M741.269 303.964C740.958 308.029 742.921 311.413 748.898 309.321C753.203 307.809 757.739 303.243 757.118 298.347C756.667 294.773 753.684 292.33 749.999 292.911C747.366 293.331 745.133 295.154 743.611 297.336C742.33 299.199 741.449 301.692 741.269 303.964Z" fill="#80C7A7"/>
<path d="M45.5205 383.031H92.8416V412.164C92.8416 416.829 89.0567 420.613 84.3921 420.613H53.97C49.3054 420.613 45.5205 416.829 45.5205 412.164V383.031Z" fill="#040701"/>
<path d="M246.386 383.031H293.707V412.164C293.707 416.829 289.922 420.613 285.257 420.613H254.835C250.171 420.613 246.386 416.829 246.386 412.164V383.031Z" fill="#040701"/>
<path d="M34.0434 264.657C33.716 263.839 30.8518 249.62 29.3788 242.193C28.8673 239.615 26.5964 237.774 23.9572 237.774H9.65653C4.3168 237.774 0 242.111 0 247.431V247.84C0 250.991 2.55734 253.548 5.70799 253.548H23.1593L27.1692 267.542L34.0638 264.657H34.0434Z" fill="#E1AA2F"/>
<path d="M306.759 264.657C307.086 263.839 309.95 249.62 311.423 242.193C311.935 239.615 314.206 237.774 316.845 237.774H331.146C336.485 237.774 340.802 242.111 340.802 247.431V247.84C340.802 250.991 338.245 253.548 335.094 253.548H317.643L313.633 267.542L306.738 264.657H306.759Z" fill="#E1AA2F"/>
<path d="M319.547 278.284H319.567L272.553 190.741C270.159 186.281 265.495 183.499 260.441 183.499H78.8903C73.7551 183.499 69.0496 186.363 66.6764 190.925L21.3807 278.284H21.4012C20.3373 280.003 19.6826 281.987 19.6826 284.156V371.842C19.6826 380.517 26.7204 387.554 35.3949 387.554H305.512C314.186 387.554 321.224 380.517 321.224 371.842V284.156C321.224 281.987 320.59 279.982 319.506 278.284H319.547Z" fill="#FFD333"/>
<path d="M45.3156 263.717L75.1036 202.791C77.0267 198.842 81.0366 196.346 85.4352 196.346H251.97C256.164 196.346 260.03 198.638 262.056 202.32L295.444 263.308C299.066 269.916 294.278 277.956 286.77 277.956H54.2152C46.891 277.956 42.1036 270.284 45.3156 263.697V263.717Z" fill="#3B3D51"/>
<mask id="mask0_611_9634" style="mask-type:luminance" maskUnits="userSpaceOnUse" x="44" y="196" width="253" height="82">
<path d="M45.3156 263.717L75.1036 202.791C77.0267 198.842 81.0366 196.346 85.4352 196.346H251.97C256.164 196.346 260.03 198.638 262.056 202.32L295.444 263.308C299.066 269.916 294.278 277.956 286.77 277.956H54.2152C46.891 277.956 42.1036 270.284 45.3156 263.697V263.717Z" fill="white"/>
</mask>
<g mask="url(#mask0_611_9634)">
<path d="M117.046 169.442L228.853 314.638H359.646L270.302 155.059L117.046 169.442Z" fill="#46495E"/>
</g>
<path d="M40.5898 311.223V330.987C40.5898 335.283 44.0883 338.781 48.3846 338.781H96.0126C100.452 338.781 103.419 334.199 101.577 330.148L99.6543 325.892C96.1353 318.118 89.1589 312.451 80.8322 310.548L50.1032 303.592C45.234 302.488 40.5898 306.191 40.5898 311.203V311.223Z" fill="#F7F7F7"/>
<path d="M301.071 311.223V330.987C301.071 335.283 297.572 338.781 293.276 338.781H245.648C241.209 338.781 238.242 334.199 240.083 330.148L242.006 325.892C245.525 318.118 252.502 312.451 260.828 310.548L291.558 303.592C296.427 302.488 301.071 306.191 301.071 311.203V311.223Z" fill="#F7F7F7"/>
<path d="M19.7021 284.176C19.7021 284.176 140.02 328.326 321.244 284.176" stroke="#1C1C1C" stroke-width="2.27848" stroke-miterlimit="10"/>
<path d="M19.7021 358.381H321.244" stroke="#1C1C1C" stroke-width="2.27848" stroke-miterlimit="10"/>
<path d="M80.2596 365.725H56.4865C55.6278 365.725 54.9316 366.421 54.9316 367.28V377.55C54.9316 378.409 55.6278 379.105 56.4865 379.105H80.2596C81.1183 379.105 81.8144 378.409 81.8144 377.55V367.28C81.8144 366.421 81.1183 365.725 80.2596 365.725Z" fill="#F7F7F7"/>
<path d="M282.187 365.725H258.414C257.556 365.725 256.859 366.421 256.859 367.28V377.55C256.859 378.409 257.556 379.105 258.414 379.105H282.187C283.046 379.105 283.742 378.409 283.742 377.55V367.28C283.742 366.421 283.046 365.725 282.187 365.725Z" fill="#F7F7F7"/>
<path d="M213.363 342.75H120.992C118.659 342.75 116.757 340.847 116.757 338.515C116.757 336.182 118.659 334.28 120.992 334.28H213.363C215.695 334.28 217.598 336.182 217.598 338.515C217.598 340.847 215.695 342.75 213.363 342.75Z" fill="#AE6919"/>
<path d="M116.777 324.029H217.598" stroke="#E1AA2F" stroke-width="2.27848" stroke-miterlimit="10"/>
<path d="M215.185 174.884H126.967V183.517H215.185V174.884Z" fill="#E1AA2F"/>
<path d="M132.285 174.885L136.97 157.577C138.668 151.337 144.315 147 150.8 147H191.39C197.855 147 203.523 151.337 205.221 157.577L209.906 174.885H132.326H132.285Z" fill="#AE6919"/>
<path d="M153.931 158.742H150.269V156.368H160.232V158.742H156.59V168.357H153.931V158.742Z" fill="#F7F7F7"/>
<path d="M170.175 166.291H164.017L163.138 168.358H160.253L165.634 156.348H168.539L173.919 168.358H171.014L170.135 166.291H170.175ZM167.107 159.049L165.04 163.918H169.173L167.107 159.049Z" fill="#F7F7F7"/>
<path d="M183.822 156.348H186.748V156.471L182.697 162.322L186.809 168.276V168.358H183.843L181.019 164.143L178.196 168.358H175.229V168.276L179.301 162.322L175.27 156.471V156.348H178.196L180.999 160.624L183.802 156.348H183.822Z" fill="#F7F7F7"/>
<path d="M189.202 168.358V156.348H191.862V168.358H189.202Z" fill="#F7F7F7"/>
<path d="M649.441 328.385H609.164L615.137 396.771H659.952C671.558 396.771 679.712 385.359 675.96 374.373L663.733 338.595C661.639 332.487 655.899 328.385 649.441 328.385Z" fill="#F75454"/>
<path d="M611.074 235.342L665.488 394.473C671.529 412.139 658.4 430.503 639.726 430.503H567.607L547.73 203.103L572.184 195.831C572.184 195.831 610.357 209.095 612.771 210.928C615.195 212.76 611.074 235.342 611.074 235.342Z" fill="#F9C164"/>
<path d="M548.632 213.236L565.028 400.853C566.434 412.731 567.675 422.96 568.654 430.503H613.333C603.938 380.026 571.786 207.331 570.739 203.104L555.409 200.825L551.259 202.057L548.632 213.236Z" fill="#FFA466"/>
<path d="M597.21 403.82C596.395 403.82 595.678 403.228 595.561 402.394L584.527 329.49C584.45 329.006 584.595 328.521 584.915 328.152C585.225 327.784 585.691 327.571 586.176 327.571H629.827C630.748 327.571 631.504 328.317 631.504 329.248C631.504 330.169 630.758 330.925 629.827 330.925H588.115L598.848 401.91C598.994 402.821 598.363 403.674 597.442 403.81C597.374 403.81 597.287 403.82 597.21 403.82Z" fill="#49263E"/>
<path d="M609.726 269.686L591.255 216.387C589.539 211.432 584.876 208.107 579.64 208.078C563.777 208.01 549.883 208 547.779 208.116C548.409 208.078 540.361 185.224 540.361 185.224C543.464 183.372 544.754 183.372 554.789 183.333C559.026 183.324 564.892 183.324 572.213 183.353C584.788 183.392 597.296 183.479 597.296 183.479C602.522 183.518 607.167 186.843 608.883 191.788L635.76 269.346L609.726 269.686Z" fill="#F75454"/>
<path d="M623.379 272.982C622.691 272.982 622.041 272.546 621.799 271.858L594.795 194.6C577.042 194.484 551.163 194.387 549.505 194.581C548.613 194.843 547.789 194.319 547.518 193.437C547.256 192.554 547.857 191.594 548.749 191.333C549.059 191.245 550.039 190.954 595.998 191.265C596.705 191.265 597.336 191.72 597.578 192.389L624.979 270.762C625.279 271.635 624.824 272.594 623.951 272.895C623.748 272.953 623.554 272.982 623.379 272.982Z" fill="#49263E"/>
<path fill-rule="evenodd" clip-rule="evenodd" d="M320.661 238.552C320.661 238.552 359.135 321.433 360.376 318.311L430.584 235.352L498.524 267.873C498.524 267.873 399.189 414.417 353.54 394.919C307.892 375.411 288.18 247.055 288.18 247.055L320.661 238.552Z" fill="#C77965"/>
<path d="M400.148 271.315C401.186 270.084 420.781 283.125 420.781 283.125L423.884 267.66L412.899 256.257L400.148 271.315Z" fill="#49263E"/>
<path fill-rule="evenodd" clip-rule="evenodd" d="M401.719 260.222L430.109 271.314V240.51L404.123 248.761L401.719 260.222Z" fill="#FFBBC8"/>
<path fill-rule="evenodd" clip-rule="evenodd" d="M568.655 287.177C568.451 270.81 563.4 242.207 554.198 214.758C543.814 183.799 494.006 177.176 494.006 177.176C472.898 197.198 466.954 189.209 466.954 189.209C466.954 189.209 401.458 293.072 404.211 309.371C409.719 342.008 430.458 374.77 431.438 374.664L428.005 441.963L583.645 439.2C583.645 439.21 569.072 321.239 568.655 287.177Z" fill="#FFBBC8"/>
<path d="M373.203 341.843C372.631 341.843 372.079 341.552 371.759 341.019L358.931 319.154C358.465 318.359 358.737 317.331 359.532 316.866C360.317 316.401 361.345 316.662 361.83 317.457L374.658 339.322C375.123 340.117 374.852 341.145 374.057 341.61C373.785 341.765 373.494 341.843 373.203 341.843Z" fill="#49263E"/>
<path fill-rule="evenodd" clip-rule="evenodd" d="M524.703 421.883C546.839 414.456 561.674 363.979 570.73 318.156C569.518 304.727 568.742 293.8 568.655 287.177C568.529 277.084 566.561 262.327 562.905 246.066C552.492 249.373 541.681 253.445 541.244 256.247C540.401 261.706 458.761 395.365 458.761 395.365C458.761 395.365 482.933 435.904 524.703 421.883Z" fill="#FF99AF"/>
<path d="M425.009 136.997C425.009 136.997 399.451 125.992 412.55 81.2254C418.862 59.6712 425.872 23.7962 396.93 15.5449C367.987 7.30332 352.144 32.891 355.121 72.053C357.108 98.203 371.546 136.667 400.886 154.857C416.409 164.475 425.009 136.997 425.009 136.997Z" fill="#C6AFC9"/>
<path d="M503.595 127.785C506.048 106.551 506.63 84.9966 499.542 64.5769C493.763 47.9192 476.999 35.6441 459.944 32.1924C423.012 24.7168 383.307 57.3437 385.236 95.0126C385.935 108.606 393.895 119.223 401.836 129.617C404.939 133.68 408.342 137.898 409.961 142.823C411.765 148.321 409.922 156.766 404.124 159.258C402.398 160.005 400.488 160.111 398.636 160.422C379.118 163.66 374.057 183.692 381.862 199.555C383.472 202.832 385.392 206.429 384.383 209.939C383.006 214.758 377.228 216.406 372.923 218.966C362.247 225.317 360.24 239.463 365.98 249.925C370.217 257.653 378.304 262.986 386.982 264.518C396.212 266.137 405.705 263.713 414.363 260.135C427.647 254.647 441.57 248.645 454.097 241.557C463.173 236.428 475.438 227.944 472.927 215.824C470.6 204.596 519.836 212.159 514.445 190.372C507.037 160.47 502.199 139.808 503.595 127.785Z" fill="#49263E"/>
<path fill-rule="evenodd" clip-rule="evenodd" d="M490.552 118.593C494.411 110.662 494.751 100.723 486.238 96.3407C482.272 94.3046 479.082 94.4985 476.532 95.8656C470.288 99.2108 462.502 96.4474 460.029 89.8057C459.167 87.498 458.876 85.9951 458.876 85.9951C429.904 92.0745 406.731 80.5266 406.731 80.5266C406.731 80.5266 409.785 95.7299 401.737 107.966C401.737 107.966 425.26 165.948 449.345 165.531L476.038 201.406C476.038 201.406 513.318 183.197 525.254 178.388C523.199 177.079 506.861 136.482 490.552 118.593Z" fill="#CC7A64"/>
<path d="M488.605 112.329C487.528 112.242 486.859 111.418 486.937 110.497C487.034 109.421 486.404 105.891 484.329 103.933C483.223 102.895 481.905 102.517 480.353 102.76C475.021 103.584 474.032 110.778 474.022 110.856C473.906 111.767 473.159 112.407 472.151 112.31C471.239 112.194 470.59 111.36 470.706 110.448C470.754 110.051 472.005 100.665 479.839 99.4532C482.457 99.0751 484.775 99.7538 486.617 101.499C489.448 104.156 490.476 108.626 490.272 110.807C490.185 111.68 489.458 112.329 488.605 112.329Z" fill="#49263E"/>
<path d="M362.828 67.515C362.052 67.515 361.354 66.9721 361.189 66.1867C358.572 53.8243 363.226 44.681 363.42 44.3029C363.846 43.4884 364.855 43.1588 365.669 43.5951C366.493 44.0217 366.813 45.0301 366.387 45.8445C366.338 45.9318 362.101 54.3576 364.457 65.4983C364.651 66.4 364.069 67.292 363.167 67.4762C363.051 67.4956 362.944 67.515 362.828 67.515Z" fill="#49263E"/>
<path d="M372.893 66.8262C371.982 66.8262 371.245 66.099 371.216 65.1973C371.041 58.1677 371.613 54.8711 371.642 54.7257C371.797 53.8143 372.699 53.2519 373.581 53.3779C374.493 53.5428 375.094 54.4154 374.929 55.3171C374.929 55.3462 374.386 58.478 374.561 65.1101C374.58 66.0312 373.853 66.8069 372.932 66.8262C372.922 66.8262 372.912 66.8262 372.893 66.8262Z" fill="#49263E"/>
<path d="M436.606 99.4245C435.869 99.4245 435.2 98.9494 434.996 98.2125C434.919 97.9313 434.288 95.4103 436.034 93.1027C437.634 90.9987 440.601 89.9321 444.867 89.9321C445.788 89.9321 446.544 90.6787 446.544 91.6095C446.544 92.5306 445.798 93.2869 444.867 93.2869C441.774 93.2869 439.65 93.9172 438.719 95.1098C437.944 96.1085 438.215 97.2914 438.235 97.3495C438.458 98.2319 437.915 99.153 437.042 99.376C436.897 99.4051 436.741 99.4245 436.606 99.4245Z" fill="#49263E"/>
<path d="M409.001 115.85C408.778 115.85 408.565 115.811 408.361 115.714C407.508 115.355 407.101 114.386 407.46 113.532C408.73 110.488 412.957 105.271 419.861 107.104C420.743 107.346 421.276 108.267 421.034 109.159C420.801 110.051 419.909 110.575 418.978 110.342C413.19 108.791 410.65 114.589 410.543 114.832C410.271 115.471 409.651 115.85 409.001 115.85Z" fill="#49263E"/>
<path d="M423.555 121.318C424.68 120.736 425.126 119.33 424.544 118.206L422.847 114.919C422.265 113.794 420.859 113.348 419.735 113.93C418.61 114.511 418.164 115.917 418.746 117.042L420.443 120.329C421.024 121.454 422.43 121.9 423.555 121.318Z" fill="#49263E"/>
<path d="M449.278 108.471C450.402 107.889 450.848 106.483 450.267 105.359L448.57 102.081C447.988 100.957 446.582 100.511 445.457 101.092C444.333 101.674 443.887 103.08 444.468 104.205L446.165 107.482C446.747 108.607 448.153 109.053 449.278 108.471Z" fill="#49263E"/>
<path d="M434.676 137.442C433.154 137.442 431.932 137.025 431.021 136.521C427.986 134.853 426.638 131.276 426.667 128.667C426.735 122.559 423.739 112.591 418.717 110.245C417.873 109.857 417.514 108.859 417.902 108.025C418.29 107.201 419.289 106.822 420.123 107.22C426.687 110.284 430.09 121.657 430.012 128.706C429.993 130.413 430.895 132.643 432.63 133.603C434.88 134.853 437.837 133.535 439.893 132.197C440.668 131.702 441.696 131.925 442.21 132.701C442.714 133.477 442.481 134.514 441.706 135.009C438.884 136.822 436.547 137.442 434.676 137.442Z" fill="#49263E"/>
<path d="M447.562 138.189C447.213 138.189 446.873 138.16 446.544 138.092C445.933 137.976 445.409 137.588 445.118 137.045C444.827 136.502 444.798 135.853 445.031 135.281L450.286 122.753C450.577 122.055 451.227 121.58 451.973 121.503C452.73 121.425 453.457 121.764 453.884 122.385C456.627 126.389 456.938 130.607 454.737 133.952C453.069 136.502 450.131 138.189 447.562 138.189Z" fill="white"/>
<path fill-rule="evenodd" clip-rule="evenodd" d="M449.336 165.532C449.336 165.532 464.52 163.38 472.665 149.737C473.052 149.097 474.041 149.446 473.915 150.183L466.954 189.2L444.876 181.986L449.336 165.532Z" fill="#49263E"/>
<path d="M577.217 421.883C560.026 421.883 539.364 414.087 521.135 400.368C502.713 386.512 470.92 354.283 464.908 294.148C460.71 252.078 465.073 219.412 477.872 197.053C488.14 179.125 500.299 174.5 501.656 174.035L507.26 190.246C507.095 190.314 499.087 193.63 491.824 207.272C484.775 220.517 480.141 246.192 484.766 292.587C490.118 346.216 515.259 374.499 531.442 386.667C551.406 401.686 571.758 406.311 583.073 404.236L586.166 421.107C583.325 421.631 580.329 421.883 577.217 421.883Z" fill="#49263E"/>
<path d="M446.854 387.802C446.505 387.802 446.156 387.695 445.855 387.472L430.429 376.002C429.682 375.449 429.537 374.402 430.089 373.656C430.632 372.909 431.679 372.773 432.426 373.306L447.852 384.777C448.599 385.329 448.744 386.377 448.192 387.123C447.862 387.569 447.358 387.802 446.854 387.802Z" fill="#49263E"/>
<path d="M482.884 285.325C482.302 289.621 478.986 308.974 478.424 312.222C467.312 290.202 456.278 264.188 456.278 264.188L423.884 273.002C427.743 303.418 436.712 339.254 446.766 368.206C450.945 380.239 455.745 392.815 464.054 402.675C473.585 413.981 490.136 417.52 504.312 415.678C509.693 414.98 515.181 413.341 519.137 409.618C522.734 406.224 524.693 401.473 526.428 396.848C535.184 373.578 540.643 349.648 544.686 325.195C545.51 320.202 554.207 282.513 554.207 282.513C523.636 288.476 496.41 285.936 482.884 285.325Z" fill="#C77965"/>
<path d="M501.51 360.227C500.88 360.227 500.279 359.868 499.998 359.257L466.527 287.168C466.13 286.334 466.498 285.335 467.342 284.947C468.166 284.55 469.174 284.928 469.562 285.762L503.033 357.851C503.43 358.685 503.062 359.684 502.218 360.072C501.986 360.178 501.743 360.227 501.51 360.227Z" fill="#49263E"/>
<path d="M514.183 184.371C459.749 184.254 467.943 284.036 467.943 284.036C468.214 283.929 469.707 283.958 472.151 284.074C485.667 284.685 528.62 287.604 559.182 281.641C565.358 280.438 571.03 278.868 575.849 276.841C575.849 276.841 568.616 184.487 514.183 184.371Z" fill="#FFBBC8"/>
<path d="M508.967 287.827C486.831 287.827 469.184 285.859 467.759 285.694C466.838 285.588 466.188 284.763 466.285 283.842C466.382 282.921 467.206 282.272 468.137 282.368C468.825 282.456 537.25 290.057 575.248 275.271C576.101 274.951 577.081 275.358 577.41 276.221C577.74 277.084 577.323 278.054 576.46 278.383C557.175 285.907 530.87 287.827 508.967 287.827Z" fill="#49263E"/>
<path d="M486.539 220.954C484.716 217.424 480.644 210.831 474.051 206.642C464.704 200.718 459.39 204.025 459.39 204.025L435.383 227.334C427.035 235.44 422.391 246.619 422.526 258.254C422.798 279.983 430.109 308.615 430.109 308.615L465.974 286.489L460.99 255.21C460.99 255.21 489.913 236.729 491.542 234.858C492.289 234.005 492.89 230.747 493.326 227.45C493.84 223.591 490.495 220.333 486.655 220.944L486.539 220.954Z" fill="#C77965"/>
<path d="M475.942 219.247C478.434 220.372 482.497 221.312 486.172 221.206C487.907 215.514 489.885 210.928 491.824 207.272C499.087 193.621 507.105 190.314 507.445 190.178C507.27 190.237 501.656 174.035 501.656 174.035C500.299 174.5 488.14 179.125 477.872 197.053C474.992 202.085 472.539 207.651 470.513 213.711C471.317 216.067 473.111 217.967 475.942 219.247Z" fill="#49263E"/>
<path d="M475.942 220.915C475.593 220.915 475.244 220.808 474.953 220.585L462.494 211.355C461.747 210.802 461.592 209.755 462.135 209.018C462.707 208.271 463.744 208.116 464.472 208.669L476.931 217.899C477.677 218.452 477.833 219.499 477.29 220.236C476.96 220.682 476.456 220.915 475.942 220.915Z" fill="#49263E"/>
<path d="M450.519 263.722C449.976 263.722 449.433 263.451 449.122 262.966C448.618 262.19 448.832 261.153 449.607 260.649L466.624 249.518C467.38 249.004 468.437 249.227 468.941 250.003C469.445 250.778 469.232 251.816 468.456 252.32L451.44 263.451C451.159 263.635 450.839 263.722 450.519 263.722Z" fill="#49263E"/>
<path d="M568.77 114.948C566.404 112.514 563.719 110.342 561.721 107.521C558.318 102.731 555.758 96.8648 555.904 90.8824C556.127 82.0494 555.729 72.7897 553.189 71.8201C549.117 70.2494 532.023 85.9762 525.972 91.7163C524.547 91.6581 523.122 91.6775 521.687 91.7453C520.252 91.6775 518.817 91.6678 517.401 91.7163C511.341 85.9762 494.247 70.2494 490.184 71.8201C487.644 72.7994 487.256 82.0591 487.47 90.8824C487.615 96.8648 485.065 102.721 481.652 107.521C479.655 110.333 476.969 112.514 474.603 114.948C470.851 118.807 468.582 123.597 469.193 129.104C469.231 129.453 469.28 129.792 469.338 130.132C471.18 140.778 481.448 149.921 490.815 154.216C500.317 158.57 510.992 160.024 521.376 160.102C532.372 160.024 543.047 158.58 552.549 154.216C561.915 149.921 572.183 140.788 574.025 130.132C574.084 129.792 574.132 129.443 574.171 129.104C574.791 123.597 572.513 118.807 568.77 114.948Z" fill="#C6AFC9"/>
<path d="M524.189 154.799L496.488 147.284C496.488 147.284 481.74 171.747 488.314 198.731C494.287 223.214 504.69 224.668 510.634 224.998C515.085 225.25 517.024 220.78 517.896 214.613C519.215 223.107 521.998 226.927 528.911 227.499C539.838 228.401 549.205 201.582 551.92 195.231C554.634 188.88 565.193 166.754 562.498 147.827C560.355 132.915 534.874 147.818 524.189 154.799Z" fill="#C6AFC9"/>
<path d="M544.153 99.4348C543.94 99.4348 543.726 99.3961 543.513 99.3088L532.634 94.839C532.188 94.6547 531.849 94.2863 531.684 93.8306C531.529 93.3749 531.577 92.8707 531.82 92.4537C534.622 87.5864 546.936 79.9556 548.342 79.1024C549.117 78.6273 550.164 78.86 550.64 79.6551C551.124 80.4501 550.872 81.4779 550.087 81.953C546.984 83.8534 539.256 88.9632 535.921 92.5701L544.783 96.2061C545.636 96.5551 546.044 97.5344 545.695 98.3877C545.433 99.047 544.812 99.4348 544.153 99.4348Z" fill="#49263E"/>
<path d="M504.118 146.926C504.118 146.926 500.851 160.703 519.748 181.288C519.748 181.288 547.905 166.667 545.336 148.176L504.118 146.926Z" fill="white"/>
<path d="M556.7 136.134C556.603 135.882 556.487 135.639 556.37 135.397C555.197 132.915 553.316 130.694 550.339 129.153C539.247 123.442 527.583 127.107 526.584 123.558C525.799 120.766 524.538 115.879 523.598 112.805C522.405 108.927 518.236 107.347 515.822 112.214C514.086 115.724 512.894 119.883 511.866 123.558C510.867 127.097 499.203 123.432 488.111 129.153C485.134 130.685 483.243 132.915 482.08 135.397C481.963 135.639 481.857 135.892 481.76 136.134C479.859 140.817 480.722 146.092 483.563 149.989C485.939 151.677 488.402 153.112 490.816 154.217C500.318 158.57 510.993 160.025 521.378 160.102C529.91 160.044 537.996 159.181 545.608 156.845C547.867 155.71 549.913 154.45 551.755 153.121C556.971 149.379 559.182 142.252 556.7 136.134Z" fill="white"/>
<path d="M523.597 122.821C523.597 123.956 521.687 124.867 519.341 124.867C516.984 124.867 515.084 123.946 515.084 122.821C515.084 121.687 516.994 120.775 519.341 120.775C521.687 120.775 523.597 121.687 523.597 122.821Z" fill="#49263E"/>
<path d="M524.072 134.728C523.442 134.728 522.841 134.369 522.55 133.758L519.312 126.748L515.899 133.797C515.501 134.621 514.502 134.98 513.669 134.573C512.835 134.166 512.486 133.167 512.893 132.333L517.847 122.104C518.129 121.532 518.71 121.163 519.36 121.163C519.971 121.144 520.611 121.541 520.882 122.133L525.604 132.362C525.992 133.196 525.624 134.195 524.79 134.582C524.547 134.67 524.305 134.728 524.072 134.728Z" fill="#49263E"/>
<path d="M522.307 161.983C511.796 161.983 503.865 160.131 503.196 159.976C502.304 159.753 501.751 158.851 501.965 157.959C502.188 157.058 503.06 156.505 503.991 156.718C504.301 156.796 536.085 164.194 556.718 148.836C557.464 148.302 558.502 148.438 559.055 149.185C559.607 149.931 559.452 150.978 558.715 151.531C547.439 159.899 533.438 161.983 522.307 161.983Z" fill="#49263E"/>
<path d="M509.49 94.7413C508.947 94.7413 508.433 94.4795 508.103 94.0044C505.398 90 495.062 81.4384 493.511 80.4882C492.89 80.2458 492.444 79.635 492.444 78.9272C492.444 78.006 493.191 77.2498 494.122 77.2498C496.042 77.2498 508.511 88.6134 510.876 92.1331C511.39 92.899 511.196 93.9365 510.43 94.4504C510.149 94.6443 509.82 94.7413 509.49 94.7413Z" fill="#49263E"/>
<path d="M500.036 96.5066C499.745 96.5066 499.445 96.429 499.173 96.2642L494.597 93.5105C493.811 93.0354 493.549 92.0077 494.025 91.2126C494.49 90.4175 495.527 90.1654 496.322 90.6405L500.899 93.3942C501.684 93.8693 501.946 94.8971 501.471 95.6921C501.161 96.2157 500.608 96.5066 500.036 96.5066Z" fill="#49263E"/>
<path d="M518.429 220.236C517.508 220.236 516.752 219.49 516.752 218.559C516.752 199.661 518.323 182.015 518.342 181.831C518.42 180.919 519.118 180.26 520.155 180.318C521.076 180.405 521.755 181.22 521.668 182.141C521.648 182.315 520.097 199.817 520.097 218.559C520.107 219.49 519.36 220.236 518.429 220.236Z" fill="#49263E"/>
<path d="M409.001 87.1301C408.361 87.1301 407.76 86.7616 407.478 86.1411C407.314 85.7726 403.425 77.1141 402.456 67.3406C402.369 66.4195 403.038 65.5953 403.959 65.508C405.016 65.4402 405.704 66.0898 405.791 67.0109C406.712 76.2221 410.484 84.677 410.523 84.7642C410.911 85.6078 410.533 86.5968 409.689 86.9749C409.456 87.0719 409.233 87.1301 409.001 87.1301Z" fill="#CC7A64"/>
<path d="M314.048 224.182C315.755 224.57 313.02 225.191 316.491 224.367C319.963 223.533 327.06 214.38 324.287 208.882C324.287 208.882 329.688 202.25 327.235 194.842C327.235 194.842 322.61 177.06 320.622 174.878C320.622 174.878 321.999 169.39 320.845 166.433C319.691 163.476 307.94 151.909 302.898 151.026C297.856 150.144 286.046 164.106 282.478 168.654C278.91 173.201 268.904 185.049 270.979 191.332C273.063 197.615 276.825 229.855 276.825 229.855L292.795 270.733L332.693 263.616L314.048 224.182Z" fill="#C77965"/>
<path d="M273.193 137.982C265.282 151.774 269.006 184.361 271.891 196.154L289.295 169.488C284.714 126.682 276.578 132.72 273.193 137.982Z" fill="#C77965"/>
<path d="M285.134 177.176C284.213 177.176 283.457 176.43 283.457 175.499C283.457 174.578 284.204 173.821 285.134 173.821L320.612 173.792C321.533 173.792 322.289 174.539 322.289 175.47C322.289 176.391 321.543 177.147 320.612 177.147L285.134 177.176Z" fill="#49263E"/>
<path d="M308.241 177.157C307.678 177.157 307.126 176.876 306.806 176.352L301.376 167.442C300.901 166.656 301.153 165.619 301.938 165.144C302.733 164.659 303.761 164.911 304.246 165.696L309.676 174.607C310.151 175.392 309.899 176.43 309.113 176.905C308.842 177.079 308.541 177.157 308.241 177.157Z" fill="#49263E"/>
<path d="M290.914 194.61C290.07 194.61 289.343 193.97 289.246 193.107C289.159 192.186 289.818 191.362 290.739 191.274C293.919 190.945 324.568 189.219 325.877 189.141C326.866 189.025 327.594 189.801 327.642 190.722C327.691 191.643 326.983 192.438 326.062 192.486C325.742 192.506 294.181 194.29 291.088 194.61C291.03 194.61 290.972 194.61 290.914 194.61Z" fill="#49263E"/>
<path d="M296.091 213.866C295.345 213.866 294.656 213.381 294.443 212.654C294.21 211.801 294.637 210.909 295.49 210.628C296.683 210.23 313.951 208.698 324.142 207.826C325.043 207.767 325.877 208.436 325.955 209.348C326.042 210.269 325.354 211.083 324.432 211.161C314.339 212.034 297.817 213.527 296.469 213.827C296.343 213.856 296.217 213.866 296.091 213.866Z" fill="#49263E"/>
<path d="M315.367 253.552C315.154 253.552 314.931 253.513 314.727 253.426C313.874 253.067 313.467 252.088 313.826 251.234C319.11 238.562 314.892 229.166 313.419 226.51C308.968 226.723 299.931 227.188 298.661 227.343C297.74 227.508 296.916 226.81 296.8 225.889C296.683 224.968 297.333 224.134 298.254 224.018C299.999 223.795 312.798 223.184 314.252 223.116C314.883 223.116 315.396 223.378 315.707 223.833C316.046 224.318 323.861 235.866 316.919 252.524C316.647 253.164 316.027 253.552 315.367 253.552Z" fill="#49263E"/>
<path d="M505.291 122.172C506.561 122.172 507.599 121.134 507.599 119.864V116.17C507.599 114.9 506.561 113.862 505.291 113.862C504.021 113.862 502.983 114.9 502.983 116.17V119.864C502.983 121.125 504.021 122.172 505.291 122.172Z" fill="#49263E"/>
<path d="M533.381 122.172C534.651 122.172 535.689 121.134 535.689 119.864V116.17C535.689 114.9 534.651 113.862 533.381 113.862C532.111 113.862 531.073 114.9 531.073 116.17V119.864C531.073 121.125 532.111 122.172 533.381 122.172Z" fill="#49263E"/>
<path d="M792.069 443.214H182.677C181.756 443.214 181 442.468 181 441.537C181 440.616 181.747 439.859 182.677 439.859H792.069C792.99 439.859 793.747 440.606 793.747 441.537C793.747 442.468 793 443.214 792.069 443.214Z" fill="#49263E"/>
</svg>
