<svg width="768" height="400" viewBox="0 0 768 400" fill="none" xmlns="http://www.w3.org/2000/svg">
<g clip-path="url(#clip0_1494_12852)">
<rect width="768" height="400" fill="#CBE7EF"/>
<mask id="mask0_1494_12852" style="mask-type:luminance" maskUnits="userSpaceOnUse" x="-54" y="-79" width="1075" height="605">
<path d="M1020.94 -79H-54V525.473H1020.94V-79Z" fill="white"/>
</mask>
<g mask="url(#mask0_1494_12852)">
<path style="mix-blend-mode:multiply" opacity="0.25" d="M-48.127 -36.6414V47.9904H-80.8008V50.2292H-48.127V134.861H-80.8008V137.1H-48.127V221.732H-80.8008V223.97H-48.127V308.602H-80.8008V310.841H-48.127V395.473H-80.8008V397.712H-48.127V482.344H-80.8008V484.582H-48.127V571.515H-45.8875V484.582H38.7699V571.515H41.0094V484.582H125.667V571.515H127.906V484.582H212.564V571.515H214.803V484.582H299.461V571.515H301.7V484.582H386.357V571.515H388.597V484.582H473.254V571.515H475.494V484.582H560.151V571.515H562.391V484.582H647.048V571.515H649.287V484.582H733.945V571.515H736.184V484.582H820.842V571.515H823.081V484.582H907.739V571.515H909.978V484.582H994.635V571.515H996.875V484.582H1047.74V482.344H996.875V397.712H1047.74V395.473H996.875V310.841H1047.74V308.602H996.875V223.97H1047.74V221.732H996.875V137.1H1047.74V134.861H996.875V50.2292H1047.74V47.9904H996.875V-36.6414H1047.74V-38.8802H996.875V-125.04H994.635V-38.8802H909.978V-125.04H907.739V-38.8802H823.081V-125.04H820.842V-38.8802H736.184V-125.04H733.945V-38.8802H649.287V-125.04H647.048V-38.8802H562.391V-125.04H560.151V-38.8802H475.494V-125.04H473.254V-38.8802H388.597V-125.04H386.357V-38.8802H301.7V-125.04H299.461V-38.8802H214.803V-125.04H212.564V-38.8802H127.906V-125.04H125.667V-38.8802H41.0094V-125.04H38.7699V-38.8802H-45.8875V-125.04H-48.127V-38.8802H-80.8008V-36.6414H-48.127ZM125.667 -36.6414V47.9904H41.0094V-36.6414H125.667ZM301.7 137.1H386.357V221.732H301.7V137.1ZM299.461 221.732H214.803V137.1H299.461V221.732ZM388.597 137.1H473.254V221.732H388.597V137.1ZM475.494 137.1H560.151V221.732H475.494V137.1ZM562.391 137.1H647.048V221.732H562.391V137.1ZM649.287 137.1H733.945V221.732H649.287V137.1ZM736.184 137.1H820.842V221.732H736.184V137.1ZM820.842 223.97V308.602H736.184V223.97H820.842ZM733.945 308.602H649.287V223.97H733.945V308.602ZM647.048 308.602H562.391V223.97H647.048V308.602ZM560.151 308.602H475.494V223.97H560.151V308.602ZM473.254 308.602H388.597V223.97H473.254V308.602ZM386.357 308.602H301.7V223.97H386.357V308.602ZM299.461 308.602H214.803V223.97H299.461V308.602ZM212.564 308.602H127.906V223.97H212.564V308.602ZM127.906 221.732V137.1H212.564V221.732H127.906ZM127.906 134.861V50.2292H212.564V134.861H127.906ZM214.803 50.2292H299.461V134.861H214.803V50.2292ZM301.7 50.2292H386.357V134.861H301.7V50.2292ZM388.597 50.2292H473.254V134.861H388.597V50.2292ZM475.494 50.2292H560.151V134.861H475.494V50.2292ZM562.391 50.2292H647.048V134.861H562.391V50.2292ZM649.287 50.2292H733.945V134.861H649.287V50.2292ZM736.184 50.2292H820.842V134.861H736.184V50.2292ZM823.081 50.2292H907.739V134.861H823.081V50.2292ZM907.739 137.1V221.732H823.081V137.1H907.739ZM907.739 223.97V308.602H823.081V223.97H907.739ZM907.739 310.841V395.473H823.081V310.841H907.739ZM820.842 395.473H736.184V310.841H820.842V395.473ZM733.945 395.473H649.287V310.841H733.945V395.473ZM647.048 395.473H562.391V310.841H647.048V395.473ZM560.151 395.473H475.494V310.841H560.151V395.473ZM473.254 395.473H388.597V310.841H473.254V395.473ZM386.357 395.473H301.7V310.841H386.357V395.473ZM299.461 395.473H214.803V310.841H299.461V395.473ZM212.564 395.473H127.906V310.841H212.564V395.473ZM125.667 395.473H41.0094V310.841H125.667V395.473ZM41.0094 308.602V223.97H125.667V308.602H41.0094ZM41.0094 221.732V137.1H125.667V221.732H41.0094ZM41.0094 134.861V50.2292H125.667V134.861H41.0094ZM212.564 -36.6414V47.9904H127.906V-36.6414H212.564ZM299.461 -36.6414V47.9904H214.803V-36.6414H299.461ZM386.357 -36.6414V47.9904H301.7V-36.6414H386.357ZM473.254 -36.6414V47.9904H388.597V-36.6414H473.254ZM560.151 -36.6414V47.9904H475.494V-36.6414H560.151ZM647.048 -36.6414V47.9904H562.391V-36.6414H647.048ZM733.945 -36.6414V47.9904H649.287V-36.6414H733.945ZM820.842 -36.6414V47.9904H736.184V-36.6414H820.842ZM907.739 -36.6414V47.9904H823.081V-36.6414H907.739ZM994.635 47.9904H909.978V-36.6414H994.635V47.9904ZM994.635 134.861H909.978V50.2292H994.635V134.861ZM994.635 221.732H909.978V137.1H994.635V221.732ZM994.635 308.602H909.978V223.97H994.635V308.602ZM994.635 395.473H909.978V310.841H994.635V395.473ZM909.978 482.344V397.712H994.635V482.344H909.978ZM823.081 482.344V397.712H907.739V482.344H823.081ZM736.184 482.344V397.712H820.842V482.344H736.184ZM649.287 482.344V397.712H733.945V482.344H649.287ZM562.391 482.344V397.712H647.048V482.344H562.391ZM475.494 482.344V397.712H560.151V482.344H475.494ZM388.597 482.344V397.712H473.254V482.344H388.597ZM301.7 482.344V397.712H386.357V482.344H301.7ZM214.803 482.344V397.712H299.461V482.344H214.803ZM127.906 482.344V397.712H212.564V482.344H127.906ZM41.0094 482.344V397.712H125.667V482.344H41.0094ZM-45.8875 397.712H38.7699V482.344H-45.8875V397.712ZM-45.8875 310.841H38.7699V395.473H-45.8875V310.841ZM-45.8875 223.97H38.7699V308.602H-45.8875V223.97ZM-45.8875 137.1H38.7699V221.732H-45.8875V137.1ZM-45.8875 50.2292H38.7699V134.861H-45.8875V50.2292ZM-45.8875 -36.6414H38.7699V47.9904H-45.8875V-36.6414Z" fill="url(#paint0_radial_1494_12852)"/>
</g>
<path d="M445.741 367.76C400.25 332.016 385.742 268.639 388.609 213.392C391.724 153.51 418.308 95.1199 479.335 76.1493C514.528 65.205 551.643 69.9758 586.716 78.8197C620.288 87.2811 653.732 104.556 689.315 99.6732C710.548 96.7627 729.094 86.2459 748.548 78.0621C770.682 68.7531 794.887 63.0296 818.957 63.0371C843.853 63.0446 869.063 69.5707 889.568 83.6805C917.526 102.921 934.789 134.801 942.872 167.754C954.168 213.812 956.509 265.57 940.575 310.848C927.396 348.279 901.69 377.354 863.885 389.791C822.725 403.331 778.555 403.383 735.691 403.286C691.619 403.188 647.555 403.091 603.483 402.986C550.269 402.873 489.7 402.311 445.741 367.76Z" fill="#F0FCFF"/>
<path d="M689.511 237.146C689.511 237.146 686.759 211.934 704.351 204.836C721.942 197.737 728.974 223.319 729.295 220.991C729.617 218.663 718.802 173.878 733.454 161.742C748.099 149.606 756.95 176.515 756.95 176.515C756.95 176.515 754.731 165.997 765.54 166.694C776.354 167.392 771.123 197.871 771.123 197.871C771.123 197.871 783.089 182.995 794.37 186.881C805.651 190.76 784.725 227.38 784.725 227.38C784.725 227.38 802.572 218.263 806.7 231.223C810.828 244.178 796.237 255.283 796.237 255.283C796.237 255.283 818.308 260.775 819.303 278.3C820.297 295.825 820.297 295.825 820.297 295.825C820.297 295.825 668.592 294.037 668.258 294.043C667.919 294.049 660.99 269.692 669.143 262.175C677.303 254.659 671.883 248.754 677.909 241.031C683.934 233.309 689.511 237.146 689.511 237.146Z" fill="#80C7A7"/>
<path d="M717.098 165.699C715.94 162.971 713.928 159.934 711.012 159.37C707.993 158.782 704.853 160.891 704.514 164.013C704.265 166.317 705.265 168.572 706.454 170.56C707.878 172.949 714.922 183.272 718.092 178.083C718.832 176.871 718.808 175.355 718.717 173.937C718.535 171.13 718.159 168.293 717.098 165.699Z" fill="#80C7A7"/>
<path d="M460.213 295.671C460.213 295.671 431.922 288.609 432.456 281.026C433.244 269.951 441.894 268.799 441.894 268.799C441.894 268.799 422.472 256.821 428 244.818C433.522 232.809 457.649 246.412 457.649 246.412C457.649 246.412 438.051 212.581 449.392 202.118C460.728 191.655 470.148 217.37 469.797 216.369C469.445 215.369 463.735 191.316 472.901 189.473C482.066 187.63 488.467 234.543 488.152 232.803C487.831 231.064 493.784 214.399 507.423 222.559C521.062 230.712 520.42 266.326 520.42 266.326C520.42 266.326 521.681 236.98 536.714 240.296C551.748 243.618 550.705 263.713 551.05 263.258C551.402 262.798 568.503 234.204 584.712 224.783C600.922 215.369 624.872 222.171 624.872 222.171L626.733 295.671H460.213Z" fill="#3F9896"/>
<path d="M502.514 197.842C502.52 197.757 502.526 197.672 502.538 197.587C502.805 194.223 502.344 189.786 499.495 187.513C496.543 185.161 491.948 185.676 489.808 188.876C488.232 191.235 488.044 194.253 488.202 197.084C488.396 200.491 490.19 215.688 496.579 211.851C498.07 210.954 498.907 209.299 499.61 207.705C500.998 204.559 502.199 201.267 502.514 197.842Z" fill="#3F9896"/>
<path d="M379.495 260.434H408.146V278.072C408.146 280.896 405.854 283.188 403.03 283.188H384.611C381.787 283.188 379.495 280.896 379.495 278.072V260.434Z" fill="#040701"/>
<path d="M501.108 260.434H529.759V278.072C529.759 280.896 527.467 283.188 524.643 283.188H506.224C503.4 283.188 501.108 280.896 501.108 278.072V260.434Z" fill="#040701"/>
<path d="M372.546 188.764C372.348 188.269 370.614 179.66 369.722 175.164C369.412 173.603 368.037 172.488 366.439 172.488H357.781C354.548 172.488 351.935 175.114 351.935 178.335V178.583C351.935 180.49 353.483 182.038 355.39 182.038H365.956L368.384 190.511L372.558 188.764H372.546Z" fill="#E1AA2F"/>
<path d="M537.662 188.764C537.86 188.269 539.594 179.66 540.486 175.164C540.796 173.603 542.171 172.488 543.768 172.488H552.427C555.66 172.488 558.273 175.114 558.273 178.335V178.583C558.273 180.49 556.725 182.038 554.817 182.038H544.252L541.824 190.511L537.649 188.764H537.662Z" fill="#E1AA2F"/>
<path d="M545.404 197.014H545.416L516.952 144.011C515.502 141.311 512.678 139.626 509.619 139.626H399.699C396.59 139.626 393.741 141.36 392.304 144.122L364.88 197.014H364.892C364.248 198.054 363.852 199.256 363.852 200.569V253.658C363.852 258.91 368.113 263.171 373.365 263.171H536.907C542.159 263.171 546.42 258.91 546.42 253.658V200.569C546.42 199.256 546.036 198.042 545.379 197.014H545.404Z" fill="#FFD333"/>
<path d="M379.371 188.194L397.406 151.306C398.57 148.915 400.998 147.404 403.661 147.404H504.489C507.028 147.404 509.369 148.792 510.596 151.021L530.811 187.946C533.003 191.947 530.105 196.815 525.559 196.815H384.759C380.324 196.815 377.426 192.17 379.371 188.181V188.194Z" fill="#3B3D51"/>
<mask id="mask1_1494_12852" style="mask-type:luminance" maskUnits="userSpaceOnUse" x="378" y="147" width="154" height="50">
<path d="M379.371 188.196L397.406 151.308C398.57 148.917 400.998 147.406 403.661 147.406H504.489C507.028 147.406 509.369 148.794 510.596 151.023L530.811 187.948C533.003 191.949 530.105 196.817 525.559 196.817H384.759C380.324 196.817 377.426 192.172 379.371 188.183V188.196Z" fill="white"/>
</mask>
<g mask="url(#mask1_1494_12852)">
<path d="M422.8 131.118L490.493 219.027H569.682L515.589 122.41L422.8 131.118Z" fill="#46495E"/>
</g>
<path d="M376.51 216.959V228.924C376.51 231.525 378.628 233.644 381.229 233.644H410.065C412.753 233.644 414.549 230.869 413.435 228.416L412.27 225.84C410.14 221.133 405.916 217.702 400.874 216.55L382.27 212.338C379.322 211.67 376.51 213.912 376.51 216.946V216.959Z" fill="#F7F7F7"/>
<path d="M534.218 216.959V228.924C534.218 231.525 532.1 233.644 529.499 233.644H500.662C497.974 233.644 496.178 230.869 497.293 228.416L498.457 225.84C500.588 221.133 504.812 217.702 509.853 216.55L528.458 212.338C531.406 211.67 534.218 213.912 534.218 216.946V216.959Z" fill="#F7F7F7"/>
<path d="M363.863 200.583C363.863 200.583 436.71 227.314 546.431 200.583" stroke="#1C1C1C" stroke-width="1.54417" stroke-miterlimit="10"/>
<path d="M363.863 245.511H546.431" stroke="#1C1C1C" stroke-width="1.54417" stroke-miterlimit="10"/>
<path d="M400.528 249.957H386.135C385.615 249.957 385.193 250.378 385.193 250.898V257.117C385.193 257.636 385.615 258.058 386.135 258.058H400.528C401.048 258.058 401.47 257.636 401.47 257.117V250.898C401.47 250.378 401.048 249.957 400.528 249.957Z" fill="#F7F7F7"/>
<path d="M522.785 249.957H508.392C507.872 249.957 507.45 250.378 507.45 250.898V257.117C507.45 257.636 507.872 258.058 508.392 258.058H522.785C523.305 258.058 523.726 257.636 523.726 257.117V250.898C523.726 250.378 523.305 249.957 522.785 249.957Z" fill="#F7F7F7"/>
<path d="M481.115 236.047H425.189C423.777 236.047 422.625 234.895 422.625 233.483C422.625 232.071 423.777 230.919 425.189 230.919H481.115C482.527 230.919 483.679 232.071 483.679 233.483C483.679 234.895 482.527 236.047 481.115 236.047Z" fill="#AE6919"/>
<path d="M422.638 224.713H483.68" stroke="#E1AA2F" stroke-width="1.54417" stroke-miterlimit="10"/>
<path d="M482.218 134.409H428.807V139.636H482.218V134.409Z" fill="#E1AA2F"/>
<path d="M432.026 134.41L434.863 123.931C435.891 120.153 439.31 117.527 443.236 117.527H467.812C471.726 117.527 475.157 120.153 476.185 123.931L479.022 134.41H432.051H432.026Z" fill="#AE6919"/>
<path d="M445.132 124.638H442.915V123.201H448.947V124.638H446.743V130.46H445.132V124.638Z" fill="#F7F7F7"/>
<path d="M454.968 129.206H451.239L450.706 130.458H448.96L452.218 123.187H453.977L457.234 130.458H455.475L454.943 129.206H454.968ZM453.11 124.822L451.858 127.77H454.361L453.11 124.822Z" fill="#F7F7F7"/>
<path d="M463.23 123.187H465.001V123.261L462.549 126.803L465.038 130.408V130.458H463.242L461.533 127.906L459.823 130.458H458.027V130.408L460.492 126.803L458.052 123.261V123.187H459.823L461.52 125.775L463.217 123.187H463.23Z" fill="#F7F7F7"/>
<path d="M466.487 130.458V123.187H468.098V130.458H466.487Z" fill="#F7F7F7"/>
<path d="M745.138 227.345H720.752L724.368 268.749H751.501C758.528 268.749 763.465 261.839 761.193 255.188L753.791 233.526C752.523 229.828 749.047 227.345 745.138 227.345Z" fill="#F75454"/>
<path d="M721.909 171.011L754.854 267.356C758.511 278.052 750.563 289.171 739.256 289.171H695.592L683.558 151.492L698.363 147.089C698.363 147.089 721.475 155.12 722.936 156.229C724.404 157.339 721.909 171.011 721.909 171.011Z" fill="#F9C164"/>
<path d="M684.104 157.628L694.03 271.221C694.882 278.412 695.633 284.605 696.226 289.173H723.277C717.588 258.611 698.122 154.053 697.488 151.494L688.207 150.114L685.694 150.86L684.104 157.628Z" fill="#FFA466"/>
<path d="M713.514 273.016C713.021 273.016 712.587 272.657 712.516 272.153L705.836 228.013C705.789 227.719 705.877 227.426 706.07 227.203C706.258 226.98 706.54 226.851 706.834 226.851H733.262C733.82 226.851 734.278 227.303 734.278 227.866C734.278 228.424 733.826 228.882 733.262 228.882H708.008L714.506 271.859C714.594 272.411 714.213 272.927 713.655 273.01C713.614 273.01 713.561 273.016 713.514 273.016Z" fill="#49263E"/>
<path d="M721.093 191.805L709.91 159.535C708.87 156.536 706.047 154.522 702.877 154.504C693.273 154.463 684.86 154.457 683.587 154.528C683.968 154.504 679.096 140.668 679.096 140.668C680.974 139.547 681.755 139.547 687.831 139.523C690.396 139.517 693.948 139.517 698.38 139.535C705.994 139.558 713.567 139.611 713.567 139.611C716.731 139.635 719.543 141.648 720.582 144.642L736.855 191.599L721.093 191.805Z" fill="#F75454"/>
<path d="M729.358 193.805C728.941 193.805 728.548 193.54 728.401 193.124L712.052 146.348C701.303 146.278 685.635 146.219 684.631 146.336C684.091 146.495 683.592 146.178 683.428 145.644C683.269 145.109 683.633 144.528 684.174 144.37C684.361 144.317 684.954 144.141 712.78 144.329C713.209 144.329 713.59 144.605 713.737 145.01L730.327 192.46C730.509 192.989 730.233 193.57 729.704 193.752C729.581 193.787 729.464 193.805 729.358 193.805Z" fill="#49263E"/>
<path fill-rule="evenodd" clip-rule="evenodd" d="M546.078 172.956C546.078 172.956 569.372 223.136 570.123 221.246L612.631 171.019L653.765 190.708C653.765 190.708 593.623 279.433 565.985 267.628C538.347 255.817 526.412 178.104 526.412 178.104L546.078 172.956Z" fill="#C77965"/>
<path d="M594.204 192.794C594.832 192.048 606.696 199.944 606.696 199.944L608.575 190.58L601.924 183.677L594.204 192.794Z" fill="#49263E"/>
<path fill-rule="evenodd" clip-rule="evenodd" d="M595.154 186.077L612.343 192.793V174.143L596.61 179.138L595.154 186.077Z" fill="#FFBBC8"/>
<path fill-rule="evenodd" clip-rule="evenodd" d="M696.226 202.395C696.102 192.486 693.044 175.168 687.473 158.549C681.186 139.804 651.029 135.795 651.029 135.795C638.249 147.917 634.651 143.08 634.651 143.08C634.651 143.08 594.996 205.964 596.663 215.832C599.998 235.592 612.555 255.428 613.148 255.364L611.069 296.11L705.301 294.437C705.301 294.443 696.478 223.018 696.226 202.395Z" fill="#FFBBC8"/>
<path d="M577.889 235.492C577.543 235.492 577.208 235.316 577.015 234.993L569.248 221.755C568.966 221.274 569.131 220.652 569.612 220.37C570.088 220.088 570.71 220.247 571.003 220.728L578.77 233.966C579.052 234.447 578.887 235.069 578.406 235.351C578.242 235.445 578.066 235.492 577.889 235.492Z" fill="#49263E"/>
<path fill-rule="evenodd" clip-rule="evenodd" d="M669.615 283.954C683.017 279.457 691.999 248.896 697.482 221.152C696.748 213.022 696.279 206.406 696.226 202.396C696.149 196.285 694.958 187.351 692.745 177.506C686.44 179.508 679.894 181.973 679.63 183.67C679.119 186.975 629.69 267.898 629.69 267.898C629.69 267.898 644.325 292.443 669.615 283.954Z" fill="#FF99AF"/>
<path d="M609.256 111.468C609.256 111.468 593.782 104.805 601.713 77.7014C605.534 64.6515 609.779 42.9309 592.255 37.9352C574.732 32.9454 565.14 48.4374 566.942 72.148C568.146 87.9805 576.887 111.268 594.65 122.281C604.049 128.105 609.256 111.468 609.256 111.468Z" fill="#C6AFC9"/>
<path d="M656.835 105.893C658.32 93.0366 658.672 79.9866 654.381 67.6235C650.882 57.5382 640.732 50.1062 630.406 48.0164C608.046 43.4903 584.006 63.2442 585.175 86.0508C585.597 94.2811 590.417 100.709 595.225 107.002C597.103 109.462 599.164 112.016 600.144 114.998C601.236 118.326 600.121 123.439 596.61 124.948C595.565 125.4 594.409 125.465 593.288 125.653C581.47 127.613 578.406 139.742 583.132 149.346C584.106 151.33 585.269 153.508 584.658 155.633C583.825 158.55 580.326 159.548 577.719 161.098C571.256 164.943 570.041 173.508 573.516 179.842C576.081 184.521 580.977 187.75 586.231 188.677C591.82 189.658 597.567 188.19 602.809 186.024C610.852 182.701 619.282 179.068 626.866 174.776C632.361 171.671 639.787 166.534 638.267 159.196C636.858 152.398 666.668 156.977 663.404 143.786C658.919 125.682 655.99 113.172 656.835 105.893Z" fill="#49263E"/>
<path fill-rule="evenodd" clip-rule="evenodd" d="M648.939 100.324C651.275 95.5216 651.481 89.5044 646.327 86.851C643.926 85.6182 641.994 85.7356 640.45 86.5634C636.67 88.5887 631.956 86.9156 630.459 82.8944C629.936 81.4972 629.76 80.5873 629.76 80.5873C612.22 84.268 598.189 77.2764 598.189 77.2764C598.189 77.2764 600.038 86.4812 595.166 93.8896C595.166 93.8896 609.408 128.995 623.99 128.742L640.151 150.463C640.151 150.463 662.723 139.438 669.949 136.526C668.705 135.734 658.813 111.155 648.939 100.324Z" fill="#CC7A64"/>
<path d="M647.76 96.5331C647.108 96.4803 646.703 95.9813 646.75 95.4236C646.809 94.772 646.427 92.6351 645.171 91.4493C644.502 90.8212 643.704 90.5922 642.764 90.739C639.536 91.238 638.937 95.5938 638.931 95.6408C638.86 96.1926 638.408 96.5801 637.798 96.5214C637.246 96.4509 636.853 95.9461 636.923 95.3942C636.953 95.1535 637.71 89.471 642.453 88.7372C644.038 88.5082 645.441 88.9192 646.557 89.9758C648.271 91.5843 648.893 94.2906 648.77 95.6114C648.717 96.1398 648.277 96.5331 647.76 96.5331Z" fill="#49263E"/>
<path d="M571.608 69.4041C571.139 69.4041 570.716 69.0754 570.616 68.5999C569.031 61.1151 571.849 55.5793 571.966 55.3504C572.225 54.8572 572.835 54.6577 573.328 54.9218C573.827 55.1801 574.021 55.7906 573.763 56.2838C573.733 56.3366 571.168 61.438 572.595 68.1831C572.712 68.729 572.36 69.2691 571.814 69.3807C571.743 69.3924 571.679 69.4041 571.608 69.4041Z" fill="#49263E"/>
<path d="M577.702 68.984C577.15 68.984 576.704 68.5437 576.686 67.9977C576.58 63.7417 576.927 61.7457 576.944 61.6577C577.038 61.1059 577.584 60.7654 578.118 60.8417C578.67 60.9415 579.034 61.4698 578.934 62.0158C578.934 62.0334 578.606 63.9295 578.711 67.9449C578.723 68.5026 578.283 68.9722 577.725 68.984C577.719 68.984 577.713 68.984 577.702 68.984Z" fill="#49263E"/>
<path d="M616.277 88.7198C615.831 88.7198 615.426 88.4321 615.303 87.986C615.256 87.8157 614.874 86.2894 615.931 84.8923C616.899 83.6184 618.696 82.9727 621.279 82.9727C621.836 82.9727 622.294 83.4247 622.294 83.9882C622.294 84.5459 621.842 85.0038 621.279 85.0038C619.406 85.0038 618.12 85.3854 617.557 86.1075C617.087 86.7121 617.252 87.4283 617.263 87.4635C617.398 87.9977 617.07 88.5554 616.541 88.6904C616.453 88.7081 616.359 88.7198 616.277 88.7198Z" fill="#49263E"/>
<path d="M599.563 98.6643C599.428 98.6643 599.299 98.6408 599.176 98.5821C598.659 98.3649 598.413 97.7778 598.63 97.2612C599.399 95.4179 601.958 92.2597 606.138 93.3692C606.672 93.5159 606.995 94.0736 606.848 94.6137C606.707 95.1538 606.167 95.4708 605.604 95.3299C602.099 94.3906 600.561 97.9011 600.497 98.0479C600.332 98.4353 599.956 98.6643 599.563 98.6643Z" fill="#49263E"/>
<path d="M608.375 101.978C609.056 101.625 609.326 100.774 608.974 100.093L607.946 98.1031C607.594 97.4221 606.743 97.1521 606.062 97.5043C605.381 97.8565 605.111 98.7078 605.463 99.3887L606.491 101.379C606.843 102.06 607.694 102.33 608.375 101.978Z" fill="#49263E"/>
<path d="M623.949 94.1973C624.63 93.8451 624.9 92.9938 624.548 92.3129L623.521 90.3287C623.168 89.6477 622.317 89.3777 621.636 89.7299C620.955 90.0821 620.685 90.9333 621.038 91.6143L622.065 93.5985C622.417 94.2795 623.268 94.5495 623.949 94.1973Z" fill="#49263E"/>
<path d="M615.109 111.742C614.187 111.742 613.447 111.489 612.896 111.184C611.058 110.175 610.242 108.008 610.26 106.429C610.301 102.731 608.487 96.6961 605.446 95.2754C604.935 95.0406 604.718 94.4359 604.953 93.9311C605.188 93.4321 605.792 93.2032 606.297 93.4438C610.271 95.2989 612.332 102.185 612.285 106.453C612.273 107.486 612.819 108.836 613.87 109.417C615.232 110.175 617.022 109.376 618.267 108.566C618.737 108.267 619.359 108.402 619.67 108.871C619.975 109.341 619.834 109.969 619.365 110.268C617.656 111.366 616.242 111.742 615.109 111.742Z" fill="#49263E"/>
<path d="M622.91 112.192C622.699 112.192 622.493 112.174 622.294 112.133C621.924 112.062 621.607 111.828 621.431 111.499C621.255 111.17 621.237 110.777 621.378 110.431L624.56 102.846C624.736 102.423 625.129 102.136 625.581 102.089C626.039 102.042 626.48 102.247 626.738 102.623C628.399 105.047 628.587 107.601 627.254 109.626C626.245 111.17 624.466 112.192 622.91 112.192Z" fill="white"/>
<path fill-rule="evenodd" clip-rule="evenodd" d="M623.985 128.746C623.985 128.746 633.178 127.443 638.109 119.183C638.344 118.796 638.942 119.007 638.866 119.453L634.651 143.076L621.284 138.708L623.985 128.746Z" fill="#49263E"/>
<path d="M701.41 283.954C691.001 283.954 678.491 279.234 667.455 270.928C656.301 262.539 637.052 243.026 633.413 206.617C630.871 181.146 633.512 161.368 641.261 147.831C647.478 136.977 654.84 134.176 655.661 133.895L659.055 143.71C658.955 143.751 654.106 145.759 649.709 154.018C645.441 162.037 642.635 177.582 645.435 205.672C648.676 238.141 663.898 255.265 673.695 262.633C685.783 271.726 698.105 274.526 704.955 273.27L706.828 283.484C705.108 283.801 703.294 283.954 701.41 283.954Z" fill="#49263E"/>
<path d="M622.481 263.321C622.27 263.321 622.059 263.257 621.877 263.122L612.537 256.177C612.085 255.842 611.997 255.208 612.331 254.756C612.66 254.304 613.294 254.222 613.746 254.545L623.086 261.49C623.538 261.824 623.626 262.458 623.291 262.91C623.092 263.18 622.787 263.321 622.481 263.321Z" fill="#49263E"/>
<path d="M644.296 201.273C643.943 203.874 641.936 215.591 641.595 217.558C634.868 204.226 628.187 188.476 628.187 188.476L608.574 193.812C610.911 212.227 616.341 233.924 622.428 251.453C624.959 258.739 627.864 266.352 632.895 272.323C638.666 279.168 648.687 281.31 657.269 280.195C660.527 279.772 663.85 278.78 666.245 276.526C668.423 274.471 669.609 271.595 670.66 268.795C675.961 254.706 679.266 240.217 681.714 225.412C682.213 222.389 687.478 199.571 687.478 199.571C668.969 203.181 652.485 201.643 644.296 201.273Z" fill="#C77965"/>
<path d="M655.573 246.621C655.192 246.621 654.828 246.404 654.658 246.034L634.393 202.388C634.152 201.883 634.375 201.278 634.886 201.043C635.385 200.803 635.996 201.032 636.23 201.536L656.495 245.183C656.736 245.688 656.513 246.292 656.002 246.527C655.861 246.592 655.714 246.621 655.573 246.621Z" fill="#49263E"/>
<path d="M663.246 140.154C630.289 140.084 635.25 200.496 635.25 200.496C635.414 200.432 636.318 200.449 637.798 200.52C645.981 200.89 671.987 202.657 690.491 199.046C694.23 198.318 697.664 197.367 700.582 196.14C700.582 196.14 696.202 140.225 663.246 140.154Z" fill="#FFBBC8"/>
<path d="M660.088 202.789C646.685 202.789 636.001 201.597 635.138 201.498C634.581 201.433 634.187 200.934 634.246 200.376C634.305 199.819 634.804 199.425 635.367 199.484C635.784 199.537 677.212 204.139 700.218 195.187C700.734 194.993 701.327 195.24 701.527 195.762C701.726 196.285 701.474 196.872 700.952 197.071C689.275 201.627 673.349 202.789 660.088 202.789Z" fill="#49263E"/>
<path d="M646.509 162.303C645.406 160.166 642.94 156.174 638.948 153.638C633.289 150.051 630.072 152.053 630.072 152.053L615.537 166.165C610.482 171.073 607.671 177.842 607.753 184.886C607.917 198.042 612.343 215.377 612.343 215.377L634.058 201.981L631.041 183.043C631.041 183.043 648.552 171.854 649.538 170.721C649.99 170.204 650.354 168.232 650.618 166.236C650.93 163.9 648.904 161.927 646.58 162.297L646.509 162.303Z" fill="#C77965"/>
<path d="M640.093 161.268C641.602 161.949 644.061 162.519 646.286 162.454C647.337 159.008 648.535 156.231 649.709 154.018C654.106 145.753 658.961 143.751 659.166 143.669C659.06 143.704 655.661 133.895 655.661 133.895C654.84 134.176 647.478 136.977 641.261 147.831C639.518 150.878 638.033 154.247 636.806 157.916C637.293 159.343 638.379 160.493 640.093 161.268Z" fill="#49263E"/>
<path d="M640.092 162.282C639.881 162.282 639.67 162.217 639.494 162.082L631.95 156.493C631.498 156.159 631.404 155.525 631.733 155.079C632.079 154.627 632.707 154.533 633.148 154.867L640.691 160.456C641.143 160.791 641.237 161.425 640.908 161.871C640.709 162.141 640.403 162.282 640.092 162.282Z" fill="#49263E"/>
<path d="M624.7 188.198C624.371 188.198 624.043 188.033 623.855 187.74C623.549 187.27 623.679 186.642 624.148 186.337L634.451 179.597C634.909 179.286 635.549 179.421 635.854 179.891C636.159 180.361 636.03 180.989 635.56 181.294L625.258 188.033C625.087 188.145 624.894 188.198 624.7 188.198Z" fill="#49263E"/>
<path d="M696.295 98.1175C694.863 96.644 693.237 95.329 692.028 93.6207C689.967 90.7207 688.417 87.1691 688.505 83.5471C688.64 78.1991 688.4 72.5929 686.862 72.0059C684.396 71.0549 674.046 80.5767 670.383 84.0519C669.52 84.0167 668.657 84.0285 667.789 84.0696C666.92 84.0285 666.051 84.0226 665.194 84.0519C661.525 80.5767 651.175 71.0549 648.716 72.0059C647.178 72.5988 646.943 78.205 647.072 83.5471C647.16 87.1691 645.616 90.7149 643.55 93.6207C642.34 95.3231 640.714 96.644 639.282 98.1175C637.01 100.454 635.636 103.354 636.006 106.688C636.03 106.9 636.059 107.105 636.094 107.311C637.21 113.756 643.426 119.292 649.097 121.893C654.85 124.528 661.314 125.409 667.601 125.456C674.258 125.409 680.721 124.534 686.474 121.893C692.145 119.292 698.362 113.762 699.477 107.311C699.512 107.105 699.542 106.894 699.565 106.688C699.941 103.354 698.561 100.454 696.295 98.1175Z" fill="#C6AFC9"/>
<path d="M669.304 122.249L652.532 117.7C652.532 117.7 643.603 132.511 647.584 148.848C651.2 163.671 657.499 164.551 661.097 164.751C663.792 164.904 664.966 162.197 665.494 158.464C666.293 163.606 667.977 165.919 672.163 166.266C678.779 166.812 684.45 150.574 686.093 146.729C687.737 142.884 694.13 129.487 692.498 118.028C691.201 109 675.773 118.023 669.304 122.249Z" fill="#C6AFC9"/>
<path d="M681.39 88.7281C681.261 88.7281 681.132 88.7046 681.003 88.6518L674.416 85.9455C674.146 85.834 673.941 85.6109 673.841 85.335C673.747 85.0591 673.777 84.7538 673.923 84.5014C675.62 81.5545 683.075 76.9345 683.926 76.4179C684.396 76.1302 685.03 76.2711 685.318 76.7525C685.611 77.2338 685.459 77.8561 684.983 78.1438C683.105 79.2944 678.426 82.3881 676.406 84.5719L681.772 86.7733C682.289 86.9846 682.535 87.5775 682.324 88.0941C682.165 88.4933 681.79 88.7281 681.39 88.7281Z" fill="#49263E"/>
<path d="M657.152 117.478C657.152 117.478 655.174 125.819 666.615 138.282C666.615 138.282 683.663 129.43 682.107 118.235L657.152 117.478Z" fill="white"/>
<path d="M688.988 110.946C688.929 110.793 688.859 110.647 688.788 110.5C688.078 108.997 686.939 107.653 685.137 106.719C678.421 103.262 671.359 105.481 670.754 103.332C670.279 101.641 669.516 98.6826 668.946 96.8217C668.224 94.4735 665.7 93.5167 664.238 96.4636C663.187 98.5887 662.465 101.107 661.843 103.332C661.238 105.475 654.176 103.256 647.46 106.719C645.658 107.647 644.514 108.997 643.809 110.5C643.739 110.647 643.674 110.799 643.615 110.946C642.465 113.781 642.987 116.975 644.707 119.335C646.145 120.356 647.637 121.225 649.098 121.894C654.851 124.53 661.315 125.411 667.602 125.458C672.768 125.422 677.664 124.9 682.272 123.485C683.64 122.798 684.878 122.035 685.994 121.231C689.152 118.965 690.491 114.65 688.988 110.946Z" fill="white"/>
<path d="M668.945 102.887C668.945 103.574 667.789 104.126 666.368 104.126C664.942 104.126 663.791 103.568 663.791 102.887C663.791 102.2 664.947 101.648 666.368 101.648C667.789 101.648 668.945 102.2 668.945 102.887Z" fill="#49263E"/>
<path d="M669.233 110.096C668.851 110.096 668.487 109.879 668.311 109.509L666.351 105.265L664.284 109.532C664.044 110.031 663.439 110.249 662.934 110.002C662.429 109.755 662.218 109.151 662.464 108.646L665.464 102.453C665.634 102.106 665.987 101.883 666.38 101.883C666.75 101.871 667.137 102.112 667.302 102.47L670.16 108.664C670.395 109.168 670.172 109.773 669.667 110.008C669.521 110.061 669.374 110.096 669.233 110.096Z" fill="#49263E"/>
<path d="M668.164 126.599C661.801 126.599 656.999 125.478 656.594 125.384C656.053 125.249 655.719 124.703 655.848 124.163C655.983 123.617 656.511 123.282 657.075 123.411C657.263 123.458 676.506 127.937 688.998 118.639C689.45 118.316 690.078 118.398 690.413 118.85C690.748 119.302 690.654 119.936 690.208 120.271C683.38 125.337 674.903 126.599 668.164 126.599Z" fill="#49263E"/>
<path d="M660.404 85.8881C660.075 85.8881 659.764 85.7296 659.565 85.4419C657.927 83.0174 651.669 77.8339 650.73 77.2586C650.354 77.1118 650.084 76.742 650.084 76.3134C650.084 75.7557 650.536 75.2979 651.1 75.2979C652.262 75.2979 659.811 82.178 661.244 84.3089C661.555 84.7727 661.437 85.4008 660.974 85.712C660.803 85.8294 660.604 85.8881 660.404 85.8881Z" fill="#49263E"/>
<path d="M654.68 86.9535C654.504 86.9535 654.322 86.9066 654.157 86.8068L651.387 85.1396C650.911 84.8519 650.753 84.2297 651.04 83.7483C651.322 83.2669 651.95 83.1143 652.432 83.4019L655.202 85.0691C655.678 85.3568 655.836 85.9791 655.549 86.4604C655.361 86.7774 655.026 86.9535 654.68 86.9535Z" fill="#49263E"/>
<path d="M665.816 161.866C665.259 161.866 664.801 161.414 664.801 160.85C664.801 149.409 665.752 138.725 665.764 138.613C665.811 138.061 666.233 137.662 666.861 137.697C667.419 137.75 667.83 138.243 667.777 138.801C667.765 138.907 666.826 149.503 666.826 160.85C666.832 161.414 666.38 161.866 665.816 161.866Z" fill="#49263E"/>
<path d="M599.563 81.2795C599.175 81.2795 598.811 81.0564 598.641 80.6807C598.541 80.4577 596.187 75.2154 595.6 69.298C595.548 68.7403 595.953 68.2413 596.51 68.1885C597.15 68.1474 597.567 68.5407 597.62 69.0984C598.177 74.6753 600.461 79.7943 600.485 79.8471C600.719 80.3579 600.49 80.9566 599.98 81.1856C599.839 81.2443 599.704 81.2795 599.563 81.2795Z" fill="#CC7A64"/>
<path d="M542.074 164.254C543.107 164.489 541.452 164.865 543.554 164.366C545.655 163.861 549.952 158.319 548.273 154.99C548.273 154.99 551.543 150.975 550.058 146.49C550.058 146.49 547.258 135.724 546.054 134.403C546.054 134.403 546.888 131.08 546.189 129.29C545.491 127.499 538.376 120.496 535.323 119.962C532.271 119.428 525.12 127.881 522.96 130.634C520.8 133.387 514.742 140.561 515.998 144.365C517.26 148.169 519.538 167.688 519.538 167.688L529.206 192.438L553.363 188.129L542.074 164.254Z" fill="#C77965"/>
<path d="M517.338 112.064C512.548 120.414 514.803 140.144 516.55 147.284L527.087 131.139C524.313 105.222 519.387 108.878 517.338 112.064Z" fill="#C77965"/>
<path d="M524.568 135.796C524.011 135.796 523.553 135.344 523.553 134.78C523.553 134.223 524.005 133.765 524.568 133.765L546.048 133.747C546.606 133.747 547.064 134.199 547.064 134.763C547.064 135.32 546.612 135.778 546.048 135.778L524.568 135.796Z" fill="#49263E"/>
<path d="M538.558 135.783C538.218 135.783 537.883 135.613 537.69 135.296L534.402 129.901C534.115 129.426 534.267 128.798 534.743 128.51C535.224 128.216 535.846 128.369 536.14 128.845L539.427 134.239C539.715 134.715 539.562 135.343 539.087 135.631C538.922 135.736 538.74 135.783 538.558 135.783Z" fill="#49263E"/>
<path d="M528.068 146.352C527.557 146.352 527.117 145.965 527.058 145.442C527.006 144.885 527.405 144.386 527.962 144.333C529.888 144.133 548.444 143.088 549.237 143.041C549.836 142.971 550.276 143.44 550.305 143.998C550.335 144.556 549.906 145.037 549.348 145.066C549.155 145.078 530.046 146.158 528.174 146.352C528.139 146.352 528.103 146.352 528.068 146.352Z" fill="#49263E"/>
<path d="M531.202 158.01C530.75 158.01 530.333 157.716 530.204 157.276C530.063 156.76 530.322 156.22 530.838 156.049C531.56 155.809 542.015 154.881 548.185 154.353C548.731 154.317 549.236 154.723 549.283 155.274C549.336 155.832 548.919 156.325 548.361 156.372C542.25 156.9 532.247 157.805 531.431 157.987C531.355 158.004 531.278 158.01 531.202 158.01Z" fill="#49263E"/>
<path d="M542.873 182.036C542.744 182.036 542.609 182.012 542.486 181.959C541.969 181.742 541.722 181.149 541.94 180.633C545.139 172.96 542.585 167.272 541.693 165.663C538.999 165.792 533.527 166.074 532.758 166.168C532.201 166.268 531.702 165.845 531.631 165.287C531.561 164.73 531.954 164.225 532.512 164.154C533.568 164.019 541.317 163.649 542.198 163.608C542.58 163.608 542.891 163.767 543.079 164.043C543.284 164.336 548.016 171.328 543.812 181.413C543.648 181.801 543.272 182.036 542.873 182.036Z" fill="#49263E"/>
<path d="M657.862 102.494C658.631 102.494 659.259 101.866 659.259 101.097V98.8601C659.259 98.091 658.631 97.4629 657.862 97.4629C657.093 97.4629 656.465 98.091 656.465 98.8601V101.097C656.465 101.86 657.093 102.494 657.862 102.494Z" fill="#49263E"/>
<path d="M674.869 102.494C675.638 102.494 676.266 101.866 676.266 101.097V98.8601C676.266 98.091 675.638 97.4629 674.869 97.4629C674.1 97.4629 673.472 98.091 673.472 98.8601V101.097C673.472 101.86 674.1 102.494 674.869 102.494Z" fill="#49263E"/>
<path d="M831.492 296.869H462.536C461.978 296.869 461.521 296.417 461.521 295.853C461.521 295.296 461.973 294.838 462.536 294.838H831.492C832.049 294.838 832.507 295.29 832.507 295.853C832.507 296.417 832.055 296.869 831.492 296.869Z" fill="#49263E"/>
</g>
<defs>
<radialGradient id="paint0_radial_1494_12852" cx="0" cy="0" r="1" gradientUnits="userSpaceOnUse" gradientTransform="translate(297.566 223.23) rotate(-140.928) scale(608.418 285.939)">
<stop stop-color="#59CAFF"/>
<stop offset="1" stop-color="white" stop-opacity="0"/>
</radialGradient>
<clipPath id="clip0_1494_12852">
<rect width="768" height="400" fill="white"/>
</clipPath>
</defs>
</svg>
