<svg width="45" height="45" viewBox="0 0 45 45" fill="none" xmlns="http://www.w3.org/2000/svg">
<g filter="url(#filter0_d_611_17665)">
<rect x="4.50977" y="0.51001" width="36.49" height="36.49" rx="18.245" fill="white"/>
<path d="M17.2862 20.8968C17.884 20.8968 18.3731 20.4077 18.3731 19.8099C18.3731 19.212 17.884 18.7229 17.2862 18.7229C16.6883 18.7229 16.1992 19.212 16.1992 19.8099C16.1992 20.4077 16.6883 20.8968 17.2862 20.8968Z" stroke="#333333" stroke-width="2.17391"/>
<path d="M23.8079 20.8968C24.4057 20.8968 24.8949 20.4077 24.8949 19.8099C24.8949 19.212 24.4057 18.7229 23.8079 18.7229C23.2101 18.7229 22.721 19.212 22.721 19.8099C22.721 20.4077 23.2101 20.8968 23.8079 20.8968Z" stroke="#333333" stroke-width="2.17391"/>
<path d="M30.3296 20.8968C30.9275 20.8968 31.4166 20.4077 31.4166 19.8099C31.4166 19.212 30.9275 18.7229 30.3296 18.7229C29.7318 18.7229 29.2427 19.212 29.2427 19.8099C29.2427 20.4077 29.7318 20.8968 30.3296 20.8968Z" stroke="#333333" stroke-width="2.17391"/>
</g>
<defs>
<filter id="filter0_d_611_17665" x="0.509766" y="0.51001" width="44.4902" height="44.49" filterUnits="userSpaceOnUse" color-interpolation-filters="sRGB">
<feFlood flood-opacity="0" result="BackgroundImageFix"/>
<feColorMatrix in="SourceAlpha" type="matrix" values="0 0 0 0 0 0 0 0 0 0 0 0 0 0 0 0 0 0 127 0" result="hardAlpha"/>
<feOffset dy="4"/>
<feGaussianBlur stdDeviation="2"/>
<feComposite in2="hardAlpha" operator="out"/>
<feColorMatrix type="matrix" values="0 0 0 0 0 0 0 0 0 0 0 0 0 0 0 0 0 0 0.25 0"/>
<feBlend mode="normal" in2="BackgroundImageFix" result="effect1_dropShadow_611_17665"/>
<feBlend mode="normal" in="SourceGraphic" in2="effect1_dropShadow_611_17665" result="shape"/>
</filter>
</defs>
</svg>
