<svg width="45" height="45" viewBox="0 0 45 45" fill="none" xmlns="http://www.w3.org/2000/svg">
<g filter="url(#filter0_d_611_17662)">
<rect x="4.01953" y="0.51001" width="36.49" height="36.49" rx="18.245" fill="white"/>
<path d="M29.5605 20.1423L23.9035 25.8003C23.5284 26.1752 23.0198 26.3858 22.4895 26.3858C21.9591 26.3858 21.4505 26.1752 21.0755 25.8003L15.4185 20.1433C14.9508 19.6797 14.5794 19.1284 14.3254 18.5209C14.0714 17.9134 13.9399 17.2617 13.9385 16.6032C13.937 15.9448 14.0657 15.2925 14.317 14.6839C14.5683 14.0753 14.9373 13.5223 15.4029 13.0568C15.8685 12.5912 16.4215 12.2221 17.0301 11.9708C17.6387 11.7195 18.291 11.5909 18.9494 11.5923C19.6079 11.5937 20.2596 11.7252 20.8671 11.9792C21.4746 12.2332 22.0259 12.6046 22.4895 13.0723C23.431 12.1541 24.6964 11.6439 26.0115 11.6522C27.3266 11.6604 28.5855 12.1864 29.5154 13.1163C30.4454 14.0461 30.9716 15.305 30.9801 16.62C30.9885 17.9351 30.4785 19.2006 29.5605 20.1423Z" stroke="#333333" stroke-width="2" stroke-linecap="round" stroke-linejoin="round"/>
</g>
<defs>
<filter id="filter0_d_611_17662" x="0.0195312" y="0.51001" width="44.4902" height="44.49" filterUnits="userSpaceOnUse" color-interpolation-filters="sRGB">
<feFlood flood-opacity="0" result="BackgroundImageFix"/>
<feColorMatrix in="SourceAlpha" type="matrix" values="0 0 0 0 0 0 0 0 0 0 0 0 0 0 0 0 0 0 127 0" result="hardAlpha"/>
<feOffset dy="4"/>
<feGaussianBlur stdDeviation="2"/>
<feComposite in2="hardAlpha" operator="out"/>
<feColorMatrix type="matrix" values="0 0 0 0 0 0 0 0 0 0 0 0 0 0 0 0 0 0 0.25 0"/>
<feBlend mode="normal" in2="BackgroundImageFix" result="effect1_dropShadow_611_17662"/>
<feBlend mode="normal" in="SourceGraphic" in2="effect1_dropShadow_611_17662" result="shape"/>
</filter>
</defs>
</svg>
