<svg width="37" height="38" viewBox="0 0 37 38" fill="none" xmlns="http://www.w3.org/2000/svg">
<rect y="0.745117" width="36.49" height="36.49" rx="18.245" fill="white"/>
<path d="M25.5409 20.3771L19.8839 26.0351C19.5089 26.4101 19.0003 26.6207 18.4699 26.6207C17.9396 26.6207 17.431 26.4101 17.0559 26.0351L11.3989 20.3781C10.9313 19.9146 10.5598 19.3632 10.3059 18.7557C10.0519 18.1482 9.9204 17.4965 9.91896 16.8381C9.91752 16.1796 10.0461 15.5274 10.2975 14.9188C10.5488 14.3102 10.9178 13.7572 11.3834 13.2916C11.849 12.826 12.402 12.457 13.0106 12.2057C13.6192 11.9543 14.2714 11.8257 14.9299 11.8272C15.5883 11.8286 16.24 11.9601 16.8475 12.2141C17.455 12.468 18.0064 12.8395 18.4699 13.3071C19.4115 12.389 20.6769 11.8788 21.992 11.887C23.307 11.8953 24.5659 12.4213 25.4959 13.3512C26.4259 14.281 26.9521 15.5398 26.9605 16.8549C26.969 18.17 26.4589 19.4354 25.5409 20.3771Z" fill="#6E60F6" stroke="#6E60F6" stroke-width="2" stroke-linecap="round" stroke-linejoin="round"/>
</svg>
