<svg width="37" height="37" viewBox="0 0 37 37" fill="none" xmlns="http://www.w3.org/2000/svg">
<rect width="36.49" height="36.49" rx="18.245" fill="white"/>
<path d="M25.5409 19.6323L19.8839 25.2903C19.5089 25.6652 19.0003 25.8758 18.4699 25.8758C17.9396 25.8758 17.431 25.6652 17.0559 25.2903L11.3989 19.6333C10.9313 19.1697 10.5598 18.6184 10.3059 18.0109C10.0519 17.4034 9.9204 16.7517 9.91896 16.0932C9.91752 15.4348 10.0461 14.7825 10.2975 14.1739C10.5488 13.5653 10.9178 13.0123 11.3834 12.5467C11.849 12.0811 12.402 11.7121 13.0106 11.4608C13.6192 11.2095 14.2714 11.0808 14.9299 11.0823C15.5883 11.0837 16.24 11.2152 16.8475 11.4692C17.455 11.7232 18.0064 12.0946 18.4699 12.5623C19.4115 11.6441 20.6769 11.1339 21.992 11.1422C23.307 11.1504 24.5659 11.6764 25.4959 12.6063C26.4259 13.5361 26.9521 14.795 26.9605 16.11C26.969 17.4251 26.4589 18.6906 25.5409 19.6323Z" stroke="#333333" stroke-width="2" stroke-linecap="round" stroke-linejoin="round"/>
</svg>
