<svg width="420" height="301" viewBox="0 0 420 301" fill="none" xmlns="http://www.w3.org/2000/svg">
<path d="M214 88.7332H214.017M209.833 110.4H199C197.674 110.4 196.402 109.873 195.464 108.935C194.527 107.998 194 106.726 194 105.4V85.3999C194 84.0738 194.527 82.8021 195.464 81.8644C196.402 80.9267 197.674 80.3999 199 80.3999H219C220.326 80.3999 221.598 80.9267 222.536 81.8644C223.473 82.8021 224 84.0738 224 85.3999V96.2332" stroke="#B3B3B3" stroke-width="2" stroke-linecap="round" stroke-linejoin="round"/>
<path d="M194 102.067L202.333 93.7332C203.88 92.2449 205.787 92.2449 207.333 93.7332L214 100.4" stroke="#B3B3B3" stroke-width="2" stroke-linecap="round" stroke-linejoin="round"/>
<path d="M212.333 98.7332L214 97.0665C215.116 95.9932 216.416 95.6932 217.636 96.1665M215.666 107.067H225.666M220.666 102.067V112.067" stroke="#B3B3B3" stroke-width="2" stroke-linecap="round" stroke-linejoin="round"/>
<path d="M150.368 135.2V130.64H151.472V145.232H150.368V139.648H148.624V140.032C148.624 141.408 148.448 143.664 147.472 145.264C147.264 145.056 146.848 144.784 146.56 144.688C147.44 143.216 147.568 141.232 147.568 140V139.648H146.704V138.592H150.368V136.24H147.376V131.248H148.432V135.2H150.368ZM159.28 132.848H155.6L155.584 132.864C156.336 133.488 157.136 134.272 157.616 134.928C158.288 134.32 158.864 133.632 159.28 132.848ZM160.016 131.92L160.736 132.288C159.344 135.744 156 137.728 152.64 138.656C152.528 138.384 152.256 138 152.048 137.76C153.728 137.376 155.456 136.624 156.864 135.552C156.416 134.88 155.616 134.048 154.848 133.408C154.112 133.92 153.312 134.368 152.496 134.736C152.32 134.544 151.968 134.192 151.76 134C153.648 133.232 155.424 131.904 156.336 130.608L157.488 130.944C157.232 131.296 156.928 131.632 156.576 131.968H159.808L160.016 131.92ZM155.456 134.96L155.52 135.792C154.352 135.968 153.248 136.112 152.272 136.256L152.064 135.36C152.976 135.28 154.16 135.12 155.456 134.96ZM153.168 140.768L154.08 140.224C154.896 140.976 155.792 142.064 156.192 142.784L155.216 143.392C154.848 142.656 153.968 141.568 153.168 140.768ZM161.264 138.784V139.84H159.2V143.664C159.2 144.336 159.056 144.672 158.576 144.864C158.096 145.056 157.312 145.072 156.048 145.072C156 144.736 155.84 144.272 155.664 143.936C156.624 143.968 157.488 143.952 157.728 143.936C157.984 143.936 158.064 143.872 158.064 143.648V139.84H152.016V138.784H158.064V136.528H159.2V138.784H161.264ZM166.592 135.152V136.56C167.152 137.136 168.624 138.832 168.96 139.264L168.224 140.24C167.92 139.712 167.2 138.704 166.592 137.92V145.2H165.472V137.552C164.848 139.392 164.016 141.168 163.152 142.256C163.024 141.92 162.72 141.456 162.528 141.168C163.632 139.84 164.768 137.36 165.328 135.152H162.88V134.032H165.472V130.608H166.592V134.032H168.88V135.152H166.592ZM170.72 143.04H175.568V140.272H170.72V143.04ZM175.568 132.672H170.72V135.344H175.568V132.672ZM170.72 136.432V139.184H175.568V136.432H170.72ZM169.584 131.552H176.736V145.056H175.568V144.144H170.72V145.104H169.584V131.552ZM182.432 138.32H190.288V145.232H189.056V139.504H182.336C182.096 141.584 181.472 143.6 179.968 145.28C179.776 145.008 179.344 144.592 179.072 144.384C181.088 142.08 181.312 139.072 181.312 136.176V130.8H182.496V134.576H188.512V130.64H189.712V135.744H182.496V136.176C182.496 136.896 182.48 137.616 182.432 138.32ZM209.232 133.92H202.16C201.68 134.928 201.12 135.84 200.496 136.544C200.304 136.336 199.792 135.968 199.52 135.808C200.688 134.56 201.632 132.608 202.16 130.608L203.312 130.864C203.12 131.536 202.912 132.192 202.64 132.832H209.232V133.92ZM199.408 137.552L199.568 138.656L197.872 139.216V143.744C197.872 144.4 197.712 144.72 197.312 144.912C196.944 145.104 196.336 145.152 195.312 145.136C195.28 144.832 195.12 144.352 194.976 144.016C195.648 144.032 196.288 144.032 196.464 144.032C196.672 144.032 196.752 143.968 196.752 143.728V139.584C196.048 139.824 195.392 140.016 194.8 140.208L194.496 139.072C195.104 138.896 195.888 138.656 196.752 138.384V134.928H194.72V133.824H196.752V130.624H197.872V133.824H199.52V134.928H197.872V138.048L199.408 137.552ZM203.76 144.112H207.344C208.128 144.112 208.272 143.808 208.368 142.32C208.624 142.496 209.056 142.672 209.376 142.752C209.216 144.608 208.88 145.136 207.408 145.136H203.712C202 145.136 201.52 144.768 201.52 143.312V139.504L200.192 140.016L199.824 139.024L201.52 138.368V135.696H202.592V137.968L204.528 137.216V134.416H205.584V136.8L207.552 136.032L207.776 135.856L208.608 136.096L208.56 136.288C208.528 138.032 208.416 140.336 208.192 141.744L207.28 141.488C207.392 140.432 207.456 138.704 207.488 137.184L205.584 137.936V142.544H204.528V138.336L202.592 139.088V143.312C202.592 143.968 202.768 144.112 203.76 144.112ZM213.424 138.256H217.68C217.552 137.632 217.456 136.976 217.376 136.304H213.424V138.256ZM217.152 133.376H213.424V135.28H217.28C217.216 134.656 217.184 134.032 217.152 133.376ZM222.656 133.376H218.32C218.352 134.032 218.384 134.672 218.448 135.28H222.656V133.376ZM218.848 138.256H222.656V136.304H218.544C218.624 136.992 218.736 137.648 218.848 138.256ZM222.288 139.488L223.424 140C222.624 140.96 221.6 141.776 220.416 142.448C221.152 143.504 222.096 144.08 223.264 144.08C223.984 144.08 224.192 143.568 224.336 141.744C224.608 141.968 225.024 142.208 225.344 142.304C225.104 144.592 224.64 145.216 223.248 145.216C221.552 145.216 220.304 144.4 219.376 143.008C217.136 144.08 214.464 144.768 211.792 145.232C211.664 144.96 211.328 144.416 211.104 144.16C213.904 143.76 216.64 143.088 218.832 142.048C218.448 141.248 218.144 140.336 217.904 139.312H213.424V140.256H212.256V132.336H217.12C217.104 131.792 217.088 131.232 217.088 130.656H218.288C218.288 131.232 218.288 131.792 218.288 132.336H223.84V139.312H219.088C219.296 140.128 219.552 140.864 219.856 141.488C220.832 140.928 221.664 140.256 222.288 139.488ZM231.856 139.984V142.48C232.944 142.272 234.08 142.064 235.184 141.856L235.264 142.896C232.432 143.44 229.408 144.016 227.312 144.416L227.056 143.312C228.032 143.152 229.328 142.912 230.72 142.672V139.984H227.6V138.928H230.72V137.216H231.856V138.928H235.04V139.984H231.856ZM227.184 132.72V131.664H235.36V132.72H231.04C230.496 133.776 229.84 134.848 229.2 135.696L233.28 135.344C232.896 134.784 232.48 134.24 232.096 133.76L232.944 133.248C233.84 134.32 234.896 135.76 235.36 136.672L234.448 137.264C234.32 136.992 234.128 136.64 233.888 136.272C228.912 136.752 228.336 136.816 227.952 136.992C227.888 136.736 227.696 136.176 227.552 135.872C227.808 135.824 228.048 135.552 228.32 135.168C228.56 134.848 229.2 133.856 229.712 132.72H227.184ZM237.36 132V141.616H236.24V132H237.36ZM239.376 130.88H240.544V143.36C240.544 144.112 240.368 144.48 239.888 144.656C239.392 144.848 238.544 144.88 237.392 144.88C237.344 144.576 237.136 144.032 236.96 143.712C237.888 143.744 238.768 143.744 239.04 143.728C239.312 143.712 239.376 143.648 239.376 143.376V130.88ZM257.088 132.512V133.44H247.024V132.512H251.76C251.488 132.048 251.04 131.36 250.608 130.88L251.712 130.448C252.144 130.944 252.704 131.664 252.96 132.128L252.096 132.512H257.088ZM248.288 137.568V136.672H255.728V137.568H248.288ZM255.728 134.56V135.472H248.288V134.56H255.728ZM249.248 139.664V141.648H254.64V139.664H249.248ZM248.112 142.56V138.752H255.808V142.56H248.112ZM246.304 133.072L245.392 133.712C244.976 133.056 244.096 131.968 243.392 131.184L244.272 130.64C244.992 131.408 245.872 132.432 246.304 133.072ZM246.336 138.208L246.928 138.432C246.72 139.824 246.352 141.024 245.888 142.032C246.944 143.696 248.944 143.936 251.856 143.936C253.52 143.936 255.84 143.856 257.472 143.728C257.296 143.984 257.136 144.528 257.072 144.864C255.584 144.944 253.584 144.992 251.856 144.992C248.656 144.992 246.672 144.656 245.408 142.928C244.816 143.936 244.112 144.704 243.296 145.264C243.12 145.024 242.736 144.608 242.512 144.448C244.032 143.472 245.2 141.712 245.712 139.216H243.968C243.568 139.216 243.136 139.312 243.024 139.44C242.96 139.152 242.72 138.608 242.592 138.352C242.832 138.288 243.072 138.192 243.36 137.888C243.744 137.52 244.672 136.256 245.376 135.28H242.816V134.304H246.128L246.32 134.224L247.104 134.592C246.432 135.52 245.232 137.168 244.32 138.24H246.144L246.336 138.208ZM262.592 132.592L261.712 133.232C261.456 132.672 260.88 131.776 260.416 131.12L261.264 130.576C261.76 131.216 262.32 132.048 262.592 132.592ZM264.272 140.032L263.616 140.992C263.296 140.48 262.608 139.552 262.032 138.784V145.216H260.944V138.88C260.288 139.664 259.616 140.352 258.976 140.896C258.864 140.576 258.576 139.984 258.4 139.76C259.92 138.592 261.584 136.544 262.528 134.528H258.816V133.44H263.104L263.28 133.392L263.936 133.856C263.456 135.088 262.8 136.32 262.032 137.424V137.456C262.176 137.6 262.368 137.824 262.56 138.048C263.008 137.552 263.504 136.928 263.808 136.48L264.528 137.136C264.064 137.648 263.536 138.208 263.088 138.624C263.6 139.2 264.08 139.808 264.272 140.032ZM265.968 137.568H268.128V135.424H265.968V137.568ZM265.968 132.352V134.448H268.128V132.352H265.968ZM271.472 134.448V132.352H269.248V134.448H271.472ZM271.472 137.568V135.424H269.248V137.568H271.472ZM269.248 143.76H273.28V144.832H264.224V143.76H268.128V141.44H264.88V140.384H268.128V138.592H264.88V131.312H272.592V138.592H269.248V140.384H272.704V141.44H269.248V143.76Z" fill="#5C5F66"/>
<path d="M182.792 175.978L182.302 176.776C181.994 176.412 181.434 175.88 180.902 175.432C180.426 176.468 179.824 177.364 179.096 178.05C178.942 177.868 178.55 177.49 178.312 177.336C179.628 176.202 180.454 174.41 180.846 172.296L181.854 172.45C181.7 173.206 181.49 173.934 181.252 174.592C181.826 175.04 182.47 175.6 182.792 175.978ZM177.444 172.296L178.396 172.646C177.57 173.836 176.268 175.124 175.092 175.964C174.952 175.754 174.686 175.39 174.504 175.208C175.596 174.48 176.828 173.276 177.444 172.296ZM177.78 175.124L178.704 175.446C178.354 176.062 177.948 176.678 177.486 177.28V185.106H176.52V178.414C176.002 178.974 175.47 179.492 174.938 179.912C174.84 179.702 174.518 179.212 174.35 178.988C175.624 178.05 176.954 176.594 177.78 175.124ZM183.59 180.976V183.888C183.968 183.958 184.388 183.986 184.822 183.986H187.412C187.272 184.21 187.118 184.658 187.09 184.924H184.766C182.68 184.924 181.224 184.42 180.3 182.348C179.95 183.426 179.418 184.322 178.634 185.036C178.494 184.868 178.074 184.518 177.85 184.364C179.278 183.188 179.768 181.298 179.908 178.75L180.902 178.82C180.86 179.562 180.776 180.248 180.664 180.878C181.084 182.362 181.742 183.174 182.624 183.594V177.742H182.806C182.596 177.56 182.288 177.322 182.092 177.21C183.506 176.174 184.29 174.48 184.598 172.296L185.592 172.422C185.466 173.248 185.284 174.018 185.032 174.704C185.942 175.474 186.978 176.482 187.482 177.14L186.768 177.854C186.32 177.238 185.466 176.342 184.668 175.586C184.248 176.454 183.702 177.168 183.044 177.742H183.59V180.094H186.698V180.976H183.59ZM194.954 178.4V175.222H190.6V177.476H189.606V174.48H194.954V173.584H190.208V172.842H200.764V173.584H195.962V174.48H201.408V177.476H200.386V175.222H195.962V178.4H194.954ZM200.05 177.77L199.812 178.484C199.056 178.218 197.656 177.882 196.55 177.714L196.802 177.084C197.866 177.21 199.294 177.504 200.05 177.77ZM199.378 175.432L199.826 176.02C199.042 176.356 197.894 176.65 197.096 176.818L196.732 176.272C197.53 176.104 198.706 175.67 199.378 175.432ZM191.202 176.062L191.524 175.502C192.42 175.642 193.582 175.964 194.212 176.23L193.904 176.874C193.288 176.58 192.126 176.244 191.202 176.062ZM191.16 178.442L190.852 177.63C191.734 177.546 192.938 177.364 194.17 177.168L194.212 177.826C193.134 178.05 192.07 178.274 191.16 178.442ZM191.818 182.292H194.912V181.326H191.818V182.292ZM194.912 179.674H191.818V180.626H194.912V179.674ZM199.224 180.626V179.674H195.92V180.626H199.224ZM195.92 182.292H199.224V181.326H195.92V182.292ZM196.956 184.042H200.064C200.806 184.042 200.946 183.804 201.016 182.418C201.254 182.572 201.632 182.698 201.926 182.754C201.772 184.448 201.464 184.882 200.134 184.882H196.914C195.36 184.882 194.912 184.602 194.912 183.482V183.048H191.818V183.776H190.81V178.918H200.246V183.048H195.92V183.482C195.92 183.958 196.088 184.042 196.956 184.042ZM216.328 177.126L215.488 177.546C215.124 176.86 214.34 175.81 213.5 174.9C214.116 174.088 214.774 173.066 215.138 172.436L216.076 172.674C215.656 173.346 215.068 174.2 214.578 174.872C215.25 175.614 215.978 176.552 216.328 177.126ZM205.338 176.006V177.742C205.338 178.428 205.324 179.198 205.268 180.01C205.73 179.73 206.374 179.296 207.046 178.82V177.238L206.528 177.588C206.276 177.182 205.772 176.496 205.338 176.006ZM207.046 173.752H205.338V175.964L205.898 175.6C206.304 176.034 206.766 176.58 207.046 176.986V173.752ZM207.942 172.8V183.818C207.942 184.378 207.816 184.658 207.494 184.826C207.13 184.994 206.584 185.008 205.66 185.008C205.632 184.742 205.492 184.322 205.366 184.07C206.01 184.098 206.612 184.084 206.794 184.084C206.976 184.084 207.046 184.014 207.046 183.818V179.73C206.584 180.108 206.136 180.5 205.674 180.864L205.268 180.052C205.156 181.788 204.862 183.664 204.204 185.106C204.064 184.91 203.686 184.588 203.49 184.49C204.372 182.516 204.442 179.758 204.442 177.742V172.8H207.942ZM211.022 177.308L210.182 177.7C209.846 176.972 209.146 175.88 208.39 174.9C208.964 174.074 209.566 173.01 209.874 172.338L210.784 172.576C210.392 173.29 209.86 174.172 209.412 174.886C210.056 175.698 210.7 176.678 211.022 177.308ZM214.676 182.642L214.074 183.244C213.724 182.852 213.178 182.376 212.576 181.872C211.96 182.39 211.288 182.88 210.588 183.272C210.448 183.09 210.21 182.838 210.014 182.698C210.7 182.348 211.358 181.886 211.932 181.382C211.414 180.99 210.868 180.598 210.35 180.276L210.924 179.73C211.428 180.066 211.988 180.43 212.52 180.836C212.968 180.388 213.332 179.94 213.612 179.492L214.368 179.884C214.032 180.374 213.64 180.864 213.164 181.326C213.766 181.788 214.326 182.264 214.676 182.642ZM214.97 183.594V179.282H209.79V183.594H214.97ZM212.786 177.546L212.73 177.448C212.548 177.784 212.338 178.106 212.128 178.414H215.936V185.008H214.97V184.476H209.79V185.064H208.852V178.414H211.12C211.33 178.008 211.554 177.518 211.68 177.182L212.73 177.434C212.366 176.734 211.694 175.768 210.952 174.9C211.526 174.074 212.142 173.094 212.478 172.45L213.374 172.674C212.996 173.36 212.464 174.2 211.988 174.872C212.646 175.628 213.304 176.552 213.626 177.14L212.786 177.546ZM229.428 173.556H227.412V174.494H229.428V173.556ZM229.708 176.972H227.748C226.782 176.972 226.544 176.622 226.544 175.684V172.856H230.338V175.208H227.412V175.698C227.412 176.09 227.468 176.216 227.776 176.216H229.68C229.918 176.216 230.352 176.202 230.59 176.16C230.604 176.384 230.632 176.706 230.674 176.902C230.464 176.958 230.072 176.972 229.708 176.972ZM224.934 173.542H222.96V174.48H224.934V173.542ZM222.96 176.258L225.956 175.796C225.914 176.034 225.872 176.356 225.872 176.538C222.764 177.098 222.358 177.182 222.12 177.322C222.064 177.084 221.868 176.692 221.756 176.482C221.91 176.398 222.12 176.23 222.12 175.698V172.842H225.83V175.194H222.96V176.258ZM225.102 179.03V180.318H227.286V179.03H225.102ZM230.73 180.318V181.13H221.63V180.318H224.136V179.03H222.204V178.218H224.136V177.21H225.102V178.218H227.286V177.21H228.252V178.218H230.282V179.03H228.252V180.318H230.73ZM230.506 182.894L229.582 183.37C228.994 182.852 227.944 182.208 226.922 181.718L227.622 181.242C228.658 181.732 229.834 182.376 230.506 182.894ZM224.598 181.256L225.522 181.578C224.78 182.264 223.646 182.978 222.694 183.426C222.512 183.23 222.134 182.908 221.896 182.782C222.89 182.39 223.94 181.83 224.598 181.256ZM221.042 174.508L220.244 175.082C219.866 174.494 219.096 173.542 218.48 172.856L219.25 172.38C219.894 173.066 220.65 173.948 221.042 174.508ZM221.028 178.932L221.532 179.128C221.364 180.276 221.084 181.298 220.748 182.166C221.672 183.72 223.436 183.944 226.082 183.944C227.566 183.944 229.596 183.874 231.038 183.748C230.87 183.986 230.758 184.462 230.702 184.756C229.386 184.826 227.622 184.868 226.082 184.868C223.24 184.868 221.462 184.588 220.37 183.006C219.88 183.902 219.306 184.602 218.648 185.106C218.508 184.882 218.172 184.532 217.962 184.392C219.18 183.524 220.062 181.97 220.482 179.814H219.222C218.914 179.814 218.536 179.912 218.424 180.01C218.368 179.758 218.172 179.282 218.06 179.072C218.256 179.016 218.452 178.932 218.676 178.666C218.928 178.372 219.6 177.238 220.076 176.37H218.214V175.502H220.622L220.79 175.432L221.476 175.712C221 176.51 220.132 178.008 219.488 178.96H220.846L221.028 178.932ZM236.62 178.19L236.76 179.142C236.284 179.31 235.822 179.478 235.36 179.618V183.79C235.36 184.364 235.22 184.644 234.87 184.812C234.548 184.98 234.016 185.008 233.134 185.008C233.092 184.742 232.966 184.322 232.826 184.028C233.428 184.056 233.988 184.056 234.142 184.042C234.31 184.042 234.38 183.986 234.38 183.804V179.954C233.834 180.15 233.302 180.318 232.812 180.472L232.56 179.478C233.064 179.338 233.694 179.142 234.38 178.918V176.062H232.7V175.096H234.38V172.31H235.36V175.096H236.774V176.062H235.36V178.61L236.62 178.19ZM242.724 179.198H239.476C239.686 179.604 239.952 180.136 240.022 180.486L239.882 180.528H242.136C242.332 180.122 242.584 179.59 242.724 179.198ZM240.414 173.57V175.026H241.814V173.57H240.414ZM239.588 175.026V173.57H238.258V175.026H239.588ZM242.64 173.57V175.026H244.054V173.57H242.64ZM245.286 182.348L245.3 183.16H241.548V185.078H240.554V183.16H236.76V182.348H240.554V181.34H237.236V180.528H239.084C238.972 180.192 238.79 179.744 238.608 179.394L239.406 179.198H236.956V178.372H240.554V177.392H237.558V176.594H240.554V175.768H237.404V172.814H244.936V175.768H241.548V176.594H244.642V177.392H241.548V178.372H245.09V179.198H242.878L243.704 179.422C243.494 179.8 243.27 180.192 243.074 180.528H244.796V181.34H241.548V182.348H245.286Z" fill="#333333"/>
<rect x="146.5" y="158.5" width="127" height="39" rx="7.5" stroke="#888888"/>
<path d="M152.193 219.46H157.473V220.348H146.781V219.46H151.257V210.148H152.193V213.82H156.657V214.708H152.193V219.46ZM161.325 210.004L162.153 210.256C161.817 211.144 161.397 212.02 160.917 212.848V220.888H160.077V214.156C159.693 214.708 159.285 215.2 158.865 215.632C158.769 215.428 158.529 214.96 158.361 214.768C159.537 213.616 160.641 211.828 161.325 210.004ZM165.081 219.832L164.397 220.312C164.097 219.868 163.461 219.172 162.897 218.692L163.557 218.272C164.109 218.728 164.769 219.388 165.081 219.832ZM166.113 215.428V216.136L167.889 216.1C167.649 215.896 167.409 215.704 167.181 215.536L167.373 215.428H166.113ZM163.257 214.864H165.249V214.096H163.257V214.864ZM163.257 212.812V213.556H165.249V212.812H163.257ZM168.153 212.812H166.113V213.556H168.153V212.812ZM168.153 214.864V214.096H166.113V214.864H168.153ZM167.925 216.748V217.552H169.605V218.272H167.925V219.976C167.925 220.456 167.817 220.684 167.445 220.804C167.085 220.924 166.485 220.924 165.573 220.924C165.525 220.696 165.405 220.384 165.285 220.168C166.017 220.192 166.629 220.192 166.821 220.168C167.013 220.168 167.061 220.12 167.061 219.964V218.272H161.625V217.552H167.061V216.772C165.165 216.832 163.317 216.892 161.949 216.916L161.865 216.196C162.777 216.196 163.965 216.184 165.249 216.16V215.428H162.441V212.248H165.249V211.564H161.961V210.88H165.249V210.052H166.113V210.88H169.485V211.564H166.113V212.248H169.005V215.428H168.117C168.717 215.872 169.329 216.436 169.677 216.844L169.029 217.252C168.909 217.096 168.753 216.916 168.561 216.724L167.925 216.748ZM173.193 213.376V214.276C173.517 214.72 174.381 216.052 174.585 216.364L174.105 217.024C173.937 216.64 173.529 215.896 173.193 215.296V220.9H172.377V215.416C171.993 216.676 171.501 217.9 170.997 218.656C170.889 218.428 170.673 218.08 170.529 217.876C171.249 216.88 171.957 215.008 172.293 213.376H170.781V212.548H172.377V209.956H173.193V212.548H174.405V213.376H173.193ZM177.561 217.192H175.689V218.14H177.561V217.192ZM180.261 218.14V217.192H178.329V218.14H180.261ZM178.329 219.76H180.261V218.8H178.329V219.76ZM175.689 219.76H177.561V218.8H175.689V219.76ZM174.873 220.912V216.496H181.113V220.888H180.261V220.444H175.689V220.912H174.873ZM179.601 215.188V214.084H176.445V215.188H179.601ZM175.665 213.436H180.441V215.836H175.665V213.436ZM179.925 211.9H181.449V213.82H180.609V212.608H175.365V213.82H174.561V211.9H175.833C175.725 211.48 175.413 210.844 175.101 210.376L175.833 210.136C176.157 210.592 176.481 211.216 176.601 211.624L175.869 211.9H177.525V209.968H178.365V211.9H179.853L179.241 211.66C179.505 211.228 179.865 210.544 180.033 210.088L180.849 210.364C180.549 210.904 180.201 211.492 179.925 211.9ZM183.957 211.624V212.584H183.117V210.868H187.737C187.593 210.616 187.437 210.376 187.305 210.16L188.193 209.944C188.373 210.208 188.625 210.568 188.793 210.868H193.185V212.584H192.321V211.624H183.957ZM189.777 213.712H186.633C186.381 213.976 186.129 214.216 185.901 214.444C186.693 214.576 187.473 214.708 188.241 214.864C188.865 214.564 189.381 214.18 189.777 213.712ZM193.209 216.112L192.345 216.712C191.361 216.34 190.005 215.98 188.445 215.62C187.149 216.172 185.445 216.448 183.249 216.592C183.165 216.328 183.045 216.04 182.901 215.824C184.545 215.752 185.877 215.596 186.957 215.32C186.141 215.164 185.301 215.008 184.425 214.888C184.797 214.552 185.205 214.156 185.613 213.712H182.913V212.98H186.261C186.621 212.56 186.945 212.128 187.197 211.744L188.061 212.008C187.845 212.32 187.581 212.656 187.305 212.98H190.257C190.401 212.728 190.521 212.452 190.617 212.152L191.481 212.356C191.409 212.584 191.337 212.776 191.241 212.98H193.365V213.712H190.845C190.473 214.276 190.005 214.732 189.429 215.116C190.893 215.428 192.213 215.776 193.209 216.112ZM185.793 218.248L186.669 218.536C185.937 219.352 184.725 220.096 183.681 220.564C183.513 220.396 183.165 220.084 182.949 219.952C184.017 219.556 185.157 218.932 185.793 218.248ZM189.465 218.692L190.065 218.128C191.157 218.608 192.537 219.4 193.245 219.976L192.597 220.624C191.925 220.036 190.569 219.208 189.465 218.692ZM188.529 217.228H193.473V217.984H188.529V220.912H187.653V217.984H182.793V217.228H187.653V216.244H188.529V217.228ZM205.389 214.3H200.865C201.705 216.94 203.265 219.112 205.581 220.06C205.365 220.264 205.065 220.636 204.909 220.9C202.605 219.808 201.081 217.684 200.133 214.96C199.557 217.264 198.261 219.568 195.345 220.9C195.213 220.66 194.925 220.348 194.673 220.168C197.649 218.872 198.849 216.568 199.341 214.3H194.913V213.388H199.485C199.665 212.128 199.653 210.928 199.665 209.98H200.625C200.613 210.94 200.601 212.128 200.433 213.388H205.389V214.3ZM211.701 210.136H212.649V219.676C212.649 220.336 212.469 220.6 212.049 220.756C211.617 220.9 210.873 220.924 209.757 220.912C209.697 220.66 209.529 220.24 209.385 219.988C210.261 220.024 211.125 220.012 211.353 220C211.605 220 211.701 219.916 211.701 219.676V210.136ZM214.569 213.16L215.409 212.836C216.465 214.516 217.473 216.7 217.773 218.128L216.837 218.524C216.549 217.108 215.589 214.876 214.569 213.16ZM208.569 212.92L209.553 213.1C209.169 214.84 208.473 216.988 207.393 218.32C207.177 218.164 206.793 217.948 206.553 217.852C207.621 216.592 208.281 214.528 208.569 212.92ZM222.261 210.412L222.849 210.76C222.489 211.732 222.057 212.908 221.649 213.856C222.513 214.852 222.729 215.728 222.729 216.472C222.729 217.096 222.585 217.624 222.261 217.852C222.093 217.984 221.865 218.056 221.625 218.08C221.397 218.116 221.085 218.116 220.833 218.104C220.821 217.876 220.737 217.54 220.605 217.312C220.881 217.336 221.109 217.348 221.301 217.324C221.445 217.312 221.577 217.288 221.673 217.216C221.853 217.084 221.925 216.748 221.925 216.388C221.925 215.74 221.709 214.912 220.845 213.952C221.193 213.088 221.553 212.056 221.793 211.264H220.053V220.9H219.261V210.448H222.129L222.261 210.412ZM224.301 213.46V214.948H227.817V213.46H224.301ZM227.817 211.276H224.301V212.716H227.817V211.276ZM228.813 216.112L229.401 216.736C228.789 217.24 227.997 217.768 227.337 218.164C227.925 219.016 228.693 219.676 229.653 220.072C229.461 220.24 229.185 220.6 229.041 220.828C227.169 219.94 226.053 218.104 225.453 215.728H224.301V219.676L226.413 219.16C226.413 219.424 226.425 219.784 226.461 219.976C223.989 220.648 223.629 220.768 223.389 220.924C223.329 220.732 223.137 220.36 222.993 220.192C223.185 220.096 223.437 219.844 223.437 219.352V210.484H228.681V215.728H226.233C226.413 216.376 226.641 216.988 226.941 217.528C227.565 217.108 228.321 216.544 228.813 216.112ZM234.465 212.5V213.76H237.357V214.576H234.465V215.776H236.937V219.052C236.937 219.46 236.877 219.688 236.577 219.832C236.301 219.964 235.845 219.976 235.185 219.976C235.149 219.736 235.041 219.424 234.921 219.196C235.437 219.208 235.833 219.208 235.953 219.196C236.085 219.196 236.121 219.16 236.121 219.04V216.592H234.465V220.9H233.613V216.592H232.065V219.94H231.249V215.776H233.613V214.576H230.697V213.76H233.613V212.5H232.053C231.861 212.968 231.657 213.4 231.453 213.736C231.273 213.628 230.877 213.472 230.661 213.4C231.201 212.596 231.621 211.396 231.861 210.244L232.701 210.412C232.593 210.832 232.473 211.276 232.341 211.684H233.613V210.004H234.465V211.684H236.889V212.5H234.465ZM239.061 211.048V217.648H238.221V211.048H239.061ZM240.345 210.088H241.209V219.688C241.209 220.276 241.077 220.54 240.717 220.696C240.345 220.852 239.685 220.876 238.797 220.876C238.749 220.624 238.629 220.216 238.509 219.94C239.217 219.964 239.889 219.964 240.093 219.964C240.285 219.952 240.345 219.904 240.345 219.7V210.088ZM245.261 212.32V211.324H247.517V220H246.413V212.32H245.261ZM249.392 215.572C249.392 214.196 249.616 213.124 250.064 212.356C250.512 211.58 251.296 211.192 252.416 211.192C253.528 211.192 254.308 211.58 254.756 212.356C255.204 213.124 255.428 214.196 255.428 215.572C255.428 216.972 255.204 218.06 254.756 218.836C254.308 219.612 253.528 220 252.416 220C251.296 220 250.512 219.612 250.064 218.836C249.616 218.06 249.392 216.972 249.392 215.572ZM254.348 215.572C254.348 214.876 254.3 214.288 254.204 213.808C254.116 213.32 253.928 212.928 253.64 212.632C253.36 212.336 252.952 212.188 252.416 212.188C251.872 212.188 251.456 212.336 251.168 212.632C250.888 212.928 250.7 213.32 250.604 213.808C250.516 214.288 250.472 214.876 250.472 215.572C250.472 216.292 250.516 216.896 250.604 217.384C250.7 217.872 250.888 218.264 251.168 218.56C251.456 218.856 251.872 219.004 252.416 219.004C252.952 219.004 253.36 218.856 253.64 218.56C253.928 218.264 254.116 217.872 254.204 217.384C254.3 216.896 254.348 216.292 254.348 215.572ZM265.592 211.696V220H264.5V213.808L261.74 220H260.972L258.2 213.796V220H257.108V211.696H258.284L261.356 218.56L264.428 211.696H265.592ZM271.632 215.692C271.936 215.74 272.212 215.864 272.46 216.064C272.716 216.264 272.916 216.512 273.06 216.808C273.212 217.104 273.288 217.42 273.288 217.756C273.288 218.18 273.18 218.564 272.964 218.908C272.748 219.244 272.432 219.512 272.016 219.712C271.608 219.904 271.124 220 270.564 220H267.444V211.636H270.444C271.012 211.636 271.496 211.732 271.896 211.924C272.296 212.108 272.596 212.36 272.796 212.68C272.996 213 273.096 213.36 273.096 213.76C273.096 214.256 272.96 214.668 272.688 214.996C272.424 215.316 272.072 215.548 271.632 215.692ZM268.536 215.248H270.372C270.884 215.248 271.28 215.128 271.56 214.888C271.84 214.648 271.98 214.316 271.98 213.892C271.98 213.468 271.84 213.136 271.56 212.896C271.28 212.656 270.876 212.536 270.348 212.536H268.536V215.248ZM270.468 219.1C271.012 219.1 271.436 218.972 271.74 218.716C272.044 218.46 272.196 218.104 272.196 217.648C272.196 217.184 272.036 216.82 271.716 216.556C271.396 216.284 270.968 216.148 270.432 216.148H268.536V219.1H270.468Z" fill="#5C5F66"/>
<rect x="0.5" y="1" width="419" height="299" rx="7.5" stroke="#DEE2E6"/>
</svg>
